<?xml version="1.0" encoding="utf-8"?>
<!-- Generator: Adobe Illustrator 17.1.0, SVG Export Plug-In . SVG Version: 6.00 Build 0)  -->
<!DOCTYPE svg PUBLIC "-//W3C//DTD SVG 1.1//EN" "http://www.w3.org/Graphics/SVG/1.1/DTD/svg11.dtd">
<svg version="1.1" id="Calque_1" xmlns="http://www.w3.org/2000/svg" xmlns:xlink="http://www.w3.org/1999/xlink" x="0px" y="0px"
	 viewBox="0 0 595.3 841.9" enable-background="new 0 0 595.3 841.9" xml:space="preserve">
<g>
	<g>
		<path d="M241.8,432.5c2,1.6,0.7,5.1-2,5.5c-4,0.5-8.2-1.4-9.2-1.8c-5.3-2.2-4.4-4.7-8-5.3c-2.6-0.4-3.7,2.4-5.6,3.7
			c-2.4,1.7-4.6,2.6-7.8,2.5c-2.7-0.1-5.9-1-8.3-3.2c-1.5-1.3-2.7-4.8-5-4.7c-1.1,0-1.8,0.6-3.7,2.6c-1,1.1-2.9,4.7-9.2,4.7
			c-4.2,0-5.4-1.1-7.4-2.9c-1.2-1.1-2.6-0.9-3.7-0.2c-4.3,3-12.8,2.9-15.4,0.7c-2.1-1.7-3.9-5.1-3.4-8.8c0.4-2.8,1.3-4.1,2.8-6.8
			c3.3-4.3,8.4-7.4,14.8-9c4.4-1.1,6.7,1.6,9,4.5c2.1,2.7,2.2,3.8,2.2,6.1c0,1.4-0.3,3.1-1,4.6c-1.2,3-1.4,3.5-0.8,4.3
			c2.8,3.8,7.6-0.8,9.4-2.9c2.8-3.2,3.9-5.5,4.2-6.1c0.6-8.6-0.4-17.4,3-23.8c1.6-3.1,3.5-5.7,8.2-6.2c9.3-1.1,9.6,6.8,9.7,7.8
			c0.3,6.4-6.3,15.6-6.6,16c-2.2,2.6-9.8,9.8-3.2,14.5c2.6,1.9,5.1,2.3,7.7,1.3c1.7-0.6,4-1.5,7.5-6.8c-0.2-7.4-0.1-12.4,1-16.7
			c1.2-5,4.6-17.7,15.4-14.3c15,4.8-1.8,26.9-2.6,27.8c-1.3,1.6-4.9,5.2-4,7.1C232.4,432.8,240.2,431,241.8,432.5z M199.3,415.1
			c2.6-0.6,8-10.6,8.7-13.4c0.6-2.3,0.4-5.5-2.3-5.2c-4.6,0.5-6.9,8.6-7.2,14.8C198.4,412.7,198.5,415.3,199.3,415.1z M225.9,413.2
			c0,1.2-0.6,4.6,0.4,4.7c1.8,0.2,6.3-8,7.5-10.3c0.8-1.7,3-8-0.6-8.8C228.3,397.7,226.1,409.6,225.9,413.2z M161.1,424
			c-0.9,3.9,2.4,4.5,6.7,2.2c1.8-1,4.2-2.8,5.4-3.6c2.5-1.8,1.6-4.8-2.2-5.2C167.8,417,161.6,422.1,161.1,424z"/>
		<path d="M72.7,415.4c-0.9,2.2,0.9,4.3,2.4,3.9c2-0.6,4.7-4,6.3-5.4c3.2-2.8,8.3-4.3,14.9-0.8c3.1,1.7,4.3,6.8,3.9,12.1
			c7.2,2.7,8.2-4.6,10-9.6c0.6-1.9,1.8-5.4,3.4-6.1c2.4-1.1,9,0.2,11.7,0.8c2.4,0.6,3.1,3,3.2,4.1c0.3,2.5,0.4,8.4,1.5,10.5
			c1,2,2.9,4.7,5.5,5.6c1.9,0.7,4.3,0.3,4.8,2.9c-0.2,2.4-3.5,4-6.3,3.2c-7.2-2-9.1-4.6-10.8-10.8c-0.8-2.8-0.6-5.5-1.5-6.4
			c-0.8-0.7-4-1.8-5-0.1c-0.7,1.2-2.8,6.2-3.6,7.8c-1.3,2.4-2.3,5.1-7.4,6.4c-1.3,0.3-4.5,0.8-8.5-1.4c-1.6,1-4.1,2.4-5.5,3.1
			c-4.7,2.2-11.3,1.7-14.5-2.5c-2.6-3.4-5.7-6.3-10.3-4.2c-2,0.9-2.9,2.6-3.6,4.8c-1.2,3.9,1.6,8.8,0.3,13.9c-1,3.9-4.4,8-4.8,8.5
			c-0.8,1-6.5,8.6-13.1,9.9c-4.3,0.8-8.9-1.2-10.8-4.2c-2.5-4-0.5-9.4,1.6-12.3c1-1.3,2-2.7,3.1-4.1c2-2.6,4-5.3,6.1-8.1
			c1.1-1.4,2.7-3.7,2.8-5.3c0.1-1.7-1.6-2.9-1.7-4.1c-0.2-2.1,1.2-3.4,2.5-3.9c2-1,4.8,0,6.6-1c5.7-3,21.8-30.3,22.6-30.9
			c0.8-0.6,2.1-2,4.3-1.9c2.7,0.1,3.3,2.2,3.4,3.3c0.1,1.6-5.5,9.9-6.6,11.5C76.9,407.9,74,412.1,72.7,415.4z M82.1,428.6
			c4.8,5.9,12.6-4.6,9.9-8C87.3,413.9,79.3,425.6,82.1,428.6z M56.5,445.7c1.1-4.7-2.7-5.4-5.5-3.3c-4,3-5.3,5.2-6.4,6.6
			c-1,1.2-4.1,5.7-3.7,7.5c0.2,0.9,1.5,1.8,2.4,1.9C49.2,458.8,55.7,449.2,56.5,445.7z"/>
	</g>
	<g>
		<g>
			<path d="M475.1,423.4c3.3-4.3,7.6-9.7,11.7-8.3c3.3,1.1,3.2,5.9,5.3,4.3c1.6-1.2,1.5-1.3,2.5-2c0.9-0.6,2.1-1.3,3-1.3
				c2.7-0.2,4,1.9,4.7,4c1,2.9,4.2,7.7,7.3,7.8c2.7,0.1,6.4-3.1,7.5-5.2c1.8-3.3,2.8-5.5,5-7.5c1.9-1.8,6-5,11.5-5.1
				c4-0.1,6.2,0.8,9.4,2.6c0.2-3.7,0.1-8.9,0.7-12.4c0.8-4.8,1.5-8.8,4.9-13c1.4-1.8,3.2-3.7,5-5.2c1.3-1.1,4.6-2.6,6.9-1.9
				c2.5,0.7,4.2,4.9,4.5,7.9c0.8,8-1.9,14.2-6.9,20.6c-0.9,1.1-5.1,6.3-5.9,7.8c-0.7,1.3-1.9,3-2.1,4.6c-0.6,4.5,2.1,9.4,3.9,12.7
				c0.8,1.5,3.4,5.8,2.2,7.5c-2.1,2.9-5.7,0.2-6.5-1.2c-1.1-2.1-4.5-11.9-5.7-10.5c-1.5,2-3.9,3.4-5.1,4.4
				c-2.4,1.9-7.3,2.6-10.7,2.2c-5.6-0.7-5.6-2.1-9.5-3.8c-3.1-1.4-4.4,2.9-9.8,2.9c-5.4,0-5.9-7-9.8-7.2c-2.2-0.1-4.7,2.5-5.5,4.4
				c-1.4,3.2-2.7,4.1-4.9,3.4c-3.5-1.2,0.1-8.8-4.7-8.7c-4.7-0.2-6.6,5.7-12.1,8c-2.6,1.1-7.1,1.6-10-0.1c-2-1.2-3.8-4.7-6.3-5.2
				c-3.1-0.6-5.9,3.1-8.1,4.3c-2.3,1.2-4.6,1.6-7.2,1.9c-3.6,0.3-7.4-1.2-9.5-2.9c-2.7-2.1-5.1-4.5-7.6-6.4
				c-1.3,0.1-4.1,6.8-5.6,9.3c-1,1.6-4.5,6.7-7.5,5.7c-4-1.3,0.9-9.6,2.3-12.1c12.7-22.1,19.8-37.7,20.8-39.8c2-4.4,1.9-4.4,2.7-5.7
				c0.1-0.1,0.9-2.2,3.1-2.4c3.5-0.3,4.4,2.9,3.4,5c-1.8,3.4-2.1,5-5.5,12c-0.7,1.5-6,9.7-1.2,10.4c2.3,0.3,5-2.9,7.3-2.9
				c5.6,0,6.2,5,0.5,7.8c-4.7,2.3-8.3,4.2-9,8.8c-0.3,2.2,2.7,5.8,6.6,5.6c7.1-0.4,13.1-11.4,18.2-10.9c4.4,0.5,2.2,6.3,3.7,8.8
				c1.1,1.9,2.5,3.7,5,3.3C470.5,428.9,471.1,427.9,475.1,423.4z M555.9,388.1c-2,1.2-5.4,5.3-6.6,11.4c-0.5,2.6-0.7,6.4,0.2,8
				c4-0.7,6.2-5.4,8.8-11.4c0.9-2.1,1.4-5.9,0.9-7.4C558.4,387.2,557,387.4,555.9,388.1z M533.9,417.7c-2,0.6-4.4,1.7-5.9,3
				c-1.6,1.2-5.4,4.7-2.4,6.9c1.7,1.3,4.4,0.5,6.5-0.1c2.1-0.6,4-2.1,5.1-3.2c2.6-2.4,3.1-6.8-1-6.8
				C535.3,417.4,534.6,417.5,533.9,417.7z"/>
			<path d="M463.8,408.3c-2.8,0.6-7.2-4.5-1.5-8.2c1.1-0.4,1.4-0.6,2.9-0.2C468.7,400.9,469.7,407.9,463.8,408.3z"/>
		</g>
		<g>
			<g>
				<path d="M415.4,425.9c-4,0.6-4.7,2.4-7.8,1.9c-2.4-0.4-3.3-3.5-4.1-5.2c-0.8-1.5-1-7.1-4.2-7.7c-5.1-1-9.1,4.8-10.7,4.4
					c-1.2-0.3-1-5.2-6.7-5.9c-2.6-0.3-6.1,2.6-6.5,3.1c-6.1,7.3-8.1,11.7-10.9,12.3c-3.5,0.9-5.3-0.2-6.2-0.9
					c-0.9-0.8,1-6.9,1.2-8.8c0.2-1.9-1-3.9-5.4-7.4c-3.2-2.6-11.1,0.1-15.6,3.5c-7.4,6.3-5.8,12.6-5.8,12.6l2,4.8
					c2.6,2.9,10.2,3.3,12.7,2c3.6-1.9,5.3-3.1,6.8-2.2c2.9,1.8,6.4,2.9,7.8,3c2.5,0.1,6.3-1.1,7.9-2.4c1.2-1,3.6-3.8,4.6-4.7
					c9.1-8.8,4.7,5.4,9.5,6.5c2.6,0.6,3.6-1.2,5.1-3c1.8-2.1,2.3-4.8,5.3-4.3c5.8,0.9,4.9,8.2,12.6,8.4c4.1,0.1,9.4-2.5,11.3-4
					C420.8,430.2,418.5,425.9,415.4,425.9z M351.3,423.8c-1.2,0.8-3.4,2.1-5.1,3c-4.1,2.3-8.1,1.3-6-2.5c3-5.5,9.6-6.2,9.6-6.2
					C353.1,417.9,354.4,421.8,351.3,423.8z"/>
			</g>
		</g>
		<path d="M333.5,427.7c-2.2,1.2-6,3.5-7.4,1.6c-0.9-1.1,0.1-4.8,0.3-7.6c0.3-3.2,2.1-6.3,0.3-8.2c-1.7-1.7-5.6-1-7.1,0.3
			c-1.3,1.1-1.8,1.2-3.3,2.4c-3.7,2.9-7.9,6.6-11,8.5c1.4-4.2,4.3-13.4-3.2-12.7c-2.4,0.2-5.6,2.2-7.5,3.5c-1.7,1.2-2.9,2.9-4.2,3.9
			c1.1-1.5,2.4-3,1.7-5.8c-0.5-2.1-4.2-2.9-6.3-1.5c-1.1,0.7-2.1,3.1-2.9,4.7c-1,2.1-7.4,13.8-6.9,15.4c0.2,0.8,0.8,1.7,1.9,2.3
			c0.8,0.5,1.9,0.7,3.4,0.3c3.2-1,6.9-4.6,9.3-6.6c2.6-2.1,7.3-7.1,8.3-6.9c2.3,0.5-3.6,14.1,4.7,12.5c0.9-0.2,3.4-2,4.2-2.7
			c0.6-0.5,4.8-3.8,6.1-5.1c1.5-1.4,3.1-3.8,3.9-3.4c1.1,0.1-0.9,12.1,7.1,12.5c2.2,0.1,3.7,0,5.8-0.6c1.5-0.4,3.4-1.4,4.7-2"/>
	</g>
</g>
<g>
	<g>
		<path d="M307,443.5c0,0-0.4,0.4-0.5,0.9c0,0.5-1.3,4.6-1.5,4.9c-0.2,0.4-1.5,4.5-1.4,5.1c0,0.6,1.6,1.9,1.9,0.5
			c0.3-1.4,0.6-2.5,0.8-3.1c0.3-0.5,0.4-2.4,0.6-2.9c0.2-0.5,1.6-3.1,1.7-3.5C308.7,445,309.2,443.5,307,443.5z M329.4,320.5
			c-1.5,0.2-0.5-2.1-1.8-2.1c-4.8-0.1-9.2,1.3-14.3,1.5c-3.7,0.1-7.6-1.2-11.7-1.2c-24.7-0.1-44.2,0.9-66.5-0.1
			c-0.3-0.7-0.5-1.4-1.8-1.2c0-0.1,0-0.2,0-0.3c-1.8,0-3.7,0-5.6,0c-1.4,1.5-2.8,3.1-4.4,4.4c-3.6-0.5-5.8,1.6-8.2,3.2
			c-1.5,0.1-1.3-1.4-2.9-1.2c-1.4,0.1-2.1,4.3,0.6,3.5c-1.3,2.5-5.8,1.8-7.6,3.8c-0.4,3.9,3.3,3.5,3.8,6.4c-6.1,9-13.2,23.8-20,32.1
			c0,0.3,0,0.6,0,0.9c0.6,1.6,2.2,0.5,2.9-0.3c1.1-0.8,1.1,1.5,2.6,1.2c2.2-0.7,3.2-2.5,5.3-3.2c1.1,1.6-1.5,3.1-1.5,5.3
			c0,2.3,1.8,3.6,2.9,5.3c1.9-0.7,2.7-3.5,4.7-4.7c5.1-3,12.1-3,20.1-4.5c8-1.5,22.4-3,25.9-3.7c1.5-0.3,4-0.5,5.1-0.7
			c1.2-0.3,5.6-0.8,7-0.8c1.7,0,3.5,0,5-0.3c3.1-0.5,3.6-0.7,6.4-0.8c4.2-0.2,7.2-0.5,8,2.5c0.4,1.3-1.7,5.3-2.5,7.2
			c-1.9,4.8-3.7,10.1-5.7,15.1c-2.1,5.2-4,10-5.9,14.6c-1.2,2.9-8.6,19.6-10.6,24.9c-2,5-8.8,21-10.8,26.2c-1.9,5-3.6,9.3-5.7,14.1
			c-5.4,12.3-9.8,29.1-19.7,36.1c0.8,2.1,3,2.7,4.1,4.4c-0.5,2.1-2.5,2.8-1.8,6.1c1.3,1.3,3.8-0.2,4.9,1.2c0,0.1,0,0.2,0,0.3
			c0.2,0,0.4,0,0.6,0c6.2-1.6,11.5-4.6,17.1-7.2c3.7-1.7,13.3-5.8,16.9-7.7c2-1.1,4.3-1.1,6.5-2.2c2.4-1.3,6.1-2.4,9.1-3.8
			c2.2-1.1,7.2-4.3,8.8-4.4c1.6-0.1,1.6,2.1,3.2,1.8c2.6-1,2.7-6.1,4.7-9.9c0.9-1.7,4.6-4.6,4.4-5.5c-0.7-2.7-4.5,0.2-6.1-1.8
			c-0.5-2.9,0.8-5.9,1.7-8.5c2.7-7.6,4.7-14.8,6.7-22.2c0.4-1.6,0.9-3.1,1.3-4.6c-8.1,1.6-10.1-2.9-12.1-6
			c-11.2,9.1-14.1,8.5-20.4,5.3c-6.3-3.3-1.9-12.3-1.9-12.3l7.3-15.2c6.6-11.4,14.8-6,17.8-4.3c11.8-7.3,17.4,4.6,17.4,4.6l0.8-1.4
			c5-17.3,9.2-35.9,13.8-52.6c1.3-4.9,2.3-10.1,3.8-14.6c0.7-2.1,3.3-4.8,4-6.9c0.7-1.9,0.5-4.1,1.2-5.8c0.7-1.7,3.6-3.4,3.5-5.5
			C339.8,321.2,333.5,321.2,329.4,320.5z M232.3,351.3c-2.3-0.2-3,1.6-5.2-0.2c0-0.3,0-0.5-0.2-0.6c0.2-1,0.1-0.2,0.8-0.8
			c0.7,0.1,1-0.4,1.4-0.1c0.9-0.6,7.7-1.4,8.3,0.5C236.6,350.7,234.3,351.8,232.3,351.3z M252.1,349.8c2.2-2.4,6-0.7,6.7-0.8
			C258.8,350.4,252.1,351.5,252.1,349.8z M272.4,350.6c-1.4-0.8-11.4,1.6-12.1-0.5c0.8-2.5,0.9-1.3,3-2.4c0.9,0.2,3.2-1.1,3.8-0.6
			c0.7,0.1,7.8,0.8,8.4,1.2C274.7,349.9,272.1,348.5,272.4,350.6z M313.2,400.7c-0.8,0.2-0.6-0.6-1.2-0.6c0.1-1,1-2.3,2-1.4
			C314,399.5,313.1,399.6,313.2,400.7z M318.8,380.9c-0.3,0.8,0,2.3-0.3,3.2c-0.2,0.6-1.1,1.1-1.2,1.5c-0.3,0.8,0.2,1.9,0,2.6
			c-0.6,2.2-2.1,3.8-1.5,6.1c-1.1,0.1-1.2,1.2-2.6,0.9c0.3-3.1,0.4-6.6,2.3-9.3c-0.7-2.8,1.2-7.2,2.6-9.7
			C321.2,377.1,319.4,379.3,318.8,380.9z M319.9,375.3c-0.8,0.1-1.3-0.1-1.2-0.9c0.3-0.2,0.7-0.3,1.2-0.3
			C319.9,374.6,319.9,374.9,319.9,375.3z M321.1,368.9c1.1-2.1-0.6-5.6,1.8-6.7c1-0.4,0.2,1,0.9,0.9
			C322.4,365.2,323.8,368.2,321.1,368.9z"/>
	</g>
</g>
</svg>
