<?xml version="1.0" encoding="utf-8"?>
<!-- Generator: Adobe Illustrator 17.1.0, SVG Export Plug-In . SVG Version: 6.00 Build 0)  -->
<!DOCTYPE svg PUBLIC "-//W3C//DTD SVG 1.1//EN" "http://www.w3.org/Graphics/SVG/1.1/DTD/svg11.dtd">
<svg version="1.1" id="Calque_1" xmlns="http://www.w3.org/2000/svg" xmlns:xlink="http://www.w3.org/1999/xlink" x="0px" y="0px"
	 viewBox="0 0 595.3 841.9" enable-background="new 0 0 595.3 841.9" xml:space="preserve">
<g>
	<polygon fill="#1D1D1B" points="65.6,415.1 117.9,415.1 136.6,453.3 149.7,453.3 111.7,374.7 98.3,374.7 112.5,403.7 71.2,403.7 
		85.4,374.7 72,374.7 33.5,453.3 46.9,453.3 	"/>
	<path fill="#1D1D1B" d="M166.9,374.7c-2.4,6.5-3.7,13.2-3.7,20.3c0,14.8,5,27.9,15,39.2c13,14.7,30.7,22,53,22
		c18.4,0,33.1-5.3,44-15.9c11-10.6,16.5-24.9,16.6-42.9h-52.1v11.4h38.6c-1.6,10.7-6.7,19.5-15.3,26.2c-8.6,6.8-19.1,10.1-31.6,10.1
		c-10.3,0-19.6-2.3-28.3-6.8c-8.6-4.5-15.3-10.7-20.2-18.6c-4.9-7.9-7.3-16.2-7.3-25c0-7,1.6-13.7,4.8-20.1L166.9,374.7L166.9,374.7
		z"/>
	<polygon fill="#1D1D1B" points="314.8,374.7 314.8,453.3 373.3,453.3 373.3,441.8 326.9,441.8 326.9,374.7 	"/>
	<rect x="390.7" y="374.7" fill="#1D1D1B" width="12.1" height="78.6"/>
	<rect x="430.5" y="374.7" fill="#1D1D1B" width="12.5" height="78.6"/>
	<polygon fill="#1D1D1B" points="522.6,453.3 525.4,453.3 525.4,374.6 513.2,374.6 513.2,425.6 467.3,374.6 451.6,374.6 	"/>
	<rect x="552.9" y="374.7" fill="#1D1D1B" width="12.1" height="78.6"/>
</g>
</svg>
