<svg version="1.1" id="Calque_1" xmlns="http://www.w3.org/2000/svg" xmlns:xlink="http://www.w3.org/1999/xlink" x="0px" y="0px"
	 viewBox="0 0 595.3 841.9" enable-background="new 0 0 595.3 841.9" xml:space="preserve">
<g>
	<polygon fill="#1D1D1B" stroke="#1D1D1B" stroke-miterlimit="3.8637" points="31.9,414.5 61.1,357.2 83.8,357.2 113.3,414.5 
		94,414.5 72.4,370.7 51.3,414.5 	"/>
	<polygon fill="#1D1D1B" stroke="#1D1D1B" stroke-miterlimit="3.8637" points="121.5,414.5 170.9,414.5 170.9,400.1 138.7,400.1 
		138.7,358.5 121.5,358.5 	"/>
	<polygon fill="#1D1D1B" stroke="#1D1D1B" stroke-miterlimit="3.8637" points="266.8,414.5 329.1,414.5 329.1,401.1 284,401.1 
		284,392.1 325.8,392.1 325.8,380.5 284,380.5 284,371.5 328.1,371.5 328.1,358.5 266.8,358.5 	"/>
	<polygon fill="#1D1D1B" stroke="#1D1D1B" stroke-miterlimit="3.8637" points="418.5,372.4 440.8,372.4 440.8,414.5 458,414.5 
		458,372.4 480.2,372.4 480.2,358.5 418.5,358.5 	"/>
	<path fill="#1D1D1B" d="M487.3,394.9c0,16.4,9.2,20.3,24.7,20.3h27.5c15.5,0,24.7-3.9,24.7-20.3v-16.7c0-16.4-9.2-20.3-24.7-20.3
		H512c-15.5,0-24.7,3.9-24.7,20.3V394.9L487.3,394.9z M505,389.5v-6c0-7,1.7-11.2,10.8-11.2h20.1c9.1,0,10.8,4.3,10.8,11.2v6
		c0,8.1-1.7,11.2-9.8,11.2h-22C506.7,400.7,505,397.6,505,389.5L505,389.5z"/>
	<path fill="none" stroke="#1D1D1B" stroke-miterlimit="3.8637" d="M487.3,394.9c0,16.4,9.2,20.3,24.7,20.3h27.5
		c15.5,0,24.7-3.9,24.7-20.3v-16.7c0-16.4-9.2-20.3-24.7-20.3H512c-15.5,0-24.7,3.9-24.7,20.3V394.9L487.3,394.9z M505,389.5v-6
		c0-7,1.7-11.2,10.8-11.2h20.1c9.1,0,10.8,4.3,10.8,11.2v6c0,8.1-1.7,11.2-9.8,11.2h-22C506.7,400.7,505,397.6,505,389.5L505,389.5z
		"/>
	<path fill="#1D1D1B" d="M342.8,414.5H360V400h27c5.3,0,7,1.9,7,7.8v6.7h17.2V405c0-9.2-4.3-11.4-9.4-12.4v-0.2
		c7.9-1.9,9.6-6.3,9.6-13.8V375c0-10.1-3.6-16.6-16.8-16.6h-51.8L342.8,414.5L342.8,414.5z M360,386v-13.6h26.8
		c5.4,0,7.9,0.9,7.9,5.9v1.9c0,4-1.7,5.9-6.3,5.9L360,386L360,386z"/>
	<path fill="none" stroke="#1D1D1B" stroke-miterlimit="3.8637" d="M342.8,414.5H360V400h27c5.3,0,7,1.9,7,7.8v6.7h17.2V405
		c0-9.2-4.3-11.4-9.4-12.4v-0.2c7.9-1.9,9.6-6.3,9.6-13.8V375c0-10.1-3.6-16.6-16.8-16.6h-51.8L342.8,414.5L342.8,414.5z M360,386
		v-13.6h26.8c5.4,0,7.9,0.9,7.9,5.9v1.9c0,4-1.7,5.9-6.3,5.9L360,386L360,386z"/>
	<path fill="#1D1D1B" d="M181.3,414.5H236c9.8,0,17.1-2.6,17.1-14.9c0-8.4-2.8-12.5-10.3-13.4V386c4.8-1.4,8.3-3.2,8.3-12.8
		c0-11-6.7-14.7-20.3-14.7h-49.4L181.3,414.5L181.3,414.5z M198.5,380.7V372h30.4c3.2,0,5,1.2,5,4.4s-1.9,4.3-5,4.3L198.5,380.7
		L198.5,380.7z M198.5,401.1v-8.7h30.8c3.7,0,6.2,0.9,6.2,4.6c0,3.2-2.5,4.1-6.2,4.1H198.5L198.5,401.1z"/>
	<path fill="none" stroke="#1D1D1B" stroke-miterlimit="3.8637" d="M181.3,414.5H236c9.8,0,17.1-2.6,17.1-14.9
		c0-8.4-2.8-12.5-10.3-13.4V386c4.8-1.4,8.3-3.2,8.3-12.8c0-11-6.7-14.7-20.3-14.7h-49.4L181.3,414.5L181.3,414.5z M198.5,380.7V372
		h30.4c3.2,0,5,1.2,5,4.4s-1.9,4.3-5,4.3L198.5,380.7L198.5,380.7z M198.5,401.1v-8.7h30.8c3.7,0,6.2,0.9,6.2,4.6
		c0,3.2-2.5,4.1-6.2,4.1H198.5L198.5,401.1z"/>
	<path fill="#1D1D1B" stroke="#1D1D1B" stroke-miterlimit="3.8637" d="M372.3,465.1v-12.5c0-6.4-2.4-9.8-7.5-9.8
		c-3.4,0-5.1,1.2-6.7,3.2c-1.2-2.1-3-3.2-6-3.2c-2.2,0-4.1,1-5.2,2.5v-2.1h-4.3V465h4.3v-12.8c0-3.5,1.3-5.6,4.2-5.6
		c2.8,0,4.2,1.6,4.2,6v12.3h4.3v-12.8c0-3.5,1.3-5.6,4.2-5.6c2.8,0,4.2,1.6,4.2,6v12.3h4.3V465.1z"/>
	<path fill="#1D1D1B" d="M395.8,453.7c0-5.9-3-10.9-9.2-10.9c-5.7,0-9.6,4-9.6,11.4c0,7.2,4.3,11.3,9.4,11.3c3.3,0,5.6-1,7.5-2.9
		l-2.5-2.7c-1.5,1.1-2.9,1.7-4.7,1.7c-2.7,0-5-1.8-5.5-6h14.4C395.7,455.2,395.8,454.5,395.8,453.7L395.8,453.7z M391.5,452.1h-10.1
		c0.4-3.5,2.1-5.5,5-5.5C389.8,446.6,391.3,449.1,391.5,452.1L391.5,452.1z"/>
	<path fill="none" stroke="#1D1D1B" stroke-miterlimit="3.8637" d="M395.8,453.7c0-5.9-3-10.9-9.2-10.9c-5.7,0-9.6,4-9.6,11.4
		c0,7.2,4.3,11.3,9.4,11.3c3.3,0,5.6-1,7.5-2.9l-2.5-2.7c-1.5,1.1-2.9,1.7-4.7,1.7c-2.7,0-5-1.8-5.5-6h14.4
		C395.7,455.2,395.8,454.5,395.8,453.7L395.8,453.7z M391.5,452.1h-10.1c0.4-3.5,2.1-5.5,5-5.5C389.8,446.6,391.3,449.1,391.5,452.1
		L391.5,452.1z"/>
	<path fill="#1D1D1B" stroke="#1D1D1B" stroke-miterlimit="3.8637" d="M418.3,465.1v-12.5c0-6.4-2.7-9.8-7.8-9.8
		c-2.2,0-4.4,1-5.5,2.5v-2.1h-4.3V465h4.3v-12.8c0-3.5,1.6-5.6,4.5-5.6c2.8,0,4.5,1.6,4.5,6v12.3h4.3V465.1z"/>
	<polygon fill="#1D1D1B" stroke="#1D1D1B" stroke-miterlimit="3.8637" points="427.3,446.2 427.3,437.6 423.5,437.6 423.5,446.2 	
		"/>
	<path fill="#1D1D1B" stroke="#1D1D1B" stroke-miterlimit="3.8637" d="M448.4,459.1c0-4.1-2.5-5.4-7.4-7.3c-3.3-1.3-4-2.1-4-3.2
		c0-1.2,0.9-2,3-2s3.9,0.6,5.7,1.9l1.9-3.3c-2-1.4-4.7-2.4-7.4-2.4c-4.4,0-7.4,2-7.4,5.9c0,3.4,1.7,5,6.4,6.9c3.2,1.2,5.1,2,5.1,3.7
		c0,1.5-1.3,2.4-4,2.4c-2,0-4.3-0.7-6.4-2.2l-2,3.2c2.2,1.6,5.4,2.8,8.4,2.8C444.5,465.5,448.4,463.9,448.4,459.1L448.4,459.1z"/>
	<path fill="#1D1D1B" d="M482.8,454.5c0-8.3-3.7-11.7-8.4-11.7c-2.3,0-4.1,1.1-5.7,2.5v-2.1h-4.2V473l4.2-2.2V463
		c1.2,1.3,3.3,2.5,5.5,2.5C478.7,465.5,482.8,462,482.8,454.5L482.8,454.5z M478.5,454.6c0,4.6-1.7,6.9-4.7,6.9
		c-2.2,0-4.2-1.6-5.1-2.9v-9.2c1.1-1.4,2.9-2.8,4.9-2.8C476.7,446.7,478.5,449.1,478.5,454.6L478.5,454.6z"/>
	<path fill="none" stroke="#1D1D1B" stroke-miterlimit="3.8637" d="M482.8,454.5c0-8.3-3.7-11.7-8.4-11.7c-2.3,0-4.1,1.1-5.7,2.5
		v-2.1h-4.2V473l4.2-2.2V463c1.2,1.3,3.3,2.5,5.5,2.5C478.7,465.5,482.8,462,482.8,454.5L482.8,454.5z M478.5,454.6
		c0,4.6-1.7,6.9-4.7,6.9c-2.2,0-4.2-1.6-5.1-2.9v-9.2c1.1-1.4,2.9-2.8,4.9-2.8C476.7,446.7,478.5,449.1,478.5,454.6L478.5,454.6z"/>
	<path fill="#1D1D1B" d="M504.1,465.1v-15c0-4.9-3.3-7.3-8.2-7.3c-3.1,0-5.4,0.7-7.5,2l1.7,3.2c1.7-1,3.4-1.4,5.7-1.4
		c2.7,0,4.1,1.3,4.1,3.7v1.6c-1.2-0.5-2.8-0.8-4.9-0.8c-4.9,0-8.7,2.2-8.7,7.1c0,5.4,4,7.4,7.6,7.4c2.4,0,4.5-1.1,6-2.6v2.2h4.2
		V465.1z M499.9,458.9c-1,1.4-3,2.8-5.3,2.8c-2.8,0-4.2-1.5-4.2-3.6c0-2,1.7-3.2,4.5-3.2c2.3,0,3.8,0.4,5,1V458.9L499.9,458.9z"/>
	<path fill="none" stroke="#1D1D1B" stroke-miterlimit="3.8637" d="M504.1,465.1v-15c0-4.9-3.3-7.3-8.2-7.3c-3.1,0-5.4,0.7-7.5,2
		l1.7,3.2c1.7-1,3.4-1.4,5.7-1.4c2.7,0,4.1,1.3,4.1,3.7v1.6c-1.2-0.5-2.8-0.8-4.9-0.8c-4.9,0-8.7,2.2-8.7,7.1c0,5.4,4,7.4,7.6,7.4
		c2.4,0,4.5-1.1,6-2.6v2.2h4.2V465.1z M499.9,458.9c-1,1.4-3,2.8-5.3,2.8c-2.8,0-4.2-1.5-4.2-3.6c0-2,1.7-3.2,4.5-3.2
		c2.3,0,3.8,0.4,5,1V458.9L499.9,458.9z"/>
	<path fill="#1D1D1B" stroke="#1D1D1B" stroke-miterlimit="3.8637" d="M527.5,465.1v-12.5c0-6.4-2.7-9.8-7.8-9.8
		c-2.2,0-4.4,1-5.5,2.5v-2.1h-4.3V465h4.3v-12.8c0-3.5,1.6-5.6,4.5-5.6c2.8,0,4.5,1.6,4.5,6v12.3h4.3V465.1z"/>
	<path fill="#1D1D1B" stroke="#1D1D1B" stroke-miterlimit="3.8637" d="M544,460.7c-0.8,0.5-2,0.9-3.2,0.9c-1.6,0-2.2-0.6-2.2-2.6
		v-11.8h5.4v-3.9h-5.4v-8.5l-4.2,2.2v6.2h-3.1v3.9h3.1v12.6c0,3.9,1.9,5.8,4.9,5.8c1.7,0,3.2-0.4,4.2-1L544,460.7L544,460.7z"/>
	<path fill="#1D1D1B" stroke="#1D1D1B" stroke-miterlimit="3.8637" d="M564.4,459.1c0-4.1-2.5-5.4-7.4-7.3c-3.3-1.3-4-2.1-4-3.2
		c0-1.2,0.9-2,3-2s3.9,0.6,5.7,1.9l1.9-3.3c-2-1.4-4.7-2.4-7.4-2.4c-4.4,0-7.4,2-7.4,5.9c0,3.4,1.7,5,6.4,6.9c3.2,1.2,5.1,2,5.1,3.7
		c0,1.5-1.3,2.4-4,2.4c-2,0-4.3-0.7-6.4-2.2l-2,3.2c2.2,1.6,5.4,2.8,8.4,2.8C560.5,465.5,564.4,463.9,564.4,459.1L564.4,459.1z"/>
</g>
</svg>
