<?xml version="1.0" encoding="utf-8"?>
<!-- Generator: Adobe Illustrator 17.1.0, SVG Export Plug-In . SVG Version: 6.00 Build 0)  -->
<!DOCTYPE svg PUBLIC "-//W3C//DTD SVG 1.1//EN" "http://www.w3.org/Graphics/SVG/1.1/DTD/svg11.dtd">
<svg version="1.1" id="Calque_1" xmlns="http://www.w3.org/2000/svg" xmlns:xlink="http://www.w3.org/1999/xlink" x="0px" y="0px"
	 viewBox="0 0 595.3 841.9" enable-background="new 0 0 595.3 841.9" xml:space="preserve">
<g>
	<g>
		<g>
			<g>
				<path fill="#1D1D1B" d="M412.7,354.3h-13.6v79.2c0,12.4-6.3,22.1-13.7,28l0,0c-7.4,5.9-17.6,8.6-28.6,8.6l0,0
					c-13.6,0-24.8-1.6-32.8-6.5l0,0c-7.9-4.9-12.4-13.3-12.4-26.4l0,0v-86.3h17.6V440c0,18.5,13.9,26.7,27.7,26.7l0,0
					c22.9-0.1,35.4-12.4,35.5-36.7v-75.6h-11.9V351h43.2c22,0,36.1,9.1,44.8,20.9l0,0c8.6,11.8,11.7,26.4,11.7,37.4l0,0
					c0,18-5.6,32.6-15.4,42.7l0,0c-9.9,10.1-24,15.6-40.9,15.6l0,0h-14.8V464h9.7c14.7-0.1,41.8-5.4,41.9-54.8l0,0
					C460.7,381.1,452.8,354.3,412.7,354.3L412.7,354.3"/>
			</g>
		</g>
	</g>
	<g>
		<polygon fill="#1D1D1B" points="561.7,409.9 519.2,409.9 519.2,464 564.2,464 564.2,467.5 501.6,467.5 501.6,467.5 501.6,350.9 
			564.2,350.9 564.2,354.3 519.2,354.3 519.2,406.5 561.7,406.5 		"/>
	</g>
	<g>
		<path fill="#1D1D1B" d="M236.2,467.5V350.9h17.6V464h45v3.4h-62.6V467.5z"/>
	</g>
	<g>
		<path fill="#1D1D1B" d="M151.4,467.5V350.9H169V464h45v3.4h-62.6V467.5z"/>
	</g>
	<path fill="#1D1D1B" d="M98.2,429.4l12.9,38.1h18.3l-41.2-119h-3.4L46.2,463.9H31.9v3.4h32.3v-3.4H51.6l11.1-34.5H98.2z
		 M80.4,375.3L97.6,426h-34L80,375.3H80.4z"/>
</g>
</svg>
