<?xml version="1.0" encoding="utf-8"?>
<!-- Generator: Adobe Illustrator 17.1.0, SVG Export Plug-In . SVG Version: 6.00 Build 0)  -->
<!DOCTYPE svg PUBLIC "-//W3C//DTD SVG 1.1//EN" "http://www.w3.org/Graphics/SVG/1.1/DTD/svg11.dtd">
<svg version="1.1" id="Calque_1" xmlns="http://www.w3.org/2000/svg" xmlns:xlink="http://www.w3.org/1999/xlink" x="0px" y="0px"
	 viewBox="0 0 595.3 841.9" enable-background="new 0 0 595.3 841.9" xml:space="preserve">
<path fill="#1D1D1B" d="M51.6,376.9L51.6,376.9l-4.3,12.5h8.5L51.6,376.9z M44.5,397.1l-2.7,6.8H31l15.1-39.1h11.1l14.7,39.1H61.1
	l-2.5-6.8H44.5z"/>
<polygon fill="#1D1D1B" points="76,364.8 86.1,364.8 104.8,388.7 104.9,388.7 104.9,364.8 115.1,364.8 115.1,403.9 104.9,403.9 
	86.2,380 86.1,380 86.1,403.9 76,403.9 "/>
<polygon fill="#1D1D1B" points="137.9,403.9 127.7,403.9 127.7,373.4 119.3,373.4 119.3,364.8 146.3,364.8 146.3,373.4 137.9,373.4 
	"/>
<g>
	<path fill="#1D1D1B" d="M158.9,383.7c0,6.8,5,11.7,11.1,11.7c6.1,0,11.1-4.9,11.1-11.7c0-5.4-5-10.3-11.1-10.3
		C163.9,373.4,158.9,378.3,158.9,383.7 M191.6,383.6c0,12.7-9.1,21.6-21.7,21.6c-12.6,0-21.7-8.9-21.7-21.6
		c0-11.8,10.4-20.1,21.7-20.1C181.2,363.5,191.6,371.8,191.6,383.6"/>
</g>
<polygon fill="#1D1D1B" points="197.5,364.8 207.7,364.8 226.3,388.7 226.4,388.7 226.4,364.8 236.6,364.8 236.6,403.9 226.4,403.9 
	207.8,380 207.7,380 207.7,403.9 197.5,403.9 "/>
<rect x="244.4" y="364.8" fill="#1D1D1B" width="10.2" height="39.1"/>
<g>
	<path fill="#1D1D1B" d="M270.9,383.7c0,6.8,5,11.7,11.1,11.7c6.1,0,11.1-4.9,11.1-11.7c0-5.4-5-10.3-11.1-10.3
		C275.9,373.4,270.9,378.3,270.9,383.7 M303.6,383.6c0,12.7-9.1,21.6-21.7,21.6c-12.6,0-21.7-8.9-21.7-21.6
		c0-11.8,10.4-20.1,21.7-20.1C293.3,363.5,303.6,371.8,303.6,383.6"/>
</g>
<polygon fill="#1D1D1B" points="333.1,364.8 343.1,364.8 351,385.7 359.5,364.8 369.6,364.8 375.5,403.9 365.3,403.9 362.5,381.4 
	362.4,381.4 353,403.9 348.9,403.9 339.9,381.4 339.8,381.4 336.6,403.9 326.4,403.9 "/>
<path fill="#1D1D1B" d="M399,376.9h-0.1l-4.2,12.5h8.5L399,376.9z M391.9,397.1l-2.7,6.8h-10.8l15.1-39.1h11.1l14.7,39.1h-10.9
	l-2.5-6.8H391.9z"/>
<g>
	<path fill="#1D1D1B" d="M455.9,364.8v22c0,5-0.2,10-4.1,13.8c-3.3,3.2-8.4,4.4-13,4.4s-9.7-1.1-13-4.4c-3.9-3.8-4.1-8.8-4.1-13.8
		v-22h10.2v20.6c0,5.1,0.4,10.6,6.9,10.6s6.9-5.6,6.9-10.6v-20.6H455.9z"/>
	<path fill="#1D1D1B" d="M473.7,382.3h1c3.3,0,7.1-0.6,7.1-4.9c0-4.3-3.7-4.9-7.1-4.9h-1V382.3z M496.1,403.9h-12.7l-9.6-15.1h-0.1
		v15.1h-10.2v-39.1h15.2c7.7,0,13.6,3.7,13.6,12c0,5.4-3,10.1-8.6,11.1L496.1,403.9z"/>
</g>
<rect x="499.9" y="364.8" fill="#1D1D1B" width="10.2" height="39.1"/>
<polygon fill="#1D1D1B" points="547.9,395.3 547.9,403.9 514.4,403.9 532.9,373.4 517.5,373.4 517.5,364.8 549.9,364.8 531.5,395.3 
	"/>
<rect x="554" y="364.8" fill="#1D1D1B" width="10.2" height="39.1"/>
<g>
	<path fill="#1D1D1B" d="M421.5,444.9c0-0.2-0.4-0.3-1.1-0.3c-4.8-0.1-23.6-0.4-30-0.6c-1.1-0.1-1.4,0.4-1.4,0.9
		c-0.1,0.6,0.3,0.8,1.6,0.8c6.3-0.1,25.1-0.3,30-0.4C421,445.3,421.5,445.2,421.5,444.9L421.5,444.9z M360.3,449
		c2.2-0.8,5.4-2.1,8.1-3.7c3.6-2.2,6.8-4.5,7.7-7.4c0.7-2.6-0.4-4.4-3.5-4.4c-2.3,0-4.8,1-6.8,2.6c-1.6,1.2-3,2.8-3.4,4.3
		c-0.2,1,0.1,2.1,1.6,2.3c0.6,0.1,1.2-0.1,1.6-0.2c0.2-0.1,0.6-0.3,0.5-0.4s-0.2-0.1-0.5,0c-1.3,0.3-2.1-0.4-1.8-2.1
		c0.3-1.2,1.4-2.6,2.4-3.4c1.4-1.2,3.2-1.8,4.8-1.8c1.4,0,2.2,1.1,1.7,2.7c-1,3-5.7,7.1-10.3,9.8c-2.6,1.5-5.4,2.8-6.4,3.5
		c-0.6,0.3-1,0.6-1.2,1c-0.1,0.3-0.1,0.5,0.1,0.4c0.3-0.1,1-0.6,1.5-0.9c0.6-0.3,1.5-0.7,2.2-0.7c1.1,0,1.9,0.1,2.8,0.6
		c1.1,0.6,2.6,1,3.9,1c2.8,0,5.2-2.4,7-4.8c0.1-0.1,0.3-0.4,0.1-0.6c-0.1-0.1-0.3,0.1-0.6,0.3c-2,2.1-3.2,2.6-4.9,2.6
		c-1.1,0-2.8-0.9-4.3-1C361.5,448.7,361.1,448.8,360.3,449 M360.9,435.3c-5.2,3.5-13.3,10.4-20.3,17.2c-1.7,1.7-1.7,1.9,0.6,1.5
		c1.5-0.2,3.2-0.6,3.7-1c4.5-5.4,12.1-13.7,17.4-18.2c0.4-0.1,0.8-0.2,0.8-0.5c0-0.3-0.8-0.1-1.1,0.1c-1.5,0.4-4.2,0.8-6.5,0.8
		c-2.8-0.1-3.4-1.1-2.8-2.1c0.1-0.3,0.3-0.4,0.3-0.6l-0.1-0.1c-0.3,0-1,0.1-1.6,0.4c-0.6,0.3-1.6,0.8-1.7,1.9
		c-0.2,1.4,1.3,2.1,2.7,2.1C354.9,437.1,358.8,436.1,360.9,435.3 M318.1,458.1c-1.4,0-2.9-0.7-3.4-1.7c-0.1-0.3-0.1-0.6-0.3-0.5
		c-0.2,0-0.2,0.5-0.1,0.9c0.4,1.2,2,2.1,4,2.1c6.9,0,15.4-5.8,20.5-12.4c2.6-3.4,4.1-7.2,3.9-9.4c-0.1-1.6-1-3.1-2.8-3.4
		c-2.4-0.5-7.2,0.9-9.8,4.5s-2.2,7.4,0.8,7.9c1.5,0.3,3-0.4,4.3-1.4c0.7-0.6,1-1.1,0.9-1.2c-0.1-0.2-0.5,0.2-1,0.6
		c-0.8,0.6-2.3,1.4-3.4,1.2c-1.5-0.4-1.1-3,0.8-5.8c2.4-3.4,5.3-5.5,7-5.1c0.8,0.1,1.2,0.8,1,1.9c-0.2,2-1.7,4.6-4.8,9
		c-2,2.8-5.7,7-8.4,9C323.8,457,320.7,458.1,318.1,458.1L318.1,458.1z M323.4,436.4c-1.2,0.7-8.1,8.7-11.7,13.3
		c-2,2.6-1.7,2.7-0.3,2.5c3.2-0.6,3.2-0.8,5-3.2c3.2-4.6,6.4-8.8,10.8-14.1c1-1.1,1-1.5,0.5-1.5c-0.6,0-2.1,0.8-2.8,1.3
		c-1.7,1.2-3.9,2.3-6,3.4c-3.2,1.7-3.4,1.4-3.3,1.7c0.1,0.3,1.8,0,3.3-0.8C320.3,438.3,322,437.3,323.4,436.4 M289.2,447.4
		c0.8-1.4,2.6-3.6,3.7-4.6c1.4-1.3,2.4-2,3-2c0.6,0,0.9,0.3,0.8,1c-0.1,1-1.1,2.4-2.8,3.6C292.5,446.3,290.6,447,289.2,447.4
		 M290,451.3c-1,0-1.6-0.6-1.6-1.6c0-0.4,0.1-1,0.4-1.6c1.6-0.4,3.9-1.2,5.9-2.2c2.1-1,4.3-2.4,4.4-4.2c0.1-0.9-0.5-1.9-2-1.9H297
		c-1.9,0-3.9,0.9-5.9,1.9c-1.3,0.7-2.6,1.5-3.4,2.1c-1,0.8-1.7,1.2-2.6,2.1c-0.3,0.3-0.6,0.6-0.4,0.8c0.1,0.1,0.3,0.1,0.7-0.2
		c0.4-0.3,1.2-1,1.4-1.2l0.1,0.1c-1.4,1.7-2,2.9-2.1,4.3c-0.1,1.8,1.1,2.8,3.7,2.8c2.3,0,4.9-0.9,7.8-2.8c1.2-0.8,3.4-2.6,4.3-3.4
		c0.4-0.3,0.7-0.7,0.6-0.9c-0.1-0.1-0.3-0.1-0.8,0.3c-1.3,1.2-2.9,2.4-4.2,3.3C293.2,450.8,290.9,451.3,290,451.3 M273.9,452.3
		c2.3,0,5.6-1.3,8-3c1.2-0.8,3.2-2.5,4.1-3.3c0.4-0.4,0.7-0.7,0.6-0.9c-0.1-0.1-0.3-0.1-0.8,0.3c-1.1,1-2.8,2.4-4.1,3.3
		c-3,2.1-5.4,2.5-6.3,2.5c-1.1,0-1.7-0.6-1.6-1.6c0.2-1.7,2-4.3,3.9-6.1c1.9-2,3.5-3,4.3-2.9c0.8,0.1,0.6,1-0.2,2.3
		c-0.6,1-0.6,2,0.6,2c0.9,0,2.1-1,2.3-2.3c0.3-1.3-0.3-2.3-1.9-2.6c-1.8-0.3-4,0.6-6.3,1.9c-1.2,0.6-2.6,1.5-3.3,2.1
		c-1,0.8-1.7,1.2-2.6,2.1c-0.3,0.3-0.6,0.6-0.4,0.8c0.1,0.1,0.5-0.1,0.9-0.4c0.4-0.3,1-0.8,1.2-1l0.1,0.1c-1.1,1.3-1.9,2.8-2,4.1
		C270,451.3,271.3,452.3,273.9,452.3L273.9,452.3z M261.2,452.1c2.1,0,4.8-1.7,6.2-2.8c1.4-1.1,3.5-3,4.1-3.6
		c0.5-0.5,0.7-0.8,0.6-0.9s-0.3-0.1-0.9,0.4c-0.8,0.7-2.1,1.9-3.3,2.8c-1.5,1.2-2.5,1.7-3.3,2.1c-0.6,0.3-1.3,0.6-1.7,0.3
		c-0.3-0.2-0.3-0.6,0.3-1.5c0.3-0.6,1.2-1.7,2.3-3c1.1-1.4,2.6-3,2.8-4.2c0.1-1.2-0.7-1.9-2.1-1.9c-2.1,0-5.1,1.9-7.5,3.7
		c-2.4,1.8-4.7,3.8-6.3,5.2l-0.1-0.1c0.8-1.1,2.2-3,3.2-4.3c0.9-1.2,1.4-2.1,1.4-3c0-0.8-0.4-1.5-1.7-1.5c-1.4,0-2.8,0.8-4.7,2.3
		c-1.2,1-2.8,2.4-3.6,3.2c-0.8,0.8-1.2,1.1-1,1.3c0.2,0.2,0.5,0,1.2-0.6c1-0.9,2.1-1.9,3-2.6c0.8-0.7,1.9-1.4,2.7-1.9
		c0.4-0.2,0.8-0.3,1-0.1c0.1,0.2,0,0.6-0.5,1.2c-0.8,1-2,2.6-2.8,3.6c-1.1,1.4-2.6,3.7-3,4.6c-0.6,1-0.1,1.1,0.9,1.1
		c0.8,0,1.2-0.1,1.8-0.6c3-2.3,4.7-3.9,7.7-6.3c2.2-1.7,4.1-2.9,5.4-3.5c0.7-0.3,1.4-0.6,1.8-0.4c0.3,0.2,0.2,0.6-0.1,1
		c-0.8,1-1.9,2.1-2.9,3.4c-1.3,1.6-2.8,3.3-2.9,4.8C259,451.5,259.8,452.1,261.2,452.1 M241.3,441.9c-1.1,1-3.8,3.8-5.2,5.9
		c-0.6,0.8-1,1.7-1,2.6c0,1.1,0.6,1.8,2.1,1.8c2.3,0,4.6-1.7,6-2.8s3.1-2.6,3.9-3.4c0.2-0.2,1-0.9,0.8-1.1c-0.2-0.2-0.5,0.1-1.1,0.6
		c-1.1,1-1.7,1.6-3.2,2.8c-1.2,1-2.3,1.7-3,2.1c-0.7,0.3-1.3,0.5-1.7,0.2c-0.3-0.3-0.2-0.8,0.2-1.5s1.2-1.9,2.4-3.4
		c1.4-1.7,2.5-3,3.7-4.4c0.8-0.9,0.7-1.1-0.8-1.1c-1.3,0-2.2,0.3-4,1.5c-1.7,1.1-4.1,3.2-4.9,3.9c-0.8,0.7-0.9,1-0.8,1.1
		c0.2,0.1,0.5-0.1,1-0.6c0.7-0.6,1.4-1.2,2.5-2.1C239.4,443.1,240.8,442.1,241.3,441.9 M250.9,430.8c-1.3,0-2.3,0.3-2.8,1.3
		c-0.3,0.9-0.3,1.9,0.1,2.3c0.7,0,2.4-0.8,3.2-1.9C252.3,431.5,251.8,430.8,250.9,430.8L250.9,430.8z M228.1,450.3
		c0.8-0.6,1.8-1.9,2.2-2.8c0.8-1.9,0.7-3.7,0.6-5.7c0-0.8-0.1-1.3,0.5-1.9c0.3-0.3,1-0.6,1.7-1c0.9-0.6,1.9-1.4,0.3-1.4
		c-0.5,0-1.2,0.2-2,0.8c-0.5,0.3-1,0.9-1.1,1.2c-1.6,1.4-2.8,2.4-4.1,3.3c-1.1,0.8-2.2,1.5-2.9,1.9c-0.3,0.2-0.4,0.3-0.3,0.6
		c0.1,0.2,0.4,0.1,0.7-0.1c0.6-0.3,1.7-1,2.6-1.7c1.2-0.8,2.6-1.9,3.3-2.6v0.1c-0.8,0.9-2,5-3.2,7c-1.5,2.6-3.2,3.7-4.6,3.7
		c-1.2,0-2.1-0.6-2-1.7c0.1-1,1-1.7,1.6-2.1c0.9-0.5,1.4-1,1.5-1.7c0.1-0.8-0.3-1.4-1.3-1.5c-1.7-0.1-3.2,1.6-3.5,3.6
		c-0.3,1.9,0.5,4.1,4.1,4.1c2.1,0,4.6-0.7,5.8-1.2c1.3-0.6,2.8-1.3,4.3-2.3s2.8-2.1,3.5-2.8c0.6-0.6,0.9-1,0.8-1.1
		c-0.2-0.2-0.6,0.1-0.9,0.4c-1.2,1-2.6,2.3-4.6,3.4C230.1,449.4,228.9,450,228.1,450.3 M207,444.9c0-0.2-0.4-0.3-1.1-0.3
		c-4.8-0.1-23.6-0.4-30-0.6c-1.1-0.1-1.4,0.4-1.4,0.9c-0.1,0.6,0.3,0.8,1.6,0.8c6.3-0.1,25.1-0.3,30-0.4
		C206.6,445.3,207,445.2,207,444.9L207,444.9z"/>
</g>
</svg>
