<?xml version="1.0" encoding="utf-8"?>
<!-- Generator: Adobe Illustrator 17.1.0, SVG Export Plug-In . SVG Version: 6.00 Build 0)  -->
<!DOCTYPE svg PUBLIC "-//W3C//DTD SVG 1.1//EN" "http://www.w3.org/Graphics/SVG/1.1/DTD/svg11.dtd">
<svg version="1.1" id="Calque_1" xmlns="http://www.w3.org/2000/svg" xmlns:xlink="http://www.w3.org/1999/xlink" x="0px" y="0px"
	 viewBox="0 0 595.3 841.9" enable-background="new 0 0 595.3 841.9" xml:space="preserve">
<polyline fill="#1D1D1B" points="30,487.9 30,316.8 201.1,316.8 201.1,487.9 "/>
<path fill="#FFFFFF" d="M137,488c-2.8-5.2-2.8-14.3-2.8-21.6v-54.3c0-22.3-11.5-31.2-37.5-31.2c-13.1,0-22.1,1.8-29.5,6.8
	c-7.4,5.1-11.7,13.9-11.9,28.3h28.1c0.2-9.2,2.7-14.4,11.5-14.4c7,0,10,4.1,10,10.5c0,8-1.8,9.6-11.3,12.1
	c-8.8,2.3-20.5,4.3-28.3,8.6c-7.8,4.3-12.9,14.6-12.9,27c0,14.4,4.1,23.5,11.6,28.2 M95.9,488c4.1-2.6,7.4-6.3,9.4-10.8h0.4
	c0.2,3.6,0.5,7.3,1.4,10.8 M104.7,455.7c0,10.6-6.1,14.4-12.7,14.4c-5.9,0-9.2-5.1-9.2-13.5c0-5.9,1.6-9.2,4.9-11.7
	c2.9-2.3,7.2-2.5,17.2-7.8C104.9,441.5,104.7,446.9,104.7,455.7z"/>
<path fill="#FFFFFF" d="M170.9,488.1"/>
<path fill="#FFFFFF" d="M201.2,488v-68.5l-11.5-0.3l0.1-13.5h11.4v-21.9h-11.4v-31h-31.9v31h-13.2v21.9h13.2v56.4
	c0,17.8,3,23.8,13,25.9"/>
<rect x="201.2" y="405.8" fill="#FFFFFF" width="0" height="13.8"/>
<g>
	<path fill="#1D1D1B" d="M489.4,407.7c2.2-1.3,3.6-1.3,3.6-1.3l2.2,10.3c0,0-1.5,0-3.6,1.3c-1.5,0.9-9.9,6.8-11.9,8
		c-2.2,1.3-3.6,1.3-3.6,1.3l-2.2-10.3c0,0,1.5,0,3.6-1.3C479,414.8,487.4,408.9,489.4,407.7L489.4,407.7z"/>
	<g>
		<g>
			<path fill="#1D1D1B" d="M163.7,449.1c0-10.1,4.8-15.8,15.2-15.8c10.2,0,13.9,5.3,13.9,13.1v29.1c0,2.8,0.9,4.1,2.9,4.1h1.6v4.1
				c-1,0.4-1.9,0.6-2.6,0.6c-4.4,0-7.1-1-7.1-6.1v-1.7h-0.2c-2.2,6.5-7.2,8.3-12.7,8.3c-8.6,0-12.5-5.4-12.5-13.9
				c0-6.5,3-11.7,9.9-13.6l10.5-3c3.9-1.1,4.7-2,4.7-7.8c0-6.3-3.5-8.5-8.5-8.5c-6.6,0-9.5,4-9.5,11.1L163.7,449.1L163.7,449.1z
				 M187.3,455.9h-0.2c-0.6,1.7-3.7,2.7-5.9,3.2l-4.6,1.2c-5.6,1.5-8.4,4.4-8.4,10.2c0,5.7,3,9.6,7.8,9.6c6.8,0,11.4-5.1,11.4-13.9
				v-10.3H187.3z"/>
			<path fill="#1D1D1B" d="M206.6,439.1h-6.8v-4.6h6.8v-13.6h5.6v13.6h8.7v4.6h-8.7v35.3c0,3.9,1.7,5.2,5.3,5.2
				c1.1,0,2.2-0.2,3.4-0.6v4.6c-0.6,0.4-2,0.6-3.9,0.6c-7.5,0-10.4-2-10.4-8.6L206.6,439.1L206.6,439.1z"/>
			<path fill="#1D1D1B" d="M257.3,467.4c-0.8,10.5-6.6,17.4-15.9,17.4c-10.4,0-16.5-7.2-16.5-25.8c0-17.1,6.1-25.7,17-25.7
				s15.9,7.5,15.9,23.9v2h-26.9v2.3c0,14.2,5,18.5,10.5,18.5c5.8,0,9.5-4.2,10.4-12.8h5.5V467.4z M251.8,454.7
				c-0.2-12.2-3.6-16.7-10.5-16.7s-10.3,4.4-10.5,16.7H251.8z"/>
			<path fill="#1D1D1B" d="M266.8,417.5h5.6v66.2h-5.6V417.5z"/>
			<path fill="#1D1D1B" d="M283.9,417.5h5.6v9.5h-5.6V417.5z M283.9,434.5h5.6v49.2h-5.6V434.5z"/>
			<path fill="#1D1D1B" d="M330.9,467.4c-0.8,10.5-6.6,17.4-15.8,17.4c-10.4,0-16.5-7.2-16.5-25.8c0-17.1,6.1-25.7,17-25.7
				s15.9,7.5,15.9,23.9v2h-26.9v2.3c0,14.2,5,18.5,10.5,18.5c5.8,0,9.4-4.2,10.4-12.8h5.4V467.4z M325.4,454.7
				c-0.2-12.2-3.6-16.7-10.5-16.7c-6.9,0-10.3,4.4-10.5,16.7H325.4z"/>
			<path fill="#1D1D1B" d="M340.1,434.5h5.6v7.7h0.2c2.1-5.5,6.7-8.8,12.4-8.8c0.6,0,1.3,0.1,1.9,0.3v5.6c-0.9-0.2-1.8-0.3-2.7-0.3
				c-6.1,0-11.9,4.4-11.9,14v30.8H340v-49.3H340.1z"/>
			<path fill="#1D1D1B" d="M390.1,439.1h-6.8v-4.6h6.8v-13.6h5.6v13.6h8.7v4.6h-8.7v35.3c0,3.9,1.7,5.2,5.3,5.2
				c1.1,0,2.2-0.2,3.4-0.6v4.6c-0.7,0.4-2,0.6-3.9,0.6c-7.5,0-10.4-2-10.4-8.6V439.1z"/>
			<path fill="#1D1D1B" d="M424.8,433.4c10.8,0,17,8.6,17,25.7s-6.1,25.8-17,25.8s-17-8.6-17-25.8C407.8,442,414,433.4,424.8,433.4z
				 M424.8,480.2c6.2,0,11-5.4,11-21.1s-4.8-21-11-21s-11,5.4-11,21C413.8,474.8,418.6,480.2,424.8,480.2z"/>
			<path fill="#1D1D1B" d="M449.9,434.5h5.6v7.7h0.2c2.1-5.5,6.7-8.8,12.4-8.8c0.6,0,1.3,0.1,1.9,0.3v5.6c-0.9-0.2-1.9-0.3-2.7-0.3
				c-6.1,0-11.9,4.4-11.9,14v30.8h-5.6v-49.3H449.9z"/>
			<path fill="#1D1D1B" d="M476.1,434.5h5.6v49.2h-5.6V434.5z"/>
			<path fill="#1D1D1B" d="M492.8,434.5h5v6.9h0.2c2.8-5.5,7.6-8,12.6-8c7.5,0,12.6,3.9,12.6,13.2v37.2h-5.6v-35.6
				c0-6.8-2.8-10.1-8.4-10.1c-6.5,0-10.9,5-10.9,12.6v33.1h-5.6L492.8,434.5L492.8,434.5z"/>
			<path fill="#1D1D1B" d="M548.3,433.4c10.8,0,17,8.6,17,25.7s-6.1,25.8-17,25.8c-10.8,0-17-8.6-17-25.8
				C531.3,442,537.5,433.4,548.3,433.4z M548.3,480.2c6.2,0,11-5.4,11-21.1s-4.8-21-11-21s-11,5.4-11,21
				C537.3,474.8,542.1,480.2,548.3,480.2z"/>
		</g>
	</g>
</g>
<path fill="#FFFFFF" d="M170.6,488.3"/>
<rect x="201" y="406" fill="#FFFFFF" width="0" height="13.8"/>
</svg>
