<?xml version="1.0" encoding="utf-8"?>
<!-- Generator: Adobe Illustrator 17.1.0, SVG Export Plug-In . SVG Version: 6.00 Build 0)  -->
<!DOCTYPE svg PUBLIC "-//W3C//DTD SVG 1.1//EN" "http://www.w3.org/Graphics/SVG/1.1/DTD/svg11.dtd">
<svg version="1.1" id="Calque_1" xmlns="http://www.w3.org/2000/svg" xmlns:xlink="http://www.w3.org/1999/xlink" x="0px" y="0px"
	 viewBox="0 0 595.3 841.9" enable-background="new 0 0 595.3 841.9" xml:space="preserve">
<path fill="#1D1D1B" d="M42,418.2c-2.8,13.1-6.1,26.3-9.5,39.4c4.4-0.2,8.8-0.3,13.1,0c4.3,0.2,8.5,1.3,12.8,1.5
	c15.5,0.9,35.5-6.1,40.3-28.6c3.7-17.3-4.5-25.2-20.2-27l0.1-0.3c14.1-2.6,24.9-10.4,28.1-25.3c3.7-17.2-8.3-22.6-23.5-23.5
	c-4.7-0.3-9.6,0.2-14.3,0c-4.7-0.3-9.4-0.8-14-1.6c-2.2,12.9-4.5,26.2-7.3,39.3L42,418.2L42,418.2z M56.9,400.1l2.4-11.4
	c2-9.6,4.6-19.3,7-28.8c2.6-0.3,5.8-0.4,10.3-0.2c10.1,0.6,21.2,4,17.7,20.4c-3.6,16.9-17.6,21.1-30.2,20.4L56.9,400.1L56.9,400.1z
	 M55.7,405.7l6,0.3c17.8,1,28.5,5.8,24.8,23.1c-3.5,16.4-15.5,25-26.9,24.3c-4.8-0.3-9.7-0.9-12.9-1.5c1.9-10.2,3.6-20.6,5.7-30.7
	L55.7,405.7L55.7,405.7z"/>
<path fill="#1D1D1B" d="M177.4,354.4c-19.8,35-39.7,69.5-60.1,104.2c1.8-0.4,3.5-0.7,5.1-0.7s3.2,0.3,4.9,0.8
	c3.9-9.3,11.6-24.5,19.9-39.7c5.5-0.1,11-0.2,16.5-0.2c5.9,0,11.8,0.2,17.6,0.4c2.6,13.3,6.2,29.6,7,39.9c2.5-0.4,4.8-0.7,7.3-0.7
	c2.4,0,4.7,0.3,7,0.8c-4.4-15.9-15.3-70.2-22.6-104.7L177.4,354.4L177.4,354.4z M180.5,412.3c-5,0.1-10.2,0.2-15.1,0.2
	c-4.7,0-9.8-0.4-14.5-0.4l21.2-37.7L180.5,412.3L180.5,412.3z"/>
<path fill="#1D1D1B" d="M515.9,395.2c2.2-11.1,4.7-22.2,7.3-33.5c3-0.2,7.2-0.4,13.5-0.2c9.4,0.4,20.6,5,17.5,21.2
	c-3.6,18.4-19.6,23-30.9,22.4c-3.6-0.2-6.7-0.5-9.1-1.2L515.9,395.2L515.9,395.2z M499.4,421.2c-2.6,13.3-5.7,26.7-8.9,40
	c2.4-0.4,4.7-0.6,6.9-0.5c2.2,0.1,4.4,0.5,6.6,1.1c2-13.3,4.1-26.8,6.6-40.1l2.2-11.3l5.2,0.2c9.3,14,22.1,43.3,25.8,53
	c2.7-0.3,5.5-0.5,8.2-0.4c2.8,0.1,5.5,0.6,8.1,1.2c-6.1-10.4-22.7-44.7-27.6-54.5c10.8-1.1,30.2-8.3,34-28.2
	c3.6-18.4-8.4-25-24-25.8c-5.2-0.2-10.6,0.3-15.9,0c-5.2-0.2-10.4-0.8-15.6-1.5c-2,13.3-4.1,26.8-6.6,40.1L499.4,421.2L499.4,421.2z
	"/>
<path fill="#1D1D1B" d="M237,439.4c-1.4,5.7-2.3,8.7-4.6,13.3c4.1,4.5,9.8,9.3,21.1,9.9c20.9,1.2,35.7-13.8,38.5-32.2
	c5.1-33.5-39.5-24.1-35.2-52.4c1.7-11.1,10.2-18.4,20.4-17.8c10.2,0.6,13,9.4,14,15.1l1.6,0.1c2-5.7,3.4-9.1,5.6-12.5
	c-4.7-5.2-10.5-7.8-19-8.2c-18.1-1-31.3,10.2-33.9,27c-5.4,35.6,39.2,26,35,53.9c-1.8,12.1-10.7,21.6-22.8,20.9
	c-11.7-0.7-17.2-9.7-19.1-17L237,439.4L237,439.4z"/>
<path fill="#1D1D1B" d="M328.5,420.5c-2.3,12.9-5.1,26-7.9,38.8c8-0.1,15.8,0,23.7,0.4c7.8,0.4,15.6,1,23.3,1.9
	c-0.1-1.5-0.1-3,0.2-4.5c0.3-1.5,0.8-3,1.4-4.5c-13.1,1.4-23.5,0.9-35.5,0.3c2.5-14.7,5.4-32.5,9.9-57.7c2.3-12.9,5.1-26,7.9-38.8
	c-2.2,0.3-4.3,0.6-6.4,0.5c-2-0.1-1.9-1.7-4-2.2c-1.8,12.9-5.7,27.2-8,40.1L328.5,420.5L328.5,420.5z"/>
<path fill="#1D1D1B" d="M411.6,421.5c-2.7,13.4-5.9,26.9-9.1,40.4c8.3-0.1,16.5,0,24.7,0.4c8.2,0.4,16.3,1.1,24.1,1.9
	c0-1.4,0.2-3.1,0.5-4.5c0.3-1.4,0.8-3.4,1.4-4.8c-8.9,1.5-24.8,0.9-36.8,0.3c0.6-3.9,2-11.5,4.4-23.3c3-14.9,3.8-18.8,4.6-22.6
	c6.5,0.3,23.4,1.4,32.5,2.9c0-1.6,0.2-3.1,0.5-4.7c0.3-1.6,0.8-3.3,1.4-4.8c-8.1,0.4-17.2,0.8-33.1,0c0.8-3.9,2.3-12.5,4-20.5
	c1.5-7.6,3-13,4.5-19.7c17.5,0.8,23.9,2.2,35.1,3.7c0-1.6,0.2-3.1,0.5-4.7c0.3-1.6,0.8-3.1,1.3-4.6c-8,0.1-16.1,0-24.2-0.3
	c-8.1-0.4-16-1.1-24-1.9c-2.1,13.2-4.3,26.8-6.9,40.2L411.6,421.5L411.6,421.5z"/>
<path fill="none" stroke="#1D1D1B" stroke-width="2.8346" stroke-miterlimit="3.8637" d="M134.8,324.7l-34.5,154.9 M242.9,325.3
	l-34.5,154.9 M328.8,325.8l-34.5,154.9 M414.2,325.3l-34.5,154.9 M500.1,325.3l-34.5,154.9"/>
</svg>
