<?xml version="1.0" encoding="utf-8"?>
<!-- Generator: Adobe Illustrator 17.1.0, SVG Export Plug-In . SVG Version: 6.00 Build 0)  -->
<!DOCTYPE svg PUBLIC "-//W3C//DTD SVG 1.1//EN" "http://www.w3.org/Graphics/SVG/1.1/DTD/svg11.dtd">
<svg version="1.1" id="Calque_1" xmlns="http://www.w3.org/2000/svg" xmlns:xlink="http://www.w3.org/1999/xlink" x="0px" y="0px"
	 viewBox="0 0 595.3 841.9" enable-background="new 0 0 595.3 841.9" xml:space="preserve">
<g>
	<rect x="4.1" y="111.7" fill="none" width="586.2" height="586.2"/>
	<g>
		<g>
			<g id="XMLID_12_">
				<path fill="#1D1D1B" d="M116,514.8c0,12.7-4.3,23.1-18.4,23.1c-3.8,0-9-1-10.1-3.1c-0.6-1.2-2.6-6.3-2.6-7.4
					c0-1.4,0.5-1.8,1.5-1.8H91c2.2,0,3.3,4.5,7.9,4.5c4.7,0,6.9-5.1,7.1-8.9c-1.8,1.1-4.2,1.7-7.6,1.7c-9.2,0-14.5-6.1-14.5-14.4
					c0-8.1,5.1-15,15.5-15C109.5,493.6,116,501.3,116,514.8z M106.2,511.8c0-5.9-2.7-10.1-7.1-10.1c-3.5,0-5.7,2.6-5.7,6
					c0,4.1,2.2,7.2,6.3,7.2C102,514.9,104.6,514.2,106.2,511.8z"/>
			</g>
		</g>
		<g>
			<path fill="#1D1D1B" d="M122.2,492.3c0.4-1,0.8-1.3,2.2-1.3h24.1c1.3,0,1.9,0.4,1.9,1.8v5.1c0,1.2-0.3,1.9-0.5,2.4l-14.9,33
				c-0.8,1.8-1.4,2.7-2.2,2.7c-0.8,0-5.9-1.2-5.9-2.5c0-0.8,0.3-2.2,1.3-5.1l10.8-29.5h-6c-2.8,0-3.9,4-6.5,4h-5.9
				c-1.2,0-1.7-0.4-1.7-1.7c0-0.5,0.2-1.1,0.4-1.8L122.2,492.3z"/>
		</g>
		<g>
			<g id="XMLID_13_">
				<path fill="#1D1D1B" d="M185.1,519.5c0,6.8-3.7,15.2-15.6,15.2c-11.5,0-16.5-8.5-16.5-19.1c0-12.4,5.5-25.2,19.7-25.2
					c2.9,0,5.6,0.6,7.3,2.1c1.1,1,2.9,7.3,2.9,8.3c0,1.1-0.4,1.5-1.1,1.5h-3.7c-2.9,0-3.8-4.2-7.6-4.2c-5.1,0-6.4,5.5-6.6,9.3
					c2.2-1,4.7-2,8.1-2C180.2,505.4,185.1,511.5,185.1,519.5z M170,526.6c3.8,0,5.6-1.7,5.6-6.3c0-3.8-2.3-6.8-6.3-6.8
					c-2.7,0-4.8,1.2-6.5,3.5C162.9,522.2,164.9,526.6,170,526.6z"/>
			</g>
		</g>
		<g>
			<path fill="#1D1D1B" stroke="#1D1D1B" stroke-width="0.1581" d="M215.4,518.2h12.4v7.1c0,6.9-5.5,12.4-12.5,12.4
				c-5.5,0-9.3-3.2-10.9-6.3c-1.1-2.1-1.5-3.1-1.5-11.5s0.4-9.4,1.5-11.5c1.7-3,5.4-6.3,10.9-6.3c6.6,0,11.2,4.7,12.3,10.4H222
				c-0.8-2.7-3.3-5.1-6.7-5.1c-2.5,0-4.3,1.2-5.4,2.6c-1.4,1.8-1.8,2.8-1.8,9.9c0,7.2,0.4,8.1,1.8,9.9c1.1,1.4,2.9,2.6,5.4,2.6
				c4,0,7.2-3,7.2-7.4v-1.8h-7.1V518.2z"/>
		</g>
		<g>
			<g id="XMLID_14_">
				<g>
					<path fill="#1D1D1B" d="M250.5,504.4l12,33.1h-5.3l-2.6-7.4h-12.5l-2.5,7.4h-5.3l12-33.1H250.5z M253.2,525.6l-4.8-14.5h-0.1
						l-4.8,14.5H253.2z"/>
				</g>
			</g>
		</g>
		<g>
			<polygon fill="#1D1D1B" stroke="#1D1D1B" stroke-width="0.1581" points="269.8,504.4 274.5,504.4 289.5,527.9 289.6,527.9 
				289.6,504.4 294.6,504.4 294.6,537.4 289.8,537.4 274.9,513.9 274.8,513.9 274.8,537.4 269.8,537.4 			"/>
		</g>
		<g>
			<path fill="#1D1D1B" stroke="#1D1D1B" stroke-width="0.1581" d="M305.7,529.4c2.5,2,5.9,3.3,9.4,3.3c4.1,0,6.5-1.9,6.5-4.6
				c0-2.3-1.3-4.1-4.3-4.5c-1.5-0.2-2.6-0.4-4.4-0.6c-5.7-0.8-8.8-4.5-8.8-9.3c0-5.7,3.9-9.7,10.8-9.7c4.1,0,7.7,1.4,10.7,3.4
				l-2.8,4.1c-2.4-1.5-5.2-2.6-8.2-2.6c-3.1,0-5.5,1.6-5.5,4.7c0,1.9,1.3,3.7,4.7,4.2c0.9,0.1,2.1,0.3,3.7,0.5
				c6.2,0.7,9.1,5,9.1,9.5c0,6.1-4.5,9.6-11.6,9.6c-4.9,0-9.2-1.5-12.6-4.5L305.7,529.4z"/>
		</g>
		<g>
			<polygon fill="#1D1D1B" stroke="#1D1D1B" stroke-width="0.1581" points="335.7,504.4 356.8,504.4 356.8,509.1 340.7,509.1 
				340.7,518.5 354.4,518.5 354.4,523 340.7,523 340.7,532.7 356.8,532.7 356.8,537.4 335.7,537.4 			"/>
		</g>
		<g>
			<polygon fill="#1D1D1B" stroke="#1D1D1B" stroke-width="0.1581" points="361.8,504.4 367.1,504.4 374.6,529.5 374.7,529.5 
				382.2,504.4 387.5,504.4 376.6,537.4 372.7,537.4 			"/>
		</g>
		<g>
			<g id="XMLID_15_">
				<g>
					<path fill="#1D1D1B" d="M415,510c1.1,2,1.4,2.9,1.4,10.9c0,7.9-0.4,8.9-1.4,10.9c-1.6,2.9-5.2,6-10.4,6s-8.8-3.1-10.4-6
						c-1.1-2-1.4-2.9-1.4-10.9c0-7.9,0.4-8.9,1.4-10.9c1.6-2.9,5.2-5.9,10.4-5.9S413.4,507.1,415,510z M411.4,520.9
						c0-6.8-0.4-7.7-1.7-9.4c-1-1.3-2.7-2.4-5.1-2.4s-4.1,1.1-5.1,2.4c-1.3,1.7-1.7,2.6-1.7,9.4s0.4,7.7,1.7,9.4
						c1,1.3,2.7,2.4,5.1,2.4s4.1-1.1,5.1-2.4C411,528.6,411.4,527.7,411.4,520.9z"/>
				</g>
			</g>
		</g>
		<g>
			<g id="XMLID_16_">
				<g>
					<path fill="#1D1D1B" d="M447.1,510c1.1,2,1.4,2.9,1.4,10.9c0,7.9-0.4,8.9-1.4,10.9c-1.6,2.9-5.2,6-10.4,6
						c-5.2,0-8.8-3.1-10.4-6c-1.1-2-1.4-2.9-1.4-10.9c0-7.9,0.4-8.9,1.4-10.9c1.6-2.9,5.2-5.9,10.4-5.9
						C441.9,504.1,445.5,507.1,447.1,510z M443.5,520.9c0-6.8-0.4-7.7-1.7-9.4c-1-1.3-2.8-2.4-5.1-2.4c-2.4,0-4.1,1.1-5.1,2.4
						c-1.3,1.7-1.7,2.6-1.7,9.4s0.4,7.7,1.7,9.4c1,1.3,2.7,2.4,5.1,2.4c2.4,0,4.1-1.1,5.1-2.4C443.1,528.6,443.5,527.7,443.5,520.9z
						"/>
				</g>
			</g>
		</g>
		<g>
			<g id="XMLID_17_">
				<g>
					<path fill="#1D1D1B" d="M474.6,522.8l7.7,14.7h-6l-6.8-14.1h-6.4v14.1h-5v-33.1H471c2.8,0,5,0.7,6.7,2.2
						c1.9,1.6,3.3,4.1,3.3,7.1C481,517.9,478.6,521.4,474.6,522.8z M470.7,518.9c3.8,0,5.6-2.5,5.6-5.2c0-1.7-0.7-3-1.7-3.8
						c-0.9-0.7-2-1-3.7-1H463v10H470.7z"/>
				</g>
			</g>
		</g>
		<g>
			<polygon fill="#1D1D1B" stroke="#1D1D1B" stroke-width="0.1581" points="494.9,508.8 485.9,508.8 485.9,504.4 509,504.4 
				509,508.8 500,508.8 500,537.4 494.9,537.4 			"/>
		</g>
		<g>
			<polygon fill="#1D1D1B" stroke="#1D1D1B" stroke-width="0.1581" points="60.8,549 65.8,549 75.9,571.7 85.7,549 90.7,549 
				90.7,583.9 85.4,583.9 85.4,562.1 85.3,562.1 78,578.9 73.5,578.9 66.2,562.1 66.1,562.1 66.1,583.9 60.8,583.9 			"/>
		</g>
		<g>
			<polygon fill="#1D1D1B" stroke="#1D1D1B" stroke-width="0.1581" points="100.5,550.8 121.7,550.8 121.7,555.6 105.5,555.6 
				105.5,565 119.3,565 119.3,569.5 105.5,569.5 105.5,579.2 121.7,579.2 121.7,583.9 100.5,583.9 			"/>
		</g>
		<g>
			<g id="XMLID_18_">
				<g>
					<path fill="#1D1D1B" d="M141.7,550.8l12,33.1h-5.3l-2.6-7.4h-12.5l-2.6,7.4h-5.3l12-33.1H141.7z M144.4,572.1l-4.8-14.4h-0.1
						l-4.8,14.4H144.4z"/>
				</g>
			</g>
		</g>
		<g>
			<polygon fill="#1D1D1B" stroke="#1D1D1B" stroke-width="0.1581" points="162,555.3 152.9,555.3 152.9,550.8 176.1,550.8 
				176.1,555.3 167,555.3 167,583.9 162,583.9 			"/>
		</g>
		<g>
			<g id="XMLID_19_">
				<g>
					<path fill="#1D1D1B" d="M201.6,553.2c2,1.5,3.6,4.3,3.6,7.9c0,4.7-3.6,9.9-10.4,9.9h-7.6v12.9h-5v-33.1h12
						C196.8,550.8,199,551.2,201.6,553.2z M200.2,560.9c0-2.2-0.9-3.6-2.1-4.4c-1.1-0.8-2.1-0.9-3.6-0.9h-7.2v10.7h7.4
						C198.3,566.3,200.2,563.5,200.2,560.9z"/>
				</g>
			</g>
		</g>
		<g>
			<g id="XMLID_20_">
				<g>
					<path fill="#1D1D1B" d="M221.6,550.8l12,33.1h-5.3l-2.6-7.4h-12.5l-2.6,7.4h-5.3l12-33.1H221.6z M224.4,572.1l-4.8-14.4h-0.1
						l-4.8,14.4H224.4z"/>
				</g>
			</g>
		</g>
		<g>
			<path fill="#1D1D1B" stroke="#1D1D1B" stroke-width="0.1581" d="M261.2,574.7c-1.3,6.2-5.9,9.5-11.6,9.5c-5.2,0-8.8-3.1-10.4-5.9
				c-1.1-2-1.4-2.9-1.4-10.9c0-7.9,0.4-8.9,1.4-10.9c1.6-2.9,5.2-5.9,10.4-5.9c6.3,0,10.6,4.4,11.6,9.8h-5.3
				c-0.8-2.6-3.2-4.8-6.3-4.8c-2.4,0-4.1,1.1-5.1,2.4c-1.3,1.7-1.7,2.6-1.7,9.4c0,6.8,0.4,7.7,1.7,9.4c1,1.3,2.7,2.4,5.1,2.4
				c2.8,0,4.9-1.5,6.3-4.5H261.2z"/>
		</g>
		<g>
			<polygon fill="#1D1D1B" stroke="#1D1D1B" stroke-width="0.1581" points="267.3,550.8 272.3,550.8 272.3,567.9 272.4,567.9 
				286,550.8 292,550.8 281.4,563.9 293.1,583.9 287.2,583.9 278.1,567.7 272.3,573.8 272.3,583.9 267.3,583.9 			"/>
		</g>
		<g>
			<rect x="299.2" y="550.8" fill="#1D1D1B" stroke="#1D1D1B" stroke-width="0.1581" width="5" height="33.1"/>
		</g>
		<g>
			<polygon fill="#1D1D1B" stroke="#1D1D1B" stroke-width="0.1581" points="313.7,550.8 318.4,550.8 333.4,574.3 333.5,574.3 
				333.5,550.8 338.5,550.8 338.5,583.9 333.8,583.9 318.8,560.4 318.7,560.4 318.7,583.9 313.7,583.9 			"/>
		</g>
		<g>
			<path fill="#1D1D1B" stroke="#1D1D1B" stroke-width="0.1581" d="M358.8,565.7h11.8v6.7c0,6.5-5.2,11.8-11.8,11.8
				c-5.2,0-8.8-3.1-10.4-5.9c-1.1-2-1.4-2.9-1.4-10.9c0-7.9,0.4-8.9,1.4-10.9c1.6-2.9,5.2-5.9,10.4-5.9c6.3,0,10.6,4.4,11.6,9.8
				h-5.3c-0.8-2.6-3.2-4.8-6.3-4.8c-2.4,0-4.1,1.1-5.1,2.4c-1.3,1.7-1.7,2.6-1.7,9.4c0,6.8,0.4,7.7,1.7,9.4c1,1.3,2.7,2.4,5.1,2.4
				c3.8,0,6.8-2.9,6.8-7v-1.7h-6.7v-4.8H358.8z"/>
		</g>
		<g>
			<g id="XMLID_21_">
				<g>
					<path fill="#1D1D1B" d="M415.7,554.9c1.7,3,1.9,4.3,1.9,11.6c0,7.9-0.4,9.2-2,11.7c-2.1,3.2-5.7,5.8-10.9,5.8h-11.9v-35H405
						C409.7,549,413.5,551,415.7,554.9z M411,575.9c1.2-1.8,1.3-2.8,1.3-9.2c0-6.3-0.1-7.8-1.6-9.7c-1.6-2.2-3.4-2.9-6.2-2.9h-6.3
						V579h6.3C407.5,578.9,409.6,577.9,411,575.9z"/>
				</g>
			</g>
		</g>
		<g>
			<rect x="426.3" y="550.8" fill="#1D1D1B" stroke="#1D1D1B" stroke-width="0.1581" width="5" height="33.1"/>
		</g>
		<g>
			<path fill="#1D1D1B" stroke="#1D1D1B" stroke-width="0.1581" d="M441.2,575.9c2.5,2,5.9,3.3,9.4,3.3c4.1,0,6.5-1.9,6.5-4.6
				c0-2.3-1.3-4.1-4.3-4.5c-1.5-0.2-2.6-0.4-4.4-0.6c-5.7-0.8-8.8-4.5-8.8-9.3c0-5.7,3.9-9.7,10.8-9.7c4.1,0,7.7,1.4,10.7,3.4
				l-2.8,4.1c-2.4-1.5-5.2-2.6-8.2-2.6c-3.1,0-5.5,1.6-5.5,4.7c0,1.9,1.3,3.7,4.7,4.2c0.9,0.1,2.1,0.3,3.7,0.5
				c6.2,0.7,9.1,5,9.1,9.5c0,6.1-4.5,9.6-11.6,9.6c-4.9,0-9.2-1.5-12.6-4.6L441.2,575.9z"/>
		</g>
		<g>
			<polygon fill="#1D1D1B" stroke="#1D1D1B" stroke-width="0.1581" points="475.7,555.3 466.6,555.3 466.6,550.8 489.7,550.8 
				489.7,555.3 480.7,555.3 480.7,583.9 475.7,583.9 			"/>
		</g>
		<g>
			<g id="XMLID_22_">
				<g>
					<path fill="#1D1D1B" d="M512.4,569.2l7.7,14.7h-5.9l-6.8-14.1H501v14.1h-5v-33.1h12.9c2.8,0,5,0.6,6.7,2.2
						c1.9,1.6,3.3,4.1,3.3,7.1C518.8,564.4,516.4,567.8,512.4,569.2z M508.4,565.3c3.8,0,5.6-2.5,5.6-5.2c0-1.7-0.6-3-1.7-3.8
						c-0.9-0.7-2-1-3.7-1h-7.9v10H508.4z"/>
				</g>
			</g>
		</g>
		<g>
			<rect x="526.5" y="579.2" fill="#1D1D1B" stroke="#1D1D1B" stroke-width="0.1581" width="4.7" height="4.7"/>
		</g>
		<g>
			<polygon fill="#1D1D1B" stroke="#1D1D1B" stroke-width="0.1581" points="66.1,600.7 61.1,604.4 61.1,599.1 66.1,595.4 
				71.1,595.4 71.1,630.4 66.1,630.4 			"/>
		</g>
		<g>
			<g id="XMLID_23_">
				<g>
					<path fill="#1D1D1B" d="M104.8,605.2v15.4c0,6.4-4.8,10.1-9.9,10.1c-5.2,0-9.9-3.6-9.9-10.1v-15.4c0-6.4,4.8-10.1,9.9-10.1
						C100,595.1,104.8,598.8,104.8,605.2z M99.8,620.3v-14.8c0-3.4-2-5.4-4.9-5.4c-3,0-4.9,2-4.9,5.4v14.8c0,3.4,2,5.3,4.9,5.3
						C97.8,625.7,99.8,623.7,99.8,620.3z"/>
				</g>
			</g>
		</g>
		<g>
			<g id="XMLID_24_">
				<g>
					<path fill="#1D1D1B" d="M131.2,605.2v15.4c0,6.4-4.8,10.1-9.9,10.1c-5.2,0-9.9-3.6-9.9-10.1v-15.4c0-6.4,4.8-10.1,9.9-10.1
						C126.5,595.1,131.2,598.8,131.2,605.2z M126.2,620.3v-14.8c0-3.4-2-5.4-4.9-5.4c-2.9,0-4.9,2-4.9,5.4v14.8c0,3.4,2,5.3,4.9,5.3
						C124.3,625.7,126.2,623.7,126.2,620.3z"/>
				</g>
			</g>
		</g>
		<g>
			<polygon fill="#1D1D1B" stroke="#1D1D1B" stroke-width="0.1581" points="145.6,600.7 140.6,604.4 140.6,599.1 145.6,595.4 
				150.6,595.4 150.6,630.4 145.6,630.4 			"/>
		</g>
		<g>
			<polygon fill="#1D1D1B" stroke="#1D1D1B" stroke-width="0.1581" points="163.1,620.5 174.8,595.4 180.4,595.4 168.6,620.5 
				177.7,620.5 177.7,610.4 182.7,610.4 182.7,620.5 185.5,620.5 185.5,625.2 182.7,625.2 182.7,630.4 177.7,630.4 177.7,625.2 
				163.1,625.2 			"/>
		</g>
		<g>
			<polygon fill="#1D1D1B" stroke="#1D1D1B" stroke-width="0.1581" points="207.4,595.4 212.4,595.4 228.2,620.3 228.3,620.3 
				228.3,595.4 233.6,595.4 233.6,630.4 228.6,630.4 212.8,605.6 212.7,605.6 212.7,630.4 207.4,630.4 			"/>
		</g>
		<g>
			<polygon fill="#1D1D1B" stroke="#1D1D1B" stroke-width="0.1581" points="243.7,597.3 264.9,597.3 264.9,602 248.7,602 
				248.7,611.5 262.5,611.5 262.5,615.9 248.7,615.9 248.7,625.6 264.9,625.6 264.9,630.4 243.7,630.4 			"/>
		</g>
		<g>
			<polygon fill="#1D1D1B" stroke="#1D1D1B" stroke-width="0.1581" points="269.4,597.3 274.7,597.3 279.9,620.8 280,620.8 
				286.4,597.3 290,597.3 296.4,620.8 296.5,620.8 301.7,597.3 307,597.3 298.7,630.4 294.6,630.4 288.2,606.6 288.2,606.6 
				281.8,630.4 277.7,630.4 			"/>
		</g>
		<g>
			<polygon fill="#1D1D1B" stroke="#1D1D1B" stroke-width="0.1581" points="334,616 323.5,595.4 329.1,595.4 336.5,611 344,595.4 
				349.5,595.4 339,616 339,630.4 334,630.4 			"/>
		</g>
		<g>
			<g id="XMLID_25_">
				<g>
					<path fill="#1D1D1B" d="M376.3,603c1.1,2,1.4,2.9,1.4,10.9s-0.4,8.9-1.4,10.9c-1.6,2.9-5.2,6-10.4,6c-5.2,0-8.8-3.1-10.4-6
						c-1.1-2-1.4-2.9-1.4-10.9c0-7.9,0.4-8.9,1.4-10.9c1.6-2.9,5.2-5.9,10.4-5.9C371.1,597.1,374.7,600.1,376.3,603z M372.7,613.8
						c0-6.8-0.4-7.7-1.7-9.4c-1-1.3-2.7-2.4-5.1-2.4c-2.4,0-4.1,1.1-5.1,2.4c-1.3,1.7-1.7,2.6-1.7,9.4c0,6.8,0.4,7.7,1.7,9.4
						c1,1.3,2.7,2.4,5.1,2.4c2.4,0,4.1-1.1,5.1-2.4C372.3,621.6,372.7,620.6,372.7,613.8z"/>
				</g>
			</g>
		</g>
		<g>
			<g id="XMLID_26_">
				<g>
					<path fill="#1D1D1B" d="M402.9,615.7l7.7,14.7h-5.9l-6.8-14.1h-6.4v14.1h-5v-33.1h12.9c2.8,0,5,0.6,6.7,2.2
						c1.9,1.6,3.3,4.1,3.3,7.1C409.3,610.8,406.9,614.3,402.9,615.7z M399,611.8c3.8,0,5.6-2.5,5.6-5.2c0-1.7-0.7-3-1.7-3.8
						c-0.9-0.7-2-1-3.7-1h-7.9v10H399z"/>
				</g>
			</g>
		</g>
		<g>
			<polygon fill="#1D1D1B" stroke="#1D1D1B" stroke-width="0.1581" points="417.5,597.3 422.5,597.3 422.5,614.4 422.6,614.4 
				436.2,597.3 442.2,597.3 431.6,610.4 443.3,630.4 437.3,630.4 428.3,614.2 422.5,620.3 422.5,630.4 417.5,630.4 			"/>
		</g>
		<g>
			<polygon fill="#1D1D1B" stroke="#1D1D1B" stroke-width="0.1581" points="449.3,625.6 454,625.6 454,630.4 449.3,633.8 			"/>
		</g>
		<g>
			<polygon fill="#1D1D1B" stroke="#1D1D1B" stroke-width="0.1581" points="477.6,595.4 482.7,595.4 498.5,620.3 498.6,620.3 
				498.6,595.4 503.9,595.4 503.9,630.4 498.8,630.4 483,605.6 482.9,605.6 482.9,630.4 477.6,630.4 			"/>
		</g>
		<g>
			<polygon fill="#1D1D1B" stroke="#1D1D1B" stroke-width="0.1581" points="520.2,616 509.7,595.4 515.3,595.4 522.7,611 
				530.1,595.4 535.7,595.4 525.2,616 525.2,630.4 520.2,630.4 			"/>
		</g>
	</g>
</g>
<g>
	<g id="XMLID_4_">
		<g>
			<path fill="#1D1D1B" d="M130.8,443.3c0-3.2-0.1-4-0.8-5c-0.8-1.2-1.8-1.5-3.2-1.5h-3.3v12.9h3.3c1.5,0,2.6-0.5,3.4-1.6
				C130.7,447.2,130.8,446.7,130.8,443.3z M132.6,437.2c0.9,1.5,1,2.2,1,6c0,4.1-0.2,4.8-1,6.1c-1.1,1.7-2.9,3-5.6,3h-6.2v-18.1h6.3
				C129.4,434.2,131.4,435.3,132.6,437.2z"/>
		</g>
	</g>
</g>
<g>
	<g id="XMLID_5_">
		<g>
			<path fill="#1D1D1B" d="M152.4,440.9c0-0.8-0.3-1.5-0.8-1.8c-0.4-0.3-0.9-0.5-1.8-0.5H146v4.8h3.6
				C151.5,443.4,152.4,442.2,152.4,440.9z M153.1,437.5c0.9,0.8,1.6,2,1.6,3.4c0,2-1.2,3.7-3.1,4.4l3.7,7h-2.9l-3.3-6.8H146v6.8
				h-2.4v-15.9h6.2C151.2,436.4,152.2,436.8,153.1,437.5z"/>
		</g>
	</g>
</g>
<g>
	<polygon fill="#1D1D1B" stroke="#1D1D1B" stroke-width="6.630000e-02" points="165.6,445.8 160.8,436.4 163.3,436.4 166.7,443.5 
		170.1,436.4 172.6,436.4 167.8,445.8 167.8,452.3 165.6,452.3 	"/>
</g>
<g>
	<path fill="#1D1D1B" stroke="#1D1D1B" stroke-width="6.630000e-02" d="M196.9,443.6h5.6v3.2c0,3.1-2.5,5.6-5.7,5.6
		c-2.5,0-4.2-1.5-5-2.9c-0.5-0.9-0.7-1.4-0.7-5.2c0-3.8,0.2-4.3,0.7-5.2c0.8-1.4,2.5-2.9,5-2.9c3,0,5.1,2.1,5.6,4.7h-2.5
		c-0.4-1.2-1.5-2.3-3-2.3c-1.1,0-2,0.5-2.5,1.2c-0.6,0.8-0.8,1.2-0.8,4.5c0,3.3,0.2,3.7,0.8,4.5c0.5,0.6,1.3,1.2,2.5,1.2
		c1.8,0,3.3-1.4,3.3-3.4v-0.8H197v-2.2H196.9z"/>
</g>
<g>
	<g id="XMLID_6_">
		<g>
			<path fill="#1D1D1B" d="M221.7,449.6c-0.8,1.4-2.5,2.9-5,2.9c-2.5,0-4.2-1.5-5-2.9c-0.5-0.9-0.7-1.4-0.7-5.2
				c0-3.8,0.2-4.3,0.7-5.2c0.8-1.4,2.5-2.9,5-2.9c2.5,0,4.2,1.5,5,2.9c0.5,0.9,0.7,1.4,0.7,5.2S222.2,448.6,221.7,449.6z
				 M219.9,444.4c0-3.3-0.2-3.7-0.8-4.5c-0.5-0.6-1.3-1.1-2.5-1.1c-1.1,0-2,0.5-2.4,1.1c-0.6,0.8-0.8,1.2-0.8,4.5
				c0,3.2,0.2,3.7,0.8,4.5c0.5,0.6,1.3,1.2,2.4,1.2c1.1,0,2-0.5,2.5-1.2C219.8,448.1,219.9,447.6,219.9,444.4z"/>
		</g>
	</g>
</g>
<g>
	<g id="XMLID_7_">
		<g>
			<path fill="#1D1D1B" d="M241.5,449.6c-0.8,1.4-2.5,2.9-5,2.9c-2.5,0-4.2-1.5-5-2.9c-0.5-0.9-0.7-1.4-0.7-5.2
				c0-3.8,0.2-4.3,0.7-5.2c0.8-1.4,2.5-2.9,5-2.9c2.5,0,4.2,1.5,5,2.9c0.5,0.9,0.7,1.4,0.7,5.2S242,448.6,241.5,449.6z M239.8,444.4
				c0-3.3-0.2-3.7-0.8-4.5c-0.5-0.6-1.3-1.1-2.5-1.1c-1.1,0-2,0.5-2.4,1.1c-0.6,0.8-0.8,1.2-0.8,4.5c0,3.2,0.2,3.7,0.8,4.5
				c0.5,0.6,1.3,1.2,2.4,1.2s2-0.5,2.5-1.2C239.6,448.1,239.8,447.6,239.8,444.4z"/>
		</g>
	</g>
</g>
<g>
	<g id="XMLID_8_">
		<g>
			<path fill="#1D1D1B" d="M259.4,448.6c0.5-0.8,0.6-1.2,0.6-4.2c0-2.9-0.1-3.6-0.7-4.4c-0.7-1-1.5-1.3-2.8-1.3h-2.9V450h2.9
				C257.9,450,258.8,449.6,259.4,448.6z M261.6,439.1c0.8,1.3,0.9,1.9,0.9,5.3c0,3.6-0.2,4.2-0.9,5.3c-0.9,1.5-2.6,2.6-4.9,2.6h-5.4
				v-15.9h5.5C258.9,436.4,260.6,437.4,261.6,439.1z"/>
		</g>
	</g>
</g>
<g>
	<path fill="#1D1D1B" stroke="#1D1D1B" stroke-width="6.630000e-02" d="M271.7,448.5c1.2,1,2.8,1.6,4.5,1.6c2,0,3.1-0.9,3.1-2.2
		c0-1.1-0.6-2-2.1-2.1c-0.7-0.1-1.3-0.2-2.1-0.3c-2.7-0.4-4.2-2.2-4.2-4.5c0-2.7,1.9-4.6,5.2-4.6c2,0,3.7,0.7,5.1,1.6l-1.3,2
		c-1.2-0.7-2.5-1.2-3.9-1.2c-1.5,0-2.7,0.8-2.7,2.3c0,0.9,0.6,1.8,2.3,2c0.4,0.1,1,0.2,1.8,0.2c3,0.4,4.3,2.4,4.3,4.6
		c0,2.9-2.2,4.6-5.6,4.6c-2.3,0-4.4-0.7-6.1-2.2L271.7,448.5z"/>
</g>
<g>
	<g id="XMLID_9_">
		<g>
			<path fill="#1D1D1B" d="M306.2,441.9c1.5-0.6,1.9-1.2,1.9-2s-0.7-1.5-1.6-1.5s-1.6,0.7-1.6,1.5
				C305,440.5,305.5,441.2,306.2,441.9z M309.4,449l-3.8-4.6c-1.6,0.9-2.3,2-2.3,3.1c0,1.7,1.4,2.9,2.9,2.9
				C307.2,450.4,308.3,450,309.4,449z M310.1,439.9c0,1.5-0.8,2.7-2.7,3.6l3.4,4.1c0.7-0.8,1.1-1.7,1.4-2.6l2,0.8
				c-0.5,1.2-1.2,2.5-2.1,3.4l2.7,3.2h-2.7l-1.5-1.6c-1.3,1-2.7,1.8-4.4,1.8c-3,0-5-2.3-5-4.9c0-1.9,1.1-3.6,3-4.6
				c-0.8-0.9-1.3-1.9-1.3-3c0-1.9,1.4-3.6,3.6-3.6C308.7,436.3,310.1,438,310.1,439.9z"/>
		</g>
	</g>
</g>
<g>
	<path fill="#1D1D1B" stroke="#1D1D1B" stroke-width="6.630000e-02" d="M334.8,447.9c1.4,1.1,3.2,1.8,5.1,1.8c2.2,0,3.6-1,3.6-2.5
		c0-1.3-0.7-2.2-2.4-2.4c-0.8-0.1-1.5-0.2-2.4-0.3c-3.1-0.4-4.8-2.5-4.8-5.1c0-3.1,2.2-5.3,5.9-5.3c2.2,0,4.2,0.8,5.9,1.9l-1.5,2.3
		c-1.3-0.8-2.9-1.4-4.5-1.4c-1.7,0-3,0.9-3,2.6c0,1,0.7,2,2.6,2.3c0.5,0.1,1.2,0.2,2,0.3c3.4,0.4,5,2.7,5,5.2c0,3.3-2.5,5.3-6.4,5.3
		c-2.7,0-5-0.8-6.9-2.5L334.8,447.9z"/>
</g>
<g>
	<path fill="#1D1D1B" stroke="#1D1D1B" stroke-width="6.630000e-02" d="M355.8,436.4h2.4v10.2c0,2.2,1.4,3.4,3.2,3.4
		c1.8,0,3.2-1.2,3.2-3.4v-10.2h2.4v10.5c0,3.3-2.5,5.5-5.6,5.5c-3.1,0-5.6-2.2-5.6-5.5V436.4z"/>
</g>
<g>
	<g id="XMLID_10_">
		<g>
			<path fill="#1D1D1B" d="M384.9,441.3c0-1.1-0.4-1.7-1-2.1c-0.5-0.4-1-0.4-1.7-0.4h-3.5v5.1h3.6
				C384.1,443.8,384.9,442.5,384.9,441.3z M385.6,437.6c1,0.7,1.7,2.1,1.7,3.8c0,2.2-1.7,4.8-5,4.8h-3.7v6.2h-2.4v-15.9h5.8
				C383.3,436.4,384.4,436.6,385.6,437.6z"/>
		</g>
	</g>
</g>
<g>
	<g id="XMLID_11_">
		<g>
			<path fill="#1D1D1B" d="M404.4,441.3c0-1.1-0.4-1.7-1-2.1c-0.5-0.4-1-0.4-1.7-0.4h-3.5v5.1h3.6
				C403.5,443.8,404.4,442.5,404.4,441.3z M405.1,437.6c1,0.7,1.7,2.1,1.7,3.8c0,2.2-1.7,4.8-5,4.8h-3.7v6.2h-2.4v-15.9h5.8
				C402.8,436.4,403.8,436.6,405.1,437.6z"/>
		</g>
	</g>
</g>
<g>
	<polygon fill="#1D1D1B" stroke="#1D1D1B" stroke-width="6.630000e-02" points="415.2,436.4 417.6,436.4 417.6,450 425.3,450 
		425.3,452.3 415.2,452.3 	"/>
</g>
<g>
	<rect x="433.8" y="436.4" fill="#1D1D1B" stroke="#1D1D1B" stroke-width="6.630000e-02" width="2.4" height="15.9"/>
</g>
<g>
	<polygon fill="#1D1D1B" stroke="#1D1D1B" stroke-width="6.630000e-02" points="445.8,436.4 455.9,436.4 455.9,438.7 448.2,438.7 
		448.2,443.2 454.8,443.2 454.8,445.4 448.2,445.4 448.2,450 455.9,450 455.9,452.3 445.8,452.3 	"/>
</g>
<g>
	<path fill="#1D1D1B" stroke="#1D1D1B" stroke-width="6.630000e-02" d="M464.6,448.5c1.2,1,2.8,1.6,4.5,1.6c2,0,3.1-0.9,3.1-2.2
		c0-1.1-0.6-2-2.1-2.1c-0.7-0.1-1.3-0.2-2.1-0.3c-2.7-0.4-4.2-2.2-4.2-4.5c0-2.7,1.9-4.6,5.2-4.6c2,0,3.7,0.7,5.1,1.6l-1.3,2
		c-1.2-0.7-2.5-1.2-3.9-1.2c-1.5,0-2.7,0.8-2.7,2.3c0,0.9,0.6,1.8,2.3,2c0.4,0.1,1,0.2,1.8,0.2c3,0.4,4.3,2.4,4.3,4.6
		c0,2.9-2.2,4.6-5.6,4.6c-2.3,0-4.4-0.7-6.1-2.2L464.6,448.5z"/>
</g>
<g>
	<g id="XMLID_1_">
		<g>
			<path fill="#1D1D1B" d="M188.9,339.8l30.2,69.4h-23.4l-26.9-66.7h-25.2v66.7h-19.8V252.9h50.9c11,0,19.6,3.1,26.5,10.3
				c7.3,7.5,13,19.3,13,33.4C214.2,316.8,204.7,333.2,188.9,339.8z M195.5,296.6c0-8.1-2.6-14.3-6.6-17.8c-3.7-3.3-7.7-4.8-14.4-4.8
				h-30.9v47.4h29.8C188.2,321.4,195.5,309.8,195.5,296.6z"/>
		</g>
	</g>
</g>
<g>
	<rect x="235.1" y="258.8" fill="#1D1D1B" stroke="#1D1D1B" stroke-width="0.871" width="19.4" height="150.4"/>
</g>
<g>
	<path fill="#1D1D1B" stroke="#1D1D1B" stroke-width="0.8798" d="M367.7,366.3c-5,28.7-23,44.2-44.9,44.2c-20.1,0-33.9-14.2-40-27.6
		c-4.1-9.1-5.6-13.6-5.6-50.4c0-36.9,1.4-41.4,5.6-50.4c6.1-13.4,19.9-27.6,40-27.6c24.2,0,40.9,20.5,44.9,45.5h-20.5
		c-3.1-11.8-12.2-22.2-24.4-22.2c-9.2,0-15.8,5.2-19.8,11.2c-5,7.8-6.5,12.1-6.5,43.5c0,31.5,1.4,35.8,6.5,43.5
		c4,6,10.6,11.2,19.8,11.2c10.8,0,19-7.1,24.4-20.9L367.7,366.3L367.7,366.3z"/>
</g>
<g>
	<polygon fill="#1D1D1B" stroke="#1D1D1B" stroke-width="0.8798" points="451.4,342.2 400.7,342.2 400.7,409.2 381.3,409.2 
		381.3,255.8 400.7,255.8 400.7,321.5 451.4,321.5 451.4,255.8 470.8,255.8 470.8,409.2 451.4,409.2 	"/>
</g>
<g>
	<g id="XMLID_3_">
		<g>
			<path fill="#1D1D1B" d="M166,203.4c6.8,1.2,10.1,6.1,10.1,11c0,8.2-7.9,13.5-17.2,13.5h-26.1v-47.6h24c12.1,0,18.3,5.3,18.3,12.8
				C175.1,197,173.2,200.9,166,203.4L166,203.4z M166.7,213.9c0-3.7-3.1-7.1-10.1-7.1h-14.4V221h14.4
				C163.6,221,166.7,217.6,166.7,213.9z M165.7,193.5c0-3.7-3.2-6.8-10-6.8h-13.5v13.6h13.5C162.5,200.3,165.7,197.3,165.7,193.5z"
				/>
		</g>
	</g>
</g>
<g>
	<polygon fill="#1D1D1B" stroke="#1D1D1B" stroke-width="0.5718" points="195.1,181.8 233.4,181.8 233.4,188.4 204.2,188.4 
		204.2,201.5 229.1,201.5 229.1,207.8 204.2,207.8 204.2,221.3 233.4,221.3 233.4,227.9 195.1,227.9 	"/>
</g>
<g>
	<polygon fill="#1D1D1B" stroke="#1D1D1B" stroke-width="0.5718" points="264.6,188 248.3,188 248.3,181.8 290.1,181.8 290.1,188 
		273.7,188 273.7,227.9 264.6,227.9 	"/>
</g>
<g>
	<polygon fill="#1D1D1B" stroke="#1D1D1B" stroke-width="0.5718" points="319.3,188 302.9,188 302.9,181.8 344.7,181.8 344.7,188 
		328.3,188 328.3,227.9 319.3,227.9 	"/>
</g>
<g>
	<polygon fill="#1D1D1B" stroke="#1D1D1B" stroke-width="0.5718" points="363.7,181.8 402,181.8 402,188.4 372.8,188.4 372.8,201.5 
		397.7,201.5 397.7,207.8 372.8,207.8 372.8,221.3 402,221.3 402,227.9 363.7,227.9 	"/>
</g>
<g>
	<g id="XMLID_2_">
		<g>
			<path fill="#1D1D1B" d="M453,207.4l13.9,20.4h-10.8l-12.4-19.7h-11.6v19.7H423v-46h23.4c5,0,9,0.9,12.2,3c3.4,2.2,6,5.7,6,9.8
				C464.6,200.6,460.2,205.5,453,207.4z M456,194.7c0-2.4-1.2-4.2-3-5.2c-1.7-1-3.5-1.4-6.6-1.4h-14.2v14h13.7
				C452.7,202,456,198.6,456,194.7z"/>
		</g>
	</g>
</g>
<g>
	<rect x="4.1" y="111.7" fill="none" width="586.2" height="586.2"/>
	<g>
		<g>
			<g id="XMLID_52_">
				<path fill="#1D1D1B" d="M116,514.8c0,12.7-4.3,23.1-18.4,23.1c-3.8,0-9-1-10.1-3.1c-0.6-1.2-2.6-6.3-2.6-7.4
					c0-1.4,0.5-1.8,1.5-1.8H91c2.2,0,3.3,4.5,7.9,4.5c4.7,0,6.9-5.1,7.1-8.9c-1.8,1.1-4.2,1.7-7.6,1.7c-9.2,0-14.5-6.1-14.5-14.4
					c0-8.1,5.1-15,15.5-15C109.5,493.6,116,501.3,116,514.8z M106.2,511.8c0-5.9-2.7-10.1-7.1-10.1c-3.5,0-5.7,2.6-5.7,6
					c0,4.1,2.2,7.2,6.3,7.2C102,514.9,104.6,514.2,106.2,511.8z"/>
			</g>
		</g>
		<g>
			<path fill="#1D1D1B" d="M122.2,492.3c0.4-1,0.8-1.3,2.2-1.3h24.1c1.3,0,1.9,0.4,1.9,1.8v5.1c0,1.2-0.3,1.9-0.5,2.4l-14.9,33
				c-0.8,1.8-1.4,2.7-2.2,2.7c-0.8,0-5.9-1.2-5.9-2.5c0-0.8,0.3-2.2,1.3-5.1l10.8-29.5h-6c-2.8,0-3.9,4-6.5,4h-5.9
				c-1.2,0-1.7-0.4-1.7-1.7c0-0.5,0.2-1.1,0.4-1.8L122.2,492.3z"/>
		</g>
		<g>
			<g id="XMLID_51_">
				<path fill="#1D1D1B" d="M185.1,519.5c0,6.8-3.7,15.2-15.6,15.2c-11.5,0-16.5-8.5-16.5-19.1c0-12.4,5.5-25.2,19.7-25.2
					c2.9,0,5.6,0.6,7.3,2.1c1.1,1,2.9,7.3,2.9,8.3c0,1.1-0.4,1.5-1.1,1.5h-3.7c-2.9,0-3.8-4.2-7.6-4.2c-5.1,0-6.4,5.5-6.6,9.3
					c2.2-1,4.7-2,8.1-2C180.2,505.4,185.1,511.5,185.1,519.5z M170,526.6c3.8,0,5.6-1.7,5.6-6.3c0-3.8-2.3-6.8-6.3-6.8
					c-2.7,0-4.8,1.2-6.5,3.5C162.9,522.2,164.9,526.6,170,526.6z"/>
			</g>
		</g>
		<g>
			<path fill="#1D1D1B" stroke="#1D1D1B" stroke-width="0.1581" d="M215.4,518.2h12.4v7.1c0,6.9-5.5,12.4-12.5,12.4
				c-5.5,0-9.3-3.2-10.9-6.3c-1.1-2.1-1.5-3.1-1.5-11.5s0.4-9.4,1.5-11.5c1.7-3,5.4-6.3,10.9-6.3c6.6,0,11.2,4.7,12.3,10.4H222
				c-0.8-2.7-3.3-5.1-6.7-5.1c-2.5,0-4.3,1.2-5.4,2.6c-1.4,1.8-1.8,2.8-1.8,9.9c0,7.2,0.4,8.1,1.8,9.9c1.1,1.4,2.9,2.6,5.4,2.6
				c4,0,7.2-3,7.2-7.4v-1.8h-7.1V518.2z"/>
		</g>
		<g>
			<g id="XMLID_50_">
				<g>
					<path fill="#1D1D1B" d="M250.5,504.4l12,33.1h-5.3l-2.6-7.4h-12.5l-2.5,7.4h-5.3l12-33.1H250.5z M253.2,525.6l-4.8-14.5h-0.1
						l-4.8,14.5H253.2z"/>
				</g>
			</g>
		</g>
		<g>
			<polygon fill="#1D1D1B" stroke="#1D1D1B" stroke-width="0.1581" points="269.8,504.4 274.5,504.4 289.5,527.9 289.6,527.9 
				289.6,504.4 294.6,504.4 294.6,537.4 289.8,537.4 274.9,513.9 274.8,513.9 274.8,537.4 269.8,537.4 			"/>
		</g>
		<g>
			<path fill="#1D1D1B" stroke="#1D1D1B" stroke-width="0.1581" d="M305.7,529.4c2.5,2,5.9,3.3,9.4,3.3c4.1,0,6.5-1.9,6.5-4.6
				c0-2.3-1.3-4.1-4.3-4.5c-1.5-0.2-2.6-0.4-4.4-0.6c-5.7-0.8-8.8-4.5-8.8-9.3c0-5.7,3.9-9.7,10.8-9.7c4.1,0,7.7,1.4,10.7,3.4
				l-2.8,4.1c-2.4-1.5-5.2-2.6-8.2-2.6c-3.1,0-5.5,1.6-5.5,4.7c0,1.9,1.3,3.7,4.7,4.2c0.9,0.1,2.1,0.3,3.7,0.5
				c6.2,0.7,9.1,5,9.1,9.5c0,6.1-4.5,9.6-11.6,9.6c-4.9,0-9.2-1.5-12.6-4.5L305.7,529.4z"/>
		</g>
		<g>
			<polygon fill="#1D1D1B" stroke="#1D1D1B" stroke-width="0.1581" points="335.7,504.4 356.8,504.4 356.8,509.1 340.7,509.1 
				340.7,518.5 354.4,518.5 354.4,523 340.7,523 340.7,532.7 356.8,532.7 356.8,537.4 335.7,537.4 			"/>
		</g>
		<g>
			<polygon fill="#1D1D1B" stroke="#1D1D1B" stroke-width="0.1581" points="361.8,504.4 367.1,504.4 374.6,529.5 374.7,529.5 
				382.2,504.4 387.5,504.4 376.6,537.4 372.7,537.4 			"/>
		</g>
		<g>
			<g id="XMLID_49_">
				<g>
					<path fill="#1D1D1B" d="M415,510c1.1,2,1.4,2.9,1.4,10.9c0,7.9-0.4,8.9-1.4,10.9c-1.6,2.9-5.2,6-10.4,6s-8.8-3.1-10.4-6
						c-1.1-2-1.4-2.9-1.4-10.9c0-7.9,0.4-8.9,1.4-10.9c1.6-2.9,5.2-5.9,10.4-5.9S413.4,507.1,415,510z M411.4,520.9
						c0-6.8-0.4-7.7-1.7-9.4c-1-1.3-2.7-2.4-5.1-2.4s-4.1,1.1-5.1,2.4c-1.3,1.7-1.7,2.6-1.7,9.4s0.4,7.7,1.7,9.4
						c1,1.3,2.7,2.4,5.1,2.4s4.1-1.1,5.1-2.4C411,528.6,411.4,527.7,411.4,520.9z"/>
				</g>
			</g>
		</g>
		<g>
			<g id="XMLID_48_">
				<g>
					<path fill="#1D1D1B" d="M447.1,510c1.1,2,1.4,2.9,1.4,10.9c0,7.9-0.4,8.9-1.4,10.9c-1.6,2.9-5.2,6-10.4,6
						c-5.2,0-8.8-3.1-10.4-6c-1.1-2-1.4-2.9-1.4-10.9c0-7.9,0.4-8.9,1.4-10.9c1.6-2.9,5.2-5.9,10.4-5.9
						C441.9,504.1,445.5,507.1,447.1,510z M443.5,520.9c0-6.8-0.4-7.7-1.7-9.4c-1-1.3-2.8-2.4-5.1-2.4c-2.4,0-4.1,1.1-5.1,2.4
						c-1.3,1.7-1.7,2.6-1.7,9.4s0.4,7.7,1.7,9.4c1,1.3,2.7,2.4,5.1,2.4c2.4,0,4.1-1.1,5.1-2.4C443.1,528.6,443.5,527.7,443.5,520.9z
						"/>
				</g>
			</g>
		</g>
		<g>
			<g id="XMLID_47_">
				<g>
					<path fill="#1D1D1B" d="M474.6,522.8l7.7,14.7h-6l-6.8-14.1h-6.4v14.1h-5v-33.1H471c2.8,0,5,0.7,6.7,2.2
						c1.9,1.6,3.3,4.1,3.3,7.1C481,517.9,478.6,521.4,474.6,522.8z M470.7,518.9c3.8,0,5.6-2.5,5.6-5.2c0-1.7-0.7-3-1.7-3.8
						c-0.9-0.7-2-1-3.7-1H463v10H470.7z"/>
				</g>
			</g>
		</g>
		<g>
			<polygon fill="#1D1D1B" stroke="#1D1D1B" stroke-width="0.1581" points="494.9,508.8 485.9,508.8 485.9,504.4 509,504.4 
				509,508.8 500,508.8 500,537.4 494.9,537.4 			"/>
		</g>
		<g>
			<polygon fill="#1D1D1B" stroke="#1D1D1B" stroke-width="0.1581" points="60.8,549 65.8,549 75.9,571.7 85.7,549 90.7,549 
				90.7,583.9 85.4,583.9 85.4,562.1 85.3,562.1 78,578.9 73.5,578.9 66.2,562.1 66.1,562.1 66.1,583.9 60.8,583.9 			"/>
		</g>
		<g>
			<polygon fill="#1D1D1B" stroke="#1D1D1B" stroke-width="0.1581" points="100.5,550.8 121.7,550.8 121.7,555.6 105.5,555.6 
				105.5,565 119.3,565 119.3,569.5 105.5,569.5 105.5,579.2 121.7,579.2 121.7,583.9 100.5,583.9 			"/>
		</g>
		<g>
			<g id="XMLID_46_">
				<g>
					<path fill="#1D1D1B" d="M141.7,550.8l12,33.1h-5.3l-2.6-7.4h-12.5l-2.6,7.4h-5.3l12-33.1H141.7z M144.4,572.1l-4.8-14.4h-0.1
						l-4.8,14.4H144.4z"/>
				</g>
			</g>
		</g>
		<g>
			<polygon fill="#1D1D1B" stroke="#1D1D1B" stroke-width="0.1581" points="162,555.3 152.9,555.3 152.9,550.8 176.1,550.8 
				176.1,555.3 167,555.3 167,583.9 162,583.9 			"/>
		</g>
		<g>
			<g id="XMLID_45_">
				<g>
					<path fill="#1D1D1B" d="M201.6,553.2c2,1.5,3.6,4.3,3.6,7.9c0,4.7-3.6,9.9-10.4,9.9h-7.6v12.9h-5v-33.1h12
						C196.8,550.8,199,551.2,201.6,553.2z M200.2,560.9c0-2.2-0.9-3.6-2.1-4.4c-1.1-0.8-2.1-0.9-3.6-0.9h-7.2v10.7h7.4
						C198.3,566.3,200.2,563.5,200.2,560.9z"/>
				</g>
			</g>
		</g>
		<g>
			<g id="XMLID_44_">
				<g>
					<path fill="#1D1D1B" d="M221.6,550.8l12,33.1h-5.3l-2.6-7.4h-12.5l-2.6,7.4h-5.3l12-33.1H221.6z M224.4,572.1l-4.8-14.4h-0.1
						l-4.8,14.4H224.4z"/>
				</g>
			</g>
		</g>
		<g>
			<path fill="#1D1D1B" stroke="#1D1D1B" stroke-width="0.1581" d="M261.2,574.7c-1.3,6.2-5.9,9.5-11.6,9.5c-5.2,0-8.8-3.1-10.4-5.9
				c-1.1-2-1.4-2.9-1.4-10.9c0-7.9,0.4-8.9,1.4-10.9c1.6-2.9,5.2-5.9,10.4-5.9c6.3,0,10.6,4.4,11.6,9.8h-5.3
				c-0.8-2.6-3.2-4.8-6.3-4.8c-2.4,0-4.1,1.1-5.1,2.4c-1.3,1.7-1.7,2.6-1.7,9.4c0,6.8,0.4,7.7,1.7,9.4c1,1.3,2.7,2.4,5.1,2.4
				c2.8,0,4.9-1.5,6.3-4.5H261.2z"/>
		</g>
		<g>
			<polygon fill="#1D1D1B" stroke="#1D1D1B" stroke-width="0.1581" points="267.3,550.8 272.3,550.8 272.3,567.9 272.4,567.9 
				286,550.8 292,550.8 281.4,563.9 293.1,583.9 287.2,583.9 278.1,567.7 272.3,573.8 272.3,583.9 267.3,583.9 			"/>
		</g>
		<g>
			<rect x="299.2" y="550.8" fill="#1D1D1B" stroke="#1D1D1B" stroke-width="0.1581" width="5" height="33.1"/>
		</g>
		<g>
			<polygon fill="#1D1D1B" stroke="#1D1D1B" stroke-width="0.1581" points="313.7,550.8 318.4,550.8 333.4,574.3 333.5,574.3 
				333.5,550.8 338.5,550.8 338.5,583.9 333.8,583.9 318.8,560.4 318.7,560.4 318.7,583.9 313.7,583.9 			"/>
		</g>
		<g>
			<path fill="#1D1D1B" stroke="#1D1D1B" stroke-width="0.1581" d="M358.8,565.7h11.8v6.7c0,6.5-5.2,11.8-11.8,11.8
				c-5.2,0-8.8-3.1-10.4-5.9c-1.1-2-1.4-2.9-1.4-10.9c0-7.9,0.4-8.9,1.4-10.9c1.6-2.9,5.2-5.9,10.4-5.9c6.3,0,10.6,4.4,11.6,9.8
				h-5.3c-0.8-2.6-3.2-4.8-6.3-4.8c-2.4,0-4.1,1.1-5.1,2.4c-1.3,1.7-1.7,2.6-1.7,9.4c0,6.8,0.4,7.7,1.7,9.4c1,1.3,2.7,2.4,5.1,2.4
				c3.8,0,6.8-2.9,6.8-7v-1.7h-6.7v-4.8H358.8z"/>
		</g>
		<g>
			<g id="XMLID_43_">
				<g>
					<path fill="#1D1D1B" d="M415.7,554.9c1.7,3,1.9,4.3,1.9,11.6c0,7.9-0.4,9.2-2,11.7c-2.1,3.2-5.7,5.8-10.9,5.8h-11.9v-35H405
						C409.7,549,413.5,551,415.7,554.9z M411,575.9c1.2-1.8,1.3-2.8,1.3-9.2c0-6.3-0.1-7.8-1.6-9.7c-1.6-2.2-3.4-2.9-6.2-2.9h-6.3
						V579h6.3C407.5,578.9,409.6,577.9,411,575.9z"/>
				</g>
			</g>
		</g>
		<g>
			<rect x="426.3" y="550.8" fill="#1D1D1B" stroke="#1D1D1B" stroke-width="0.1581" width="5" height="33.1"/>
		</g>
		<g>
			<path fill="#1D1D1B" stroke="#1D1D1B" stroke-width="0.1581" d="M441.2,575.9c2.5,2,5.9,3.3,9.4,3.3c4.1,0,6.5-1.9,6.5-4.6
				c0-2.3-1.3-4.1-4.3-4.5c-1.5-0.2-2.6-0.4-4.4-0.6c-5.7-0.8-8.8-4.5-8.8-9.3c0-5.7,3.9-9.7,10.8-9.7c4.1,0,7.7,1.4,10.7,3.4
				l-2.8,4.1c-2.4-1.5-5.2-2.6-8.2-2.6c-3.1,0-5.5,1.6-5.5,4.7c0,1.9,1.3,3.7,4.7,4.2c0.9,0.1,2.1,0.3,3.7,0.5
				c6.2,0.7,9.1,5,9.1,9.5c0,6.1-4.5,9.6-11.6,9.6c-4.9,0-9.2-1.5-12.6-4.6L441.2,575.9z"/>
		</g>
		<g>
			<polygon fill="#1D1D1B" stroke="#1D1D1B" stroke-width="0.1581" points="475.7,555.3 466.6,555.3 466.6,550.8 489.7,550.8 
				489.7,555.3 480.7,555.3 480.7,583.9 475.7,583.9 			"/>
		</g>
		<g>
			<g id="XMLID_42_">
				<g>
					<path fill="#1D1D1B" d="M512.4,569.2l7.7,14.7h-5.9l-6.8-14.1H501v14.1h-5v-33.1h12.9c2.8,0,5,0.6,6.7,2.2
						c1.9,1.6,3.3,4.1,3.3,7.1C518.8,564.4,516.4,567.8,512.4,569.2z M508.4,565.3c3.8,0,5.6-2.5,5.6-5.2c0-1.7-0.6-3-1.7-3.8
						c-0.9-0.7-2-1-3.7-1h-7.9v10H508.4z"/>
				</g>
			</g>
		</g>
		<g>
			<rect x="526.5" y="579.2" fill="#1D1D1B" stroke="#1D1D1B" stroke-width="0.1581" width="4.7" height="4.7"/>
		</g>
		<g>
			<polygon fill="#1D1D1B" stroke="#1D1D1B" stroke-width="0.1581" points="66.1,600.7 61.1,604.4 61.1,599.1 66.1,595.4 
				71.1,595.4 71.1,630.4 66.1,630.4 			"/>
		</g>
		<g>
			<g id="XMLID_41_">
				<g>
					<path fill="#1D1D1B" d="M104.8,605.2v15.4c0,6.4-4.8,10.1-9.9,10.1c-5.2,0-9.9-3.6-9.9-10.1v-15.4c0-6.4,4.8-10.1,9.9-10.1
						C100,595.1,104.8,598.8,104.8,605.2z M99.8,620.3v-14.8c0-3.4-2-5.4-4.9-5.4c-3,0-4.9,2-4.9,5.4v14.8c0,3.4,2,5.3,4.9,5.3
						C97.8,625.7,99.8,623.7,99.8,620.3z"/>
				</g>
			</g>
		</g>
		<g>
			<g id="XMLID_40_">
				<g>
					<path fill="#1D1D1B" d="M131.2,605.2v15.4c0,6.4-4.8,10.1-9.9,10.1c-5.2,0-9.9-3.6-9.9-10.1v-15.4c0-6.4,4.8-10.1,9.9-10.1
						C126.5,595.1,131.2,598.8,131.2,605.2z M126.2,620.3v-14.8c0-3.4-2-5.4-4.9-5.4c-2.9,0-4.9,2-4.9,5.4v14.8c0,3.4,2,5.3,4.9,5.3
						C124.3,625.7,126.2,623.7,126.2,620.3z"/>
				</g>
			</g>
		</g>
		<g>
			<polygon fill="#1D1D1B" stroke="#1D1D1B" stroke-width="0.1581" points="145.6,600.7 140.6,604.4 140.6,599.1 145.6,595.4 
				150.6,595.4 150.6,630.4 145.6,630.4 			"/>
		</g>
		<g>
			<polygon fill="#1D1D1B" stroke="#1D1D1B" stroke-width="0.1581" points="163.1,620.5 174.8,595.4 180.4,595.4 168.6,620.5 
				177.7,620.5 177.7,610.4 182.7,610.4 182.7,620.5 185.5,620.5 185.5,625.2 182.7,625.2 182.7,630.4 177.7,630.4 177.7,625.2 
				163.1,625.2 			"/>
		</g>
		<g>
			<polygon fill="#1D1D1B" stroke="#1D1D1B" stroke-width="0.1581" points="207.4,595.4 212.4,595.4 228.2,620.3 228.3,620.3 
				228.3,595.4 233.6,595.4 233.6,630.4 228.6,630.4 212.8,605.6 212.7,605.6 212.7,630.4 207.4,630.4 			"/>
		</g>
		<g>
			<polygon fill="#1D1D1B" stroke="#1D1D1B" stroke-width="0.1581" points="243.7,597.3 264.9,597.3 264.9,602 248.7,602 
				248.7,611.5 262.5,611.5 262.5,615.9 248.7,615.9 248.7,625.6 264.9,625.6 264.9,630.4 243.7,630.4 			"/>
		</g>
		<g>
			<polygon fill="#1D1D1B" stroke="#1D1D1B" stroke-width="0.1581" points="269.4,597.3 274.7,597.3 279.9,620.8 280,620.8 
				286.4,597.3 290,597.3 296.4,620.8 296.5,620.8 301.7,597.3 307,597.3 298.7,630.4 294.6,630.4 288.2,606.6 288.2,606.6 
				281.8,630.4 277.7,630.4 			"/>
		</g>
		<g>
			<polygon fill="#1D1D1B" stroke="#1D1D1B" stroke-width="0.1581" points="334,616 323.5,595.4 329.1,595.4 336.5,611 344,595.4 
				349.5,595.4 339,616 339,630.4 334,630.4 			"/>
		</g>
		<g>
			<g id="XMLID_39_">
				<g>
					<path fill="#1D1D1B" d="M376.3,603c1.1,2,1.4,2.9,1.4,10.9s-0.4,8.9-1.4,10.9c-1.6,2.9-5.2,6-10.4,6c-5.2,0-8.8-3.1-10.4-6
						c-1.1-2-1.4-2.9-1.4-10.9c0-7.9,0.4-8.9,1.4-10.9c1.6-2.9,5.2-5.9,10.4-5.9C371.1,597.1,374.7,600.1,376.3,603z M372.7,613.8
						c0-6.8-0.4-7.7-1.7-9.4c-1-1.3-2.7-2.4-5.1-2.4c-2.4,0-4.1,1.1-5.1,2.4c-1.3,1.7-1.7,2.6-1.7,9.4c0,6.8,0.4,7.7,1.7,9.4
						c1,1.3,2.7,2.4,5.1,2.4c2.4,0,4.1-1.1,5.1-2.4C372.3,621.6,372.7,620.6,372.7,613.8z"/>
				</g>
			</g>
		</g>
		<g>
			<g id="XMLID_38_">
				<g>
					<path fill="#1D1D1B" d="M402.9,615.7l7.7,14.7h-5.9l-6.8-14.1h-6.4v14.1h-5v-33.1h12.9c2.8,0,5,0.6,6.7,2.2
						c1.9,1.6,3.3,4.1,3.3,7.1C409.3,610.8,406.9,614.3,402.9,615.7z M399,611.8c3.8,0,5.6-2.5,5.6-5.2c0-1.7-0.7-3-1.7-3.8
						c-0.9-0.7-2-1-3.7-1h-7.9v10H399z"/>
				</g>
			</g>
		</g>
		<g>
			<polygon fill="#1D1D1B" stroke="#1D1D1B" stroke-width="0.1581" points="417.5,597.3 422.5,597.3 422.5,614.4 422.6,614.4 
				436.2,597.3 442.2,597.3 431.6,610.4 443.3,630.4 437.3,630.4 428.3,614.2 422.5,620.3 422.5,630.4 417.5,630.4 			"/>
		</g>
		<g>
			<polygon fill="#1D1D1B" stroke="#1D1D1B" stroke-width="0.1581" points="449.3,625.6 454,625.6 454,630.4 449.3,633.8 			"/>
		</g>
		<g>
			<polygon fill="#1D1D1B" stroke="#1D1D1B" stroke-width="0.1581" points="477.6,595.4 482.7,595.4 498.5,620.3 498.6,620.3 
				498.6,595.4 503.9,595.4 503.9,630.4 498.8,630.4 483,605.6 482.9,605.6 482.9,630.4 477.6,630.4 			"/>
		</g>
		<g>
			<polygon fill="#1D1D1B" stroke="#1D1D1B" stroke-width="0.1581" points="520.2,616 509.7,595.4 515.3,595.4 522.7,611 
				530.1,595.4 535.7,595.4 525.2,616 525.2,630.4 520.2,630.4 			"/>
		</g>
	</g>
</g>
<g>
	<g id="XMLID_37_">
		<g>
			<path fill="#1D1D1B" d="M130.8,443.3c0-3.2-0.1-4-0.8-5c-0.8-1.2-1.8-1.5-3.2-1.5h-3.3v12.9h3.3c1.5,0,2.6-0.5,3.4-1.6
				C130.7,447.2,130.8,446.7,130.8,443.3z M132.6,437.2c0.9,1.5,1,2.2,1,6c0,4.1-0.2,4.8-1,6.1c-1.1,1.7-2.9,3-5.6,3h-6.2v-18.1h6.3
				C129.4,434.2,131.4,435.3,132.6,437.2z"/>
		</g>
	</g>
</g>
<g>
	<g id="XMLID_36_">
		<g>
			<path fill="#1D1D1B" d="M152.4,440.9c0-0.8-0.3-1.5-0.8-1.8c-0.4-0.3-0.9-0.5-1.8-0.5H146v4.8h3.6
				C151.5,443.4,152.4,442.2,152.4,440.9z M153.1,437.5c0.9,0.8,1.6,2,1.6,3.4c0,2-1.2,3.7-3.1,4.4l3.7,7h-2.9l-3.3-6.8H146v6.8
				h-2.4v-15.9h6.2C151.2,436.4,152.2,436.8,153.1,437.5z"/>
		</g>
	</g>
</g>
<g>
	<polygon fill="#1D1D1B" stroke="#1D1D1B" stroke-width="6.630000e-02" points="165.6,445.8 160.8,436.4 163.3,436.4 166.7,443.5 
		170.1,436.4 172.6,436.4 167.8,445.8 167.8,452.3 165.6,452.3 	"/>
</g>
<g>
	<path fill="#1D1D1B" stroke="#1D1D1B" stroke-width="6.630000e-02" d="M196.9,443.6h5.6v3.2c0,3.1-2.5,5.6-5.7,5.6
		c-2.5,0-4.2-1.5-5-2.9c-0.5-0.9-0.7-1.4-0.7-5.2c0-3.8,0.2-4.3,0.7-5.2c0.8-1.4,2.5-2.9,5-2.9c3,0,5.1,2.1,5.6,4.7h-2.5
		c-0.4-1.2-1.5-2.3-3-2.3c-1.1,0-2,0.5-2.5,1.2c-0.6,0.8-0.8,1.2-0.8,4.5c0,3.3,0.2,3.7,0.8,4.5c0.5,0.6,1.3,1.2,2.5,1.2
		c1.8,0,3.3-1.4,3.3-3.4v-0.8H197v-2.2H196.9z"/>
</g>
<g>
	<g id="XMLID_35_">
		<g>
			<path fill="#1D1D1B" d="M221.7,449.6c-0.8,1.4-2.5,2.9-5,2.9c-2.5,0-4.2-1.5-5-2.9c-0.5-0.9-0.7-1.4-0.7-5.2
				c0-3.8,0.2-4.3,0.7-5.2c0.8-1.4,2.5-2.9,5-2.9c2.5,0,4.2,1.5,5,2.9c0.5,0.9,0.7,1.4,0.7,5.2S222.2,448.6,221.7,449.6z
				 M219.9,444.4c0-3.3-0.2-3.7-0.8-4.5c-0.5-0.6-1.3-1.1-2.5-1.1c-1.1,0-2,0.5-2.4,1.1c-0.6,0.8-0.8,1.2-0.8,4.5
				c0,3.2,0.2,3.7,0.8,4.5c0.5,0.6,1.3,1.2,2.4,1.2c1.1,0,2-0.5,2.5-1.2C219.8,448.1,219.9,447.6,219.9,444.4z"/>
		</g>
	</g>
</g>
<g>
	<g id="XMLID_34_">
		<g>
			<path fill="#1D1D1B" d="M241.5,449.6c-0.8,1.4-2.5,2.9-5,2.9c-2.5,0-4.2-1.5-5-2.9c-0.5-0.9-0.7-1.4-0.7-5.2
				c0-3.8,0.2-4.3,0.7-5.2c0.8-1.4,2.5-2.9,5-2.9c2.5,0,4.2,1.5,5,2.9c0.5,0.9,0.7,1.4,0.7,5.2S242,448.6,241.5,449.6z M239.8,444.4
				c0-3.3-0.2-3.7-0.8-4.5c-0.5-0.6-1.3-1.1-2.5-1.1c-1.1,0-2,0.5-2.4,1.1c-0.6,0.8-0.8,1.2-0.8,4.5c0,3.2,0.2,3.7,0.8,4.5
				c0.5,0.6,1.3,1.2,2.4,1.2s2-0.5,2.5-1.2C239.6,448.1,239.8,447.6,239.8,444.4z"/>
		</g>
	</g>
</g>
<g>
	<g id="XMLID_33_">
		<g>
			<path fill="#1D1D1B" d="M259.4,448.6c0.5-0.8,0.6-1.2,0.6-4.2c0-2.9-0.1-3.6-0.7-4.4c-0.7-1-1.5-1.3-2.8-1.3h-2.9V450h2.9
				C257.9,450,258.8,449.6,259.4,448.6z M261.6,439.1c0.8,1.3,0.9,1.9,0.9,5.3c0,3.6-0.2,4.2-0.9,5.3c-0.9,1.5-2.6,2.6-4.9,2.6h-5.4
				v-15.9h5.5C258.9,436.4,260.6,437.4,261.6,439.1z"/>
		</g>
	</g>
</g>
<g>
	<path fill="#1D1D1B" stroke="#1D1D1B" stroke-width="6.630000e-02" d="M271.7,448.5c1.2,1,2.8,1.6,4.5,1.6c2,0,3.1-0.9,3.1-2.2
		c0-1.1-0.6-2-2.1-2.1c-0.7-0.1-1.3-0.2-2.1-0.3c-2.7-0.4-4.2-2.2-4.2-4.5c0-2.7,1.9-4.6,5.2-4.6c2,0,3.7,0.7,5.1,1.6l-1.3,2
		c-1.2-0.7-2.5-1.2-3.9-1.2c-1.5,0-2.7,0.8-2.7,2.3c0,0.9,0.6,1.8,2.3,2c0.4,0.1,1,0.2,1.8,0.2c3,0.4,4.3,2.4,4.3,4.6
		c0,2.9-2.2,4.6-5.6,4.6c-2.3,0-4.4-0.7-6.1-2.2L271.7,448.5z"/>
</g>
<g>
	<g id="XMLID_32_">
		<g>
			<path fill="#1D1D1B" d="M306.2,441.9c1.5-0.6,1.9-1.2,1.9-2s-0.7-1.5-1.6-1.5s-1.6,0.7-1.6,1.5
				C305,440.5,305.5,441.2,306.2,441.9z M309.4,449l-3.8-4.6c-1.6,0.9-2.3,2-2.3,3.1c0,1.7,1.4,2.9,2.9,2.9
				C307.2,450.4,308.3,450,309.4,449z M310.1,439.9c0,1.5-0.8,2.7-2.7,3.6l3.4,4.1c0.7-0.8,1.1-1.7,1.4-2.6l2,0.8
				c-0.5,1.2-1.2,2.5-2.1,3.4l2.7,3.2h-2.7l-1.5-1.6c-1.3,1-2.7,1.8-4.4,1.8c-3,0-5-2.3-5-4.9c0-1.9,1.1-3.6,3-4.6
				c-0.8-0.9-1.3-1.9-1.3-3c0-1.9,1.4-3.6,3.6-3.6C308.7,436.3,310.1,438,310.1,439.9z"/>
		</g>
	</g>
</g>
<g>
	<path fill="#1D1D1B" stroke="#1D1D1B" stroke-width="6.630000e-02" d="M334.8,447.9c1.4,1.1,3.2,1.8,5.1,1.8c2.2,0,3.6-1,3.6-2.5
		c0-1.3-0.7-2.2-2.4-2.4c-0.8-0.1-1.5-0.2-2.4-0.3c-3.1-0.4-4.8-2.5-4.8-5.1c0-3.1,2.2-5.3,5.9-5.3c2.2,0,4.2,0.8,5.9,1.9l-1.5,2.3
		c-1.3-0.8-2.9-1.4-4.5-1.4c-1.7,0-3,0.9-3,2.6c0,1,0.7,2,2.6,2.3c0.5,0.1,1.2,0.2,2,0.3c3.4,0.4,5,2.7,5,5.2c0,3.3-2.5,5.3-6.4,5.3
		c-2.7,0-5-0.8-6.9-2.5L334.8,447.9z"/>
</g>
<g>
	<path fill="#1D1D1B" stroke="#1D1D1B" stroke-width="6.630000e-02" d="M355.8,436.4h2.4v10.2c0,2.2,1.4,3.4,3.2,3.4
		c1.8,0,3.2-1.2,3.2-3.4v-10.2h2.4v10.5c0,3.3-2.5,5.5-5.6,5.5c-3.1,0-5.6-2.2-5.6-5.5V436.4z"/>
</g>
<g>
	<g id="XMLID_31_">
		<g>
			<path fill="#1D1D1B" d="M384.9,441.3c0-1.1-0.4-1.7-1-2.1c-0.5-0.4-1-0.4-1.7-0.4h-3.5v5.1h3.6
				C384.1,443.8,384.9,442.5,384.9,441.3z M385.6,437.6c1,0.7,1.7,2.1,1.7,3.8c0,2.2-1.7,4.8-5,4.8h-3.7v6.2h-2.4v-15.9h5.8
				C383.3,436.4,384.4,436.6,385.6,437.6z"/>
		</g>
	</g>
</g>
<g>
	<g id="XMLID_30_">
		<g>
			<path fill="#1D1D1B" d="M404.4,441.3c0-1.1-0.4-1.7-1-2.1c-0.5-0.4-1-0.4-1.7-0.4h-3.5v5.1h3.6
				C403.5,443.8,404.4,442.5,404.4,441.3z M405.1,437.6c1,0.7,1.7,2.1,1.7,3.8c0,2.2-1.7,4.8-5,4.8h-3.7v6.2h-2.4v-15.9h5.8
				C402.8,436.4,403.8,436.6,405.1,437.6z"/>
		</g>
	</g>
</g>
<g>
	<polygon fill="#1D1D1B" stroke="#1D1D1B" stroke-width="6.630000e-02" points="415.2,436.4 417.6,436.4 417.6,450 425.3,450 
		425.3,452.3 415.2,452.3 	"/>
</g>
<g>
	<rect x="433.8" y="436.4" fill="#1D1D1B" stroke="#1D1D1B" stroke-width="6.630000e-02" width="2.4" height="15.9"/>
</g>
<g>
	<polygon fill="#1D1D1B" stroke="#1D1D1B" stroke-width="6.630000e-02" points="445.8,436.4 455.9,436.4 455.9,438.7 448.2,438.7 
		448.2,443.2 454.8,443.2 454.8,445.4 448.2,445.4 448.2,450 455.9,450 455.9,452.3 445.8,452.3 	"/>
</g>
<g>
	<path fill="#1D1D1B" stroke="#1D1D1B" stroke-width="6.630000e-02" d="M464.6,448.5c1.2,1,2.8,1.6,4.5,1.6c2,0,3.1-0.9,3.1-2.2
		c0-1.1-0.6-2-2.1-2.1c-0.7-0.1-1.3-0.2-2.1-0.3c-2.7-0.4-4.2-2.2-4.2-4.5c0-2.7,1.9-4.6,5.2-4.6c2,0,3.7,0.7,5.1,1.6l-1.3,2
		c-1.2-0.7-2.5-1.2-3.9-1.2c-1.5,0-2.7,0.8-2.7,2.3c0,0.9,0.6,1.8,2.3,2c0.4,0.1,1,0.2,1.8,0.2c3,0.4,4.3,2.4,4.3,4.6
		c0,2.9-2.2,4.6-5.6,4.6c-2.3,0-4.4-0.7-6.1-2.2L464.6,448.5z"/>
</g>
<g>
	<g id="XMLID_29_">
		<g>
			<path fill="#1D1D1B" d="M188.9,339.8l30.2,69.4h-23.4l-26.9-66.7h-25.2v66.7h-19.8V252.9h50.9c11,0,19.6,3.1,26.5,10.3
				c7.3,7.5,13,19.3,13,33.4C214.2,316.8,204.7,333.2,188.9,339.8z M195.5,296.6c0-8.1-2.6-14.3-6.6-17.8c-3.7-3.3-7.7-4.8-14.4-4.8
				h-30.9v47.4h29.8C188.2,321.4,195.5,309.8,195.5,296.6z"/>
		</g>
	</g>
</g>
<g>
	<rect x="235.1" y="258.8" fill="#1D1D1B" stroke="#1D1D1B" stroke-width="0.871" width="19.4" height="150.4"/>
</g>
<g>
	<path fill="#1D1D1B" stroke="#1D1D1B" stroke-width="0.8798" d="M367.7,366.3c-5,28.7-23,44.2-44.9,44.2c-20.1,0-33.9-14.2-40-27.6
		c-4.1-9.1-5.6-13.6-5.6-50.4c0-36.9,1.4-41.4,5.6-50.4c6.1-13.4,19.9-27.6,40-27.6c24.2,0,40.9,20.5,44.9,45.5h-20.5
		c-3.1-11.8-12.2-22.2-24.4-22.2c-9.2,0-15.8,5.2-19.8,11.2c-5,7.8-6.5,12.1-6.5,43.5c0,31.5,1.4,35.8,6.5,43.5
		c4,6,10.6,11.2,19.8,11.2c10.8,0,19-7.1,24.4-20.9L367.7,366.3L367.7,366.3z"/>
</g>
<g>
	<polygon fill="#1D1D1B" stroke="#1D1D1B" stroke-width="0.8798" points="451.4,342.2 400.7,342.2 400.7,409.2 381.3,409.2 
		381.3,255.8 400.7,255.8 400.7,321.5 451.4,321.5 451.4,255.8 470.8,255.8 470.8,409.2 451.4,409.2 	"/>
</g>
<g>
	<g id="XMLID_28_">
		<g>
			<path fill="#1D1D1B" d="M166,203.4c6.8,1.2,10.1,6.1,10.1,11c0,8.2-7.9,13.5-17.2,13.5h-26.1v-47.6h24c12.1,0,18.3,5.3,18.3,12.8
				C175.1,197,173.2,200.9,166,203.4L166,203.4z M166.7,213.9c0-3.7-3.1-7.1-10.1-7.1h-14.4V221h14.4
				C163.6,221,166.7,217.6,166.7,213.9z M165.7,193.5c0-3.7-3.2-6.8-10-6.8h-13.5v13.6h13.5C162.5,200.3,165.7,197.3,165.7,193.5z"
				/>
		</g>
	</g>
</g>
<g>
	<polygon fill="#1D1D1B" stroke="#1D1D1B" stroke-width="0.5718" points="195.1,181.8 233.4,181.8 233.4,188.4 204.2,188.4 
		204.2,201.5 229.1,201.5 229.1,207.8 204.2,207.8 204.2,221.3 233.4,221.3 233.4,227.9 195.1,227.9 	"/>
</g>
<g>
	<polygon fill="#1D1D1B" stroke="#1D1D1B" stroke-width="0.5718" points="264.6,188 248.3,188 248.3,181.8 290.1,181.8 290.1,188 
		273.7,188 273.7,227.9 264.6,227.9 	"/>
</g>
<g>
	<polygon fill="#1D1D1B" stroke="#1D1D1B" stroke-width="0.5718" points="319.3,188 302.9,188 302.9,181.8 344.7,181.8 344.7,188 
		328.3,188 328.3,227.9 319.3,227.9 	"/>
</g>
<g>
	<polygon fill="#1D1D1B" stroke="#1D1D1B" stroke-width="0.5718" points="363.7,181.8 402,181.8 402,188.4 372.8,188.4 372.8,201.5 
		397.7,201.5 397.7,207.8 372.8,207.8 372.8,221.3 402,221.3 402,227.9 363.7,227.9 	"/>
</g>
<g>
	<g id="XMLID_27_">
		<g>
			<path fill="#1D1D1B" d="M453,207.4l13.9,20.4h-10.8l-12.4-19.7h-11.6v19.7H423v-46h23.4c5,0,9,0.9,12.2,3c3.4,2.2,6,5.7,6,9.8
				C464.6,200.6,460.2,205.5,453,207.4z M456,194.7c0-2.4-1.2-4.2-3-5.2c-1.7-1-3.5-1.4-6.6-1.4h-14.2v14h13.7
				C452.7,202,456,198.6,456,194.7z"/>
		</g>
	</g>
</g>
</svg>
