<?xml version="1.0" encoding="utf-8"?>
<!-- Generator: Adobe Illustrator 17.1.0, SVG Export Plug-In . SVG Version: 6.00 Build 0)  -->
<!DOCTYPE svg PUBLIC "-//W3C//DTD SVG 1.1//EN" "http://www.w3.org/Graphics/SVG/1.1/DTD/svg11.dtd">
<svg version="1.1" id="Calque_1" xmlns="http://www.w3.org/2000/svg" xmlns:xlink="http://www.w3.org/1999/xlink" x="0px" y="0px"
	 viewBox="0 0 595.3 841.9" enable-background="new 0 0 595.3 841.9" xml:space="preserve">
<g>
	<g>
		<defs>
			<rect id="SVGID_1_" x="125" y="219.1" width="343.2" height="378.8"/>
		</defs>
		<clipPath id="SVGID_2_">
			<use xlink:href="#SVGID_1_"  overflow="visible"/>
		</clipPath>
		<path clip-path="url(#SVGID_2_)" fill="#1D1D1B" d="M128.8,221.7c0,123.5,0,247.9,0,371.3c0,0.8-0.1,1,0.5,1.1
			c1.6,0.2,3.4,0,5.2,0h324.7c1.8,0,3.7,0.2,5.3,0c0.1,0,0.2,0,0.3,0c0.4-0.1,0.2-0.9,0.2-1c0-122.6,0-245.5,0-368.1
			c0-1,0.1-2.1,0-2.9c-0.1-0.6-0.1-0.4-0.4-0.5c-0.2,0-0.4,0-0.6,0c-111.5,0-223.3,0-335,0C128.9,221.6,128.9,221.6,128.8,221.7
			 M125.1,218.3h342.3c0.3,0,0.7-0.1,0.9,0.1v379.5c-110.2,0-221.5,0-332,0c-3.5,0-7.1,0.2-10.6,0c-0.2,0-0.6,0.1-0.6-0.2V218.5
			C125,218.4,125,218.3,125.1,218.3"/>
	</g>
</g>
<g>
	<g>
		<defs>
			<rect id="SVGID_3_" x="125" y="219.1" width="343.2" height="378.8"/>
		</defs>
		<clipPath id="SVGID_4_">
			<use xlink:href="#SVGID_3_"  overflow="visible"/>
		</clipPath>
		<path clip-path="url(#SVGID_4_)" fill="#FFFFFF" d="M137.7,229.7v353.2c0,1-0.2,2.2,0,2.8c0.1,0.5,0.1,0.4,0.6,0.4
			c0.1,0,0.2,0,0.3,0c26.5,0.1,53,0,79.5,0c72.7,0,145.9,0,218.5,0c6.6,0,13.2,0.1,19.9,0c0.8,0,0.8,0,0.9-0.8
			c0.2-7.4,0-14.8,0-22.2c0-107.3,0-214.5,0-321.9c0-3.7,0.2-7.5,0-11.2c0-0.4,0.2-0.5-0.6-0.6c-1.6-0.2-3.3,0-5,0
			c-104.6,0-209.7,0-314,0C137.7,229.6,137.7,229.6,137.7,229.7 M129,221.6c111.7,0,223.5,0,335,0c0.2,0,0.4,0,0.6,0
			c0.3,0.1,0.3-0.2,0.4,0.5c0.1,0.8,0,1.9,0,2.9c0,122.6,0,245.4,0,368.1c0,0.1,0.2,0.9-0.2,1c-0.1,0-0.2,0-0.3,0
			c-1.5,0.2-3.4,0-5.3,0H134.6c-1.8,0-3.6,0.2-5.2,0c-0.6-0.1-0.5-0.3-0.5-1.1C128.9,469.6,128.9,345.2,129,221.6
			C128.9,221.6,128.9,221.6,129,221.6"/>
	</g>
	<g>
		<defs>
			<rect id="SVGID_5_" x="125" y="219.1" width="343.2" height="378.8"/>
		</defs>
		<clipPath id="SVGID_6_">
			<use xlink:href="#SVGID_5_"  overflow="visible"/>
		</clipPath>
		<path clip-path="url(#SVGID_6_)" fill="#1D1D1B" d="M296.1,534.5c1.6-1,3.5-1.8,5.4-2.7c4.4-2.3,8.7-4.9,12.1-8.2
			c0.7-0.7,1.5-1.4,1.9-2.1c0.3-0.4,0.6-1.2,0.7-1.7c0.3-1.7-1.3-2.6-3-2.4c-0.3,0.2-0.6,0.2-1,0.3c-0.9,0.3-1.9,1-2.7,1.6
			c-0.9,0.6-1.8,1.3-2.5,1.9c-4,3.4-7.6,7-11.3,10.8c-0.7,0.7-1.5,1.6-2.3,2.1c-1.4,1-3,1.7-4.3,2.7c-1.1,0.8-2.4,1.9-3.5,3
			c-0.6,0.5-1.2,1-1.8,1.5s-1.3,1-1.8,1.5c-0.2,0.2-0.3,0.5-0.5,0.7c-0.4,0.4-1.1,0.9-1.7,1.3c-1.5,1-3.1,2.1-4.7,2.8
			c-1.1,0.4-3,1.2-3.8,0.3c0-1.2,0.9-2.1,1.6-3c0.7-0.8,1.5-1.6,2.2-2.5c0.6-0.7,1.4-1.5,2.3-2.3c1-0.8,2-1.9,3.5-1.9
			c0.4,0.2,0.7,0.9,0.4,1.4c-0.4-0.1-0.5-0.4-0.9-0.5c-1.3-0.1-2.3,1.6-1.1,2.3c1.6,0.2,2.4-0.4,2.9-1.3c0.9-1.7-0.6-3.1-2.6-2.7
			c-0.9,0.2-1.8,0.7-2.6,1.1c-2.1,1.1-4.1,2.3-5.5,3.9c-0.3,0.4-0.5,0.8-0.9,1.1s-1.4,0.4-1.8-0.1c0.4-0.5,0.8-1,1.3-1.7
			c0.5-0.8,1.4-2.2,1-3.4c-0.3-0.9-1.5-1.2-2.9-1c-1.2,0.1-2.4,0.7-3.3,1.1c-1.2,0.6-2.1,1.1-3.1,1.8c-0.7,0.5-1.2,0.9-1.8,1.4
			c-0.5,0.5-1,1.1-1.5,1.7c-0.5,0.5-1.2,0.9-1.8,1.3c-1.2,0.9-2.2,1.8-3.7,2.6c-0.8,0.5-2.7,1.4-3.3,0.5c-0.6-0.8,0.6-1.7,1.2-2.3
			c3.3-3.3,5.9-6.3,9-9.6c0.4-0.5,1.2-1.4,1.7-1.5c0.8-0.2,1.9,0,2.7,0c0.5,0,1.4,0.1,1.5-0.5c-0.8-0.5-2.7,0.1-3.6-0.3
			c1-1.2,2.1-2.4,3.1-3.5c0.3-0.4,0.9-0.7,0.9-1.3c-0.5-0.3-1.5,0-2.2-0.1c-0.2,0.1-0.4,0.3-0.7,0.3c-1.5,1.6-3,3.2-4.6,4.7
			c-1.1,0-2.5-0.2-3,0.5c0.6,0.4,1.5,0,2.2,0.2c-3.1,2.5-6.3,5.1-9.3,7.5c-0.4,0.3-1,0.7-1.2,1.2c1,0.3,1.6-0.6,2.2-1
			c0.5-0.4,1-0.8,1.4-1.1c1-0.8,1.9-1.6,2.9-2.1c-1.4,1.9-4.6,4-5.6,6.7c-0.5,1.4,0,3,1.1,3.3c1.3,0.3,2.7-0.3,3.6-0.8
			c1.1-0.6,2.1-1.2,3.1-1.9c0.5-0.4,1-0.8,1.5-1c0.1,0.3-0.1,0.5-0.2,0.9c-0.2,1.3,0.2,2.7,1.3,2.9c1.7,0.4,3.2-0.3,4.3-0.9
			c1.9-1,3.7-2.6,5.1-3.7c0.4,0.4,1.5,0,2,0.3c-0.5,1.6-0.4,3.9,1,4.3c0.6,0.1,1.7,0.1,2.6,0c0.1,0,0.2-0.2,0.4-0.2
			c0.2-0.1,0.4,0,0.6-0.1c0.7-0.2,1.4-0.6,2.1-1c1.4-0.7,2.7-1.6,3.8-2.5c0.6-0.5,1.4-0.8,1.8-1.3c0.2-0.2,0.3-0.5,0.5-0.7
			c0.6-0.6,1.4-1.2,2.1-1.8c1.5-1.2,2.8-2.4,4.3-3.5c0.8-0.6,1.5-1.2,2.3-1.6c-0.3,0.6-0.9,1.1-1.3,1.6c-2.8,3.1-5.8,6.1-8.6,9.2
			c-0.5,0.5-1.1,0.9-1.4,1.6c0.3,0.2,0.9,0.1,1.5,0.1c0.5,0,1.3,0.1,1.6,0.1c0.2,0,0.6-0.5,0.7-0.7c1.2-1.4,2.3-2.5,3.4-3.8
			c0.4-0.4,1-1.4,1.4-1.5c0.2,0,0.8,0.1,1.2,0.1c0.7-0.1,2.1-0.3,2.3,0.2c0.2,0.7-1.6,1.9-1.8,2.2c-0.8,0.9-0.8,3.3,0.5,3.7
			c0.6,0.2,1.8,0.1,2.2,0c0.7-0.2,1.5-0.6,2.2-1c0.7-0.4,1.3-0.9,1.9-1.3c1.4-1,3-2.1,3.9-3.3c2-1.4,3.8-3,5.7-4.5
			c0.7-0.5,1.3-1,2.1-1.4c-1.6,2-3.4,3.7-5.1,5.5c-0.9,0.9-1.7,1.9-2.5,2.8c-0.8,0.9-1.8,1.7-2.5,2.8c0.9,0,2.3,0,3.4,0
			c3.2-2.7,6.3-6,10-8.4c1.2-0.8,3.1-2.2,4.8-1.9c0.1,0.3,0.3,0.5,0.4,0.8c-0.5,0.9-1.1,1.4-1.9,2.1c-0.5,0.5-1.1,0.9-1.7,1.4
			c-1.6,1.4-3.6,2.6-2.9,5.4c0.3,1,1.7,1.2,2.9,0.9c1.2-0.2,2.3-1.2,3.1-1.5c1-0.5,1.7-1.4,2.8-1.8c-0.1,0.6-0.3,1.2-0.2,1.8
			c0.3,1.6,2.4,1.9,3.9,1.4c2.6-0.9,4.9-2.9,6.7-4.5c0.5,0.4,1.6,0.2,2.5,0.2c0.9-0.2,1.3-1,1.9-1.5c1.3-1.1,2.7-2.2,3.9-3.3
			c0.4-0.4,0.9-0.8,1.4-1c-1.1,1.5-2.8,3.3-3.9,5c-0.4,0.6-0.9,1.3-1.1,1.9c-0.4,1.3-0.3,3,1,3.3c1.6,0.4,3.1-0.3,4.2-1
			c1.4-0.7,2.7-1.7,3.8-2.6c0.6-0.5,1.3-0.9,1.8-1.4c0.2-0.2,0.2-0.4,0.4-0.6c0.6-0.5,1.2-0.9,1.8-1.4c0.6-0.5,1.2-1,1.8-1.4
			c1-0.8,2.7-2.2,3.9-2.5c0.3-0.1,0.7-0.2,1,0.2c-0.3,1.5-1.3,2.4-2.3,3.4c-2,2-4,3.9-5.9,5.8c-0.4,0.4-0.8,0.7-1,1.3
			c0.8-0.1,2.5,0.2,3,0c0.5-0.2,1.1-0.9,1.7-1.4c2.8-2.5,5.3-4.7,8.3-6.9c1.2-0.9,2.5-1.9,3.8-2.3c0.6-0.2,1-0.1,1.4,0.1
			c0.3,1.3-0.8,2.3-1.5,3c-2,2.1-4,4.1-6,6.1c-0.4,0.4-0.9,0.9-1.1,1.4c0.7-0.2,2.2,0.3,3,0c0.4-0.1,1-0.9,1.4-1.3
			c1.4-1.4,2.9-2.9,4.3-4.1c2.1-1.8,4.1-3.6,6.5-4.6c0.6-0.3,2.2-0.7,2.6-0.2c0.5,0.8-0.9,2-1.4,2.5c-1.9,1.6-4.1,3-4.9,5.4
			c-0.4,1.1,0.3,2.5,1.3,2.7c2.1,0.3,3.6-0.7,4.8-1.5c1.7-1.2,3.4-2.6,4.9-3.9c-0.1-0.2-0.3-0.3-0.5-0.5c-2.3,1.5-4.2,3.9-6.9,5
			c-0.5,0.2-1.2,0.2-1.8,0.3c-1.4-0.6,0.3-1.8,0.9-2.3c0.7-0.6,1.2-1,1.7-1.5c1.7-1.5,3.6-2.9,3.4-5.9c-0.4-0.5-0.7-1-1.3-1.1
			c-1-0.2-2.1,0.1-2.6,0.3c-2,0.7-3.9,2.4-5.4,3.3c0.2-0.8,0.7-1.2,0.6-2.1c0-0.9-0.7-1.6-1.4-1.8c-2.1-0.6-4.2,1.4-5.4,1.9
			c-0.6,0.3-1.2,0.7-1.7,1.1c-0.5,0.4-1.1,0.9-1.7,1.1c0.6-1,1.2-2.4,0.5-3.5c-0.5-0.8-2-0.9-3-0.5c-0.6,0.3-1.3,0.7-1.9,1.1
			c-1.3,0.8-2.3,1.8-3.5,2.7c-0.6,0.5-1.4,0.9-1.8,1.4c-0.2,0.2-0.2,0.4-0.5,0.7c-0.2,0.2-0.6,0.4-0.8,0.6c-0.3,0.2-0.6,0.4-0.8,0.6
			c-1.5,1.2-3.4,2.8-5.2,3.5c-0.7,0.3-1.7,0.5-2.2-0.1c-0.1-1.2,0.5-1.7,1.1-2.5c2.5-3.4,5.2-6.3,8-9.2c0.8-0.8,1.1-1.7,2.3-1.8
			c1.9-0.9,3.8-1.8,5.6-2.9c2.7-1.5,5.2-3.3,7.6-5.1c2.4-1.8,4.8-3.7,6.3-6.4c0.2-0.9,0-1.6-0.5-2c-0.7-0.7-2.4-0.3-3.4-0.1
			c-4.1,2-7.5,5-10.8,8c-2.5,2.3-4.9,4.6-7.2,6.9c-1,1-1.9,2.3-3,3c-0.8,0.5-1.6,0.9-2.4,1.5c-0.7,0.6-1.4,1.2-2.2,1.8
			c-1.7,1.4-3.6,2.8-4.9,4.3c-0.5,0.4-1.7,0.5-2.1-0.2c0.4-0.4,0.7-1,1.1-1.5c0.5-0.8,1.3-1.7,1.2-3c-0.1-2.4-3.3-1.3-4.9-0.9
			c-2.9,1.2-5.4,2.6-7.2,4.9c-0.9,1.1-2,1.9-3.2,2.8c-1.2,0.9-2.4,1.7-3.7,2.3c-0.6,0.1-1,0.3-1.7,0.3c-0.7-0.6,0.4-1.6,1.1-2.2
			c0.6-0.6,1.2-1,1.7-1.4c1.6-1.4,3.4-2.6,3.5-5.1c0-2.1-2-2.6-3.8-1.8c-2.1,1.2-4.2,2.4-6,3.8c-0.6,0.5-1.2,1.1-1.8,1.3
			c1.8-2.2,3.7-4.2,5.5-6.3c0.6-0.7,1.2-1.5,1.9-2.1c0.7-0.6,1.8-1,2.9-1.5c5.1-2.4,9.6-4.9,13.7-8.3c1.4-1.2,3.5-3,4-4.8
			c0.1-0.5,0-1-0.1-1.5c-0.3-0.4-0.7-0.7-1.1-1c-1.5-0.2-2.4,0.3-3.5,0.6c-7.2,3.8-12.2,10.1-17.7,15.6c-0.4,0.4-0.7,0.8-1.1,1.1
			c-0.7,0.6-1.6,1.1-2.4,1.7c-0.8,0.6-1.6,1.1-2.4,1.7c-3.3,2.3-5.9,4.7-9,7.3c-1.1,0.9-2.4,1.9-3.6,2.5c-0.7,0.4-2.2,1.1-2.7,0.2
			c0.6-1.4,2.9-2,2.5-4.2c-0.1-0.6-0.5-0.8-0.7-1.4c1.7-0.5,3.2-1.1,4.3-2.2c0.6-0.7,1.2-1.9,2.3-1.8c0,0.4-0.5,0.6-0.2,1.1
			c0.9,0.1,1.9,0.2,2-0.6c0.1-0.5-0.6-1.2-1-1.4c-0.5-0.1-1.1-0.1-1.5,0c-1.1,0.2-2.1,0.9-2.7,1.4c-0.2,0.2-0.5,0.2-0.7,0.4
			c-1.1,0.9-1.9,2.3-3.3,2.6c-0.9,0.2-2.1,0-3,0.3C291.5,539.4,293.9,537,296.1,534.5 M249.6,509.7c-1.7-0.1-4.7,0-6.2,0.1
			c-8.4,0.6-14.6,3.8-17.7,9.6c-0.3,1.5-0.9,2.8-0.6,4.8c0.2,1.4,1.1,2.8,2.1,3.7c0.8,0.7,2,1.4,3,1.8c0.3,0.1,0.6,0.2,0.8,0.3
			c0.4,0.1,0.8,0.3,1.1,0.3c0.3,0.1,0.6,0,0.9,0.1c0.2,0,0.4,0.2,0.6,0.2c0.9,0.2,2.2,0.1,3.7,0.1c1.2,0,2.6,0.1,3.5-0.1
			c0.2,0,0.3-0.2,0.5-0.2c0.5-0.1,1,0,1.4-0.1c0.3,0,0.6-0.2,0.9-0.3c0.6-0.1,0.9-0.1,1.3-0.2c1.1-0.2,1.9-0.4,2.7-0.5
			c-0.7,1.2-1.5,2.4-2.4,3.6c-2.6,3.5-5.1,7.1-8.4,9.8c-4.3,3.6-12,6.9-19.4,5c-0.9-0.5-2.2-1.2-2.6-2.5c-0.2-0.6-0.3-1.8,0.3-2.2
			c0.3,0.4,0.5,0.9,1,1.1c1.9,0.2,3.1-0.2,2.9-2.2c-0.4-0.6-0.8-1.2-1.6-1.4c-1.9-0.4-3.2,1.2-3.7,2.3c-0.1,0.9-0.1,1.5,0,2.4
			c0.6,1.4,1.5,2.2,2.9,2.7c0.7,0.3,0.9,0.3,1.7,0.5c0.3,0.1,0.5,0.2,0.7,0.2c1,0.1,2,0,3,0c1,0,2.1,0.1,3,0c0.2,0,0.5-0.2,0.7-0.2
			c0.4-0.1,0.8,0,1.1-0.1c0.3,0,0.4-0.2,0.7-0.2c1.8-0.4,3.2-0.9,4.8-1.4c4.1-1.5,7.3-3.8,10.1-6.5c3.2-3.1,6-7,8.4-10.9
			c0.4-0.6,0.8-1.4,1.2-1.6c0.2-0.1,0.4,0,0.7-0.1c0.4-0.1,0.8-0.3,1.3-0.5c4.7-1.5,9.3-3.6,13-6.1c1.4-0.9,2.8-1.9,3.9-3
			c0.9-0.9,2-2.2,2.3-3.5c0.7-2.7-1.6-3.5-3.6-3.4c-1.2,0.1-2.6,0.6-3.7,1.1c-3.4,1.5-6.2,3.5-8.8,5.5c-1.9,1.5-3.7,3.6-5.3,5.4
			c-1.3,1.5-2.4,3.2-3.6,4.8c-3.6,0.7-8.2,2.1-12.8,1.8c-3.9-0.3-7.5-1.8-8.9-4.5c-0.5-1.1-0.6-2.4-0.3-3.8c0.7-2.9,3-4.9,5.1-6.6
			c2.2-1.8,5-3.2,7.8-3.9c4-1,8.4-0.8,12.4-0.7C251.4,509.8,250.4,509.7,249.6,509.7 M276.4,328c-16.3,4.2-29.2,12.4-39.2,22.8
			c-6.9,7.2-12.1,15.1-16.4,24.9c-2,4.6-3.8,10-4.9,15.7c-1.2,5.8-1.9,12.2-1.6,19c0.3,6.7,1.1,12.6,2.5,18.1s3.3,10.4,5.5,15.2
			c6.6,13.9,16.4,25,28.8,33.2c8.4,5.5,17.8,9.8,29.2,12.1c5.8,1.2,12.2,1.7,19,1.7c6.3-0.1,12.5-1.1,18.1-2.6
			c5.5-1.4,10.5-3.3,15.1-5.5c9.4-4.5,17.3-10.3,24-17.4c10-10.7,17.7-23.7,21.3-40.7c1.2-5.8,1.7-12.1,1.6-19
			c-0.1-6.4-1.1-12.5-2.6-18.1c-4.3-16.6-12.4-28.8-22.9-39.1c-6.9-6.8-15.3-12.3-25-16.4c-4.8-2-10-3.7-15.7-4.9
			c-5.4-1.1-12.1-1.9-18.9-1.6C287.9,325.8,282,326.6,276.4,328 M396,286.2c-0.3,3.3,4.8,4,5.8,1.3c0.9-2.3-1.2-4.3-3.4-3.9
			C397.1,283.8,396.1,284.9,396,286.2 M392,280.2c-0.4-5.3-5.4-8.4-11.5-7.8c-5.6,0.6-10,4.6-8.2,11.4c1.4,3.7,5.9,5.7,11,5.4
			c3.9-0.3,6.8-2.4,8.1-5.1C391.8,282.8,392.2,281.7,392,280.2 M280.9,269.6c-0.1,0.5,0.4,0.2,0.6,0.3c0.8,0.5,0.5,3.4,0.5,4.9v9
			c0,1.4,0.3,3.6-0.1,4.4c-0.2,0.4-0.9,0.3-1,0.7c0.3,0.3,0.9,0.2,1.3,0.2h4.3c3.9,0,7.9,0.4,10.8-0.6c2.9-1,5.2-3.4,6-6.6
			c1-4-0.4-8-2.4-10.1c-1.4-1.1-3.4-2.3-5.8-2.5c-4.3-0.3-9.5,0.2-13.9,0C281,269.4,280.9,269.5,280.9,269.6 M245.9,283.5
			c0.8-1.8,1.1-4.6,0.6-6.6c-0.4-2-1.8-4-3.5-5.2c-1.7-1.2-4-2.1-6.5-2.3c-4.1-0.3-7.3,0.6-9.6,2.3c-2.7,2.1-4.6,5.7-3.4,10.5
			c0.6,2.3,2.6,4.7,4.9,5.7c2.2,1.1,5.1,1.5,8.2,1.3c3.1-0.2,5.6-1.4,7.4-3C244.8,285.1,245.5,284.6,245.9,283.5 M353.4,271.7
			c-0.3-0.3-1-1.1-1-1.4c0.1-0.4,1-0.2,1-0.6s-0.5-0.2-0.7-0.2c-2,0-4.5,0-6.8,0c-0.6,0-1.3-0.2-1.6,0.2c0.1,0.4,0.7,0.3,0.9,0.6
			c0.2,0.3,0.2,1.3,0.2,2.1c0,5.2,0,10.9,0,15.8c-0.1,0.1-0.2,0.3-0.3,0.5c-0.2,0.2-0.8,0-0.8,0.4c0.3,0.4,1.1,0.2,1.7,0.2h3.8
			c0.6,0,1.5,0.2,1.7-0.2c-0.1-0.4-0.8-0.3-1-0.7c-0.3-0.6-0.1-2-0.1-2.9c0-1.9,0-4,0-6c0-1-0.1-2.1,0.2-2.9
			c2.9,3.3,6.3,6.9,9.3,10.2c0.3,0.4,1.3,1.1,1.2,1.6c-0.1,0.4-0.7,0.2-0.8,0.6c0.4,0.4,1.1,0.2,1.7,0.2h3.9c0.6,0,1.4,0.2,1.7-0.3
			c0-0.3-0.8-0.3-0.9-0.5c-0.2-0.3-0.2-1.5-0.2-2.1c0-4.1,0-7.8,0-11.7c0-1-0.3-4,0.2-4.5c0.2-0.1,0.9-0.1,0.9-0.5
			c-0.3-0.4-1-0.2-1.6-0.2h-3.7c-0.6,0-1.3-0.2-1.6,0.2c0,0.5,0.6,0.3,0.7,0.6c0,2.2,0.1,4.7,0.1,7.3c0,1,0.1,2-0.2,2.8
			C358.8,277.6,355.9,274.6,353.4,271.7 M260.8,271.6c-0.3-0.4-1.1-1-1-1.4c0.1-0.4,1-0.2,1-0.6c0-0.3-0.3-0.3-0.5-0.3
			c-1.8-0.2-4.7,0.1-6.7,0.1c-0.7,0-1.6-0.2-1.9,0.3c0.1,0.3,0.7,0.3,0.9,0.5c0.2,0.3,0.2,1.3,0.2,2.1c0,4.6,0,9.2,0,13.7
			c0,0.7,0.1,1.7-0.1,2.2c-0.2,0.5-1,0.4-1,0.8c0.4,0.3,1.1,0.2,1.7,0.2h3.8c0.6,0,1.4,0.2,1.7-0.3c-0.3-0.3-0.9-0.3-1-0.7
			c-0.2-0.5,0-1.5,0-2.1c0-2.4,0-6.2,0-8.4c0-0.4-0.2-0.7,0.1-1.1c2.9,3.3,6.3,6.9,9.4,10.2c0.3,0.3,1.3,1.2,1.1,1.7
			c-0.1,0.3-0.7,0.1-0.8,0.5c0.3,0.5,1.1,0.3,1.7,0.3h3.9c0.6,0,1.4,0.2,1.7-0.3c-0.1-0.3-0.7-0.2-0.9-0.4c-0.5-0.5-0.2-3.3-0.2-4.3
			c0-4.6,0-9.5,0-13.7c0-0.6,1-0.4,1.1-0.9c-0.4-0.3-1-0.2-1.5-0.2h-3.7c-0.6,0-1.3-0.1-1.7,0.2c0,0.4,0.5,0.4,0.7,0.7
			c0.2,0.5,0,1.6,0.1,2.4c0,1.8,0,3.5,0,5.1c0,0.9,0.1,1.8-0.2,2.5C266,277.6,263.3,274.6,260.8,271.6 M205.9,269.4
			c-1.8,0-4.2,0-5.6-0.1c-0.2,0-0.6,0-0.6,0.3c0.2,0.3,0.7,0.3,0.9,0.5c0.4,0.6,0.2,3,0.2,4.3v11.4c0,0.8,0.1,1.8-0.1,2.2
			c-0.2,0.5-1,0.4-1,0.7c0.2,0.4,0.7,0.2,1,0.2c5.4,0,10.8,0,16.2,0c0.9,0,1.9-0.2,2.5,0c0.5,0.1,0.4,0.9,0.9,0.9
			c0.3-0.3,0.2-1,0.2-1.5v-3.4c0-0.5,0.2-1.2-0.2-1.5c-0.4,0.1-0.4,0.8-0.9,1c-0.8,0.3-2.2,0.1-3.2,0.1c-3.2,0-6.9,0-9.7-0.1v-10.8
			c0-0.8-0.2-3.1,0.1-3.6c0.2-0.3,0.9-0.2,1-0.7C207.1,269.2,206.5,269.4,205.9,269.4 M193.7,275.6c0.3-1.4-0.1-2.7-0.6-3.8
			c-1-1.3-2.7-2.3-4.9-2.5c-4.5-0.3-11.4,0.2-15.6,0c-0.6,0.4,0.6,0.5,0.7,0.9c0.2,0.4,0.1,1.4,0.1,2.2V286c0,0.7,0.1,1.9-0.1,2.2
			c-0.2,0.3-0.9,0.2-0.9,0.7c0.5,0.3,1.2,0.2,1.8,0.2h2c3.8,0,8.6,0.2,12.1,0c2.1-0.1,4.1-1.1,5-2.2s1.5-3.1,0.9-5
			c-0.2-0.7-0.7-1.2-1.2-1.8c-0.5-0.3-1-0.6-1.5-0.9c-0.4-0.2-1-0.2-1.1-0.6C191.9,278.2,193.3,277.2,193.7,275.6 M425.1,274.6
			c0-0.8-0.2-1.8-0.6-2.4c-0.9-1.4-3-2.4-4.9-2.8c-1.3-0.2-3-0.4-4.6-0.3c-3.5,0.3-6.5,1.5-7.6,4.1c-0.2,1.6-0.1,3,0.6,3.9
			c0.5,0.6,1.3,1,1.7,1.6c-1.3,0.8-2.7,1.7-3.1,3.3c-0.4,1.5,0,3.3,0.6,4.1c0.7,1,2.2,1.9,3.8,2.4c2.7,0.8,6.6,0.9,9.4,0.3
			c2.1-0.5,4.6-1.8,5.3-3.5c0.5-1.3,0.3-2.6,0-3.9c-0.7-0.9-1.5-1.7-2.5-2.2c-0.3-0.1-0.8-0.1-0.9-0.5
			C423.8,277.8,425.2,276.9,425.1,274.6 M326.9,269.4c-0.5,0.2-1.5,0.1-2.3,0.1h-14.4c-0.4,0-2.1-0.2-2.1,0.2c0,0.3,0.8,0.4,0.9,0.5
			c0.5,0.6,0.2,3.2,0.2,4.5c-0.1,1.5,0,2.9,0,4.4c0,2.3,0.1,4.6,0.1,7c0,0.9,0.1,1.8-0.1,2.2c-0.2,0.3-0.9,0.3-1,0.7
			c0.1,0.4,0.6,0.2,0.9,0.2c5.2,0.1,10.3,0,15.5,0c0.8,0,1.9-0.2,2.4,0c0.3,0.1,0.4,0.7,0.9,0.6c0.2-1.5,0.1-3.7,0.1-5
			c0-0.4,0.2-1-0.3-1.1c-0.4,0.3-0.3,1.1-0.9,1.2c-0.8,0.2-2,0-3,0c-3,0-6.5,0-8.9-0.1c-0.1-0.9-0.1-2.2,0-3.1c2.3-0.1,5-0.1,7.4,0
			c0.4,0.2,0.4,0.8,0.9,0.9c0.4-0.3,0.2-0.9,0.2-1.4v-1.7c0-0.6,0.2-3-0.2-3.1c-0.4-0.1-0.7,0.8-1,0.9c-0.9,0.3-2.4,0.1-3.7,0.1
			c-1.3,0-2.7,0.1-3.7-0.1c0-1-0.1-2.2,0.1-3.1c3.8,0,8.2-0.1,12.1,0.1c0.5,0.1,0.3,1,0.9,1c0.3-0.8,0.1-1.9,0.1-3
			c0-0.8,0-1.6,0-2.3c0-0.3,0.2-0.8-0.1-1.1h-0.1C327.3,268.7,327.3,269.2,326.9,269.4 M137.8,229.5c104.3,0,209.3,0,314,0
			c1.7,0,3.4-0.2,5,0c0.8,0.1,0.5,0.1,0.6,0.6c0.2,3.6,0,7.4,0,11.2c0,107.4,0,214.5,0,321.9c0,7.4,0.2,14.8,0,22.2
			c0,0.8,0,0.8-0.9,0.8c-6.7,0.1-13.3,0-19.9,0c-72.6,0-145.8,0-218.5,0c-26.5,0-52.9,0.1-79.5,0c-0.1,0-0.3,0-0.3,0
			c-0.5,0-0.5,0.1-0.6-0.4c-0.2-0.7,0-1.8,0-2.8V229.7C137.7,229.6,137.7,229.6,137.8,229.5"/>
	</g>
	<g>
		<defs>
			<rect id="SVGID_7_" x="125" y="219.1" width="343.2" height="378.8"/>
		</defs>
		<clipPath id="SVGID_8_">
			<use xlink:href="#SVGID_7_"  overflow="visible"/>
		</clipPath>
		<path clip-path="url(#SVGID_8_)" fill="#FFFFFF" d="M327.6,268.5h0.1c0.3,0.2,0.1,0.7,0.1,1.1c0,0.8,0,1.6,0,2.3
			c0,1.1,0.2,2.1-0.1,3c-0.6,0-0.3-0.9-0.9-1c-3.9-0.1-8.3,0-12.1-0.1c-0.1,0.9,0,2.1-0.1,3.1c1,0.2,2.3,0.1,3.7,0.1
			c1.3,0,2.7,0.3,3.7-0.1c0.3-0.1,0.7-1,1-0.9c0.4,0.1,0.2,2.5,0.2,3.1v1.7c0,0.5,0.1,1.2-0.2,1.4c-0.6,0-0.5-0.7-0.9-0.9
			c-2.3-0.1-5-0.1-7.4,0c-0.1,0.9-0.1,2.2,0,3.1c2.4,0.1,6,0.1,8.9,0.1c1,0,2.2,0.2,3,0c0.5-0.1,0.5-0.9,0.9-1.2
			c0.5,0.1,0.3,0.8,0.3,1.1c0,1.4,0,3.5-0.1,5c-0.5,0.1-0.6-0.5-0.9-0.6c-0.5-0.2-1.7,0-2.4,0c-5.2,0-10.3,0.1-15.5,0
			c-0.3,0-0.8,0.2-0.9-0.2c0.1-0.3,0.8-0.4,1-0.7c0.2-0.4,0.1-1.3,0.1-2.2c0-2.4-0.1-4.7-0.1-7c0-1.5-0.1-2.9,0-4.4
			c0.1-1.3,0.4-3.9-0.2-4.5c-0.1-0.1-0.9-0.2-0.9-0.5c0-0.4,1.6-0.2,2.1-0.2h14.4c0.8,0,1.9,0.1,2.3-0.1
			C327.3,269.2,327.3,268.7,327.6,268.5"/>
	</g>
	<g>
		<defs>
			<rect id="SVGID_9_" x="125" y="219.1" width="343.2" height="378.8"/>
		</defs>
		<clipPath id="SVGID_10_">
			<use xlink:href="#SVGID_9_"  overflow="visible"/>
		</clipPath>
		<path clip-path="url(#SVGID_10_)" fill="#FFFFFF" d="M417.5,285.3c1.2-0.1,2.5-0.6,3-1.4c0.5-1-0.2-2-0.9-2.3
			c-2.1-1.2-6.9-0.9-7.8,1.1v1C412.4,285.1,415.2,285.6,417.5,285.3 M412.8,274.6c-0.8,3.1,5.9,3.2,6.9,1.1c0.7-1.5-1-2.4-1.9-2.6
			c-0.7-0.2-1.5-0.2-2.3-0.1C414,273.1,413,273.7,412.8,274.6 M422.4,278.7c0.1,0.5,0.6,0.4,0.9,0.5c1,0.5,1.8,1.3,2.5,2.2
			c0.3,1.3,0.5,2.6,0,3.9c-0.6,1.7-3.1,3-5.3,3.5c-2.8,0.6-6.8,0.5-9.4-0.3c-1.6-0.5-3-1.4-3.8-2.4c-0.6-0.8-1-2.6-0.6-4.1
			c0.4-1.6,1.8-2.5,3.1-3.3c-0.5-0.6-1.2-1-1.7-1.6c-0.7-0.9-0.8-2.2-0.6-3.9c1.1-2.6,4-3.9,7.6-4.1c1.5-0.1,3.3,0,4.6,0.3
			c1.9,0.4,4,1.4,4.9,2.8c0.4,0.6,0.6,1.6,0.6,2.4C425.2,276.9,423.8,277.8,422.4,278.7"/>
	</g>
	<g>
		<defs>
			<rect id="SVGID_11_" x="125" y="219.1" width="343.2" height="378.8"/>
		</defs>
		<clipPath id="SVGID_12_">
			<use xlink:href="#SVGID_11_"  overflow="visible"/>
		</clipPath>
		<path clip-path="url(#SVGID_12_)" fill="#FFFFFF" d="M183.1,285.3c1.4,0,2.8,0.1,3.8-0.1c1.4-0.2,2.9-1.3,2.1-3.3
			c-0.6-1.5-2.8-1.4-5.1-1.4c-1.5,0-3.6-0.1-4.7,0.1c-0.2,1.3-0.1,3.2-0.1,4.6C180.2,285.4,181.7,285.3,183.1,285.3 M186.2,276.7
			c1.3-0.1,2.5-0.8,1.9-2.5c-0.2-0.7-1.3-1-2.2-1c-1.9-0.2-4.9,0-6.3-0.1c-0.2,0-0.3,0.1-0.5,0.1c-0.1,1-0.1,2.4,0,3.4
			C180.9,276.7,184.1,277,186.2,276.7 M190.4,278.6c0.2,0.4,0.8,0.4,1.1,0.6c0.5,0.3,1,0.6,1.5,0.9c0.5,0.6,1,1,1.2,1.8
			c0.6,1.9,0,4-0.9,5c-0.9,1.2-3,2.1-5,2.2c-3.5,0.2-8.3,0-12.1,0h-2c-0.6,0-1.3,0.1-1.8-0.2c0-0.4,0.8-0.4,0.9-0.7
			c0.2-0.4,0.1-1.5,0.1-2.2v-13.6c0-0.8,0.1-1.8-0.1-2.2c-0.2-0.4-1.4-0.5-0.7-0.9c4.2,0.2,11.1-0.3,15.6,0c2.2,0.2,3.9,1.2,4.9,2.5
			c0.4,1.1,0.9,2.4,0.6,3.8C193.3,277.2,191.9,278.2,190.4,278.6"/>
	</g>
	<g>
		<defs>
			<rect id="SVGID_13_" x="125" y="219.1" width="343.2" height="378.8"/>
		</defs>
		<clipPath id="SVGID_14_">
			<use xlink:href="#SVGID_13_"  overflow="visible"/>
		</clipPath>
		<path clip-path="url(#SVGID_14_)" fill="#FFFFFF" d="M207.5,269.6c-0.1,0.5-0.8,0.4-1,0.7c-0.3,0.5-0.1,2.8-0.1,3.6v10.8
			c2.8,0.1,6.5,0.1,9.7,0.1c1,0,2.4,0.2,3.2-0.1c0.5-0.2,0.4-0.9,0.9-1c0.4,0.3,0.2,1,0.2,1.5v3.4c0,0.5,0.1,1.1-0.2,1.5
			c-0.5,0-0.4-0.7-0.9-0.9c-0.6-0.2-1.7,0-2.5,0c-5.4,0-10.8,0-16.2,0c-0.3,0-0.8,0.2-1-0.2c0.1-0.3,0.8-0.3,1-0.7
			c0.2-0.5,0.1-1.5,0.1-2.2v-11.4c0-1.3,0.3-3.7-0.2-4.3c-0.2-0.2-0.7-0.3-0.9-0.5c0-0.3,0.4-0.3,0.6-0.3c1.4,0,3.8,0.1,5.6,0.1
			C206.5,269.4,207.1,269.2,207.5,269.6"/>
	</g>
	<g>
		<defs>
			<rect id="SVGID_15_" x="125" y="219.1" width="343.2" height="378.8"/>
		</defs>
		<clipPath id="SVGID_16_">
			<use xlink:href="#SVGID_15_"  overflow="visible"/>
		</clipPath>
		<path clip-path="url(#SVGID_16_)" fill="#FFFFFF" d="M268.6,280.3c0.3-0.7,0.2-1.6,0.2-2.5c0-1.7,0-3.3,0-5.1
			c0-0.8,0.2-1.9-0.1-2.4c-0.1-0.3-0.7-0.3-0.7-0.7c0.4-0.3,1.1-0.2,1.7-0.2h3.7c0.6,0,1.2-0.2,1.5,0.2c-0.1,0.5-1,0.3-1.1,0.9
			c0,4.2,0,9.1,0,13.7c0,1-0.3,3.8,0.2,4.3c0.2,0.2,0.8,0.1,0.9,0.4c-0.3,0.5-1.1,0.3-1.7,0.3h-3.9c-0.6,0-1.4,0.2-1.7-0.3
			c0.1-0.3,0.7-0.1,0.8-0.5c0.2-0.4-0.8-1.3-1.1-1.7c-3.1-3.3-6.5-7-9.4-10.2c-0.4,0.4-0.1,0.7-0.1,1.1c0,2.2,0,6,0,8.4
			c0,0.6-0.2,1.6,0,2.1c0.2,0.4,0.8,0.4,1,0.7c-0.3,0.5-1.1,0.3-1.7,0.3h-3.8c-0.6,0-1.3,0.1-1.7-0.2c0.1-0.4,0.8-0.3,1-0.8
			c0.2-0.5,0.1-1.5,0.1-2.2c0-4.5,0-9.1,0-13.7c0-0.8,0-1.8-0.2-2.1c-0.2-0.2-0.8-0.2-0.9-0.5c0.2-0.5,1.2-0.3,1.9-0.3
			c2,0,4.9-0.2,6.7-0.1c0.2,0,0.5,0,0.5,0.3c0,0.4-0.9,0.2-1,0.6c-0.1,0.4,0.7,1,1,1.4C263.3,274.6,266,277.6,268.6,280.3"/>
	</g>
	<g>
		<defs>
			<rect id="SVGID_17_" x="125" y="219.1" width="343.2" height="378.8"/>
		</defs>
		<clipPath id="SVGID_18_">
			<use xlink:href="#SVGID_17_"  overflow="visible"/>
		</clipPath>
		<path clip-path="url(#SVGID_18_)" fill="#FFFFFF" d="M361.3,280.3c0.3-0.8,0.2-1.8,0.2-2.8c0-2.5,0-5.1-0.1-7.3
			c-0.1-0.3-0.7-0.1-0.7-0.6c0.3-0.3,1-0.2,1.6-0.2h3.7c0.6,0,1.3-0.2,1.6,0.2c0.1,0.3-0.7,0.3-0.9,0.5c-0.5,0.5-0.2,3.5-0.2,4.5
			c0,3.9,0,7.7,0,11.7c0,0.7-0.1,1.8,0.2,2.1c0.2,0.2,0.9,0.2,0.9,0.5c-0.3,0.5-1.1,0.3-1.7,0.3H362c-0.6,0-1.3,0.2-1.7-0.2
			c0.1-0.4,0.7-0.2,0.8-0.6c0.1-0.5-0.9-1.2-1.2-1.6c-3-3.4-6.5-7-9.3-10.2c-0.3,0.8-0.2,1.8-0.2,2.9c0,1.9,0,4,0,5.9
			c0,0.9-0.2,2.3,0.1,2.9c0.2,0.4,0.9,0.3,1,0.7c-0.2,0.4-1.1,0.2-1.7,0.2H346c-0.6,0-1.3,0.2-1.7-0.2c0-0.4,0.6-0.2,0.8-0.4
			c0.1-0.2,0.2-0.3,0.3-0.5c0-4.8,0-10.5,0-15.8c0-0.8,0.1-1.7-0.2-2.1c-0.2-0.3-0.8-0.2-0.9-0.6c0.3-0.4,1-0.2,1.6-0.2
			c2.2,0,4.7,0,6.8,0c0.3,0,0.8-0.2,0.7,0.2c0,0.4-0.9,0.2-1,0.6c-0.1,0.3,0.7,1.1,1,1.4C355.9,274.6,358.8,277.6,361.3,280.3"/>
	</g>
	<g>
		<defs>
			<rect id="SVGID_19_" x="125" y="219.1" width="343.2" height="378.8"/>
		</defs>
		<clipPath id="SVGID_20_">
			<use xlink:href="#SVGID_19_"  overflow="visible"/>
		</clipPath>
		<path clip-path="url(#SVGID_20_)" fill="#FFFFFF" d="M228.9,280.2c0.4,2.5,2.7,4.3,5.1,4.5c0.5,0.1,1.3,0.1,1.9,0
			c3.4-0.4,6.1-3.4,5-7c-0.6-2.1-2.9-3.9-5.9-3.8c-2.7,0-4.3,1.2-5.5,2.9C229.1,277.8,228.7,278.7,228.9,280.2 M244.1,286.1
			c-1.9,1.6-4.4,2.8-7.4,3c-3.1,0.2-5.9-0.2-8.2-1.3c-2.3-1.1-4.3-3.4-4.9-5.7c-1.2-4.8,0.7-8.4,3.4-10.5c2.3-1.7,5.5-2.5,9.6-2.3
			c2.4,0.2,4.8,1.1,6.5,2.3c1.7,1.2,3.1,3.2,3.5,5.2c0.4,2.1,0.2,4.9-0.6,6.6C245.5,284.6,244.8,285.1,244.1,286.1"/>
	</g>
	<g>
		<defs>
			<rect id="SVGID_21_" x="125" y="219.1" width="343.2" height="378.8"/>
		</defs>
		<clipPath id="SVGID_22_">
			<use xlink:href="#SVGID_21_"  overflow="visible"/>
		</clipPath>
		<path clip-path="url(#SVGID_22_)" fill="#FFFFFF" d="M287.6,274c-0.1,3.4-0.1,7.3,0,10.7c2.4,0,5.3,0.3,7.1-0.3
			c4.3-1.4,4.1-8.9,0-10.2c-1.9-0.6-4.4-0.2-7-0.3C287.7,273.8,287.6,273.9,287.6,274 M281.1,269.4c4.4,0.2,9.6-0.3,13.9,0
			c2.5,0.2,4.4,1.3,5.8,2.5c2,2,3.4,6,2.4,10.1c-0.8,3.2-3,5.6-6,6.6c-2.9,1-6.9,0.6-10.8,0.6h-4.3c-0.4,0-0.9,0.1-1.3-0.2
			c0-0.4,0.8-0.3,1-0.7c0.4-0.8,0.1-3,0.1-4.4v-9c0-1.6,0.4-4.5-0.5-4.9c-0.3-0.1-0.7,0.2-0.6-0.3
			C280.9,269.5,281,269.4,281.1,269.4"/>
	</g>
	<g>
		<defs>
			<rect id="SVGID_23_" x="125" y="219.1" width="343.2" height="378.8"/>
		</defs>
		<clipPath id="SVGID_24_">
			<use xlink:href="#SVGID_23_"  overflow="visible"/>
		</clipPath>
		<path clip-path="url(#SVGID_24_)" fill="#FFFFFF" d="M377.1,282.3c1.7,4.7,11,3.8,10-2.4c-0.1-0.4-0.3-1.1-0.6-1.5
			c-1-1.5-3.1-2.5-5.5-2.1C378.2,276.7,376.3,278.8,377.1,282.3 M391.5,284c-1.3,2.8-4.2,4.9-8.1,5.1c-5.1,0.3-9.7-1.6-11-5.4
			c-1.8-6.7,2.5-10.8,8.2-11.4c6-0.6,11.1,2.5,11.5,7.8C392.2,281.7,391.8,282.8,391.5,284"/>
	</g>
	<g>
		<defs>
			<rect id="SVGID_25_" x="125" y="219.1" width="343.2" height="378.8"/>
		</defs>
		<clipPath id="SVGID_26_">
			<use xlink:href="#SVGID_25_"  overflow="visible"/>
		</clipPath>
		<path clip-path="url(#SVGID_26_)" fill="#1D1D1B" d="M415.4,273c0.8-0.1,1.6-0.1,2.3,0.1c0.9,0.2,2.7,1.1,1.9,2.6
			c-1,2-7.6,1.9-6.9-1.1C413,273.7,414,273.1,415.4,273"/>
	</g>
	<g>
		<defs>
			<rect id="SVGID_27_" x="125" y="219.1" width="343.2" height="378.8"/>
		</defs>
		<clipPath id="SVGID_28_">
			<use xlink:href="#SVGID_27_"  overflow="visible"/>
		</clipPath>
		<path clip-path="url(#SVGID_28_)" fill="#1D1D1B" d="M179.2,276.7c-0.1-1-0.1-2.4,0-3.4c0.2,0,0.3-0.1,0.5-0.1
			c1.4,0,4.3-0.1,6.3,0.1c0.9,0.1,2,0.3,2.2,1c0.6,1.7-0.7,2.3-1.9,2.5C184.1,277,180.9,276.7,179.2,276.7"/>
	</g>
	<g>
		<defs>
			<rect id="SVGID_29_" x="125" y="219.1" width="343.2" height="378.8"/>
		</defs>
		<clipPath id="SVGID_30_">
			<use xlink:href="#SVGID_29_"  overflow="visible"/>
		</clipPath>
		<path clip-path="url(#SVGID_30_)" fill="#1D1D1B" d="M229.5,276.7c1.2-1.6,2.8-2.8,5.5-2.9c3,0,5.3,1.8,5.9,3.8
			c1.1,3.6-1.6,6.7-5,7c-0.6,0.1-1.4,0.1-1.9,0c-2.5-0.3-4.8-2-5.1-4.5C228.7,278.7,229.1,277.8,229.5,276.7"/>
	</g>
	<g>
		<defs>
			<rect id="SVGID_31_" x="125" y="219.1" width="343.2" height="378.8"/>
		</defs>
		<clipPath id="SVGID_32_">
			<use xlink:href="#SVGID_31_"  overflow="visible"/>
		</clipPath>
		<path clip-path="url(#SVGID_32_)" fill="#1D1D1B" d="M287.8,273.8c2.6,0.1,5.1-0.3,7,0.3c4.1,1.3,4.3,8.8,0,10.2
			c-1.8,0.6-4.7,0.3-7.1,0.3c-0.1-3.4-0.1-7.3,0-10.7C287.6,273.9,287.7,273.8,287.8,273.8"/>
	</g>
	<g>
		<defs>
			<rect id="SVGID_33_" x="125" y="219.1" width="343.2" height="378.8"/>
		</defs>
		<clipPath id="SVGID_34_">
			<use xlink:href="#SVGID_33_"  overflow="visible"/>
		</clipPath>
		<path clip-path="url(#SVGID_34_)" fill="#1D1D1B" d="M381,276.3c2.4-0.3,4.5,0.6,5.5,2.1c0.3,0.4,0.5,1.1,0.6,1.5
			c1,6.2-8.4,7.1-10,2.4C376.3,278.8,378.2,276.7,381,276.3"/>
	</g>
	<g>
		<defs>
			<rect id="SVGID_35_" x="125" y="219.1" width="343.2" height="378.8"/>
		</defs>
		<clipPath id="SVGID_36_">
			<use xlink:href="#SVGID_35_"  overflow="visible"/>
		</clipPath>
		<path clip-path="url(#SVGID_36_)" fill="#1D1D1B" d="M179.2,285.3c-0.1-1.4-0.2-3.3,0.1-4.6c1.1-0.2,3.2-0.1,4.7-0.1
			c2.3,0,4.5-0.1,5.1,1.4c0.8,1.9-0.7,3-2.1,3.3c-1,0.2-2.5,0.1-3.8,0.1C181.7,285.3,180.2,285.4,179.2,285.3"/>
	</g>
	<g>
		<defs>
			<rect id="SVGID_37_" x="125" y="219.1" width="343.2" height="378.8"/>
		</defs>
		<clipPath id="SVGID_38_">
			<use xlink:href="#SVGID_37_"  overflow="visible"/>
		</clipPath>
		<path clip-path="url(#SVGID_38_)" fill="#1D1D1B" d="M411.8,283.6v-1c0.8-2,5.7-2.3,7.8-1.1c0.7,0.4,1.4,1.3,0.9,2.3
			c-0.4,0.8-1.8,1.3-3,1.4C415.2,285.6,412.4,285.1,411.8,283.6"/>
	</g>
	<g>
		<defs>
			<rect id="SVGID_39_" x="125" y="219.1" width="343.2" height="378.8"/>
		</defs>
		<clipPath id="SVGID_40_">
			<use xlink:href="#SVGID_39_"  overflow="visible"/>
		</clipPath>
		<path clip-path="url(#SVGID_40_)" fill="#FFFFFF" d="M398.4,283.6c2.3-0.4,4.3,1.6,3.4,3.9c-1,2.7-6.1,2-5.8-1.3
			C396.1,284.9,397.1,283.8,398.4,283.6"/>
	</g>
	<g>
		<defs>
			<rect id="SVGID_41_" x="125" y="219.1" width="343.2" height="378.8"/>
		</defs>
		<clipPath id="SVGID_42_">
			<use xlink:href="#SVGID_41_"  overflow="visible"/>
		</clipPath>
		<path clip-path="url(#SVGID_42_)" fill="#FFFFFF" d="M263.6,339.7c-8.6,4.2-15.9,9.5-22,16.2c-6.2,6.8-11.1,13.9-15,23.2
			c-3.7,8.9-6.2,19.8-5.7,32.3c0.5,11.6,3.5,21.5,7.7,30.1c4.1,8.6,9.6,15.9,16.2,22c6.6,6.1,14.1,11.2,23.2,14.9
			c9.1,3.7,19.8,6.1,32.3,5.6c11.6-0.5,21.5-3.6,30.1-7.7c8.6-4.1,15.8-9.8,21.9-16.2c9.2-9.8,16.2-22.2,19.3-37.9
			c1-5.3,1.4-11,1.3-17.3c-0.2-11.4-3.6-21.9-7.6-30.3c-4.2-8.7-9.7-15.6-16.2-22c-3.2-3.1-6.9-5.9-10.7-8.4
			c-3.9-2.5-8-4.7-12.5-6.6c-8.9-3.7-19.6-6.3-32.1-5.7C282.1,332.7,272.1,335.5,263.6,339.7 M294.5,325.5
			c6.8-0.3,13.5,0.5,18.9,1.6c5.7,1.2,10.8,2.8,15.7,4.9c9.7,4.1,18.1,9.6,25,16.4c10.5,10.3,18.6,22.5,22.9,39.1
			c1.4,5.5,2.5,11.7,2.6,18.1c0.1,6.9-0.4,13.2-1.6,19c-3.6,17.1-11.3,30.1-21.3,40.7c-6.6,7.1-14.6,12.9-24,17.4
			c-4.6,2.2-9.6,4.1-15.1,5.5c-5.5,1.4-11.8,2.5-18.1,2.6c-6.9,0.1-13.2-0.5-19-1.7c-11.5-2.3-20.9-6.6-29.2-12.1
			c-12.4-8.2-22.2-19.3-28.8-33.2c-2.2-4.7-4.1-9.7-5.6-15.2c-1.4-5.5-2.2-11.4-2.5-18.1c-0.3-6.8,0.5-13.2,1.6-19
			c1.1-5.7,2.9-11.1,4.9-15.7c4.3-9.9,9.5-17.8,16.4-24.9c10-10.4,22.8-18.7,39.2-22.8C282,326.6,287.9,325.8,294.5,325.5"/>
	</g>
	<g>
		<defs>
			<rect id="SVGID_43_" x="125" y="219.1" width="343.2" height="378.8"/>
		</defs>
		<clipPath id="SVGID_44_">
			<use xlink:href="#SVGID_43_"  overflow="visible"/>
		</clipPath>
		<path clip-path="url(#SVGID_44_)" fill="#1D1D1B" d="M335.6,382.7c1.6-0.5,3-0.9,4.4-1.4c3.6-1.4,7.2-3.5,8.5-7.2
			c0.7-1.9,0.5-4.3-0.5-6.4c-0.8-1.7-2.2-3.1-3.7-4.1c-1.7-1.2-3.2-1.8-5.4-2.5c-3-0.9-6.6-1.5-10.2-1.5c-19.3,0-39.3,0-58.6,0
			c-3.3,0-7.1-0.2-9.7,0.2c-0.6,0.1-1.2,0.1-1.8,0.2c-6.1,0.9-10.7,2.4-13.4,6.6c-1,1.6-1.9,3.9-1.4,6.5c0.6,3.1,3.3,5.2,5.7,6.6
			c2.3,1.3,5.1,2.3,7.8,3c0.3,0.1,0.9,0,1.1,0.5c-1.2,0.4-2.4,0.6-3.5,0.9c-1.2,0.3-2.3,0.6-3.4,1c-4.2,1.5-8.1,4-9.6,8.2
			c-0.8,2.3-0.7,5,0.5,7.3c1.7,3.4,5.3,5.4,9,6.6c0.7,0.2,1.3,0.4,2,0.6c0.6,0.2,1.4,0.1,2,0.6c-3.5,0.7-6.7,1.6-9.3,3.3
			c-2.4,1.6-4.7,4-5,7.6c-0.5,5,2.6,8.2,5.6,10.1c2.4,1.5,5.3,2.7,8.4,3.4c1.1,0.2,2.1,0.4,3.2,0.7c-0.5,0.4-1.1,0.5-1.7,0.7
			c-4.6,1.3-8.5,2.9-11.2,6c-1.4,1.7-2.5,4.6-1.5,7.7c0.7,2.2,2.5,4.1,4.4,5.4c3,2.1,6.8,2.8,11.2,3.5c1.5,0.2,3.1,0.1,4.8,0.1
			c21.3,0,42.7,0,63.8,0c1.7,0,3.3,0.1,4.8-0.1c5.9-0.9,10.8-2,13.9-5.8c1.4-1.7,2.6-4.4,2.1-7.6c-0.3-1.5-1.2-2.9-2.2-3.9
			c-2.8-2.9-7-4.5-11.4-5.6c-0.3-0.1-0.9,0-1-0.5c3.9-0.8,7.5-1.7,10.6-3.5c2.9-1.7,5.6-4,6.3-7.7c0.9-4.5-1.5-7.8-3.9-9.8
			c-2-1.6-4.5-2.6-7.2-3.4c-0.9-0.2-1.9-0.3-2.9-0.7c0.9-0.4,1.9-0.5,2.8-0.7c2.7-0.7,5.3-1.9,7.3-3.4c2.5-1.9,4.9-5.4,3.9-9.8
			c-0.8-3.8-3.4-6.1-6.4-7.7c-2.7-1.5-5.8-2.5-9.2-3.2c-0.4-0.1-1.1,0-1.3-0.5C334.6,382.9,335.2,382.8,335.6,382.7 M293.8,332.1
			c12.5-0.6,23.2,2,32.1,5.7c4.5,1.9,8.6,4.1,12.5,6.6c3.8,2.5,7.5,5.2,10.7,8.4c6.5,6.4,12,13.3,16.2,22c4,8.4,7.4,18.9,7.6,30.3
			c0.1,6.2-0.2,11.9-1.3,17.3c-3.1,15.7-10,28.1-19.3,37.9c-6.1,6.5-13.3,12.1-21.9,16.2c-8.6,4.1-18.5,7.2-30.1,7.7
			c-12.5,0.5-23.2-1.9-32.3-5.6c-9.1-3.7-16.6-8.9-23.2-14.9c-6.6-6.1-12.1-13.4-16.2-22c-4.2-8.6-7.1-18.5-7.7-30.1
			c-0.6-12.5,2-23.4,5.7-32.3c3.8-9.3,8.8-16.4,15-23.2c6.1-6.6,13.4-12,22-16.2C272.1,335.5,282.1,332.7,293.8,332.1"/>
	</g>
	<g>
		<defs>
			<rect id="SVGID_45_" x="125" y="219.1" width="343.2" height="378.8"/>
		</defs>
		<clipPath id="SVGID_46_">
			<use xlink:href="#SVGID_45_"  overflow="visible"/>
		</clipPath>
		<path clip-path="url(#SVGID_46_)" fill="#FFFFFF" d="M324.2,455.8c3.6,0,6.8-0.2,9.2-1.5c0.7-0.4,1.3-0.9,1.8-1.4
			c3.1-3.2,3-10.5,0.6-14.2c-1.6-2.5-4.6-3.9-8.6-4.4c-1.9-0.2-4.2-0.1-6.5-0.1c-2.1,0-5.1-0.1-6.8,0.1c-0.1,0.6-0.1,1.7-0.1,2.6
			c0,6.3,0,12.9,0.1,18.8C317,455.8,320.7,455.8,324.2,455.8 M266.5,434.2c-7.1,0.3-11.1,3.9-11.6,10.6c-0.3,4.7,1.5,8.1,4.7,9.7
			c2.6,1.3,5.5,1.3,8.9,1.3c3.2,0,6.7,0,10.1-0.1c0.2-6.4,0.1-15.3,0.1-21.4C274.7,434.3,270.5,434,266.5,434.2 M289.4,414.7
			c-0.4,1.6-0.4,3.6-0.4,5.4c0,7.9,0,15.7,0,23.4c0,4.7,0,8,2.3,10.2c1.1,1,2.9,1.9,4.7,2c0.1,0,0.2,0,0.3,0
			c3.2-0.4,5.8-2.3,6.6-5.5c0.4-1.6,0.3-3.7,0.3-5.7c0-5.9,0-12.6,0-18.2c0-3.8,0.5-8.7-0.5-11.7c-0.5-1.5-1.2-2.8-2.4-3.7
			c-1.1-0.8-3.2-1.7-4.6-1.5C292.5,409.7,290.2,411.7,289.4,414.7 M328.5,432.4c4.4-0.7,7.5-2.6,9.4-5.9c1.4-2.5,1.6-6.4,0.8-9.3
			c-1.6-5.6-6.9-8-13.9-8.2c-3.4-0.1-7.8,0.1-11,0.1c-0.2,0.9-0.1,1.8-0.1,2.7c0,7,0,14.2,0.1,21C319,432.9,324.3,433.1,328.5,432.4
			 M267.7,409c-1.5,0-3.1,0.2-4.3,0.5c-4.3,0.8-7.8,2.9-9.3,6.5c-1.8,4.4-0.8,9.6,1.6,12.2c1.1,1.2,2.5,2.4,3.9,3
			c4.9,2.2,12,1.5,19,1.5c0.2-7.3,0.2-16.9,0-23.7C275.3,409.1,271.3,409,267.7,409 M313.8,384.1c-0.1,1.8-0.1,3.9-0.1,6
			c0,5.9,0,12.1,0.1,17.7c6.2-0.1,12.9,0.7,17.6-0.9c4.6-1.5,7.8-4.9,7.8-10.9c0-3.1-0.8-5.3-2.2-7.1c-1.3-1.7-3.3-3.1-5.5-3.8
			c-4.8-1.5-11.1-1-17.5-1.1C313.9,383.9,313.8,384,313.8,384.1 M278.9,386.8c0-1,0.1-1.9-0.1-2.8c-5.2-0.2-11.3-0.3-15.7,0.6
			c-1.8,0.4-3.3,0.9-4.7,1.8c-2.9,1.8-5.3,5.2-4.9,10.4c0.5,6.4,4.8,9.9,10.9,10.7c2.2,0.3,4.6,0.2,7.2,0.2c2.4,0,4.8,0.1,7.3-0.1
			C278.9,401.3,278.9,393.6,278.9,386.8 M289.6,366.8c-0.4,1.7-0.4,3.4-0.4,5.5c0,5.8,0,11.9,0,17.7c0,3.6-0.4,8.4,0.3,11.6
			c0.5,2.6,2.1,4.5,3.9,5.3c1.2,0.5,2.5,0.8,3.8,0.6c3.8-0.8,5.9-3.4,6.2-7.6c0.2-2.8,0-6,0-9.2c0-6.4,0-12.1,0-18.4
			c0-3.4-0.1-5.8-1.4-7.8c-1-1.6-3.5-3.4-6.1-3.1C292.5,361.5,290.4,363.5,289.6,366.8 M322.7,382.6c3.1,0,5.8-0.2,8.2-1
			c4.6-1.6,7.1-5.5,6.6-11.7c-0.2-3.3-1.6-6-4-7.4c-4.4-2.6-13.2-1.3-19.6-1.5c-0.2,7-0.1,14.5-0.1,21.5
			C316.7,382.6,319.7,382.6,322.7,382.6 M272.3,360.9c-4.4,0-8.9-0.2-11.9,1.1c-1.5,0.6-2.6,1.4-3.4,2.6c-1.7,2.4-2.4,6.3-1.4,10
			c1.3,5.2,5.3,7.4,11.2,7.9c1.9,0.2,4,0,6.1,0c2,0,4,0.1,6-0.1c0.1-6.7,0.1-15.2,0-21.5C276.7,360.8,274.5,360.9,272.3,360.9
			 M334.2,383.1c0.2,0.5,0.9,0.4,1.3,0.5c3.4,0.7,6.5,1.7,9.2,3.2c3,1.7,5.6,4,6.4,7.7c1,4.5-1.5,7.9-3.9,9.8
			c-2,1.5-4.6,2.7-7.3,3.4c-0.9,0.2-1.9,0.3-2.8,0.7c0.9,0.4,1.9,0.4,2.9,0.7c2.7,0.7,5.2,1.8,7.2,3.4c2.5,1.9,4.9,5.3,3.9,9.8
			c-0.8,3.7-3.4,6-6.3,7.7c-3,1.8-6.7,2.7-10.6,3.5c0.1,0.5,0.7,0.4,1,0.5c4.4,1.1,8.6,2.7,11.4,5.6c1,1.1,1.9,2.4,2.2,3.9
			c0.6,3.1-0.6,5.8-2.1,7.6c-3.1,3.8-8,4.8-13.9,5.8c-1.5,0.2-3.1,0.1-4.8,0.1c-21.2,0-42.6,0-63.8,0c-1.7,0-3.3,0.1-4.8-0.1
			c-4.4-0.7-8.2-1.5-11.2-3.5c-1.9-1.3-3.7-3.3-4.4-5.4c-1-3,0-6,1.5-7.7c2.7-3.2,6.6-4.7,11.2-6c0.6-0.2,1.3-0.3,1.7-0.7
			c-1.1-0.4-2.1-0.5-3.2-0.7c-3.1-0.7-5.9-1.8-8.4-3.4c-3-1.9-6-5.1-5.6-10.1c0.3-3.5,2.6-6,5-7.6c2.6-1.7,5.7-2.7,9.3-3.3
			c-0.6-0.5-1.4-0.5-2-0.6c-0.7-0.2-1.3-0.4-2-0.6c-3.8-1.2-7.4-3.2-9-6.6c-1.1-2.3-1.2-5-0.5-7.3c1.4-4.2,5.4-6.8,9.6-8.2
			c1.1-0.4,2.3-0.8,3.4-1c1.2-0.3,2.4-0.4,3.5-0.9c-0.2-0.5-0.8-0.4-1.1-0.5c-2.8-0.7-5.5-1.7-7.8-3c-2.5-1.4-5.1-3.5-5.7-6.6
			c-0.5-2.6,0.3-4.9,1.4-6.5c2.7-4.2,7.4-5.8,13.4-6.6c0.6-0.1,1.2-0.1,1.8-0.2c2.6-0.4,6.4-0.2,9.7-0.2c19.3,0,39.4,0,58.6,0
			c3.6,0,7.2,0.6,10.2,1.5c2.2,0.6,3.7,1.3,5.4,2.5c1.5,1,2.9,2.4,3.7,4.1c1,2,1.1,4.4,0.5,6.4c-1.3,3.6-4.9,5.8-8.5,7.2
			c-1.4,0.5-2.8,1-4.4,1.4C335.2,382.8,334.6,382.9,334.2,383.1"/>
	</g>
	<g>
		<defs>
			<rect id="SVGID_47_" x="125" y="219.1" width="343.2" height="378.8"/>
		</defs>
		<clipPath id="SVGID_48_">
			<use xlink:href="#SVGID_47_"  overflow="visible"/>
		</clipPath>
		<path clip-path="url(#SVGID_48_)" fill="#1D1D1B" d="M278.8,361.1c0.1,6.3,0.1,14.8,0,21.5c-2,0.1-4,0.1-6,0.1
			c-2.1,0-4.2,0.2-6.1,0c-5.9-0.5-9.9-2.7-11.2-7.9c-0.9-3.8-0.2-7.6,1.4-10c0.9-1.2,2-2,3.4-2.6c3-1.3,7.5-1.1,11.9-1.1
			C274.5,360.9,276.7,360.8,278.8,361.1"/>
	</g>
	<g>
		<defs>
			<rect id="SVGID_49_" x="125" y="219.1" width="343.2" height="378.8"/>
		</defs>
		<clipPath id="SVGID_50_">
			<use xlink:href="#SVGID_49_"  overflow="visible"/>
		</clipPath>
		<path clip-path="url(#SVGID_50_)" fill="#1D1D1B" d="M313.8,382.5c-0.1-7-0.2-14.5,0.1-21.5c6.5,0.2,15.3-1,19.6,1.5
			c2.4,1.4,3.8,4.1,4,7.4c0.4,6.2-2,10.1-6.6,11.7c-2.3,0.8-5.1,1-8.2,1C319.7,382.6,316.7,382.6,313.8,382.5"/>
	</g>
	<g>
		<defs>
			<rect id="SVGID_51_" x="125" y="219.1" width="343.2" height="378.8"/>
		</defs>
		<clipPath id="SVGID_52_">
			<use xlink:href="#SVGID_51_"  overflow="visible"/>
		</clipPath>
		<path clip-path="url(#SVGID_52_)" fill="#1D1D1B" d="M295.9,361.2c2.6-0.3,5.1,1.5,6.1,3.1c1.3,2.1,1.4,4.4,1.4,7.8
			c0,6.2,0,12,0,18.4c0,3.2,0.2,6.4,0,9.2c-0.2,4.2-2.4,6.9-6.2,7.6c-1.3,0.3-2.6,0-3.8-0.6c-1.8-0.8-3.3-2.7-3.9-5.3
			c-0.7-3.1-0.3-7.9-0.3-11.6c0-5.7,0-11.9,0-17.7c0-2.1,0-3.8,0.4-5.5C290.4,363.5,292.5,361.5,295.9,361.2"/>
	</g>
	<g>
		<defs>
			<rect id="SVGID_53_" x="125" y="219.1" width="343.2" height="378.8"/>
		</defs>
		<clipPath id="SVGID_54_">
			<use xlink:href="#SVGID_53_"  overflow="visible"/>
		</clipPath>
		<path clip-path="url(#SVGID_54_)" fill="#1D1D1B" d="M278.8,407.7c-2.5,0.1-5,0.1-7.3,0.1c-2.6,0-5,0-7.2-0.2
			c-6.1-0.8-10.4-4.3-10.9-10.7c-0.4-5.2,2-8.6,4.9-10.4c1.4-0.9,3-1.5,4.7-1.8c4.4-0.9,10.4-0.8,15.7-0.6c0.2,0.9,0.1,1.8,0.1,2.8
			C278.9,393.6,278.9,401.3,278.8,407.7"/>
	</g>
	<g>
		<defs>
			<rect id="SVGID_55_" x="125" y="219.1" width="343.2" height="378.8"/>
		</defs>
		<clipPath id="SVGID_56_">
			<use xlink:href="#SVGID_55_"  overflow="visible"/>
		</clipPath>
		<path clip-path="url(#SVGID_56_)" fill="#1D1D1B" d="M314,383.9c6.4,0.1,12.7-0.4,17.5,1.1c2.2,0.7,4.2,2.2,5.5,3.8
			c1.5,1.8,2.2,4,2.2,7.1c0,6-3.2,9.4-7.8,10.9c-4.7,1.6-11.4,0.7-17.6,0.9c-0.1-5.6-0.1-11.8-0.1-17.7c0-2,0-4.2,0.1-5.9
			C313.8,384,313.9,383.9,314,383.9"/>
	</g>
	<g>
		<defs>
			<rect id="SVGID_57_" x="125" y="219.1" width="343.2" height="378.8"/>
		</defs>
		<clipPath id="SVGID_58_">
			<use xlink:href="#SVGID_57_"  overflow="visible"/>
		</clipPath>
		<path clip-path="url(#SVGID_58_)" fill="#1D1D1B" d="M278.5,409.1c0.2,6.8,0.2,16.4,0,23.7c-7-0.1-14.1,0.7-19-1.5
			c-1.4-0.7-2.8-1.8-3.9-3c-2.4-2.7-3.4-7.8-1.6-12.2c1.5-3.7,4.9-5.7,9.3-6.5c1.3-0.2,2.8-0.5,4.3-0.5
			C271.3,409,275.3,409.1,278.5,409.1"/>
	</g>
	<g>
		<defs>
			<rect id="SVGID_59_" x="125" y="219.1" width="343.2" height="378.8"/>
		</defs>
		<clipPath id="SVGID_60_">
			<use xlink:href="#SVGID_59_"  overflow="visible"/>
		</clipPath>
		<path clip-path="url(#SVGID_60_)" fill="#1D1D1B" d="M313.8,432.8c-0.1-6.8-0.1-14-0.1-21c0-0.9-0.1-1.9,0.1-2.7
			c3.2,0.1,7.6-0.1,11-0.1c7,0.1,12.3,2.5,13.9,8.2c0.8,2.9,0.6,6.8-0.8,9.3c-1.9,3.3-5,5.2-9.4,5.9
			C324.3,433.1,319,432.9,313.8,432.8"/>
	</g>
	<g>
		<defs>
			<rect id="SVGID_61_" x="125" y="219.1" width="343.2" height="378.8"/>
		</defs>
		<clipPath id="SVGID_62_">
			<use xlink:href="#SVGID_61_"  overflow="visible"/>
		</clipPath>
		<path clip-path="url(#SVGID_62_)" fill="#1D1D1B" d="M295.9,409.3c1.5-0.1,3.5,0.7,4.6,1.5c1.2,0.9,1.9,2.1,2.4,3.7
			c0.9,3,0.5,7.9,0.5,11.7c0,5.7,0,12.3,0,18.2c0,2.1,0.1,4.1-0.3,5.7c-0.8,3.2-3.4,5.1-6.6,5.5c-0.1,0-0.2,0-0.3,0
			c-1.8-0.1-3.6-1-4.7-2c-2.3-2.3-2.3-5.6-2.3-10.2c0-7.7,0-15.4,0-23.4c0-1.9,0-3.8,0.4-5.4C290.2,411.7,292.5,409.7,295.9,409.3"
			/>
	</g>
	<g>
		<defs>
			<rect id="SVGID_63_" x="125" y="219.1" width="343.2" height="378.8"/>
		</defs>
		<clipPath id="SVGID_64_">
			<use xlink:href="#SVGID_63_"  overflow="visible"/>
		</clipPath>
		<path clip-path="url(#SVGID_64_)" fill="#1D1D1B" d="M278.6,434.3c0,6.1,0.2,15-0.1,21.4c-3.4,0.1-6.9,0.1-10.1,0.1
			c-3.4,0-6.3,0-8.9-1.3c-3.2-1.5-5-5-4.7-9.7c0.5-6.8,4.5-10.3,11.6-10.6C270.5,434,274.7,434.3,278.6,434.3"/>
	</g>
	<g>
		<defs>
			<rect id="SVGID_65_" x="125" y="219.1" width="343.2" height="378.8"/>
		</defs>
		<clipPath id="SVGID_66_">
			<use xlink:href="#SVGID_65_"  overflow="visible"/>
		</clipPath>
		<path clip-path="url(#SVGID_66_)" fill="#1D1D1B" d="M313.8,455.7c-0.1-5.9-0.1-12.6-0.1-18.8c0-0.9-0.1-2,0.1-2.6
			c1.7-0.2,4.7-0.1,6.8-0.1c2.3,0,4.6-0.1,6.5,0.1c4,0.5,7,1.9,8.6,4.4c2.5,3.7,2.5,11-0.6,14.2c-0.5,0.5-1.1,1-1.8,1.4
			c-2.3,1.3-5.5,1.5-9.2,1.5C320.7,455.8,317,455.8,313.8,455.7"/>
	</g>
	<g>
		<defs>
			<rect id="SVGID_67_" x="125" y="219.1" width="343.2" height="378.8"/>
		</defs>
		<clipPath id="SVGID_68_">
			<use xlink:href="#SVGID_67_"  overflow="visible"/>
		</clipPath>
		<path clip-path="url(#SVGID_68_)" fill="#FFFFFF" d="M255.5,526.2c1.1-0.6,2.3-1,3.5-1.5c4.5-2.3,8.8-4.8,12.1-8.4
			c0.4-0.9,1.4-2,0.9-3.3c-0.4-1-2.3-1.1-3.7-0.7c-0.9,0.2-1.8,0.7-2.7,1.1c-0.9,0.4-1.7,0.8-2.5,1.4c-1.6,1-2.9,2.3-4.1,3.6
			c-2,2-3.7,4-5.3,6.2c-0.5,0.8-1.2,1.5-1.5,2.4C253.4,527,254.4,526.3,255.5,526.2 M251.6,510.5c-4-0.1-8.5-0.3-12.4,0.7
			c-2.9,0.7-5.6,2-7.8,3.9c-2.1,1.8-4.4,3.7-5.1,6.6c-0.3,1.4-0.2,2.7,0.3,3.8c1.3,2.8,5,4.2,8.9,4.5c4.6,0.4,9.2-1,12.8-1.8
			c1.2-1.6,2.3-3.3,3.6-4.8c1.6-1.8,3.3-3.9,5.3-5.4c2.6-2,5.4-4.1,8.8-5.5c1.1-0.5,2.4-1,3.7-1.1c2-0.1,4.3,0.7,3.6,3.4
			c-0.4,1.3-1.4,2.6-2.3,3.5c-1.1,1.2-2.5,2.1-3.9,3c-3.7,2.5-8.3,4.6-13,6.1c-0.4,0.1-0.9,0.4-1.3,0.5c-0.3,0.1-0.5,0-0.7,0.1
			c-0.4,0.2-0.8,1-1.2,1.6c-2.5,3.9-5.2,7.7-8.4,10.9c-2.7,2.7-6,5-10.1,6.5c-1.6,0.6-3,1.1-4.8,1.4c-0.3,0.1-0.4,0.2-0.7,0.2
			c-0.3,0.1-0.7,0-1.1,0.1c-0.3,0-0.5,0.2-0.7,0.2c-0.9,0.1-2,0-3,0c-1,0-2,0.1-3,0c-0.2,0-0.4-0.2-0.7-0.2c-0.7-0.2-1-0.2-1.7-0.5
			c-1.4-0.6-2.3-1.4-2.9-2.7c-0.1-0.9-0.1-1.5,0-2.4c0.6-1.2,1.8-2.7,3.7-2.3c0.8,0.1,1.2,0.7,1.6,1.4c0.3,1.9-1,2.4-2.9,2.2
			c-0.5-0.2-0.7-0.7-1-1.1c-0.6,0.4-0.5,1.6-0.3,2.2c0.4,1.2,1.7,1.9,2.6,2.5c7.4,1.9,15.1-1.4,19.4-5c3.3-2.8,5.8-6.4,8.4-9.8
			c0.9-1.2,1.7-2.4,2.4-3.6c-0.8,0.2-1.6,0.3-2.7,0.5c-0.4,0.1-0.7,0.1-1.3,0.2c-0.3,0-0.6,0.2-0.9,0.3c-0.4,0.1-0.9,0-1.4,0.1
			c-0.2,0-0.3,0.2-0.5,0.2c-0.9,0.2-2.3,0.1-3.5,0.1c-1.4,0-2.8,0.1-3.7-0.1c-0.2,0-0.4-0.2-0.6-0.2c-0.3-0.1-0.6,0-0.9-0.1
			c-0.4-0.1-0.8-0.2-1.1-0.3c-0.2-0.1-0.5-0.2-0.8-0.3c-1-0.4-2.2-1.1-3-1.8c-1-0.9-1.9-2.4-2.1-3.7c-0.3-2,0.3-3.3,0.6-4.8
			c3.1-5.8,9.3-9,17.7-9.6c1.5-0.1,4.5-0.2,6.2-0.1C250.4,509.7,251.4,509.8,251.6,510.5"/>
	</g>
	<g>
		<defs>
			<rect id="SVGID_69_" x="125" y="219.1" width="343.2" height="378.8"/>
		</defs>
		<clipPath id="SVGID_70_">
			<use xlink:href="#SVGID_69_"  overflow="visible"/>
		</clipPath>
		<path clip-path="url(#SVGID_70_)" fill="#1D1D1B" d="M252.2,527.1c0.3-0.9,0.9-1.6,1.5-2.4c1.6-2.3,3.3-4.2,5.3-6.2
			c1.2-1.3,2.6-2.6,4.1-3.6c0.8-0.5,1.6-0.9,2.5-1.4c0.9-0.4,1.8-0.9,2.7-1.1c1.4-0.3,3.3-0.3,3.7,0.7c0.5,1.3-0.5,2.4-0.9,3.3
			c-3.2,3.6-7.6,6.1-12.1,8.4c-1.2,0.5-2.4,0.9-3.5,1.5C254.4,526.3,253.4,527,252.2,527.1"/>
	</g>
	<g>
		<defs>
			<rect id="SVGID_71_" x="125" y="219.1" width="343.2" height="378.8"/>
		</defs>
		<clipPath id="SVGID_72_">
			<use xlink:href="#SVGID_71_"  overflow="visible"/>
		</clipPath>
		<path clip-path="url(#SVGID_72_)" fill="#1D1D1B" d="M298.2,532.3c0-0.5,0.5-0.7,0.8-1c1.9-2.2,3.9-4.3,6.1-6.5
			c1.7-1.7,3.6-3.6,5.7-5.1c0.7-0.5,1.5-1.2,2.2-1.4c1.2-0.4,2.3,0.2,2.1,1.6c-0.1,0.6-0.6,1.4-1,1.9c-0.9,1.2-2.2,2.2-3.5,3.2
			c-1.2,1-2.5,1.9-3.9,2.7c-2.4,1.5-4.7,3-7.4,4.2C299,532,298.6,532.4,298.2,532.3"/>
	</g>
	<g>
		<defs>
			<rect id="SVGID_73_" x="125" y="219.1" width="343.2" height="378.8"/>
		</defs>
		<clipPath id="SVGID_74_">
			<use xlink:href="#SVGID_73_"  overflow="visible"/>
		</clipPath>
		<path clip-path="url(#SVGID_74_)" fill="#1D1D1B" d="M333.9,518.3c0.2,0.4,0.1,0.9,0.1,1.4c-1.8,3.2-4.6,5.4-7.6,7.4
			c-2.2,1.5-4.6,2.9-7.2,4.1c-0.9,0.4-1.7,0.8-2.6,1.1c0.4-0.8,1.1-1.3,1.7-1.9c3.9-4.3,7.9-8.8,13-12
			C332,518.3,333.1,517.8,333.9,518.3"/>
	</g>
	<g>
		<defs>
			<rect id="SVGID_75_" x="125" y="219.1" width="343.2" height="378.8"/>
		</defs>
		<clipPath id="SVGID_76_">
			<use xlink:href="#SVGID_75_"  overflow="visible"/>
		</clipPath>
		<path clip-path="url(#SVGID_76_)" fill="#1D1D1B" d="M347.8,533.5c2.3-2.8,4.8-5.5,7.4-8.1c2.6-2.6,5.1-5.2,8.6-6.9
			c1.4-0.3,2.9,0,2.3,1.6c-0.5,1.5-2.1,2.6-3.2,3.8c-3.4,3.4-8.4,6.1-12.5,8.4c-0.4,0.2-0.9,0.5-1.3,0.7
			C348.7,533.2,348.3,533.5,347.8,533.5"/>
	</g>
	<g>
		<defs>
			<rect id="SVGID_77_" x="125" y="219.1" width="343.2" height="378.8"/>
		</defs>
		<clipPath id="SVGID_78_">
			<use xlink:href="#SVGID_77_"  overflow="visible"/>
		</clipPath>
		<path clip-path="url(#SVGID_78_)" fill="#1D1D1B" d="M269.9,538.7c0.1,0.9-0.2,1.6-0.6,2.3c-1.3,2.1-3.9,4.7-6.4,6
			c-0.8,0.4-2,1.1-2.9,1.2c-0.6,0.1-1.3-0.2-1.4-0.7c-0.1-0.5,0.5-1.1,0.8-1.5c1-1.4,2.2-2.6,3.3-3.7c1.6-1.6,3.3-2.9,5.2-4.1
			C268.7,538.1,269.6,538.1,269.9,538.7"/>
	</g>
	<g>
		<defs>
			<rect id="SVGID_79_" x="125" y="219.1" width="343.2" height="378.8"/>
		</defs>
		<clipPath id="SVGID_80_">
			<use xlink:href="#SVGID_79_"  overflow="visible"/>
		</clipPath>
		<path clip-path="url(#SVGID_80_)" fill="#1D1D1B" d="M331.8,538.2c1.2,1,0,2.8-0.7,3.7c-1.8,2.4-4.7,5-7.5,6.1
			c-0.9,0.3-2.5,0.5-2.6-0.6c-0.1-0.8,1.4-2.3,1.8-2.8c2.1-2.4,4.7-4.8,7.4-6.3C330.9,538.2,331.2,538.1,331.8,538.2"/>
	</g>
	<g>
		<defs>
			<rect id="SVGID_81_" x="125" y="219.1" width="343.2" height="378.8"/>
		</defs>
		<clipPath id="SVGID_82_">
			<use xlink:href="#SVGID_81_"  overflow="visible"/>
		</clipPath>
		<path clip-path="url(#SVGID_82_)" fill="#FFFFFF" d="M330.3,538.3c-2.7,1.5-5.3,3.9-7.4,6.3c-0.4,0.5-1.9,2-1.8,2.8
			c0.1,1.1,1.7,1,2.6,0.6c2.8-1.1,5.7-3.7,7.5-6.1c0.6-0.9,1.8-2.7,0.7-3.7C331.2,538.1,330.9,538.2,330.3,538.3 M267.9,538.3
			c-2,1.1-3.6,2.5-5.2,4.1c-1.1,1.1-2.3,2.3-3.3,3.7c-0.3,0.4-0.9,1.1-0.8,1.5c0.1,0.6,0.8,0.8,1.4,0.7c0.9-0.1,2.1-0.8,2.9-1.2
			c2.5-1.3,5-3.9,6.4-6c0.4-0.7,0.7-1.5,0.6-2.3C269.6,538.1,268.7,538.1,267.9,538.3 M349.1,533c0.5-0.2,0.9-0.4,1.3-0.7
			c4.1-2.3,9.1-5,12.5-8.4c1.1-1.1,2.7-2.3,3.2-3.8c0.6-1.6-0.9-1.9-2.3-1.6c-3.5,1.6-6,4.3-8.6,6.9c-2.6,2.6-5.1,5.3-7.4,8.1
			C348.3,533.5,348.7,533.2,349.1,533 M331.2,518.5c-5.1,3.2-9,7.7-13,12c-0.6,0.6-1.3,1.2-1.7,1.9c0.9-0.2,1.8-0.7,2.6-1.1
			c2.5-1.2,4.9-2.6,7.2-4.1c3-2,5.8-4.2,7.6-7.4c0-0.6,0.1-1-0.1-1.4C333.1,517.8,332,518.3,331.2,518.5 M299.3,531.9
			c2.7-1.3,5-2.8,7.4-4.2c1.4-0.8,2.7-1.8,3.9-2.7c1.3-1,2.5-2,3.5-3.2c0.4-0.5,0.9-1.3,1-1.9c0.2-1.4-0.9-2-2.1-1.6
			c-0.7,0.3-1.5,0.9-2.2,1.4c-2,1.6-4,3.5-5.7,5.1c-2.2,2.2-4.2,4.3-6.1,6.5c-0.3,0.3-0.8,0.6-0.8,1
			C298.6,532.4,299,532,299.3,531.9 M289.4,542.1c0.9-0.3,2.2-0.1,3-0.3c1.3-0.3,2.1-1.7,3.3-2.6c0.2-0.2,0.5-0.2,0.7-0.4
			c0.7-0.5,1.6-1.2,2.7-1.4c0.4-0.1,1.1-0.1,1.5,0s1.1,0.9,1,1.4c-0.1,0.7-1.1,0.7-2,0.6c-0.3-0.5,0.2-0.7,0.2-1.1
			c-1.1-0.1-1.6,1.1-2.3,1.8c-1.1,1.1-2.6,1.7-4.3,2.2c0.2,0.6,0.6,0.8,0.7,1.4c0.4,2.2-1.9,2.9-2.5,4.2c0.5,0.9,2,0.2,2.7-0.2
			c1.2-0.6,2.5-1.6,3.6-2.5c3.1-2.6,5.7-4.9,9-7.3c0.8-0.6,1.6-1.1,2.4-1.7s1.7-1.1,2.4-1.7c0.4-0.3,0.7-0.8,1.1-1.1
			c5.5-5.4,10.6-11.8,17.7-15.6c1.1-0.3,2-0.7,3.5-0.6c0.4,0.3,0.8,0.6,1.1,1c0.1,0.5,0.2,1,0.1,1.5c-0.5,1.8-2.6,3.6-4,4.8
			c-4,3.4-8.6,5.9-13.7,8.3c-1,0.5-2.1,0.9-2.9,1.5c-0.7,0.6-1.3,1.4-1.9,2.1c-1.8,2.1-3.7,4.1-5.5,6.3c0.7-0.2,1.2-0.8,1.8-1.3
			c1.7-1.5,3.8-2.7,6-3.8c1.8-0.7,3.9-0.3,3.8,1.8c0,2.5-1.9,3.7-3.5,5.1c-0.5,0.4-1,0.8-1.7,1.4s-1.8,1.5-1.1,2.2
			c0.7,0,1.1-0.2,1.7-0.3c1.4-0.6,2.6-1.5,3.7-2.3c1.2-0.9,2.3-1.7,3.2-2.8c1.8-2.3,4.3-3.6,7.2-4.9c1.6-0.4,4.8-1.5,4.9,0.9
			c0.1,1.2-0.7,2.2-1.2,3c-0.4,0.6-0.8,1.2-1.1,1.5c0.3,0.7,1.5,0.5,2.1,0.2c1.3-1.6,3.3-2.9,4.9-4.3c0.7-0.6,1.5-1.2,2.2-1.8
			c0.8-0.6,1.6-1.1,2.4-1.5c1.1-0.7,2.1-2,3-3c2.3-2.4,4.7-4.7,7.2-6.9c3.3-3,6.7-6,10.8-8c1-0.2,2.6-0.6,3.4,0.1
			c0.4,0.4,0.6,1.1,0.5,2c-1.5,2.7-3.9,4.6-6.3,6.4c-2.4,1.8-4.9,3.6-7.6,5.1c-1.8,1-3.7,2-5.6,2.9c-1.2,0.1-1.6,1-2.3,1.8
			c-2.7,2.9-5.4,5.9-8,9.2c-0.6,0.8-1.3,1.4-1.1,2.5c0.4,0.6,1.5,0.4,2.2,0.1c1.8-0.7,3.7-2.3,5.2-3.5c0.2-0.2,0.5-0.4,0.8-0.6
			c0.2-0.2,0.6-0.4,0.8-0.6c0.3-0.3,0.3-0.5,0.5-0.7c0.4-0.4,1.2-0.9,1.8-1.4c1.2-0.9,2.3-1.9,3.5-2.7c0.7-0.4,1.3-0.9,1.9-1.1
			c1-0.4,2.5-0.3,3,0.5c0.7,1.1,0,2.5-0.5,3.5c0.6-0.2,1.1-0.7,1.7-1.1c0.5-0.4,1.1-0.8,1.7-1.1c1.2-0.6,3.3-2.6,5.4-1.9
			c0.7,0.2,1.3,0.9,1.4,1.8c0,0.9-0.5,1.3-0.6,2.1c1.5-0.8,3.4-2.6,5.4-3.3c0.6-0.2,1.7-0.5,2.6-0.3c0.6,0.1,0.9,0.7,1.3,1.1
			c0.3,3-1.6,4.4-3.4,5.9c-0.5,0.5-1.1,0.9-1.7,1.5c-0.6,0.5-2.3,1.7-0.9,2.3c0.6,0,1.3-0.1,1.8-0.3c2.8-1.1,4.6-3.6,6.9-5
			c0.2,0.2,0.3,0.3,0.5,0.5c-1.5,1.3-3.1,2.7-4.9,3.9c-1.2,0.8-2.7,1.8-4.8,1.5c-1.1-0.1-1.7-1.5-1.3-2.7c0.8-2.4,3-3.8,4.9-5.4
			c0.5-0.4,1.9-1.6,1.4-2.5c-0.4-0.6-2-0.1-2.6,0.2c-2.4,1-4.3,2.9-6.5,4.6c-1.4,1.2-2.9,2.6-4.3,4.1c-0.5,0.5-1.1,1.2-1.4,1.3
			c-0.8,0.3-2.3-0.2-3,0c0.2-0.5,0.7-1,1.1-1.4c2-2,4-4,6-6.1c0.7-0.8,1.9-1.7,1.5-3c-0.4-0.2-0.8-0.3-1.4-0.1
			c-1.4,0.4-2.7,1.4-3.8,2.3c-3,2.2-5.5,4.4-8.3,6.9c-0.6,0.5-1.2,1.2-1.7,1.4c-0.5,0.2-2.2-0.1-3,0c0.1-0.5,0.6-0.9,1-1.3
			c1.9-1.9,3.9-3.8,5.9-5.8c1-1,2-1.9,2.3-3.4c-0.3-0.4-0.7-0.2-1-0.2c-1.3,0.3-2.9,1.7-3.9,2.5c-0.6,0.5-1.2,1-1.8,1.4
			c-0.6,0.5-1.3,0.9-1.8,1.4c-0.2,0.2-0.2,0.4-0.4,0.6c-0.5,0.5-1.2,0.9-1.8,1.4c-1.2,0.9-2.5,1.9-3.8,2.6c-1.2,0.7-2.6,1.4-4.2,1
			c-1.2-0.3-1.4-2-1-3.3c0.2-0.6,0.7-1.3,1.1-1.9c1.1-1.7,2.8-3.5,3.9-5c-0.5,0.1-0.9,0.6-1.4,1c-1.3,1.1-2.7,2.1-3.9,3.3
			c-0.6,0.5-1,1.3-1.9,1.5c-0.9,0-1.9,0.1-2.5-0.2c-1.8,1.6-4.1,3.6-6.7,4.5c-1.6,0.6-3.7,0.3-3.9-1.4c-0.1-0.6,0-1.2,0.2-1.8
			c-1.1,0.5-1.8,1.3-2.8,1.8c-0.8,0.4-1.9,1.3-3.1,1.5c-1.2,0.3-2.5,0.1-2.9-0.9c-0.7-2.8,1.3-4,2.9-5.4c0.5-0.5,1.1-0.9,1.7-1.4
			c0.8-0.7,1.4-1.2,1.9-2.1c-0.1-0.3-0.3-0.5-0.4-0.8c-1.7-0.3-3.7,1.1-4.8,1.9c-3.7,2.5-6.8,5.7-10,8.4c-1.1,0-2.5,0-3.4,0
			c0.7-1.1,1.7-1.9,2.5-2.8c0.8-0.9,1.7-1.9,2.5-2.8c1.7-1.8,3.5-3.6,5.1-5.5c-0.8,0.4-1.4,0.9-2.1,1.4c-1.9,1.4-3.7,3-5.7,4.5
			c-1,1.2-2.6,2.3-3.9,3.3c-0.6,0.5-1.2,0.9-1.9,1.3c-0.7,0.4-1.5,0.8-2.2,1c-0.4,0.1-1.7,0.2-2.2,0c-1.3-0.4-1.3-2.8-0.5-3.7
			c0.3-0.3,2-1.6,1.8-2.2c-0.2-0.6-1.6-0.3-2.3-0.2c-0.4,0-1-0.1-1.2-0.1c-0.4,0.1-1.1,1.1-1.4,1.5c-1.2,1.4-2.2,2.5-3.4,3.8
			c-0.2,0.2-0.6,0.6-0.7,0.7c-0.3,0.1-1.1-0.1-1.6-0.1c-0.6,0-1.2,0.1-1.5-0.1c0.3-0.7,0.9-1.1,1.4-1.6c2.8-3,5.8-6.1,8.6-9.2
			c0.5-0.5,1-1,1.3-1.6c-0.9,0.4-1.6,1-2.3,1.6c-1.4,1.1-2.8,2.3-4.3,3.5c-0.7,0.6-1.5,1.1-2.1,1.8c-0.2,0.2-0.3,0.5-0.5,0.7
			c-0.4,0.5-1.2,0.9-1.8,1.3c-1.2,0.9-2.4,1.8-3.8,2.5c-0.7,0.3-1.5,0.7-2.1,1c-0.1,0-0.4,0-0.6,0.1s-0.3,0.2-0.4,0.2
			c-0.9,0.1-2,0.1-2.6,0c-1.5-0.4-1.6-2.7-1-4.3c-0.5-0.3-1.6,0.1-2-0.3c-1.4,1.1-3.2,2.8-5.1,3.7c-1.1,0.6-2.6,1.2-4.3,0.9
			c-1.1-0.2-1.4-1.7-1.3-2.9c0-0.3,0.3-0.5,0.2-0.9c-0.6,0.3-1,0.7-1.5,1c-1,0.7-1.9,1.3-3.1,1.9c-0.9,0.5-2.3,1.1-3.6,0.8
			c-1.1-0.3-1.6-1.9-1.1-3.3c0.9-2.7,4.1-4.8,5.5-6.7c-1,0.5-1.9,1.3-2.9,2.1c-0.4,0.3-0.8,0.7-1.4,1.1c-0.6,0.5-1.2,1.3-2.2,1
			c0.2-0.6,0.8-0.9,1.2-1.2c3.1-2.4,6.2-5,9.3-7.5c-0.7-0.2-1.6,0.2-2.2-0.2c0.5-0.6,1.9-0.4,3-0.5c1.6-1.5,3.1-3.1,4.6-4.7
			c0.4,0,0.5-0.2,0.7-0.3c0.7,0.1,1.7-0.1,2.2,0.1c0,0.5-0.5,0.9-0.9,1.3c-1,1.1-2.2,2.3-3.1,3.5c0.9,0.4,2.8-0.2,3.6,0.3
			c-0.1,0.6-1,0.4-1.5,0.5c-0.8,0-1.9-0.2-2.7,0c-0.5,0.1-1.2,1-1.7,1.5c-3.1,3.3-5.8,6.2-9,9.6c-0.6,0.6-1.8,1.5-1.2,2.3
			c0.6,0.9,2.5,0,3.3-0.5c1.4-0.8,2.4-1.7,3.7-2.6c0.6-0.5,1.3-0.8,1.8-1.3c0.6-0.6,1-1.2,1.5-1.7c0.6-0.5,1.1-1,1.8-1.4
			c1-0.7,1.9-1.2,3.1-1.8c0.9-0.4,2.1-1,3.3-1.1c1.4-0.2,2.5,0.1,2.9,1c0.4,1.2-0.5,2.6-1,3.4c-0.4,0.6-0.9,1.2-1.3,1.7
			c0.4,0.6,1.3,0.4,1.8,0.1c0.4-0.2,0.5-0.7,0.9-1.1c1.4-1.6,3.4-2.8,5.5-3.9c0.8-0.5,1.7-1,2.6-1.1c2-0.4,3.6,1,2.6,2.7
			c-0.5,1-1.3,1.5-2.9,1.3c-1.2-0.7-0.2-2.5,1.1-2.3c0.4,0,0.5,0.3,0.9,0.5c0.3-0.5,0-1.2-0.4-1.4c-1.5-0.1-2.5,1.1-3.5,1.9
			c-0.9,0.8-1.7,1.6-2.3,2.3c-0.7,0.8-1.5,1.6-2.2,2.5c-0.7,0.9-1.6,1.7-1.6,3c0.8,0.9,2.8,0.1,3.8-0.3c1.7-0.7,3.3-1.8,4.7-2.8
			c0.6-0.4,1.3-0.9,1.7-1.3c0.2-0.2,0.4-0.6,0.5-0.7c0.4-0.5,1.2-0.9,1.8-1.5c0.6-0.5,1.2-1,1.8-1.5c1.2-1,2.4-2.1,3.5-3
			c1.3-1,2.9-1.7,4.3-2.7c0.8-0.6,1.5-1.4,2.3-2.1c3.7-3.7,7.2-7.3,11.3-10.8c0.7-0.6,1.6-1.3,2.5-1.9c0.9-0.6,1.9-1.3,2.7-1.6
			c0.4-0.1,0.8-0.1,1-0.3c1.7-0.2,3.3,0.7,3,2.4c-0.1,0.5-0.4,1.2-0.7,1.7c-0.4,0.7-1.2,1.4-1.9,2.1c-3.4,3.3-7.7,5.9-12.1,8.2
			c-1.8,1-3.8,1.7-5.4,2.7C293.9,537,291.5,539.4,289.4,542.1"/>
	</g>
</g>
</svg>
