<?xml version="1.0" encoding="utf-8"?>
<!-- Generator: Adobe Illustrator 17.1.0, SVG Export Plug-In . SVG Version: 6.00 Build 0)  -->
<!DOCTYPE svg PUBLIC "-//W3C//DTD SVG 1.1//EN" "http://www.w3.org/Graphics/SVG/1.1/DTD/svg11.dtd">
<svg version="1.1" id="Calque_1" xmlns="http://www.w3.org/2000/svg" xmlns:xlink="http://www.w3.org/1999/xlink" x="0px" y="0px"
	 viewBox="0 0 595.3 841.9" enable-background="new 0 0 595.3 841.9" xml:space="preserve">
<g>
	<polygon fill="#1D1D1B" points="68.5,502.7 68.5,490.5 80.2,490.5 80.2,502.7 86.2,502.7 86.2,474.9 80.1,474.9 80.1,485.9 
		68.5,485.9 68.5,474.9 62.5,474.9 62.5,502.7 	"/>
	<path fill="#1D1D1B" d="M139.6,474.9V490c0,4.7-0.1,8.9-6.1,8.9c-5.9,0-6.1-4.2-6.1-8.9v-15.1h-6.2v17.4c0,7.4,5.5,11,12.3,11
		c6.8,0,12.3-3.6,12.3-11v-17.4H139.6L139.6,474.9z"/>
	<path fill="#1D1D1B" d="M199.7,492.5v5.6c-1.5,0.5-3,0.9-5.3,0.9c-5.7,0-8.2-3.9-8.2-10.2c0-6.3,2.2-10.2,7.6-10.2
		c3.6,0,5.8,2.3,5.8,4.7h6.1c0-5.5-4.9-9-12.2-9c-5.8,0-13.7,3.4-13.7,14.5c0,11,7.6,14.5,14.3,14.5c5.8,0,9.5-1.2,11.7-2.1V488
		h-11.5v4.6L199.7,492.5L199.7,492.5z"/>
	<path fill="#1D1D1B" d="M480.8,482.7c0-5.6-5.5-8.7-10.8-8.7c-5.2,0-10.9,3.1-10.9,8.7c0,4,2.9,6.1,6.8,7.3c1.2,0.4,3.3,1,4.4,1.3
		c3.8,1.1,5.1,2.1,5.1,4.3c0,3.1-3,4-4.8,4c-4.6,0-6.2-2.6-6.2-5.7h-6c0,6.2,4.5,9.7,12.2,9.7c5.9,0,11.2-3.2,11.2-8.8
		c0-4.4-3.3-6.8-7.7-8c-1.5-0.4-2.9-0.8-4.4-1.3c-3.4-1.1-4.8-1.9-4.8-4c0-2,1.5-3.6,4.8-3.6c3.3,0,4.9,2.1,4.9,4.8L480.8,482.7
		L480.8,482.7z"/>
	<path fill="#1D1D1B" d="M540.3,482.7c0-5.6-5.5-8.7-10.8-8.7c-5.2,0-10.9,3.1-10.9,8.7c0,4,2.9,6.1,6.8,7.3c1.2,0.4,3.3,1,4.4,1.3
		c3.8,1.1,5.1,2.1,5.1,4.3c0,3.1-3,4-4.8,4c-4.6,0-6.2-2.6-6.2-5.7h-6c0,6.2,4.5,9.7,12.2,9.7c5.9,0,11.2-3.2,11.2-8.8
		c0-4.4-3.3-6.8-7.7-8c-1.5-0.4-2.9-0.8-4.4-1.3c-3.4-1.1-4.8-1.9-4.8-4c0-2,1.5-3.6,4.8-3.6c3.3,0,4.9,2.1,4.9,4.8L540.3,482.7
		L540.3,482.7z"/>
	<path fill="#1D1D1B" d="M253.7,503.6c9.5,0,13.8-6.4,13.8-14.7c0-8.4-4.3-14.7-13.8-14.7c-9.5,0-13.8,6.4-13.8,14.7
		S244.2,503.6,253.7,503.6L253.7,503.6z M253.7,478.4c6.1,0,7.2,5.5,7.2,10.4c0,4.9-1.2,10.4-7.2,10.4c-6.1,0-7.2-5.5-7.2-10.4
		C246.5,484,247.7,478.4,253.7,478.4L253.7,478.4z"/>
	<path fill="#1D1D1B" d="M349.5,503c5.7,0,10.8-2.7,10.8-7.8c0-4.2-3.4-6.7-6.7-7c2.3-0.3,5.4-2.7,5.4-6.2c0-5-3.8-7.3-9.8-7.3H337
		V503H349.5L349.5,503z M343,498.6v-8.1h5.5c2.7,0,5,0.8,5,4c0,3.1-2.4,4.1-5,4.1H343L343,498.6z M343,486.2V479h5.6
		c2.5,0,3.9,1.6,3.9,3.7c0,2.2-2,3.6-4.2,3.6H343V486.2z"/>
	<path fill="#1D1D1B" d="M409.3,503.7c9.6,0,13.9-6.5,13.9-14.9c0-8.4-4.3-14.9-13.9-14.9c-9.6,0-13.9,6.5-13.9,14.9
		C395.4,497.2,399.7,503.7,409.3,503.7L409.3,503.7z M409.3,478.3c6.2,0,7.4,5.5,7.4,10.5c0,5-1.2,10.5-7.4,10.5
		c-6.2,0-7.4-5.5-7.4-10.5C401.9,483.8,403.1,478.3,409.3,478.3L409.3,478.3z"/>
	<path fill="#1D1D1B" d="M434.8,410.1c1.3,14.3-5,40.9-45.5,42.6c-17.9,0.7-40.4-4.8-49.3-9c0-4,0-34.3,0-34.3h4.5
		c1,4.2,9.4,36,39,37.4c17.1,0.8,30.2-6.4,30.5-20.7c0.4-16.5-17.9-22.2-34.5-28.8c-18.6-7.4-36.7-14.8-39.2-35
		c-3-23.5,18.8-39.6,43.8-38.5c13.8,0.6,27.6,3.9,38.2,8.2c0,5.6,0,28.9,0,28.9h-4.4c-2.5-15.7-12-30.6-33.5-31.9
		c-12.5-0.8-24,3.9-24,17.6c0,13.6,22.8,19.2,39.3,25.7C416.4,378.9,432.8,388,434.8,410.1L434.8,410.1z"/>
	<path fill="#1D1D1B" d="M547.8,410.1c1.3,14.3-5,40.9-45.5,42.6c-17.9,0.7-40.4-4.8-49.3-9c0-4,0-34.3,0-34.3h4.5
		c1,4.2,9.4,36,39,37.4c17.1,0.8,30.2-6.4,30.5-20.7c0.4-16.5-17.9-22.2-34.5-28.8c-18.6-7.4-36.7-14.8-39.2-35
		c-3-23.5,18.8-39.6,43.8-38.5c13.8,0.6,27.6,3.9,38.2,8.2c0,5.6,0,28.9,0,28.9h-4.4c-2.5-15.7-12-30.6-33.5-31.9
		c-12.5-0.8-24,3.9-24,17.6c0,13.6,22.8,19.2,39.3,25.7C529.4,378.9,545.8,388,547.8,410.1L547.8,410.1z"/>
	<path fill="#1D1D1B" d="M189.1,388.4c0-36.3,29.5-65.8,65.8-65.8c36.4,0,65.8,29.5,65.8,65.8s-29.5,65.8-65.8,65.8
		C218.6,454.2,189.1,424.8,189.1,388.4L189.1,388.4z M254.9,448.7c-25.7,0.3-34.7-33.2-34.7-60.4c0-27.2,10-60.7,34.7-60.6
		c23.5,0,34.7,33.4,34.7,60.6C289.7,415.5,280.8,448.4,254.9,448.7L254.9,448.7z"/>
	<path fill="#1D1D1B" d="M67.7,440.5c0,3.7-4.2,5.5-8.2,5.4h-3.1v4.7h67c23.6,0,48.9-11,49.1-35.2c0.3-27.7-28.1-32.6-37-33.4
		c14-2.3,30.6-14,29.8-30.6c-0.8-17.8-19.7-26.1-37.5-26.1l-70.7,0.1v4.8h3.6c2.7,0,7,0.8,7,4.7L67.7,440.5L67.7,440.5z M96.3,445.5
		v-60.1h16.6c18.7,0,28.4,13.2,29.2,28.2c0.9,18-12.4,31.9-29.3,31.9H96.3L96.3,445.5z M96.3,380.6v-50.4h14
		c13.7,0,24.8,8.6,25.5,24.2c0.6,14.8-10.6,26.2-24.7,26.2L96.3,380.6L96.3,380.6z"/>
</g>
<path fill="#FFFFFF" d="M254.9,448.7c-25.7,0.3-34.7-33.2-34.7-60.4c0-27.2,10-60.7,34.7-60.6c23.5,0,34.7,33.4,34.7,60.6
	C289.7,415.5,280.8,448.4,254.9,448.7L254.9,448.7z"/>
</svg>
