<?xml version="1.0" encoding="utf-8"?>
<!-- Generator: Adobe Illustrator 17.1.0, SVG Export Plug-In . SVG Version: 6.00 Build 0)  -->
<!DOCTYPE svg PUBLIC "-//W3C//DTD SVG 1.1//EN" "http://www.w3.org/Graphics/SVG/1.1/DTD/svg11.dtd">
<svg version="1.1" id="Calque_1" xmlns="http://www.w3.org/2000/svg" xmlns:xlink="http://www.w3.org/1999/xlink" x="0px" y="0px"
	 viewBox="0 0 595.3 841.9" enable-background="new 0 0 595.3 841.9" xml:space="preserve">
<polygon fill="#1D1D1B" points="61.5,461.4 61.5,499.7 68.9,499.7 68.9,483.9 82.1,483.9 82.1,478.1 68.9,478.1 68.9,467.4 
	82.8,467.4 82.8,461.4 "/>
<polygon fill="#1D1D1B" points="142.1,493.7 126.3,493.7 126.3,482.8 140.8,482.8 140.8,477.1 126.3,477.1 126.3,467.4 141.4,467.4 
	141.4,461.4 118.9,461.4 118.9,499.7 142.1,499.7 "/>
<polygon fill="#1D1D1B" points="202,493.7 186.2,493.7 186.2,482.8 200.7,482.8 200.7,477.1 186.2,477.1 186.2,467.4 201.3,467.4 
	201.3,461.4 178.8,461.4 178.8,499.7 202,499.7 "/>
<polygon fill="#1D1D1B" points="260.3,493.7 245.8,493.7 245.8,461.4 238.4,461.4 238.4,499.7 260.3,499.7 "/>
<g>
	<path fill="#1D1D1B" d="M350.3,477.1h-13.7v5.9h6.7v10.9c-2.1,0.7-4.5,1-6.7,1c-7.4,0-9.6-7.1-9.6-14.3s2.9-14.1,9.6-14.1
		c3.6,0,7.5,1.3,10.6,3.1l2.1-5.7c-3.8-1.9-8.5-3.2-12.7-3.2c-11.1,0-17.5,8.8-17.5,19.9c0,11.2,5.3,19.9,17.5,19.9
		c4.1,0,9.9-1.1,13.8-2.9L350.3,477.1L350.3,477.1z"/>
	<path fill="#1D1D1B" d="M400.9,460.6c-11.1,0-17.5,8.8-17.5,19.9c0,11.1,6.4,19.9,17.5,19.9s17.5-8.8,17.5-19.9
		C418.4,469.4,412,460.6,400.9,460.6 M400.9,494.7c-6.7,0-9.6-6.9-9.6-14.1c0-7.2,2.9-14.1,9.6-14.1s9.6,6.9,9.6,14.1
		S407.6,494.7,400.9,494.7"/>
	<path fill="#1D1D1B" d="M467,460.6c-11.1,0-17.5,8.8-17.5,19.9c0,11.1,6.4,19.9,17.5,19.9c11.1,0,17.5-8.8,17.5-19.9
		C484.5,469.4,478.1,460.6,467,460.6 M467,494.7c-6.7,0-9.6-6.9-9.6-14.1c0-7.2,2.9-14.1,9.6-14.1c6.7,0,9.6,6.9,9.6,14.1
		S473.7,494.7,467,494.7"/>
	<path fill="#1D1D1B" d="M543.2,466.2c-4.6-4.6-10.4-4.8-16.3-4.8h-9.3v38.3h9.3c5.8,0,11.7-0.2,16.3-4.8c3.3-3.3,5.2-8.7,5.2-14.3
		C548.4,474.9,546.5,469.5,543.2,466.2 M537,491.8c-2.1,2.1-5.3,2.3-7.8,2.3h-4.1v-27h4.1c2.5,0,5.7,0.2,7.8,2.3
		c2.4,2.4,3.5,7,3.5,11.2C540.5,484.8,539.4,489.4,537,491.8"/>
	<path fill="#1D1D1B" d="M129.8,399.3c0-12.2-14.1-13.6-22.8-13.6H84.3V414h23.9C120.8,414,129.8,410.1,129.8,399.3 M126.5,354.6
		c0-9.3-9.2-11.1-20.3-11.1h-22V367h22.2C117.8,367,126.5,364.3,126.5,354.6 M153.6,399.5c0,20.6-16.6,33.1-38.7,33.1H61.5V325.2
		h54.2c21.6,0,33.9,12,33.9,27.5c0,10.7-7,19.6-13.4,21.9C144.2,377.2,153.6,385.9,153.6,399.5"/>
</g>
<polygon fill="#1D1D1B" points="439.6,325.2 478.9,377.6 437.3,432.6 465.9,432.6 492.5,396.1 519.1,432.6 548.4,432.6 469,325.2 
	"/>
<polygon fill="#1D1D1B" points="517.4,325.2 504.7,342.9 518.6,361.3 546.1,325.2 "/>
<g>
	<path fill="#1D1D1B" d="M253.6,368.6c3-2.7,4.9-6.5,4.9-10.6c0-4.1-1.8-7.8-4.5-10.2c-4.1-3.6-10.1-4-17.2-4H215v29.8h22.6
		C244.1,373.6,249.3,372.4,253.6,368.6 M260.1,388.3l28.4,44.3h-27.9l-24.4-40.7h-21v40.7h-23.1V325.2h42.1c12.2,0,26.6,0,37.4,9.5
		c6.5,5.7,10.2,13.6,10.2,22.4C281.7,370.9,272.6,383.5,260.1,388.3"/>
</g>
<path fill="#1D1D1B" d="M363.7,350.5l16,38h-31.3L363.7,350.5z M352.7,325.2l-46.6,107.4h24.4l10.3-25.5h46.7l10.8,25.5h25.8
	L376,325.2H352.7z"/>
</svg>
