<?xml version="1.0" encoding="utf-8"?>
<!-- Generator: Adobe Illustrator 17.1.0, SVG Export Plug-In . SVG Version: 6.00 Build 0)  -->
<!DOCTYPE svg PUBLIC "-//W3C//DTD SVG 1.1//EN" "http://www.w3.org/Graphics/SVG/1.1/DTD/svg11.dtd">
<svg version="1.1" id="Calque_1" xmlns="http://www.w3.org/2000/svg" xmlns:xlink="http://www.w3.org/1999/xlink" x="0px" y="0px"
	 viewBox="0 0 595.3 841.9" enable-background="new 0 0 595.3 841.9" xml:space="preserve">
<path d="M161.7,385.9v22.4c0,8.9-8.3,12.6-18.5,12.6c-8.4,0-21.4-2.3-21.4-12v-23h-8.5v-0.8h27v0.8h-8.7v23
	c0,8.3,6.9,10.4,13.3,10.4c8.1,0,15.6-3,15.6-11v-22.4h-8.9v-0.8H171v0.8H161.7z"/>
<g>
	<g>
		<path d="M235.5,418.8c-0.9,0.7-2,0.9-3.9,0.9c-2.5,0-4.2-1.3-4.2-3.9v-4.4c0-4.9-4.4-9.5-15.3-9.5c7.5,0,13.2-3.6,13.2-8.2
			c0-4.9-6.3-8.6-16.5-8.6H179v0.8h8.5v33.4H179v0.8h26.5v-0.8h-8v-17h9.8c5.7,0,9.9,1.9,9.9,6.4v2.4c0,7.3,6.8,9.9,12.5,9.9
			c3,0,4.9-0.7,6.4-1.7L235.5,418.8z M205.2,401.5h-7.6v-15.6h7.3c7.1,0,10.5,2.5,10.5,8C215.3,399.5,211,401.5,205.2,401.5z"/>
	</g>
</g>
<g>
	<g>
		<path d="M275.8,401.3c7.2,0,13-2.8,13-8c0-5.5-7-8.2-16.1-8.2H244v0.8h8.5v33.4H244v0.8h32.1c10.8,0,16.1-4.6,16.1-9.3
			C292.2,404.4,284.4,401.3,275.8,401.3z M262.5,385.9h6.9c6.7,0,10.6,1.7,10.6,7.5c0,6.1-4,7.7-8.9,7.7h-8.7v-15.2H262.5z
			 M271.1,419.3h-8.7v-17.5h8.3c6.7,0,11.7,1.1,11.7,9C282.5,417.3,276.7,419.3,271.1,419.3z"/>
	</g>
</g>
<path d="M353,420.1h-49.4v-0.8h8.7v-33.4h-8.7v-0.8h45.7l0.3,0.2v10.6h-1.2c0-4.6-3.9-10-12.6-10h-13.7v15.8h5.2
	c6.4,0,8.8-3.9,8.8-7.3h1.1v15.3h-1.1c0-3.4-2.3-7.2-8.8-7.2h-5.2v16.8H336c11.3,0,16.1-5.9,16.1-11h1.1v11.6L353,420.1z"/>
<g>
	<g>
		<path d="M423.2,418.8c-0.9,0.7-2,0.9-3.9,0.9c-2.5,0-4.2-1.3-4.2-3.9v-4.4c0-4.9-4.3-9.5-15.3-9.5c7.5,0,13.2-3.6,13.2-8.2
			c0-4.9-6.3-8.6-16.5-8.6h-29.8v0.8h8.6v33.4h-8.6v0.8h26.5v-0.8h-8v-17h9.9c5.7,0,9.9,1.9,9.9,6.4v2.4c0,7.3,6.8,9.9,12.4,9.9
			c3.1,0,5-0.7,6.4-1.7L423.2,418.8z M392.9,401.5h-7.7v-15.6h7.3c7.1,0,10.5,2.5,10.5,8C403.1,399.5,398.7,401.5,392.9,401.5z"/>
	</g>
</g>
<g>
	<g>
		<path d="M488.2,418.8c-0.9,0.7-2,0.9-3.9,0.9c-2.5,0-4.2-1.3-4.2-3.9v-4.4c0-4.9-4.4-9.5-15.3-9.5c7.5,0,13.2-3.6,13.2-8.2
			c0-4.9-6.3-8.6-16.5-8.6h-29.8v0.8h8.6v33.4h-8.6v0.8h26.5v-0.8h-8v-17h9.9c5.7,0,9.9,1.9,9.9,6.4v2.4c0,7.3,6.8,9.9,12.4,9.9
			c3,0,5-0.7,6.4-1.7L488.2,418.8z M458,401.5h-7.6v-15.6h7.3c7.1,0,10.5,2.5,10.5,8C468.1,399.5,463.8,401.5,458,401.5z"/>
	</g>
</g>
<polygon points="541,385.9 525.3,404.6 525.3,419.3 534,419.3 534,420.1 506.9,420.1 506.9,419.3 515.6,419.3 515.6,404.9 
	499.2,385.9 490.1,385.9 490.1,385.1 519.3,385.1 519.3,385.9 509.9,385.9 525.1,403.3 539.6,385.9 530.2,385.9 530.2,385.1 
	548.7,385.1 548.7,385.9 "/>
<path d="M55.5,420.1v-0.8h8.6v-33.4h-8.6v-0.8h28.8c9.1,0,16.1,2.7,16.1,8.2c0,5.2-5.8,8-13,8c8.6-0.1,16.4,3.1,16.4,9.5
	c0,4.7-5.4,9.3-16.1,9.3L55.5,420.1L55.5,420.1z"/>
<path fill="#FFFFFF" d="M74,385.9V401h8.7c4.9,0,8.9-1.6,8.9-7.7c0-5.8-3.9-7.5-10.6-7.5L74,385.9L74,385.9z"/>
<path fill="#FFFFFF" d="M74,401.8v17.5h8.7c5.5,0,11.3-2.1,11.3-8.5c0-7.9-4.9-9-11.7-9H74z"/>
</svg>
