<?xml version="1.0" encoding="utf-8"?>
<!-- Generator: Adobe Illustrator 17.1.0, SVG Export Plug-In . SVG Version: 6.00 Build 0)  -->
<!DOCTYPE svg PUBLIC "-//W3C//DTD SVG 1.1//EN" "http://www.w3.org/Graphics/SVG/1.1/DTD/svg11.dtd">
<svg version="1.1" id="Calque_1" xmlns="http://www.w3.org/2000/svg" xmlns:xlink="http://www.w3.org/1999/xlink" x="0px" y="0px"
	 viewBox="0 0 595.3 841.9" enable-background="new 0 0 595.3 841.9" xml:space="preserve">
<g>
	<path fill="#1D1D1B" d="M450.8,401.6c0-3.9,1.2-7.4,3.4-10.6c2.2-3.2,5.4-5.9,9.4-8.2c8-4.6,19.3-7.2,32.5-7.2
		c13.2,0,24.5,2.6,32.5,7.2c4,2.3,7.2,5,9.4,8.2c2.2,3.2,3.4,6.8,3.4,10.6c0,3.9-1.2,7.4-3.4,10.6c-2.2,3.2-5.4,5.9-9.4,8.2
		c-8,4.6-19.3,7.2-32.5,7.2c-13.2,0-24.5-2.6-32.5-7.2c-4-2.3-7.2-5.1-9.4-8.2C452,409,450.8,405.4,450.8,401.6L450.8,401.6z
		 M481,401.6c0,1.4,0.4,2.7,1.1,3.9c0.7,1.2,1.7,2.2,3.1,3.1c2.6,1.7,6.4,2.8,10.9,2.8c4.5,0,8.3-1,10.9-2.8c1.3-0.9,2.3-1.9,3-3.1
		s1.1-2.5,1.1-3.9c0-1.4-0.4-2.7-1.1-3.9s-1.7-2.2-3-3.1c-2.6-1.7-6.4-2.7-10.9-2.7c-4.5,0-8.3,1-10.9,2.8c-1.3,0.9-2.4,1.9-3.1,3.1
		C481.4,398.8,481,400.1,481,401.6L481,401.6z M121.9,425.6l27.9-50.1h33.3l27.6,50.2c0.1,0.1,0.1,0.3,0,0.4
		c-0.1,0.1-0.2,0.2-0.3,0.2H180l-2.4-5.7h-22.4l-2.5,5.8h-30.4c-0.1,0-0.3-0.1-0.3-0.2C121.8,425.8,121.9,425.7,121.9,425.6
		L121.9,425.6z M160.7,408.2h11.8L167,393L160.7,408.2L160.7,408.2z M265.6,418.3l-15-13.1c-0.1-0.1-0.1-0.1-0.2-0.2v21.1h-26.7
		v-50.7h26.4l14.7,17.6c0.3,0.3,0.6,0.6,0.8,0.9c0.2-0.3,0.5-0.6,0.8-0.9l14.9-17.6h26.2v50.7l-26.5,0.1v-21.1
		c-0.1,0.1-0.1,0.1-0.2,0.2L265.6,418.3L265.6,418.3z M326.8,426.1v-50.7h37.3c9.6,0,15.5,0.1,22,3.4c2.3,1,4,2.5,5.2,4.2
		c1.2,1.7,1.9,3.6,1.9,5.5c0,2.5-0.4,5.2-2.1,7.6c-1.5,2-4.5,3.2-8.2,4.7c5.6,0.3,11,2.9,12.5,6c0.7,1.5,1,3,1,4.8
		c0,2.6-1,5.1-2.8,7.3c-1.8,2.1-4.4,3.9-7.7,5.1c-3.9,1.5-9.3,2.2-16.5,2.2L326.8,426.1L326.8,426.1z M353.8,415h7.2
		c2.5,0,4.5-0.5,5.9-1.2c0.7-0.4,1.2-0.8,1.5-1.3c0.3-0.5,0.5-1,0.5-1.6c0-0.7-0.2-1.3-0.6-1.8c-0.4-0.5-0.9-1-1.7-1.4
		c-1.5-0.8-3.8-1.3-6.8-1.3h-6.1v8.6L353.8,415L353.8,415z M353.8,395.7h3.6c3,0,5.1-0.3,6.4-1c0.7-0.3,1.1-0.7,1.4-1.1
		s0.5-0.9,0.5-1.5c0-0.6-0.2-1-0.4-1.5c-0.3-0.4-0.7-0.8-1.3-1.1c-1.2-0.6-3-1-5.4-1h-4.7v7.2H353.8z M114.2,425.6
		c-9.6,1.3-15,1.9-23.7,1.9c-11.1-0.7-20.8-3.3-27.7-7.8c-3.4-2.2-6.8-4.9-8.4-7.7c-2-2.9-2.7-6.9-2.7-10.7c0-3.9,1.6-7.5,3.1-10.2
		c2.4-3.4,4.9-5.7,9.1-8.4c8.2-4.7,13.2-6.8,27-7.9c8.1,0,12.7,0.1,22.8,2l0.6,0.2l0.6,20.1c-3.2-1.9-5.5-3.9-12.2-5
		c-7-0.6-10-0.1-13.9,1.1c-2.1,0.7-4,2.2-5,3.2c-1.1,1.3-1.6,2.9-1.6,4.7c0,1.8,0.5,3.4,1.4,4.9c0.9,1.5,2.2,2.4,4.4,3.3
		c3.9,1.4,8.7,1.5,14.5,1c5.8-0.9,7.8-1.6,12-3.8L114.2,425.6L114.2,425.6z M410.4,426.1v-50.7h29.7v50.7H410.4L410.4,426.1z"/>
</g>
</svg>
