<?xml version="1.0" encoding="utf-8"?>
<!-- Generator: Adobe Illustrator 17.1.0, SVG Export Plug-In . SVG Version: 6.00 Build 0)  -->
<!DOCTYPE svg PUBLIC "-//W3C//DTD SVG 1.1//EN" "http://www.w3.org/Graphics/SVG/1.1/DTD/svg11.dtd">
<svg version="1.1" id="Calque_1" xmlns="http://www.w3.org/2000/svg" xmlns:xlink="http://www.w3.org/1999/xlink" x="0px" y="0px"
	 viewBox="0 0 595.3 841.9" enable-background="new 0 0 595.3 841.9" xml:space="preserve">
<g>
	<g>
		<path fill="#1D1D1B" d="M49.7,348.2v-14.6h495.4v14.6H49.7L49.7,348.2z M545.1,473.8v-14.7H49.7v14.7H545.1L545.1,473.8z
			 M242.3,388.3c0-10.3,8.3-13.2,11.2-13.6v-13.6c-4.5,0-25.2,5.5-25.2,29.3v26.5c0,23.8,20.7,29.3,25.2,29.3v-13.6
			c-2.9-0.3-11.2-3.4-11.2-13.7V388.3L242.3,388.3z M273.4,419c0,10.3-8.3,13.3-11.2,13.7v13.6c4.5,0,25.2-5.5,25.2-29.3v-26.5
			c0-23.8-20.7-29.3-25.2-29.3v13.6c2.9,0.4,11.2,3.3,11.2,13.6V419L273.4,419z M157.6,446.3h14.6v-85.1h-14.6V446.3L157.6,446.3z
			 M179.7,446.3h38v-14.6h-38V446.3L179.7,446.3z M411.6,375.7h38v-14.6h-38V375.7L411.6,375.7z M411.6,446.3h38v-14.6h-38V446.3
			L411.6,446.3z M426.1,395h-21.8v-33.9h-14.6v85.1h14.6v-36.7h21.8V395L426.1,395z M469.3,446.3h14.6v-85.1h-14.6V446.3
			L469.3,446.3z M355.8,402.7c-2.9-1.5-8.9-3.3-14.7-5.1c0,0-7.6-2.5-10-3.5c-6.5-2.8-8-4.8-8-8.9c0-4.2,0-22.1,0-22.1
			s-15.4,2.3-15.8,25c0.2,8.7,5,14.2,9.3,16.5c2.8,1.5,8.9,3.2,14.7,5c0,0,7.6,2.5,10,3.5c6.5,2.8,8,4.8,8,9c0,4.1,0,22,0,22
			s15.4-2.3,15.8-25.1C364.9,410.5,360,405,355.8,402.7L355.8,402.7z M323.3,420.2h-15.9c0.5,8.5,3.3,26.1,28.2,26.1h6.2v-14.1h-6.2
			C323.9,432.2,324.1,425.7,323.3,420.2L323.3,420.2z M349,387.1h15.9c-0.5-8.5-3.3-26-28.2-26h-6.2v14h6.2
			C348.3,375.1,348.2,381.6,349,387.1L349,387.1z M93.4,388.3c0-10.3,8.3-13.2,11.2-13.6v-13.6c-4.5,0-25.2,5.5-25.2,29.3v26.5
			c0,23.8,20.6,29.3,25.2,29.3v-13.6c-2.9-0.3-11.2-3.4-11.2-13.7L93.4,388.3L93.4,388.3z M138.4,390.4c0-23.8-20.7-29.3-25.2-29.3
			v13.6c2.9,0.4,11.2,3.3,11.2,13.6v3h14V390.4L138.4,390.4z M138.4,416h-14v3c0,10.3-8.3,13.3-11.2,13.7v13.6
			c4.5,0,25.2-5.5,25.2-29.3V416L138.4,416z M491.2,361.1v14.6c5.9,0.4,16,1.4,16,13.6V418c0,12.2-10.1,13.2-16,13.7v14.6
			c3.9,0,30.1,1,30.1-28.3v-28.6C521.3,360.1,495,361.1,491.2,361.1L491.2,361.1z"/>
	</g>
</g>
</svg>
