<?xml version="1.0" encoding="utf-8"?>
<!-- Generator: Adobe Illustrator 18.0.0, SVG Export Plug-In . SVG Version: 6.00 Build 0)  -->
<!DOCTYPE svg PUBLIC "-//W3C//DTD SVG 1.1//EN" "http://www.w3.org/Graphics/SVG/1.1/DTD/svg11.dtd">
<svg version="1.1" id="Calque_1" xmlns="http://www.w3.org/2000/svg" xmlns:xlink="http://www.w3.org/1999/xlink" x="0px" y="0px"
	 viewBox="0 0 841.9 595.3" enable-background="new 0 0 841.9 595.3" xml:space="preserve">
<g>
	<path fill="#003552" d="M292.1,301.9l-3.1-6c0,0-5.6,3.5-14,3.5c-12.3,0-19-8.1-19-13.9c0-7.9,8.6-14.2,19-14.2
		c8.8,0,14,3.5,14,3.5l3.1-6c0,0-7.7-4-17.1-4c-23.5,0-27.5,14.5-27.5,20.5c0,6.9,4.9,20.5,27.5,20.5
		C284,305.9,292.1,301.9,292.1,301.9 M380.6,299h-13.2v-27.9h12c8.1,0,14.4,4,14.4,14C393.8,295.1,388.1,299,380.6,299 M381.2,265.4
		h-22.1v40.1h21.6c2.5,0,20.4-0.6,20.7-20.4v-0.1l0,0c0-0.1,0-0.4,0-0.9C401.5,278.3,398.7,265.4,381.2,265.4 M516,265.4h-8.1v40.1
		h38.3v-6.2H516V265.4z M420.3,287.6h18.3v-5.8h-18.3v-10.7h28.4v-5.7h-36.2v40.1h36.2v-6.2h-28.4V287.6z M571.7,299.1
		c-9.8,0-15.7-5.9-15.7-14.1c0-9.1,6.9-13.8,15.6-13.8c10.7,0,15.2,7.1,15.2,14C586.8,295.3,578.2,299.1,571.7,299.1 M571.2,264.9
		c-12.6,0-23.8,6.2-23.8,20.7c0,13.4,10.5,20.3,24.2,20.3c12.3,0,23.8-6.2,23.8-20.6C595.3,272.4,585.7,264.9,571.2,264.9
		 M469.4,265.4h-8.1v40.1h38.3v-6.2h-30.2V265.4z M324.5,271.2c10.7,0,15.2,7.1,15.2,14c0,10-8.6,13.9-15.1,13.9
		c-9.8,0-15.7-5.9-15.7-14.1C309,276,315.9,271.2,324.5,271.2 M324.5,305.9c12.3,0,23.8-6.2,23.8-20.6c0-12.9-9.6-20.3-24.1-20.3
		c-12.6,0-23.8,6.2-23.8,20.7C300.4,299.1,310.9,305.9,324.5,305.9"/>
</g>
</svg>
