<?xml version="1.0" encoding="utf-8"?>
<!-- Generator: Adobe Illustrator 17.1.0, SVG Export Plug-In . SVG Version: 6.00 Build 0)  -->
<!DOCTYPE svg PUBLIC "-//W3C//DTD SVG 1.1//EN" "http://www.w3.org/Graphics/SVG/1.1/DTD/svg11.dtd">
<svg version="1.1" id="Calque_1" xmlns="http://www.w3.org/2000/svg" xmlns:xlink="http://www.w3.org/1999/xlink" x="0px" y="0px"
	 viewBox="0 0 595.3 841.9" enable-background="new 0 0 595.3 841.9" xml:space="preserve">
<g>
	<path fill="#1D1D1B" d="M115.4,427l-4.4-8.5c0,0-7.9,5-19.8,5c-17.4,0-26.9-11.4-26.9-19.7c0-11.2,12.1-20.1,26.9-20.1
		c12.5,0,19.8,5,19.8,5l4.4-8.5c0,0-10.9-5.6-24.2-5.6c-33.3,0-38.9,20.5-38.9,29c0,9.7,7,29,38.9,29C104,432.7,115.4,427,115.4,427
		 M240.6,422.9h-18.7v-39.4h17c11.4,0,20.3,5.7,20.3,19.8C259.3,417.4,251.2,422.9,240.6,422.9 M241.5,375.3h-31.3V432h30.5
		c3.5,0,28.8-0.9,29.3-28.9V403l0,0c0-0.1,0-0.6,0-1.3C270.1,393.6,266.2,375.3,241.5,375.3 M432.1,375.3h-11.5V432h54.2v-8.8h-42.7
		V375.3z M296.7,406.8h25.9v-8.2h-25.9v-15.2h40.2v-8.1h-51.2V432h51.2v-8.8h-40.2V406.8z M510.9,423c-13.9,0-22.2-8.4-22.2-19.9
		c0-12.8,9.8-19.5,22-19.5c15.1,0,21.5,10.1,21.5,19.8C532.2,417.6,520.1,423,510.9,423 M510.2,374.7c-17.8,0-33.7,8.7-33.7,29.3
		c0,19,14.9,28.7,34.2,28.7c17.4,0,33.6-8.8,33.6-29.2C544.3,385.2,530.6,374.7,510.2,374.7 M366.2,375.3h-11.5V432h54.2v-8.8h-42.7
		V375.3z M161.3,383.6c15.1,0,21.5,10.1,21.5,19.8c0,14.2-12.2,19.6-21.3,19.6c-13.9,0-22.2-8.4-22.2-19.9
		C139.3,390.3,149.1,383.6,161.3,383.6 M161.3,432.7c17.4,0,33.6-8.8,33.6-29.2c0-18.2-13.6-28.7-34.1-28.7
		c-17.8,0-33.7,8.7-33.7,29.3C127.1,423,142,432.7,161.3,432.7"/>
</g>
</svg>
