<?xml version="1.0" encoding="utf-8"?>
<!-- Generator: Adobe Illustrator 17.1.0, SVG Export Plug-In . SVG Version: 6.00 Build 0)  -->
<!DOCTYPE svg PUBLIC "-//W3C//DTD SVG 1.1//EN" "http://www.w3.org/Graphics/SVG/1.1/DTD/svg11.dtd">
<svg version="1.1" id="Calque_1" xmlns="http://www.w3.org/2000/svg" xmlns:xlink="http://www.w3.org/1999/xlink" x="0px" y="0px"
	 viewBox="0 0 595.3 841.9" enable-background="new 0 0 595.3 841.9" xml:space="preserve">
<g>
	<path fill="#1D1D1B" d="M102.6-705.9l-3.8-2.7l-0.6-0.4l-0.4,0.6c-5.5,7.5-14.5,11.9-24.6,11.9c-15.9,0-28.9-11.3-28.9-25.1
		c0-13.9,13-25.1,28.9-25.1c9.5,0,18.2,4,23.8,10.9l0.4,0.5l0.5-0.3l4.1-2.6l0.7-0.4l-0.5-0.6c-6.9-8.7-17.4-13.6-28.9-13.6
		c-19.2,0-34.8,14.1-34.8,31.3c0,17.3,15.6,31.3,34.8,31.3c11.9,0,22.9-5.4,29.4-14.5l0.4-0.6L102.6-705.9z"/>
	<path fill="#1D1D1B" d="M152.6-696.9c-15.9,0-28.9-11.3-28.9-25.1c0-13.8,13-25.1,28.9-25.1s28.9,11.3,28.9,25.1
		C181.5-708.1,168.6-696.9,152.6-696.9 M152.6-753.6c-19.4,0-35.2,14.2-35.2,31.7c0,17.5,15.8,31.7,35.2,31.7s35.2-14.2,35.2-31.7
		S172-753.6,152.6-753.6"/>
	<path fill="#1D1D1B" d="M295.5-744.3c-5-5-12.6-7.9-20.5-7.9c-9.6,0-18.6,4.4-23.5,11.2c-4.5-6.8-13.5-11.2-23.2-11.2
		c-7.9,0-15.2,2.9-20.3,7.8v-6.4h-6v19.7v38.8v0.7h5.9V-731c0-7.2,7.8-15,20.3-15c12.6,0,20.3,7.8,20.3,15v39.5h5.9V-731
		c0-7.2,7.8-15,20.4-15c12.6,0,20.3,7.8,20.3,15v39.5h5.9V-731C301.2-736,299.2-740.6,295.5-744.3"/>
	<path fill="#1D1D1B" d="M392.7-752.2c-9.6,0-18.6,4.4-23.5,11.2c-4.5-6.8-13.5-11.2-23.2-11.2c-7.9,0-15.1,2.9-20.3,7.8v-6.3h-5.9
		v59.3h5.9V-731c0-7.2,7.8-15,20.3-15c12.6,0,20.3,7.8,20.3,15v39.5h5.9V-731c0-7.2,7.8-15,20.4-15s20.3,7.8,20.3,15v39.5h5.9V-731
		C419-742.7,407.2-752.2,392.7-752.2"/>
	<path fill="#1D1D1B" d="M490.4-724.9v14.7c-3.8,8.4-14.6,13.4-29.1,13.4c-12.4,0-19.2-5.6-19.2-10.9c0-8.1,6.7-10.3,18.4-11.4
		c1.7-0.2,3.5-0.3,5.4-0.5c3.7-0.3,7.5-0.6,11.2-1.2C482.8-721.6,487-722.9,490.4-724.9 M498.6-693.5c-1.3-3-1.9-7.2-1.9-10.1v-29.9
		c0-12.7-10.8-20.2-28.8-20.2c-10.3,0-24,4.4-28.3,16.8l-0.3,0.9h6.7l0.2-0.4c4-8,14.2-10.8,21.7-10.8c14.5,0,22.2,4.9,22.4,14.2
		c-2.4,2.7-6.4,4.4-12.6,5.5c-3.7,0.6-7.8,1-11.8,1.3c-2.1,0.2-4.3,0.4-6.4,0.6c-11.5,1.2-23.8,3.7-23.8,17.9
		c0,11.5,12.8,17.4,25.5,17.4c5.8,0,19.8-0.9,29.3-9.1c0.2,2.2,0.7,4.4,1.5,6.6l0.2,0.5h0.5l5.3-0.3h1L498.6-693.5z"/>
	<path fill="#1D1D1B" d="M553.8-691.7c0.9-1.6,1.7-3.3,1.7-5.4c0-5.2,0-26.4,0-26.4s0-6.1-6.1-6.1h-24.1c0,0-6.1,0-6.1,6.1v26.4
		c0,0,0,6.1,6.1,6.1h5.3l-6.4,13.8c0,0-1.9,4.2,2.6,4.2c0,0,7.4,0,8.2,0c0.8,0,4,0.1,7.3-3.6C544.1-678.6,549.9-685,553.8-691.7z"/>
</g>
<g>
	<path fill="#1D1D1B" d="M113.5,414.3l-3.5-2.6l-0.5-0.4l-0.4,0.5C103.9,418.9,95.5,423,86,423c-15,0-27.2-10.6-27.2-23.6
		c0-13,12.2-23.6,27.2-23.6c9,0,17.1,3.7,22.3,10.2l0.4,0.5l0.5-0.3l3.8-2.4l0.6-0.4l-0.5-0.6c-6.5-8.1-16.4-12.8-27.2-12.8
		c-18,0-32.7,13.2-32.7,29.4s14.7,29.4,32.7,29.4c11.1,0,21.5-5.1,27.6-13.6l0.4-0.5L113.5,414.3z"/>
	<path fill="#1D1D1B" d="M160.6,422.8c-15,0-27.1-10.6-27.1-23.6s12.2-23.6,27.1-23.6c15,0,27.1,10.6,27.1,23.6
		C187.7,412.2,175.5,422.8,160.6,422.8 M160.6,369.5c-18.2,0-33.1,13.3-33.1,29.7c0,16.4,14.8,29.7,33.1,29.7
		c18.2,0,33.1-13.3,33.1-29.7C193.6,382.9,178.8,369.5,160.6,369.5"/>
	<path fill="#1D1D1B" d="M294.7,378.3c-4.7-4.7-11.9-7.4-19.3-7.4c-9,0-17.5,4.1-22,10.5c-4.2-6.4-12.7-10.5-21.8-10.5
		c-7.4,0-14.2,2.7-19.1,7.4v-6h-5.6v18.5v36.5v0.7h5.6v-37.1c0-6.8,7.3-14.1,19.1-14.1c11.8,0,19.1,7.3,19.1,14.1V428h5.6v-37.1
		c0-6.8,7.3-14.1,19.1-14.1c11.8,0,19.1,7.3,19.1,14.1V428h5.6v-37.1C300.1,386.1,298.2,381.8,294.7,378.3"/>
	<path fill="#1D1D1B" d="M386,370.8c-9,0-17.5,4.1-22,10.5c-4.2-6.4-12.7-10.5-21.8-10.5c-7.4,0-14.2,2.7-19.1,7.4v-6h-5.6v55.6h5.6
		v-37.1c0-6.8,7.3-14.1,19.1-14.1c11.8,0,19.1,7.3,19.1,14.1v37.1h5.6v-37.1c0-6.8,7.3-14.1,19.1-14.1c11.8,0,19.1,7.3,19.1,14.1
		v37.1h5.6v-37.1C410.6,379.8,399.6,370.8,386,370.8"/>
	<path fill="#1D1D1B" d="M477.7,396.5v13.8c-3.5,7.9-13.7,12.6-27.4,12.6c-11.7,0-18-5.3-18-10.2c0-7.6,6.3-9.7,17.3-10.7
		c1.6-0.2,3.3-0.3,5-0.4c3.5-0.3,7.1-0.6,10.5-1.1C470.5,399.6,474.5,398.4,477.7,396.5 M485.4,426c-1.2-2.8-1.8-6.7-1.8-9.4v-28.1
		c0-11.9-10.1-19-27-19c-9.7,0-22.5,4.1-26.5,15.8l-0.3,0.9h6.3l0.2-0.4c3.8-7.5,13.3-10.1,20.4-10.1c13.6,0,20.9,4.6,21,13.3
		c-2.3,2.5-6.1,4.2-11.8,5.2c-3.5,0.6-7.3,0.9-11.1,1.2c-2,0.2-4,0.3-6,0.5c-10.8,1.2-22.3,3.5-22.3,16.8c0,10.8,12,16.4,23.9,16.4
		c5.4,0,18.6-0.9,27.5-8.6c0.2,2.1,0.7,4.1,1.4,6.2l0.2,0.5h0.5l5-0.2h0.9L485.4,426z"/>
	<path fill="#1D1D1B" d="M537.2,427.7c0.9-1.5,1.6-3.1,1.6-5.1c0-4.9,0-24.8,0-24.8s0-5.7-5.7-5.7h-22.6c0,0-5.7,0-5.7,5.7v24.8
		c0,0,0,5.7,5.7,5.7h5l-6,13c0,0-1.8,3.9,2.5,3.9c0,0,7,0,7.7,0c0.7,0,3.7,0.1,6.9-3.4C528.1,439.9,533.6,434,537.2,427.7z"/>
</g>
</svg>
