<?xml version="1.0" encoding="utf-8"?>
<!-- Generator: Adobe Illustrator 17.1.0, SVG Export Plug-In . SVG Version: 6.00 Build 0)  -->
<!DOCTYPE svg PUBLIC "-//W3C//DTD SVG 1.1//EN" "http://www.w3.org/Graphics/SVG/1.1/DTD/svg11.dtd">
<svg version="1.1" id="Calque_1" xmlns="http://www.w3.org/2000/svg" xmlns:xlink="http://www.w3.org/1999/xlink" x="0px" y="0px"
	 viewBox="0 0 595.3 841.9" enable-background="new 0 0 595.3 841.9" xml:space="preserve">
<g>
	<path fill="#1D1D1B" d="M102.6-705.9l-3.8-2.7l-0.6-0.4l-0.4,0.6c-5.5,7.5-14.5,11.9-24.6,11.9c-15.9,0-28.9-11.3-28.9-25.1
		c0-13.9,13-25.1,28.9-25.1c9.5,0,18.2,4,23.8,10.9l0.4,0.5l0.5-0.3l4.1-2.6l0.7-0.4l-0.5-0.6c-6.9-8.7-17.4-13.6-28.9-13.6
		c-19.2,0-34.8,14.1-34.8,31.3c0,17.3,15.6,31.3,34.8,31.3c11.9,0,22.9-5.4,29.4-14.5l0.4-0.6L102.6-705.9z"/>
	<path fill="#1D1D1B" d="M152.6-696.9c-15.9,0-28.9-11.3-28.9-25.1c0-13.8,13-25.1,28.9-25.1s28.9,11.3,28.9,25.1
		C181.5-708.1,168.6-696.9,152.6-696.9 M152.6-753.6c-19.4,0-35.2,14.2-35.2,31.7c0,17.5,15.8,31.7,35.2,31.7s35.2-14.2,35.2-31.7
		C187.8-739.4,172-753.6,152.6-753.6"/>
	<path fill="#1D1D1B" d="M295.5-744.3c-5-5-12.6-7.9-20.5-7.9c-9.6,0-18.6,4.4-23.5,11.2c-4.5-6.8-13.5-11.2-23.2-11.2
		c-7.9,0-15.2,2.9-20.3,7.8v-6.4h-6v19.7v38.8v0.7h5.9V-731c0-7.2,7.8-15,20.3-15c12.6,0,20.3,7.8,20.3,15v39.5h5.9V-731
		c0-7.2,7.8-15,20.4-15c12.6,0,20.3,7.8,20.3,15v39.5h5.9V-731C301.2-736,299.2-740.6,295.5-744.3"/>
	<path fill="#1D1D1B" d="M392.7-752.2c-9.6,0-18.6,4.4-23.5,11.2c-4.5-6.8-13.5-11.2-23.2-11.2c-7.9,0-15.1,2.9-20.3,7.8v-6.3h-5.9
		v59.3h5.9V-731c0-7.2,7.8-15,20.3-15c12.6,0,20.3,7.8,20.3,15v39.5h5.9V-731c0-7.2,7.8-15,20.4-15s20.3,7.8,20.3,15v39.5h5.9V-731
		C419-742.7,407.2-752.2,392.7-752.2"/>
	<path fill="#1D1D1B" d="M490.4-724.9v14.7c-3.8,8.4-14.6,13.4-29.1,13.4c-12.4,0-19.2-5.6-19.2-10.9c0-8.1,6.7-10.3,18.4-11.4
		c1.7-0.2,3.5-0.3,5.4-0.5c3.7-0.3,7.5-0.6,11.2-1.2C482.8-721.6,487-722.9,490.4-724.9 M498.6-693.5c-1.3-3-1.9-7.2-1.9-10.1v-29.9
		c0-12.7-10.8-20.2-28.8-20.2c-10.3,0-24,4.4-28.3,16.8l-0.3,0.9h6.7l0.2-0.4c4-8,14.2-10.8,21.7-10.8c14.5,0,22.2,4.9,22.4,14.2
		c-2.4,2.7-6.4,4.4-12.6,5.5c-3.7,0.6-7.8,1-11.8,1.3c-2.1,0.2-4.3,0.4-6.4,0.6c-11.5,1.2-23.8,3.7-23.8,17.9
		c0,11.5,12.8,17.4,25.5,17.4c5.8,0,19.8-0.9,29.3-9.1c0.2,2.2,0.7,4.4,1.5,6.6l0.2,0.5h0.5l5.3-0.3h1L498.6-693.5z"/>
	<path fill="#1D1D1B" d="M553.8-691.7c0.9-1.6,1.7-3.3,1.7-5.4c0-5.2,0-26.4,0-26.4s0-6.1-6.1-6.1h-24.1c0,0-6.1,0-6.1,6.1v26.4
		c0,0,0,6.1,6.1,6.1h5.3l-6.4,13.8c0,0-1.9,4.2,2.6,4.2c0,0,7.4,0,8.2,0c0.8,0,4,0.1,7.3-3.6C544.1-678.6,549.9-685,553.8-691.7z"/>
</g>
<g>
	<path fill="#1D1D1B" d="M78.2,393.4c0,0.7-0.5,1.2-1.2,1.2s-1.2-0.5-1.2-1.2s0.5-1.2,1.2-1.2C77.7,392.2,78.2,392.8,78.2,393.4"/>
	<path fill="#1D1D1B" d="M75.2,389.5c0,0.7-0.5,1.2-1.2,1.2s-1.2-0.5-1.2-1.2c0-0.7,0.5-1.2,1.2-1.2S75.2,388.8,75.2,389.5"/>
	<path fill="#1D1D1B" d="M71.3,386.5c0,0.7-0.5,1.2-1.2,1.2s-1.2-0.5-1.2-1.2s0.5-1.2,1.2-1.2S71.3,385.8,71.3,386.5"/>
	<path fill="#1D1D1B" d="M66.7,384.6c0,0.7-0.5,1.2-1.2,1.2s-1.2-0.5-1.2-1.2s0.5-1.2,1.2-1.2S66.7,383.9,66.7,384.6"/>
	<path fill="#1D1D1B" d="M61.8,384c0,0.7-0.5,1.2-1.2,1.2s-1.2-0.5-1.2-1.2c0-0.7,0.5-1.2,1.2-1.2S61.8,383.3,61.8,384"/>
	<path fill="#1D1D1B" d="M56.9,384.6c0,0.7-0.5,1.2-1.2,1.2s-1.2-0.5-1.2-1.2s0.5-1.2,1.2-1.2S56.9,383.9,56.9,384.6"/>
	<path fill="#1D1D1B" d="M52.4,386.5c0,0.7-0.5,1.2-1.2,1.2c-0.7,0-1.2-0.5-1.2-1.2s0.5-1.2,1.2-1.2
		C51.8,385.3,52.4,385.8,52.4,386.5"/>
	<path fill="#1D1D1B" d="M48.5,389.5c0,0.7-0.5,1.2-1.2,1.2c-0.7,0-1.2-0.5-1.2-1.2c0-0.7,0.5-1.2,1.2-1.2
		C47.9,388.3,48.5,388.8,48.5,389.5"/>
	<path fill="#1D1D1B" d="M45.5,393.4c0,0.7-0.5,1.2-1.2,1.2s-1.2-0.5-1.2-1.2s0.5-1.2,1.2-1.2C44.9,392.2,45.5,392.8,45.5,393.4"/>
	<path fill="#1D1D1B" d="M43.6,398c0,0.7-0.5,1.2-1.2,1.2s-1.2-0.5-1.2-1.2s0.5-1.2,1.2-1.2C43,396.8,43.6,397.3,43.6,398"/>
	<path fill="#1D1D1B" d="M42.9,402.9c0,0.7-0.5,1.2-1.2,1.2s-1.2-0.5-1.2-1.2s0.5-1.2,1.2-1.2C42.4,401.7,42.9,402.2,42.9,402.9"/>
	<path fill="#1D1D1B" d="M43.6,407.8c0,0.7-0.5,1.2-1.2,1.2s-1.2-0.5-1.2-1.2c0-0.7,0.5-1.2,1.2-1.2C43,406.6,43.6,407.1,43.6,407.8
		"/>
	<path fill="#1D1D1B" d="M45.5,412.4c0,0.7-0.5,1.2-1.2,1.2s-1.2-0.5-1.2-1.2c0-0.7,0.5-1.2,1.2-1.2
		C44.9,411.2,45.5,411.7,45.5,412.4"/>
	<path fill="#1D1D1B" d="M48.5,416.3c0,0.7-0.5,1.2-1.2,1.2c-0.7,0-1.2-0.5-1.2-1.2s0.5-1.2,1.2-1.2
		C47.9,415.1,48.5,415.6,48.5,416.3"/>
	<path fill="#1D1D1B" d="M52.4,419.3c0,0.7-0.5,1.2-1.2,1.2c-0.7,0-1.2-0.5-1.2-1.2s0.5-1.2,1.2-1.2
		C51.8,418.1,52.4,418.6,52.4,419.3"/>
	<path fill="#1D1D1B" d="M57,421.2c0,0.7-0.5,1.2-1.2,1.2s-1.2-0.5-1.2-1.2c0-0.7,0.5-1.2,1.2-1.2C56.4,420,57,420.5,57,421.2"/>
	<path fill="#1D1D1B" d="M61.8,421.8c0,0.7-0.5,1.2-1.2,1.2s-1.2-0.5-1.2-1.2s0.5-1.2,1.2-1.2C61.3,420.6,61.8,421.1,61.8,421.8"/>
	<path fill="#1D1D1B" d="M66.7,421.2c0,0.7-0.5,1.2-1.2,1.2s-1.2-0.5-1.2-1.2c0-0.7,0.5-1.2,1.2-1.2S66.7,420.5,66.7,421.2"/>
	<path fill="#1D1D1B" d="M71.3,419.3c0,0.7-0.5,1.2-1.2,1.2s-1.2-0.5-1.2-1.2s0.5-1.2,1.2-1.2C70.8,418.1,71.3,418.6,71.3,419.3"/>
	<path fill="#1D1D1B" d="M75.2,416.3c0,0.7-0.5,1.2-1.2,1.2s-1.2-0.5-1.2-1.2s0.5-1.2,1.2-1.2C74.7,415.1,75.2,415.6,75.2,416.3"/>
	<path fill="#1D1D1B" d="M78.2,412.4c0,0.7-0.5,1.2-1.2,1.2s-1.2-0.5-1.2-1.2c0-0.7,0.5-1.2,1.2-1.2
		C77.7,411.2,78.2,411.7,78.2,412.4"/>
	<path fill="#1D1D1B" d="M91.1,412.4c0,0.7-0.5,1.2-1.2,1.2s-1.2-0.5-1.2-1.2c0-0.7,0.5-1.2,1.2-1.2S91.1,411.7,91.1,412.4"/>
	<path fill="#1D1D1B" d="M93.1,416.3c0,0.7-0.5,1.2-1.2,1.2c-0.7,0-1.2-0.5-1.2-1.2s0.5-1.2,1.2-1.2
		C92.6,415.1,93.1,415.6,93.1,416.3"/>
	<path fill="#1D1D1B" d="M96.6,419.3c0,0.7-0.5,1.2-1.2,1.2s-1.2-0.5-1.2-1.2s0.5-1.2,1.2-1.2C96,418.1,96.6,418.6,96.6,419.3"/>
	<path fill="#1D1D1B" d="M101.1,421.2c0,0.7-0.5,1.2-1.2,1.2s-1.2-0.5-1.2-1.2c0-0.7,0.5-1.2,1.2-1.2S101.1,420.5,101.1,421.2"/>
	<path fill="#1D1D1B" d="M105.9,421.8c0,0.7-0.5,1.2-1.2,1.2s-1.2-0.5-1.2-1.2s0.5-1.2,1.2-1.2C105.4,420.6,105.9,421.1,105.9,421.8
		"/>
	<path fill="#1D1D1B" d="M110.6,421.2c0,0.7-0.5,1.2-1.2,1.2s-1.2-0.5-1.2-1.2c0-0.7,0.5-1.2,1.2-1.2S110.6,420.5,110.6,421.2"/>
	<path fill="#1D1D1B" d="M115.2,419.3c0,0.7-0.5,1.2-1.2,1.2c-0.7,0-1.2-0.5-1.2-1.2s0.5-1.2,1.2-1.2
		C114.7,418.1,115.2,418.6,115.2,419.3"/>
	<path fill="#1D1D1B" d="M118.6,416.3c0,0.7-0.5,1.2-1.2,1.2c-0.7,0-1.2-0.5-1.2-1.2s0.5-1.2,1.2-1.2
		C118.1,415.1,118.6,415.6,118.6,416.3"/>
	<path fill="#1D1D1B" d="M120.7,412.4c0,0.7-0.5,1.2-1.2,1.2s-1.2-0.5-1.2-1.2c0-0.7,0.5-1.2,1.2-1.2
		C120.1,411.2,120.7,411.7,120.7,412.4"/>
	<path fill="#1D1D1B" d="M121.3,407.6c0,0.7-0.5,1.2-1.2,1.2s-1.2-0.5-1.2-1.2c0-0.7,0.5-1.2,1.2-1.2S121.3,407,121.3,407.6"/>
	<path fill="#1D1D1B" d="M121.3,402.9c0,0.7-0.5,1.2-1.2,1.2s-1.2-0.5-1.2-1.2s0.5-1.2,1.2-1.2C120.8,401.7,121.3,402.2,121.3,402.9
		"/>
	<path fill="#1D1D1B" d="M121.3,398.2c0,0.7-0.5,1.2-1.2,1.2s-1.2-0.5-1.2-1.2s0.5-1.2,1.2-1.2S121.3,397.5,121.3,398.2"/>
	<path fill="#1D1D1B" d="M121.3,393.4c0,0.7-0.5,1.2-1.2,1.2s-1.2-0.5-1.2-1.2s0.5-1.2,1.2-1.2C120.8,392.2,121.3,392.8,121.3,393.4
		"/>
	<path fill="#1D1D1B" d="M121.3,388.7c0,0.7-0.5,1.2-1.2,1.2s-1.2-0.5-1.2-1.2c0-0.7,0.5-1.2,1.2-1.2S121.3,388,121.3,388.7"/>
	<path fill="#1D1D1B" d="M121.3,384c0,0.7-0.5,1.2-1.2,1.2s-1.2-0.5-1.2-1.2c0-0.7,0.5-1.2,1.2-1.2S121.3,383.3,121.3,384"/>
	<path fill="#1D1D1B" d="M144.1,384.6c0,0.7-0.5,1.2-1.2,1.2c-0.7,0-1.2-0.5-1.2-1.2s0.5-1.2,1.2-1.2
		C143.6,383.4,144.1,383.9,144.1,384.6"/>
	<path fill="#1D1D1B" d="M139.7,386.4c0,0.7-0.5,1.2-1.2,1.2c-0.7,0-1.2-0.5-1.2-1.2s0.5-1.2,1.2-1.2
		C139.2,385.2,139.7,385.8,139.7,386.4"/>
	<path fill="#1D1D1B" d="M135.9,389.1c0,0.7-0.5,1.2-1.2,1.2c-0.7,0-1.2-0.5-1.2-1.2s0.5-1.2,1.2-1.2
		C135.4,387.9,135.9,388.4,135.9,389.1"/>
	<path fill="#1D1D1B" d="M133.3,392.9c0,0.7-0.5,1.2-1.2,1.2s-1.2-0.5-1.2-1.2c0-0.7,0.5-1.2,1.2-1.2
		C132.8,391.7,133.3,392.2,133.3,392.9"/>
	<path fill="#1D1D1B" d="M134,397.2c0,0.7-0.5,1.2-1.2,1.2c-0.7,0-1.2-0.5-1.2-1.2s0.5-1.2,1.2-1.2C133.4,396,134,396.6,134,397.2"
		/>
	<path fill="#1D1D1B" d="M137.1,400.7c0,0.7-0.5,1.2-1.2,1.2c-0.7,0-1.2-0.5-1.2-1.2s0.5-1.2,1.2-1.2
		C136.6,399.5,137.1,400,137.1,400.7"/>
	<path fill="#1D1D1B" d="M141.9,402.5c0,0.7-0.5,1.2-1.2,1.2c-0.7,0-1.2-0.5-1.2-1.2s0.5-1.2,1.2-1.2
		C141.3,401.3,141.9,401.8,141.9,402.5"/>
	<path fill="#1D1D1B" d="M147,402.8c0,0.7-0.5,1.2-1.2,1.2c-0.7,0-1.2-0.5-1.2-1.2s0.5-1.2,1.2-1.2C146.5,401.6,147,402.1,147,402.8
		"/>
	<path fill="#1D1D1B" d="M152,403.2c0,0.7-0.5,1.2-1.2,1.2c-0.7,0-1.2-0.5-1.2-1.2c0-0.7,0.5-1.2,1.2-1.2
		C151.5,402,152,402.6,152,403.2"/>
	<path fill="#1D1D1B" d="M157,403.7c0,0.7-0.5,1.2-1.2,1.2s-1.2-0.5-1.2-1.2s0.5-1.2,1.2-1.2S157,403.1,157,403.7"/>
	<path fill="#1D1D1B" d="M161.5,405.4c0,0.7-0.5,1.2-1.2,1.2c-0.7,0-1.2-0.5-1.2-1.2s0.5-1.2,1.2-1.2
		C161,404.2,161.5,404.7,161.5,405.4"/>
	<path fill="#1D1D1B" d="M164.6,408.7c0,0.7-0.5,1.2-1.2,1.2c-0.7,0-1.2-0.5-1.2-1.2c0-0.7,0.5-1.2,1.2-1.2
		C164.1,407.5,164.6,408.1,164.6,408.7"/>
	<path fill="#1D1D1B" d="M177.6,407.6c0,0.7-0.5,1.2-1.2,1.2c-0.7,0-1.2-0.5-1.2-1.2c0-0.7,0.5-1.2,1.2-1.2
		C177.1,406.4,177.6,407,177.6,407.6"/>
	<path fill="#1D1D1B" d="M177.6,402.9c0,0.7-0.5,1.2-1.2,1.2c-0.7,0-1.2-0.5-1.2-1.2s0.5-1.2,1.2-1.2
		C177.1,401.7,177.6,402.2,177.6,402.9"/>
	<path fill="#1D1D1B" d="M177.6,398.2c0,0.7-0.5,1.2-1.2,1.2c-0.7,0-1.2-0.5-1.2-1.2s0.5-1.2,1.2-1.2
		C177.1,397,177.6,397.5,177.6,398.2"/>
	<path fill="#1D1D1B" d="M177.6,393.4c0,0.7-0.5,1.2-1.2,1.2c-0.7,0-1.2-0.5-1.2-1.2s0.5-1.2,1.2-1.2
		C177.1,392.2,177.6,392.8,177.6,393.4"/>
	<path fill="#1D1D1B" d="M177.6,388.7c0,0.7-0.5,1.2-1.2,1.2c-0.7,0-1.2-0.5-1.2-1.2c0-0.7,0.5-1.2,1.2-1.2
		C177.1,387.5,177.6,388,177.6,388.7"/>
	<path fill="#1D1D1B" d="M177.6,384c0,0.7-0.5,1.2-1.2,1.2c-0.7,0-1.2-0.5-1.2-1.2c0-0.7,0.5-1.2,1.2-1.2
		C177.1,382.8,177.6,383.3,177.6,384"/>
	<path fill="#1D1D1B" d="M177.6,379.2c0,0.7-0.5,1.2-1.2,1.2c-0.7,0-1.2-0.5-1.2-1.2s0.5-1.2,1.2-1.2
		C177.1,378,177.6,378.6,177.6,379.2"/>
	<path fill="#1D1D1B" d="M177.6,374.5c0,0.7-0.5,1.2-1.2,1.2c-0.7,0-1.2-0.5-1.2-1.2s0.5-1.2,1.2-1.2
		C177.1,373.3,177.6,373.8,177.6,374.5"/>
	<path fill="#1D1D1B" d="M182.4,384c0,0.7-0.5,1.2-1.2,1.2c-0.7,0-1.2-0.5-1.2-1.2c0-0.7,0.5-1.2,1.2-1.2
		C181.8,382.8,182.4,383.3,182.4,384"/>
	<path fill="#1D1D1B" d="M187.1,384c0,0.7-0.5,1.2-1.2,1.2c-0.7,0-1.2-0.5-1.2-1.2c0-0.7,0.5-1.2,1.2-1.2
		C186.6,382.8,187.1,383.3,187.1,384"/>
	<path fill="#1D1D1B" d="M204.8,386.5c0,0.7-0.5,1.2-1.2,1.2s-1.2-0.5-1.2-1.2s0.5-1.2,1.2-1.2S204.8,385.8,204.8,386.5"/>
	<path fill="#1D1D1B" d="M209.4,384.6c0,0.7-0.5,1.2-1.2,1.2c-0.7,0-1.2-0.5-1.2-1.2s0.5-1.2,1.2-1.2
		C208.8,383.4,209.4,383.9,209.4,384.6"/>
	<path fill="#1D1D1B" d="M214.3,384c0,0.7-0.5,1.2-1.2,1.2c-0.7,0-1.2-0.5-1.2-1.2c0-0.7,0.5-1.2,1.2-1.2
		C213.7,382.8,214.3,383.3,214.3,384"/>
	<path fill="#1D1D1B" d="M219.2,384.6c0,0.7-0.5,1.2-1.2,1.2c-0.7,0-1.2-0.5-1.2-1.2s0.5-1.2,1.2-1.2
		C218.6,383.4,219.2,383.9,219.2,384.6"/>
	<path fill="#1D1D1B" d="M223.7,386.5c0,0.7-0.5,1.2-1.2,1.2c-0.7,0-1.2-0.5-1.2-1.2s0.5-1.2,1.2-1.2
		C223.2,385.3,223.7,385.8,223.7,386.5"/>
	<path fill="#1D1D1B" d="M227.6,389.5c0,0.7-0.5,1.2-1.2,1.2s-1.2-0.5-1.2-1.2c0-0.7,0.5-1.2,1.2-1.2S227.6,388.8,227.6,389.5"/>
	<path fill="#1D1D1B" d="M230.6,393.4c0,0.7-0.5,1.2-1.2,1.2c-0.7,0-1.2-0.5-1.2-1.2s0.5-1.2,1.2-1.2
		C230.1,392.2,230.6,392.8,230.6,393.4"/>
	<path fill="#1D1D1B" d="M232.5,398c0,0.7-0.5,1.2-1.2,1.2c-0.7,0-1.2-0.5-1.2-1.2s0.5-1.2,1.2-1.2C232,396.8,232.5,397.3,232.5,398
		"/>
	<path fill="#1D1D1B" d="M233.2,402.9c0,0.7-0.5,1.2-1.2,1.2c-0.7,0-1.2-0.5-1.2-1.2s0.5-1.2,1.2-1.2
		C232.7,401.7,233.2,402.2,233.2,402.9"/>
	<path fill="#1D1D1B" d="M243.3,402.9c0,0.7-0.5,1.2-1.2,1.2c-0.7,0-1.2-0.5-1.2-1.2s0.5-1.2,1.2-1.2
		C242.8,401.7,243.3,402.2,243.3,402.9"/>
	<path fill="#1D1D1B" d="M243.3,398.2c0,0.7-0.5,1.2-1.2,1.2c-0.7,0-1.2-0.5-1.2-1.2s0.5-1.2,1.2-1.2
		C242.8,397,243.3,397.5,243.3,398.2"/>
	<path fill="#1D1D1B" d="M244,393.4c0,0.7-0.5,1.2-1.2,1.2s-1.2-0.5-1.2-1.2s0.5-1.2,1.2-1.2C243.4,392.2,244,392.8,244,393.4"/>
	<path fill="#1D1D1B" d="M246,389.5c0,0.7-0.5,1.2-1.2,1.2c-0.7,0-1.2-0.5-1.2-1.2c0-0.7,0.5-1.2,1.2-1.2
		C245.5,388.3,246,388.8,246,389.5"/>
	<path fill="#1D1D1B" d="M249.4,386.5c0,0.7-0.5,1.2-1.2,1.2c-0.7,0-1.2-0.5-1.2-1.2s0.5-1.2,1.2-1.2
		C248.9,385.3,249.4,385.8,249.4,386.5"/>
	<path fill="#1D1D1B" d="M254,384.6c0,0.7-0.5,1.2-1.2,1.2s-1.2-0.5-1.2-1.2s0.5-1.2,1.2-1.2S254,383.9,254,384.6"/>
	<path fill="#1D1D1B" d="M258.7,384c0,0.7-0.5,1.2-1.2,1.2c-0.7,0-1.2-0.5-1.2-1.2c0-0.7,0.5-1.2,1.2-1.2
		C258.2,382.8,258.7,383.3,258.7,384"/>
	<path fill="#1D1D1B" d="M263.5,384.6c0,0.7-0.5,1.2-1.2,1.2s-1.2-0.5-1.2-1.2s0.5-1.2,1.2-1.2C262.9,383.4,263.5,383.9,263.5,384.6
		"/>
	<path fill="#1D1D1B" d="M268,386.5c0,0.7-0.5,1.2-1.2,1.2s-1.2-0.5-1.2-1.2s0.5-1.2,1.2-1.2S268,385.8,268,386.5"/>
	<path fill="#1D1D1B" d="M274.1,393.4c0,0.7-0.5,1.2-1.2,1.2c-0.7,0-1.2-0.5-1.2-1.2s0.5-1.2,1.2-1.2
		C273.6,392.2,274.1,392.8,274.1,393.4"/>
	<path fill="#1D1D1B" d="M276.8,389.5c0,0.7-0.5,1.2-1.2,1.2c-0.7,0-1.2-0.5-1.2-1.2c0-0.7,0.5-1.2,1.2-1.2
		C276.3,388.3,276.8,388.8,276.8,389.5"/>
	<path fill="#1D1D1B" d="M280.2,386.5c0,0.7-0.5,1.2-1.2,1.2s-1.2-0.5-1.2-1.2s0.5-1.2,1.2-1.2S280.2,385.8,280.2,386.5"/>
	<path fill="#1D1D1B" d="M284.8,384.6c0,0.7-0.5,1.2-1.2,1.2c-0.7,0-1.2-0.5-1.2-1.2s0.5-1.2,1.2-1.2
		C284.3,383.4,284.8,383.9,284.8,384.6"/>
	<path fill="#1D1D1B" d="M289.6,384c0,0.7-0.5,1.2-1.2,1.2c-0.7,0-1.2-0.5-1.2-1.2c0-0.7,0.5-1.2,1.2-1.2
		C289,382.8,289.6,383.3,289.6,384"/>
	<path fill="#1D1D1B" d="M294.3,384.6c0,0.7-0.5,1.2-1.2,1.2c-0.7,0-1.2-0.5-1.2-1.2s0.5-1.2,1.2-1.2
		C293.8,383.4,294.3,383.9,294.3,384.6"/>
	<path fill="#1D1D1B" d="M298.9,386.5c0,0.7-0.5,1.2-1.2,1.2s-1.2-0.5-1.2-1.2s0.5-1.2,1.2-1.2C298.3,385.3,298.9,385.8,298.9,386.5
		"/>
	<path fill="#1D1D1B" d="M302.3,389.5c0,0.7-0.5,1.2-1.2,1.2c-0.7,0-1.2-0.5-1.2-1.2c0-0.7,0.5-1.2,1.2-1.2
		C301.8,388.3,302.3,388.8,302.3,389.5"/>
	<path fill="#1D1D1B" d="M305,393.4c0,0.7-0.5,1.2-1.2,1.2c-0.7,0-1.2-0.5-1.2-1.2s0.5-1.2,1.2-1.2C304.4,392.2,305,392.8,305,393.4
		"/>
	<path fill="#1D1D1B" d="M307.6,389.5c0,0.7-0.5,1.2-1.2,1.2c-0.7,0-1.2-0.5-1.2-1.2c0-0.7,0.5-1.2,1.2-1.2
		C307.1,388.3,307.6,388.8,307.6,389.5"/>
	<path fill="#1D1D1B" d="M311.1,386.5c0,0.7-0.5,1.2-1.2,1.2s-1.2-0.5-1.2-1.2s0.5-1.2,1.2-1.2C310.5,385.3,311.1,385.8,311.1,386.5
		"/>
	<path fill="#1D1D1B" d="M315.6,384.6c0,0.7-0.5,1.2-1.2,1.2s-1.2-0.5-1.2-1.2s0.5-1.2,1.2-1.2S315.6,383.9,315.6,384.6"/>
	<path fill="#1D1D1B" d="M320.4,384c0,0.7-0.5,1.2-1.2,1.2c-0.7,0-1.2-0.5-1.2-1.2c0-0.7,0.5-1.2,1.2-1.2
		C319.8,382.8,320.4,383.3,320.4,384"/>
	<path fill="#1D1D1B" d="M325.1,384.6c0,0.7-0.5,1.2-1.2,1.2c-0.7,0-1.2-0.5-1.2-1.2s0.5-1.2,1.2-1.2
		C324.6,383.4,325.1,383.9,325.1,384.6"/>
	<path fill="#1D1D1B" d="M329.7,386.5c0,0.7-0.5,1.2-1.2,1.2c-0.7,0-1.2-0.5-1.2-1.2s0.5-1.2,1.2-1.2
		C329.1,385.3,329.7,385.8,329.7,386.5"/>
	<path fill="#1D1D1B" d="M333.1,389.5c0,0.7-0.5,1.2-1.2,1.2c-0.7,0-1.2-0.5-1.2-1.2c0-0.7,0.5-1.2,1.2-1.2
		C332.6,388.3,333.1,388.8,333.1,389.5"/>
	<path fill="#1D1D1B" d="M338.4,389.5c0,0.7-0.5,1.2-1.2,1.2s-1.2-0.5-1.2-1.2c0-0.7,0.5-1.2,1.2-1.2S338.4,388.8,338.4,389.5"/>
	<path fill="#1D1D1B" d="M341.9,386.5c0,0.7-0.5,1.2-1.2,1.2s-1.2-0.5-1.2-1.2s0.5-1.2,1.2-1.2S341.9,385.8,341.9,386.5"/>
	<path fill="#1D1D1B" d="M346.4,384.6c0,0.7-0.5,1.2-1.2,1.2s-1.2-0.5-1.2-1.2s0.5-1.2,1.2-1.2S346.4,383.9,346.4,384.6"/>
	<path fill="#1D1D1B" d="M351.2,384c0,0.7-0.5,1.2-1.2,1.2s-1.2-0.5-1.2-1.2c0-0.7,0.5-1.2,1.2-1.2
		C350.6,382.8,351.2,383.3,351.2,384"/>
	<path fill="#1D1D1B" d="M355.9,384.6c0,0.7-0.5,1.2-1.2,1.2c-0.7,0-1.2-0.5-1.2-1.2s0.5-1.2,1.2-1.2
		C355.4,383.4,355.9,383.9,355.9,384.6"/>
	<path fill="#1D1D1B" d="M360.5,386.5c0,0.7-0.5,1.2-1.2,1.2c-0.7,0-1.2-0.5-1.2-1.2s0.5-1.2,1.2-1.2
		C359.9,385.3,360.5,385.8,360.5,386.5"/>
	<path fill="#1D1D1B" d="M363.9,389.5c0,0.7-0.5,1.2-1.2,1.2s-1.2-0.5-1.2-1.2c0-0.7,0.5-1.2,1.2-1.2S363.9,388.8,363.9,389.5"/>
	<path fill="#1D1D1B" d="M365.9,393.4c0,0.7-0.5,1.2-1.2,1.2c-0.7,0-1.2-0.5-1.2-1.2s0.5-1.2,1.2-1.2
		C365.4,392.2,365.9,392.8,365.9,393.4"/>
	<path fill="#1D1D1B" d="M380.1,393.4c0,0.7-0.5,1.2-1.2,1.2s-1.2-0.5-1.2-1.2s0.5-1.2,1.2-1.2C379.6,392.2,380.1,392.8,380.1,393.4
		"/>
	<path fill="#1D1D1B" d="M378.2,398c0,0.7-0.5,1.2-1.2,1.2s-1.2-0.5-1.2-1.2s0.5-1.2,1.2-1.2S378.2,397.3,378.2,398"/>
	<path fill="#1D1D1B" d="M377.6,402.9c0,0.7-0.5,1.2-1.2,1.2s-1.2-0.5-1.2-1.2s0.5-1.2,1.2-1.2C377,401.7,377.6,402.2,377.6,402.9"
		/>
	<path fill="#1D1D1B" d="M378.2,407.8c0,0.7-0.5,1.2-1.2,1.2s-1.2-0.5-1.2-1.2c0-0.7,0.5-1.2,1.2-1.2
		C377.7,406.6,378.2,407.1,378.2,407.8"/>
	<path fill="#1D1D1B" d="M380.1,412.3c0,0.7-0.5,1.2-1.2,1.2s-1.2-0.5-1.2-1.2c0-0.7,0.5-1.2,1.2-1.2
		C379.6,411.1,380.1,411.7,380.1,412.3"/>
	<path fill="#1D1D1B" d="M383.1,416.3c0,0.7-0.5,1.2-1.2,1.2s-1.2-0.5-1.2-1.2s0.5-1.2,1.2-1.2C382.6,415.1,383.1,415.6,383.1,416.3
		"/>
	<path fill="#1D1D1B" d="M387,419.3c0,0.7-0.5,1.2-1.2,1.2c-0.7,0-1.2-0.5-1.2-1.2s0.5-1.2,1.2-1.2C386.5,418.1,387,418.6,387,419.3
		"/>
	<path fill="#1D1D1B" d="M391.6,421.2c0,0.7-0.5,1.2-1.2,1.2c-0.7,0-1.2-0.5-1.2-1.2c0-0.7,0.5-1.2,1.2-1.2
		C391.1,420,391.6,420.5,391.6,421.2"/>
	<path fill="#1D1D1B" d="M396.5,421.8c0,0.7-0.5,1.2-1.2,1.2s-1.2-0.5-1.2-1.2s0.5-1.2,1.2-1.2C396,420.6,396.5,421.1,396.5,421.8"
		/>
	<path fill="#1D1D1B" d="M401.4,421.2c0,0.7-0.5,1.2-1.2,1.2c-0.7,0-1.2-0.5-1.2-1.2c0-0.7,0.5-1.2,1.2-1.2
		C400.9,420,401.4,420.5,401.4,421.2"/>
	<path fill="#1D1D1B" d="M406,419.3c0,0.7-0.5,1.2-1.2,1.2c-0.7,0-1.2-0.5-1.2-1.2s0.5-1.2,1.2-1.2C405.4,418.1,406,418.6,406,419.3
		"/>
	<path fill="#1D1D1B" d="M409.9,416.4c0,0.7-0.5,1.2-1.2,1.2c-0.7,0-1.2-0.5-1.2-1.2s0.5-1.2,1.2-1.2
		C409.4,415.2,409.9,415.7,409.9,416.4"/>
	<path fill="#1D1D1B" d="M415.2,417.1c0,0.7-0.5,1.2-1.2,1.2c-0.7,0-1.2-0.5-1.2-1.2s0.5-1.2,1.2-1.2
		C414.7,415.9,415.2,416.4,415.2,417.1"/>
	<path fill="#1D1D1B" d="M415.2,421.8c0,0.7-0.5,1.2-1.2,1.2c-0.7,0-1.2-0.5-1.2-1.2s0.5-1.2,1.2-1.2
		C414.7,420.6,415.2,421.1,415.2,421.8"/>
	<path fill="#1D1D1B" d="M415.2,412.3c0,0.7-0.5,1.2-1.2,1.2c-0.7,0-1.2-0.5-1.2-1.2c0-0.7,0.5-1.2,1.2-1.2
		C414.7,411.1,415.2,411.7,415.2,412.3"/>
	<path fill="#1D1D1B" d="M415.4,407.6c0,0.7-0.5,1.2-1.2,1.2c-0.7,0-1.2-0.5-1.2-1.2c0-0.7,0.5-1.2,1.2-1.2
		C414.8,406.4,415.4,406.9,415.4,407.6"/>
	<path fill="#1D1D1B" d="M415.4,402.9c0,0.7-0.5,1.2-1.2,1.2c-0.7,0-1.2-0.5-1.2-1.2s0.5-1.2,1.2-1.2
		C414.9,401.7,415.4,402.2,415.4,402.9"/>
	<path fill="#1D1D1B" d="M414.8,398c0,0.7-0.5,1.2-1.2,1.2s-1.2-0.5-1.2-1.2s0.5-1.2,1.2-1.2C414.2,396.8,414.8,397.3,414.8,398"/>
	<path fill="#1D1D1B" d="M425.2,398c0,0.7-0.5,1.2-1.2,1.2c-0.7,0-1.2-0.5-1.2-1.2s0.5-1.2,1.2-1.2
		C424.6,396.8,425.2,397.3,425.2,398"/>
	<path fill="#1D1D1B" d="M424.5,402.9c0,0.7-0.5,1.2-1.2,1.2c-0.7,0-1.2-0.5-1.2-1.2s0.5-1.2,1.2-1.2
		C424,401.7,424.5,402.2,424.5,402.9"/>
	<path fill="#1D1D1B" d="M425.2,407.8c0,0.7-0.5,1.2-1.2,1.2c-0.7,0-1.2-0.5-1.2-1.2c0-0.7,0.5-1.2,1.2-1.2
		C424.6,406.6,425.2,407.1,425.2,407.8"/>
	<path fill="#1D1D1B" d="M427,412.3c0,0.7-0.5,1.2-1.2,1.2c-0.7,0-1.2-0.5-1.2-1.2c0-0.7,0.5-1.2,1.2-1.2
		C426.5,411.1,427,411.7,427,412.3"/>
	<path fill="#1D1D1B" d="M430,416.3c0,0.7-0.5,1.2-1.2,1.2c-0.7,0-1.2-0.5-1.2-1.2s0.5-1.2,1.2-1.2C429.5,415.1,430,415.6,430,416.3
		"/>
	<path fill="#1D1D1B" d="M434,419.3c0,0.7-0.5,1.2-1.2,1.2s-1.2-0.5-1.2-1.2s0.5-1.2,1.2-1.2C433.4,418.1,434,418.6,434,419.3"/>
	<path fill="#1D1D1B" d="M438.5,421.2c0,0.7-0.5,1.2-1.2,1.2s-1.2-0.5-1.2-1.2c0-0.7,0.5-1.2,1.2-1.2S438.5,420.5,438.5,421.2"/>
	<path fill="#1D1D1B" d="M443.4,421.8c0,0.7-0.5,1.2-1.2,1.2c-0.7,0-1.2-0.5-1.2-1.2s0.5-1.2,1.2-1.2
		C442.9,420.6,443.4,421.1,443.4,421.8"/>
	<path fill="#1D1D1B" d="M448.3,421.2c0,0.7-0.5,1.2-1.2,1.2s-1.2-0.5-1.2-1.2c0-0.7,0.5-1.2,1.2-1.2S448.3,420.5,448.3,421.2"/>
	<path fill="#1D1D1B" d="M452.9,419.3c0,0.7-0.5,1.2-1.2,1.2s-1.2-0.5-1.2-1.2s0.5-1.2,1.2-1.2C452.3,418.1,452.9,418.6,452.9,419.3
		"/>
	<path fill="#1D1D1B" d="M456.8,416.3c0,0.7-0.5,1.2-1.2,1.2s-1.2-0.5-1.2-1.2s0.5-1.2,1.2-1.2C456.3,415.1,456.8,415.6,456.8,416.3
		"/>
	<path fill="#1D1D1B" d="M459.8,412.3c0,0.7-0.5,1.2-1.2,1.2c-0.7,0-1.2-0.5-1.2-1.2c0-0.7,0.5-1.2,1.2-1.2
		C459.3,411.1,459.8,411.7,459.8,412.3"/>
	<path fill="#1D1D1B" d="M461.7,407.8c0,0.7-0.5,1.2-1.2,1.2c-0.7,0-1.2-0.5-1.2-1.2c0-0.7,0.5-1.2,1.2-1.2
		C461.2,406.6,461.7,407.1,461.7,407.8"/>
	<path fill="#1D1D1B" d="M462.3,402.9c0,0.7-0.5,1.2-1.2,1.2s-1.2-0.5-1.2-1.2s0.5-1.2,1.2-1.2C461.8,401.7,462.3,402.2,462.3,402.9
		"/>
	<path fill="#1D1D1B" d="M462.3,398.2c0,0.7-0.5,1.2-1.2,1.2s-1.2-0.5-1.2-1.2s0.5-1.2,1.2-1.2S462.3,397.5,462.3,398.2"/>
	<path fill="#1D1D1B" d="M472.1,398c0,0.7-0.5,1.2-1.2,1.2s-1.2-0.5-1.2-1.2s0.5-1.2,1.2-1.2C471.5,396.8,472.1,397.3,472.1,398"/>
	<path fill="#1D1D1B" d="M474,393.4c0,0.7-0.5,1.2-1.2,1.2s-1.2-0.5-1.2-1.2s0.5-1.2,1.2-1.2C473.4,392.2,474,392.8,474,393.4"/>
	<path fill="#1D1D1B" d="M477,389.5c0,0.7-0.5,1.2-1.2,1.2s-1.2-0.5-1.2-1.2c0-0.7,0.5-1.2,1.2-1.2S477,388.8,477,389.5"/>
	<path fill="#1D1D1B" d="M480.9,386.5c0,0.7-0.5,1.2-1.2,1.2c-0.7,0-1.2-0.5-1.2-1.2s0.5-1.2,1.2-1.2
		C480.4,385.3,480.9,385.8,480.9,386.5"/>
	<path fill="#1D1D1B" d="M485.5,384.6c0,0.7-0.5,1.2-1.2,1.2c-0.7,0-1.2-0.5-1.2-1.2s0.5-1.2,1.2-1.2
		C484.9,383.4,485.5,383.9,485.5,384.6"/>
	<path fill="#1D1D1B" d="M490.4,384c0,0.7-0.5,1.2-1.2,1.2s-1.2-0.5-1.2-1.2c0-0.7,0.5-1.2,1.2-1.2
		C489.8,382.8,490.4,383.3,490.4,384"/>
	<path fill="#1D1D1B" d="M495.3,384.6c0,0.7-0.5,1.2-1.2,1.2c-0.7,0-1.2-0.5-1.2-1.2s0.5-1.2,1.2-1.2
		C494.7,383.4,495.3,383.9,495.3,384.6"/>
	<path fill="#1D1D1B" d="M499.8,386.5c0,0.7-0.5,1.2-1.2,1.2c-0.7,0-1.2-0.5-1.2-1.2s0.5-1.2,1.2-1.2
		C499.3,385.3,499.8,385.8,499.8,386.5"/>
	<path fill="#1D1D1B" d="M503.7,389.5c0,0.7-0.5,1.2-1.2,1.2c-0.7,0-1.2-0.5-1.2-1.2c0-0.7,0.5-1.2,1.2-1.2
		C503.2,388.3,503.7,388.8,503.7,389.5"/>
	<path fill="#1D1D1B" d="M506.7,393.4c0,0.7-0.5,1.2-1.2,1.2s-1.2-0.5-1.2-1.2s0.5-1.2,1.2-1.2C506.2,392.2,506.7,392.8,506.7,393.4
		"/>
	<path fill="#1D1D1B" d="M508.6,398c0,0.7-0.5,1.2-1.2,1.2s-1.2-0.5-1.2-1.2s0.5-1.2,1.2-1.2S508.6,397.3,508.6,398"/>
	<path fill="#1D1D1B" d="M504.5,402.9c0,0.7-0.5,1.2-1.2,1.2c-0.7,0-1.2-0.5-1.2-1.2s0.5-1.2,1.2-1.2
		C504,401.7,504.5,402.2,504.5,402.9"/>
	<path fill="#1D1D1B" d="M499.8,402.9c0,0.7-0.5,1.2-1.2,1.2c-0.7,0-1.2-0.5-1.2-1.2s0.5-1.2,1.2-1.2
		C499.3,401.7,499.8,402.2,499.8,402.9"/>
	<path fill="#1D1D1B" d="M495.1,402.9c0,0.7-0.5,1.2-1.2,1.2s-1.2-0.5-1.2-1.2s0.5-1.2,1.2-1.2C494.6,401.7,495.1,402.2,495.1,402.9
		"/>
	<path fill="#1D1D1B" d="M490.4,402.9c0,0.7-0.5,1.2-1.2,1.2s-1.2-0.5-1.2-1.2s0.5-1.2,1.2-1.2C489.8,401.7,490.4,402.2,490.4,402.9
		"/>
	<path fill="#1D1D1B" d="M485.6,402.9c0,0.7-0.5,1.2-1.2,1.2c-0.7,0-1.2-0.5-1.2-1.2s0.5-1.2,1.2-1.2
		C485.1,401.7,485.6,402.2,485.6,402.9"/>
	<path fill="#1D1D1B" d="M480.9,402.9c0,0.7-0.5,1.2-1.2,1.2c-0.7,0-1.2-0.5-1.2-1.2s0.5-1.2,1.2-1.2
		C480.4,401.7,480.9,402.2,480.9,402.9"/>
	<path fill="#1D1D1B" d="M476.2,402.9c0,0.7-0.5,1.2-1.2,1.2c-0.7,0-1.2-0.5-1.2-1.2s0.5-1.2,1.2-1.2
		C475.6,401.7,476.2,402.2,476.2,402.9"/>
	<path fill="#1D1D1B" d="M471.4,402.9c0,0.7-0.5,1.2-1.2,1.2s-1.2-0.5-1.2-1.2s0.5-1.2,1.2-1.2C470.9,401.7,471.4,402.2,471.4,402.9
		"/>
	<path fill="#1D1D1B" d="M472.1,407.8c0,0.7-0.5,1.2-1.2,1.2s-1.2-0.5-1.2-1.2c0-0.7,0.5-1.2,1.2-1.2
		C471.5,406.6,472.1,407.1,472.1,407.8"/>
	<path fill="#1D1D1B" d="M474,412.3c0,0.7-0.5,1.2-1.2,1.2s-1.2-0.5-1.2-1.2c0-0.7,0.5-1.2,1.2-1.2C473.4,411.1,474,411.7,474,412.3
		"/>
	<path fill="#1D1D1B" d="M477,416.3c0,0.7-0.5,1.2-1.2,1.2s-1.2-0.5-1.2-1.2s0.5-1.2,1.2-1.2S477,415.6,477,416.3"/>
	<path fill="#1D1D1B" d="M480.9,419.3c0,0.7-0.5,1.2-1.2,1.2c-0.7,0-1.2-0.5-1.2-1.2s0.5-1.2,1.2-1.2
		C480.4,418.1,480.9,418.6,480.9,419.3"/>
	<path fill="#1D1D1B" d="M485.5,421.2c0,0.7-0.5,1.2-1.2,1.2c-0.7,0-1.2-0.5-1.2-1.2c0-0.7,0.5-1.2,1.2-1.2
		C484.9,420,485.5,420.5,485.5,421.2"/>
	<path fill="#1D1D1B" d="M490.4,421.8c0,0.7-0.5,1.2-1.2,1.2s-1.2-0.5-1.2-1.2s0.5-1.2,1.2-1.2C489.8,420.6,490.4,421.1,490.4,421.8
		"/>
	<path fill="#1D1D1B" d="M495.3,421.2c0,0.7-0.5,1.2-1.2,1.2c-0.7,0-1.2-0.5-1.2-1.2c0-0.7,0.5-1.2,1.2-1.2
		C494.7,420,495.3,420.5,495.3,421.2"/>
	<path fill="#1D1D1B" d="M499.8,419.3c0,0.7-0.5,1.2-1.2,1.2c-0.7,0-1.2-0.5-1.2-1.2s0.5-1.2,1.2-1.2
		C499.3,418.1,499.8,418.6,499.8,419.3"/>
	<path fill="#1D1D1B" d="M503.7,416.3c0,0.7-0.5,1.2-1.2,1.2c-0.7,0-1.2-0.5-1.2-1.2s0.5-1.2,1.2-1.2
		C503.2,415.1,503.7,415.6,503.7,416.3"/>
	<path fill="#1D1D1B" d="M506.7,412.3c0,0.7-0.5,1.2-1.2,1.2s-1.2-0.5-1.2-1.2c0-0.7,0.5-1.2,1.2-1.2
		C506.2,411.1,506.7,411.7,506.7,412.3"/>
	<path fill="#1D1D1B" d="M509.3,402.9c0,0.7-0.5,1.2-1.2,1.2c-0.7,0-1.2-0.5-1.2-1.2s0.5-1.2,1.2-1.2
		C508.7,401.7,509.3,402.2,509.3,402.9"/>
	<path fill="#1D1D1B" d="M462.2,393.4c0,0.7-0.5,1.2-1.2,1.2s-1.2-0.5-1.2-1.2s0.5-1.2,1.2-1.2C461.6,392.2,462.2,392.8,462.2,393.4
		"/>
	<path fill="#1D1D1B" d="M462.2,388.7c0,0.7-0.5,1.2-1.2,1.2s-1.2-0.5-1.2-1.2c0-0.7,0.5-1.2,1.2-1.2
		C461.6,387.5,462.2,388,462.2,388.7"/>
	<path fill="#1D1D1B" d="M462.2,384c0,0.7-0.5,1.2-1.2,1.2s-1.2-0.5-1.2-1.2c0-0.7,0.5-1.2,1.2-1.2
		C461.6,382.8,462.2,383.3,462.2,384"/>
	<path fill="#1D1D1B" d="M462.2,379.2c0,0.7-0.5,1.2-1.2,1.2s-1.2-0.5-1.2-1.2s0.5-1.2,1.2-1.2C461.6,378,462.2,378.6,462.2,379.2"
		/>
	<path fill="#1D1D1B" d="M462.2,374.5c0,0.7-0.5,1.2-1.2,1.2s-1.2-0.5-1.2-1.2s0.5-1.2,1.2-1.2C461.6,373.3,462.2,373.8,462.2,374.5
		"/>
	<path fill="#1D1D1B" d="M427,393.4c0,0.7-0.5,1.2-1.2,1.2c-0.7,0-1.2-0.5-1.2-1.2s0.5-1.2,1.2-1.2C426.5,392.2,427,392.8,427,393.4
		"/>
	<path fill="#1D1D1B" d="M430,389.5c0,0.7-0.5,1.2-1.2,1.2c-0.7,0-1.2-0.5-1.2-1.2c0-0.7,0.5-1.2,1.2-1.2
		C429.5,388.3,430,388.8,430,389.5"/>
	<path fill="#1D1D1B" d="M434,386.5c0,0.7-0.5,1.2-1.2,1.2s-1.2-0.5-1.2-1.2s0.5-1.2,1.2-1.2C433.4,385.3,434,385.8,434,386.5"/>
	<path fill="#1D1D1B" d="M438.5,384.6c0,0.7-0.5,1.2-1.2,1.2s-1.2-0.5-1.2-1.2s0.5-1.2,1.2-1.2S438.5,383.9,438.5,384.6"/>
	<path fill="#1D1D1B" d="M443.4,384c0,0.7-0.5,1.2-1.2,1.2c-0.7,0-1.2-0.5-1.2-1.2c0-0.7,0.5-1.2,1.2-1.2
		C442.9,382.8,443.4,383.3,443.4,384"/>
	<path fill="#1D1D1B" d="M448.3,384.6c0,0.7-0.5,1.2-1.2,1.2s-1.2-0.5-1.2-1.2s0.5-1.2,1.2-1.2S448.3,383.9,448.3,384.6"/>
	<path fill="#1D1D1B" d="M452.9,386.5c0,0.7-0.5,1.2-1.2,1.2s-1.2-0.5-1.2-1.2s0.5-1.2,1.2-1.2C452.3,385.3,452.9,385.8,452.9,386.5
		"/>
	<path fill="#1D1D1B" d="M456.9,389.4c0,0.7-0.5,1.2-1.2,1.2s-1.2-0.5-1.2-1.2c0-0.7,0.5-1.2,1.2-1.2
		C456.3,388.2,456.9,388.7,456.9,389.4"/>
	<path fill="#1D1D1B" d="M412.9,393.4c0,0.7-0.5,1.2-1.2,1.2s-1.2-0.5-1.2-1.2s0.5-1.2,1.2-1.2S412.9,392.8,412.9,393.4"/>
	<path fill="#1D1D1B" d="M409.9,389.5c0,0.7-0.5,1.2-1.2,1.2c-0.7,0-1.2-0.5-1.2-1.2c0-0.7,0.5-1.2,1.2-1.2
		C409.3,388.3,409.9,388.8,409.9,389.5"/>
	<path fill="#1D1D1B" d="M406,386.5c0,0.7-0.5,1.2-1.2,1.2c-0.7,0-1.2-0.5-1.2-1.2s0.5-1.2,1.2-1.2C405.4,385.3,406,385.8,406,386.5
		"/>
	<path fill="#1D1D1B" d="M401.4,384.6c0,0.7-0.5,1.2-1.2,1.2c-0.7,0-1.2-0.5-1.2-1.2s0.5-1.2,1.2-1.2
		C400.9,383.4,401.4,383.9,401.4,384.6"/>
	<path fill="#1D1D1B" d="M391.6,384.6c0,0.7-0.5,1.2-1.2,1.2c-0.7,0-1.2-0.5-1.2-1.2s0.5-1.2,1.2-1.2
		C391.1,383.4,391.6,383.9,391.6,384.6"/>
	<path fill="#1D1D1B" d="M387,386.5c0,0.7-0.5,1.2-1.2,1.2c-0.7,0-1.2-0.5-1.2-1.2s0.5-1.2,1.2-1.2C386.5,385.3,387,385.8,387,386.5
		"/>
	<path fill="#1D1D1B" d="M383.1,389.5c0,0.7-0.5,1.2-1.2,1.2s-1.2-0.5-1.2-1.2c0-0.7,0.5-1.2,1.2-1.2S383.1,388.8,383.1,389.5"/>
	<path fill="#1D1D1B" d="M396.5,384c0,0.7-0.5,1.2-1.2,1.2s-1.2-0.5-1.2-1.2c0-0.7,0.5-1.2,1.2-1.2S396.5,383.3,396.5,384"/>
	<path fill="#1D1D1B" d="M366.6,398.2c0,0.7-0.5,1.2-1.2,1.2s-1.2-0.5-1.2-1.2s0.5-1.2,1.2-1.2C366,397,366.6,397.5,366.6,398.2"/>
	<path fill="#1D1D1B" d="M366.6,402.9c0,0.7-0.5,1.2-1.2,1.2s-1.2-0.5-1.2-1.2s0.5-1.2,1.2-1.2C366,401.7,366.6,402.2,366.6,402.9"
		/>
	<path fill="#1D1D1B" d="M366.6,407.6c0,0.7-0.5,1.2-1.2,1.2s-1.2-0.5-1.2-1.2c0-0.7,0.5-1.2,1.2-1.2
		C366,406.4,366.6,407,366.6,407.6"/>
	<path fill="#1D1D1B" d="M366.6,412.3c0,0.7-0.5,1.2-1.2,1.2s-1.2-0.5-1.2-1.2c0-0.7,0.5-1.2,1.2-1.2
		C366,411.1,366.6,411.7,366.6,412.3"/>
	<path fill="#1D1D1B" d="M366.6,417.1c0,0.7-0.5,1.2-1.2,1.2s-1.2-0.5-1.2-1.2s0.5-1.2,1.2-1.2C366,415.9,366.6,416.4,366.6,417.1"
		/>
	<path fill="#1D1D1B" d="M366.6,421.8c0,0.7-0.5,1.2-1.2,1.2s-1.2-0.5-1.2-1.2s0.5-1.2,1.2-1.2C366,420.6,366.6,421.1,366.6,421.8"
		/>
	<path fill="#1D1D1B" d="M335.8,393.4c0,0.7-0.5,1.2-1.2,1.2c-0.7,0-1.2-0.5-1.2-1.2s0.5-1.2,1.2-1.2
		C335.2,392.2,335.8,392.8,335.8,393.4"/>
	<path fill="#1D1D1B" d="M335.8,398.2c0,0.7-0.5,1.2-1.2,1.2c-0.7,0-1.2-0.5-1.2-1.2s0.5-1.2,1.2-1.2
		C335.2,397,335.8,397.5,335.8,398.2"/>
	<path fill="#1D1D1B" d="M335.8,402.9c0,0.7-0.5,1.2-1.2,1.2c-0.7,0-1.2-0.5-1.2-1.2s0.5-1.2,1.2-1.2
		C335.2,401.7,335.8,402.2,335.8,402.9"/>
	<path fill="#1D1D1B" d="M335.8,407.6c0,0.7-0.5,1.2-1.2,1.2c-0.7,0-1.2-0.5-1.2-1.2c0-0.7,0.5-1.2,1.2-1.2
		C335.2,406.4,335.8,407,335.8,407.6"/>
	<path fill="#1D1D1B" d="M335.8,412.3c0,0.7-0.5,1.2-1.2,1.2c-0.7,0-1.2-0.5-1.2-1.2c0-0.7,0.5-1.2,1.2-1.2
		C335.2,411.1,335.8,411.7,335.8,412.3"/>
	<path fill="#1D1D1B" d="M335.8,417.1c0,0.7-0.5,1.2-1.2,1.2c-0.7,0-1.2-0.5-1.2-1.2s0.5-1.2,1.2-1.2
		C335.2,415.9,335.8,416.4,335.8,417.1"/>
	<path fill="#1D1D1B" d="M335.8,421.8c0,0.7-0.5,1.2-1.2,1.2c-0.7,0-1.2-0.5-1.2-1.2s0.5-1.2,1.2-1.2
		C335.2,420.6,335.8,421.1,335.8,421.8"/>
	<path fill="#1D1D1B" d="M305,398.2c0,0.7-0.5,1.2-1.2,1.2c-0.7,0-1.2-0.5-1.2-1.2s0.5-1.2,1.2-1.2C304.4,397,305,397.5,305,398.2"
		/>
	<path fill="#1D1D1B" d="M305,402.9c0,0.7-0.5,1.2-1.2,1.2c-0.7,0-1.2-0.5-1.2-1.2s0.5-1.2,1.2-1.2C304.4,401.7,305,402.2,305,402.9
		"/>
	<path fill="#1D1D1B" d="M305,407.6c0,0.7-0.5,1.2-1.2,1.2c-0.7,0-1.2-0.5-1.2-1.2c0-0.7,0.5-1.2,1.2-1.2
		C304.4,406.4,305,407,305,407.6"/>
	<path fill="#1D1D1B" d="M305,412.3c0,0.7-0.5,1.2-1.2,1.2c-0.7,0-1.2-0.5-1.2-1.2c0-0.7,0.5-1.2,1.2-1.2
		C304.4,411.1,305,411.7,305,412.3"/>
	<path fill="#1D1D1B" d="M305,417.1c0,0.7-0.5,1.2-1.2,1.2c-0.7,0-1.2-0.5-1.2-1.2s0.5-1.2,1.2-1.2C304.4,415.9,305,416.4,305,417.1
		"/>
	<path fill="#1D1D1B" d="M305,421.8c0,0.7-0.5,1.2-1.2,1.2c-0.7,0-1.2-0.5-1.2-1.2s0.5-1.2,1.2-1.2C304.4,420.6,305,421.1,305,421.8
		"/>
	<path fill="#1D1D1B" d="M274.1,398.2c0,0.7-0.5,1.2-1.2,1.2c-0.7,0-1.2-0.5-1.2-1.2s0.5-1.2,1.2-1.2
		C273.6,397,274.1,397.5,274.1,398.2"/>
	<path fill="#1D1D1B" d="M274.1,402.9c0,0.7-0.5,1.2-1.2,1.2c-0.7,0-1.2-0.5-1.2-1.2s0.5-1.2,1.2-1.2
		C273.6,401.7,274.1,402.2,274.1,402.9"/>
	<path fill="#1D1D1B" d="M274.1,407.6c0,0.7-0.5,1.2-1.2,1.2c-0.7,0-1.2-0.5-1.2-1.2c0-0.7,0.5-1.2,1.2-1.2
		C273.6,406.4,274.1,407,274.1,407.6"/>
	<path fill="#1D1D1B" d="M274.1,412.3c0,0.7-0.5,1.2-1.2,1.2c-0.7,0-1.2-0.5-1.2-1.2c0-0.7,0.5-1.2,1.2-1.2
		C273.6,411.1,274.1,411.7,274.1,412.3"/>
	<path fill="#1D1D1B" d="M274.1,417.1c0,0.7-0.5,1.2-1.2,1.2c-0.7,0-1.2-0.5-1.2-1.2s0.5-1.2,1.2-1.2
		C273.6,415.9,274.1,416.4,274.1,417.1"/>
	<path fill="#1D1D1B" d="M274.1,421.8c0,0.7-0.5,1.2-1.2,1.2c-0.7,0-1.2-0.5-1.2-1.2s0.5-1.2,1.2-1.2
		C273.6,420.6,274.1,421.1,274.1,421.8"/>
	<path fill="#1D1D1B" d="M271.5,389.5c0,0.7-0.5,1.2-1.2,1.2c-0.7,0-1.2-0.5-1.2-1.2c0-0.7,0.5-1.2,1.2-1.2
		C270.9,388.3,271.5,388.8,271.5,389.5"/>
	<path fill="#1D1D1B" d="M243.3,407.6c0,0.7-0.5,1.2-1.2,1.2c-0.7,0-1.2-0.5-1.2-1.2c0-0.7,0.5-1.2,1.2-1.2
		C242.8,406.4,243.3,407,243.3,407.6"/>
	<path fill="#1D1D1B" d="M243.3,412.3c0,0.7-0.5,1.2-1.2,1.2c-0.7,0-1.2-0.5-1.2-1.2c0-0.7,0.5-1.2,1.2-1.2
		C242.8,411.1,243.3,411.7,243.3,412.3"/>
	<path fill="#1D1D1B" d="M243.3,417.1c0,0.7-0.5,1.2-1.2,1.2c-0.7,0-1.2-0.5-1.2-1.2s0.5-1.2,1.2-1.2
		C242.8,415.9,243.3,416.4,243.3,417.1"/>
	<path fill="#1D1D1B" d="M243.3,421.8c0,0.7-0.5,1.2-1.2,1.2c-0.7,0-1.2-0.5-1.2-1.2s0.5-1.2,1.2-1.2
		C242.8,420.6,243.3,421.1,243.3,421.8"/>
	<path fill="#1D1D1B" d="M232.5,407.8c0,0.7-0.5,1.2-1.2,1.2c-0.7,0-1.2-0.5-1.2-1.2c0-0.7,0.5-1.2,1.2-1.2
		C232,406.6,232.5,407.1,232.5,407.8"/>
	<path fill="#1D1D1B" d="M230.6,412.3c0,0.7-0.5,1.2-1.2,1.2c-0.7,0-1.2-0.5-1.2-1.2c0-0.7,0.5-1.2,1.2-1.2
		C230.1,411.1,230.6,411.7,230.6,412.3"/>
	<path fill="#1D1D1B" d="M227.6,416.3c0,0.7-0.5,1.2-1.2,1.2s-1.2-0.5-1.2-1.2s0.5-1.2,1.2-1.2C227.1,415.1,227.6,415.6,227.6,416.3
		"/>
	<path fill="#1D1D1B" d="M223.7,419.3c0,0.7-0.5,1.2-1.2,1.2c-0.7,0-1.2-0.5-1.2-1.2s0.5-1.2,1.2-1.2
		C223.2,418.1,223.7,418.6,223.7,419.3"/>
	<path fill="#1D1D1B" d="M219.2,421.2c0,0.7-0.5,1.2-1.2,1.2c-0.7,0-1.2-0.5-1.2-1.2c0-0.7,0.5-1.2,1.2-1.2
		C218.6,420,219.2,420.5,219.2,421.2"/>
	<path fill="#1D1D1B" d="M214.3,421.8c0,0.7-0.5,1.2-1.2,1.2c-0.7,0-1.2-0.5-1.2-1.2s0.5-1.2,1.2-1.2
		C213.7,420.6,214.3,421.1,214.3,421.8"/>
	<path fill="#1D1D1B" d="M209.4,421.2c0,0.7-0.5,1.2-1.2,1.2c-0.7,0-1.2-0.5-1.2-1.2c0-0.7,0.5-1.2,1.2-1.2
		C208.8,420,209.4,420.5,209.4,421.2"/>
	<path fill="#1D1D1B" d="M204.8,419.3c0,0.7-0.5,1.2-1.2,1.2s-1.2-0.5-1.2-1.2s0.5-1.2,1.2-1.2C204.3,418.1,204.8,418.6,204.8,419.3
		"/>
	<path fill="#1D1D1B" d="M200.9,416.3c0,0.7-0.5,1.2-1.2,1.2c-0.7,0-1.2-0.5-1.2-1.2s0.5-1.2,1.2-1.2
		C200.4,415.1,200.9,415.6,200.9,416.3"/>
	<path fill="#1D1D1B" d="M200.9,389.5c0,0.7-0.5,1.2-1.2,1.2c-0.7,0-1.2-0.5-1.2-1.2c0-0.7,0.5-1.2,1.2-1.2
		C200.4,388.3,200.9,388.8,200.9,389.5"/>
	<path fill="#1D1D1B" d="M197.9,393.4c0,0.7-0.5,1.2-1.2,1.2c-0.7,0-1.2-0.5-1.2-1.2s0.5-1.2,1.2-1.2
		C197.3,392.2,197.9,392.8,197.9,393.4"/>
	<path fill="#1D1D1B" d="M196,398c0,0.7-0.5,1.2-1.2,1.2c-0.7,0-1.2-0.5-1.2-1.2s0.5-1.2,1.2-1.2C195.5,396.8,196,397.3,196,398"/>
	<path fill="#1D1D1B" d="M195.3,402.9c0,0.7-0.5,1.2-1.2,1.2c-0.7,0-1.2-0.5-1.2-1.2s0.5-1.2,1.2-1.2
		C194.8,401.7,195.3,402.2,195.3,402.9"/>
	<path fill="#1D1D1B" d="M196,407.8c0,0.7-0.5,1.2-1.2,1.2c-0.7,0-1.2-0.5-1.2-1.2c0-0.7,0.5-1.2,1.2-1.2
		C195.5,406.6,196,407.1,196,407.8"/>
	<path fill="#1D1D1B" d="M197.9,412.3c0,0.7-0.5,1.2-1.2,1.2c-0.7,0-1.2-0.5-1.2-1.2c0-0.7,0.5-1.2,1.2-1.2
		C197.3,411.1,197.9,411.7,197.9,412.3"/>
	<path fill="#1D1D1B" d="M177.6,412.3c0,0.7-0.5,1.2-1.2,1.2c-0.7,0-1.2-0.5-1.2-1.2c0-0.7,0.5-1.2,1.2-1.2
		C177.1,411.1,177.6,411.7,177.6,412.3"/>
	<path fill="#1D1D1B" d="M177.6,417.1c0,0.7-0.5,1.2-1.2,1.2c-0.7,0-1.2-0.5-1.2-1.2s0.5-1.2,1.2-1.2
		C177.1,415.9,177.6,416.4,177.6,417.1"/>
	<path fill="#1D1D1B" d="M180.6,420.5c0,0.7-0.5,1.2-1.2,1.2c-0.7,0-1.2-0.5-1.2-1.2c0-0.7,0.5-1.2,1.2-1.2
		C180,419.3,180.6,419.9,180.6,420.5"/>
	<path fill="#1D1D1B" d="M185,421.8c0,0.7-0.5,1.2-1.2,1.2c-0.7,0-1.2-0.5-1.2-1.2s0.5-1.2,1.2-1.2C184.4,420.6,185,421.1,185,421.8
		"/>
	<path fill="#1D1D1B" d="M189.4,421.2c0,0.7-0.5,1.2-1.2,1.2c-0.7,0-1.2-0.5-1.2-1.2c0-0.7,0.5-1.2,1.2-1.2
		C188.9,420,189.4,420.5,189.4,421.2"/>
	<path fill="#1D1D1B" d="M165,413.3c0,0.7-0.5,1.2-1.2,1.2c-0.7,0-1.2-0.5-1.2-1.2c0-0.7,0.5-1.2,1.2-1.2
		C164.5,412.1,165,412.6,165,413.3"/>
	<path fill="#1D1D1B" d="M162.6,417.3c0,0.7-0.5,1.2-1.2,1.2c-0.7,0-1.2-0.5-1.2-1.2s0.5-1.2,1.2-1.2
		C162.1,416.1,162.6,416.7,162.6,417.3"/>
	<path fill="#1D1D1B" d="M158.8,420.2c0,0.7-0.5,1.2-1.2,1.2s-1.2-0.5-1.2-1.2s0.5-1.2,1.2-1.2S158.8,419.5,158.8,420.2"/>
	<path fill="#1D1D1B" d="M154.1,421.7c0,0.7-0.5,1.2-1.2,1.2c-0.7,0-1.2-0.5-1.2-1.2s0.5-1.2,1.2-1.2
		C153.6,420.5,154.1,421,154.1,421.7"/>
	<path fill="#1D1D1B" d="M149,421.9c0,0.7-0.5,1.2-1.2,1.2c-0.7,0-1.2-0.5-1.2-1.2s0.5-1.2,1.2-1.2C148.5,420.7,149,421.3,149,421.9
		"/>
	<path fill="#1D1D1B" d="M144,421.5c0,0.7-0.5,1.2-1.2,1.2c-0.7,0-1.2-0.5-1.2-1.2c0-0.7,0.5-1.2,1.2-1.2
		C143.4,420.3,144,420.8,144,421.5"/>
	<path fill="#1D1D1B" d="M139.3,420c0,0.7-0.5,1.2-1.2,1.2c-0.7,0-1.3-0.5-1.3-1.2s0.5-1.2,1.2-1.2
		C138.6,418.8,139.3,419.4,139.3,420"/>
	<path fill="#1D1D1B" d="M135.4,417.3c0,0.7-0.5,1.2-1.2,1.2c-0.7,0-1.2-0.5-1.2-1.2s0.5-1.2,1.2-1.2
		C134.9,416.1,135.4,416.6,135.4,417.3"/>
	<path fill="#1D1D1B" d="M149,384c0,0.7-0.5,1.2-1.2,1.2c-0.7,0-1.2-0.5-1.2-1.2c0-0.7,0.5-1.2,1.2-1.2
		C148.5,382.8,149,383.3,149,384"/>
	<path fill="#1D1D1B" d="M153.9,384.6c0,0.7-0.5,1.2-1.2,1.2c-0.7,0-1.2-0.5-1.2-1.2s0.5-1.2,1.2-1.2
		C153.4,383.4,153.9,383.9,153.9,384.6"/>
	<path fill="#1D1D1B" d="M90.5,407.6c0,0.7-0.5,1.2-1.2,1.2s-1.2-0.5-1.2-1.2c0-0.7,0.5-1.2,1.2-1.2C89.9,406.4,90.5,407,90.5,407.6
		"/>
	<path fill="#1D1D1B" d="M90.5,402.9c0,0.7-0.5,1.2-1.2,1.2s-1.2-0.5-1.2-1.2s0.5-1.2,1.2-1.2C89.9,401.7,90.5,402.2,90.5,402.9"/>
	<path fill="#1D1D1B" d="M90.5,398.2c0,0.7-0.5,1.2-1.2,1.2s-1.2-0.5-1.2-1.2s0.5-1.2,1.2-1.2C89.9,397,90.5,397.5,90.5,398.2"/>
	<path fill="#1D1D1B" d="M90.5,393.4c0,0.7-0.5,1.2-1.2,1.2s-1.2-0.5-1.2-1.2s0.5-1.2,1.2-1.2C89.9,392.2,90.5,392.8,90.5,393.4"/>
	<path fill="#1D1D1B" d="M90.5,388.7c0,0.7-0.5,1.2-1.2,1.2s-1.2-0.5-1.2-1.2c0-0.7,0.5-1.2,1.2-1.2C89.9,387.5,90.5,388,90.5,388.7
		"/>
	<path fill="#1D1D1B" d="M90.5,384c0,0.7-0.5,1.2-1.2,1.2s-1.2-0.5-1.2-1.2c0-0.7,0.5-1.2,1.2-1.2C89.9,382.8,90.5,383.3,90.5,384"
		/>
	<path fill="#1D1D1B" d="M130.1,413.7c0,0.7,0.5,1.2,1.2,1.2c0.7,0,1.2-0.5,1.2-1.2s-0.5-1.2-1.2-1.2
		C130.6,412.5,130.1,413,130.1,413.7"/>
	<path fill="#1D1D1B" d="M156.1,386.5c0-0.7,0.5-1.2,1.2-1.2c0.7,0,1.2,0.5,1.2,1.2s-0.5,1.2-1.2,1.2
		C156.6,387.7,156.1,387.2,156.1,386.5"/>
	<path fill="#1D1D1B" d="M159.9,389.3c0-0.7,0.5-1.2,1.2-1.2c0.7,0,1.2,0.5,1.2,1.2c0,0.7-0.5,1.2-1.2,1.2
		C160.4,390.5,159.9,390,159.9,389.3"/>
	<path fill="#1D1D1B" d="M164.9,393.1c0-0.7-0.5-1.2-1.2-1.2c-0.7,0-1.2,0.5-1.2,1.2c0,0.7,0.5,1.2,1.2,1.2
		C164.3,394.3,164.9,393.7,164.9,393.1"/>
	<path fill="#1D1D1B" d="M536.2,408.5c3.1,0,5.6-2.5,5.6-5.6c0-3.1-2.5-5.6-5.6-5.6c-3.1,0-5.6,2.5-5.6,5.6
		C530.6,406,533.2,408.5,536.2,408.5"/>
</g>
</svg>
