<?xml version="1.0" encoding="utf-8"?>
<!-- Generator: Adobe Illustrator 17.1.0, SVG Export Plug-In . SVG Version: 6.00 Build 0)  -->
<!DOCTYPE svg PUBLIC "-//W3C//DTD SVG 1.1//EN" "http://www.w3.org/Graphics/SVG/1.1/DTD/svg11.dtd">
<svg version="1.1" id="Calque_1" xmlns="http://www.w3.org/2000/svg" xmlns:xlink="http://www.w3.org/1999/xlink" x="0px" y="0px"
	 viewBox="0 0 595.3 841.9" enable-background="new 0 0 595.3 841.9" xml:space="preserve">
<g>
	<path fill="#1D1D1B" d="M102.6-705.9l-3.8-2.7l-0.6-0.4l-0.4,0.6c-5.5,7.5-14.5,11.9-24.6,11.9c-15.9,0-28.9-11.3-28.9-25.1
		c0-13.9,13-25.1,28.9-25.1c9.5,0,18.2,4,23.8,10.9l0.4,0.5l0.5-0.3l4.1-2.6l0.7-0.4l-0.5-0.6c-6.9-8.7-17.4-13.6-28.9-13.6
		c-19.2,0-34.8,14.1-34.8,31.3c0,17.3,15.6,31.3,34.8,31.3c11.9,0,22.9-5.4,29.4-14.5l0.4-0.6L102.6-705.9z"/>
	<path fill="#1D1D1B" d="M152.6-696.9c-15.9,0-28.9-11.3-28.9-25.1c0-13.8,13-25.1,28.9-25.1s28.9,11.3,28.9,25.1
		C181.5-708.1,168.6-696.9,152.6-696.9 M152.6-753.6c-19.4,0-35.2,14.2-35.2,31.7c0,17.5,15.8,31.7,35.2,31.7s35.2-14.2,35.2-31.7
		S172-753.6,152.6-753.6"/>
	<path fill="#1D1D1B" d="M295.5-744.3c-5-5-12.6-7.9-20.5-7.9c-9.6,0-18.6,4.4-23.5,11.2c-4.5-6.8-13.5-11.2-23.2-11.2
		c-7.9,0-15.2,2.9-20.3,7.8v-6.4h-6v19.7v38.8v0.7h5.9V-731c0-7.2,7.8-15,20.3-15c12.6,0,20.3,7.8,20.3,15v39.5h5.9V-731
		c0-7.2,7.8-15,20.4-15c12.6,0,20.3,7.8,20.3,15v39.5h5.9V-731C301.2-736,299.2-740.6,295.5-744.3"/>
	<path fill="#1D1D1B" d="M392.7-752.2c-9.6,0-18.6,4.4-23.5,11.2c-4.5-6.8-13.5-11.2-23.2-11.2c-7.9,0-15.1,2.9-20.3,7.8v-6.3h-5.9
		v59.3h5.9V-731c0-7.2,7.8-15,20.3-15c12.6,0,20.3,7.8,20.3,15v39.5h5.9V-731c0-7.2,7.8-15,20.4-15s20.3,7.8,20.3,15v39.5h5.9V-731
		C419-742.7,407.2-752.2,392.7-752.2"/>
	<path fill="#1D1D1B" d="M490.4-724.9v14.7c-3.8,8.4-14.6,13.4-29.1,13.4c-12.4,0-19.2-5.6-19.2-10.9c0-8.1,6.7-10.3,18.4-11.4
		c1.7-0.2,3.5-0.3,5.4-0.5c3.7-0.3,7.5-0.6,11.2-1.2C482.8-721.6,487-722.9,490.4-724.9 M498.6-693.5c-1.3-3-1.9-7.2-1.9-10.1v-29.9
		c0-12.7-10.8-20.2-28.8-20.2c-10.3,0-24,4.4-28.3,16.8l-0.3,0.9h6.7l0.2-0.4c4-8,14.2-10.8,21.7-10.8c14.5,0,22.2,4.9,22.4,14.2
		c-2.4,2.7-6.4,4.4-12.6,5.5c-3.7,0.6-7.8,1-11.8,1.3c-2.1,0.2-4.3,0.4-6.4,0.6c-11.5,1.2-23.8,3.7-23.8,17.9
		c0,11.5,12.8,17.4,25.5,17.4c5.8,0,19.8-0.9,29.3-9.1c0.2,2.2,0.7,4.4,1.5,6.6l0.2,0.5h0.5l5.3-0.3h1L498.6-693.5z"/>
	<path fill="#1D1D1B" d="M553.8-691.7c0.9-1.6,1.7-3.3,1.7-5.4c0-5.2,0-26.4,0-26.4s0-6.1-6.1-6.1h-24.1c0,0-6.1,0-6.1,6.1v26.4
		c0,0,0,6.1,6.1,6.1h5.3l-6.4,13.8c0,0-1.9,4.2,2.6,4.2c0,0,7.4,0,8.2,0c0.8,0,4,0.1,7.3-3.6C544.1-678.6,549.9-685,553.8-691.7z"/>
</g>
<g>
	<path fill="#1D1D1B" d="M318.4,293.9c0,0-34.9,32.6-127.8,19.9c-92.9-12.4-107.9-18.5-107.9-18.5S253.4,341,304.1,438.1h94.8
		c0,0-48.1-55.1-110.9-83.3c0,0,72-10.1,109.5-28.4L318.4,293.9L318.4,293.9z"/>
	<path fill="#1D1D1B" d="M49.8,508v-55.4h34.5h3.3c6.6,0,11,0,13.1,0.2c1.9,0,4.2,0.5,6.3,0.9c5.2,0.9,8.7,4.2,10.3,9.4
		c0.5,1.9,0.9,4,1.2,6.1c0.2,2.3,0.2,5.6,0.2,10.1c0,4.9,0,8.7-0.2,11.3c-0.2,2.6-0.7,4.9-1.4,7c-1.6,4.7-4.9,7.7-9.6,8.9
		c-2.3,0.5-4.7,0.9-7.3,0.9c-2.6,0.2-6.8,0.5-12.7,0.5h-3.3L49.8,508L49.8,508z M495.5,486.4h11.7l-10.1-20.9h-1.6h-1.4L484,486.4
		H495.5L495.5,486.4z M495.5,452.7h12.7l27.2,55.4h-18.1l-4.5-9.4h-17.4h-17.1l-4.5,9.4h-18.3l27.7-55.4H495.5L495.5,452.7z
		 M420.7,480.1h5.9c3.8,0,6.1-0.2,6.8-0.2c0.9,0,1.4-0.2,2.1-0.7c0.5-0.5,1.2-1.2,1.4-1.9c0.2-0.9,0.5-2.3,0.5-4.2
		c0-1.9-0.2-3-0.7-4c-0.2-0.9-0.7-1.6-1.6-1.9c-0.5-0.5-1.2-0.5-1.9-0.7c-0.7,0-3,0-6.8,0h-5.6H404v13.6L420.7,480.1L420.7,480.1z
		 M420.7,452.7h5.9c9.1,0,14.5,0.2,16.2,0.2c1.9,0.2,3.5,0.9,5.2,1.9c2.1,1.4,3.5,3,4.2,5.4c0.7,2.1,1.2,5.6,1.2,10.6
		c0,4-0.2,6.8-0.7,8.7c-0.5,1.9-1.4,3.5-2.8,4.7c-1.4,1.2-3.5,1.9-6.3,2.3c3.3,0.2,5.9,1.4,7.3,3c0.7,1.2,1.4,2.3,1.6,4
		c0.2,1.4,0.2,4.5,0.2,9.4v5.2H437v-3c0-3,0-5.2-0.2-6.6c-0.2-1.4-0.7-2.3-1.2-3c-0.7-0.7-1.4-0.9-2.6-1.2c-0.9-0.2-3-0.2-6.3-0.2
		h-5.9H404V508h-15.9v-55.4h32.6V452.7z M344,494.4c0,0,0,0,0.2,0c6.3,0,10.6-0.2,12.7-0.5c2.1-0.2,3.8-0.7,4.7-1.6
		c0.9-0.7,1.6-1.9,1.9-3.3c0.2-1.4,0.5-3.8,0.5-7.3c0-4,0-6.8-0.2-8.7c-0.5-1.9-0.7-3.3-1.4-4.2c-0.9-1.2-2.3-1.9-4.2-2.1
		c-1.9-0.5-6.6-0.5-14.1-0.5c-8.4,0-13.4,0.2-15.2,0.7c-1.9,0.5-3.3,1.6-3.8,3.5c-0.7,1.9-0.9,5.6-0.9,11.3c0,3.3,0.2,5.9,0.5,7.3
		c0.7,2.8,2.6,4.5,5.9,4.9C332.7,494.2,337.2,494.4,344,494.4L344,494.4z M344,452c11.3,0,19,0.2,23.2,0.7c6.1,0.9,9.9,4,11.3,9.4
		c0.9,3.5,1.4,9.6,1.4,18.3s-0.5,14.8-1.4,18.3c-1.4,5.4-5.2,8.4-11.3,9.1c-4.2,0.7-12,0.9-23,0.9c-0.2,0-0.2,0-0.2,0
		c-11.3,0-19-0.2-23.2-0.9c-6.1-0.7-9.9-3.8-11.3-9.1c-0.9-3.5-1.4-9.9-1.4-18.8c0-8.2,0.5-14.3,1.4-17.8c1.4-5.4,5.2-8.4,11.3-9.4
		C325,452.2,332.7,452,344,452L344,452z M266.6,493.9h3.5c4,0,7-0.2,8.9-0.5c1.9-0.2,3.3-0.9,4-1.6c0.9-0.7,1.6-1.9,1.9-3.5
		c0.5-1.9,0.7-4.5,0.7-7.7c0-3.5-0.2-6.1-0.5-7.7c-0.5-1.9-0.9-3-1.6-4c-0.9-0.9-2.1-1.6-3.8-1.9c-1.6-0.2-4.9-0.5-9.9-0.5h-3.3
		h-18.8v27.4L266.6,493.9L266.6,493.9z M266.6,452.7h3.3c6.6,0,11,0,13.1,0.2c2.1,0,4.2,0.5,6.6,0.9c4.9,0.9,8.2,4.2,9.9,9.4
		c0.7,1.9,0.9,4,1.2,6.1c0.2,2.3,0.2,5.6,0.2,10.1c0,4.9,0,8.7-0.2,11.3c-0.2,2.6-0.7,4.9-1.4,7c-1.6,4.7-4.7,7.7-9.4,8.9
		c-2.3,0.5-4.7,0.9-7.3,0.9c-2.6,0.2-6.8,0.5-12.7,0.5h-3.3h-34.5v-55.4h34.5V452.7z M188,486.4h11.7l-10.1-20.9H188h-1.4
		l-10.1,20.9H188L188,486.4z M188,452.7h12.4l27.4,55.4h-18.1l-4.5-9.4H188h-17.4l-4.5,9.4H148l27.7-55.4H188L188,452.7z
		 M84.3,466.5H65.6v27.4h18.8h3.3c4.2,0,7.3-0.2,9.1-0.5c1.9-0.2,3.3-0.9,4-1.6c0.9-0.7,1.4-1.9,1.9-3.5c0.2-1.9,0.5-4.5,0.5-7.7
		c0-3.5,0-6.1-0.5-7.7c-0.2-1.9-0.7-3-1.6-4c-0.7-0.9-2.1-1.6-3.8-1.9c-1.6-0.2-4.9-0.5-9.6-0.5L84.3,466.5L84.3,466.5z M127,452.7
		h16.9V508H127V452.7L127,452.7z"/>
</g>
</svg>
