<?xml version="1.0" encoding="utf-8"?>
<!-- Generator: Adobe Illustrator 18.0.0, SVG Export Plug-In . SVG Version: 6.00 Build 0)  -->
<!DOCTYPE svg PUBLIC "-//W3C//DTD SVG 1.1//EN" "http://www.w3.org/Graphics/SVG/1.1/DTD/svg11.dtd">
<svg version="1.1" id="Calque_1" xmlns="http://www.w3.org/2000/svg" xmlns:xlink="http://www.w3.org/1999/xlink" x="0px" y="0px"
	 viewBox="0 0 841.9 595.3" enable-background="new 0 0 841.9 595.3" xml:space="preserve">
<g>
	<path fill="#1D1D1B" d="M283-499.1l-2.7-1.9l-0.4-0.3l-0.3,0.4c-3.9,5.3-10.3,8.4-17.4,8.4c-11.2,0-20.4-8-20.4-17.7
		c0-9.8,9.2-17.7,20.4-17.7c6.7,0,12.9,2.8,16.8,7.7l0.3,0.4l0.4-0.2l2.9-1.8l0.5-0.3l-0.4-0.4c-4.9-6.2-12.3-9.6-20.4-9.6
		c-13.6,0-24.6,10-24.6,22.1c0,12.2,11,22.1,24.6,22.1c8.4,0,16.2-3.8,20.8-10.3l0.3-0.4L283-499.1z"/>
	<path fill="#1D1D1B" d="M318.4-492.8c-11.2,0-20.4-8-20.4-17.7s9.2-17.7,20.4-17.7s20.4,8,20.4,17.7
		C338.8-500.7,329.7-492.8,318.4-492.8 M318.4-532.8c-13.7,0-24.9,10-24.9,22.4s11.2,22.4,24.9,22.4s24.9-10,24.9-22.4
		S332.1-532.8,318.4-532.8"/>
	<path fill="#1D1D1B" d="M419.4-526.3c-3.5-3.5-8.9-5.6-14.5-5.6c-6.8,0-13.2,3.1-16.6,7.9c-3.2-4.8-9.5-7.9-16.4-7.9
		c-5.6,0-10.7,2.1-14.4,5.5v-4.5h-4.2v13.9v27.4v0.5h4.2v-27.9c0-5.1,5.5-10.6,14.4-10.6c8.9,0,14.4,5.5,14.4,10.6v27.9h4.2v-27.9
		c0-5.1,5.5-10.6,14.4-10.6s14.4,5.5,14.4,10.6v27.9h4.2v-27.9C423.5-520.4,422-523.7,419.4-526.3"/>
	<path fill="#1D1D1B" d="M488.2-531.9c-6.8,0-13.2,3.1-16.6,7.9c-3.2-4.8-9.5-7.9-16.4-7.9c-5.6,0-10.7,2.1-14.4,5.5v-4.5h-4.2v41.9
		h4.2v-28c0-5.1,5.5-10.6,14.4-10.6c8.9,0,14.4,5.5,14.4,10.6v27.9h4.2v-27.9c0-5.1,5.5-10.6,14.4-10.6c8.9,0,14.4,5.5,14.4,10.6
		v27.9h4.2v-27.9C506.7-525.1,498.4-531.9,488.2-531.9"/>
	<path fill="#1D1D1B" d="M557.2-512.6v10.4c-2.7,5.9-10.3,9.5-20.6,9.5c-8.8,0-13.6-4-13.6-7.7c0-5.7,4.7-7.3,13-8.1
		c1.2-0.1,2.5-0.2,3.8-0.4c2.6-0.2,5.3-0.4,7.9-0.8C551.9-510.2,554.8-511.1,557.2-512.6 M563-490.4c-0.9-2.1-1.3-5.1-1.3-7.1v-21.1
		c0-9-7.6-14.3-20.4-14.3c-7.3,0-17,3.1-20,11.9l-0.2,0.6h4.7l0.1-0.3c2.8-5.7,10-7.6,15.3-7.6c10.3,0,15.7,3.5,15.8,10
		c-1.7,1.9-4.5,3.1-8.9,3.9c-2.6,0.4-5.5,0.7-8.3,0.9c-1.5,0.1-3,0.3-4.5,0.4c-8.1,0.8-16.8,2.6-16.8,12.7c0,8.1,9.1,12.3,18,12.3
		c4.1,0,14-0.6,20.7-6.4c0.1,1.6,0.5,3.1,1.1,4.7l0.1,0.4h0.4l3.7-0.2h0.7L563-490.4z"/>
	<path fill="#1D1D1B" d="M602.1-489.1c0.6-1.1,1.2-2.3,1.2-3.8c0-3.7,0-18.7,0-18.7s0-4.3-4.3-4.3h-17c0,0-4.3,0-4.3,4.3v18.7
		c0,0,0,4.3,4.3,4.3h3.7l-4.5,9.8c0,0-1.3,3,1.8,3c0,0,5.2,0,5.8,0c0.6,0,2.8,0.1,5.2-2.5C595.2-479.8,599.3-484.3,602.1-489.1z"/>
</g>
<rect x="316.2" y="271.1" fill="#003552" width="21.8" height="45.3"/>
<g>
	<path fill="#003552" d="M266.6,306.4c0.5,0,1.2,0,1.7,0c1.1,0,2.5,0,3.7,0c1.4-0.1,2.8-0.2,4.2-0.4c1.3-0.2,2.9-0.5,4.2-1
		c1.3-0.5,2.5-1.4,3.2-2.6c0.6-1,1-2.1,1.1-3.2c0.3-2,0.4-4,0.4-6.1c-0.1-1.6-0.1-3.5-0.4-5.1c-0.1-1.1-0.6-2.2-1.1-3.1
		c-0.7-1.2-1.8-2.1-3.2-2.6c-1.3-0.5-2.8-0.8-4.2-1c-1.4-0.2-2.8-0.4-4.2-0.4c-0.8-0.1-1.6-0.1-2.3-0.1c-0.8,0-2.2,0-3,0.1
		C266.6,280.9,266.6,306.4,266.6,306.4z M307.8,293.6c0,2.3-0.2,4.7-0.6,7.1c-0.4,2.1-1.2,4.2-2.5,5.9c-1.5,2.2-3.6,4-5.9,5.2
		c-2.3,1.2-4.8,2.1-7.4,2.6c-3.2,0.6-6.5,1.1-9.8,1.3c-3.3,0.3-6.8,0.5-10.1,0.5h-9h-17.7V271h20.6h6.2c3.4,0,6.8,0.1,10.1,0.5
		c3.3,0.3,6.5,0.8,9.8,1.6c2.5,0.6,5,1.3,7.4,2.5c2.4,1.1,4.5,3,5.9,5.2c1.1,1.8,2,3.8,2.5,5.9C307.7,289,307.8,291.3,307.8,293.6"
		/>
</g>
<polygon fill="#003552" points="349.1,316.3 349.1,271.1 402.1,271.1 402.1,281.4 370.3,281.4 370.3,288 396.1,288 396.1,298.2 
	370.3,298.2 370.3,305.4 402.2,305.4 402.2,316.3 "/>
<g>
	<path fill="#003552" d="M409.9,284.8c-0.1-1,0-2.1,0.4-3c0.6-1.7,1.6-3.3,2.8-4.6c1.6-1.6,3.5-2.8,5.5-3.6c2.6-1.1,5.4-1.9,8.2-2.5
		c2.8-0.6,5.6-0.8,8.4-1c2.1-0.1,4.2-0.1,6.4-0.1c2.7,0.1,5.4,0.3,8,0.7c2.8,0.4,5.7,1.1,8.3,2.1c2.3,0.8,4.5,1.9,6.5,3.4
		c1.4,1.1,2.5,2.4,3.2,4c0.4,1.1,0.7,2.6,0.8,3.8h-18.9c-0.1-0.2-0.4-0.5-0.5-0.6c-0.7-0.9-1.7-1.7-2.8-2.3
		c-1.2-0.6-2.5-1.1-3.8-1.3c-1.5-0.3-3-0.4-4.6-0.3c-1.5,0.1-3.1,0.3-4.5,0.8c-0.6,0.2-1.2,0.6-1.6,1.1c-0.2,0.3-0.4,0.6-0.4,1
		c0,0.4,0.1,0.8,0.3,1.2c0.3,0.6,0.7,1.1,1.2,1.4c1.3,0.8,2.8,1.3,4.2,1.6c0.7,0.1,9.6,1.8,10.3,1.9c2.2,0.4,4.5,0.8,6.6,1.3
		c2.8,0.6,5.7,1.3,8.3,2.3c2.2,0.8,4.2,2,5.8,3.6c1.2,1.2,2,2.7,2.3,4.3c0.3,1.3,0.4,2.8,0.2,4.2c-0.2,2.1-1.1,4-2.3,5.6
		c-1.4,1.7-3.2,3.1-5.2,4c-2.6,1.2-5.7,2.1-8.5,2.6c-2.6,0.6-5.3,0.9-8,1.1c-3.5,0.3-7,0.3-10.5,0.1c-4-0.2-7.9-0.6-11.8-1.3
		c-3.3-0.6-6.4-1.7-9.3-3.3c-1.8-1-3.4-2.3-4.8-3.7c-0.7-0.8-1.3-1.7-1.8-2.6c-0.4-0.8-0.7-1.7-0.8-2.6c-0.1-0.5-0.1-1.1-0.2-1.6
		h20.4c0.3,0.4,0.6,0.9,0.9,1.3c0.8,1.1,1.8,2.1,3,2.7c1.3,0.7,2.8,1.2,4.3,1.5c1.7,0.3,3.5,0.4,5.2,0.2c1.8-0.1,3.5-0.4,5.2-1
		c0.8-0.2,1.6-0.7,2.1-1.3c0.2-0.3,0.3-0.7,0.3-1.1c0-0.6-0.1-1.1-0.5-1.5c-0.4-0.5-1.1-0.8-1.8-1.1c-1.6-0.6-3.3-1.1-4.9-1.6
		c-3.5-0.8-7.8-1.6-11.3-2.1c-3.7-0.6-7.5-1.5-11-2.8c-2.3-0.8-4.4-2-6.2-3.6c-1.1-0.9-1.9-2.1-2.5-3.3
		C410.2,287.4,410,286.1,409.9,284.8"/>
</g>
<polygon fill="#003552" points="543.1,271.1 543.1,316.3 592.8,316.3 592.8,305.4 564.9,305.4 564.9,271.1 "/>
<polygon fill="#003552" points="479.2,316.3 479.2,271.1 532.2,271.1 532.2,281.4 500.4,281.4 500.4,288 526.2,288 526.2,298.2 
	500.4,298.2 500.4,305.4 532.3,305.4 532.3,316.3 "/>
</svg>
