<?xml version="1.0" encoding="utf-8"?>
<!-- Generator: Adobe Illustrator 17.1.0, SVG Export Plug-In . SVG Version: 6.00 Build 0)  -->
<!DOCTYPE svg PUBLIC "-//W3C//DTD SVG 1.1//EN" "http://www.w3.org/Graphics/SVG/1.1/DTD/svg11.dtd">
<svg version="1.1" id="Calque_1" xmlns="http://www.w3.org/2000/svg" xmlns:xlink="http://www.w3.org/1999/xlink" x="0px" y="0px"
	 viewBox="0 0 595.3 841.9" enable-background="new 0 0 595.3 841.9" xml:space="preserve">
<g>
	<path fill="#1D1D1B" d="M102.6-705.9l-3.8-2.7l-0.6-0.4l-0.4,0.6c-5.5,7.5-14.5,11.9-24.6,11.9c-15.9,0-28.9-11.3-28.9-25.1
		c0-13.9,13-25.1,28.9-25.1c9.5,0,18.2,4,23.8,10.9l0.4,0.5l0.5-0.3l4.1-2.6l0.7-0.4l-0.5-0.6c-6.9-8.7-17.4-13.6-28.9-13.6
		c-19.2,0-34.8,14.1-34.8,31.3c0,17.3,15.6,31.3,34.8,31.3c11.9,0,22.9-5.4,29.4-14.5l0.4-0.6L102.6-705.9z"/>
	<path fill="#1D1D1B" d="M152.6-696.9c-15.9,0-28.9-11.3-28.9-25.1c0-13.8,13-25.1,28.9-25.1s28.9,11.3,28.9,25.1
		C181.5-708.1,168.6-696.9,152.6-696.9 M152.6-753.6c-19.4,0-35.2,14.2-35.2,31.7c0,17.5,15.8,31.7,35.2,31.7s35.2-14.2,35.2-31.7
		S172-753.6,152.6-753.6"/>
	<path fill="#1D1D1B" d="M295.5-744.3c-5-5-12.6-7.9-20.5-7.9c-9.6,0-18.6,4.4-23.5,11.2c-4.5-6.8-13.5-11.2-23.2-11.2
		c-7.9,0-15.2,2.9-20.3,7.8v-6.4h-6v19.7v38.8v0.7h5.9V-731c0-7.2,7.8-15,20.3-15c12.6,0,20.3,7.8,20.3,15v39.5h5.9V-731
		c0-7.2,7.8-15,20.4-15c12.6,0,20.3,7.8,20.3,15v39.5h5.9V-731C301.2-736,299.2-740.6,295.5-744.3"/>
	<path fill="#1D1D1B" d="M392.7-752.2c-9.6,0-18.6,4.4-23.5,11.2c-4.5-6.8-13.5-11.2-23.2-11.2c-7.9,0-15.1,2.9-20.3,7.8v-6.3h-5.9
		v59.3h5.9V-731c0-7.2,7.8-15,20.3-15c12.6,0,20.3,7.8,20.3,15v39.5h5.9V-731c0-7.2,7.8-15,20.4-15s20.3,7.8,20.3,15v39.5h5.9V-731
		C419-742.7,407.2-752.2,392.7-752.2"/>
	<path fill="#1D1D1B" d="M490.4-724.9v14.7c-3.8,8.4-14.6,13.4-29.1,13.4c-12.4,0-19.2-5.6-19.2-10.9c0-8.1,6.7-10.3,18.4-11.4
		c1.7-0.2,3.5-0.3,5.4-0.5c3.7-0.3,7.5-0.6,11.2-1.2C482.8-721.6,487-722.9,490.4-724.9 M498.6-693.5c-1.3-3-1.9-7.2-1.9-10.1v-29.9
		c0-12.7-10.8-20.2-28.8-20.2c-10.3,0-24,4.4-28.3,16.8l-0.3,0.9h6.7l0.2-0.4c4-8,14.2-10.8,21.7-10.8c14.5,0,22.2,4.9,22.4,14.2
		c-2.4,2.7-6.4,4.4-12.6,5.5c-3.7,0.6-7.8,1-11.8,1.3c-2.1,0.2-4.3,0.4-6.4,0.6c-11.5,1.2-23.8,3.7-23.8,17.9
		c0,11.5,12.8,17.4,25.5,17.4c5.8,0,19.8-0.9,29.3-9.1c0.2,2.2,0.7,4.4,1.5,6.6l0.2,0.5h0.5l5.3-0.3h1L498.6-693.5z"/>
	<path fill="#1D1D1B" d="M553.8-691.7c0.9-1.6,1.7-3.3,1.7-5.4c0-5.2,0-26.4,0-26.4s0-6.1-6.1-6.1h-24.1c0,0-6.1,0-6.1,6.1v26.4
		c0,0,0,6.1,6.1,6.1h5.3l-6.4,13.8c0,0-1.9,4.2,2.6,4.2c0,0,7.4,0,8.2,0c0.8,0,4,0.1,7.3-3.6C544.1-678.6,549.9-685,553.8-691.7z"/>
</g>
<g>
	<path fill="#1D1D1B" d="M322.9,403.9v45.2h-26.7V357H318l61,51.1c4,3.1,6.7,6.2,10.1,10v-14.5V357h26.8v92.1H394l-64-52.3
		c-2.4-2-4.1-4-7.1-7.3V403.9L322.9,403.9z"/>
	<polygon fill="#1D1D1B" points="544.7,357 512.5,357 481.1,388.4 449.7,357 417.4,357 467.6,407.3 467.6,407.3 467.6,449.1 
		494.5,449.1 494.5,407.3 494.5,407.3 	"/>
	<path fill="#1D1D1B" d="M49,357h62.2c36.2,0,56.8,16.9,56.8,45.5c0,17.3-9.4,31.6-22.9,39.4c-9.4,5.5-22.5,7.1-39.7,7.1H49V357
		L49,357z M102.3,427.6c22.5,0,38.2-3.6,38.2-24.6c0-16.8-9.6-25.7-28.5-25.7H76.3v50.3L102.3,427.6L102.3,427.6z"/>
	<polygon fill="#1D1D1B" points="198.8,417 198.8,449 171.5,449 171.5,356.9 198.8,356.9 198.8,391.5 254.7,356.9 291.9,356.9 
		229.1,398.3 294.2,449 258.6,449 208.1,410.9 	"/>
	<path fill="#1D1D1B" d="M49.1,462.4h10.8c6.8,0,11.7,3,11.7,9c0,7.4-6.8,9.3-12.5,9.3h-10V462.4L49.1,462.4z M51.8,478.7h7.7
		c2.2,0,9.4-0.2,9.4-7.4c0-5.3-4.5-6.9-9-6.9h-8.2L51.8,478.7L51.8,478.7z"/>
	<path fill="#1D1D1B" d="M87.2,462c7.4,0,12.8,3.6,12.8,9.7c0,6.5-6.5,9.5-12.8,9.5s-12.8-3-12.8-9.5C74.4,465.6,79.8,462,87.2,462
		L87.2,462z M87.2,479.1c5.3,0,10.1-2.4,10.1-7.9c0-4.1-3.8-7.4-10.1-7.4c-6.3,0-10.1,3.4-10.1,7.4
		C77.1,476.8,81.8,479.1,87.2,479.1L87.2,479.1z"/>
	<polygon fill="#1D1D1B" points="104.3,462.4 108,462.4 124.3,477.4 124.3,462.4 127,462.4 127,480.7 124.3,480.7 106.8,464.4 
		106.8,480.7 104.3,480.7 	"/>
	<polygon fill="#1D1D1B" points="132.7,462.4 136.5,462.4 152.7,477.4 152.7,462.4 155.4,462.4 155.4,480.7 152.7,480.7 
		135.2,464.4 135.2,480.7 132.7,480.7 	"/>
	<path fill="#1D1D1B" d="M170,462.4h3.2l11.2,18.2h-3l-2.8-4.7h-14.1l-2.9,4.7h-2.9L170,462.4L170,462.4z M177.5,474l-5.9-9.8
		l-5.9,9.8H177.5L177.5,474z"/>
	<polygon fill="#1D1D1B" points="198.7,462.4 201.4,462.4 201.4,472.1 216.3,462.4 220.3,462.4 209.7,469.3 221.9,480.7 
		218.4,480.7 207.6,470.6 201.4,474.7 201.4,480.7 198.7,480.7 	"/>
	<path fill="#1D1D1B" d="M234.4,462.4h3.3l11.2,18.2h-3l-2.8-4.7H229l-2.9,4.7h-2.9L234.4,462.4L234.4,462.4z M241.9,474l-5.9-9.8
		l-5.9,9.8H241.9L241.9,474z"/>
	<path fill="#1D1D1B" d="M252.2,462.4h12.6c3.5,0,8.6,0.6,8.6,5.1c0,3.8-4.2,4.9-6.9,5l7.2,8.1h-3.3l-7-8.1h-8.6v8.1h-2.6
		L252.2,462.4L252.2,462.4z M254.9,470.6h9.4c3.8,0,6.7-0.5,6.7-3.1c0-2.7-2.9-3.1-6.7-3.1h-9.4V470.6L254.9,470.6z"/>
	<path fill="#1D1D1B" d="M287.9,462.4h3.2l11.2,18.2h-3l-2.8-4.7h-14.1l-2.9,4.7h-2.9L287.9,462.4L287.9,462.4z M295.4,474l-5.9-9.8
		l-5.9,9.8H295.4L295.4,474z"/>
	<polygon fill="#1D1D1B" points="305.7,462.4 309.5,462.4 325.8,477.4 325.8,462.4 328.4,462.4 328.4,480.7 325.8,480.7 
		308.2,464.4 308.2,480.7 305.7,480.7 	"/>
	<polygon fill="#1D1D1B" points="345,462.4 348.8,462.4 365,477.4 365,462.4 367.7,462.4 367.7,480.7 365,480.7 347.5,464.4 
		347.5,480.7 345,480.7 	"/>
	<polygon fill="#1D1D1B" points="373.4,462.4 392.9,462.4 392.9,464.4 376,464.4 376,470.2 390.1,470.2 390.1,472.2 376,472.2 
		376,478.7 393.3,478.7 393.3,480.7 373.4,480.7 	"/>
	<polygon fill="#1D1D1B" points="394.3,462.4 397.1,462.4 402.3,477.2 402.3,477.2 407.7,462.4 410.2,462.4 415.6,477.1 
		415.7,477.1 420.9,462.4 423.7,462.4 416.9,480.7 414.4,480.7 409.1,465.8 409,465.8 403.6,480.7 401.1,480.7 	"/>
	<polygon fill="#1D1D1B" points="443.9,473.3 432.6,462.4 436.1,462.4 445.3,471.3 454.4,462.4 457.9,462.4 446.6,473.3 
		446.6,480.7 443.9,480.7 	"/>
	<path fill="#1D1D1B" d="M471.7,462c7.4,0,12.8,3.6,12.8,9.7c0,6.5-6.5,9.5-12.8,9.5s-12.8-3-12.8-9.5
		C458.9,465.6,464.3,462,471.7,462L471.7,462z M471.7,479.1c5.3,0,10.1-2.4,10.1-7.9c0-4.1-3.8-7.4-10.1-7.4
		c-6.3,0-10.1,3.4-10.1,7.4C461.6,476.8,466.3,479.1,471.7,479.1L471.7,479.1z"/>
	<path fill="#1D1D1B" d="M488.8,462.4h12.6c3.5,0,8.6,0.6,8.6,5.1c0,3.8-4.2,4.9-6.9,5l7.2,8.1H507l-7-8.1h-8.6v8.1h-2.7
		L488.8,462.4L488.8,462.4z M491.4,470.6h9.4c3.8,0,6.7-0.5,6.7-3.1c0-2.7-2.9-3.1-6.7-3.1h-9.4V470.6L491.4,470.6z"/>
	<polygon fill="#1D1D1B" points="515.5,462.4 518.2,462.4 518.2,472.1 533.1,462.4 537.2,462.4 526.5,469.3 538.8,480.7 
		535.2,480.7 524.4,470.6 518.2,474.7 518.2,480.7 515.5,480.7 	"/>
</g>
</svg>
