<?xml version="1.0" encoding="utf-8"?>
<!-- Generator: Adobe Illustrator 17.1.0, SVG Export Plug-In . SVG Version: 6.00 Build 0)  -->
<!DOCTYPE svg PUBLIC "-//W3C//DTD SVG 1.1//EN" "http://www.w3.org/Graphics/SVG/1.1/DTD/svg11.dtd">
<svg version="1.1" id="Calque_1" xmlns="http://www.w3.org/2000/svg" xmlns:xlink="http://www.w3.org/1999/xlink" x="0px" y="0px"
	 viewBox="0 0 595.3 841.9" enable-background="new 0 0 595.3 841.9" xml:space="preserve">
<g>
	<path fill="#1D1D1B" d="M102.6-705.9l-3.8-2.7l-0.6-0.4l-0.4,0.6c-5.5,7.5-14.5,11.9-24.6,11.9c-15.9,0-28.9-11.3-28.9-25.1
		c0-13.9,13-25.1,28.9-25.1c9.5,0,18.2,4,23.8,10.9l0.4,0.5l0.5-0.3l4.1-2.6l0.7-0.4l-0.5-0.6c-6.9-8.7-17.4-13.6-28.9-13.6
		c-19.2,0-34.8,14.1-34.8,31.3c0,17.3,15.6,31.3,34.8,31.3c11.9,0,22.9-5.4,29.4-14.5l0.4-0.6L102.6-705.9z"/>
	<path fill="#1D1D1B" d="M152.6-696.9c-15.9,0-28.9-11.3-28.9-25.1c0-13.8,13-25.1,28.9-25.1s28.9,11.3,28.9,25.1
		C181.5-708.1,168.6-696.9,152.6-696.9 M152.6-753.6c-19.4,0-35.2,14.2-35.2,31.7c0,17.5,15.8,31.7,35.2,31.7s35.2-14.2,35.2-31.7
		C187.8-739.4,172-753.6,152.6-753.6"/>
	<path fill="#1D1D1B" d="M295.5-744.3c-5-5-12.6-7.9-20.5-7.9c-9.6,0-18.6,4.4-23.5,11.2c-4.5-6.8-13.5-11.2-23.2-11.2
		c-7.9,0-15.2,2.9-20.3,7.8v-6.4h-6v19.7v38.8v0.7h5.9V-731c0-7.2,7.8-15,20.3-15c12.6,0,20.3,7.8,20.3,15v39.5h5.9V-731
		c0-7.2,7.8-15,20.4-15c12.6,0,20.3,7.8,20.3,15v39.5h5.9V-731C301.2-736,299.2-740.6,295.5-744.3"/>
	<path fill="#1D1D1B" d="M392.7-752.2c-9.6,0-18.6,4.4-23.5,11.2c-4.5-6.8-13.5-11.2-23.2-11.2c-7.9,0-15.1,2.9-20.3,7.8v-6.3h-5.9
		v59.3h5.9V-731c0-7.2,7.8-15,20.3-15c12.6,0,20.3,7.8,20.3,15v39.5h5.9V-731c0-7.2,7.8-15,20.4-15s20.3,7.8,20.3,15v39.5h5.9V-731
		C419-742.7,407.2-752.2,392.7-752.2"/>
	<path fill="#1D1D1B" d="M490.4-724.9v14.7c-3.8,8.4-14.6,13.4-29.1,13.4c-12.4,0-19.2-5.6-19.2-10.9c0-8.1,6.7-10.3,18.4-11.4
		c1.7-0.2,3.5-0.3,5.4-0.5c3.7-0.3,7.5-0.6,11.2-1.2C482.8-721.6,487-722.9,490.4-724.9 M498.6-693.5c-1.3-3-1.9-7.2-1.9-10.1v-29.9
		c0-12.7-10.8-20.2-28.8-20.2c-10.3,0-24,4.4-28.3,16.8l-0.3,0.9h6.7l0.2-0.4c4-8,14.2-10.8,21.7-10.8c14.5,0,22.2,4.9,22.4,14.2
		c-2.4,2.7-6.4,4.4-12.6,5.5c-3.7,0.6-7.8,1-11.8,1.3c-2.1,0.2-4.3,0.4-6.4,0.6c-11.5,1.2-23.8,3.7-23.8,17.9
		c0,11.5,12.8,17.4,25.5,17.4c5.8,0,19.8-0.9,29.3-9.1c0.2,2.2,0.7,4.4,1.5,6.6l0.2,0.5h0.5l5.3-0.3h1L498.6-693.5z"/>
	<path fill="#1D1D1B" d="M553.8-691.7c0.9-1.6,1.7-3.3,1.7-5.4c0-5.2,0-26.4,0-26.4s0-6.1-6.1-6.1h-24.1c0,0-6.1,0-6.1,6.1v26.4
		c0,0,0,6.1,6.1,6.1h5.3l-6.4,13.8c0,0-1.9,4.2,2.6,4.2c0,0,7.4,0,8.2,0c0.8,0,4,0.1,7.3-3.6C544.1-678.6,549.9-685,553.8-691.7z"/>
</g>
<g id="Drykorn_Logotype_01251010_1_">
	<path id="DRYKORN" fill="#1A1A18" d="M49,330.3h28.2c16,0,28.9,9.5,28.9,27.1v109.1c0,19.7-13,28.9-29.6,28.9H49V330.3z
		 M75.6,476.4c8.3,0,10.2-6.2,10.2-11.6V359.3c0-5.6-3-10.2-10.2-10.2h-6.3v127.3L75.6,476.4L75.6,476.4z M117.5,330.3h25.7
		c19.4,0,31.9,12.3,31.9,45.4c0,24.3-6.2,34.3-11.1,38.7l12.3,81h-20.4l-10.2-74.6h-7.9v74.6h-20.4L117.5,330.3L117.5,330.3z
		 M144.3,405.1c6.2,0,10-8.6,10-27.5c0-16.4-2.1-28.5-11.6-28.5h-4.9v56H144.3z M199.3,427.1l-21.5-96.8h21.5l11.1,63.7l10.4-63.7
		h19.7l-21.1,97.2v67.8h-20.1L199.3,427.1L199.3,427.1z M248.1,330.3h20.4v74.5l19.2-74.5h20.1l-18.1,62l18.5,103h-20.4l-12.5-80.4
		l-6.9,22.5v57.9H248L248.1,330.3L248.1,330.3z M313.4,466V358.1c0-19.2,12-30.1,29.6-30.1c17.6,0,29.2,10.4,29.2,29.2v109.1
		c0,20.1-11.6,31-29.6,31C322.4,497.3,313.4,485.5,313.4,466z M351.6,467.2V356.7c0-5.1-2.5-9.3-8.8-9.3c-6.5,0-8.8,4.9-8.8,9v110.9
		c0,4.6,2.3,10.4,8.8,10.4C350.2,477.8,351.6,471.8,351.6,467.2z M383.5,330.3h25.7c19.4,0,31.9,12.3,31.9,45.4
		c0,24.3-6.3,34.3-11.1,38.7l12.3,81H422l-10.2-74.6h-7.9v74.6h-20.4V330.3z M410.4,405.1c6.2,0,10-8.6,10-27.5
		c0-16.4-2.1-28.5-11.6-28.5h-4.9v56H410.4z M452.3,330.3H475l20.8,101.2h0.7V330.3h17.6v165.1h-20.4l-23.1-112.8h-0.7v112.8h-17.6
		L452.3,330.3L452.3,330.3z"/>
	<path id="Registered_Trademark" fill="#1A1A18" d="M526.9,334.5h5.5c2.4,0,4.5,1.3,4.5,3.9c0,1.6-0.8,3-2.4,3.7l2.8,4.9H534
		l-2.5-4.5H530v4.5h-3.1V334.5z M532,340.2c1.1,0,1.8-0.6,1.8-1.6c0-1.2-0.8-1.7-1.8-1.7h-2v3.3L532,340.2L532,340.2z M531.5,329.6
		c-6.3,0-11.4,5.1-11.4,11.4s5.1,11.4,11.4,11.4s11.4-5.1,11.4-11.4S537.8,329.6,531.5,329.6z M531.5,349.7c-4.8,0-8.7-3.9-8.7-8.7
		s3.9-8.7,8.7-8.7c4.8,0,8.7,3.9,8.7,8.7C540.2,345.8,536.3,349.7,531.5,349.7z"/>
</g>
</svg>
