<?xml version="1.0" encoding="utf-8"?>
<!-- Generator: Adobe Illustrator 17.1.0, SVG Export Plug-In . SVG Version: 6.00 Build 0)  -->
<!DOCTYPE svg PUBLIC "-//W3C//DTD SVG 1.1//EN" "http://www.w3.org/Graphics/SVG/1.1/DTD/svg11.dtd">
<svg version="1.1" id="Calque_1" xmlns="http://www.w3.org/2000/svg" xmlns:xlink="http://www.w3.org/1999/xlink" x="0px" y="0px"
	 viewBox="0 0 595.3 841.9" enable-background="new 0 0 595.3 841.9" xml:space="preserve">
<g>
	<path fill="#1D1D1B" d="M102.6-705.9l-3.8-2.7l-0.6-0.4l-0.4,0.6c-5.5,7.5-14.5,11.9-24.6,11.9c-15.9,0-28.9-11.3-28.9-25.1
		c0-13.9,13-25.1,28.9-25.1c9.5,0,18.2,4,23.8,10.9l0.4,0.5l0.5-0.3l4.1-2.6l0.7-0.4l-0.5-0.6c-6.9-8.7-17.4-13.6-28.9-13.6
		c-19.2,0-34.8,14.1-34.8,31.3c0,17.3,15.6,31.3,34.8,31.3c11.9,0,22.9-5.4,29.4-14.5l0.4-0.6L102.6-705.9z"/>
	<path fill="#1D1D1B" d="M152.6-696.9c-15.9,0-28.9-11.3-28.9-25.1c0-13.8,13-25.1,28.9-25.1s28.9,11.3,28.9,25.1
		C181.5-708.1,168.6-696.9,152.6-696.9 M152.6-753.6c-19.4,0-35.2,14.2-35.2,31.7c0,17.5,15.8,31.7,35.2,31.7s35.2-14.2,35.2-31.7
		S172-753.6,152.6-753.6"/>
	<path fill="#1D1D1B" d="M295.5-744.3c-5-5-12.6-7.9-20.5-7.9c-9.6,0-18.6,4.4-23.5,11.2c-4.5-6.8-13.5-11.2-23.2-11.2
		c-7.9,0-15.2,2.9-20.3,7.8v-6.4h-6v19.7v38.8v0.7h5.9V-731c0-7.2,7.8-15,20.3-15c12.6,0,20.3,7.8,20.3,15v39.5h5.9V-731
		c0-7.2,7.8-15,20.4-15c12.6,0,20.3,7.8,20.3,15v39.5h5.9V-731C301.2-736,299.2-740.6,295.5-744.3"/>
	<path fill="#1D1D1B" d="M392.7-752.2c-9.6,0-18.6,4.4-23.5,11.2c-4.5-6.8-13.5-11.2-23.2-11.2c-7.9,0-15.1,2.9-20.3,7.8v-6.3h-5.9
		v59.3h5.9V-731c0-7.2,7.8-15,20.3-15c12.6,0,20.3,7.8,20.3,15v39.5h5.9V-731c0-7.2,7.8-15,20.4-15s20.3,7.8,20.3,15v39.5h5.9V-731
		C419-742.7,407.2-752.2,392.7-752.2"/>
	<path fill="#1D1D1B" d="M490.4-724.9v14.7c-3.8,8.4-14.6,13.4-29.1,13.4c-12.4,0-19.2-5.6-19.2-10.9c0-8.1,6.7-10.3,18.4-11.4
		c1.7-0.2,3.5-0.3,5.4-0.5c3.7-0.3,7.5-0.6,11.2-1.2C482.8-721.6,487-722.9,490.4-724.9 M498.6-693.5c-1.3-3-1.9-7.2-1.9-10.1v-29.9
		c0-12.7-10.8-20.2-28.8-20.2c-10.3,0-24,4.4-28.3,16.8l-0.3,0.9h6.7l0.2-0.4c4-8,14.2-10.8,21.7-10.8c14.5,0,22.2,4.9,22.4,14.2
		c-2.4,2.7-6.4,4.4-12.6,5.5c-3.7,0.6-7.8,1-11.8,1.3c-2.1,0.2-4.3,0.4-6.4,0.6c-11.5,1.2-23.8,3.7-23.8,17.9
		c0,11.5,12.8,17.4,25.5,17.4c5.8,0,19.8-0.9,29.3-9.1c0.2,2.2,0.7,4.4,1.5,6.6l0.2,0.5h0.5l5.3-0.3h1L498.6-693.5z"/>
	<path fill="#1D1D1B" d="M553.8-691.7c0.9-1.6,1.7-3.3,1.7-5.4c0-5.2,0-26.4,0-26.4s0-6.1-6.1-6.1h-24.1c0,0-6.1,0-6.1,6.1v26.4
		c0,0,0,6.1,6.1,6.1h5.3l-6.4,13.8c0,0-1.9,4.2,2.6,4.2c0,0,7.4,0,8.2,0c0.8,0,4,0.1,7.3-3.6C544.1-678.6,549.9-685,553.8-691.7z"/>
</g>
<g>
	<path d="M400.4,419.2c0,16.5,13.4,29.9,29.9,29.9c9.8,0,18.5-4.7,23.9-11.9v15.3c-6.7,4.8-15,7.7-23.9,7.7c-22.7,0-41-18.4-41-41
		s18.4-41,41-41c8.9,0,17.2,2.8,23.9,7.7v15.3c-5.5-7.2-14.1-11.9-23.9-11.9C413.8,389.3,400.4,402.7,400.4,419.2L400.4,419.2z
		 M530.9,385.3c5.6,0,10.5-4.6,10.5-10.4c0-5.8-4.8-10.4-10.5-10.4c-5.6,0-10.5,4.6-10.5,10.4C520.4,380.7,525.3,385.3,530.9,385.3
		L530.9,385.3z M530.9,387.1c-6.9,0-12.4-5.5-12.4-12.3c0-6.8,5.5-12.3,12.4-12.3c6.9,0,12.4,5.5,12.4,12.3
		C543.3,381.7,537.8,387.1,530.9,387.1L530.9,387.1z M528.2,373.4h2.3c1.7,0,4.6,0.3,4.6-1.8c0-1.4-1.8-1.6-3.3-1.6h-3.6V373.4
		L528.2,373.4z M532.7,375.3l4.1,6.2h-2.3l-4-6.2h-2.3v6.2h-1.9V368h5.9c2.4,0,4.8,0.7,4.8,3.6C537,374.3,535.1,375.2,532.7,375.3
		L532.7,375.3z M509.4,426.2l-10.7-24.5l-11.2,24.5H509.4L509.4,426.2z M514,436.8l-31.1-0.1l-10.3,22.5h-12.9l39.2-85.3l37.9,85.3
		h-13.1L514,436.8L514,436.8z M377.9,379.9v79.3h-12v-79.3L377.9,379.9L377.9,379.9z M340,421.5v1v36.8h-12v-36.8v-1H340L340,421.5z
		 M269.9,421.5v1V448h31.8v11.2h-43.8v-36.8v-1L269.9,421.5L269.9,421.5z M213.7,421.5l0.4,1l4.7,12.4l4.4-12.4l0.3-1h11.9l-0.4,1
		l-16.5,42.7l-16.8-42.7l-0.4-1H213.7L213.7,421.5z M132.3,421.5v1v5.3c0,6.8,1.1,11.8,3.3,14.9c3.3,4.6,8,6.8,14,6.8
		c6.1,0,10.8-2.3,14.1-6.8c2.2-3,3.3-8,3.3-14.9v-5.3v-1h12v1v8.5c0,8.4-2.6,15.2-7.8,20.6c-5.9,6-13,9-21.6,9c-8.5,0-15.7-3-21.5-9
		c-5.2-5.4-7.8-12.3-7.8-20.6v-8.5v-1H132.3L132.3,421.5z M49,422.4v-1h12v1V448h5.4c5.4,0,9.8-0.6,13.4-1.7
		c3.6-1.2,6.8-3.1,9.7-5.7c5.2-4.8,8.1-10.8,8.7-18.1l0.1-1h12.1v1c-0.6,10.9-4.9,19.8-12.7,26.7c-4.3,3.8-8.8,6.4-13.5,7.9
		c-4.4,1.5-10.6,2.2-18.6,2.2H49V422.4L49,422.4z"/>
	<path d="M340,391.1v30.3h-12v-30.3h-18.2v-11.2h48.4v11.2H340L340,391.1z M301.7,391.1h-31.8v19.1h30.9v11.2h-30.9h-12v-41.6h43.8
		V391.1L301.7,391.1z M223.6,421.5l14.9-41.6h13.1l-16.1,41.6H223.6L223.6,421.5z M198.1,379.9l15.6,41.6h-12.4L185,379.9H198.1
		L198.1,379.9z M167.1,421.5v-41.6h12v41.6H167.1L167.1,421.5z M132.3,379.9v41.6h-12v-41.6H132.3L132.3,379.9z M49,421.5v-41.6
		h16.6c8,0,14.3,0.8,18.9,2.4c5,1.5,9.5,4.2,13.5,7.9c8.2,7.5,12.3,17.3,12.3,29.4c0,0.6,0,1.3,0,1.9H98.2c0-0.6,0-1.3,0-1.9
		c0-8.7-2.9-15.7-8.7-21.2c-5.2-4.8-13-7.2-23.2-7.2H61v30.3L49,421.5L49,421.5z"/>
	<path d="M340,391.1v30.3h-12v-30.3h-18.2v-11.2h48.4v11.2H340L340,391.1z M301.7,391.1h-31.8v19.1h30.9v11.2h-30.9h-12v-41.6h43.8
		V391.1L301.7,391.1z M223.6,421.5l14.9-41.6h13.1l-16.1,41.6H223.6L223.6,421.5z M198.1,379.9l15.6,41.6h-12.4L185,379.9H198.1
		L198.1,379.9z M167.1,421.5v-41.6h12v41.6H167.1L167.1,421.5z M132.3,379.9v41.6h-12v-41.6H132.3L132.3,379.9z M49,421.5v-41.6
		h16.6c8,0,14.3,0.8,18.9,2.4c5,1.5,9.5,4.2,13.5,7.9c8.2,7.5,12.3,17.3,12.3,29.4c0,0.6,0,1.3,0,1.9H98.2c0-0.6,0-1.3,0-1.9
		c0-8.7-2.9-15.7-8.7-21.2c-5.2-4.8-13-7.2-23.2-7.2H61v30.3L49,421.5L49,421.5z"/>
</g>
</svg>
