<?xml version="1.0" encoding="utf-8"?>
<!-- Generator: Adobe Illustrator 17.1.0, SVG Export Plug-In . SVG Version: 6.00 Build 0)  -->
<!DOCTYPE svg PUBLIC "-//W3C//DTD SVG 1.1//EN" "http://www.w3.org/Graphics/SVG/1.1/DTD/svg11.dtd">
<svg version="1.1" id="Calque_1" xmlns="http://www.w3.org/2000/svg" xmlns:xlink="http://www.w3.org/1999/xlink" x="0px" y="0px"
	 viewBox="0 0 595.3 841.9" enable-background="new 0 0 595.3 841.9" xml:space="preserve">
<g>
	<path fill="#1D1D1B" d="M102.6-705.9l-3.8-2.7l-0.6-0.4l-0.4,0.6c-5.5,7.5-14.5,11.9-24.6,11.9c-15.9,0-28.9-11.3-28.9-25.1
		c0-13.9,13-25.1,28.9-25.1c9.5,0,18.2,4,23.8,10.9l0.4,0.5l0.5-0.3l4.1-2.6l0.7-0.4l-0.5-0.6c-6.9-8.7-17.4-13.6-28.9-13.6
		c-19.2,0-34.8,14.1-34.8,31.3c0,17.3,15.6,31.3,34.8,31.3c11.9,0,22.9-5.4,29.4-14.5l0.4-0.6L102.6-705.9z"/>
	<path fill="#1D1D1B" d="M152.6-696.9c-15.9,0-28.9-11.3-28.9-25.1c0-13.8,13-25.1,28.9-25.1s28.9,11.3,28.9,25.1
		C181.5-708.1,168.6-696.9,152.6-696.9 M152.6-753.6c-19.4,0-35.2,14.2-35.2,31.7c0,17.5,15.8,31.7,35.2,31.7s35.2-14.2,35.2-31.7
		C187.8-739.4,172-753.6,152.6-753.6"/>
	<path fill="#1D1D1B" d="M295.5-744.3c-5-5-12.6-7.9-20.5-7.9c-9.6,0-18.6,4.4-23.5,11.2c-4.5-6.8-13.5-11.2-23.2-11.2
		c-7.9,0-15.2,2.9-20.3,7.8v-6.4h-6v19.7v38.8v0.7h5.9V-731c0-7.2,7.8-15,20.3-15c12.6,0,20.3,7.8,20.3,15v39.5h5.9V-731
		c0-7.2,7.8-15,20.4-15c12.6,0,20.3,7.8,20.3,15v39.5h5.9V-731C301.2-736,299.2-740.6,295.5-744.3"/>
	<path fill="#1D1D1B" d="M392.7-752.2c-9.6,0-18.6,4.4-23.5,11.2c-4.5-6.8-13.5-11.2-23.2-11.2c-7.9,0-15.1,2.9-20.3,7.8v-6.3h-5.9
		v59.3h5.9V-731c0-7.2,7.8-15,20.3-15c12.6,0,20.3,7.8,20.3,15v39.5h5.9V-731c0-7.2,7.8-15,20.4-15s20.3,7.8,20.3,15v39.5h5.9V-731
		C419-742.7,407.2-752.2,392.7-752.2"/>
	<path fill="#1D1D1B" d="M490.4-724.9v14.7c-3.8,8.4-14.6,13.4-29.1,13.4c-12.4,0-19.2-5.6-19.2-10.9c0-8.1,6.7-10.3,18.4-11.4
		c1.7-0.2,3.5-0.3,5.4-0.5c3.7-0.3,7.5-0.6,11.2-1.2C482.8-721.6,487-722.9,490.4-724.9 M498.6-693.5c-1.3-3-1.9-7.2-1.9-10.1v-29.9
		c0-12.7-10.8-20.2-28.8-20.2c-10.3,0-24,4.4-28.3,16.8l-0.3,0.9h6.7l0.2-0.4c4-8,14.2-10.8,21.7-10.8c14.5,0,22.2,4.9,22.4,14.2
		c-2.4,2.7-6.4,4.4-12.6,5.5c-3.7,0.6-7.8,1-11.8,1.3c-2.1,0.2-4.3,0.4-6.4,0.6c-11.5,1.2-23.8,3.7-23.8,17.9
		c0,11.5,12.8,17.4,25.5,17.4c5.8,0,19.8-0.9,29.3-9.1c0.2,2.2,0.7,4.4,1.5,6.6l0.2,0.5h0.5l5.3-0.3h1L498.6-693.5z"/>
	<path fill="#1D1D1B" d="M553.8-691.7c0.9-1.6,1.7-3.3,1.7-5.4c0-5.2,0-26.4,0-26.4s0-6.1-6.1-6.1h-24.1c0,0-6.1,0-6.1,6.1v26.4
		c0,0,0,6.1,6.1,6.1h5.3l-6.4,13.8c0,0-1.9,4.2,2.6,4.2c0,0,7.4,0,8.2,0c0.8,0,4,0.1,7.3-3.6C544.1-678.6,549.9-685,553.8-691.7z"/>
</g>
<polygon fill="#1D1D1B" points="58.8,437.1 58.8,423.4 50.2,423.4 50.2,416.8 58.8,416.8 58.8,402.4 99.2,402.4 99.2,437.1 
	89.7,437.1 89.7,409.2 69.2,409.2 69.2,417.3 87.1,417.3 87.1,423.6 69.2,423.6 69.2,437.1 "/>
<path fill="#1D1D1B" d="M107.7,408.3"/>
<path fill="#1D1D1B" d="M139.1,437.1v-24.9h9v4.2c0,0,3.6-4.8,11.8-4.7h9.5v25.4h-9.5v-18.6c0,0-9.7-1.8-11.4,6.3v12.3L139.1,437.1
	L139.1,437.1z"/>
<rect x="159.8" y="402.9" fill="#1D1D1B" width="9.5" height="5.8"/>
<path fill="#1D1D1B" d="M193.1,419.1h8.6c0,0,1.2-3.8-5.9-6.8c0,0-3-1.5-9.6-1.4c0,0-6.8,0-10.3,2.2c0,0-3.3,1.6-3.6,5.6
	c0,0-0.2,4.7,6.4,6.1l11.5,2.7c0,0,3.4,0.6,3.3,2.2c0,0-0.1,3.1-6.2,2.9c0,0-6.3,0.3-6.7-3.9h-9c0,0-0.4,4.2,5.2,6.6
	c0,0,3.2,1.8,11.3,1.8c0,0,8,0.2,11.4-2.3c0,0,3.8-2.4,3.3-6.8c0,0-0.2-3.8-7.9-5.6l-11.1-2.4c0,0-2-0.6-2-2.1c0-1.4,1-2,2.6-2.2
	C184.4,415.7,193.1,414.9,193.1,419.1z"/>
<polygon fill="#1D1D1B" points="230.1,437.1 219.7,437.1 208.2,412 218,412 225.3,429.2 232.4,412.2 242,412.2 "/>
<g>
	<path fill="#1D1D1B" d="M292.6,417.1c-1.6-5.6-11.4-5.5-11.4-5.5c-7.2,0-10.6,4.1-10.6,4.1c-1.6-3.9-13.7-4.2-13.7-4.2
		c-7.4-0.1-10.4,1.6-10.4,1.6c-6,2.9-5.8,7-5.8,7h9.5c0.7-4.3,6.8-3.6,6.8-3.6c5.2,0,5.2,2.7,5.2,2.7c0.1,2.7-3.9,2.9-3.9,2.9
		l-6,0.7c-9.8,1-11.3,3.7-11.3,3.7c-3.4,4.6,0.7,8.5,0.7,8.5c2.7,2.6,9.9,2.1,9.9,2.1c8.6,0,11.4-2.3,11.4-2.3v2.3h9.8
		c-1.3-0.7-1-5-1-5v-10.4c0.4-4.7,6-4.5,6-4.5c5.9-0.2,6.2,4.6,6.2,4.6V437h9.1v-16C293.1,419.2,292.6,417.1,292.6,417.1z
		 M262.2,428.9c0,0,0,4.6-6.9,4.5c0,0-6.6,0-6.1-3.4c0,0,0.6-2.8,5.9-3.1c0,0,6.9-0.6,7.2-1.4v3.4H262.2z"/>
</g>
<g>
	<path fill="#1D1D1B" d="M378.2,423.7c-0.3-6.5-5.9-10.1-5.9-10.1c-3.6-3-11.1-3.1-11.1-3.1c-7.9,0.2-11.1,2.6-11.1,2.6
		c-7.4,4.8-6.7,10.6-6.7,10.6c0.1,13.9,17.8,13.3,17.8,13.3C379.6,437.1,378.2,423.7,378.2,423.7z M361,432.1c0,0-8.1,0.4-8.2-8.1
		c0,0-0.4-3.1,2.7-6c0,0,2-1.8,5.5-1.9c0,0,3.7-0.2,5.8,2.3c0,0,2,1.7,2,5.6C368.8,424,369.6,432.1,361,432.1z"/>
</g>
<g>
	<path fill="#1D1D1B" d="M136.5,423.7c-0.3-6.5-5.9-10.1-5.9-10.1c-3.6-3-11.1-3.1-11.1-3.1c-7.9,0.2-11.1,2.6-11.1,2.6
		c-7.4,4.8-6.7,10.6-6.7,10.6c0.1,13.9,17.8,13.3,17.8,13.3C137.9,437.1,136.5,423.7,136.5,423.7z M119.3,432.2c0,0-8.1,0.4-8.2-8.1
		c0,0-0.4-3.1,2.7-6c0,0,2-1.8,5.5-1.9c0,0,3.7-0.2,5.8,2.3c0,0,2,1.7,2,5.6C127.1,424,127.9,432.2,119.3,432.2z"/>
</g>
<g>
	<path fill="#1D1D1B" d="M342,427.5c0.4-6.7-7.9-8.8-7.9-8.8c6.7-2.2,6-7.3,6-7.3c-0.2-4.4-3.5-6.5-3.5-6.5
		c-2.9-2.4-9.6-2.4-9.6-2.4h-23.8V437h23.5c5.9,0.1,9.2-1,9.2-1C342.5,434.6,342,427.5,342,427.5z M313.4,408.7h11.4
		c0,0,5.1,0,5.3,4.1c0,0,0.5,3.9-6,3.7h-10.7L313.4,408.7L313.4,408.7z M325.2,431.3h-11.8V422H326c0,0,5.6,0,5.9,4.9
		C331.9,426.9,332.3,431.6,325.2,431.3z"/>
</g>
<path fill="#1D1D1B" d="M389.8,415.8v-3.6H381V437h9v-14.7c0,0,0.3-4.6,6.6-5.3c0,0,5.1,0.1,5.4,4.5v15.6h9.2v-14.8c0,0,1.1-5,6.2-5
	c0,0,5.7,0.2,5.7,4.6v15.2h9.2v-15c0,0,0.3-4.6,6.5-4.6c0,0,5.3,0,5.4,3.9V437h9.5v-15.5c0,0,0.3-4.2,6.5-4c0,0,4.6-0.3,5.3,3.7V437
	h9.6v-16.9c0,0,0.2-8.2-11.9-8.2c0,0-6.7-0.4-10.7,3.9c0,0-1.8-3.5-10-4c0,0-6.9-0.5-11.3,4c0,0-1.2-3.7-10.3-4.1
	c0,0-9-0.1-10.7,4.2c0,0-2-4-9.6-4.2C400.5,411.7,394,411.4,389.8,415.8z"/>
<rect x="512.7" y="402.7" fill="#1D1D1B" width="9.6" height="34.4"/>
<g>
	<path fill="#1D1D1B" d="M506.7,415.2c0,0-3.5-4.3-13.2-4.3c0,0-7,0-11.8,3.7c0,0-7.3,5.6-4,14c0,0,3,8.8,16.7,8.5
		c0,0,12.5,0.9,15.7-8.1h-8.2c0,0-1.3,3.1-7.4,3.1c0,0-8.1,0.5-8.1-5.9h24.3C510.5,426.1,511.3,420.2,506.7,415.2z M486.3,421.6
		c1.1-5.3,7.5-5.3,7.5-5.3c7.1,0.4,7.5,5.3,7.5,5.3H486.3z"/>
</g>
<g>
	<path fill="#1D1D1B" d="M537.1,408.8c-1.1,0-2.1-1.1-2.1-2.5s0.9-2.5,2.1-2.5c0.8,0,1.5,0.6,1.8,1.4h1.7c-0.3-1.6-1.3-2.7-3.5-2.8
		c-2.6-0.1-3.6,1.8-3.6,4c0,2.2,1,4,3.6,4c2.2,0,3.2-1.3,3.5-3H539C538.7,408.2,538,408.8,537.1,408.8z"/>
</g>
<g>
	<path fill="#1D1D1B" d="M537.2,399.5c-3.7,0-6.7,3-6.7,6.8s3,6.8,6.7,6.8s6.7-3,6.7-6.8C543.9,402.6,540.9,399.5,537.2,399.5z
		 M537.1,411.5c-2.7,0-4.9-2.4-4.9-5.3s2.2-5.3,4.9-5.3c2.7,0,4.9,2.4,4.9,5.3C541.9,409.1,539.8,411.5,537.1,411.5z"/>
</g>
</svg>
