<?xml version="1.0" encoding="utf-8"?>
<!-- Generator: Adobe Illustrator 17.1.0, SVG Export Plug-In . SVG Version: 6.00 Build 0)  -->
<!DOCTYPE svg PUBLIC "-//W3C//DTD SVG 1.1//EN" "http://www.w3.org/Graphics/SVG/1.1/DTD/svg11.dtd">
<svg version="1.1" id="Calque_1" xmlns="http://www.w3.org/2000/svg" xmlns:xlink="http://www.w3.org/1999/xlink" x="0px" y="0px"
	 viewBox="0 0 595.3 841.9" enable-background="new 0 0 595.3 841.9" xml:space="preserve">
<g>
	<path fill="#1D1D1B" d="M102.6-705.9l-3.8-2.7l-0.6-0.4l-0.4,0.6c-5.5,7.5-14.5,11.9-24.6,11.9c-15.9,0-28.9-11.3-28.9-25.1
		c0-13.9,13-25.1,28.9-25.1c9.5,0,18.2,4,23.8,10.9l0.4,0.5l0.5-0.3l4.1-2.6l0.7-0.4l-0.5-0.6c-6.9-8.7-17.4-13.6-28.9-13.6
		c-19.2,0-34.8,14.1-34.8,31.3c0,17.3,15.6,31.3,34.8,31.3c11.9,0,22.9-5.4,29.4-14.5l0.4-0.6L102.6-705.9z"/>
	<path fill="#1D1D1B" d="M152.6-696.9c-15.9,0-28.9-11.3-28.9-25.1c0-13.8,13-25.1,28.9-25.1s28.9,11.3,28.9,25.1
		C181.5-708.1,168.6-696.9,152.6-696.9 M152.6-753.6c-19.4,0-35.2,14.2-35.2,31.7c0,17.5,15.8,31.7,35.2,31.7s35.2-14.2,35.2-31.7
		S172-753.6,152.6-753.6"/>
	<path fill="#1D1D1B" d="M295.5-744.3c-5-5-12.6-7.9-20.5-7.9c-9.6,0-18.6,4.4-23.5,11.2c-4.5-6.8-13.5-11.2-23.2-11.2
		c-7.9,0-15.2,2.9-20.3,7.8v-6.4h-6v19.7v38.8v0.7h5.9V-731c0-7.2,7.8-15,20.3-15c12.6,0,20.3,7.8,20.3,15v39.5h5.9V-731
		c0-7.2,7.8-15,20.4-15c12.6,0,20.3,7.8,20.3,15v39.5h5.9V-731C301.2-736,299.2-740.6,295.5-744.3"/>
	<path fill="#1D1D1B" d="M392.7-752.2c-9.6,0-18.6,4.4-23.5,11.2c-4.5-6.8-13.5-11.2-23.2-11.2c-7.9,0-15.1,2.9-20.3,7.8v-6.3h-5.9
		v59.3h5.9V-731c0-7.2,7.8-15,20.3-15c12.6,0,20.3,7.8,20.3,15v39.5h5.9V-731c0-7.2,7.8-15,20.4-15s20.3,7.8,20.3,15v39.5h5.9V-731
		C419-742.7,407.2-752.2,392.7-752.2"/>
	<path fill="#1D1D1B" d="M490.4-724.9v14.7c-3.8,8.4-14.6,13.4-29.1,13.4c-12.4,0-19.2-5.6-19.2-10.9c0-8.1,6.7-10.3,18.4-11.4
		c1.7-0.2,3.5-0.3,5.4-0.5c3.7-0.3,7.5-0.6,11.2-1.2C482.8-721.6,487-722.9,490.4-724.9 M498.6-693.5c-1.3-3-1.9-7.2-1.9-10.1v-29.9
		c0-12.7-10.8-20.2-28.8-20.2c-10.3,0-24,4.4-28.3,16.8l-0.3,0.9h6.7l0.2-0.4c4-8,14.2-10.8,21.7-10.8c14.5,0,22.2,4.9,22.4,14.2
		c-2.4,2.7-6.4,4.4-12.6,5.5c-3.7,0.6-7.8,1-11.8,1.3c-2.1,0.2-4.3,0.4-6.4,0.6c-11.5,1.2-23.8,3.7-23.8,17.9
		c0,11.5,12.8,17.4,25.5,17.4c5.8,0,19.8-0.9,29.3-9.1c0.2,2.2,0.7,4.4,1.5,6.6l0.2,0.5h0.5l5.3-0.3h1L498.6-693.5z"/>
	<path fill="#1D1D1B" d="M553.8-691.7c0.9-1.6,1.7-3.3,1.7-5.4c0-5.2,0-26.4,0-26.4s0-6.1-6.1-6.1h-24.1c0,0-6.1,0-6.1,6.1v26.4
		c0,0,0,6.1,6.1,6.1h5.3l-6.4,13.8c0,0-1.9,4.2,2.6,4.2c0,0,7.4,0,8.2,0c0.8,0,4,0.1,7.3-3.6C544.1-678.6,549.9-685,553.8-691.7z"/>
</g>
<g>
	<polygon fill="#1D1D1B" points="71.4,433.4 71.4,436.9 58.9,436.9 58.9,450.3 71.1,450.3 71.1,453.8 58.9,453.8 58.9,468.6 
		54,468.6 54,433.4 	"/>
	<path fill="#1D1D1B" d="M87.2,433.4H92v21.3c0,3.6,0.7,6.4,2.1,8.3s3.7,2.8,6.9,2.8c2.2,0,3.9-0.5,5.2-1.5s2.2-2.3,2.8-3.8
		c0.6-1.6,0.8-3.2,0.8-4.9v-22.1h4.6v22.2c0,2.6-0.5,5-1.6,7c-1,2-2.6,3.6-4.5,4.7c-2,1.1-4.4,1.7-7.2,1.7c-4.9,0-8.5-1.3-10.6-3.7
		c-2.2-2.5-3.3-6-3.2-10.5v-21.5H87.2z"/>
	<path fill="#1D1D1B" d="M160.3,436.4l-2,3c-0.9-0.7-2.1-1.4-3.8-2s-3.5-1-5.4-1c-2.9,0-5.4,0.7-7.4,1.9c-2.1,1.3-3.6,3-4.7,5.1
		c-1.1,2.2-1.6,4.6-1.7,7.4c0,3,0.7,5.6,1.9,7.8c1.2,2.2,2.9,3.9,4.9,5.2c2.1,1.2,4.4,1.9,7,1.9c1.9,0,3.6-0.3,5.1-0.8
		c1.5-0.5,2.8-1.1,3.8-1.8l1.9,2.9c-1.2,0.8-2.8,1.6-4.7,2.2s-4,1-6.3,1c-4.2,0-7.7-0.9-10.5-2.6s-4.9-3.9-6.3-6.6
		c-1.4-2.8-2.1-5.8-2.1-9c0-3,0.8-5.9,2.3-8.6c1.5-2.7,3.7-5,6.6-6.7c2.9-1.8,6.5-2.7,10.7-2.7c2.5,0,4.7,0.4,6.4,1.1
		C157.7,434.6,159.2,435.5,160.3,436.4L160.3,436.4z"/>
	<polygon fill="#1D1D1B" points="201.5,433.4 201.5,468.6 196.6,468.6 196.6,451.1 179.4,451.1 179.4,468.6 174.5,468.6 
		174.5,433.4 179.4,433.4 179.4,447.6 196.6,447.6 196.6,433.4 	"/>
	<path fill="#1D1D1B" d="M237.2,436.3l-2.3,2.5c-0.9-0.7-1.8-1.2-2.9-1.7c-1.1-0.5-2.1-0.8-3.2-0.8c-1.8,0-3.1,0.5-4.1,1.4
		c-0.9,0.9-1.4,2-1.4,3.4c0,1.2,0.5,2.4,1.6,3.5c1.1,1.1,2.8,2.5,5,4.1c2.4,1.7,4.3,3.5,5.6,5.2c1.3,1.8,2,3.8,2,6
		c0,1.9-0.6,3.5-1.6,4.9c-1,1.4-2.4,2.4-4,3.2c-1.6,0.8-3.4,1.1-5.3,1.1c-1.7,0-3.5-0.3-5.3-0.9s-3.3-1.5-4.6-2.8l2.2-2.9
		c1,0.8,2.1,1.5,3.3,2.1c1.2,0.6,2.6,0.9,4.3,1c1.8,0,3.2-0.5,4.4-1.4c1.1-0.9,1.7-2.4,1.8-4.4c0-1.5-0.5-2.8-1.5-3.9
		c-0.9-1.2-2-2.2-3.3-3.1s-2.4-1.7-3.4-2.4c-1-0.7-2-1.5-2.9-2.3c-0.9-0.8-1.7-1.8-2.3-2.9c-0.6-1.1-0.9-2.5-1-4.1
		c0-1.6,0.5-3,1.4-4.2c0.9-1.2,2.1-2.2,3.6-2.9c1.5-0.7,3.2-1.1,5-1.1s3.5,0.3,5,0.9C235,434.4,236.2,435.2,237.2,436.3L237.2,436.3
		z"/>
	<path fill="#1D1D1B" d="M293.7,436.3l-2.3,2.5c-0.9-0.7-1.8-1.2-2.9-1.7c-1.1-0.5-2.1-0.8-3.2-0.8c-1.8,0-3.1,0.5-4.1,1.4
		c-0.9,0.9-1.4,2-1.4,3.4c0,1.2,0.5,2.4,1.6,3.5s2.8,2.5,5,4.1c2.4,1.7,4.3,3.5,5.6,5.2c1.3,1.8,2,3.8,2,6c0,1.9-0.6,3.5-1.6,4.9
		c-1,1.4-2.4,2.4-4,3.2c-1.6,0.8-3.4,1.1-5.3,1.1c-1.7,0-3.5-0.3-5.3-0.9s-3.3-1.5-4.6-2.8l2.2-2.9c1,0.8,2.1,1.5,3.3,2.1
		c1.2,0.6,2.6,0.9,4.3,1c1.8,0,3.2-0.5,4.4-1.4c1.1-0.9,1.7-2.4,1.8-4.4c0-1.5-0.5-2.8-1.5-3.9c-0.9-1.2-2-2.2-3.3-3.1
		c-1.3-0.9-2.4-1.7-3.4-2.4c-1-0.7-2-1.5-2.9-2.3s-1.7-1.8-2.3-2.9c-0.6-1.1-0.9-2.5-1-4.1c0-1.6,0.5-3,1.4-4.2
		c0.9-1.2,2.1-2.2,3.6-2.9c1.5-0.7,3.2-1.1,5-1.1s3.5,0.3,5,0.9C291.5,434.4,292.7,435.2,293.7,436.3L293.7,436.3z"/>
	<path fill="#1D1D1B" d="M340,436.4l-2,3c-0.9-0.7-2.1-1.4-3.8-2c-1.7-0.6-3.5-1-5.4-1c-2.9,0-5.4,0.7-7.4,1.9
		c-2.1,1.3-3.6,3-4.7,5.1c-1.1,2.2-1.6,4.6-1.7,7.4c0,3,0.7,5.6,1.9,7.8c1.2,2.2,2.9,3.9,4.9,5.2c2.1,1.2,4.4,1.9,7,1.9
		c1.9,0,3.6-0.3,5.1-0.8c1.5-0.5,2.8-1.1,3.8-1.8l1.9,2.9c-1.2,0.8-2.8,1.6-4.7,2.2c-1.9,0.6-4,1-6.3,1c-4.2,0-7.7-0.9-10.5-2.6
		s-4.9-3.9-6.3-6.6c-1.4-2.8-2.1-5.8-2.1-9c0-3,0.8-5.9,2.3-8.6c1.5-2.7,3.7-5,6.6-6.7c2.9-1.8,6.5-2.7,10.7-2.7
		c2.5,0,4.7,0.4,6.4,1.1C337.4,434.6,338.9,435.5,340,436.4L340,436.4z"/>
	<polygon fill="#1D1D1B" points="381.1,433.4 381.1,468.6 376.3,468.6 376.3,451.1 359.1,451.1 359.1,468.6 354.2,468.6 
		354.2,433.4 359.1,433.4 359.1,447.6 376.3,447.6 376.3,433.4 	"/>
	<path fill="#1D1D1B" d="M437.2,433.4v35.1h-4.9V440h-0.1c-0.4,1.1-1.1,2.7-2.1,4.9s-2.3,4.7-3.7,7.5s-2.8,5.6-4.3,8.4
		c-1.5,2.8-2.8,5.4-4,7.7h-2c-1.1-2.3-2.3-4.8-3.7-7.6c-1.3-2.8-2.7-5.6-4-8.3c-1.3-2.8-2.4-5.3-3.4-7.5c-1-2.2-1.6-4-2-5.2l0,0
		v28.6h-4v-35.1h5.2c2.3,4.7,4.5,9.4,6.8,14.1c2.3,4.7,4.5,9.6,6.7,14.5c2.5-4.9,5-9.8,7.5-14.5c2.5-4.7,5-9.4,7.4-14.1H437.2
		L437.2,433.4z"/>
	<polygon fill="#1D1D1B" points="461.8,468.6 456.9,468.6 456.9,433.4 461.8,433.4 	"/>
	<polygon fill="#1D1D1B" points="491.8,468.6 486.9,468.6 486.9,436.9 475.7,436.9 475.7,433.4 503.1,433.4 503.1,436.9 
		491.8,436.9 	"/>
	<polygon fill="#1D1D1B" points="527.3,468.6 522.4,468.6 522.4,436.9 511.1,436.9 511.1,433.4 538.6,433.4 538.6,436.9 
		527.3,436.9 	"/>
	<polygon fill="#1D1D1B" points="253.1,303.8 296.6,349.2 339.4,303.9 296.3,403.5 	"/>
	<line fill="none" stroke="#1D1D1B" stroke-width="4.252" stroke-miterlimit="3.8637" x1="264" y1="381.7" x2="328.6" y2="381.7"/>
	<polygon fill="#1D1D1B" points="160.3,513.3 160.3,514.9 154.5,514.9 154.5,521.2 160.2,521.2 160.2,522.9 154.5,522.9 
		154.5,529.9 152.1,529.9 152.1,513.3 	"/>
	<polygon fill="#1D1D1B" points="176.7,513.3 176.7,514.9 170.8,514.9 170.8,520.3 176.6,520.3 176.6,522 170.8,522 170.8,528.2 
		177.8,528.2 177.8,529.9 168.5,529.9 168.5,513.3 	"/>
	<polygon fill="#1D1D1B" points="193.5,513.3 193.5,514.9 187.6,514.9 187.6,520.3 193.4,520.3 193.4,522 187.6,522 187.6,528.2 
		194.5,528.2 194.5,529.9 185.3,529.9 185.3,513.3 	"/>
	<polygon fill="#1D1D1B" points="202.1,529.9 202.1,513.3 204.4,513.3 204.4,528.2 211.3,528.2 211.3,529.9 	"/>
	<polygon fill="#1D1D1B" points="236,529.9 233.7,529.9 233.7,514.9 228.4,514.9 228.4,513.3 241.4,513.3 241.4,514.9 236,514.9 	
		"/>
	<polygon fill="#1D1D1B" points="261.2,513.3 261.2,529.9 258.9,529.9 258.9,521.6 250.8,521.6 250.8,529.9 248.5,529.9 
		248.5,513.3 250.8,513.3 250.8,520 258.9,520 258.9,513.3 	"/>
	<polygon fill="#1D1D1B" points="278.4,513.3 278.4,514.9 272.5,514.9 272.5,520.3 278.2,520.3 278.2,522 272.5,522 272.5,528.2 
		279.4,528.2 279.4,529.9 270.2,529.9 270.2,513.3 	"/>
	<path fill="#1D1D1B" d="M312.3,514.7l-0.9,1.4c-0.4-0.3-1-0.7-1.8-1s-1.6-0.5-2.5-0.5c-1.4,0-2.5,0.3-3.5,0.9
		c-1,0.6-1.7,1.4-2.2,2.4c-0.5,1-0.8,2.2-0.8,3.5c0,1.4,0.3,2.6,0.9,3.7c0.6,1.1,1.4,1.9,2.3,2.4c1,0.6,2.1,0.9,3.3,0.9
		c0.9,0,1.7-0.1,2.4-0.4c0.7-0.2,1.3-0.5,1.8-0.9l0.9,1.4c-0.6,0.4-1.3,0.7-2.2,1c-0.9,0.3-1.9,0.5-3,0.5c-2,0-3.6-0.4-5-1.2
		c-1.3-0.8-2.3-1.8-3-3.1c-0.7-1.3-1-2.7-1-4.3c0-1.4,0.4-2.8,1.1-4.1c0.7-1.3,1.8-2.4,3.1-3.2c1.4-0.8,3.1-1.3,5-1.3
		c1.2,0,2.2,0.2,3,0.5C311,513.8,311.7,514.2,312.3,514.7L312.3,514.7z"/>
	<path fill="#1D1D1B" d="M327.4,530.2c-1.7,0-3.2-0.4-4.4-1.2c-1.2-0.8-2.2-1.8-2.9-3.2c-0.7-1.3-1-2.8-1-4.5c0-1.6,0.4-3,1.1-4.2
		c0.7-1.2,1.7-2.2,2.9-3c1.2-0.7,2.7-1.1,4.3-1.1s3,0.4,4.3,1.1c1.2,0.7,2.2,1.7,2.9,3c0.7,1.2,1.1,2.7,1.1,4.2c0,1.7-0.3,3.2-1,4.5
		c-0.7,1.3-1.6,2.4-2.9,3.2C330.6,529.8,329.1,530.2,327.4,530.2L327.4,530.2z M327.4,528.5c1.4,0,2.6-0.4,3.4-1.1
		c0.8-0.7,1.5-1.7,1.8-2.8c0.4-1.1,0.5-2.2,0.5-3.3c0-1.1-0.2-2.1-0.6-3.1c-0.4-1-1-1.8-1.9-2.5s-2-1-3.3-1c-1.4,0-2.5,0.4-3.3,1
		c-0.8,0.7-1.5,1.5-1.9,2.5c-0.4,1-0.6,2-0.6,3.1c0,1.1,0.2,2.2,0.5,3.3c0.4,1.1,1,2,1.8,2.8C324.9,528.1,326,528.5,327.4,528.5
		L327.4,528.5z"/>
	<path fill="#1D1D1B" d="M361.9,513.3v16.6h-2.3v-13.5l0,0c-0.2,0.5-0.5,1.3-1,2.3c-0.5,1-1.1,2.2-1.7,3.6c-0.7,1.3-1.3,2.7-2,4
		c-0.7,1.3-1.3,2.5-1.9,3.6h-0.9c-0.5-1.1-1.1-2.3-1.7-3.6c-0.6-1.3-1.3-2.6-1.9-3.9c-0.6-1.3-1.1-2.5-1.6-3.6
		c-0.5-1.1-0.8-1.9-0.9-2.4l0,0v13.5h-1.9v-16.6h2.5c1.1,2.2,2.1,4.4,3.2,6.7c1.1,2.2,2.1,4.5,3.2,6.9c1.2-2.3,2.4-4.6,3.5-6.9
		c1.2-2.2,2.3-4.5,3.5-6.7L361.9,513.3L361.9,513.3z"/>
	<polygon fill="#1D1D1B" points="379,513.3 379,514.9 373.1,514.9 373.1,521.2 378.9,521.2 378.9,522.9 373.1,522.9 373.1,529.9 
		370.8,529.9 370.8,513.3 	"/>
	<path fill="#1D1D1B" d="M394.7,530.2c-1.7,0-3.2-0.4-4.4-1.2c-1.2-0.8-2.2-1.8-2.9-3.2c-0.7-1.3-1-2.8-1-4.5c0-1.6,0.4-3,1.1-4.2
		c0.7-1.2,1.7-2.2,2.9-3c1.2-0.7,2.7-1.1,4.3-1.1c1.6,0,3,0.4,4.3,1.1c1.2,0.7,2.2,1.7,2.9,3c0.7,1.2,1.1,2.7,1.1,4.2
		c0,1.7-0.3,3.2-1,4.5c-0.7,1.3-1.6,2.4-2.9,3.2C397.9,529.8,396.4,530.2,394.7,530.2L394.7,530.2z M394.7,528.5
		c1.4,0,2.6-0.4,3.4-1.1c0.8-0.7,1.5-1.7,1.8-2.8c0.4-1.1,0.5-2.2,0.5-3.3c0-1.1-0.2-2.1-0.6-3.1c-0.4-1-1-1.8-1.9-2.5s-2-1-3.3-1
		c-1.4,0-2.5,0.4-3.3,1c-0.8,0.7-1.5,1.5-1.9,2.5c-0.4,1-0.6,2-0.6,3.1c0,1.1,0.2,2.2,0.5,3.3c0.4,1.1,1,2,1.8,2.8
		C392.2,528.1,393.3,528.5,394.7,528.5L394.7,528.5z"/>
	<path fill="#1D1D1B" d="M413.4,514.9v6.4h1.3c1,0,1.7-0.2,2.2-0.6c0.5-0.4,0.8-0.9,1-1.4c0.2-0.5,0.3-1.1,0.3-1.6
		c0-1-0.3-1.7-0.8-2.2c-0.5-0.4-1.2-0.7-2-0.6L413.4,514.9L413.4,514.9z M411.1,529.9v-16.6h4.7c1.4,0,2.5,0.4,3.4,1.1
		s1.4,1.8,1.4,3.2c0,1.2-0.3,2.2-0.8,3c-0.5,0.8-1.2,1.4-2,1.9l4.1,7.1l-2.3,0.7l-3.8-7.2h-2.4v6.9h-2.3V529.9z"/>
	<polygon fill="#1D1D1B" points="435,529.9 432.7,529.9 432.7,514.9 427.4,514.9 427.4,513.3 440.4,513.3 440.4,514.9 435,514.9 	
		"/>
</g>
</svg>
