<?xml version="1.0" encoding="utf-8"?>
<!-- Generator: Adobe Illustrator 17.1.0, SVG Export Plug-In . SVG Version: 6.00 Build 0)  -->
<!DOCTYPE svg PUBLIC "-//W3C//DTD SVG 1.1//EN" "http://www.w3.org/Graphics/SVG/1.1/DTD/svg11.dtd">
<svg version="1.1" id="Calque_1" xmlns="http://www.w3.org/2000/svg" xmlns:xlink="http://www.w3.org/1999/xlink" x="0px" y="0px"
	 viewBox="0 0 595.3 841.9" enable-background="new 0 0 595.3 841.9" xml:space="preserve">
<g>
	<path fill="#1D1D1B" d="M102.6-705.9l-3.8-2.7l-0.6-0.4l-0.4,0.6c-5.5,7.5-14.5,11.9-24.6,11.9c-15.9,0-28.9-11.3-28.9-25.1
		c0-13.9,13-25.1,28.9-25.1c9.5,0,18.2,4,23.8,10.9l0.4,0.5l0.5-0.3l4.1-2.6l0.7-0.4l-0.5-0.6c-6.9-8.7-17.4-13.6-28.9-13.6
		c-19.2,0-34.8,14.1-34.8,31.3c0,17.3,15.6,31.3,34.8,31.3c11.9,0,22.9-5.4,29.4-14.5l0.4-0.6L102.6-705.9z"/>
	<path fill="#1D1D1B" d="M152.6-696.9c-15.9,0-28.9-11.3-28.9-25.1c0-13.8,13-25.1,28.9-25.1s28.9,11.3,28.9,25.1
		C181.5-708.1,168.6-696.9,152.6-696.9 M152.6-753.6c-19.4,0-35.2,14.2-35.2,31.7c0,17.5,15.8,31.7,35.2,31.7s35.2-14.2,35.2-31.7
		C187.8-739.4,172-753.6,152.6-753.6"/>
	<path fill="#1D1D1B" d="M295.5-744.3c-5-5-12.6-7.9-20.5-7.9c-9.6,0-18.6,4.4-23.5,11.2c-4.5-6.8-13.5-11.2-23.2-11.2
		c-7.9,0-15.2,2.9-20.3,7.8v-6.4h-6v19.7v38.8v0.7h5.9V-731c0-7.2,7.8-15,20.3-15c12.6,0,20.3,7.8,20.3,15v39.5h5.9V-731
		c0-7.2,7.8-15,20.4-15c12.6,0,20.3,7.8,20.3,15v39.5h5.9V-731C301.2-736,299.2-740.6,295.5-744.3"/>
	<path fill="#1D1D1B" d="M392.7-752.2c-9.6,0-18.6,4.4-23.5,11.2c-4.5-6.8-13.5-11.2-23.2-11.2c-7.9,0-15.1,2.9-20.3,7.8v-6.3h-5.9
		v59.3h5.9V-731c0-7.2,7.8-15,20.3-15c12.6,0,20.3,7.8,20.3,15v39.5h5.9V-731c0-7.2,7.8-15,20.4-15s20.3,7.8,20.3,15v39.5h5.9V-731
		C419-742.7,407.2-752.2,392.7-752.2"/>
	<path fill="#1D1D1B" d="M490.4-724.9v14.7c-3.8,8.4-14.6,13.4-29.1,13.4c-12.4,0-19.2-5.6-19.2-10.9c0-8.1,6.7-10.3,18.4-11.4
		c1.7-0.2,3.5-0.3,5.4-0.5c3.7-0.3,7.5-0.6,11.2-1.2C482.8-721.6,487-722.9,490.4-724.9 M498.6-693.5c-1.3-3-1.9-7.2-1.9-10.1v-29.9
		c0-12.7-10.8-20.2-28.8-20.2c-10.3,0-24,4.4-28.3,16.8l-0.3,0.9h6.7l0.2-0.4c4-8,14.2-10.8,21.7-10.8c14.5,0,22.2,4.9,22.4,14.2
		c-2.4,2.7-6.4,4.4-12.6,5.5c-3.7,0.6-7.8,1-11.8,1.3c-2.1,0.2-4.3,0.4-6.4,0.6c-11.5,1.2-23.8,3.7-23.8,17.9
		c0,11.5,12.8,17.4,25.5,17.4c5.8,0,19.8-0.9,29.3-9.1c0.2,2.2,0.7,4.4,1.5,6.6l0.2,0.5h0.5l5.3-0.3h1L498.6-693.5z"/>
	<path fill="#1D1D1B" d="M553.8-691.7c0.9-1.6,1.7-3.3,1.7-5.4c0-5.2,0-26.4,0-26.4s0-6.1-6.1-6.1h-24.1c0,0-6.1,0-6.1,6.1v26.4
		c0,0,0,6.1,6.1,6.1h5.3l-6.4,13.8c0,0-1.9,4.2,2.6,4.2c0,0,7.4,0,8.2,0c0.8,0,4,0.1,7.3-3.6C544.1-678.6,549.9-685,553.8-691.7z"/>
</g>
<path d="M523.4,436.1c0-4.6,3.8-8.3,8.4-8.2c4.6,0,8.3,3.8,8.3,8.3c0,4.6-3.8,8.3-8.3,8.3C527.1,444.5,523.4,440.7,523.4,436.1z
	 M539.1,436.2c0-4-3.2-7.3-7.3-7.3c-4,0-7.3,3.2-7.4,7.3c0,4.1,3.2,7.4,7.3,7.4C535.8,443.5,539,440.2,539.1,436.2z M535.9,440.8
	h-1.3l-2.6-4.3h-2.1v4.3h-1.1l0.1-9.3h4c0.8,0,1.6,0.1,2.3,0.5c0.7,0.4,1,1.2,1,2c0,1.8-1.3,2.5-2.9,2.5L535.9,440.8z M531.5,435.6
	c1.3,0,3.3,0.2,3.3-1.6c0-1.4-1.3-1.6-2.4-1.6h-2.7v3.3L531.5,435.6L531.5,435.6z"/>
<g>
	<path d="M94.6,401.2c-9.3,0-37.5,0-37.5,23.2v18.5c0,22.2,19.1,23.8,48.4,23.8h13.1c26.7,0,42.1-3.2,42.1-19.8v-15.4h-56.5v10.7
		c0,0,34,0,38.2,0c0,2.2,0,5,0,5c0,6.6-1.2,8.6-26.5,8.6h-12.8c-23.5,0-27.6-3-27.6-11.6V425c0-10.5,1.1-13.3,27.3-13.3h16.8
		c21,0,22.5,2.3,22.5,6.2v5.8h18.3v-7c0-7.2-6-15.7-34.3-15.7H94.6V401.2z"/>
	<path d="M419,401.7h-15.9c0,0,0,44.4,0,52.3c-6.4-5.2-64.2-52.3-64.2-52.3h-25.6v64.6h18.3c0,0,0-44.1,0-51.9
		c6.4,5.1,64.3,51.9,64.3,51.9h25.4v-64.6H419z"/>
	<path d="M534.5,401.7H441v10.7c0,0,34.6,0,38.8,0c0,4.3,0,53.9,0,53.9h18.3c0,0,0-49.5,0-53.9c4.2,0,38.8,0,38.8,0v-10.7H534.5z"/>
	<path d="M243.3,401.7h-20.4l-47,64.6H196c0,0,8-11,9.3-12.7c2.3,0,55.9,0,58.1,0c1.2,1.6,9.4,12.7,9.4,12.7h20l-48.3-64.6H243.3z
		 M234,413.7c2.9,4,17.8,24,21.9,29.6c-7.1,0-36.6,0-43.6,0C216.4,437.7,231.1,417.6,234,413.7z"/>
</g>
</svg>
