<?xml version="1.0" encoding="utf-8"?>
<!-- Generator: Adobe Illustrator 17.1.0, SVG Export Plug-In . SVG Version: 6.00 Build 0)  -->
<!DOCTYPE svg PUBLIC "-//W3C//DTD SVG 1.1//EN" "http://www.w3.org/Graphics/SVG/1.1/DTD/svg11.dtd">
<svg version="1.1" id="Calque_1" xmlns="http://www.w3.org/2000/svg" xmlns:xlink="http://www.w3.org/1999/xlink" x="0px" y="0px"
	 viewBox="0 0 595.3 841.9" enable-background="new 0 0 595.3 841.9" xml:space="preserve">
<g>
	<path fill="#1D1D1B" d="M102.6-705.9l-3.8-2.7l-0.6-0.4l-0.4,0.6c-5.5,7.5-14.5,11.9-24.6,11.9c-15.9,0-28.9-11.3-28.9-25.1
		c0-13.9,13-25.1,28.9-25.1c9.5,0,18.2,4,23.8,10.9l0.4,0.5l0.5-0.3l4.1-2.6l0.7-0.4l-0.5-0.6c-6.9-8.7-17.4-13.6-28.9-13.6
		c-19.2,0-34.8,14.1-34.8,31.3c0,17.3,15.6,31.3,34.8,31.3c11.9,0,22.9-5.4,29.4-14.5l0.4-0.6L102.6-705.9z"/>
	<path fill="#1D1D1B" d="M152.6-696.9c-15.9,0-28.9-11.3-28.9-25.1c0-13.8,13-25.1,28.9-25.1s28.9,11.3,28.9,25.1
		C181.5-708.1,168.6-696.9,152.6-696.9 M152.6-753.6c-19.4,0-35.2,14.2-35.2,31.7c0,17.5,15.8,31.7,35.2,31.7s35.2-14.2,35.2-31.7
		S172-753.6,152.6-753.6"/>
	<path fill="#1D1D1B" d="M295.5-744.3c-5-5-12.6-7.9-20.5-7.9c-9.6,0-18.6,4.4-23.5,11.2c-4.5-6.8-13.5-11.2-23.2-11.2
		c-7.9,0-15.2,2.9-20.3,7.8v-6.4h-6v19.7v38.8v0.7h5.9V-731c0-7.2,7.8-15,20.3-15c12.6,0,20.3,7.8,20.3,15v39.5h5.9V-731
		c0-7.2,7.8-15,20.4-15c12.6,0,20.3,7.8,20.3,15v39.5h5.9V-731C301.2-736,299.2-740.6,295.5-744.3"/>
	<path fill="#1D1D1B" d="M392.7-752.2c-9.6,0-18.6,4.4-23.5,11.2c-4.5-6.8-13.5-11.2-23.2-11.2c-7.9,0-15.1,2.9-20.3,7.8v-6.3h-5.9
		v59.3h5.9V-731c0-7.2,7.8-15,20.3-15c12.6,0,20.3,7.8,20.3,15v39.5h5.9V-731c0-7.2,7.8-15,20.4-15s20.3,7.8,20.3,15v39.5h5.9V-731
		C419-742.7,407.2-752.2,392.7-752.2"/>
	<path fill="#1D1D1B" d="M490.4-724.9v14.7c-3.8,8.4-14.6,13.4-29.1,13.4c-12.4,0-19.2-5.6-19.2-10.9c0-8.1,6.7-10.3,18.4-11.4
		c1.7-0.2,3.5-0.3,5.4-0.5c3.7-0.3,7.5-0.6,11.2-1.2C482.8-721.6,487-722.9,490.4-724.9 M498.6-693.5c-1.3-3-1.9-7.2-1.9-10.1v-29.9
		c0-12.7-10.8-20.2-28.8-20.2c-10.3,0-24,4.4-28.3,16.8l-0.3,0.9h6.7l0.2-0.4c4-8,14.2-10.8,21.7-10.8c14.5,0,22.2,4.9,22.4,14.2
		c-2.4,2.7-6.4,4.4-12.6,5.5c-3.7,0.6-7.8,1-11.8,1.3c-2.1,0.2-4.3,0.4-6.4,0.6c-11.5,1.2-23.8,3.7-23.8,17.9
		c0,11.5,12.8,17.4,25.5,17.4c5.8,0,19.8-0.9,29.3-9.1c0.2,2.2,0.7,4.4,1.5,6.6l0.2,0.5h0.5l5.3-0.3h1L498.6-693.5z"/>
	<path fill="#1D1D1B" d="M553.8-691.7c0.9-1.6,1.7-3.3,1.7-5.4c0-5.2,0-26.4,0-26.4s0-6.1-6.1-6.1h-24.1c0,0-6.1,0-6.1,6.1v26.4
		c0,0,0,6.1,6.1,6.1h5.3l-6.4,13.8c0,0-1.9,4.2,2.6,4.2c0,0,7.4,0,8.2,0c0.8,0,4,0.1,7.3-3.6C544.1-678.6,549.9-685,553.8-691.7z"/>
</g>
<path fill="#1C1C1B" d="M491.9,409.5h20.8c10.7,0,19.7,4.5,19.7,16.4c0,6.9-2.6,9.9-8.5,12.1c-0.2,0.1-0.3,0.1-0.4,0.2
	c0,0,1.7,1.9,2.6,3.3l10.3,15.4h-19.8l-7.8-15.8v0.6v15.2H492v-47.4H491.9z M508.7,430.5h1.2c2.8,0,5.6-0.4,5.6-4s-2.6-4.1-5.5-4.1
	h-1.3V430.5z"/>
<path fill="#1C1C1B" d="M198.1,409.5h20.8c10.7,0,19.7,4.5,19.7,16.4c0,6.9-2.6,9.9-8.5,12.1c-0.2,0.1-0.3,0.1-0.4,0.2
	c0,0,1.7,1.9,2.6,3.3l10.3,15.4h-19.8l-7.8-15.8v0.6v15.2h-16.8v-47.4H198.1z M214.9,430.5h1.2c2.8,0,5.6-0.4,5.6-4
	s-2.6-4.1-5.5-4.1h-1.3V430.5z"/>
<path fill="#1C1C1B" d="M112.5,428.9c-0.1,7.7-0.1,14.2-5.7,20.2c-5,5.5-12.7,8.4-20.1,8.4c-14.4,0-26.1-8.9-26.1-24.1
	c0-15.4,11.4-24.7,26.2-24.7c8.2,0,19.5,4.1,23.2,12.2l-16,5.9c-1.3-2.4-3.8-3.6-6.5-3.6c-6.1,0-9.5,5.3-9.5,11
	c0,5.2,3.3,10.1,8.8,10.1c2.7,0,6.1-1.3,7-4.1H86V429L112.5,428.9L112.5,428.9z"/>
<path fill="#1C1C1B" d="M115.2,409.5H147v12.9h-14.5v4.5h13.2v12.3h-13.2v4.6h15v12.9h-32.3V409.5z"/>
<path fill="#1C1C1B" d="M151.3,409.5H172c10.7,0,19.7,4.5,19.7,16.4c0,6.9-2.6,9.9-8.5,12.1c-0.2,0.1-0.3,0.1-0.4,0.2
	c0,0,1.7,1.9,2.6,3.3l10.3,15.4h-19.8l-7.8-15.8v0.6v15.2h-16.8V409.5z M168.1,430.5h1.2c2.8,0,5.6-0.4,5.6-4s-2.6-4.1-5.5-4.1h-1.3
	V430.5z"/>
<path fill="#1C1C1B" d="M256.3,409.5l5.5,12.7l0,0c0.5-1.5,5.2-12.7,5.2-12.7h19.3l-16.2,26.9v20.4h-16.8v-20.4l-16.5-26.9H256.3z"
	/>
<path fill="#1C1C1B" d="M323.1,437.2l6.9-27.6h13.2l6.6,27.7l0,0l6.2-27.7h17.9l-16.7,47.3h-15l-5.7-25.7l-5.9,25.7H316l-16.6-47.3
	h17.8L323.1,437.2"/>
<path fill="#1C1C1B" d="M374.9,409.6h31.8v12.9h-14.5v4.5h13.2v12.3h-13.2v4.6h15v12.9h-32.3V409.6z"/>
<path fill="#1C1C1B" d="M411,409.6h20c9.2,0,18.5,2.2,18.5,13.1c0,4.1-2.1,8.2-6.2,9.5l-0.5,0.2l0.5,0.2c5.1,1.8,8.4,5.6,8.4,11.2
	c0,9.7-9,13.1-17.3,13.1H411V409.6z M428.5,427.8c2.5,0,5.3-0.3,5.3-3.5c0-3.5-3.2-3.3-5.7-3.3h-1.2v6.8H428.5z M426.9,445.6h1.9
	c2.8,0,6.9-0.1,6.9-4c0-4-4.4-3.9-7.2-3.9h-1.7v7.9H426.9z"/>
<path fill="#1C1C1B" d="M454.8,409.6h31.8v12.9h-14.5v4.5h13.2v12.3h-13.2v4.6h15v12.9h-32.3V409.6z"/>
</svg>
