<?xml version="1.0" encoding="utf-8"?>
<!-- Generator: Adobe Illustrator 17.1.0, SVG Export Plug-In . SVG Version: 6.00 Build 0)  -->
<!DOCTYPE svg PUBLIC "-//W3C//DTD SVG 1.1//EN" "http://www.w3.org/Graphics/SVG/1.1/DTD/svg11.dtd">
<svg version="1.1" id="Calque_1" xmlns="http://www.w3.org/2000/svg" xmlns:xlink="http://www.w3.org/1999/xlink" x="0px" y="0px"
	 viewBox="0 0 595.3 841.9" enable-background="new 0 0 595.3 841.9" xml:space="preserve">
<g>
	<path fill="#1D1D1B" d="M533.3,474.4c-6.6,5.8-13.2,10.1-19.8,13.1c-6.6,3-12.6,4.5-18,4.5c-5.6,0-10-1.6-13.1-4.8
		c-3.1-3.2-4.7-7.5-4.7-12.6c0-1.9,0.3-4.1,1-6.5c2.3-0.5,5.3-1.1,9-1.8c3.6-0.7,7.5-1.6,11.7-2.7c4.1-1.1,8.4-2.3,12.6-3.8
		c4.2-1.4,8-3.1,11.4-5s6.1-4.1,8.3-6.5c2.1-2.4,3.2-5,3.2-7.9c0-3.6-1.5-6.4-4.7-8.3c-3.1-2-7.5-3-13.1-3c-6.1,0-12.6,1.4-19.4,4.1
		c-6.8,2.8-13.1,6.4-18.8,10.8c-5.7,4.4-10.4,9.5-14.2,15.1c-2.3,3.4-3.8,6.8-4.7,10.2c-2.2,2-4.5,4.1-6.9,6
		c-5.6,4.6-11.6,8.5-17.9,11.8c-6.3,3.2-12.6,4.8-19,4.8c-5.3,0-9.5-1.6-12.5-4.8s-4.5-7-4.5-11.6c0-5.7,1.3-11.3,3.9-16.6
		c2.6-5.3,5.8-10.1,9.6-14.2c3.8-4.1,7.8-7.4,12.1-9.9c4.3-2.5,9.9-3.8,13.2-3.6c4,0.2,8.8,3.3,8.8,7.8c0,7.9-4.1,13.2-9.2,15.8
		c1.3,0.2,2.8,0.4,4.5,0.4c1.9,0,3.9-0.3,5.8-1c2-0.7,3.7-1.6,5.3-2.9c1.5-1.3,2.8-2.8,3.8-4.7c1-1.9,1.5-3.9,1.5-6.2
		c0-3.2-1.8-6-5.3-8.2c-3.5-2.2-8.3-3.3-14.2-3.3c-6.5,0-13.2,1.3-20.1,3.9c-6.9,2.6-13.2,6.1-18.9,10.4c-5.7,4.3-10.4,9.2-14,14.7
		c-2.5,3.8-4.1,7.6-4.9,11.5c-2,2-3.9,3.9-5.9,5.7c-5.8,5.5-11.4,9.9-16.8,13.3c-5.3,3.4-9.5,5-12.7,5c-3.3,0-4.9-1.5-4.9-4.5
		c0-2.1,0.5-4.8,2.1-7.8c8.3-15.8,31.7-48.1,32.8-50.2H357l-6.4,9c-1.7-3.8-3.8-6.6-6.4-8.4s-6.2-2.7-10.7-2.7
		c-6,0-12.2,1.5-18.8,4.4c-6.5,2.9-12.5,6.8-17.8,11.5c-4.3,3.8-7.9,8-11,12.5c-1.6,0.6-3.2,0.9-4.8,0.9c-5.6,0-8.4-2.6-8.4-7.7
		c0-4.1,1-7.9,3.1-11.4c2.1-3.5,4.4-6.9,6.8-10.2c-3.6,0.1-6.7,0.2-9.1,0.4c-2.4,0.1-4.5,0.4-6.1,0.8c-1.7,0.4-3.2,1-4.4,1.8
		s-2.6,1.8-4,3.1c-0.9,0.8-2.4,1.8-4.3,3c-2,1.1-4.3,2.8-7.2,4.9c-2.8,2.2-6.2,5-10,8.4c-3.8,3.4-8.2,7.9-13.2,13.6l-0.4-0.4
		l25.7-33.4h-22.2c-6.8,10.8-33.9,53.4-40.5,64h19.7c2.8-4.9,6.1-10.5,9.6-15.7c3.6-5.2,7.5-10.3,11.7-15.2c4.2-4.9,8.8-9.6,13.7-14
		c5-4.4,10.1-8.3,15.6-11.7l0.4,0.4c-1.9,2.8-2.9,5.7-2.9,8.8c0,4.9,1.5,8.6,4.5,11.1c3,2.5,7.1,3.8,12.3,3.8
		c4.4,0,8.5-0.7,12.3-2.2c-0.1,0.1-0.2,0.3-0.3,0.4c-3.5,5.9-5.2,11.8-5.2,17.6c0,2.5,0.3,4.9,1,7.3c0.7,2.3,1.7,4.4,3,6.3
		c1.4,1.9,3.2,3.3,5.4,4.4c2.2,1.1,4.9,1.6,8,1.6c5.9,0,11.3-1.4,16.4-4.3c5.1-2.9,9.6-6.4,13.6-10.6h0.4c-0.3,0.5-0.5,1.1-0.6,2
		s-0.2,1.7-0.2,2.7c0,2.9,1.1,5.3,3.4,7.3c2.3,2,5.5,3,9.6,3c6,0,12-1.8,18-5.5c6-3.7,12.2-8.4,18.4-14.1c2.1-1.9,4-3.7,5.8-5.6
		c-0.1,0.7-0.2,1.4-0.2,2.1c0,7.6,2.1,13.3,6.2,17.2c4.2,3.9,10.1,5.9,17.9,5.9c8.2,0,15.9-1.6,23.3-4.7c7.3-3.1,14.2-7.1,20.6-11.9
		c3.7-2.8,7.3-5.8,10.7-8.9c-0.1,1.2-0.3,2.3-0.3,3.5c0,6.5,2.1,11.7,6.4,15.8c4.3,4.1,10.1,6.1,17.5,6.1c7.3,0,15-1.4,23.3-4.2
		c8.2-2.8,16.9-7.9,25.8-15.4L533.3,474.4L533.3,474.4z M484.1,455.8c2.5-4,5.5-7.8,8.8-11.5s6.8-6.7,10.6-9.3
		c3.8-2.5,7.3-3.8,10.5-3.8c1.6,0,2.8,0.4,3.8,1.1c1,0.7,1.5,1.9,1.5,3.6c0,2.9-1.1,5.9-3.3,9.1c-2.2,3.2-5.2,6.2-8.9,9
		c-3.7,2.8-8,5.3-12.8,7.6c-4.8,2.2-9.9,3.8-15.2,4.7C479.9,463.3,481.6,459.8,484.1,455.8L484.1,455.8z M332.1,471.4
		c-2.6,3.7-5.2,7-8,10c-2.8,3-5.7,5.5-8.7,7.5c-3,2-5.8,3-8.6,3.1c-4,0-6.7-1.3-7.9-3.9c-1.2-2.6-1.9-5.6-1.9-9.1
		c0-2.4,0.5-5.2,1.6-8.5c1-3.3,2.5-6.7,4.3-10.3c1.8-3.6,4-7.1,6.5-10.5c2.5-3.4,5.2-6.5,8-9.3c2.8-2.7,5.7-5,8.8-6.7
		c3.1-1.7,6.1-2.5,9.1-2.5c3.8,0,6.3,0.9,7.6,2.7c1.3,1.8,1.9,4.3,1.9,7.6c0,2.3-0.5,5.1-1.7,8.3c-1.1,3.3-2.6,6.8-4.5,10.5
		C336.9,464.1,334.7,467.8,332.1,471.4L332.1,471.4z"/>
	<path fill="#1D1D1B" d="M247.9,381.9c1.4-7.8-3.7-13.7-11.1-17.3c-7.4-3.6-18-5.4-31.8-5.4c-6.1,0-12.4,0.5-19,1.5
		c-6.6,1-13.1,2.3-19.6,3.8c-6.4,1.6-12.6,3.3-18.5,5.6c-18.5,7.1-35.3,16.6-43.3,22S89.4,403.6,83,410.3c-6.4,6.7-11.7,14-15.7,22
		c-4,8-6,16.6-6,25.9c0,10.5,3.2,19.1,9.7,25.7c6.4,6.6,15.6,9.9,27.3,9.9c5,0,9.9-0.8,14.9-1.9c27.2-5.4,50.6-23.8,50.6-23.8
		l0.5,0.4c-4.8,8.4-11.7,19.8-16.4,26.7h18.7c2.5-4.1,35.5-55,35.7-55.9c7.2-11.8,1.4-11,1.4-11c-26.4,18.8-56.2,11.7-56.2,11.7v3.6
		c5.2,3.6,14.4,7.1,27.1,6c-4.2,6.9-8.1,14.1-11.4,16.6c-16.9,13-37.7,19.2-37.7,19.2c-4.5,1.5-8.6,2.2-12.3,2.2
		c-4.5,0-8.3-0.7-11.4-2.2c-3.2-1.5-5.7-3.5-7.7-5.9c-2-2.5-3.4-5.4-4.1-8.8c-0.8-3.4-1.2-6.9-1.2-10.8c0-6.9,1.3-13.9,4-20.9
		c2.7-7,6.2-13.7,10.7-20c4.5-6.4,9.5-12.3,15-17.7s11.1-10.2,16.6-14.1l2.1-1.5c3.8-3,8.4-5.9,13.8-8.8c5.5-2.9,11.3-5.4,17.4-7.7
		c6.2-2.2,12.3-4,18.4-5.3c6.1-1.3,11.6-2,16.6-2c10.5,0,17.7,1.5,21.6,4.3c3.9,2.9,5.8,6.8,5.8,11.7c0,3.8-1.2,7.4-3.6,10.8
		c-2.4,3.4-5.7,6.3-9.9,8.9C217.2,397.9,244.2,398.3,247.9,381.9L247.9,381.9z"/>
</g>
</svg>
