<?xml version="1.0" encoding="utf-8"?>
<!-- Generator: Adobe Illustrator 18.0.0, SVG Export Plug-In . SVG Version: 6.00 Build 0)  -->
<!DOCTYPE svg PUBLIC "-//W3C//DTD SVG 1.1//EN" "http://www.w3.org/Graphics/SVG/1.1/DTD/svg11.dtd">
<svg version="1.1" id="Calque_1" xmlns="http://www.w3.org/2000/svg" xmlns:xlink="http://www.w3.org/1999/xlink" x="0px" y="0px"
	 viewBox="0 0 841.9 595.3" enable-background="new 0 0 841.9 595.3" xml:space="preserve">
<g>
	<path fill="#003552" d="M587.6,335.4c-4.7,4.1-9.3,7.1-14,9.3s-8.9,3.2-12.7,3.2c-4,0-7.1-1.1-9.3-3.4c-2.2-2.3-3.3-5.3-3.3-8.9
		c0-1.3,0.2-2.9,0.7-4.6c1.6-0.4,3.7-0.8,6.4-1.3c2.5-0.5,5.3-1.1,8.3-1.9c2.9-0.8,5.9-1.6,8.9-2.7c3-1,5.7-2.2,8.1-3.5
		s4.3-2.9,5.9-4.6c1.5-1.7,2.3-3.5,2.3-5.6c0-2.5-1.1-4.5-3.3-5.9c-2.2-1.4-5.3-2.1-9.3-2.1c-4.3,0-8.9,1-13.7,2.9
		c-4.8,2-9.3,4.5-13.3,7.6s-7.4,6.7-10,10.7c-1.6,2.4-2.7,4.8-3.3,7.2c-1.6,1.4-3.2,2.9-4.9,4.2c-4,3.3-8.2,6-12.7,8.3
		c-4.5,2.3-8.9,3.4-13.4,3.4c-3.7,0-6.7-1.1-8.8-3.4c-2.1-2.3-3.2-4.9-3.2-8.2c0-4,0.9-8,2.8-11.7c1.8-3.7,4.1-7.1,6.8-10
		c2.7-2.9,5.5-5.2,8.6-7c3-1.8,7-2.7,9.3-2.5c2.8,0.1,6.2,2.3,6.2,5.5c0,5.6-2.9,9.3-6.5,11.2c0.9,0.1,2,0.3,3.2,0.3
		c1.3,0,2.8-0.2,4.1-0.7c1.4-0.5,2.6-1.1,3.7-2.1c1.1-0.9,2-2,2.7-3.3c0.7-1.3,1.1-2.8,1.1-4.4c0-2.3-1.3-4.2-3.7-5.8
		c-2.5-1.6-5.9-2.3-10-2.3c-4.6,0-9.3,0.9-14.2,2.8c-4.9,1.8-9.3,4.3-13.4,7.4c-4,3-7.4,6.5-9.9,10.4c-1.8,2.7-2.9,5.4-3.5,8.1
		c-1.4,1.4-2.8,2.8-4.2,4c-4.1,3.9-8.1,7-11.9,9.4c-3.7,2.4-6.7,3.5-9,3.5c-2.3,0-3.5-1.1-3.5-3.2c0-1.5,0.4-3.4,1.5-5.5
		c5.9-11.2,22.4-34,23.2-35.5h-13.2l-4.5,6.4c-1.2-2.7-2.7-4.7-4.5-5.9s-4.4-1.9-7.6-1.9c-4.2,0-8.6,1.1-13.3,3.1
		c-4.6,2.1-8.8,4.8-12.6,8.1c-3,2.7-5.6,5.7-7.8,8.8c-1.1,0.4-2.3,0.6-3.4,0.6c-4,0-5.9-1.8-5.9-5.4c0-2.9,0.7-5.6,2.2-8.1
		c1.5-2.5,3.1-4.9,4.8-7.2c-2.5,0.1-4.7,0.1-6.4,0.3c-1.7,0.1-3.2,0.3-4.3,0.6c-1.2,0.3-2.3,0.7-3.1,1.3c-0.8,0.6-1.8,1.3-2.8,2.2
		c-0.6,0.6-1.7,1.3-3,2.1c-1.4,0.8-3,2-5.1,3.5c-2,1.6-4.4,3.5-7.1,5.9s-5.8,5.6-9.3,9.6l-0.3-0.3l18.2-23.6h-15.7
		c-4.8,7.6-24,37.8-28.6,45.3h13.9c2-3.5,4.3-7.4,6.8-11.1c2.5-3.7,5.3-7.3,8.3-10.7c3-3.5,6.2-6.8,9.7-9.9c3.5-3.1,7.1-5.9,11-8.3
		l0.3,0.3c-1.3,2-2.1,4-2.1,6.2c0,3.5,1.1,6.1,3.2,7.8c2.1,1.8,5,2.7,8.7,2.7c3.1,0,6-0.5,8.7-1.6c-0.1,0.1-0.1,0.2-0.2,0.3
		c-2.5,4.2-3.7,8.3-3.7,12.4c0,1.8,0.2,3.5,0.7,5.2c0.5,1.6,1.2,3.1,2.1,4.5c1,1.3,2.3,2.3,3.8,3.1c1.6,0.8,3.5,1.1,5.7,1.1
		c4.2,0,8-1,11.6-3c3.6-2.1,6.8-4.5,9.6-7.5h0.3c-0.2,0.4-0.4,0.8-0.4,1.4s-0.1,1.2-0.1,1.9c0,2.1,0.8,3.7,2.4,5.2
		c1.6,1.4,3.9,2.1,6.8,2.1c4.2,0,8.5-1.3,12.7-3.9c4.2-2.6,8.6-5.9,13-10c1.5-1.3,2.8-2.6,4.1-4c-0.1,0.5-0.1,1-0.1,1.5
		c0,5.4,1.5,9.4,4.4,12.2c3,2.8,7.1,4.2,12.7,4.2c5.8,0,11.2-1.1,16.5-3.3c5.2-2.2,10-5,14.6-8.4c2.6-2,5.2-4.1,7.6-6.3
		c-0.1,0.8-0.2,1.6-0.2,2.5c0,4.6,1.5,8.3,4.5,11.2c3,2.9,7.1,4.3,12.4,4.3c5.2,0,10.6-1,16.5-3c5.8-2,11.9-5.6,18.2-10.9
		L587.6,335.4L587.6,335.4z M552.8,322.3c1.8-2.8,3.9-5.5,6.2-8.1s4.8-4.7,7.5-6.6c2.7-1.8,5.2-2.7,7.4-2.7c1.1,0,2,0.3,2.7,0.8
		c0.7,0.5,1.1,1.3,1.1,2.5c0,2.1-0.8,4.2-2.3,6.4c-1.6,2.3-3.7,4.4-6.3,6.4s-5.7,3.7-9.1,5.4c-3.4,1.6-7,2.7-10.7,3.3
		C549.8,327.6,551,325.1,552.8,322.3L552.8,322.3z M445.3,333.3c-1.8,2.6-3.7,4.9-5.7,7.1c-2,2.1-4,3.9-6.2,5.3
		c-2.1,1.4-4.1,2.1-6.1,2.2c-2.8,0-4.7-0.9-5.6-2.8s-1.3-4-1.3-6.4c0-1.7,0.4-3.7,1.1-6c0.7-2.3,1.8-4.7,3-7.3
		c1.3-2.5,2.8-5,4.6-7.4s3.7-4.6,5.7-6.6c2-1.9,4-3.5,6.2-4.7s4.3-1.8,6.4-1.8c2.7,0,4.5,0.6,5.4,1.9s1.3,3,1.3,5.4
		c0,1.6-0.4,3.6-1.2,5.9c-0.8,2.3-1.8,4.8-3.2,7.4C448.7,328.1,447.1,330.8,445.3,333.3L445.3,333.3z"/>
	<path fill="#003552" d="M385.8,270c1-5.5-2.6-9.7-7.8-12.2c-5.2-2.5-12.7-3.8-22.5-3.8c-4.3,0-8.8,0.4-13.4,1.1
		c-4.7,0.7-9.3,1.6-13.9,2.7c-4.5,1.1-8.9,2.3-13.1,4c-13.1,5-25,11.7-30.6,15.6c-5.7,3.8-10.7,8.1-15.3,12.9
		c-4.5,4.7-8.3,9.9-11.1,15.6c-2.8,5.7-4.2,11.7-4.2,18.3c0,7.4,2.3,13.5,6.9,18.2c4.5,4.7,11,7,19.3,7c3.5,0,7-0.6,10.5-1.3
		c19.2-3.8,35.8-16.8,35.8-16.8l0.4,0.3c-3.4,5.9-8.3,14-11.6,18.9h13.2c1.8-2.9,25.1-38.9,25.2-39.5c5.1-8.3,1-7.8,1-7.8
		c-18.7,13.3-39.7,8.3-39.7,8.3v2.5c3.7,2.5,10.2,5,19.2,4.2c-3,4.9-5.7,10-8.1,11.7c-11.9,9.2-26.7,13.6-26.7,13.6
		c-3.2,1.1-6.1,1.6-8.7,1.6c-3.2,0-5.9-0.5-8.1-1.6c-2.3-1.1-4-2.5-5.4-4.2c-1.4-1.8-2.4-3.8-2.9-6.2c-0.6-2.4-0.8-4.9-0.8-7.6
		c0-4.9,0.9-9.8,2.8-14.8c1.9-4.9,4.4-9.7,7.6-14.1c3.2-4.5,6.7-8.7,10.6-12.5c3.9-3.8,7.8-7.2,11.7-10l1.5-1.1
		c2.7-2.1,5.9-4.2,9.8-6.2c3.9-2.1,8-3.8,12.3-5.4c4.4-1.6,8.7-2.8,13-3.7c4.3-0.9,8.2-1.4,11.7-1.4c7.4,0,12.5,1.1,15.3,3
		c2.8,2.1,4.1,4.8,4.1,8.3c0,2.7-0.8,5.2-2.5,7.6s-4,4.5-7,6.3C364.1,281.3,383.2,281.6,385.8,270L385.8,270z"/>
</g>
</svg>
