<?xml version="1.0" encoding="utf-8"?>
<!-- Generator: Adobe Illustrator 17.1.0, SVG Export Plug-In . SVG Version: 6.00 Build 0)  -->
<!DOCTYPE svg PUBLIC "-//W3C//DTD SVG 1.1//EN" "http://www.w3.org/Graphics/SVG/1.1/DTD/svg11.dtd">
<svg version="1.1" id="Calque_1" xmlns="http://www.w3.org/2000/svg" xmlns:xlink="http://www.w3.org/1999/xlink" x="0px" y="0px"
	 viewBox="0 0 595.3 841.9" enable-background="new 0 0 595.3 841.9" xml:space="preserve">
<g>
	<g>
		<path fill="#1D1D1B" d="M40.4,335.8c9,0,18.1,0,27.1,0c0,1.2,0,2.5,0,3.8c-1.7,0.1-3.2,0.3-4.4,1.1c-4.2,2.7-2.8,11.3-2.9,18.1
			c0,0.4,0,0.7,0,1.1s-0.2,0.6-0.2,0.9c0-0.1,0.2,0.1,0.2,0.2c0.2,2.9-0.1,7.1,0,9.9c0.3,0.4,0.9,0.2,1.3,0.2
			c15.3,0.4,31.9-0.3,47.6,0c0.4-0.2,0.2-1.3,0.2-2c0.1-4.5,0-9.3,0-14.3c0-3.1,0.2-7.1-0.2-10.1c-0.2-1.3-0.3-2.1-0.9-3.1
			c-0.5-0.7-0.8-1-1.5-1.3c-0.1,0-0.4,0.1-0.4,0c-0.5-0.6-2.8-0.6-4.2-0.7c0-1.2,0-2.5,0-3.8c9.1,0,18.2,0,27.4,0c0,1.2,0,2.5,0,3.8
			c-1.2-0.1-3.5,0.4-4.6,1.1c-3.4,2.3-2.6,10.4-2.6,16.5c0,16-0.3,31.8,0,48.1c0,1.4,0.1,2.3,0.2,3.5c0,0.2-0.1,0.8,0,0.9h0.2
			c0.2,0.8,0.1,0.9,0.4,1.5c0.2,0.2,0.2,0.5,0.4,0.7c0,0,0.4,0.7,0.7,0.9c0.2,0.1,0.9,0.3,1.3,0.4c0.2,0.1,0.4,0.1,0.7,0.2
			c0.1,0,0.4-0.1,0.4,0c0.3,0.4,2.2,0,2.9,0.4c0,1.2,0,2.4,0,3.5c-9.2,0-18.4,0-27.6,0c0-1.2,0-2.5,0-3.8c2,0,3.9,0.1,5.3-0.9
			c1.9-1.2,2.1-4,2.2-7.1c0.2-8.6-0.2-20.1,0-27.6c-0.3-0.4-0.9-0.2-1.3-0.2c-15.3-0.4-31.9,0.3-47.6,0c-0.4,0.4-0.2,1.3-0.2,2.2
			c-0.1,8,0,16.6,0,25.4c0,2-0.2,4.4,0.7,5.7c0.1,0.2,0.7,1.3,1.1,1.5c0.2,0.1,0.5,0.1,0.7,0.2c0.9,0.5,2.6,0.8,4.4,0.7
			c0,1.2,0,2.5,0,3.8c-9,0-17.9,0-26.9,0c0-1.2,0-2.5,0-3.8c1,0,2.1,0.1,3.3-0.2c0.7-0.2,1.4-0.6,1.8-0.9c0.4-0.3,0.9-0.5,0.9-0.9
			c0-0.3,0.1-0.1,0.2-0.2c0.2-0.4,0.5-1.2,0.7-1.5c1.1-3.9,0.7-10.2,0.7-14.8c0-12.8,0-25.1,0-37.5c0-6.4,0.3-14-2.4-16.5
			c-0.6-0.5-1.3-0.8-2.2-1.1c-0.7-0.2-1.3-0.4-1.5-0.4c-0.5-0.1-1.1,0.3-1.1-0.2C40.4,338.2,40.4,337,40.4,335.8z"/>
		<path fill="#1D1D1B" d="M276.8,349.5c0.7-0.2,0.4,0.7,0.4,0.9c0.2,0.8,0.1,1.2,0.2,2.4c0,0.4,0.2,0.6,0.2,0.9
			c0.1,1.7,0.1,3.8,0.4,5.3c0.1,0.4-0.1,1.3,0,2c0,0.4,0.2,0.7,0.2,1.1c0.1,1.7,0.1,3.9,0.4,5.7c-1,0-1.9,0-2.9,0
			c-0.6,0-0.7-0.8-0.9-1.1c-0.2-0.4-0.3-0.9-0.4-1.3c0-0.1-0.2,0-0.2-0.2c0-0.6-0.7-1.6-1.1-2.2c-0.1-0.1-0.1-0.3-0.2-0.4
			c-0.1-0.1-0.2-0.2-0.2-0.2c-0.1-0.2-0.1-0.5-0.2-0.7c-0.2-0.3-0.6-0.6-0.9-0.9c-0.1-0.1-0.1-0.3-0.2-0.4c-0.1-0.2-0.4-0.4-0.7-0.7
			c-0.4-0.5-0.6-1.1-1.1-1.5c-0.2-0.1-0.5-0.1-0.7-0.2c-0.2-0.2-0.4-0.7-0.7-0.9c-0.6-0.5-1.4-0.9-2-1.3c-0.4-0.3-0.8-0.5-1.1-0.7
			c-0.4-0.2-0.7-0.3-1.1-0.4c-0.1,0-0.4-0.4-0.4-0.4c-0.5-0.2-0.7,0-1.3-0.2c-0.1,0,0-0.2-0.2-0.2c-0.2,0-0.8-0.4-1.1-0.4
			c-0.4-0.1-0.6-0.1-1.1-0.2c-0.1,0-0.4,0.1-0.4,0c-0.2-0.3-1.8-0.5-2.6-0.7c-1-0.1-2.1-0.1-3.1-0.2c-4.1-0.3-8.9,0.1-12.4,1.3
			c-1.2,0.4-2.6,1.1-3.8,1.8c-0.2,0.1-0.3,0.3-0.4,0.4c-0.1,0.1-0.4-0.1-0.4,0v0.2c-0.3,0.2-0.6,0.3-0.9,0.4
			c-0.3,0.2-0.4,0.5-0.7,0.7c-0.2,0.1-0.4,0.4-0.7,0.4c-0.1,0-2.2,1.8-2.2,2.2c0,0.2-0.4,0.6-0.7,0.9c-0.2,0.3-0.5,0.6-0.7,0.9
			c-0.3,0.4-0.6,0.7-0.9,1.3c-0.1,0.2-0.4,0.4-0.4,0.7c0,0-0.2,0.5-0.2,0.7c-0.1,0.1-0.4,0.3-0.4,0.4s0.1,0.4,0,0.4h-0.2
			c0,0.1,0.1,0.4,0,0.4h-0.2c0,0.1,0.1,0.4,0,0.4c-0.2,0.1-0.2,0.2-0.2,0.4c0,0-0.2,0.6-0.2,0.7c-0.5,0.4-0.8,2.3-1.1,3.3
			c-0.1,0.3-0.1,0.7-0.2,1.1c0,0.1-0.2,0-0.2,0.2c0,0.1,0.1,0.6,0,0.7c-0.3,0.2-0.5,2.1-0.7,2.9c-0.2,0.6-0.2,1.5-0.2,2.2
			c-0.4,3.6-0.2,7.1,0.2,10.6c0.1,0.9,0.1,1.8,0.2,2.6c0,0,0.2,0,0.2,0.2c0.1,1.1,0.4,2.1,0.7,3.1c0.2,0.8,0.4,1.4,0.7,2.2
			c0.1,0.3,0.1,0.8,0.2,1.1c0,0.1,0.4,0.4,0.4,0.4c0.1,0.2-0.1,0.5,0,0.7c0,0.1,0.2,0,0.2,0.2c0,0.1,0.2,0.5,0.2,0.7
			c0.1,0.1,0.4,0.3,0.4,0.4s-0.1,0.4,0,0.4h0.2c0,0.1-0.1,0.4,0,0.4h0.2c0,0.1-0.1,0.4,0,0.4c0.2,0.2,0.4,0.7,0.7,1.1
			c0.2,0.2,0.5,0.4,0.7,0.7c0.1,0.2,0.1,0.5,0.2,0.7c0.1,0.1,0.2,0,0.2,0.2s0.4,0.6,0.7,0.9c0.2,0.3,0.4,0.6,0.7,0.9
			c0.5,0.7,1.2,1.3,2,2c0.2,0.2,0.4,0.7,0.7,0.9c0.3,0.2,0.6,0.2,0.9,0.4c0.2,0.2,0.2,0.6,0.7,0.7h0.2c0.2,0.2,0.4,0.5,0.7,0.7
			c0.2,0.1,0.5,0.1,0.7,0.2c0.1,0.1,0.1,0.4,0.2,0.4s0.4-0.1,0.4,0v0.2c0.1,0,0.4-0.1,0.4,0v0.2c0.1,0,0.4-0.1,0.4,0v0.2
			c0.1,0,0.4-0.1,0.4,0v0.2c0.1,0,0.4-0.1,0.4,0v0.2c0.1,0,0.4-0.1,0.4,0c0.2,0.2,0.4,0.3,0.7,0.4c0.1,0,0.4-0.1,0.4,0
			c0.4,0.4,0.9,0.4,1.8,0.7c0.1,0,0,0.2,0.2,0.2c0.2,0,0.9,0.1,1.3,0.2c0.4,0.1,0.9,0.1,1.3,0.2c0,0,0,0.2,0.2,0.2
			c0.3,0,0.6,0,0.9,0c0,0,0,0.2,0.2,0.2c0.3,0,0.6,0,0.9,0c2.6,0.3,6.9,0.2,9.5-0.2c0.2,0,0.5,0.1,0.7,0c0.3-0.1,0.5-0.2,0.9-0.2
			c0.1,0,0.4,0,0.4,0c0.2-0.3,0.7,0,0.9-0.2v-0.2c0.7-0.2,1.3-0.2,2-0.4c0.1,0,0-0.2,0.2-0.2c0.4,0,0.7-0.2,1.1-0.4
			c0.1,0,0.6-0.1,0.7-0.2v-0.2c0.1,0,0.4,0.1,0.4,0c0.2-0.2,0.2-0.3,0.4-0.4c0.1,0,0.6-0.1,0.7-0.2c0.2-0.2,0.2-0.3,0.4-0.4
			c0.3-0.2,0.4-0.4,0.7-0.7c0.1-0.1,0.4,0.1,0.4,0c1.3-1.6,3.3-3.3,4.6-5.3c0.1-0.1,0.2,0,0.2-0.2c0-0.3,0.4-0.3,0.4-0.4
			c0.1-0.1-0.1-0.3,0-0.4c0.2-0.2,0.5-0.4,0.7-0.7c0.1-0.1,0.1-0.3,0.2-0.4c0.1-0.1,0.2-0.1,0.2-0.2c0.3-0.4,0.3-1.4,1.1-1.3
			c0.5,0.3,1.3,0.3,2,0.4c0.8-0.2,0.4,0.8,0.2,1.1c-0.1,0.3-0.1,0.5-0.2,0.9c0,0.1-0.3,0.7-0.4,1.1c-0.3,0.9-0.4,1.6-0.7,2.6
			c0,0-0.2,0.1-0.2,0.2c-0.1,0.5,0,0.7-0.2,1.3c0,0.1-0.2,0-0.2,0.2c0,0.1,0,0.2,0,0.2c-0.5,1.2-1.2,3.4-1.5,5.1
			c-5.5,2.4-11.1,3.6-17.4,4.2c-6.9,0.7-13.8,0.5-19.6-1.1c-1.5-0.4-2.8-0.8-4.2-1.3c-0.1,0-0.4,0.1-0.4,0v-0.2
			c-0.1,0-0.4,0.1-0.4,0v-0.2c-0.5-0.2-1.1-0.3-1.5-0.4c-0.1-0.1,0-0.2-0.2-0.2c-0.3,0-0.5-0.4-0.9-0.4c-0.1,0-0.2,0-0.2,0
			c-0.1-0.1-0.3-0.4-0.4-0.4c-0.1,0-0.4,0.1-0.4,0v-0.2c-0.1,0-0.4,0.1-0.4,0c-0.2-0.2-0.2-0.3-0.4-0.4c-0.3-0.2-0.6-0.2-0.9-0.4
			c-0.2-0.2-0.4-0.5-0.7-0.7c-0.1-0.1-0.4,0.1-0.4,0c-0.2-0.2-0.2-0.3-0.4-0.4c-0.3-0.2-0.4-0.5-0.7-0.7c-0.3-0.2-0.6-0.2-0.9-0.4
			c-0.2-0.2-0.4-0.5-0.7-0.7c-0.5-0.4-1-0.8-1.5-1.3c-0.9-0.8-1.6-1.8-2.4-2.9c-0.2-0.3-0.5-0.4-0.7-0.7c-0.2-0.2-0.3-0.6-0.4-0.9
			c-0.2-0.2-0.5-0.4-0.7-0.7c-0.2-0.4-0.4-0.9-0.7-1.3c-0.1-0.1-0.2,0-0.2-0.2c0,0-0.2-0.6-0.2-0.7c-0.1-0.1-0.4-0.1-0.4-0.2
			s0.1-0.4,0-0.4h-0.2c0-0.1,0.1-0.4,0-0.4h-0.2c0-0.1,0.1-0.4,0-0.4h-0.2c0-0.1,0.1-0.4,0-0.4c-0.3-0.3-0.6-1.3-0.9-2
			c0-0.1-0.2,0-0.2-0.2c-0.1-0.5-0.5-1.2-0.7-1.8c-0.2-0.5-0.2-1.1-0.4-1.5c0-0.1,0.1-0.4,0-0.4c-0.1-0.1-0.3-0.5-0.4-1.1
			c-0.8-3.6-1.4-9-0.9-13.5c0.6-5.8,2.7-11.1,5.7-15.7c0.1-0.2,0.3-0.3,0.4-0.4c0.1-0.1-0.1-0.4,0-0.4h0.2c0.2-0.3,0.2-0.6,0.4-0.9
			c0.3-0.4,0.9-0.8,1.3-1.3c0.2-0.2,0.5-0.4,0.7-0.7c0.2-0.3,0.2-0.6,0.4-0.9c0.4-0.5,1-0.6,1.5-1.1c0.5-0.4,0.8-1.1,1.3-1.5
			c0.1-0.1,0.4,0.1,0.4,0c0.2-0.2,0.2-0.3,0.4-0.4c0.2-0.2,0.4-0.5,0.7-0.7c0.3-0.2,0.6-0.2,0.9-0.4c0.3-0.2,0.4-0.5,0.7-0.7
			c0.1-0.1,0.4,0.1,0.4,0c0.3-0.3,0.4-0.4,0.9-0.7c0.1-0.1,0-0.2,0.2-0.2h0.2c0.1-0.1,0.3-0.4,0.4-0.4c0.1,0,0.4,0.1,0.4,0v-0.2
			c0.1,0,0.4,0.1,0.4,0c0.2-0.3,0.4-0.5,0.9-0.7c0.1,0,0.4,0.1,0.4,0v-0.2c0.1,0,0.4,0.1,0.4,0v-0.2c0.1,0,0.4,0.1,0.4,0
			c0.3-0.4,1.7-0.8,2.4-1.1c0.1,0,0.4,0.1,0.4,0c0.2-0.3,0.4-0.2,1.1-0.4c2.1-0.6,4-1.2,6.4-1.5c0.8-0.1,1.5-0.1,2.4-0.2
			c0.3,0,0.4-0.2,0.7-0.2c6.5-0.4,12.2,0.2,17.2,1.3c2,0.5,3.7,1,5.7,1.5c1.8,0.5,3.7,1.3,5.1-0.2
			C274.4,349.1,275.9,349.6,276.8,349.5z"/>
		<path fill="#1D1D1B" d="M432.5,347.9c0.5,0,1,0,1.5,0c0.5,0.6,0.7,1,1.5,1.3c0.5,0.2,0.6,0.1,1.3,0.2c0.1,0,0.4,0,0.4,0
			c0.5,0.6,4.7,0.2,6.4,0.2c11.8,0,25.5,0,37.7,0c2.6,0,5.1,0.2,6.8-0.2c0.3-0.1,0.8-0.1,1.1-0.2c0.4-0.1,0.5-0.6,0.9-0.4
			c0.2-0.6,0.5-1.1,1.5-0.9c0.6,0,0.6,0.8,0.7,1.3c0.1,0.5,0.2,1.2,0.2,1.8c0.4,3.3,0.9,7.1,1.3,10.6c-0.8-0.2-1.8,0.2-2.4,0
			c-0.8-0.3-0.4-0.4-0.9-1.1c-0.1-0.2-0.2-0.8-0.4-1.3c0-0.1-0.4-0.1-0.4-0.2c-0.1-0.1,0.1-0.3,0-0.4c-0.2-0.2-0.4-0.4-0.7-0.7
			c-0.3-0.3-0.6-1-1.1-1.3c-0.1-0.1-0.4,0.1-0.4,0c0-0.1-0.2-0.4-0.2-0.4c-0.1,0-0.4,0.1-0.4,0c-0.4-0.5-2.3-0.8-3.3-0.9
			c-0.4,0-0.7,0-1.1,0c0,0-0.1-0.2-0.2-0.2c-4.4-0.2-9.3,0.2-14.3,0c-0.4,0.1-0.2,1.1-0.2,1.8c-0.2,15-0.2,30.5,0,46.3
			c0,1.2,0.1,2.3,0.2,3.5c0.1,1.8,0,3.5,0.7,4.9c0.1,0.2,0.4,0.3,0.4,0.4c0.2,0.3,0.2,0.6,0.7,0.9c0.2,0.2,0.4,0.3,0.7,0.4
			c1,0.6,3.5,1.1,5.5,0.9c0,1.2,0,2.4,0,3.5c-9.3,0-18.7,0-28,0c-0.5-0.8-0.1-2.4-0.2-3.5c2.2,0.1,4.9,0,6.6-1.1
			c0.3-0.2,0.3-0.4,0.7-0.7c0.2-0.2,0.5-0.3,0.7-0.4c0.1-0.1-0.1-0.4,0-0.4h0.2c0-0.1-0.1-0.4,0-0.4c0.6-0.5,0.4-1.7,0.7-2.9
			c0.7-3.3,0.2-9,0.2-13.7c0-12.5-0.2-27.5-0.2-39.3c-0.2-0.4-0.8-0.2-1.1-0.2c-2.6-0.1-6.1,0-9,0c-4,0-8.1-0.1-10.1,1.8
			c-1.4,1.2-2.2,2.8-2.9,4.9c-0.3,0.5-1.5,0.1-2.2,0.2c-0.9,0-0.2-1-0.2-1.3c0-0.4-0.1-0.7,0-1.1c0.3-1.9,0.6-5.3,0.9-7.5
			c0.1-1.2,0.1-2.3,0.4-3.3C432.3,348.3,432.3,348,432.5,347.9z"/>
		<path fill="#1D1D1B" d="M561.1,360.9c0,0.2,0,0.4,0,0.7c-1-0.1-2.4,0.2-3.1-0.2c-0.2-1.3-1.1-2.6-1.5-3.3
			c-0.3-0.5-0.6-0.6-0.9-0.9c-0.2-0.2-0.2-0.5-0.4-0.7c-0.1-0.1-0.3,0-0.4,0s-0.1-0.4-0.2-0.4c-0.3-0.2-0.6-0.1-0.9-0.2
			c-0.3-0.1-0.3-0.2-0.7-0.2c-0.2,0-0.2-0.2-0.2-0.2c-0.7-0.2-1.6-0.1-2.4-0.2c-4.8-0.5-10.6,0-15.4-0.2c0,13.4,0,30,0,44.6
			c0,2.8-0.1,6.8,0.2,9c0.1,0.6,0.1,1.3,0.2,1.8c0.1,0.4,0.4,0.7,0.4,0.9c0.1,0.6,0.2,0.6,0.4,0.9c0.5,0.7,0.9,1,1.8,1.3
			c1.1,0.5,2.2,0.6,3.3,0.7c0.6,0,1.3-0.2,1.8,0.2c0,1.1,0,2.2,0,3.3c-8.7-0.1-18.2,0.1-26.5,0c-0.7,0-1.6,0.2-1.8-0.2
			c0-1.1,0-2.2,0-3.3c2,0.2,4.2-0.2,5.5-0.7c0.7-0.3,0.8-0.3,1.1-0.7c0.1-0.1,0.4,0.1,0.4,0c0.1-0.1,0.4-0.4,0.4-0.4
			c0.2-0.2,0.1-0.4,0.2-0.7c0.1-0.1,0.4-0.3,0.4-0.4c0.4-0.9,0.5-1.9,0.7-2.9c0.4-2.7,0.2-6.2,0.2-9c0-14.9,0-31.1,0-44.3
			c-4.8,0.2-11.7-0.3-15.9,0.2c-0.9,0.1-1.1-0.1-1.3,0.2c0,0.1-0.6,0-0.7,0c-0.2,0-0.2,0.2-0.2,0.2c-0.7,0.2-0.9,0.2-1.1,0.4
			c-0.1,0.1-0.6,0.2-0.7,0.2c-0.5,0.3-0.6,0.6-0.9,0.9c-0.2,0.2-0.5,0.2-0.7,0.4c-0.1,0.1,0,0.3,0,0.4s-0.4,0.1-0.4,0.2
			c-0.2,0.3-0.1,0.6-0.2,0.9c0,0-0.2,0.1-0.2,0.2c-0.4,0.7-0.5,1.4-0.9,2c-0.2,0.8-1.8,0.3-2.6,0.4c-0.4-0.1-0.2-1.1-0.2-1.3
			c0-0.1,0.2-0.2,0.2-0.2c0-0.6-0.1-1.4,0-2c0,0,0.2-0.1,0.2-0.2s0-0.3,0-0.4c0.2-2.4,0.4-4.3,0.7-6.4c0.1-1.2,0-2.6,0.7-3.3
			c0.5,0,1,0,1.5,0c0.3,0.2,0.4,0.6,0.7,0.9c0.8,0.6,1.7,0.6,2.4,0.7h0.2c0.7,0.7,4.6,0.2,6.2,0.2c12.4,0,25.5,0,37.5,0
			c2.3,0,4.5,0.2,6.4,0c0.4-0.1,1.4-0.4,1.5-0.4c0.5-0.1,0.8-0.1,0.9-0.4c0.6-0.5,1.1-1.1,2.4-0.9c0.2,1.7,0.3,3.4,0.4,4.9
			c0,0,0.2,0.1,0.2,0.2c0.1,0.3,0,0.8,0,1.1c0,0.2,0.2,0.2,0.2,0.2c0.2,1.2,0.2,2.2,0.2,3.1c0,0.2,0.2,0.2,0.2,0.2
			c0.1,0.5-0.1,1.2,0,1.8c0,0,0.2,0.1,0.2,0.2C561,360.1,560.7,360.9,561.1,360.9z"/>
		<path fill="#1D1D1B" d="M168.3,348.2c3,0,6,0,9,0c5.1,12.1,10.8,26.3,16.3,39.7c0.3,0.8,0.7,1.7,1.1,2.6c0,0.1-0.1,0.4,0,0.4
			c0.4,0.3,0.8,1.5,1.1,2.2c0,0.1-0.1,0.4,0,0.4h0.2c0,0.1-0.1,0.4,0,0.4c0.2,0.2,0.3,0.4,0.4,0.7c0,0.1-0.1,0.4,0,0.4h0.2
			c0.1,0.3,0.1,0.8,0.2,1.1c0,0.1,0.4,0.4,0.4,0.4c0.1,0.2-0.1,0.5,0,0.7c0,0.1,0.2,0,0.2,0.2c0,0.3,0.3,0.5,0.4,0.9
			c0.1,0.4,0.3,0.7,0.4,1.1c0.1,0.4,0.3,0.7,0.4,1.1c0.1,0.4,0.2,0.9,0.4,1.3c0.1,0.1,0.2,0,0.2,0.2c0,0.9,0.9,2.3,1.3,3.3
			c0,0.1-0.1,0.4,0,0.4h0.2c0,0.1-0.1,0.4,0,0.4c0.6,0.5,0.9,1.9,1.3,2.9c0,0.1,0.2,0,0.2,0.2v0.2c0.1,0.2,0.5,0.4,0.7,0.7
			c0.1,0.2,0.1,0.5,0.2,0.7c0.1,0.1,0.2,0,0.2,0.2c0,0.4,1.1,1.2,1.5,1.5c0.6,0.5,1.3,0.9,2.4,1.1c0.7,0.1,1.4,0.2,2,0.2
			c0,1.1,0,2.2,0,3.3c-7.8-0.1-16.1,0.1-24.3,0c-1.1,0-2.1,0.2-3.1-0.2c0-1,0-1.9,0-2.9c0.8-0.6,1.6-0.1,2.6-0.4
			c0.2-0.1,0.5-0.1,0.9-0.2c0.1,0,0.9-0.2,1.3-0.4c0.1,0,0.1-0.4,0.2-0.4c0.1,0,0.4,0.1,0.4,0c0.4-0.4,0.3-1,0.9-1.3
			c0-1.3,0.1-2.4-0.2-3.5c-0.1-0.3-0.4-1.1-0.7-1.8c-0.1-0.3-0.3-0.7-0.4-1.1c-0.2-0.7-0.3-1.2-0.7-2c-0.1-0.1-0.1-0.3-0.2-0.4
			c-0.1-0.2-0.1-0.3-0.2-0.7c-0.1-0.2-0.2-0.1-0.2-0.2c-0.3-0.7-0.3-1.4-0.7-2c-0.1-0.2-0.1-0.3-0.2-0.7c-0.1-0.2-0.3-0.6-0.4-1.1
			c-1.2-3.4-3-7.2-4.2-11c-6.8,0-13.7,0-20.5,0c-0.5,0-0.4,0.7-0.7,1.1c-0.2,0.3-0.5,1.2-0.7,1.8c-1,2.7-2.2,5.5-3.3,8.6
			c-0.7,1.8-1.5,3.7-2.2,5.7c-1,2.6-2.1,5.9-0.7,7.9c1,1.4,3.1,1.9,5.5,2c0,1.1,0,2.2,0,3.3c-7.2,0-14.4,0-21.6,0c0-1.1,0-2.2,0-3.3
			c1.5,0,3-0.1,4.2-0.7c0.1,0,0.5-0.1,0.7-0.2c0.1-0.1,0.1-0.4,0.2-0.4c0.3-0.2,0.7-0.2,0.9-0.4c0.4-0.4,0.7-1.2,1.1-1.8
			c0.1-0.1,0.4-0.3,0.4-0.4s-0.1-0.4,0-0.4c0.2-0.2,0.4-0.4,0.7-0.9c0.3-0.7,0.6-1.3,0.9-2c0.2-0.5,0.4-1,0.7-1.5
			c0-0.1-0.1-0.4,0-0.4c0.2-0.2,0.3-0.4,0.4-0.7c0-0.1-0.1-0.4,0-0.4h0.2c0.1-0.4,0.1-0.8,0.2-1.1c0-0.1,0.4-0.4,0.4-0.4
			c0.1-0.2-0.1-0.5,0-0.7c0-0.1,0.2,0,0.2-0.2c0-0.6,0.6-1.5,0.9-2.2c0-0.1-0.1-0.4,0-0.4c0.2-0.1,0.2-0.2,0.2-0.4
			c0,0,0.2-0.6,0.2-0.7c0.1-0.1,0.6-0.9,0.7-1.3c0.2-0.8,0.6-1.6,0.9-2.4c0-0.1-0.1-0.4,0-0.4h0.2c0.1-0.4,0.1-0.8,0.2-1.1
			c0-0.1,0.4-0.4,0.4-0.4c0.1-0.2-0.1-0.5,0-0.7c0-0.1,0.2,0,0.2-0.2c0-0.6,0.6-1.5,0.9-2.2c0-0.1-0.1-0.4,0-0.4
			c0.2-0.1,0.2-0.2,0.2-0.4c0,0,0.2-0.6,0.2-0.7c0.1-0.1,0.5-0.9,0.7-1.3c0.2-0.8,0.5-1.5,0.9-2.4c0-0.1-0.1-0.4,0-0.4h0.2
			c0.1-0.4,0.1-0.8,0.2-1.1c0-0.1,0.4-0.4,0.4-0.4c0.1-0.2-0.1-0.5,0-0.7c0-0.1,0.2,0,0.2-0.2c0-0.6,0.6-1.5,0.9-2.2
			c0-0.1-0.1-0.4,0-0.4c0.2-0.1,0.2-0.2,0.2-0.4c0,0,0.2-0.6,0.2-0.7c0.2-0.1,0.2-0.5,0.4-1.1c0.3-0.9,0.7-1.7,1.1-2.6
			c0-0.1-0.1-0.4,0-0.4h0.2c0.1-0.3,0.1-0.8,0.2-1.1c0-0.1,0.4-0.4,0.4-0.4c0.1-0.2-0.1-0.5,0-0.7c0-0.1,0.2,0,0.2-0.2
			c0-0.6,0.6-1.5,0.9-2.2c0-0.1-0.1-0.4,0-0.4c0.2-0.1,0.2-0.2,0.2-0.4c0,0,0.2-0.6,0.2-0.7c0.1-0.1,0.6-0.9,0.7-1.3
			c0.2-0.9,0.7-1.8,1.1-2.9c0.2-0.7,0.2-1,0.4-1.8c0-0.1,0.2,0,0.2-0.2s0.3-0.7,0.4-1.1c0.2-0.5,0.4-1,0.7-1.5c0-0.1-0.1-0.4,0-0.4
			c0.2-0.1,0.2-0.2,0.2-0.4c0,0,0.2-0.6,0.2-0.7c0.1-0.1,0.5-0.9,0.7-1.3c0.4-1.8,1.5-4,2.2-6C168,348.6,168,348.2,168.3,348.2z
			 M170.1,360.7c0,0.1-0.4,0.3-0.4,0.4c-0.2,0.5-0.1,0.7-0.2,1.1c0,0.2-0.2,0.2-0.2,0.2c-0.5,1.2-0.7,2.2-1.1,3.3
			c0,0.1-0.2,0-0.2,0.2c0,0.1,0.1,0.3,0,0.4c0,0.1-0.4,0.3-0.4,0.4c-0.2,0.6-0.1,0.7-0.2,1.1c-0.1,0.5-0.5,1-0.7,1.5
			c-0.2,0.6-0.6,1.5-0.7,1.8c0,0.1,0.1,0.3,0,0.4c0,0.1-0.4,0.3-0.4,0.4c-0.1,0.1,0,0.3,0,0.4c0,0.2-0.2,0.2-0.2,0.2
			c-0.4,1.1-0.7,2.2-1.1,3.3c0,0.1-0.2,0-0.2,0.2c-0.1,0.3-0.2,0.5-0.2,0.7c0,0.1,0,0.3,0,0.4s-0.4,0.3-0.4,0.4
			c-0.1,0.1,0,0.3,0,0.4c-0.1,0.5-0.5,1-0.7,1.5c-0.1,0.4-0.5,0.9-0.2,1.3c5.3,0,10.6,0,15.9,0c0-0.9-0.6-1.8-0.9-2.6
			c-0.3-0.9-0.6-1.8-0.9-2.6c0-0.1-0.2,0-0.2-0.2c0-0.1,0.1-0.3,0-0.4c0-0.1-0.4-0.3-0.4-0.4c-0.2-0.6-0.1-0.7-0.2-1.1
			c0-0.2-0.2-0.2-0.2-0.2c-0.3-0.7-0.5-1.5-0.7-2c-0.1-0.3-0.1-0.5-0.2-0.9c0-0.1-0.4-0.3-0.4-0.4c-0.1-0.1,0-0.3,0-0.4
			c-0.1-0.5-0.5-1.1-0.7-1.5c-0.4-1.1-0.9-2.2-1.1-3.1c0-0.2-0.2-0.2-0.2-0.2c-0.3-0.8-0.4-1.3-0.7-2c-0.2-0.5-0.6-1.3-0.7-1.5
			c-0.1-0.3-0.1-0.4-0.2-0.7c-0.1-0.2,0-0.4-0.2-0.4c0-0.1,0-0.3-0.2-0.2C170,360.3,170.1,360.5,170.1,360.7z"/>
		<path fill="#1D1D1B" d="M315,349.7c0,1.1,0,2.2,0,3.3c-1.4,0.2-2.9,0.2-4,0.9c-0.9,0.6-1.4,1.2-1.8,2.4c-1.7,5.8-0.1,17.4-0.7,24
			c0.4,0.6,0.7-0.3,0.9-0.4c0.2-0.1,0.5-0.1,0.7-0.2c0.1-0.1,0.1-0.4,0.2-0.4c0.3-0.3,0.8-0.4,1.1-0.7c0.3-0.2,0.4-0.7,0.7-0.9
			c0.2-0.1,0.5-0.1,0.7-0.2c0.3-0.2,0.4-0.6,0.9-0.9c0.1-0.1,0.3-0.1,0.4-0.2c0.6-0.5,1-1.1,1.5-1.5c0.1-0.1,0.3-0.3,0.4-0.4
			c0.2-0.1,0.5-0.1,0.7-0.2c0.3-0.2,0.4-0.7,0.7-0.9c0.2-0.1,0.5-0.1,0.7-0.2c0.2-0.2,0.7-0.7,1.1-1.1c0.9-0.7,1.7-1.4,2.6-2.2
			c0.6-0.5,1.1-1,1.8-1.5c0.3-0.2,0.6-0.4,0.9-0.7c0.3-0.3,0.6-0.6,0.9-0.9c0.8-0.7,1.7-1.4,2.6-2.2c0.4-0.4,0.8-0.7,1.3-1.1
			c0.1-0.1,0-0.2,0.2-0.2c0.4,0,1.1-1.5,1.8-1.5c0.2,0,1.5-1.2,1.8-1.5c0.3-0.3,0.4-0.7,0.7-1.1c0.1-0.2,0.3-0.2,0.4-0.4
			c0.3-0.6,1-2,0.9-2.9c-0.2-1.8-2.3-2.5-4.4-2.6c0-1.1,0-2.2,0-3.3c7.6,0,15.1,0,22.7,0c0,1.1,0,2.2,0,3.3c-1.5,0-3.1,0.3-4.4,0.9
			c-0.2,0.1-0.5,0.1-0.7,0.2c-0.2,0.1-0.3,0.4-0.4,0.4c-0.2,0.1-0.5,0.1-0.7,0.2c-0.1,0.1-0.1,0.4-0.2,0.4c-0.2,0.1-0.5,0.1-0.7,0.2
			c-0.1,0.1,0,0.2-0.2,0.2c-0.4,0-0.5,0.6-0.9,0.9c-0.2,0.2-0.5,0.1-0.7,0.2c-0.3,0.2-0.6,0.7-1.1,1.1c-0.5,0.5-1,1-1.5,1.5
			c-0.2,0.2-0.5,0.1-0.7,0.2c-0.2,0.2-0.7,0.7-1.1,1.1c-0.5,0.5-1,1.1-1.5,1.5c-0.6,0.5-1.2,0.9-1.8,1.3c-0.5,0.5-1,1.1-1.5,1.5
			c-4.5,4.1-8.9,7.8-13,11.7c0.1,0.6,0.5,0.9,0.9,1.3c0.2,0.2,0.3,0.5,0.4,0.7c0.1,0.1,0.4,0.2,0.4,0.2c0,0.1-0.1,0.4,0,0.4
			c0.3,0.4,0.7,0.6,1.1,1.1c0.6,0.7,1.1,1.5,1.8,2.4c0.3,0.4,0.8,0.7,1.1,1.1c0.6,0.7,1.2,1.6,1.8,2.4c0.6,0.8,1.3,1.6,2,2.4
			c0.2,0.2,0.3,0.5,0.4,0.7c0.1,0.1,0.4,0.2,0.4,0.2c0,0.1-0.1,0.4,0,0.4c0.2,0.2,0.5,0.3,0.7,0.4c0.1,0.2,0.1,0.5,0.2,0.7
			c0.3,0.4,0.8,0.7,1.1,1.1c0.1,0.2,0.6,0.6,0.7,0.9c0,0.3,1,1.1,1.3,1.5c0.2,0.2,0.3,0.4,0.4,0.7c0.4,0.5,0.8,1.1,1.3,1.8
			c0.3,0.4,0.8,0.7,1.1,1.1c0.1,0.1,0.1,0.3,0.2,0.4s0.4,0.5,0.7,0.9c0.3,0.4,0.6,0.7,0.9,1.1c0.5,0.6,1,1.1,1.5,1.8
			c0.2,0.2,0.3,0.4,0.4,0.7c0.3,0.4,0.8,0.7,1.1,1.1c0.1,0.1,0.1,0.3,0.2,0.4c0.1,0.2,0.4,0.4,0.7,0.7c0.7,0.8,1.2,1.6,2,2.4
			c1,1,2.1,2.1,3.3,3.1c0.2,0.2,0.4,0.3,0.7,0.4c0.1,0.1,0.2,0.4,0.2,0.4c0.1,0.1,0.3-0.1,0.4,0s0.1,0.4,0.2,0.4
			c0.4,0.2,0.7,0.2,1.1,0.4c0.1,0.1,0,0.2,0.2,0.2c0.5,0,0.6,0.3,1.1,0.4c1.4,0.4,3.2,0.5,4.6,0.7c0,1.1,0,2.2,0,3.3
			c-9.6,0-19.1,0-28.7,0c0-1.1,0-2.2,0-3.3c1-0.1,2.1-0.1,2.9-0.4c0.9-0.4,1.3-0.9,1.8-1.5c0.1-1.5-0.3-2.9-0.9-4
			c-0.1-0.2-0.3-0.3-0.4-0.4s0.1-0.4,0-0.4h-0.2c-0.1-0.2-0.1-0.5-0.2-0.7c-0.1-0.1-0.4-0.1-0.4-0.2c-0.1-0.2-0.1-0.5-0.2-0.7
			c-0.1-0.1-0.4-0.1-0.4-0.2c-0.1-0.2-0.1-0.5-0.2-0.7c-0.2-0.2-0.7-0.7-1.1-1.1c-3-3.6-5.7-6.8-8.6-10.4c-0.2-0.3-0.4-0.6-0.7-0.9
			c-0.4-0.4-0.7-0.8-1.1-1.3c-0.1-0.1-0.2,0-0.2-0.2c0-0.3-0.6-0.5-0.9-0.9c-0.2-0.2-0.1-0.5-0.2-0.7c-0.3-0.3-0.7-0.6-1.1-1.1
			c-0.5-0.6-0.9-1.2-1.3-1.8c-0.2-0.2-0.3-0.2-0.4-0.4c-0.1-0.2-0.9-0.7-0.9-1.1c0-0.3-0.6-0.5-0.9-0.9c-0.2-0.3-0.1-0.8-0.7-0.9
			c-0.9,0-0.9,0.9-1.5,1.1c-1.2,1.3-2.7,2.1-3.8,3.5c0.1,4.9-0.3,14.3,0.2,19.9c0.1,1,0.2,1.3,0.2,2.2c0,0.6,0.2,1,0.4,1.5
			c0.3,0.7,0.6,1,1.3,1.5c0.8,0.7,2.5,1,4.4,1.1c0,1.1,0,2.2,0,3.3c-8.1,0-16.2,0-24.3,0c0-1.1,0-2.2,0-3.3c1-0.1,2.6-0.1,3.7-0.7
			c0.1-0.1,0.5-0.1,0.7-0.2c0,0,1-0.9,1.1-1.1s0.3-0.8,0.4-1.3c0.1-0.3,0.1-0.5,0.2-1.1c0.1-0.3,0.2-1,0.2-2
			c0.7-13.6,0.2-29.4,0.2-43.2c0-2.6,0.1-5.4-0.2-7.5c-0.1-0.6-0.2-1.6-0.4-2c-1-1.7-3.5-2-5.7-2c0-1.1,0-2.2,0-3.3
			C299.1,349.7,307,349.7,315,349.7z"/>
		<path fill="#1D1D1B" d="M369.2,349.7c16.7,0,33.4,0,50.1,0c0.7,4,1.3,8.1,2,12.1c-1,0-1.9,0-2.9,0c-0.6,0.1-0.5-0.6-0.7-0.9
			c-0.5-1.1-1.2-2.3-2.2-3.3c-0.2-0.2-0.5-0.5-0.7-0.7c-0.1-0.1-0.4,0.1-0.4,0c-0.5-0.7-1.9-1.2-3.1-1.5c-0.1,0-0.4,0.1-0.4,0
			c-0.2-0.3-0.4-0.1-0.9-0.2c-2.6-0.6-7.5-0.2-11.5-0.2c-3.8,0-7.6,0-11,0c0,8.3,0,16.6,0,24.9c5.5-0.1,13.4,0.1,19.6,0
			c2.9,0,5.2,0,6.4-1.8c0.2-0.3,0.3-0.3,0.4-0.9c0.1-0.2,0.2-0.1,0.2-0.2c0.4-0.8-0.3-2.6,1.5-2c0.5,0.2,0.5-0.1,0.7,0.4
			c0.2,0.7,0,1.9,0,3.1c0,3.5,0.2,6.6,0,10.1c0,0.5,0.4,1.5-0.4,1.5c-0.6,0-1.3,0.1-1.5-0.2c0-1.1-0.3-2.2-0.9-3.1
			c-0.1-0.1-0.2,0-0.2-0.2c0-0.5-0.5-0.2-0.7-0.4c-0.3-0.4-0.5-0.4-1.3-0.7c-0.3-0.1-0.5-0.2-0.9-0.2c-0.2,0-0.5,0.1-0.7,0
			c-2-0.6-7.3-0.2-11.2-0.2c-4.1,0-8,0-10.8,0c-0.4,0.5-0.2,1-0.2,1.5c-0.2,7.8,0.1,16.9,0,25.1c0.2,0.4,1.3,0.2,2,0.2
			c6.3,0.1,13.6,0.1,20.3,0c0.5,0,1,0.1,1.5,0c0.8-0.2,3.1-0.2,4.2-0.4c0,0,0-0.2,0.2-0.2c0.6,0,0.7,0,1.3-0.2c0.1,0,0-0.2,0.2-0.2
			c1-0.1,2.5-1.3,3.1-2c0.3-0.3,0.4-0.7,0.7-1.1c0.1-0.1,0.4-0.3,0.4-0.4s-0.1-0.4,0-0.4c0.4-0.3,0.5-1.5,1.1-2.2c0.9,0,1.8,0,2.6,0
			c0.1,0.6-0.1,1.2-0.2,1.8c-0.1,0.6-0.1,1.2-0.2,1.8c0,0-0.2,0-0.2,0.2c0,0.7-0.1,0.6-0.2,1.3c-0.1,0.4-0.1,1.1-0.2,1.5
			c0,0-0.2,0-0.2,0.2c0,0.5-0.1,0.7-0.2,1.3s-0.1,1.2-0.2,1.8c0,0-0.2,0-0.2,0.2c0,0.8-0.3,1.8-0.7,2.6c-16.9-0.2-34.4,0.2-51.6,0
			c-1,0-2.1,0.2-3.1-0.2c0-1.1,0-2.2,0-3.3c0.8-0.1,1.8,0.1,2.9,0c0.3,0,0.4-0.2,0.7-0.2c0.2,0,0.8,0.1,0.9,0
			c0.2-0.2,0.2-0.2,0.4-0.2c0.2-0.1,0.5-0.3,0.9-0.4c1.5-0.6,2.1-2.2,2.4-4.6c0.5-3.8,0.2-9.5,0.2-14.1c0-8.4,0-17.4,0-26.7
			c0-4.1,0.5-10.6-0.7-12.6c-1.1-1.8-4.2-2.1-6.8-2c0-1,0-1.9,0-2.9C368.8,350,369,349.8,369.2,349.7z"/>
		<path fill="#1D1D1B" d="M221.5,476.8c-1.5,0-2.9,0-4.4,0v-0.2c-1.5-0.1-2.6-0.2-3.5-0.4c-0.6-0.1-1-0.3-1.1-0.4l-0.7-0.2
			c-0.3-0.1-0.5-0.2-0.7-0.2c-0.1,0-0.3,0.1-0.4,0c-0.1,0-0.3-0.4-0.4-0.4c-0.5-0.2-0.9-0.2-1.3-0.4c-0.1-0.1-0.3-0.3-0.4-0.4
			c-0.1-0.1-0.5-0.4-0.7-0.4c-0.3,0-0.1-0.1-0.2-0.2c-0.4-0.3-0.8-0.4-1.1-0.7c-0.1-0.1-0.3-0.3-0.4-0.4c-0.3-0.3-0.6-0.6-0.9-0.9
			c-0.1-0.1-0.3-0.3-0.4-0.4c-0.1-0.2-0.1-0.5-0.2-0.7c-0.1-0.1-0.3-0.1-0.4-0.2c-0.2-0.2-0.1-0.5-0.2-0.7c-0.3-0.3-0.7-0.7-0.9-0.9
			c-0.2-0.4-0.2-0.9-0.4-1.3c-0.1-0.1-0.4-0.3-0.4-0.4c-0.1-0.2-0.2-0.5-0.2-0.7c-0.1-0.3-0.1-0.5-0.2-0.9c0-0.2-0.2-0.2-0.2-0.2
			c-0.2-0.5-0.1-1-0.2-1.5c0,0-0.2-0.1-0.2-0.2c-0.2-0.8,0-2.5-0.4-2.9v-0.4c-0.2-1.1,0.1-1.7,0.2-2.4c0.1-1.1,0.2-2.7,0.7-3.1
			c0.1,0,0-0.4,0-0.4c0.2-0.7,0.4-1.4,0.7-2c0-0.1,0.4-0.3,0.4-0.4c0.1-0.2,0.1-0.5,0.2-0.7c0.5-0.9,0.8-1.4,1.3-2
			c0.1-0.2,0.3-0.3,0.4-0.4c0.1-0.2,0.1-0.5,0.2-0.7c0.3-0.3,0.6-0.6,0.9-0.9c0.1-0.1,0.3-0.3,0.4-0.4c0.2-0.1,0.5-0.1,0.7-0.2
			c0.4-0.3,0.5-0.6,0.9-0.9c0.3-0.2,0.7-0.4,1.1-0.7c0.1-0.1,0.3-0.3,0.4-0.4c0.2-0.1,0.4-0.1,0.7-0.2c0.1-0.1,0.3-0.4,0.4-0.4
			c0.2-0.1,0.5-0.1,0.7-0.2c4.3-1.9,9.5-2.2,13.9-1.1c0.6,0.2,1,0.3,1.1,0.4c0,0.1,0.4,0,0.4,0c0.5,0.2,0.6,0.4,1.1,0.4
			c0.2,0,0.1,0.2,0.2,0.2c1.3,0.5,2.3,1,3.3,1.8c1,0.7,1.8,1.5,2.6,2.4c0.3,0.3,0.6,0.4,0.7,0.7c0,0.2,0.3,0.5,0.4,0.7
			c0.2,0.2,0.5,0.4,0.7,0.7c0.2,0.3,0.2,0.6,0.4,0.9c0.7,1.1,1.2,2.2,1.5,3.5c1,3.3,1,6.1,0.4,8.8c-0.3,1.4-0.8,3.4-1.3,4.2
			c-0.5,0.7-0.6,1.4-1.1,1.8c-0.1,0.1,0.1,0.4,0,0.4c-0.1,0.2-0.5,0.4-0.7,0.7c-0.2,0.2-0.3,0.4-0.4,0.7c-0.6,0.8-1.3,1.4-2,2
			c-0.6,0.5-1.4,1.1-1.8,1.5c-0.1,0.1-0.4-0.1-0.4,0c-0.3,0.2-0.5,0.6-0.7,0.7c-0.3,0.2-0.6,0.1-0.9,0.2c-0.3,0.1-0.6,0.3-0.9,0.4
			c-1.6,0.6-3.5,1.1-5.1,1.3C222.2,476.6,221.7,476.3,221.5,476.8z M215.7,445.7c-0.5,0.3-1.3,0.5-1.5,0.7c-0.2,0.1-0.3,0.1-0.4,0.2
			c-0.2,0.2-0.4,0.5-0.7,0.7h-0.2c-0.4,0-1.2,1-1.3,1.1c-0.9,0.9-1.6,1.9-2.2,2.9c-0.8,1.4-2.2,4.6-2.2,7.9c0,1.3,0.2,2.8,0.7,4.4
			c0.1,0.5,0.2,0.9,0.2,1.1s0.2,0.1,0.2,0.2c0.2,0.4,0.2,1.1,0.4,1.5h0.2c0.1,0.1,0,0.4,0,0.4h0.2c0.1,0.1,0,0.4,0,0.4
			c0,0.1,0.4,0.1,0.4,0.2s0.2,0.7,0.2,0.7c0,0.4,0.8,0.9,0.9,1.1c0.3,0.5,0.8,1,1.1,1.3c0.1,0.1,0.5,0.1,0.7,0.2
			c0.1,0.1,0.2,0.4,0.2,0.4c0.1,0.1,0.4-0.1,0.4,0c0.1,0.1,0.3,0.3,0.4,0.4c0.3,0.2,0.7,0.3,1.1,0.4c0.4,0.1,0.8,0.4,1.1,0.4
			c0.6,0.2,0.8,0.2,1.3,0.2c0.2,0,0.2,0.2,0.2,0.2c1.1,0.2,3,0.2,4.2,0v-0.2h0.4c0.9-0.2,1.9-0.3,2.2-0.7c0.1-0.1,0.4,0,0.4,0
			c0.1-0.1,0.3-0.4,0.4-0.4c0.2-0.1,0.5-0.1,0.7-0.2c0.1-0.1,0.3-0.3,0.4-0.4c0.2-0.1,0.5-0.1,0.7-0.2c0.3-0.2,1.5-1.6,1.5-1.8
			c0-0.3,0.1-0.1,0.2-0.2c0.3-0.4,0.5-0.8,0.7-1.1c0.3-0.6,0.4-0.8,0.7-1.3c0.2-0.6,0.7-1.8,0.9-2c0.1,0,0-0.6,0-0.7
			c0-0.2,0.2-0.2,0.2-0.2c0.1-0.7,0.1-1.4,0.2-2.2c0.1-0.8,0.2-1.7,0.2-2.4c0-1.2-0.4-2.7-0.4-3.5c0-0.2-0.2-0.2-0.2-0.2
			c-0.1-0.6-0.2-1.1-0.4-1.8c-0.1-0.2-0.2-0.1-0.2-0.2c-0.2-0.3-0.3-1.2-0.4-1.5h-0.2c-0.1-0.1,0.1-0.4,0-0.4
			c-0.1-0.2-0.4-0.2-0.4-0.4s-0.3-0.5-0.4-0.7c-0.2-0.3-0.7-0.7-0.7-0.9c0-0.3-0.1-0.1-0.2-0.2c-0.4-0.6-1-1.1-1.3-1.5
			c-0.1-0.1-0.4,0.1-0.4,0c-0.3-0.2-0.4-0.4-0.7-0.7c-0.1-0.1-0.3-0.1-0.4-0.2c-0.2-0.1-0.3-0.4-0.4-0.4c-0.2-0.1-0.5,0.1-0.7,0
			c-0.1,0-0.3-0.4-0.4-0.4c-0.6-0.2-1.4-0.3-2.2-0.4c-0.8-0.1-2-0.3-2.6-0.2c-0.1,0-0.2,0.2-0.2,0.2
			C217,445.3,216.1,445.4,215.7,445.7z"/>
		<path fill="#1D1D1B" d="M364.4,476.8c-1.5,0-3.1,0-4.6,0v-0.2c-0.9-0.1-1.7-0.1-2.4-0.2c-0.8-0.1-2.2-0.5-2.4-0.7
			c-0.5-0.3-1.5-0.5-1.8-0.7c-0.1-0.1-0.3-0.1-0.4-0.2c-1.2-0.6-2.3-1.3-3.1-2c-1.3-1.1-2.6-2.3-3.3-3.5c-0.2-0.2-0.2-0.3-0.4-0.4
			c-0.1-0.1,0-0.4,0-0.4h-0.2c-0.1-0.1,0-0.4,0-0.4c-0.1-0.2-0.4-0.2-0.4-0.4c0-0.2-0.2-0.1-0.2-0.2c-0.2-0.4-0.3-1.1-0.4-1.3
			c-0.3-0.5-0.3-1-0.4-1.5h-0.2c-0.2-0.2,0-0.7-0.2-0.9c-0.1,0,0-0.6,0-0.7c0-0.2-0.2-0.2-0.2-0.2c-0.1-0.6-0.2-1.5-0.2-2.2
			c-0.2-2.8,0.2-4.7,0.9-6.8c0.2-0.4,0.3-0.8,0.4-0.9c0.1-0.1,0-0.4,0-0.4h0.2c0.1-0.1,0-0.4,0-0.4h0.2c0.1-0.1,0-0.4,0-0.4h0.2
			c0.1-0.1,0-0.4,0-0.4h0.2c0.1-0.1,0-0.4,0-0.4h0.2c0.1-0.1,0-0.4,0-0.4c0.1-0.2,0.5-0.4,0.7-0.7c0.2-0.2,0.2-0.3,0.4-0.4
			c0.1-0.1-0.1-0.4,0-0.4c0.1-0.2,0.5-0.5,0.7-0.7c0.2-0.2,0.5-0.5,0.7-0.7c1.6-1.6,3-2.6,4.9-3.5c0.4-0.2,0.7-0.2,1.1-0.4
			c0.1-0.1,0.3-0.4,0.4-0.4c0.1-0.1,0.3,0,0.4,0c0.5-0.1,1.4-0.5,1.5-0.7c0-0.1,0.4,0,0.4,0c0.6-0.2,0.8-0.2,1.3-0.2
			c0.3,0,0.5-0.2,0.7-0.2c3.4-0.5,7.3,0,9.9,0.9c0.8,0.3,2.1,0.7,2.4,1.1c0.1,0.1,0.4,0,0.4,0c0.1,0.1,0.3,0.4,0.4,0.4
			c0.2,0.1,0.3,0.1,0.4,0.2c0.2,0.1,0.5,0.1,0.7,0.2c0.1,0.1,0.1,0.4,0.2,0.4c0.2,0.1,0.5,0.1,0.7,0.2c0.4,0.3,0.6,0.6,0.9,0.9
			c0.6,0.5,1,1,1.5,1.5c0.2,0.3,0.4,0.6,0.7,0.9c0.3,0.4,0.7,0.6,0.9,0.9v0.2c0,0.3,0.5,0.8,0.7,0.9c0.1,0.1,0,0.4,0,0.4
			c0.1,0.1,0.4,0.3,0.4,0.4c0.1,0.3,0.3,0.8,0.4,1.1c0.3,0.7,0.5,2.4,0.9,2.6v0.4c0.2,0.9,0.1,1.3,0.2,2.2c0,0.5,0.2,1.1,0.2,1.5
			c0,0.5-0.1,1.1-0.2,1.8c-0.1,0.8-0.4,1.9-0.4,2.2c0,0.1,0,0.3,0,0.4c-0.2,1.1-0.8,2.4-1.1,3.1c-0.1,0.1-0.2,0.3-0.2,0.4
			c0,0.2-0.2,0.1-0.2,0.2c-0.2,0.3-0.1,0.6-0.2,0.9c0,0.1-0.4,0.2-0.4,0.2c-0.1,0.1,0.1,0.4,0,0.4c0,0.1-0.4,0.2-0.4,0.2
			c-0.1,0.1,0.1,0.4,0,0.4c-0.3,0.4-0.9,0.5-0.9,0.9c0,0.3-0.1,0.1-0.2,0.2c-0.5,0.7-1,1.1-1.5,1.5c-0.2,0.2-0.5,0.3-0.7,0.4
			c-0.2,0.2-0.2,0.5-0.4,0.7c-0.2,0.1-0.5,0.1-0.7,0.2c-0.1,0-0.1,0.2-0.2,0.2c-0.6,0.4-1.4,0.6-2,0.9c-0.1,0.1-0.3,0.4-0.4,0.4
			c-0.3,0.2-0.6,0.1-0.9,0.2c-0.5,0.2-0.9,0.4-1.1,0.4c-0.1,0-0.2,0-0.2,0c-0.2,0-0.2,0.2-0.2,0.2c-0.7,0.2-1.3,0.1-2,0.2
			c-0.3,0-0.4,0.2-0.9,0.2C364.9,476.6,364.5,476.4,364.4,476.8z M360.2,445.2c-0.9,0.2-2.7,0.7-3.1,1.1c-0.1,0.1-0.4,0-0.4,0
			c-0.1,0-0.2,0.4-0.2,0.4c-0.1,0.1-0.4-0.1-0.4,0c-0.2,0.1-0.5,0.5-0.7,0.7c-0.4,0.4-0.9,0.7-1.3,1.1c-0.8,0.8-1.4,1.9-2,2.4
			c-0.1,0.1-0.2,0.6-0.2,0.7c-2,3.1-2.5,8.2-1.3,12.4c0.2,0.7,0.5,1.2,0.7,1.8c0,0.2,0.2,0.1,0.2,0.2c0.3,0.7,0.5,1.4,0.9,2
			c0.1,0.1,0.3,0.3,0.4,0.4c0.4,0.6,1.3,2,1.8,2c0.4,0,0.5,0.5,0.7,0.7c0.1,0.1,0.4-0.1,0.4,0c0.1,0.1,0.2,0.4,0.2,0.4
			c0.1,0.1,0.4-0.1,0.4,0c0.1,0.1,0.1,0.4,0.2,0.4c0.2,0.2,0.6,0.2,0.9,0.2c0.4,0.1,0.8,0.4,1.1,0.4c0.6,0.2,0.8,0.2,1.3,0.2
			c0.2,0,0.2,0.2,0.2,0.2c1.1,0.2,2.9,0.2,4.2,0v-0.2h0.4c0.9-0.2,1.9-0.3,2.2-0.7c0.1-0.1,0.4,0,0.4,0c0.1-0.1,0.3-0.4,0.4-0.4
			c0.2-0.1,0.5-0.1,0.7-0.2c0.1-0.1,0.3-0.4,0.4-0.4c0.2-0.1,0.5-0.1,0.7-0.2c0.5-0.4,1-1.2,1.3-1.5c0.4-0.4,0.7-0.8,0.9-1.1
			c0.3-0.4,0.2-0.7,0.4-1.1c0-0.1,0.4-0.1,0.4-0.2c0.1-0.3,0.1-0.7,0.2-0.9c0.5-1.2,0.9-2.9,1.1-4c0.1-0.4,0-0.7,0-1.1
			c0.1-0.7,0.2-1.3,0.2-2c0-0.7-0.2-0.8-0.2-1.1c-0.1-0.5,0.1-0.8,0-1.3c-0.1-0.6-0.4-1.4-0.7-2.2c-0.2-0.8-0.6-1.9-0.9-2.2
			c-0.1-0.1,0-0.4,0-0.4c-0.1-0.1-0.4-0.3-0.4-0.4c-0.3-0.5-0.4-0.8-0.7-1.1c-0.5-0.7-1.9-2.6-2.4-2.6c-0.3,0-0.1-0.1-0.2-0.2
			c-0.4-0.3-0.8-0.5-1.1-0.7c-0.4-0.3-0.5-0.3-0.9-0.4c-0.2,0-0.2-0.2-0.2-0.2c-1.4-0.6-3.6-1.1-5.5-0.9c-0.1,0-0.2,0.2-0.2,0.2
			C360.5,445.2,360.3,445.2,360.2,445.2z"/>
		<path fill="#1D1D1B" d="M277.7,464.6c0-7.5,0-15,0-22.5c1.5,0,3.1,0,4.6,0c0,11.2,0,22.5,0,33.7c-1.2-0.1-3.1,0.3-4-0.4
			c-0.1-0.1-0.4-0.4-0.7-0.7c-0.4-0.4-0.9-0.9-1.3-1.3c-6.4-6.4-12.4-12.6-18.7-19c-0.3-0.2-0.4-0.6-0.7-0.9
			c-0.2-0.3-0.6-0.4-0.9-0.7c-0.5-0.5-0.8-1.2-1.5-1.3c0,8.1,0,16.2,0,24.3c-1.5,0-3.1,0-4.6,0c0-11.2,0-22.5,0-33.7
			c1.5,0.4,3.6-0.5,5.3,0c0.8,0.2,1.4,1.2,2.4,2.2c1.4,1.4,2.3,2.2,3.5,3.5c0.9,1.1,2.3,2.3,3.3,3.3c3.4,3.4,6.2,6.4,9,9.3
			C274.8,461.9,276.2,463.3,277.7,464.6z"/>
		<path fill="#1D1D1B" d="M299.1,476.1c0-11.2,0-22.5,0-33.7c3.1-0.2,5.9,0.2,8.4,0c0.4,0,0.5-0.2,0.9-0.2c1.4-0.1,2.9,0.2,4.4,0.2
			c1.6,0.1,3-0.1,4.4,0c0,0,0.1,0.2,0.2,0.2c0.4,0,1-0.2,1.5,0c0.6,0.2,2.1,0.4,3.1,0.7c0.4,0.1,1.1,0.5,1.5,0.7
			c0.3,0.1,0.6,0.1,0.9,0.2c0.2,0.1,0.3,0.3,0.4,0.4c0.2,0.2,0.5,0.2,0.9,0.4c0.1,0.1,0,0.2,0.2,0.2c0.3,0,1.8,1.6,2.2,2
			c0.2,0.2,0.5,0.5,0.7,0.7c0.1,0.1-0.1,0.4,0,0.4c0.2,0.2,0.3,0.2,0.4,0.4c0.2,0.2,0.5,0.5,0.7,0.7c0.2,0.3,0.1,0.6,0.2,0.9
			c0.1,0.1,0.2,0,0.2,0.2c0,0.3,0.7,1.4,0.9,2c0.3,0.9,0.4,1.6,0.7,2.6c0.5,2.3,0.2,5.9-0.2,7.9c-0.2,0.7-0.3,1.5-0.4,2
			c0,0.1-0.2,0-0.2,0.2c0,0.2-0.3,0.8-0.4,1.1c0,0.1-0.1,0.6-0.2,0.7h-0.2c0,0.1,0.1,0.4,0,0.4h-0.2c-0.1,0.3,0,0.6-0.2,0.9
			c-0.1,0.2-0.5,0.4-0.7,0.7c-0.1,0.2-0.4,0.4-0.4,0.7c0,0.2-1,1.3-1.3,1.5c-0.9,0.9-2,1.6-3.1,2.2c-0.7,0.4-1.4,0.8-2.2,1.1
			c-0.1,0-0.4-0.1-0.4,0c-0.4,0.4-1.3,0.5-2.2,0.7c0,0,0,0.2-0.2,0.2c-0.3,0-0.6,0-0.9,0c0,0,0,0.2-0.2,0.2c-0.3,0-0.6,0-0.9,0
			C312.1,476.3,305,475.4,299.1,476.1z M305.7,446.5c0,8.5,0,17.1,0,25.6c3-0.1,6.2,0.2,7.7-0.2c0.1,0,0.3,0,0.4,0
			c1-0.1,1.5-0.2,2.2-0.2c0.2,0,0.2-0.2,0.2-0.2c0.5-0.1,1.1-0.1,1.5-0.2c0.1,0,0.3-0.4,0.4-0.4c0.3-0.1,0.6-0.1,0.9-0.2
			c0.8-0.5,1.8-1.3,2.4-2c0.7-0.8,1.3-1.7,1.8-2.6c0.1-0.3,0.3-0.4,0.4-0.7c0.2-0.3,0.1-0.6,0.2-0.9c0-0.1,0.2-0.1,0.2-0.2
			c0.2-0.4,0.2-0.6,0.2-1.1c0-0.2,0.2-0.2,0.2-0.2c0.2-0.6,0.1-1.3,0.2-2c0.4-3.1,0-5.9-1.1-8.6h-0.2c-0.1-0.1-0.2-0.6-0.2-0.7
			c-0.2-0.2-0.3-0.4-0.4-0.7c-0.3-0.4-0.4-0.5-0.7-0.7c-0.1-0.1,0.1-0.4,0-0.4c-0.1-0.2-0.5-0.3-0.7-0.4c-0.5-0.6-1-1.1-1.3-1.5
			c-0.1-0.1-0.4,0.1-0.4,0c-0.2-0.1-0.2-0.4-0.4-0.4c-0.2,0-0.1-0.2-0.2-0.2c-0.3-0.2-0.9-0.3-1.3-0.4c-0.4-0.1-0.9-0.4-1.3-0.4
			c-0.9-0.2-2.3-0.2-3.1-0.2c-0.1,0-0.2-0.2-0.2-0.2c-2.1-0.1-4.6,0.1-7.3,0C305.7,445.9,305.7,446.2,305.7,446.5z"/>
		<path fill="#1D1D1B" d="M420.9,464.6c-0.1-7.4,0.2-15.7-0.2-22.1c1.1-0.5,3.1-0.1,4.6-0.2c0,11-0.1,22.2,0.2,32.9
			c-0.3,0.1-0.2,0.4,0,0.4c-0.1,0.5-1.1,0.1-1.5,0.2c-0.6-0.1-1.2,0.1-1.8,0c-0.7-0.2-1.5-1.1-2.2-1.8c-1.3-1.3-2.4-2.6-3.8-4
			c-0.6-0.6-1.2-1.4-2-1.8c-0.3-1-1.3-1.5-2-2.2c-4-4-8.4-8.4-12.6-12.6c-0.7-0.7-1.2-1.7-2.2-2c0,8.1,0,16.2,0,24.3
			c-1,0.3-3-0.2-4.6,0c0-11.2,0-22.4,0-33.5c0.2,0,0.2-0.2,0.4-0.2c0.7,0.2,1.5,0.2,2.2,0.2c0.9,0,1.9-0.3,2.9,0
			c0.8,0.2,2,1.6,3.1,2.6c2,2,3.6,3.7,5.5,5.7c3.5,3.8,7.5,7.4,11,11.2c0.2,0.2,0.6,0.2,0.7,0.7c0,0.1,0.4,0.6,0.7,0.9
			C419.7,463.9,420.2,464.5,420.9,464.6z"/>
		<path fill="#1D1D1B" d="M175.4,442.3c2.1,0,4.3,0,6.4,0c0,9.8,0,19.6,0,29.3c0.1,0.4,1.1,0.2,1.8,0.2c3.8,0.1,8.8,0,13,0
			c0,1.3,0,2.6,0,4c-7.1,0-14.3,0-21.4,0c0-11,0-21.9,0-32.9C175.1,442.7,175.1,442.4,175.4,442.3z"/>
	</g>
</g>
</svg>
