<?xml version="1.0" encoding="utf-8"?>
<!-- Generator: Adobe Illustrator 18.0.0, SVG Export Plug-In . SVG Version: 6.00 Build 0)  -->
<!DOCTYPE svg PUBLIC "-//W3C//DTD SVG 1.1//EN" "http://www.w3.org/Graphics/SVG/1.1/DTD/svg11.dtd">
<svg version="1.1" id="Calque_1" xmlns="http://www.w3.org/2000/svg" xmlns:xlink="http://www.w3.org/1999/xlink" x="0px" y="0px"
	 viewBox="0 0 841.9 595.3" enable-background="new 0 0 841.9 595.3" xml:space="preserve">
<path fill="#FFFFFF" stroke="#003552" stroke-width="1.4814" stroke-miterlimit="10" d="M547,298c0,70.4-57.1,127.4-127.4,127.4
	S292.2,368.4,292.2,298s57.1-127.4,127.4-127.4C489.9,170.5,547,227.6,547,298z"/>
<path fill="none" stroke="#003552" stroke-width="0.5911" stroke-miterlimit="10" d="M540.5,298c0,66.9-54.2,121-121,121
	c-66.9,0-121-54.2-121-121c0-66.9,54.2-121,121-121C486.4,176.9,540.5,231.1,540.5,298z"/>
<path fill="none" stroke="#003552" stroke-width="0.5911" stroke-miterlimit="10" d="M540.5,298c0,66.9-54.2,121-121,121
	c-66.9,0-121-54.2-121-121c0-66.9,54.2-121,121-121C486.4,176.9,540.5,231.1,540.5,298z"/>
<g>
	<path fill="#003552" d="M370.6,208.1c0-0.1,0.1-0.1,0.1-0.1c0.1-0.1,0.2-0.1,0.4-0.3c0.5-0.3,0.8-0.5,0.9-0.6c0-0.1,0-0.3-0.1-0.5
		l-0.3-0.6l-1-2.1l-0.5-1l-1-2.1l-1.1-2.3c-0.3-0.6-0.4-0.8-0.6-0.8c-0.1-0.1-0.5,0-0.9,0.2c-0.2,0.1-0.4,0.1-0.6,0.2
		c-0.1,0-0.1-0.1-0.1-0.1c0-0.1,0-0.1,0-0.1c0.1-0.1,0.1-0.1,0.1-0.1c0.1-0.1,0.1-0.1,0.3-0.1c0.4-0.1,0.7-0.3,1-0.4l0.6-0.3
		l1.4-0.6c0.7-0.4,1.3-0.6,1.6-0.8c0.4-0.2,0.6-0.4,0.8-0.4c0.1-0.1,0.4-0.2,0.9-0.4l1.1-0.6l0.1-0.1l0.6-0.4h0.1
		c0.1,0,0.1,0.1,0.1,0.1c0.1,0.1,0.1,0.2,0.1,0.4s0.1,0.3,0.1,0.3c0.3,0.6,0.5,1.1,0.7,1.4v0.1c-0.1,0-0.1,0.1-0.1,0.1
		c-0.1-0.1-0.3-0.2-0.5-0.4c-0.2-0.2-0.5-0.4-0.8-0.7c-0.2-0.1-0.4-0.2-0.5-0.3c-0.1,0-0.3,0.1-0.5,0.1c-0.1,0-0.3,0.1-0.8,0.4
		c-0.1,0.1-0.2,0.1-0.4,0.1l-2.3,1.1l-0.2,0.1c-0.3,0.1-0.4,0.3-0.5,0.4c0,0.1,0.1,0.6,0.4,1.2c0,0.1,0.4,0.7,1,1.9l0.6,1.1
		c0.1,0,0.1-0.1,0.2-0.1l0.1-0.1c0.1-0.1,0.2-0.1,0.4-0.2c0.3-0.1,0.5-0.2,0.6-0.3c0.1,0,0.1-0.1,0.1-0.1c0.6-0.3,1.3-0.7,2.3-1.1
		c0.3-0.2,0.4-0.4,0.4-0.4c0-0.1,0-0.4-0.2-0.8c-0.1-0.4-0.2-0.7-0.1-0.8c0.1,0,0.1-0.1,0.2-0.1c0,0.1,0.1,0.1,0.1,0.1
		s0.1,0.1,0.1,0.2c0.1,0.2,0.4,0.8,0.8,1.9c0.1,0.3,0.3,0.6,0.5,0.9c0.2,0.4,0.3,0.5,0.3,0.6c0,0.1,0.1,0.1,0.1,0.2
		c0,0.1-0.1,0.1-0.1,0.1h-0.1c-0.1-0.1-0.4-0.3-0.6-0.6c-0.4-0.5-0.7-0.8-0.9-0.8s-0.5,0-0.8,0.1c-0.1,0-0.2,0.1-0.4,0.2
		c-0.2,0.1-0.5,0.3-0.9,0.4l-0.5,0.3c-0.8,0.4-1.2,0.6-1.5,0.8l0.1,0.3l0.7,1.5l0.4,0.9l0.4,0.9c0.3,0.6,0.4,0.8,0.6,0.9
		c0.1,0.1,0.4,0.1,0.7-0.1l0.5-0.2c0.1,0,0.2-0.1,0.5-0.2c0.3-0.1,0.6-0.3,1.1-0.5c1.1-0.5,1.7-0.8,2.1-1.1c0.3-0.3,0.5-0.6,0.6-0.9
		c0.1-0.4,0.1-1,0.1-1.9c0-0.3,0.1-0.4,0.1-0.5c0.1,0,0.1,0,0.2,0c0.1,0.6,0.2,1,0.2,1.2c0.1,0.4,0.3,0.8,0.4,1.2
		c0.1,0.2,0.1,0.4,0.1,0.5l-0.2,0.1l-2.3,1.1l-1.1,0.5l-2.4,1.2l-1,0.5c-0.1,0.1-0.2,0.1-0.4,0.1c-0.9,0.5-1.6,0.8-2.1,1.1
		C370.6,208.1,370.6,208.1,370.6,208.1c-0.1,0-0.1-0.1-0.1-0.1L370.6,208.1z"/>
	<path fill="#003552" d="M388,189.1c0.1,0.4,0.3,0.6,0.3,0.6l0.2,0.8c0.1,0.4,0.1,0.6,0.1,0.6c-0.1,0.1-0.1,0.1-0.1,0.1h-0.1
		c-0.4-0.7-0.9-1.2-1.5-1.5c-0.6-0.2-1.1-0.2-1.8-0.1c-0.6,0.2-1.1,0.6-1.4,1.1c-0.3,0.5-0.4,1-0.2,1.5c0.1,0.4,0.4,0.6,0.8,0.8
		c0.4,0.2,1.3,0.4,2.7,0.7c1.1,0.2,1.8,0.4,2.3,0.6c0.5,0.1,0.9,0.4,1.2,0.8c0.4,0.4,0.6,0.7,0.7,1.2c0.2,0.6,0.2,1.2,0.1,1.9
		c-0.1,0.6-0.4,1.2-0.9,1.6c-0.4,0.4-1.1,0.8-2,1.1c-0.8,0.2-1.6,0.4-2.3,0.4c-0.5,0-0.8-0.1-0.8-0.1c-0.1-0.1-0.2-0.1-0.2-0.2
		c0-0.1-0.1-0.1-0.1-0.2c-0.1-0.7-0.3-1.3-0.4-1.7c-0.1-0.3-0.1-0.4-0.1-0.5s0.1-0.1,0.1-0.1s0.1,0,0.1,0s0.1,0.1,0.1,0.2
		c0.3,0.7,0.8,1.2,1.6,1.6c0.8,0.4,1.5,0.4,2.3,0.2c0.4-0.1,0.8-0.4,1.1-0.7c0.4-0.3,0.5-0.7,0.6-1.1c0.1-0.4,0.1-0.8,0-1.1
		c-0.1-0.5-0.4-0.8-0.9-1.1c-0.4-0.3-1.3-0.5-2.4-0.7c-1.1-0.2-1.9-0.4-2.3-0.5c-0.6-0.2-1.1-0.5-1.5-0.8c-0.3-0.3-0.5-0.6-0.6-1.1
		c-0.3-0.8-0.1-1.6,0.3-2.3c0.4-0.8,1.2-1.3,2.3-1.6c0.6-0.2,1.1-0.3,1.6-0.3C387.3,188.9,387.6,189,388,189.1z"/>
	<path fill="#003552" d="M395.1,188.2l0.1-1.4c0-0.2,0-0.3,0.1-0.4c0-0.1,0.1-0.1,0.1-0.1c0.1,0,0.3,0.1,0.4,0.3
		c0.1,0.1,0.2,0.3,0.3,0.3c0.1,0.1,0.1,0.1,0.3,0.1h0.1h0.4l2.1-0.4l2.5-0.4l0.7-0.1l1.3-0.3c0.1,0,0.1,0,0.2,0
		c0.4-0.1,0.6-0.1,0.8-0.1c0.1,0,0.1-0.1,0.2-0.1c0,0,0.1-0.2,0.2-0.6c0.1-0.2,0.1-0.3,0.2-0.3c0.1,0,0.1,0,0.2,0
		c0.1,0.1,0.1,0.2,0.1,0.3l0.1,0.4l0.1,0.8c0,0.2,0.1,0.8,0.3,1.8c0,0.1,0,0.1,0,0.2c-0.1,0.1-0.1,0.1-0.1,0.1c-0.1,0-0.1,0-0.1-0.1
		c-0.1-0.1-0.1-0.1-0.2-0.4c-0.2-0.5-0.4-0.8-0.6-1.1c-0.1-0.1-0.4-0.2-0.6-0.2c-0.2,0-0.8,0.1-1.6,0.2c-0.7,0.1-1.2,0.2-1.5,0.3
		c0,0.2,0.1,0.4,0.1,0.6l1.1,5.5c0.1,0.2,0.1,0.6,0.2,1.3l0.2,1.2l0.1,0.6c0.1,0.2,0.1,0.4,0.2,0.4c0.1,0.1,0.3,0.1,0.6,0.1
		c0.6,0.1,0.9,0.1,1.1,0.1c0.1,0,0.2,0,0.3,0l0.1,0.3l-1.3,0.2c-0.7,0.1-1.2,0.2-1.6,0.2l-1.3,0.3l-0.9,0.2
		c-0.3,0.1-0.4,0.1-0.5,0.1h-0.1c0-0.1,0-0.2,0.1-0.3c0-0.1,0.1-0.1,0.3-0.1c0.2-0.1,0.5-0.2,0.8-0.4c0.4-0.1,0.5-0.3,0.6-0.4
		c0.1-0.1,0.1-0.1,0.1-0.3c0-0.3-0.1-0.8-0.2-1.6l-0.3-1.5l-0.6-3.3l-0.1-0.7l-0.4-2.3c-0.4,0.1-0.8,0.1-1.4,0.3
		c-0.8,0.1-1.3,0.3-1.6,0.4c-0.3,0.2-0.6,0.8-1.1,1.6c-0.1,0.4-0.3,0.5-0.4,0.5h-0.1l-0.1-0.1c0-0.1,0-0.3,0-0.6
		C395.1,188.7,395.1,188.4,395.1,188.2z"/>
	<path fill="#003552" d="M410.9,195.4c0-0.3,0.1-0.5,0.2-0.7c0.2-0.2,0.4-0.4,0.6-0.4c0.3,0,0.5,0.1,0.6,0.2
		c0.2,0.1,0.3,0.4,0.3,0.7s-0.1,0.5-0.2,0.7c-0.1,0.2-0.4,0.3-0.6,0.4c-0.3,0-0.5-0.1-0.7-0.2C411.1,195.9,411,195.7,410.9,195.4z"
		/>
	<path fill="#003552" d="M431,184.5c0,0,0.2,0,0.6,0.1l0.3,0.1l0.6,0.1c0,0.2,0,0.4,0,0.4c0,0,0,0.1-0.1,0.3c0,0.1-0.1,0.4-0.1,1
		l-0.1,1.3l-0.1,0.8l-0.7,6l-0.1,0.5c0,0.2,0,0.3,0.1,0.4c0.1,0.1,0.3,0.1,0.6,0.3c0.1,0,0.4,0.1,0.8,0.2c0,0.1,0,0.1,0,0.1
		c0,0.1,0,0.2-0.1,0.4l-0.3-0.1c-0.3,0-0.6-0.1-1.1-0.1c-0.3-0.1-0.5-0.1-0.6-0.1s-0.7-0.1-1.6-0.1c-0.1,0-0.2,0-0.3,0h-0.1
		l-0.3-0.1h-0.2l-0.4-0.1c-0.1,0-0.2,0-0.4,0c0-0.1,0-0.2,0-0.3s0-0.1,0.1-0.3c0.2-0.1,0.5-0.1,0.8-0.1c0.4-0.1,0.7-0.1,0.8-0.2
		c0.1-0.1,0.1-0.2,0.2-0.4l0.1-0.6l0.1-0.6l0.1-1.3v-0.4c0-0.1,0-0.2,0.1-0.6c0-0.1,0.1-0.3,0.1-0.4c0-0.1,0-0.4,0.1-0.7l0.1-0.5
		c0-0.4,0-0.6,0-0.7s0-0.2,0.1-0.3l0.1-0.2l0.1-0.6l0.1-0.3c0-0.1,0.1-0.3,0.1-0.5s0.1-0.4,0.1-0.7c-0.4,0.3-1,0.6-1.6,0.8
		c-0.1,0-0.4,0.1-0.8,0.3c-0.1-0.3-0.3-0.6-0.3-0.7c0.6-0.3,1.1-0.5,1.3-0.6c0.4-0.2,0.8-0.5,1.3-0.8
		C430.5,185.1,430.7,184.9,431,184.5z"/>
	<path fill="#003552" d="M438.6,197.8c-0.1-0.1-0.1-0.3-0.1-0.4c0-0.1,0.1-0.1,0.1-0.2c0.1,0,0.2-0.1,0.6-0.1
		c0.6-0.1,1.3-0.3,1.8-0.5c0.5-0.2,1-0.6,1.3-1c0.4-0.4,0.7-0.8,1-1.4c0.2-0.5,0.4-0.9,0.5-1.3c0-0.1,0.1-0.4,0.2-0.8
		c0.1-0.3,0.2-0.6,0.3-1.1c0.4-1.5,0.4-2.5,0.1-3.2c-0.2-0.5-0.5-0.8-0.9-0.8c-0.4-0.1-0.7,0-1.1,0.4c-0.5,0.4-0.8,1.1-1,2
		c-0.1,0.6-0.2,1.1-0.2,1.6c0,0.4,0,0.6,0.1,1c0.1,0.2,0.1,0.4,0.2,0.4c0.2,0.1,0.4,0.3,0.6,0.3c0.1,0,0.3,0.1,0.5,0h0.1
		c0.1,0,0.1,0.1,0.1,0.1c0.1,0.1,0.1,0.2,0,0.3c-0.1,0.2-0.1,0.4-0.4,0.4c-0.4,0.1-0.8,0.1-1.3-0.1c-0.3-0.1-0.4-0.1-0.5-0.1
		c-0.5-0.4-0.8-0.6-0.9-0.7c-0.3-0.4-0.5-0.6-0.6-0.9c-0.1-0.3-0.2-0.6-0.2-1c0-0.4,0-0.9,0.1-1.3c0.1-0.7,0.4-1.3,0.9-1.8
		c0.4-0.5,1-0.8,1.6-1.1c0.6-0.2,1.2-0.2,1.8-0.1c1.1,0.2,2,0.8,2.5,1.9c0.6,1,0.6,2.3,0.3,3.9c-0.1,0.8-0.5,1.6-1,2.4
		c-0.1,0.2-0.4,0.6-0.9,1.1c-0.5,0.6-1.1,1-1.8,1.3s-1.4,0.6-2.1,0.7c-0.7,0.1-1.3,0.1-1.7,0C438.9,197.9,438.8,197.9,438.6,197.8z"
		/>
	<path fill="#003552" d="M450.5,200.9c-0.1-0.1-0.1-0.3,0-0.4c0-0.1,0.1-0.1,0.1-0.2c0.1,0,0.2-0.1,0.6-0.1c0.6,0,1.3-0.1,1.8-0.3
		c0.6-0.1,1.1-0.4,1.5-0.8c0.4-0.4,0.8-0.8,1.1-1.3c0.3-0.5,0.5-0.8,0.6-1.2c0.1-0.1,0.1-0.4,0.4-0.7c0.1-0.3,0.3-0.6,0.4-1
		c0.5-1.4,0.7-2.5,0.5-3.2c-0.1-0.5-0.4-0.8-0.8-0.9c-0.4-0.1-0.7-0.1-1.1,0.2c-0.5,0.4-0.9,1-1.2,1.8c-0.2,0.6-0.4,1.1-0.4,1.6
		c-0.1,0.4-0.1,0.6,0,1c0.1,0.2,0.1,0.4,0.1,0.4c0.2,0.2,0.4,0.3,0.6,0.4c0.1,0.1,0.3,0.1,0.5,0.1h0.1c0.1,0,0.1,0.1,0.1,0.1
		s0,0.2,0,0.3c-0.1,0.2-0.2,0.4-0.4,0.4c-0.4,0-0.8-0.1-1.3-0.2c-0.3-0.1-0.4-0.1-0.5-0.2c-0.5-0.4-0.8-0.6-0.8-0.8
		c-0.2-0.4-0.4-0.7-0.5-1s-0.1-0.6-0.1-1c0.1-0.4,0.1-0.9,0.3-1.3c0.2-0.7,0.6-1.3,1.1-1.7c0.5-0.5,1.1-0.8,1.7-0.8s1.3-0.1,1.8,0.1
		c1.1,0.4,1.8,1.1,2.3,2.2c0.4,1.1,0.4,2.4-0.1,4c-0.3,0.8-0.7,1.6-1.3,2.3c-0.1,0.2-0.5,0.5-1.1,1c-0.6,0.5-1.2,0.8-1.9,1.1
		c-0.8,0.3-1.5,0.4-2.2,0.4s-1.3-0.1-1.7-0.2C450.7,201,450.7,200.9,450.5,200.9z"/>
	<path fill="#003552" d="M463.7,199.4c0.3-0.6,0.6-1.1,0.8-1.3c0.6-0.7,1-1.2,1.3-1.5c0.5-0.4,1-0.8,1.5-0.9c0.5-0.2,1-0.3,1.5-0.2
		c0.3,0,0.6,0.1,1.1,0.4c0.5,0.3,0.9,0.6,1.2,1.3c0.3,0.6,0.4,1.3,0.4,2.3c0,1-0.4,2.1-0.9,3.3c-0.4,0.9-1,1.7-1.6,2.4
		c-0.4,0.4-0.8,0.8-1.2,1.1s-0.8,0.5-1,0.6c-0.4,0.1-0.8,0.2-1.2,0.2c-0.4,0-0.7-0.1-0.9-0.1c-0.6-0.3-1-0.6-1.3-0.8
		c-0.3-0.3-0.4-0.6-0.6-1.1s-0.2-0.9-0.2-1.6c0-0.6,0.1-1.1,0.2-1.6C463.1,200.9,463.3,200.2,463.7,199.4z M465.2,201.5
		c-0.6,1.2-0.9,2-1.1,2.5c-0.1,0.4-0.1,0.8,0,1.1s0.3,0.5,0.5,0.6s0.5,0.1,0.7,0.1c0.2-0.1,0.5-0.1,0.7-0.4c0.3-0.2,0.6-0.6,0.9-1.2
		c0.6-0.9,0.9-1.6,1.1-2.1l0.5-1.1l0.6-1.1c0.3-0.6,0.5-1.1,0.6-1.6c0.1-0.5,0.2-0.8,0.2-1.1s-0.1-0.5-0.2-0.6
		c-0.1-0.1-0.3-0.3-0.4-0.4c-0.2-0.1-0.5-0.1-0.8,0c-0.4,0.1-0.7,0.4-1.1,0.8c-0.4,0.5-0.8,1.3-1.5,2.6l-0.3,0.6
		C465.5,200.9,465.4,201.2,465.2,201.5z"/>
</g>
<g>
	<path fill="#003552" d="M368.6,387.3c0.3,0.1,0.6,0.4,0.8,0.5c0.4,0.3,0.8,0.6,1.4,0.8c0.2,0.1,0.7,0.4,1.5,0.7
		c1.2,0.6,2.3,1.1,3.3,1.6l1.5,0.7c0.4,0.1,0.8,0.4,1.4,0.8c0.1,0.1,0,0.4-0.1,0.5l-0.8,1.6l-0.1,0.4c0,0-0.1,0.1-0.1,0.1l-0.4-0.1
		c-0.1,0-0.1-0.1-0.3-0.1c0-0.1,0-0.4,0.1-0.6l-0.1-0.7c0-0.3-0.1-0.6-0.1-1c-0.1-0.1-0.3-0.2-0.5-0.4c-0.1,0-0.2-0.1-0.5-0.3
		c-0.5-0.3-1-0.6-1.6-0.8c-0.6-0.4-1.3-0.6-1.8-0.8c-0.1,0.1-0.4,0.6-0.8,1.6l-0.6,1.3l-0.5,1c0.1,0.1,0.2,0.1,0.4,0.2
		c1,0.5,1.6,0.8,2.1,1c0.4,0.1,0.7,0.2,0.8,0.2s0.3-0.1,0.4-0.2c0.1-0.1,0.4-0.4,0.8-1.1l0.1,0.1l0.5,0.2c-0.2,0.5-0.4,0.8-0.5,1.1
		c-0.3,0.6-0.5,0.9-0.6,1.1s-0.1,0.3-0.2,0.4c-0.1,0.1-0.2,0.4-0.4,0.7c-0.1,0.4-0.3,0.6-0.4,0.7l-0.1,0.2l-0.6-0.3
		c0-0.1,0.1-0.3,0.1-0.6c0.1-0.6,0.2-0.9,0.1-1.1c0-0.1-0.1-0.3-0.2-0.4c-0.1-0.1-0.5-0.3-1.2-0.6c-0.8-0.4-1.4-0.7-1.8-0.8
		c-0.1,0.1-0.1,0.2-0.1,0.3c-0.3,0.6-0.6,1.2-0.8,1.6l-0.8,1.7c-0.1,0.2-0.1,0.4,0,0.5c0.1,0.2,0.8,0.6,1.9,1.2
		c0.8,0.4,1.4,0.6,2,0.8c0.4,0.1,0.8,0.1,1.2-0.1c0.6-0.2,1.1-0.6,1.6-1.1c0.1,0.1,0.3,0.1,0.4,0.2c0.1,0,0.1,0.1,0.3,0.1
		c-0.1,0.1-0.1,0.2-0.2,0.4l-0.1,0.2l-1.1,1.3l-0.6,0.8c-0.4-0.1-0.6-0.3-0.8-0.4c-0.3-0.1-1.1-0.6-2.4-1.3c-0.9-0.5-2-1.1-3.3-1.7
		c-0.6-0.4-1.5-0.7-2.4-1.1l-0.4-0.1l-1-0.4l0.3-0.6c0.1,0,0.4,0.1,0.6,0.2c0.6,0.2,1,0.3,1.3,0.3c0.1-0.1,0.3-0.3,0.4-0.6
		c0.1-0.1,0.1-0.3,0.2-0.5l0.1-0.2l1.5-3l0.4-0.9l0.6-1.3l0.4-0.9l0.4-1.1c0,0,0-0.1,0.1-0.1c0-0.1-0.1-0.1-0.2-0.2
		c-0.1-0.1-0.1-0.1-0.2-0.1c-0.3-0.2-0.6-0.4-0.8-0.6c-0.1-0.1-0.2-0.1-0.4-0.2L368.6,387.3z"/>
	<path fill="#003552" d="M383.3,395l0.1-0.6l0.7,0.2l0.3,0.1c0.4,0.1,0.6,0.1,0.7,0.2c0.1,0,0.3,0.1,0.6,0.2c0.1,0,0.1,0.1,0.2,0.1
		s0.2,0.1,0.6,0.1c0.3,0.1,0.5,0.1,0.6,0.1s0.1,0.1,0.3,0.1c0.6,1.1,1.2,2,1.6,2.7c0.4,0.8,1.8,3.4,4.3,7.8l0.1-0.2l0.3-1
		c0.1-0.6,0.3-1.1,0.4-1.4c0.1-0.4,0.1-0.8,0.3-1.3c0.1-0.5,0.2-0.9,0.3-1.3c0.1-0.8,0.2-1.2,0.3-1.3c0.1-0.4,0.1-0.6,0.1-0.7
		c-0.1-0.1-0.4-0.4-0.8-0.5c-0.3-0.1-0.5-0.3-0.6-0.4l0.1-0.5l0.2,0.1l1.7,0.4l1.9,0.5c0.1,0,0.3,0.1,0.4,0.1l-0.1,0.6
		c-0.1,0-0.3,0.1-0.4,0.1c-0.4,0-0.6,0-0.7,0c-0.4,0.1-0.5,0.1-0.6,0.1c-0.1,0.1-0.1,0.1-0.1,0.3c0,0-0.1,0.1-0.1,0.4
		c0,0.1-0.1,0.4-0.2,0.7c-0.2,0.8-0.4,1.5-0.5,2c0,0.1-0.1,0.4-0.1,0.6l-0.8,3c-0.1,0.2-0.1,0.4-0.1,0.4l-0.3,1.1l-0.1,0.4l-0.1,0.4
		c-0.1,0.2-0.1,0.4-0.1,0.4l-0.1,0.4l-1-0.3l-0.7-1.3L390,405l-1.1-1.9l-0.8-1.4c-0.5-0.9-1-1.7-1.4-2.4l-1.1-1.7l-0.8,3.3
		c-0.1,0.2-0.1,0.4-0.1,0.6l-0.2,0.6l-0.3,1.1c-0.1,0.5-0.2,1-0.4,1.6c0,0.1-0.1,0.3-0.1,0.4s0,0.1,0,0.3c0.2,0.1,0.7,0.4,1.4,0.6
		c0.1,0,0.1,0.1,0.2,0.1l-0.1,0.7l-0.4-0.1c-0.2-0.1-0.8-0.3-1.7-0.6c-0.9-0.3-1.6-0.4-1.8-0.5c-0.3-0.1-0.5-0.1-0.5-0.1
		c-0.1,0-0.1-0.1-0.3-0.1c0-0.1,0.1-0.3,0.1-0.4c0-0.1,0.1-0.1,0.1-0.3c0.1,0,0.3,0.1,0.4,0.1c0,0,0.1,0.1,0.4,0.1
		c0.5,0.1,0.8,0.2,0.9,0.1c0.1-0.1,0.2-0.2,0.4-0.6c0.3-0.9,0.5-1.5,0.6-1.6l0.1-0.5l0.8-2.8l0.5-1.8c0.2-0.6,0.3-1.1,0.3-1.4
		c0-0.1,0-0.3-0.1-0.4c-0.1-0.3-0.4-0.5-0.6-0.6C384.2,395.5,383.9,395.3,383.3,395z"/>
	<path fill="#003552" d="M413.4,401.3c0,0.2,0,0.5,0,1.1c0,0.5,0,0.9-0.1,1.1c0,0.1-0.1,0.2-0.1,0.4c-0.3,0-0.5-0.1-0.6-0.1
		c-0.4-0.8-0.6-1.2-0.8-1.4c-0.3-0.4-0.7-0.7-1.3-1c-0.4-0.2-0.8-0.4-1.3-0.4c-1-0.1-1.9,0.3-2.8,1.1c-0.8,0.8-1.3,2.1-1.6,3.9
		c-0.1,0.8,0,1.6,0.2,2.5c0.2,0.8,0.6,1.5,1.1,2c0.6,0.5,1.2,0.8,2,0.9c0.4,0.1,0.8,0,1.3,0c0.2,0,0.4-0.1,0.6-0.2
		c0.1-0.1,0.2-0.2,0.2-0.4c0.1-0.4,0.1-0.8,0.2-1.5c0.1-0.6,0.1-1.1,0.1-1.3c0-0.1-0.1-0.1-0.1-0.2c-0.1,0-0.1-0.1-0.4-0.1l-0.8-0.3
		c-0.1-0.1-0.3-0.1-0.3-0.2c0-0.1,0-0.1,0-0.1c0-0.1,0.1-0.2,0.1-0.4c0.1,0,0.2,0,0.2,0c0.6,0.1,1.2,0.1,1.7,0.2
		c0.1,0,0.4,0.1,0.6,0.1l1.4,0.1l0.6,0.1c0.1,0,0.3,0,0.6,0.1c0,0.1,0,0.3,0,0.4c0,0.1-0.1,0.1-0.1,0.2c-0.1,0.1-0.3,0.1-0.6,0.1
		c-0.3,0.1-0.4,0.1-0.4,0.1c-0.1,0.1-0.1,0.1-0.1,0.2c0,0.1-0.1,0.4-0.1,1.1c-0.1,0.7-0.1,1.1-0.1,1.3c-0.1,0.4-0.1,0.7-0.1,0.8
		c0,0.2-0.1,0.4-0.1,0.4c-0.2,0.1-0.7,0.3-1.6,0.4c-0.9,0.1-1.9,0.1-3,0c-0.8-0.1-1.5-0.2-2.1-0.4c-0.6-0.2-1.1-0.4-1.5-0.7
		c-0.5-0.4-1-0.8-1.3-1.3c-0.4-0.5-0.6-1.1-0.7-1.6c-0.2-0.8-0.2-1.6-0.1-2.4c0.1-0.8,0.4-1.8,0.9-2.6c0.4-0.6,0.8-1.1,1.4-1.6
		s1.3-0.8,2.2-1.1c0.8-0.2,1.8-0.3,2.7-0.2c0.1,0,0.3,0.1,0.6,0.1c0.7,0.1,1.4,0.2,2,0.5C412.5,400.7,413,401,413.4,401.3z"/>
	<path fill="#003552" d="M420,411.6c0.2-0.1,0.4-0.1,0.8-0.2c0.4-0.1,0.6-0.1,0.6-0.1c0.2,0,0.4-0.1,0.5-0.1c0-0.1,0.1-0.3,0-0.4
		l-0.1-1.1v-1.2l-0.1-0.8l-0.1-0.8l-0.1-0.9l-0.1-2l-0.1-0.9v-0.1c-0.1-0.6-0.1-1-0.1-1.1c-0.1-0.1-0.2-0.1-0.5-0.2
		c0,0-0.1-0.1-0.4-0.1c-0.1-0.1-0.3-0.1-0.4-0.1c-0.2-0.1-0.4-0.1-0.4-0.1c0-0.1,0-0.3-0.1-0.4c0-0.1,0-0.1,0-0.2
		c0.1,0,0.1-0.1,0.1-0.1c0.1,0,0.6,0,1.6,0l1.3-0.1h0.9c0.4,0,0.9-0.1,1.6-0.1c0.2,0,0.3-0.1,0.4-0.1s0.1,0,0.2,0.1
		c0.1,0.1,0.1,0.2,0.1,0.4s0,0.2-0.1,0.3c0,0.1-0.1,0.1-0.4,0.1l-1.1,0.4c0,0-0.1,0.1-0.1,0.1c0,0.1-0.1,0.1-0.1,0.1v0.3v0.6v0.1
		v0.1c0,0,0,0.2,0,0.5c0,0.1,0,0.1,0,0.2c0,0.1,0,0.3,0.1,0.5c0,0.4,0.1,0.7,0.1,0.9c0,0.3,0,0.6,0,1.1c0,0.1,0,0.4,0,0.6l0.2,4.2
		c0,0.2,0.1,0.3,0.1,0.4h0.8l0.5-0.1h0.6c1-0.1,1.7-0.2,2.3-0.4c0.4-0.2,0.6-0.4,0.8-0.6c0.2-0.2,0.4-0.4,0.5-0.6
		c0.1-0.2,0.2-0.6,0.4-1.1h0.3c0.1,0,0.3,0,0.5,0v0.3c0,0.4,0,1.2-0.1,2.3c0,0.4-0.1,0.7-0.1,0.8c-0.1,0-0.2,0.1-0.3,0.1H430h-0.5
		c-0.1,0-0.4,0-1.1,0c-0.1,0-0.7,0-1.7,0c-1.1,0-2.1,0.1-3,0.1l-1.8,0.1c-0.7,0.1-1.3,0.1-2,0.2h-0.1c-0.1,0-0.1,0-0.1,0
		c0-0.1,0-0.1,0-0.1C420,411.9,420,411.7,420,411.6z"/>
	<path fill="#003552" d="M436.6,411.1l-0.1-0.6c0.1-0.1,0.3-0.1,0.6-0.3c0.4-0.2,0.7-0.4,0.8-0.4s0.1-0.3,0.3-0.6l0.8-5l0.9-5.9
		c0.2-0.1,0.4-0.1,0.6-0.1l0.4-0.1l0.1,0.1l2.3,3.3c0.5,0.7,1,1.4,1.4,2.1c0.4,0.6,0.8,1.2,1.1,1.6c0.1,0.3,0.4,0.6,0.7,1.1
		c0.1,0.3,0.4,0.6,0.7,1.1c0.1,0.2,0.3,0.4,0.4,0.4c0.1,0.1,0.3,0.1,0.6,0.1c0.2,0,0.5,0,0.8,0.1c0.1,0.2,0.1,0.4,0.1,0.4
		c0,0.1,0,0.1,0,0.2c-0.4,0.1-0.9,0.1-1.4,0.2c-0.6,0.1-1,0.1-1.4,0.2c-0.5,0.1-0.8,0.1-1,0.2l-1.5,0.4l-0.4,0.1
		c-0.1-0.2-0.1-0.4-0.1-0.6l0.9-0.4c0.3-0.1,0.4-0.2,0.5-0.3c0.1-0.1,0.1-0.1,0.1-0.2c0-0.1-0.1-0.1-0.1-0.2l-0.5-0.8l-1.1-1.6
		l-3.4,0.7c-0.1,0.3-0.2,1.1-0.4,2.3c-0.1,0.4-0.1,0.6-0.1,0.6c0,0.1,0.1,0.3,0.2,0.3c0.1,0.1,0.4,0.1,0.8,0.1c0.1,0,0.3,0,0.6,0
		c0.1,0.2,0.1,0.4,0.1,0.4s0,0.1,0,0.2c-0.4,0.1-1.3,0.2-2.6,0.4l-0.4,0.1c-0.4,0.1-0.8,0.3-1.2,0.4L436.6,411.1z M439.7,405.3
		c1.3-0.3,2.2-0.4,2.4-0.5l0.2-0.1c-0.3-0.5-0.6-1.1-1.1-1.7c-0.4-0.6-0.8-1.1-1-1.4L439.7,405.3z"/>
	<path fill="#003552" d="M450.3,396.9l-0.3-0.6l0.7-0.3l0.2-0.1c0.4-0.1,0.6-0.3,0.7-0.3c0.1,0,0.3-0.1,0.6-0.2
		c0.1,0,0.1-0.1,0.2-0.1s0.2-0.1,0.5-0.2s0.5-0.2,0.5-0.2c0.1,0,0.1-0.1,0.3-0.1c1.2,0.4,2.1,0.8,2.9,1.2c0.8,0.4,3.5,1.6,8.3,3.6
		l-0.1-0.2l-0.4-1c-0.2-0.6-0.4-1-0.6-1.3c-0.1-0.4-0.4-0.7-0.5-1.2c-0.2-0.4-0.4-0.8-0.6-1.2c-0.4-0.7-0.6-1.1-0.6-1.2
		c-0.1-0.4-0.3-0.6-0.4-0.6c-0.1-0.1-0.5-0.1-0.9,0.1c-0.4,0.1-0.6,0.1-0.8,0.1l-0.2-0.5l0.2-0.1l1.6-0.7l1.8-0.8
		c0.1-0.1,0.2-0.1,0.4-0.1l0.2,0.6c-0.1,0.1-0.2,0.2-0.4,0.3c-0.4,0.2-0.5,0.4-0.6,0.4c-0.2,0.3-0.4,0.4-0.4,0.5
		c0,0.1,0,0.2,0.1,0.4c0,0,0.1,0.1,0.1,0.4c0.1,0.1,0.1,0.4,0.3,0.7c0.4,0.8,0.6,1.4,0.8,1.9c0.1,0.1,0.1,0.3,0.2,0.5l1.3,2.9
		c0.1,0.2,0.1,0.4,0.2,0.4l0.4,1.1l0.2,0.4l0.1,0.5c0.1,0.2,0.2,0.4,0.2,0.4l0.1,0.4l-0.9,0.4l-1.4-0.6l-2.8-1.2l-2-0.8l-1.5-0.6
		c-0.9-0.4-1.8-0.8-2.5-1.1l-1.8-0.7l1.3,3.1c0.1,0.2,0.1,0.4,0.2,0.6l0.2,0.6l0.5,1.1c0.2,0.4,0.4,0.9,0.7,1.5
		c0.1,0.1,0.1,0.2,0.1,0.3c0.1,0.1,0.1,0.1,0.2,0.2c0.3,0,0.8-0.1,1.5-0.4c0.1,0,0.1,0,0.2,0l0.3,0.6l-0.4,0.1
		c-0.2,0.1-0.8,0.3-1.8,0.6c-0.8,0.4-1.5,0.6-1.8,0.8c-0.3,0.1-0.4,0.2-0.5,0.2s-0.1,0.1-0.3,0.1c-0.1-0.1-0.1-0.2-0.1-0.4
		c0-0.1-0.1-0.1-0.1-0.3c0.1-0.1,0.3-0.1,0.4-0.2c0,0,0.1-0.1,0.4-0.1c0.5-0.2,0.7-0.4,0.8-0.4c0.1-0.1,0-0.3-0.1-0.6
		c-0.3-0.9-0.5-1.5-0.6-1.6l-0.2-0.5l-1.1-2.8l-0.7-1.7c-0.3-0.6-0.5-1.1-0.6-1.3c-0.1-0.1-0.2-0.2-0.4-0.3
		c-0.3-0.1-0.6-0.2-0.8-0.2C451.3,396.7,451,396.7,450.3,396.9z"/>
	<path fill="#003552" d="M473.8,397.9c0.1-0.1,0.2-0.2,0.4-0.4c0.4-0.4,0.6-0.7,0.7-0.9c0.1-0.1,0-0.4-0.1-0.6
		c0-0.1-0.5-0.8-1.4-2.3l-0.6-0.8l-0.6-1l-1.6-2.6l-0.2-0.3c-0.1-0.1-0.2-0.2-0.3-0.2s-0.1,0-0.4,0.1c-0.1,0.1-0.3,0.2-0.4,0.4
		c-0.2,0.1-0.4,0.3-0.6,0.4c0,0-0.1,0.1-0.1,0.1l-0.4-0.6c0.2-0.3,0.6-0.6,1.1-1.1c0.8-0.7,1.9-1.5,3.3-2.3c1.1-0.7,2-1.1,2.6-1.3
		c0.9-0.3,1.8-0.4,2.5-0.4c1,0.1,1.8,0.4,2.6,0.8c0.8,0.5,1.4,1.1,1.9,1.9c0.6,1.1,1,2.1,1,3c0,1-0.3,2-0.8,3
		c-0.4,0.7-1.1,1.3-2.1,2l-1.6,0.9L478,396l-0.6,0.4l-0.2,0.1l-0.6,0.4l-0.8,0.5c0,0-0.3,0.2-0.8,0.6c-0.1,0.1-0.4,0.3-0.6,0.4
		c-0.1,0.1-0.3,0.2-0.4,0.2C474.1,398.4,474,398.1,473.8,397.9z M472.2,387c0.1,0.1,0.1,0.3,0.2,0.4l0.8,1.3l0.7,1.1
		c0.2,0.4,0.4,0.7,0.6,0.9l0.4,0.7l0.8,1.2l0.4,0.8c0.4,0.7,0.8,1.1,1.3,1.2c0.6,0.1,1.2,0,1.9-0.4c0.5-0.3,0.8-0.6,1-0.8
		c0.4-0.5,0.6-1,0.7-1.5c0.1-0.5,0-1.1-0.2-1.8c-0.2-0.7-0.5-1.3-0.9-2c-0.6-1.1-1.3-1.8-2.1-2.2c-0.7-0.4-1.5-0.6-2.3-0.6
		s-1.6,0.3-2.3,0.7C472.9,386.3,472.5,386.7,472.2,387z"/>
</g>
<circle fill="none" stroke="#003552" stroke-width="0.5911" stroke-miterlimit="10" cx="420.4" cy="297.1" r="96.9"/>
<g>
	<path fill="#003552" d="M493.2,243.3c11.2,15.1,17.7,33.7,17.7,53.9c0,49.9-40.4,90.4-90.3,90.4c-33.7,0-63.1-18.5-78.6-45.7
		c33.2,9.8,56.9-31.5,77-59.7c9.4,4.1,12.8,10.9,12.8,10.9c10.5,23.1-19.9,46.5-5.2,57.1C437,331.9,470.7,273.5,493.2,243.3"/>
	<path fill="#003552" d="M488.2,237.2c-14.8,16.2-32.3,43.4-49.4,68.2c1-22.1-16.5-26.7-16.5-26.7c-0.1-0.1-0.4-0.1-0.8-0.3
		c36.8-55.4,41.5-55.2,41.9-55.4c-9.7-6.7-53.7,52.3-53.7,52.3h-0.2c-36.1,0-50.5,8.8-59.7,13.8c-9.5,5.3-15.6,10.7-19.2,15.6
		c-0.2-2.5-0.4-5-0.4-7.6c0-49.9,40.4-90.4,90.4-90.4C447.6,206.8,471.7,218.6,488.2,237.2"/>
	<path fill="#003552" d="M381,314c-12.9,17.5-22.3,27.5-36.7,22.1c-19.3-9.9-1.9-30.4,6.8-37.5c26.6-22,54.3-19.3,55.4-19.2
		C406.7,279.4,381,314,381,314"/>
</g>
</svg>
