<?xml version="1.0" encoding="utf-8"?>
<!-- Generator: Adobe Illustrator 17.1.0, SVG Export Plug-In . SVG Version: 6.00 Build 0)  -->
<!DOCTYPE svg PUBLIC "-//W3C//DTD SVG 1.1//EN" "http://www.w3.org/Graphics/SVG/1.1/DTD/svg11.dtd">
<svg version="1.1" id="Calque_1" xmlns="http://www.w3.org/2000/svg" xmlns:xlink="http://www.w3.org/1999/xlink" x="0px" y="0px"
	 viewBox="0 0 595.3 841.9" enable-background="new 0 0 595.3 841.9" xml:space="preserve">
<path fill="#FFFFFF" stroke="#000000" stroke-width="1.4814" stroke-miterlimit="10" d="M475.9,421.5c0,99.5-80.7,180.2-180.2,180.2
	S115.5,521,115.5,421.5s80.7-180.2,180.2-180.2C395.2,241.2,475.9,321.9,475.9,421.5z"/>
<path fill="none" stroke="#000000" stroke-width="0.5911" stroke-miterlimit="10" d="M466.8,421.5c0,94.6-76.7,171.2-171.2,171.2
	c-94.6,0-171.2-76.7-171.2-171.2c0-94.6,76.7-171.2,171.2-171.2C390.2,250.2,466.8,326.9,466.8,421.5z"/>
<path fill="none" stroke="#000000" stroke-width="0.5911" stroke-miterlimit="10" d="M466.8,421.5c0,94.6-76.7,171.2-171.2,171.2
	c-94.6,0-171.2-76.7-171.2-171.2c0-94.6,76.7-171.2,171.2-171.2C390.2,250.2,466.8,326.9,466.8,421.5z"/>
<g>
	<path d="M226.4,294.3c0-0.1,0.1-0.2,0.1-0.2c0.1-0.1,0.3-0.2,0.6-0.4c0.7-0.4,1.1-0.7,1.3-0.9c0-0.2,0-0.4-0.1-0.7l-0.4-0.8
		l-1.4-2.9l-0.7-1.4l-1.4-2.9l-1.6-3.2c-0.4-0.8-0.6-1.2-0.8-1.2c-0.2-0.1-0.7,0-1.3,0.3c-0.3,0.1-0.6,0.2-0.8,0.3
		c-0.1,0-0.2-0.1-0.2-0.1c0-0.1,0-0.1,0-0.2c0.1-0.1,0.1-0.1,0.2-0.1c0.1-0.1,0.2-0.1,0.4-0.2c0.5-0.2,1-0.4,1.4-0.6l0.8-0.4l2-0.9
		c1-0.5,1.8-0.9,2.3-1.2c0.6-0.3,0.9-0.5,1.1-0.6c0.2-0.1,0.6-0.3,1.3-0.6l1.6-0.8l0.2-0.1l0.9-0.5h0.1c0.1,0,0.1,0.1,0.2,0.2
		c0.1,0.1,0.1,0.3,0.2,0.5c0.1,0.2,0.1,0.4,0.1,0.4c0.4,0.8,0.7,1.5,1,2v0.1c-0.1,0-0.2,0.1-0.2,0.1c-0.2-0.1-0.4-0.3-0.7-0.6
		c-0.3-0.3-0.7-0.6-1.2-1c-0.3-0.2-0.6-0.3-0.7-0.4c-0.1,0-0.4,0.1-0.7,0.2c-0.1,0-0.4,0.2-1.1,0.5c-0.2,0.1-0.3,0.1-0.5,0.2
		l-3.2,1.6l-0.3,0.1c-0.4,0.2-0.6,0.4-0.7,0.5c0,0.2,0.2,0.8,0.6,1.7c0,0.1,0.5,1,1.4,2.7l0.8,1.6c0.1,0,0.2-0.1,0.3-0.1l0.2-0.1
		c0.1-0.1,0.3-0.2,0.6-0.3c0.4-0.2,0.7-0.3,0.8-0.4c0.1,0,0.2-0.1,0.2-0.1c0.8-0.4,1.9-1,3.2-1.6c0.4-0.3,0.6-0.5,0.6-0.6
		c0-0.2,0-0.6-0.3-1.2c-0.2-0.6-0.3-1-0.1-1.2c0.1,0,0.2-0.1,0.3-0.1c0,0.1,0.1,0.1,0.1,0.2s0.1,0.1,0.1,0.3
		c0.1,0.3,0.5,1.2,1.2,2.7c0.2,0.4,0.4,0.8,0.7,1.3c0.3,0.5,0.4,0.7,0.4,0.8c0,0.1,0.1,0.2,0.1,0.3c0,0.1-0.1,0.1-0.1,0.1h-0.1
		c-0.2-0.2-0.5-0.4-0.8-0.8c-0.6-0.7-1-1.1-1.3-1.2c-0.3-0.1-0.7,0-1.2,0.2c-0.1,0-0.3,0.1-0.6,0.3c-0.3,0.1-0.7,0.4-1.3,0.6
		l-0.7,0.4c-1.1,0.5-1.7,0.9-2.1,1.1l0.2,0.4l1,2.1l0.6,1.3l0.6,1.3c0.4,0.8,0.6,1.2,0.8,1.3c0.2,0.1,0.5,0.1,1-0.2l0.7-0.3
		c0.1,0,0.3-0.1,0.7-0.3c0.4-0.2,0.9-0.4,1.6-0.7c1.5-0.7,2.4-1.2,2.9-1.6c0.4-0.4,0.7-0.8,0.9-1.3c0.2-0.5,0.2-1.4,0.2-2.7
		c0-0.4,0.1-0.6,0.2-0.7c0.1,0,0.2,0,0.3,0c0.1,0.9,0.3,1.4,0.3,1.7c0.2,0.6,0.4,1.1,0.6,1.7c0.1,0.3,0.2,0.5,0.1,0.7l-0.3,0.1
		l-3.2,1.6l-1.5,0.7l-3.4,1.7l-1.4,0.7c-0.2,0.1-0.3,0.2-0.5,0.2c-1.3,0.7-2.3,1.2-3,1.5C226.5,294.3,226.4,294.3,226.4,294.3
		c-0.2,0-0.2-0.1-0.2-0.1L226.4,294.3z"/>
	<path d="M251.1,267.5c0.2,0.5,0.4,0.8,0.4,0.9l0.3,1.1c0.1,0.5,0.2,0.8,0.2,0.9c-0.1,0.1-0.1,0.1-0.2,0.1h-0.1
		c-0.6-1-1.3-1.7-2.1-2.1c-0.8-0.3-1.6-0.3-2.5-0.1c-0.9,0.3-1.6,0.8-2,1.5s-0.5,1.4-0.3,2.1c0.2,0.5,0.5,0.9,1.1,1.2s1.8,0.6,3.8,1
		c1.5,0.3,2.6,0.5,3.3,0.8c0.7,0.2,1.3,0.6,1.7,1.1c0.5,0.5,0.8,1,1,1.7c0.3,0.9,0.3,1.7,0.1,2.7c-0.2,0.9-0.6,1.7-1.3,2.3
		c-0.6,0.6-1.6,1.1-2.8,1.5c-1.1,0.3-2.2,0.5-3.3,0.5c-0.7,0-1.1-0.1-1.2-0.2c-0.2-0.1-0.3-0.2-0.3-0.3c0-0.1-0.1-0.2-0.1-0.3
		c-0.2-1-0.4-1.8-0.6-2.4c-0.1-0.4-0.1-0.6-0.1-0.7s0.1-0.1,0.2-0.1c0.1,0,0.1,0,0.2,0c0.1,0,0.1,0.1,0.2,0.3c0.4,1,1.1,1.7,2.2,2.2
		c1.1,0.5,2.1,0.6,3.2,0.3c0.6-0.2,1.2-0.5,1.6-1c0.5-0.4,0.7-1,0.9-1.6c0.1-0.6,0.1-1.1,0-1.6c-0.2-0.7-0.6-1.2-1.3-1.6
		c-0.6-0.4-1.8-0.7-3.4-1c-1.6-0.3-2.7-0.5-3.2-0.7c-0.8-0.3-1.5-0.7-2.1-1.2c-0.4-0.4-0.7-0.9-0.9-1.5c-0.4-1.1-0.2-2.2,0.4-3.3
		c0.6-1.1,1.7-1.8,3.2-2.3c0.8-0.3,1.6-0.4,2.2-0.4C250,267.2,250.5,267.3,251.1,267.5z"/>
	<path d="M261.1,266.2l0.2-2c0-0.3,0-0.4,0.1-0.5c0-0.1,0.1-0.1,0.2-0.1c0.2,0,0.4,0.1,0.6,0.4c0.2,0.2,0.3,0.4,0.4,0.4
		c0.1,0.1,0.2,0.1,0.4,0.1h0.1h0.5l3-0.5l3.5-0.6l1-0.2l1.9-0.4c0.1,0,0.2,0,0.3,0c0.6-0.1,0.9-0.1,1.1-0.1c0.1,0,0.2-0.1,0.3-0.2
		c0,0,0.1-0.3,0.3-0.9c0.1-0.3,0.2-0.4,0.3-0.4c0.1,0,0.2,0,0.3,0c0.1,0.2,0.1,0.3,0.1,0.4l0.1,0.5l0.2,1.1c0,0.3,0.2,1.1,0.4,2.5
		c0,0.1,0,0.2,0,0.3c-0.1,0.1-0.2,0.1-0.2,0.1c-0.1,0-0.1,0-0.2-0.1s-0.2-0.2-0.3-0.5c-0.3-0.7-0.6-1.2-0.9-1.5
		c-0.2-0.2-0.5-0.3-0.8-0.3c-0.3,0-1.1,0.1-2.3,0.3c-1,0.2-1.7,0.3-2.1,0.4c0,0.3,0.1,0.6,0.1,0.9l1.5,7.8c0.1,0.3,0.1,0.9,0.3,1.8
		l0.3,1.7l0.1,0.9c0.1,0.3,0.1,0.5,0.3,0.6c0.1,0.1,0.4,0.2,0.9,0.2c0.8,0.1,1.3,0.1,1.6,0.1c0.2,0,0.3,0,0.4,0l0.1,0.4l-1.8,0.3
		c-1,0.2-1.7,0.3-2.2,0.3l-1.8,0.4l-1.3,0.3c-0.4,0.1-0.6,0.1-0.7,0.1h-0.2c0-0.2,0-0.3,0.1-0.4c0-0.1,0.2-0.1,0.4-0.2
		c0.3-0.1,0.7-0.3,1.2-0.5c0.5-0.2,0.7-0.4,0.9-0.6c0.1-0.1,0.1-0.2,0.1-0.4c0-0.4-0.1-1.1-0.3-2.2l-0.4-2.1l-0.9-4.6l-0.2-1
		l-0.6-3.3c-0.5,0.1-1.2,0.2-2,0.4c-1.2,0.2-1.9,0.4-2.2,0.6c-0.4,0.3-0.9,1.1-1.5,2.3c-0.2,0.5-0.4,0.7-0.6,0.7h-0.1l-0.1-0.1
		c0-0.1,0-0.4,0-0.9C261.1,266.9,261.1,266.4,261.1,266.2z"/>
	<path d="M283.5,276.4c0-0.4,0.1-0.7,0.3-1c0.3-0.3,0.6-0.5,0.9-0.5c0.4,0,0.7,0.1,0.9,0.3c0.3,0.2,0.4,0.6,0.4,1
		c0,0.4-0.1,0.7-0.3,1c-0.2,0.3-0.5,0.4-0.9,0.5c-0.4,0-0.7-0.1-1-0.3C283.7,277.1,283.6,276.8,283.5,276.4z"/>
	<path d="M311.9,261c0,0,0.3,0,0.9,0.1l0.4,0.1l0.8,0.1c0,0.3,0,0.5,0,0.6c0,0,0,0.2-0.1,0.4c0,0.1-0.1,0.6-0.2,1.4l-0.2,1.9
		l-0.1,1.2l-1,8.5l-0.1,0.7c0,0.3,0,0.4,0.1,0.6c0.1,0.1,0.4,0.2,0.9,0.4c0.2,0,0.6,0.2,1.2,0.3c0,0.1,0,0.2,0,0.2
		c0,0.1,0,0.3-0.1,0.6L314,278c-0.4,0-0.9-0.1-1.6-0.2c-0.4-0.1-0.7-0.1-0.9-0.1c-0.2,0-1-0.1-2.2-0.2c-0.1,0-0.3,0-0.4,0h-0.2
		l-0.4-0.1H308l-0.6-0.1c-0.1,0-0.3,0-0.5,0c0-0.2,0-0.3,0-0.4s0-0.2,0.1-0.4c0.3-0.1,0.7-0.1,1.2-0.2c0.6-0.1,1-0.1,1.2-0.3
		c0.2-0.1,0.2-0.3,0.3-0.5l0.1-0.9l0.1-0.9l0.2-1.9v-0.5c0-0.1,0-0.3,0.1-0.8c0-0.2,0.1-0.4,0.1-0.6c0-0.1,0-0.5,0.1-1l0.1-0.7
		c0-0.6,0-0.9,0-1s0-0.3,0.1-0.4l0.1-0.3l0.1-0.9l0.1-0.4c0-0.2,0.1-0.4,0.1-0.7s0.1-0.6,0.1-1c-0.6,0.4-1.4,0.8-2.2,1.1
		c-0.1,0-0.5,0.2-1.2,0.4c-0.2-0.4-0.4-0.8-0.4-1c0.9-0.4,1.6-0.7,1.9-0.8c0.6-0.3,1.2-0.7,1.9-1.2
		C311.1,261.8,311.5,261.5,311.9,261z"/>
	<path d="M322.6,279.8c-0.1-0.2-0.1-0.4-0.1-0.5c0-0.1,0.1-0.2,0.2-0.3c0.1,0,0.3-0.1,0.8-0.2c0.9-0.1,1.8-0.4,2.5-0.7
		s1.4-0.8,1.9-1.4c0.6-0.6,1-1.2,1.4-2c0.3-0.7,0.6-1.3,0.7-1.8c0-0.1,0.2-0.5,0.3-1.1c0.1-0.4,0.3-0.9,0.4-1.5
		c0.5-2.1,0.5-3.6,0.2-4.5c-0.3-0.7-0.7-1.1-1.3-1.2c-0.5-0.1-1,0-1.5,0.5c-0.7,0.6-1.1,1.5-1.4,2.8c-0.2,0.8-0.3,1.5-0.3,2.2
		c0,0.5,0,0.9,0.2,1.4c0.1,0.3,0.2,0.5,0.3,0.6c0.3,0.2,0.6,0.4,0.9,0.4c0.2,0,0.4,0.1,0.7,0h0.2c0.1,0,0.2,0.1,0.2,0.2
		c0.1,0.1,0.1,0.3,0,0.4c-0.1,0.3-0.2,0.5-0.5,0.5c-0.6,0.1-1.2,0.1-1.8-0.1c-0.4-0.1-0.6-0.2-0.7-0.2c-0.7-0.5-1.2-0.8-1.3-1
		c-0.4-0.5-0.7-0.9-0.9-1.3c-0.2-0.4-0.3-0.9-0.3-1.4c0-0.6,0-1.3,0.2-1.9c0.2-1,0.6-1.9,1.3-2.6c0.6-0.7,1.4-1.2,2.2-1.5
		c0.9-0.3,1.7-0.3,2.6-0.1c1.6,0.3,2.8,1.2,3.5,2.7c0.8,1.4,0.9,3.3,0.4,5.5c-0.2,1.1-0.7,2.3-1.4,3.4c-0.2,0.3-0.6,0.8-1.3,1.6
		c-0.7,0.8-1.5,1.4-2.5,1.9c-1,0.5-2,0.8-3,1c-1,0.1-1.8,0.1-2.4,0C323,279.9,322.9,279.9,322.6,279.8z"/>
	<path d="M339.5,284.1c-0.1-0.2-0.1-0.4,0-0.5c0-0.1,0.1-0.2,0.2-0.3c0.1,0,0.3-0.1,0.8-0.1c0.9,0,1.8-0.2,2.6-0.4
		c0.8-0.2,1.5-0.6,2.1-1.1c0.6-0.5,1.2-1.1,1.6-1.8c0.4-0.7,0.7-1.2,0.9-1.7c0.1-0.1,0.2-0.5,0.5-1c0.2-0.4,0.4-0.9,0.6-1.4
		c0.7-2,1-3.5,0.7-4.5c-0.2-0.7-0.5-1.1-1.1-1.3c-0.5-0.2-1-0.1-1.6,0.3c-0.7,0.5-1.3,1.4-1.7,2.6c-0.3,0.8-0.5,1.5-0.6,2.2
		c-0.1,0.5-0.1,0.9,0,1.4c0.1,0.3,0.1,0.5,0.2,0.6c0.3,0.3,0.5,0.4,0.9,0.6c0.2,0.1,0.4,0.1,0.7,0.1h0.2c0.1,0,0.2,0.1,0.2,0.2
		s0,0.3,0,0.4c-0.1,0.3-0.3,0.5-0.6,0.5c-0.6,0-1.2-0.1-1.8-0.3c-0.4-0.1-0.6-0.2-0.7-0.3c-0.7-0.5-1.1-0.9-1.2-1.1
		c-0.3-0.5-0.6-1-0.7-1.4c-0.1-0.4-0.2-0.9-0.1-1.4c0.1-0.6,0.2-1.3,0.4-1.9c0.3-1,0.9-1.8,1.6-2.4c0.7-0.7,1.5-1.1,2.4-1.2
		s1.8-0.1,2.6,0.2c1.5,0.5,2.6,1.6,3.2,3.1c0.6,1.5,0.5,3.4-0.2,5.6c-0.4,1.1-1,2.2-1.8,3.2c-0.2,0.3-0.7,0.7-1.5,1.4
		c-0.8,0.7-1.7,1.2-2.7,1.6c-1.1,0.4-2.1,0.6-3.1,0.6s-1.8-0.1-2.4-0.3C339.8,284.3,339.7,284.2,339.5,284.1z"/>
	<path d="M358.1,282c0.4-0.8,0.8-1.5,1.1-1.9c0.8-1,1.4-1.7,1.9-2.1c0.7-0.6,1.4-1.1,2.1-1.3c0.7-0.3,1.4-0.4,2.1-0.3
		c0.4,0,0.9,0.2,1.5,0.5c0.7,0.4,1.3,0.9,1.7,1.8c0.4,0.8,0.6,1.9,0.6,3.3c0,1.4-0.5,3-1.3,4.7c-0.6,1.3-1.4,2.4-2.2,3.4
		c-0.5,0.6-1.1,1.1-1.7,1.5c-0.6,0.4-1.1,0.7-1.4,0.8c-0.6,0.2-1.1,0.3-1.7,0.3s-1-0.1-1.3-0.2c-0.8-0.4-1.4-0.8-1.8-1.2
		c-0.4-0.4-0.6-0.9-0.8-1.5c-0.2-0.6-0.3-1.3-0.3-2.2c0-0.8,0.1-1.6,0.3-2.3C357.2,284.2,357.6,283.1,358.1,282z M360.3,285
		c-0.8,1.7-1.3,2.8-1.5,3.5c-0.2,0.6-0.2,1.2,0,1.6c0.2,0.4,0.4,0.7,0.7,0.9s0.7,0.2,1,0.2c0.3-0.1,0.7-0.2,1-0.6
		c0.4-0.3,0.8-0.9,1.3-1.7c0.8-1.3,1.3-2.3,1.6-2.9l0.7-1.5l0.8-1.6c0.4-0.8,0.7-1.5,0.9-2.2c0.2-0.7,0.3-1.2,0.3-1.6
		c0-0.4-0.2-0.7-0.3-0.9c-0.2-0.2-0.4-0.4-0.6-0.5c-0.3-0.1-0.7-0.2-1.1,0c-0.5,0.1-1,0.5-1.5,1.2c-0.5,0.7-1.2,1.9-2.1,3.7
		l-0.4,0.8C360.7,284.1,360.5,284.6,360.3,285z"/>
</g>
<g>
	<path d="M223.6,547.7c0.4,0.2,0.8,0.5,1.1,0.7c0.6,0.4,1.2,0.8,2,1.2c0.3,0.1,1,0.5,2.1,1c1.7,0.8,3.3,1.5,4.6,2.2l2.1,1
		c0.5,0.2,1.1,0.6,2,1.2c0.1,0.2,0,0.5-0.1,0.7l-1.2,2.3l-0.2,0.5c0,0-0.1,0.1-0.1,0.2l-0.5-0.2c-0.1,0-0.2-0.1-0.4-0.2
		c0-0.2,0-0.5,0.1-0.8l-0.1-1c0-0.4-0.1-0.9-0.2-1.4c-0.2-0.1-0.4-0.3-0.7-0.5c-0.1,0-0.3-0.2-0.7-0.4c-0.7-0.4-1.4-0.8-2.2-1.2
		c-0.9-0.5-1.8-0.9-2.5-1.2c-0.1,0.2-0.5,0.9-1.1,2.2l-0.9,1.9l-0.7,1.4c0.2,0.1,0.3,0.2,0.5,0.3c1.4,0.7,2.3,1.1,3,1.4
		c0.6,0.2,1,0.3,1.2,0.3c0.2,0,0.4-0.1,0.6-0.3c0.2-0.1,0.6-0.6,1.2-1.5l0.2,0.1l0.7,0.3c-0.3,0.7-0.5,1.2-0.7,1.6
		c-0.4,0.8-0.7,1.3-0.8,1.5s-0.2,0.4-0.3,0.5c-0.1,0.2-0.3,0.5-0.5,1c-0.2,0.5-0.4,0.8-0.5,1l-0.1,0.3l-0.8-0.4
		c0-0.1,0.1-0.4,0.2-0.8c0.2-0.8,0.3-1.3,0.2-1.5c0-0.2-0.1-0.4-0.3-0.5c-0.1-0.1-0.7-0.4-1.7-0.9c-1.2-0.6-2-1-2.6-1.2
		c-0.1,0.2-0.2,0.3-0.2,0.4c-0.4,0.9-0.8,1.7-1.1,2.3l-1.2,2.4c-0.1,0.3-0.1,0.5,0,0.7c0.2,0.3,1.1,0.9,2.7,1.7
		c1.1,0.5,2,0.9,2.8,1.1c0.6,0.1,1.1,0.1,1.7-0.1c0.8-0.3,1.6-0.8,2.3-1.5c0.2,0.1,0.4,0.2,0.6,0.3c0.1,0,0.2,0.1,0.4,0.2
		c-0.1,0.2-0.2,0.3-0.3,0.5l-0.2,0.3l-1.5,1.9l-0.8,1.2c-0.5-0.2-0.9-0.4-1.2-0.5c-0.4-0.2-1.5-0.8-3.4-1.8
		c-1.3-0.7-2.8-1.5-4.7-2.4c-0.9-0.5-2.1-1-3.4-1.6l-0.5-0.2l-1.4-0.6l0.4-0.8c0.2,0,0.5,0.1,0.9,0.3c0.8,0.3,1.4,0.4,1.8,0.4
		c0.2-0.2,0.4-0.4,0.5-0.8c0.1-0.1,0.2-0.4,0.3-0.7l0.2-0.3l2.1-4.3l0.6-1.3l0.8-1.9l0.6-1.3l0.6-1.5c0,0,0-0.1,0.1-0.2
		c0-0.1-0.1-0.2-0.3-0.3c-0.1-0.1-0.2-0.1-0.3-0.2c-0.4-0.3-0.8-0.6-1.2-0.8c-0.1-0.1-0.3-0.2-0.5-0.3L223.6,547.7z"/>
	<path d="M244.4,558.7l0.2-0.9l1,0.3l0.4,0.1c0.5,0.1,0.8,0.2,1,0.3c0.1,0,0.4,0.1,0.8,0.3c0.1,0,0.2,0.1,0.3,0.1
		c0.1,0,0.3,0.1,0.8,0.2c0.4,0.1,0.7,0.2,0.8,0.2s0.2,0.1,0.4,0.1c0.9,1.5,1.7,2.8,2.2,3.8c0.5,1.1,2.6,4.8,6.1,11.1l0.1-0.3
		l0.4-1.4c0.2-0.8,0.4-1.5,0.5-2s0.2-1.1,0.4-1.8c0.2-0.7,0.3-1.3,0.4-1.9c0.2-1.1,0.3-1.7,0.4-1.9c0.1-0.5,0.2-0.9,0.1-1
		c-0.1-0.2-0.5-0.5-1.1-0.7c-0.4-0.2-0.7-0.4-0.9-0.6l0.2-0.7l0.3,0.1l2.4,0.6l2.7,0.7c0.2,0,0.4,0.1,0.5,0.1l-0.2,0.8
		c-0.2,0-0.4,0.1-0.6,0.1c-0.6,0-0.9,0-1,0c-0.5,0.1-0.7,0.2-0.8,0.2c-0.1,0.1-0.2,0.2-0.2,0.4c0,0-0.1,0.2-0.1,0.5
		c0,0.1-0.1,0.5-0.3,1c-0.3,1.2-0.6,2.1-0.7,2.8c0,0.2-0.1,0.5-0.2,0.8l-1.1,4.3c-0.1,0.3-0.1,0.5-0.2,0.6l-0.4,1.5l-0.1,0.6
		l-0.2,0.6c-0.1,0.3-0.1,0.5-0.1,0.6l-0.2,0.6l-1.4-0.4l-1-1.9l-2.1-3.8l-1.5-2.7l-1.1-2c-0.7-1.3-1.4-2.4-2-3.4l-1.5-2.4l-1.2,4.6
		c-0.1,0.3-0.2,0.6-0.2,0.9l-0.3,0.9l-0.4,1.6c-0.2,0.7-0.3,1.4-0.5,2.2c0,0.2-0.1,0.4-0.1,0.5c0,0.1,0,0.2,0,0.4
		c0.3,0.2,1,0.5,2,0.9c0.1,0,0.2,0.1,0.3,0.2l-0.2,1l-0.5-0.1c-0.3-0.1-1.1-0.4-2.4-0.9c-1.3-0.4-2.2-0.6-2.6-0.7
		c-0.4-0.1-0.7-0.1-0.7-0.2c-0.1,0-0.2-0.1-0.4-0.2c0-0.2,0.1-0.4,0.1-0.5s0.1-0.2,0.1-0.4c0.2,0,0.4,0.1,0.6,0.1
		c0,0,0.2,0.1,0.5,0.2c0.7,0.2,1.1,0.3,1.3,0.2c0.2-0.1,0.3-0.3,0.5-0.8c0.4-1.3,0.7-2.1,0.8-2.3l0.2-0.7l1.2-4l0.7-2.5
		c0.3-0.9,0.4-1.6,0.4-2c0-0.2,0-0.4-0.1-0.6c-0.2-0.4-0.5-0.7-0.8-0.9C245.7,559.3,245.2,559.1,244.4,558.7z"/>
	<path d="M287,567.5c0,0.3,0,0.7,0,1.5c0,0.7,0,1.3-0.1,1.6c0,0.1-0.1,0.3-0.1,0.5c-0.4,0-0.7-0.1-0.9-0.2c-0.5-1.1-0.9-1.7-1.2-2
		c-0.4-0.5-1-1-1.8-1.4c-0.5-0.3-1.2-0.5-1.9-0.6c-1.4-0.1-2.7,0.4-3.9,1.5c-1.2,1.2-1.9,3-2.2,5.5c-0.1,1.2,0,2.3,0.3,3.5
		c0.3,1.1,0.8,2.1,1.6,2.8c0.8,0.7,1.7,1.1,2.8,1.3c0.5,0.1,1.1,0,1.8,0c0.3,0,0.6-0.1,0.8-0.3c0.1-0.1,0.3-0.3,0.3-0.6
		c0.1-0.5,0.2-1.2,0.3-2.1c0.1-0.9,0.1-1.5,0.2-1.8c0-0.1-0.1-0.2-0.1-0.3c-0.1,0-0.2-0.1-0.5-0.2l-1.1-0.4
		c-0.2-0.1-0.4-0.2-0.4-0.3s0-0.2,0-0.2c0-0.1,0.1-0.3,0.1-0.5c0.2,0,0.3,0,0.3,0c0.9,0.1,1.7,0.2,2.4,0.3c0.2,0,0.5,0.1,0.8,0.1
		l2,0.2l0.9,0.1c0.1,0,0.4,0,0.8,0.1c0,0.2,0,0.4,0,0.6c0,0.1-0.1,0.2-0.1,0.3c-0.2,0.1-0.4,0.2-0.8,0.2c-0.4,0.1-0.6,0.2-0.6,0.2
		c-0.1,0.1-0.1,0.2-0.2,0.3c0,0.1-0.1,0.6-0.2,1.5c-0.1,1-0.2,1.6-0.2,1.8c-0.1,0.6-0.2,1-0.2,1.1c0,0.3-0.1,0.5-0.2,0.6
		c-0.3,0.2-1,0.4-2.3,0.6c-1.3,0.2-2.7,0.2-4.3,0c-1.1-0.1-2.1-0.3-2.9-0.6c-0.8-0.3-1.5-0.6-2.1-1c-0.7-0.6-1.4-1.2-1.9-1.9
		c-0.5-0.7-0.8-1.5-1-2.3c-0.3-1.2-0.3-2.3-0.2-3.4c0.1-1.2,0.6-2.5,1.3-3.7c0.5-0.9,1.2-1.6,2-2.3c0.8-0.7,1.9-1.1,3.1-1.5
		c1.2-0.3,2.5-0.4,3.8-0.3c0.2,0,0.4,0.1,0.8,0.1c1,0.1,2,0.3,2.8,0.7C285.7,566.7,286.4,567.1,287,567.5z"/>
	<path d="M296.3,582.1c0.3-0.1,0.6-0.2,1.1-0.3c0.5-0.1,0.8-0.1,0.8-0.1c0.3,0,0.5-0.1,0.7-0.2c0-0.2,0.1-0.4,0-0.5l-0.1-1.6v-1.7
		l-0.1-1.1l-0.1-1.2l-0.1-1.3l-0.1-2.8l-0.1-1.3v-0.2c-0.1-0.9-0.2-1.4-0.2-1.5c-0.1-0.1-0.3-0.2-0.7-0.3c0,0-0.2-0.1-0.5-0.2
		c-0.2-0.1-0.4-0.1-0.6-0.1c-0.3-0.1-0.5-0.1-0.6-0.2c0-0.2,0-0.4-0.1-0.5c0-0.1,0-0.2,0-0.3c0.1,0,0.2-0.1,0.2-0.1
		c0.2,0,0.9,0,2.2,0l1.8-0.1h1.3c0.6,0,1.3-0.1,2.2-0.2c0.3,0,0.4-0.1,0.5-0.1c0.1,0,0.2,0,0.3,0.1c0.1,0.1,0.1,0.3,0.1,0.5
		s0,0.3-0.1,0.4c0,0.1-0.2,0.1-0.5,0.2l-1.6,0.5c0,0-0.1,0.1-0.2,0.1c0,0.1-0.1,0.1-0.1,0.2v0.4v0.8v0.2v0.1c0,0,0,0.3,0,0.7
		c0,0.1,0,0.2,0,0.3s0,0.4,0.1,0.7c0,0.5,0.1,1,0.1,1.3c0,0.4,0,0.9,0,1.5c0,0.2,0,0.5,0,0.8l0.3,6c0,0.3,0.1,0.4,0.1,0.5h1.2
		l0.7-0.1h0.8c1.4-0.1,2.4-0.3,3.2-0.6c0.6-0.3,0.9-0.5,1.1-0.8c0.3-0.3,0.5-0.6,0.7-0.9c0.2-0.3,0.3-0.8,0.5-1.5h0.4
		c0.2,0,0.4,0,0.7,0v0.4c0,0.6,0,1.7-0.1,3.2c0,0.6-0.1,1-0.1,1.1c-0.2,0-0.3,0.1-0.4,0.1h-0.5h-0.7c-0.1,0-0.6,0-1.5,0
		c-0.2,0-1,0-2.4,0c-1.5,0-2.9,0.1-4.3,0.1l-2.6,0.2c-1,0.1-1.9,0.2-2.8,0.3H296c-0.1,0-0.1,0-0.2,0c0-0.1,0-0.2,0-0.2
		C296.3,582.5,296.3,582.2,296.3,582.1z"/>
	<path d="M319.8,581.4l-0.2-0.9c0.1-0.1,0.4-0.2,0.8-0.4c0.6-0.3,1-0.5,1.1-0.6s0.2-0.4,0.4-0.8l1.2-7.1l1.3-8.3
		c0.3-0.1,0.5-0.1,0.8-0.2l0.6-0.1l0.2,0.2l3.2,4.7c0.7,1,1.4,2,2,2.9c0.6,0.9,1.1,1.7,1.5,2.3c0.2,0.4,0.6,0.9,1,1.6
		c0.2,0.4,0.6,0.9,1,1.5c0.2,0.3,0.4,0.5,0.5,0.5c0.2,0.1,0.4,0.1,0.8,0.1c0.3,0,0.7,0,1.2,0.1c0.1,0.3,0.2,0.5,0.2,0.6s0,0.2,0,0.3
		c-0.6,0.1-1.3,0.2-2,0.3c-0.8,0.1-1.4,0.2-2,0.3c-0.7,0.1-1.1,0.2-1.4,0.3l-2.1,0.5l-0.6,0.2c-0.1-0.3-0.1-0.6-0.1-0.8l1.3-0.6
		c0.4-0.2,0.6-0.3,0.7-0.4c0.1-0.1,0.1-0.2,0.1-0.3s-0.1-0.2-0.1-0.3l-0.7-1.1l-1.5-2.2l-4.8,1c-0.1,0.4-0.3,1.5-0.5,3.2
		c-0.1,0.5-0.1,0.8-0.1,0.9c0,0.2,0.1,0.4,0.3,0.4c0.2,0.1,0.6,0.2,1.2,0.1c0.1,0,0.4,0,0.9,0c0.1,0.3,0.1,0.5,0.1,0.6s0,0.2,0,0.3
		c-0.5,0.1-1.8,0.3-3.7,0.6l-0.5,0.2c-0.6,0.2-1.2,0.4-1.7,0.5L319.8,581.4z M324.2,573.2c1.9-0.4,3.1-0.6,3.4-0.7l0.3-0.1
		c-0.4-0.7-0.9-1.5-1.5-2.4c-0.6-0.9-1.1-1.6-1.4-2L324.2,573.2z"/>
	<path d="M339.1,561.3l-0.4-0.8l1-0.4l0.3-0.1c0.5-0.2,0.8-0.4,1-0.4c0.1,0,0.4-0.1,0.8-0.3c0.1,0,0.2-0.1,0.3-0.1
		c0.1,0,0.3-0.1,0.7-0.3c0.4-0.2,0.7-0.3,0.7-0.3c0.1,0,0.2-0.1,0.4-0.1c1.7,0.6,3,1.2,4.1,1.7c1.1,0.5,5,2.2,11.7,5.1l-0.1-0.3
		l-0.6-1.4c-0.3-0.8-0.6-1.4-0.8-1.9c-0.2-0.5-0.5-1-0.7-1.7c-0.3-0.6-0.5-1.2-0.8-1.7c-0.5-1-0.8-1.6-0.8-1.7
		c-0.2-0.5-0.4-0.8-0.5-0.9c-0.2-0.1-0.7-0.1-1.3,0.1c-0.5,0.1-0.8,0.1-1.1,0.1l-0.3-0.7l0.3-0.2l2.3-1l2.6-1.1
		c0.2-0.1,0.3-0.1,0.5-0.2l0.3,0.8c-0.1,0.2-0.3,0.3-0.5,0.4c-0.5,0.3-0.7,0.5-0.8,0.6c-0.3,0.4-0.5,0.6-0.5,0.7
		c0,0.1,0,0.3,0.1,0.5c0,0,0.1,0.2,0.2,0.5c0.1,0.1,0.2,0.5,0.4,1c0.5,1.1,0.8,2,1.2,2.7c0.1,0.2,0.2,0.4,0.3,0.7l1.8,4.1
		c0.1,0.3,0.2,0.5,0.3,0.6l0.6,1.5l0.3,0.6l0.2,0.7c0.2,0.3,0.3,0.5,0.3,0.6l0.2,0.6l-1.3,0.6l-2-0.9l-4-1.7l-2.8-1.2l-2.1-0.9
		c-1.3-0.6-2.5-1.1-3.6-1.5l-2.6-1l1.8,4.4c0.1,0.3,0.2,0.5,0.3,0.8l0.3,0.8l0.7,1.5c0.3,0.6,0.6,1.3,1,2.1c0.1,0.2,0.2,0.3,0.2,0.4
		c0.1,0.1,0.2,0.2,0.3,0.3c0.4,0,1.1-0.2,2.1-0.5c0.1,0,0.2,0,0.3,0l0.4,0.9l-0.5,0.2c-0.3,0.1-1.1,0.4-2.5,0.8
		c-1.2,0.5-2.1,0.9-2.5,1.1c-0.4,0.2-0.6,0.3-0.7,0.3s-0.2,0.1-0.4,0.1c-0.1-0.2-0.2-0.3-0.2-0.5c0-0.1-0.1-0.2-0.2-0.4
		c0.2-0.1,0.4-0.2,0.5-0.3c0,0,0.2-0.1,0.5-0.2c0.7-0.3,1-0.5,1.1-0.6s0-0.4-0.1-0.9c-0.4-1.3-0.7-2.1-0.8-2.3l-0.3-0.7l-1.5-3.9
		l-1-2.4c-0.4-0.9-0.7-1.5-0.9-1.8c-0.1-0.2-0.3-0.3-0.5-0.4c-0.4-0.2-0.8-0.3-1.2-0.3C340.6,561,340.1,561.1,339.1,561.3z"/>
	<path d="M372.4,562.7c0.1-0.1,0.3-0.3,0.6-0.5c0.6-0.5,0.9-1,1-1.3c0.1-0.2,0-0.5-0.2-0.9c0-0.1-0.7-1.2-2-3.3l-0.8-1.2l-0.9-1.4
		l-2.3-3.7l-0.3-0.4c-0.1-0.2-0.3-0.3-0.4-0.3s-0.2,0-0.5,0.2c-0.2,0.1-0.4,0.3-0.6,0.5c-0.3,0.2-0.6,0.4-0.8,0.6
		c0,0-0.1,0.1-0.2,0.2l-0.6-0.9c0.3-0.4,0.9-0.9,1.6-1.5c1.2-1,2.7-2.1,4.6-3.3c1.6-1,2.8-1.6,3.7-1.9c1.3-0.4,2.5-0.6,3.5-0.5
		c1.4,0.2,2.6,0.6,3.7,1.2c1.1,0.7,2,1.6,2.7,2.7c0.9,1.5,1.4,2.9,1.4,4.3c0,1.4-0.4,2.8-1.2,4.2c-0.6,1-1.5,1.9-3,2.8l-2.3,1.3
		l-0.7,0.4l-0.9,0.6l-0.3,0.1l-0.9,0.6l-1.2,0.7c0,0-0.4,0.3-1.1,0.8c-0.2,0.2-0.5,0.4-0.9,0.6c-0.2,0.1-0.4,0.3-0.5,0.3
		C372.8,563.4,372.7,563.1,372.4,562.7z M370.1,547.4c0.1,0.2,0.2,0.4,0.3,0.5l1.2,1.8l1,1.6c0.3,0.5,0.6,1,0.9,1.3l0.6,1l1.1,1.7
		l0.6,1.1c0.6,1,1.2,1.5,1.8,1.7c0.8,0.2,1.7,0,2.7-0.6c0.7-0.4,1.2-0.8,1.4-1.2c0.5-0.7,0.9-1.4,1-2.1c0.1-0.7,0-1.5-0.3-2.5
		c-0.3-1-0.7-1.9-1.3-2.8c-0.9-1.5-1.9-2.5-2.9-3.1c-1-0.6-2.1-0.9-3.2-0.9c-1.1,0-2.2,0.4-3.2,1
		C371.1,546.4,370.5,546.9,370.1,547.4z"/>
</g>
<circle fill="none" stroke="#000000" stroke-width="0.5911" stroke-miterlimit="10" cx="296.9" cy="420.2" r="137"/>
<g>
	<path d="M399.9,344.1c15.8,21.3,25.1,47.6,25.1,76.2c0,70.6-57.2,127.8-127.7,127.8c-47.6,0-89.2-26.1-111.1-64.7
		c46.9,13.8,80.5-44.5,108.9-84.5c13.3,5.8,18.1,15.4,18.1,15.4c14.9,32.7-28.1,65.8-7.3,80.8C320.3,469.4,368,386.8,399.9,344.1"/>
	<path d="M392.8,335.5c-20.9,22.9-45.7,61.4-69.8,96.5c1.4-31.3-23.3-37.8-23.3-37.8c-0.2-0.1-0.5-0.2-1.1-0.4
		c52.1-78.3,58.7-78,59.2-78.3c-13.7-9.5-75.9,74-75.9,74h-0.3c-51.1,0-71.4,12.5-84.4,19.5c-13.4,7.5-22,15.2-27.2,22
		c-0.3-3.5-0.6-7.1-0.6-10.7c0-70.6,57.2-127.8,127.8-127.8C335.3,292.5,369.4,309.1,392.8,335.5"/>
	<path d="M241.1,444.1c-18.3,24.8-31.5,38.9-51.9,31.3c-27.3-14-2.7-43,9.6-53.1c37.6-31.1,76.8-27.3,78.4-27.2
		C277.5,395.1,241.1,444.1,241.1,444.1"/>
</g>
</svg>
