<?xml version="1.0" encoding="utf-8"?>
<!-- Generator: Adobe Illustrator 17.1.0, SVG Export Plug-In . SVG Version: 6.00 Build 0)  -->
<!DOCTYPE svg PUBLIC "-//W3C//DTD SVG 1.1//EN" "http://www.w3.org/Graphics/SVG/1.1/DTD/svg11.dtd">
<svg version="1.1" id="Calque_1" xmlns="http://www.w3.org/2000/svg" xmlns:xlink="http://www.w3.org/1999/xlink" x="0px" y="0px"
	 viewBox="0 0 595.3 841.9" enable-background="new 0 0 595.3 841.9" xml:space="preserve">
<g>
	<path fill="#1D1D1B" d="M273.3,341.6h-24.8v76.3c0,14.7-4.2,28.6-23.6,28.6c-19.4,0-24.6-13.9-24.6-28.6v-76.3h-24.8v77.9
		c0,24.5,15.1,45,49.5,45c34.3,0,48.4-20.5,48.4-45L273.3,341.6L273.3,341.6z"/>
	<polygon fill="#1D1D1B" points="57.2,461.1 81.6,461.1 81.6,405.8 130.9,405.8 130.9,461.1 155.3,461.1 155.3,341.6 130.9,341.6 
		130.9,387.5 81.6,387.5 81.6,341.6 57.2,341.6 	"/>
	<path fill="#1D1D1B" d="M398.3,372.3c-9.1-23.3-26.8-35.8-51.3-35.8c-36.1,0-60.1,26.3-60.1,64c0,40.8,21,64,58.5,64
		c8.7,0,25.3-4.4,33.3-13.5v10.4h20.7V396h-51.5v17.6h28.8c0,17.8-12.8,34.4-29.8,34.3c-25.1,0-33.9-25-33.9-47.5
		c0-21.2,10-47.5,34-47.5c20,0,27.6,18.3,30.1,28L398.3,372.3L398.3,372.3z"/>
	<polygon fill="#1D1D1B" points="66.1,505 66.1,493.4 77.2,493.4 77.2,505 83,505 83,478.5 77.1,478.5 77.1,488.9 66.1,488.9 
		66.1,478.5 60.3,478.5 60.3,505 	"/>
	<path fill="#1D1D1B" d="M134,478.5v14.4c0,4.5-0.1,8.5-5.8,8.5c-5.7,0-5.8-4-5.8-8.5v-14.4h-5.9v16.6c0,7.1,5.2,10.5,11.7,10.5
		c6.5,0,11.7-3.4,11.7-10.5v-16.6H134L134,478.5z"/>
	<path fill="#1D1D1B" d="M191.5,495.3v5.4c-1.4,0.5-2.9,0.8-5.1,0.8c-5.5,0-7.8-3.7-7.8-9.7c0-6,2.1-9.7,7.2-9.7
		c3.4,0,5.6,2.2,5.6,4.5h5.9c0-5.2-4.7-8.6-11.7-8.6c-5.6,0-13.1,3.3-13.1,13.8c0,10.5,7.2,13.8,13.7,13.8c5.5,0,9.1-1.2,11.1-2
		v-12.7h-11v4.4L191.5,495.3L191.5,495.3z"/>
	<path fill="#1D1D1B" d="M460.1,485.9c0-5.4-5.3-8.3-10.3-8.3c-5,0-10.4,3-10.4,8.3c0,3.8,2.7,5.9,6.5,6.9c1.2,0.3,3.2,1,4.2,1.3
		c3.7,1,4.9,2,4.9,4.1c0,3-2.8,3.9-4.6,3.9c-4.4,0-5.9-2.5-5.9-5.5h-5.8c0,5.9,4.3,9.3,11.7,9.3c5.6,0,10.7-3.1,10.7-8.4
		c0-4.2-3.2-6.5-7.3-7.7c-1.4-0.4-2.8-0.8-4.2-1.2c-3.2-1-4.6-1.8-4.6-3.8c0-1.9,1.4-3.5,4.5-3.5c3.2,0,4.7,2,4.7,4.6L460.1,485.9
		L460.1,485.9z"/>
	<path fill="#1D1D1B" d="M517,485.9c0-5.4-5.3-8.3-10.3-8.3c-5,0-10.4,3-10.4,8.3c0,3.8,2.7,5.9,6.5,6.9c1.2,0.3,3.2,1,4.2,1.3
		c3.7,1,4.9,2,4.9,4.1c0,3-2.8,3.9-4.6,3.9c-4.4,0-5.9-2.5-5.9-5.5h-5.8c0,5.9,4.3,9.3,11.7,9.3c5.6,0,10.7-3.1,10.7-8.4
		c0-4.2-3.2-6.5-7.3-7.7c-1.4-0.4-2.8-0.8-4.2-1.2c-3.2-1-4.6-1.8-4.6-3.8c0-1.9,1.4-3.5,4.5-3.5c3.2,0,4.7,2,4.7,4.6L517,485.9
		L517,485.9z"/>
	<path fill="#1D1D1B" d="M243.1,505.8c9.1,0,13.2-6.1,13.2-14.1c0-8-4.1-14.1-13.2-14.1s-13.2,6.1-13.2,14.1
		C229.9,499.7,234,505.8,243.1,505.8L243.1,505.8z M243.1,481.8c5.8,0,6.9,5.3,6.9,9.9s-1.1,9.9-6.9,9.9s-6.9-5.3-6.9-9.9
		C236.2,487.1,237.3,481.8,243.1,481.8L243.1,481.8z"/>
	<path fill="#1D1D1B" d="M334.6,505.3c5.4,0,10.3-2.6,10.3-7.5c0-4-3.2-6.4-6.4-6.7c2.2-0.3,5.1-2.6,5.1-5.9c0-4.8-3.7-7-9.3-7
		h-11.7v27.1H334.6L334.6,505.3z M328.4,501.1v-7.8h5.2c2.6,0,4.8,0.8,4.8,3.8c0,2.9-2.3,4-4.8,4H328.4L328.4,501.1z M328.4,489.3
		v-6.9h5.4c2.4,0,3.8,1.5,3.8,3.5c0,2.1-1.9,3.4-4,3.4H328.4L328.4,489.3z"/>
	<path fill="#1D1D1B" d="M391.8,506c9.2,0,13.3-6.2,13.3-14.2c0-8.1-4.1-14.2-13.3-14.2c-9.2,0-13.3,6.2-13.3,14.2
		S382.6,506,391.8,506L391.8,506z M391.8,481.7c5.9,0,7.1,5.3,7.1,10c0,4.8-1.1,10-7.1,10s-7.1-5.3-7.1-10
		C384.7,487,385.8,481.7,391.8,481.7L391.8,481.7z"/>
	<path fill="#1D1D1B" d="M473.7,334.9c-37,0-61.6,27.9-61.6,65.6c0,38,24.6,65.6,61.6,65.6s61.6-27.6,61.6-65.6
		C535.3,362.8,510.7,334.9,473.7,334.9L473.7,334.9z M473.7,351.5c24.7,0,34.9,27.2,34.9,49s-10.2,49-34.9,49
		c-24.7,0-34.9-27.2-34.9-49C438.8,378.7,449,351.5,473.7,351.5L473.7,351.5z"/>
</g>
</svg>
