<?xml version="1.0" encoding="utf-8"?>
<!-- Generator: Adobe Illustrator 17.1.0, SVG Export Plug-In . SVG Version: 6.00 Build 0)  -->
<!DOCTYPE svg PUBLIC "-//W3C//DTD SVG 1.1//EN" "http://www.w3.org/Graphics/SVG/1.1/DTD/svg11.dtd">
<svg version="1.1" id="Calque_1" xmlns="http://www.w3.org/2000/svg" xmlns:xlink="http://www.w3.org/1999/xlink" x="0px" y="0px"
	 viewBox="0 0 595.3 841.9" enable-background="new 0 0 595.3 841.9" xml:space="preserve">
<path fill="#1D1D1B" d="M91.8,419.8c0,7.2-1.7,8.9-9.2,8.9c-8.6,0-10.4-2.3-10.4-5.8v-7.3h-7.4v7.5c0,8.6,5.5,12.8,17,12.8
	c12.3,0,17.5-4.4,17.5-14.7v-27.6h-7.4L91.8,419.8z"/>
<path fill="#1D1D1B" d="M182.6,420.5c-2.9,5.4-7.2,8.2-12.8,8.2c-8,0-13.8-6.1-13.8-14.4c0-8.4,5.8-14.5,13.8-14.5
	c5.2,0,9.6,2.5,11.8,6.7l0.7,1.3l6.2-4.4l-0.7-1c-3.9-6.1-10.5-9.6-18-9.6c-12.3,0-21.3,9.1-21.3,21.6s9,21.5,21.3,21.5
	c8.4,0,15.1-4,18.9-11.1l0.5-1l-6-4.4L182.6,420.5z M121.6,393.5l-20.2,41.2h8c0,0,4.5-9.2,5.1-10.4h19.8c0.6,1.2,5.2,10.4,5.2,10.4
	h8.1l-20.4-41.2H121.6z M118,417.2c1.2-2.5,4.9-9.9,6.4-12.9c1.5,3,5.2,10.4,6.4,12.9H118z M479.8,388.9c2.5,0,4.4-2,4.4-4.4
	c0-2.5-2-4.4-4.4-4.4c-2.4,0-4.4,2-4.4,4.4C475.5,386.9,477.4,388.9,479.8,388.9 M462.5,388.9c2.5,0,4.4-1.9,4.4-4.4s-2-4.4-4.4-4.4
	c-2.4,0-4.5,2-4.5,4.4S460,388.9,462.5,388.9 M522.3,393.5v26.7c-3.8-4.3-23.2-26.7-23.2-26.7h-4.4v41.2h7.4V408
	c3.7,4.3,23.3,26.7,23.3,26.7h4.3v-41.2H522.3z M379.8,392.6c-12.4,0-21.3,9.1-21.3,21.6c0,12.5,9,21.5,21.3,21.5
	c12.4,0,21.4-9,21.4-21.5C401.2,401.7,392.2,392.6,379.8,392.6 M379.8,428.6c-8,0-13.8-6.1-13.8-14.4c0-8.4,5.8-14.5,13.8-14.5
	s13.8,6.1,13.8,14.5C393.6,422.5,387.8,428.6,379.8,428.6 M436.1,408.8h-20.2v-15.3h-7.5v41.2h7.5v-18.9h20.2v18.9h7.4v-41.2h-7.4
	V408.8z M461.5,416.3H477v-7h-15.5v-8.8h25.6v-7h-33v41.2h34.6v-7h-27.2V416.3z M277.2,411.4c1.8-1.8,3.1-4.1,3.1-7
	c0-7-4.6-10.9-12.8-10.9h-24.2v41.2h25.4c8.7,0,14.3-5.1,14.3-12.9C283,417.4,280.8,413.9,277.2,411.4 M250.6,400.5h17.2
	c4.4,0,4.9,2.1,4.9,4.2c0,1,0,4.1-4.9,4.1h-17.2L250.6,400.5L250.6,400.5z M269.6,427.7h-18.9v-11.9h18.9c3.6,0,5.8,2.2,5.8,6
	C275.4,425.5,273.2,427.7,269.6,427.7 M214.6,392.6c-12.3,0-21.3,9.1-21.3,21.6c0,12.5,9,21.5,21.3,21.5c12.4,0,21.4-9,21.4-21.5
	C235.9,401.7,226.9,392.6,214.6,392.6 M214.6,428.6c-8,0-13.8-6.1-13.8-14.4c0-8.4,5.8-14.5,13.8-14.5c8,0,13.8,6.1,13.8,14.5
	C228.3,422.5,222.5,428.6,214.6,428.6 M347.8,420.5c-2.9,5.4-7.2,8.2-12.8,8.2c-8,0-13.8-6.1-13.8-14.4c0-8.4,5.8-14.5,13.8-14.5
	c5.2,0,9.6,2.5,11.8,6.7l0.7,1.3l6.2-4.4l-0.7-1c-3.9-6.1-10.5-9.6-18-9.6c-12.4,0-21.3,9.1-21.3,21.6s8.9,21.5,21.3,21.5
	c8.4,0,15.1-4,18.9-11.1l0.5-1l-6-4.4L347.8,420.5z"/>
</svg>
