<?xml version="1.0" encoding="utf-8"?>
<!-- Generator: Adobe Illustrator 17.1.0, SVG Export Plug-In . SVG Version: 6.00 Build 0)  -->
<!DOCTYPE svg PUBLIC "-//W3C//DTD SVG 1.1//EN" "http://www.w3.org/Graphics/SVG/1.1/DTD/svg11.dtd">
<svg version="1.1" id="Calque_1" xmlns="http://www.w3.org/2000/svg" xmlns:xlink="http://www.w3.org/1999/xlink" x="0px" y="0px"
	 viewBox="0 0 595.3 841.9" enable-background="new 0 0 595.3 841.9" xml:space="preserve">
<g>
	<path fill="#1D1D1B" d="M91.5,437.9h8.1v-1.4H70.8v1.4h8.1v61.5c0,2.4,0,6.4-3.8,6.4c-1,0-3.9,0-3.9-3.9c0-1.1,1.2-5.7,1.2-7.5
		c0-4.2-3.5-4.7-5.3-4.7c-6.9,0-6.9,5.7-6.9,6.9c0,8.4,7.7,10.5,13.8,10.5c17.2,0,17.5-15,17.5-21.3L91.5,437.9L91.5,437.9z
		 M137.7,503.3c-1,1.2-1.8,1.8-3.3,1.8c-2.5,0-2.9-2.2-2.9-4.7v-24.1c0-11-7.2-13.7-16-13.7c-7.6,0-15,3.7-15,10.5
		c0,4.4,2.7,5,5.1,5c1.6,0,5.3,0,5.3-4c0-0.9-0.5-4.7-0.5-5.3c0-3.6,2.3-4.8,5-4.8c4.3,0,5.4,3.5,5.4,6.9v5.9c0,4.9-2,5.6-11.5,8.8
		c-5.8,1.9-11.6,4.1-11.6,11.7c0,7.5,6.8,9.7,12.4,9.7c6.2,0,9.1-1.5,10.9-6.7h0.2c0.7,4.1,3.4,6.7,9.3,6.7c2.7,0,6.2-0.1,7.9-2.9
		L137.7,503.3L137.7,503.3z M120.9,494.5c0,7.6-3.2,10.4-6.1,10.4c-5.4,0-5.7-6.2-5.7-9.2c0-7.8,4.9-9.3,9.3-11.7
		c1.6-0.9,2.2-1.6,2.4-2.3h0.2v12.8H120.9z M138.3,484.9c0,19.8,17.1,22.3,21.6,22.3c10.9,0,14.4-7.7,15.5-12.2l-1.2-0.5
		c-0.3,2.4-3.6,11.3-13.1,11.3c-10.2,0-10.9-11.5-10.9-21.5c0-10.9,1.1-20.2,9.5-20.2c3.1,0,5.3,1.6,5.3,4.2c0,1.1-1.3,5.7-1.3,6.8
		c0,3.5,2.7,4.3,5.4,4.3c3.6,0,5.7-1.6,5.7-5.8c0-6.5-6.2-10.8-14.9-10.8C145.9,462.7,138.3,475.3,138.3,484.9L138.3,484.9z
		 M223.9,465.4h5.9v28.1c0,9.4,4.5,13.1,12.6,13.1c5.3,0,11.1-3.1,13-8.8h0.2v7.9h16.3v-1.4h-5.8v-40.4h-16.5v1.4h5.8v25.1
		c0,7.1-3.6,13.2-9,13.2c-4.5,0-6-4-6-8.8V464h-16.5L223.9,465.4L223.9,465.4z M310.5,481.4c0-13.2-9.2-18.7-17.2-18.7
		c-11.4,0-20.4,10.9-20.4,22.1c0,13.9,9.5,22.4,21.6,22.4c10.2,0,14.4-7.4,15.5-12.2l-1.2-0.5c-0.3,2.2-3.7,11.3-13,11.3
		c-10.4,0-11.1-10.8-11.1-20v-4.4L310.5,481.4L310.5,481.4z M284.7,480c0.3-6.6,0.4-15.9,8.3-15.9c5.7,0,5.7,6.7,5.7,9.4v6.5H284.7
		L284.7,480z M314.8,505.8h1.2c0.3-1,0.6-1.4,1.6-1.4c2.1,0,8,2.7,12.2,2.7c7.7,0,15-5.4,15-14c0-6.1-3.3-10.1-9.6-12.5l-7.4-2.8
		c-5.9-2.2-6.4-5.2-6.4-7c0-4.5,3.9-6.7,7.7-6.7c7.3,0,9.3,5.3,11.6,11.7h1.1v-11.9h-1.2c-0.2,0.6-0.4,1.3-1.7,1.3
		c-1.4,0-4.9-2.4-9.3-2.4c-8.5,0-14.4,6.3-14.4,13.9c0,6.9,4.7,9.9,8,11.3l7.1,2.9c6.2,2.5,6.9,5.1,6.9,7.5c0,7.5-5.8,7.5-7.8,7.5
		c-8.1,0-10.8-6.8-13.5-14.1h-1.2L314.8,505.8L314.8,505.8z M366.3,504.4h-8.1v1.4h13.2c4.9,0,9.7,0.3,14.6,0.3
		c8.7,0,24.3-4,24.3-19.1c0-13.8-11.9-17.6-20.9-18.4v-0.4c5.6-0.9,17.7-4.7,17.7-15.8c0-12.4-12-16.1-21.2-16.1
		c-4.8,0-9.7,0.3-14.5,0.3h-13.2v1.4h8.1V504.4L366.3,504.4z M379,469.3h5.1c11.6,0,12.1,12.3,12.1,16.6c0,15.8-4.6,18.8-12.1,18.8
		c-1.7,0-3.5-0.1-5.1-0.3V469.3L379,469.3z M379,437.9c1.3-0.1,2.5-0.3,3.9-0.3c8.7,0,11.1,5,11.1,16.3c0,7.1-0.9,14-11.4,14H379
		V437.9L379,437.9z M413.5,465.4h5.7v39h-5.7v1.4h23.3v-1.4h-6.9v-24.9c0-8.3,5-13.4,7.4-13.4c2,0,2,2.2,2,2.3
		c0,0.4-0.6,4.1-0.6,4.9c0,3.4,2.7,4.4,5.3,4.4c3.7,0,5.3-2.3,5.3-6.2c0-5.2-3.4-8.3-8.2-8.3c-5.8,0-9.2,4.1-11.3,9h-0.2V464h-16.2
		v1.4H413.5z M448.4,465.4h5.9v39h-5.9v1.4h22.4v-1.4h-5.9V464h-16.5V465.4L448.4,465.4z M453.4,443.2c0,3.8,2.8,6.9,6.2,6.9
		c3.4,0,6.2-3.1,6.2-6.9c0-3.8-2.8-6.9-6.2-6.9C456.2,436.2,453.4,439.4,453.4,443.2L453.4,443.2z M476.4,464.1h-5.9v1.4h5.9v29.9
		c0,4.7,0,11.8,12.3,11.8c4.4,0,10.2-1.4,11.6-10.2l-1.3-0.3c-1,4-2.9,8.6-7.3,8.6c-4,0-4.6-3.4-4.6-7.2v-32.6h10.2v-1.4h-10.2
		v-12.5c-1.8,0.8-3.6,1.4-5.3,1.4c-1.8,0-3.6-0.6-5.3-1.4v12.5H476.4z M505.3,464.1h-5.9v1.4h5.9v29.9c0,4.7,0,11.8,12.2,11.8
		c4.4,0,10.2-1.4,11.6-10.2l-1.3-0.3c-1,4-2.9,8.6-7.3,8.6c-4,0-4.6-3.4-4.6-7.2v-32.6h10.2v-1.4H516v-12.5
		c-1.8,0.8-3.6,1.4-5.3,1.4c-1.8,0-3.6-0.6-5.3-1.4v12.5H505.3z"/>
	<polygon fill="#1D1D1B" points="206.9,511.7 206.9,522.1 200.9,522.1 200.9,523.5 223.4,523.5 223.4,522.1 217.6,522.1 
		217.6,511.4 	"/>
	<path fill="#1D1D1B" d="M217.6,465.6h5.8v-1.4h-16.3v7.2h-0.2c-1.8-5.6-5.3-8.6-10.3-8.6c-13.5,0-19.1,13.1-19.1,22.2
		c0,11.6,7.7,22.3,19.1,22.3c5.3,0,8.6-3.8,10.2-8.4h0.2v15l10.7,0.1L217.6,465.6L217.6,465.6z M206.9,485.1
		c0,8.2-0.5,20.8-10.3,20.8c-6.5,0-7.3-8.2-7.3-20.8c0-15.7,2-20.9,8-20.9C206,464.2,206.9,476.5,206.9,485.1L206.9,485.1z"/>
	<path fill="#1D1D1B" d="M330.6,324.6c0,0,2,4.4-2.2,3.9c0,0-5.4,0.6-3.1,2.9c0,0,4.4,4.5-1,3.1c0,0,1.8,2.2,4.9,0.1
		c0,0,2.2-0.6-0.3-2.1c0,0-3.9-2.4,0.2-2.5c0,0,1.7,0,2.5,1.3c0,0,0.8,1.8,1.6-0.7C333.3,330.6,335.1,328.9,330.6,324.6L330.6,324.6
		z"/>
	<path fill="#1D1D1B" stroke="#1D1D1B" stroke-width="0.33" d="M330.6,324.6c0,0,2,4.4-2.2,3.9c0,0-5.4,0.6-3.1,2.9
		c0,0,4.4,4.5-1,3.1c0,0,1.8,2.2,4.9,0.1c0,0,2.2-0.6-0.3-2.1c0,0-3.9-2.4,0.2-2.5c0,0,1.7,0,2.5,1.3c0,0,0.8,1.8,1.6-0.7
		C333.3,330.6,335.1,328.9,330.6,324.6L330.6,324.6z"/>
	<path fill="#1D1D1B" d="M329.1,323.1c0,0-7.8,1.8-7,5.9c0,0-0.4,3.3,1,5.4c0,0-0.5-0.6-4-2.7c0,0-1.5-7.8,2.6-9.6
		c0,0,5-1.6,5.6-0.8C327.9,322.1,329,322.7,329.1,323.1L329.1,323.1z"/>
	<path fill="#1D1D1B" stroke="#1D1D1B" stroke-width="0.33" d="M329.1,323.1c0,0-7.8,1.8-7,5.9c0,0-0.4,3.3,1,5.4c0,0-0.5-0.6-4-2.7
		c0,0-1.5-7.8,2.6-9.6c0,0,5-1.6,5.6-0.8C327.9,322.1,329,322.7,329.1,323.1L329.1,323.1z"/>
	<path fill="#1D1D1B" d="M316.4,311.9c0,0-4.2,1.9-3.3,4.1c0,0,0.6,1.4,1.9,1.7c0,0-3.5,3.4-3.4,7.4c0,0,0.3,5.6,2.1,6l1.4,0.1
		c0,0-1.4-7.5,1.6-10.4c0,0,3.2-4.2,4.9-3.7l-2.5-1.7C319.2,315.4,320.1,314.5,316.4,311.9L316.4,311.9z"/>
	<path fill="#1D1D1B" stroke="#1D1D1B" stroke-width="0.33" d="M316.4,311.9c0,0-4.2,1.9-3.3,4.1c0,0,0.6,1.4,1.9,1.7
		c0,0-3.5,3.4-3.4,7.4c0,0,0.3,5.6,2.1,6l1.4,0.1c0,0-1.4-7.5,1.6-10.4c0,0,3.2-4.2,4.9-3.7l-2.5-1.7
		C319.2,315.4,320.1,314.5,316.4,311.9L316.4,311.9z"/>
	<g>
		<path fill="#1D1D1B" d="M312.9,310.4c0,0-6.8,2.7-5.7,11.7c0,0-0.3,7.9,1,8.5l-3.3-0.6c0,0-5.3-13.6,2.1-20.8c0,0-2.1,0.4-2.9-2.6
			c0,0-1.1-2.5,1.8-4.5c0,0,3-3.9,3-1.1l0.4,4.1c0,0,2.6-5.8,3.7-2.7c0,0,0.2,4-1.8,7.3L312.9,310.4L312.9,310.4z"/>
		<path fill="#1D1D1B" stroke="#1D1D1B" stroke-width="0.33" d="M312.9,310.4c0,0-6.8,2.7-5.7,11.7c0,0-0.3,7.9,1,8.5l-3.3-0.6
			c0,0-5.3-13.6,2.1-20.8c0,0-2.1,0.4-2.9-2.6c0,0-1.1-2.5,1.8-4.5c0,0,3-3.9,3-1.1l0.4,4.1c0,0,2.6-5.8,3.7-2.7c0,0,0.2,4-1.8,7.3
			L312.9,310.4L312.9,310.4z"/>
	</g>
	<path fill="#1D1D1B" d="M300.8,305.2c0,0-2.6-0.6-3.8,1.6c-1.2,2.2-2,15.8,0,17.7c0,0,2.1,6.5,4,7l1.4-2.8c0,0-6.2-11.2-2.3-17.7
		C300.1,311.1,301.6,307.3,300.8,305.2L300.8,305.2z"/>
	<path fill="#1D1D1B" stroke="#1D1D1B" stroke-width="0.33" d="M300.8,305.2c0,0-2.6-0.6-3.8,1.6c-1.2,2.2-2,15.8,0,17.7
		c0,0,2.1,6.5,4,7l1.4-2.8c0,0-6.2-11.2-2.3-17.7C300.1,311.1,301.6,307.3,300.8,305.2L300.8,305.2z"/>
	<path fill="#1D1D1B" d="M291.8,310.4c0,0-2.8,18.6,8.6,23.2c0,0-0.8,2.8-0.8,3.4c0.1,0.6-14.4-3.9-11.9-22.5
		C287.7,314.5,291.4,310.3,291.8,310.4L291.8,310.4z"/>
	<path fill="#1D1D1B" stroke="#1D1D1B" stroke-width="0.33" d="M291.8,310.4c0,0-2.8,18.6,8.6,23.2c0,0-0.8,2.8-0.8,3.4
		c0.1,0.6-14.4-3.9-11.9-22.5C287.7,314.5,291.4,310.3,291.8,310.4L291.8,310.4z"/>
	<path fill="#1D1D1B" d="M283.3,322c0,0,2.3,17.4,16,19.8l0.3,3c0,0-13.6,1.8-18.6-14.4C281,330.4,282.3,322,283.3,322L283.3,322z"
		/>
	<path fill="#1D1D1B" stroke="#1D1D1B" stroke-width="0.33" d="M283.3,322c0,0,2.3,17.4,16,19.8l0.3,3c0,0-13.6,1.8-18.6-14.4
		C281,330.4,282.3,322,283.3,322L283.3,322z"/>
	<path fill="#1D1D1B" d="M280,336.2c0,0,5.6,19.7,14.7,15.8c0.6-0.2,4.2-1,5.4-4.2l2,3.9c0,0-15.4,11.6-18.5,0.4
		c0,0-4.7-8.4-5.5-12.6C278.1,339.4,280,336.5,280,336.2L280,336.2z"/>
	<path fill="#1D1D1B" stroke="#1D1D1B" stroke-width="0.33" d="M280,336.2c0,0,5.6,19.7,14.7,15.8c0.6-0.2,4.2-1,5.4-4.2l2,3.9
		c0,0-15.4,11.6-18.5,0.4c0,0-4.7-8.4-5.5-12.6C278.1,339.4,280,336.5,280,336.2L280,336.2z"/>
	<path fill="#1D1D1B" d="M275.8,342.4c0,0,5.5,24.6,12.6,21.7c0,0,10.2-1.8,15-11.1l1.1,0.8c0,0-14.4,25.4-22.5,14.5
		c0,0-9.2-19.5-8.2-24L275.8,342.4L275.8,342.4z"/>
	<path fill="#1D1D1B" stroke="#1D1D1B" stroke-width="0.33" d="M275.8,342.4c0,0,5.5,24.6,12.6,21.7c0,0,10.2-1.8,15-11.1l1.1,0.8
		c0,0-14.4,25.4-22.5,14.5c0,0-9.2-19.5-8.2-24L275.8,342.4L275.8,342.4z"/>
	<path fill="#1D1D1B" d="M271.6,347c0,0,1.5,27.7,10.3,28.7c0,0,19.9,6.2,23.5-21.1l1.4,0.1c0,0-0.2,23.5-20.4,28.1
		c0,0-5.2,3.1-10.5-1.7c-1.5-1.4-9.8-27-7.2-30.2L271.6,347L271.6,347z"/>
	<path fill="#1D1D1B" stroke="#1D1D1B" stroke-width="0.33" d="M271.6,347c0,0,1.5,27.7,10.3,28.7c0,0,19.9,6.2,23.5-21.1l1.4,0.1
		c0,0-0.2,23.5-20.4,28.1c0,0-5.2,3.1-10.5-1.7c-1.5-1.4-9.8-27-7.2-30.2L271.6,347L271.6,347z"/>
	<path fill="#1D1D1B" d="M266.1,363.7c0,0,5.9,17.7,7.9,19.9c0,0,1.3,4.4,6.1,5.2c0,0,6-4.5,11.7-4.8c0,0,7.9,0.7,12.4-8.3
		c0,0,5-13.6,3.9-17.9c0,0,2.7,4.8,0.4,13.9c0,0-3.6,9.8-4.1,10.8c0,0-0.7,2.6-0.9,4.4c0,0-1.1,8.3-5,10c0,0-1.4,0.8-2.5-0.5
		c0,0,3,0.2,3.6-5.3c0,0,2.4-6-3.8-5.1c0,0-11.7-0.6-12.4,4.6c0,0-6.9,1.2-9.6-1.9c0,0-5.3-8.5-5.7-11.6c0,0-3.6-8-5.2-6.5
		c0,0,1.2-2.1,1.6-2.8c0-0.1,0.1-0.3,0.1-0.3S265,367,266.1,363.7L266.1,363.7z"/>
	<path fill="#1D1D1B" stroke="#1D1D1B" stroke-width="0.33" d="M266.1,363.7c0,0,5.9,17.7,7.9,19.9c0,0,1.3,4.4,6.1,5.2
		c0,0,6-4.5,11.7-4.8c0,0,7.9,0.7,12.4-8.3c0,0,5-13.6,3.9-17.9c0,0,2.7,4.8,0.4,13.9c0,0-3.6,9.8-4.1,10.8c0,0-0.7,2.6-0.9,4.4
		c0,0-1.1,8.3-5,10c0,0-1.4,0.8-2.5-0.5c0,0,3,0.2,3.6-5.3c0,0,2.4-6-3.8-5.1c0,0-11.7-0.6-12.4,4.6c0,0-6.9,1.2-9.6-1.9
		c0,0-5.3-8.5-5.7-11.6c0,0-3.6-8-5.2-6.5c0,0,0.8-1.5,1.2-2.1c0.2-0.4,0.6-1.2,0.6-1.2S265.2,366.9,266.1,363.7L266.1,363.7z"/>
	<path fill="#1D1D1B" d="M264.1,376.7c0,0,3.8,3.5,4.7,7.7c0,0,1.1,3.2,0.2,8c0,0-1.4-0.6-2.8,0.1c0,0-0.4-9.6-4.5-11.5
		c0,0,1.9-1,2.4-2.1c0.5-1.1-0.1-0.2-0.1-0.2S264.8,378.5,264.1,376.7L264.1,376.7z"/>
	<path fill="#1D1D1B" stroke="#1D1D1B" stroke-width="0.33" d="M264.1,376.7c0,0,3.8,3.5,4.7,7.7c0,0,1.1,3.2,0.2,8
		c0,0-1.4-0.6-2.8,0.1c0,0-0.4-9.6-4.5-11.5c0,0,1.9-1,2.4-2.1c0.1-0.1,0.2-0.4,0.2-0.4S264.4,377.6,264.1,376.7L264.1,376.7z"/>
	<path fill="#1D1D1B" d="M259.7,383.5c0,0,5.5,6.3,3.5,11.1c0,0-1.5,0.7-1.8,0.6c0,0-1.3-9.1-3.8-9.2L259.7,383.5L259.7,383.5z"/>
	<path fill="#1D1D1B" stroke="#1D1D1B" stroke-width="0.33" d="M259.7,383.5c0,0,5.5,6.3,3.5,11.1c0,0-1.5,0.7-1.8,0.6
		c0,0-1.3-9.1-3.8-9.2L259.7,383.5L259.7,383.5z"/>
	<path fill="#1D1D1B" d="M254.7,388.7c0,0,3.4,1.1,4.4,6.9c0,0-1.6-0.6-1,1.1c0,0-4-7-8-3.9L254.7,388.7L254.7,388.7z"/>
	<path fill="#1D1D1B" stroke="#1D1D1B" stroke-width="0.33" d="M254.7,388.7c0,0,3.4,1.1,4.4,6.9c0,0-1.6-0.6-1,1.1c0,0-4-7-8-3.9
		L254.7,388.7L254.7,388.7z"/>
	<path fill="#1D1D1B" d="M258.1,397.5c0,0-7.1-2.3-6,0.9c0,0,2.1,2.1,2.7,2.6c0,0-0.8-1.9,3.9-2.6L258.1,397.5L258.1,397.5z"/>
	<path fill="#1D1D1B" stroke="#1D1D1B" stroke-width="0.33" d="M258.1,397.5c0,0-7.1-2.3-6,0.9c0,0,2.1,2.1,2.7,2.6
		c0,0-0.8-1.9,3.9-2.6L258.1,397.5L258.1,397.5z"/>
	<path fill="#1D1D1B" d="M259.8,400.1c0,0-3.9-0.5-2.8,2.8c0,0,1.9,1.9,2.6,2.3c0,0-1.5-4.2,2.7-3.8
		C262.3,401.5,258.9,400.3,259.8,400.1L259.8,400.1z"/>
	<path fill="#1D1D1B" stroke="#1D1D1B" stroke-width="0.33" d="M259.8,400.1c0,0-3.9-0.5-2.8,2.8c0,0,1.9,1.9,2.6,2.3
		c0,0-1.5-4.2,2.7-3.8C262.3,401.5,258.9,400.3,259.8,400.1L259.8,400.1z"/>
	<path fill="#1D1D1B" d="M266.2,403c0,0-4.3-0.2-2.7,4.4c0,0,4.9,2.7,6.9,2.6c0,0,3,1,1.3-4.8c0,0-2.1-4-4.8-2L266.2,403L266.2,403z
		"/>
	<path fill="#1D1D1B" stroke="#1D1D1B" stroke-width="0.33" d="M266.2,403c0,0-4.3-0.2-2.7,4.4c0,0,4.9,2.7,6.9,2.6c0,0,3,1,1.3-4.8
		c0,0-2.1-4-4.8-2L266.2,403L266.2,403z"/>
	<path fill="#1D1D1B" d="M292.5,398.3c0,0,4.3-9-10.3-5.3c0,0-2.3,4-2.1,4.5c0.2,0.5,9.7-4.8,9.4,3.7L292.5,398.3L292.5,398.3z"/>
	<path fill="#1D1D1B" stroke="#1D1D1B" stroke-width="0.33" d="M292.5,398.3c0,0,4.3-9-10.3-5.3c0,0-2.3,4-2.1,4.5
		c0.2,0.5,9.7-4.8,9.4,3.7L292.5,398.3L292.5,398.3z"/>
	<path fill="#1D1D1B" d="M277.2,402c0,0,7.5-3.6,10,2.8c0,0-1.5,2.6-2.3,2.9c-0.8,0.4-1.7-5.4-8.2-3.1
		C276.7,404.6,276.9,402.1,277.2,402L277.2,402z"/>
	<path fill="#1D1D1B" stroke="#1D1D1B" stroke-width="0.33" d="M277.2,402c0,0,7.5-3.6,10,2.8c0,0-1.5,2.6-2.3,2.9
		c-0.8,0.4-1.7-5.4-8.2-3.1C276.7,404.6,276.9,402.1,277.2,402L277.2,402z"/>
	<path fill="#1D1D1B" d="M275.8,408.1c0,0,3.1-2.7,6.1,2.3c0,0-2.1,2.4-2.2,2.8c0,0-1.1-4.1-4.9-2.8L275.8,408.1L275.8,408.1z"/>
	<path fill="#1D1D1B" stroke="#1D1D1B" stroke-width="0.33" d="M275.8,408.1c0,0,3.1-2.7,6.1,2.3c0,0-2.1,2.4-2.2,2.8
		c0,0-1.1-4.1-4.9-2.8L275.8,408.1L275.8,408.1z"/>
	<path fill="#1D1D1B" d="M273.2,413.6c0,0,3.5-1.4,4.6,2.5l-1.5,2.5c0,0-2.2-3.7-4.7-2.3L273.2,413.6L273.2,413.6z"/>
	<path fill="#1D1D1B" stroke="#1D1D1B" stroke-width="0.33" d="M273.2,413.6c0,0,3.5-1.4,4.6,2.5l-1.5,2.5c0,0-2.2-3.7-4.7-2.3
		L273.2,413.6L273.2,413.6z"/>
	<path fill="#1D1D1B" d="M264.8,426.4c0,0-0.4,1.2-2.4,1.9c0,0-8.6,4.5-4.7,7.3c0,0,5.9,2.9,10-1.5c0,0,1.4-2.2,1.7-5.7
		C269.4,428.4,269.7,424,264.8,426.4L264.8,426.4z"/>
	<path fill="#1D1D1B" stroke="#1D1D1B" stroke-width="0.33" d="M264.8,426.4c0,0-0.4,1.2-2.4,1.9c0,0-8.6,4.5-4.7,7.3
		c0,0,5.9,2.9,10-1.5c0,0,1.4-2.2,1.7-5.7C269.4,428.4,269.7,424,264.8,426.4L264.8,426.4z"/>
	<path fill="#1D1D1B" d="M269.6,419.4c0,0,3.6-1.8,4.9,2.3c0,0-1.7,3.2-2.1,3.4c0,0-1-3.8-4.7-2.9L269.6,419.4L269.6,419.4z"/>
	<path fill="#1D1D1B" stroke="#1D1D1B" stroke-width="0.33" d="M269.6,419.4c0,0,3.6-1.8,4.9,2.3c0,0-1.7,3.2-2.1,3.4
		c0,0-1-3.8-4.7-2.9L269.6,419.4L269.6,419.4z"/>
	<path fill="#1D1D1B" d="M308.8,354.7c0,0,5.7,10.6,2.7,21.1c0,0-4,23-11.4,22.3h2.5c0,0,9.2-3.4,12.9-17.2c0,0,2.3-9.6-1.2-16.3
		c0,0-1-7.8-4.7-9.8L308.8,354.7L308.8,354.7z"/>
	<path fill="#1D1D1B" stroke="#1D1D1B" stroke-width="0.33" d="M308.8,354.7c0,0,5.7,10.6,2.7,21.1c0,0-4,23-11.4,22.3h2.5
		c0,0,9.2-3.4,12.9-17.2c0,0,2.3-9.6-1.2-16.3c0,0-1-7.8-4.7-9.8L308.8,354.7L308.8,354.7z"/>
	<path fill="#1D1D1B" d="M312.8,354.7c0,0,12.6,14.5,7.3,30.7c0,0-5.7,9.3-11.4,11.5c0,0-3.3,1.4-4.3,1.4c0,0,15.9,0.8,21.4-18.1
		c0,0,1.7-14.3-4.3-19C321.6,361.2,317.3,355.7,312.8,354.7L312.8,354.7z"/>
	<path fill="#1D1D1B" stroke="#1D1D1B" stroke-width="0.33" d="M312.8,354.7c0,0,12.6,14.5,7.3,30.7c0,0-5.7,9.3-11.4,11.5
		c0,0-3.3,1.4-4.3,1.4c0,0,15.9,0.8,21.4-18.1c0,0,1.7-14.3-4.3-19C321.6,361.2,317.3,355.7,312.8,354.7L312.8,354.7z"/>
	<path fill="#1D1D1B" d="M320.4,353.9c0,0,12.9,4.2,10.9,19.8c0,0-0.4,16.9-10.4,20.9c0,0-8.6,4.4-12.3,4c0,0,18.2,2.6,22.3-10.2
		c0,0,8.6-12.4,5-19.7c-0.1-0.3-2.2-7.4-8.9-12.6C327,356.1,323.3,353.1,320.4,353.9L320.4,353.9z"/>
	<path fill="#1D1D1B" stroke="#1D1D1B" stroke-width="0.33" d="M320.4,353.9c0,0,12.9,4.2,10.9,19.8c0,0-0.4,16.9-10.4,20.9
		c0,0-8.6,4.4-12.3,4c0,0,18.2,2.6,22.3-10.2c0,0,8.6-12.4,5-19.7c-0.1-0.3-2.2-7.4-8.9-12.6C327,356.1,323.3,353.1,320.4,353.9
		L320.4,353.9z"/>
	<path fill="#1D1D1B" d="M335.7,386.4c0,0,0.4,3.6-1.8,3.6c0,0,0.5,2.3,1.2,3.1c0.7,0.8,2.3,0.5,2.6-1
		C337.7,392.1,336.2,390.5,335.7,386.4L335.7,386.4z"/>
	<path fill="#1D1D1B" stroke="#1D1D1B" stroke-width="0.33" d="M335.7,386.4c0,0,0.4,3.6-1.8,3.6c0,0,0.5,2.3,1.2,3.1
		c0.7,0.8,2.3,0.5,2.6-1C337.7,392.1,336.2,390.5,335.7,386.4L335.7,386.4z"/>
	<path fill="#1D1D1B" d="M334.1,396.9c0,0,2.8,4.1,4.5,1.5c0,0-0.2,2-2.3,5.6c0,0-0.9,3.8,0.1,3.9
		C336.3,408,331.3,408.6,334.1,396.9L334.1,396.9z"/>
	<path fill="#1D1D1B" stroke="#1D1D1B" stroke-width="0.33" d="M334.1,396.9c0,0,2.8,4.1,4.5,1.5c0,0-0.2,2-2.3,5.6
		c0,0-0.9,3.8,0.1,3.9C336.3,408,331.3,408.6,334.1,396.9L334.1,396.9z"/>
	<path fill="#1D1D1B" d="M304.9,400.3c0,0,6.7,4.9,12.3,0.9c0,0-0.8,2.7-0.1,5.1c0,0-5.8,1.6-10.3-1.4L304.9,400.3L304.9,400.3z"/>
	<path fill="#1D1D1B" stroke="#1D1D1B" stroke-width="0.33" d="M304.9,400.3c0,0,6.7,4.9,12.3,0.9c0,0-0.8,2.7-0.1,5.1
		c0,0-5.8,1.6-10.3-1.4L304.9,400.3L304.9,400.3z"/>
	<path fill="#1D1D1B" d="M308.3,409.6c0,0,1.2,3.8,6.2,1.2c0,0-2.9,3.2-3,3.6c0,0-4.6,0.6-4.5-1.8
		C307.1,412.7,308.1,411.9,308.3,409.6L308.3,409.6z"/>
	<path fill="#1D1D1B" stroke="#1D1D1B" stroke-width="0.33" d="M308.3,409.6c0,0,1.2,3.8,6.2,1.2c0,0-2.9,3.2-3,3.6
		c0,0-4.6,0.6-4.5-1.8C307.1,412.7,308.1,411.9,308.3,409.6L308.3,409.6z"/>
	<path fill="#1D1D1B" d="M305.3,415.5c0,0,0.3,3.3,4.1,2.1c0,0-1.1,2.3-1.2,2.4s-4.8,0.7-4.7-1.7L305.3,415.5L305.3,415.5z"/>
	<path fill="#1D1D1B" stroke="#1D1D1B" stroke-width="0.33" d="M305.3,415.5c0,0,0.3,3.3,4.1,2.1c0,0-1.1,2.3-1.2,2.4
		s-4.8,0.7-4.7-1.7L305.3,415.5L305.3,415.5z"/>
	<path fill="#1D1D1B" d="M300.5,421.1c0,0,4.1,0.2,4.6,2.3c0,0,0,4.6-3.7,5.3c0,0-7.8,1.8-6.8-1.2c0.1-0.3,1.5-2.7,5.5-4.9
		C300,422.6,300,421.3,300.5,421.1L300.5,421.1z"/>
	<path fill="#1D1D1B" stroke="#1D1D1B" stroke-width="0.33" d="M300.5,421.1c0,0,4.1,0.2,4.6,2.3c0,0,0,4.6-3.7,5.3
		c0,0-7.8,1.8-6.8-1.2c0.1-0.3,1.5-2.7,5.5-4.9C300,422.6,300,421.3,300.5,421.1L300.5,421.1z"/>
	<path fill="#1D1D1B" d="M329,396.5c0,0-8.3,6.9-11.3,5.5l2.9,3.9c0,0,8.6-1.5,10.5-5.3C331.1,400.5,329.4,398.3,329,396.5
		L329,396.5z"/>
	<path fill="#1D1D1B" stroke="#1D1D1B" stroke-width="0.33" d="M329,396.5c0,0-8.3,6.9-11.3,5.5l2.9,3.9c0,0,8.6-1.5,10.5-5.3
		C331.1,400.5,329.4,398.3,329,396.5L329,396.5z"/>
	<path fill="#1D1D1B" d="M330.4,407.1c0,0-6.9,3.7-7.9,2.7c0,0-0.1,2.4-0.2,2.8c0,0,3.2,1.4,5.4-0.3
		C327.7,412.3,328.3,409.2,330.4,407.1L330.4,407.1z"/>
	<path fill="#1D1D1B" stroke="#1D1D1B" stroke-width="0.33" d="M330.4,407.1c0,0-6.9,3.7-7.9,2.7c0,0-0.1,2.4-0.2,2.8
		c0,0,3.2,1.4,5.4-0.3C327.7,412.3,328.3,409.2,330.4,407.1L330.4,407.1z"/>
	<path fill="#1D1D1B" d="M321.7,416.3c0,0,3,2.3,4.6,0.7l-0.8,3.5c0,0-4.4,0.9-4.7-0.6L321.7,416.3L321.7,416.3z"/>
	<path fill="#1D1D1B" stroke="#1D1D1B" stroke-width="0.33" d="M321.7,416.3c0,0,3,2.3,4.6,0.7l-0.8,3.5c0,0-4.4,0.9-4.7-0.6
		L321.7,416.3L321.7,416.3z"/>
	<path fill="#1D1D1B" d="M317.2,425.9c0,0,4.8-3.4,7.3,0.4c0,0-1.8,1-1.2,3.2c0,0-2.9,6.9-8.8,6.2c0,0-4,0.5-1.3-4.1
		c0,0,2.8-4.1,4-4.7V425.9L317.2,425.9z"/>
	<path fill="#1D1D1B" stroke="#1D1D1B" stroke-width="0.33" d="M317.2,425.9c0,0,4.8-3.4,7.3,0.4c0,0-1.8,1-1.2,3.2
		c0,0-2.9,6.9-8.8,6.2c0,0-4,0.5-1.3-4.1c0,0,2.8-4.1,4-4.7V425.9L317.2,425.9z"/>
</g>
</svg>
