<?xml version="1.0" encoding="utf-8"?>
<!-- Generator: Adobe Illustrator 18.0.0, SVG Export Plug-In . SVG Version: 6.00 Build 0)  -->
<!DOCTYPE svg PUBLIC "-//W3C//DTD SVG 1.1//EN" "http://www.w3.org/Graphics/SVG/1.1/DTD/svg11.dtd">
<svg version="1.1" id="Calque_1" xmlns="http://www.w3.org/2000/svg" xmlns:xlink="http://www.w3.org/1999/xlink" x="0px" y="0px"
	 viewBox="0 0 841.9 595.3" enable-background="new 0 0 841.9 595.3" xml:space="preserve">
<g>
	<path fill="#003552" stroke="#003552" stroke-width="0.75" d="M410.3,296.2c0.5,1.3,1.3,2.7,4.2,3.3c0.8,0.1,1.7,0.2,2.5,0.2
		c3.6,0,6.1-1.4,6.1-3.5c0-2-2-2.4-5.3-2.8c-1-0.1-1.9-0.2-2.9-0.4c-1.3-0.2-2.3-0.4-3.2-0.8c-1.2-0.6-1.9-1.6-1.9-2.9
		c0-2.3,2.3-4.5,7.1-4.5c3,0,5.5,0.8,7.3,3l-1.4,0.8c-0.5-0.6-1.8-2.5-6-2.5c-3.3,0-5.4,1.3-5.4,3.1c0,1.3,1.3,1.8,2.2,2
		c0.8,0.1,4.5,0.6,5.3,0.8c1.4,0.2,2.6,0.4,3.5,0.8c1.3,0.6,2.3,1.7,2.3,3.3c0,0.8-0.3,1.6-0.7,2.3c-0.8,1.1-2.5,2.8-6.9,2.8
		c-2.8,0-4.2-0.4-5.4-1.1c-2-1-2.5-2.1-3.1-3.3L410.3,296.2z"/>
	<path fill="#003552" stroke="#003552" stroke-width="0.75" d="M444.1,296.5c-0.3,0.5-0.6,0.9-1.1,1.5c-2,2.3-4.6,3.1-7.1,3.1
		c-6.2,0-8.8-4.5-8.8-8.2c0-4.7,3.8-8.2,8.8-8.2c1.7,0,3.3,0.4,4.6,1.1c1.8,1,2.5,2.2,3.2,3.2l-1.3,0.7c-0.3-0.4-0.4-0.8-0.8-1.3
		c-1.3-1.6-3.4-2.3-5.4-2.3c-4.2,0-7.2,2.9-7.2,6.9c0,3.6,2.7,6.8,7.2,6.8c4.3,0,6.1-2.8,6.7-3.9L444.1,296.5z"/>
	<path fill="#003552" stroke="#003552" stroke-width="0.75" d="M448,285.2v6.6h13.1v-6.6h1.5v15.6h-1.5v-7.6H448v7.6h-1.5v-15.6H448
		z"/>
	<path fill="#003552" stroke="#003552" stroke-width="0.75" d="M469.1,285.2l5.9,12.6c0.4,0.8,0.4,1,0.7,1.6l6.6-14.3h1.9v15.6h-1.4
		v-13.9c-0.1,0.4-0.2,0.6-0.5,1.1l-5.9,12.8h-1.5L469,288c-0.2-0.5-0.3-0.6-0.5-1.1v13.9h-1.4v-15.6H469.1L469.1,285.2z"/>
	<path fill="#003552" stroke="#003552" stroke-width="0.75" d="M488.7,285.2h14.9v1.3h-13.4v5.4h12.4v1.3h-12.4v6.2h14v1.3h-15.6
		V285.2z"/>
	<path fill="#003552" stroke="#003552" stroke-width="0.75" d="M524.1,285.2v15.6h-1.4l-13.3-13.6v13.6h-1.4v-15.6h1.4l13.3,13.6
		v-13.6H524.1z"/>
	<path fill="#003552" stroke="#003552" stroke-width="0.75" d="M543.1,297.5c-0.2,0.4-0.6,1.1-1.5,1.8c-0.8,0.7-2.8,1.8-5.6,1.8
		c-5.2,0-8.8-3.4-8.8-8.1c0-4.7,3.5-8.3,8.8-8.3c2.1,0,4.2,0.6,5.8,1.7c1.1,0.8,1.7,1.7,2.1,2.4l-1.5,0.8c-0.3-0.5-0.6-1.1-1.3-1.8
		c-1.4-1.3-3.3-1.8-5.2-1.8c-4.3,0-7.1,3-7.1,6.9c0,4,2.8,6.9,7.3,6.9c1.8,0,3.7-0.6,5-1.8c1.6-1.5,1.8-3.1,1.8-4h-8.3v-1.3h9.6v8.1
		h-1.3v-3.2H543.1z"/>
	<path fill="#003552" stroke="#003552" stroke-width="0.75" d="M548.8,285.2h14.9v1.3h-13.4v5.4h12.4v1.3h-12.4v6.2h14v1.3h-15.6
		V285.2z"/>
	<path fill="#003552" stroke="#003552" stroke-width="0.75" d="M578.9,285.2c1.1,0,2.3,0,3.4,0.6c1.2,0.7,2,2.1,2,3.7
		c0,1.1-0.4,2.4-1.5,3.3c-1.2,0.9-2.8,1-4,1.1l6.2,6.9h-2.1l-6.2-6.9h-7.1v6.9h-1.5v-15.6H578.9z M569.6,292.4h8.3
		c1.6,0,3-0.1,3.9-1c0.5-0.6,0.8-1.4,0.8-2.1c0-1-0.5-1.8-1.1-2.3c-0.8-0.6-1.8-0.6-2.6-0.6h-9.3L569.6,292.4L569.6,292.4z"/>
</g>
<g>
	<path fill="#003552" stroke="#003552" stroke-width="0.5" d="M409.4,313.3c0.3,0.7,0.8,1.5,2.5,1.8c0.5,0.1,1.1,0.1,1.6,0.1
		c2.2,0,3.7-0.8,3.7-1.9c0-1.1-1.2-1.3-3.2-1.6c-0.6-0.1-1.1-0.1-1.8-0.2c-0.8-0.1-1.4-0.2-1.9-0.4c-0.7-0.3-1.1-0.8-1.1-1.6
		c0-1.3,1.3-2.5,4.3-2.5c1.8,0,3.3,0.5,4.4,1.7l-0.8,0.4c-0.3-0.4-1.1-1.3-3.6-1.3c-2,0-3.3,0.7-3.3,1.7c0,0.7,0.8,1,1.3,1.1
		c0.4,0.1,2.7,0.4,3.2,0.4c0.8,0.1,1.6,0.2,2.1,0.4c0.8,0.4,1.3,0.9,1.3,1.8c0,0.4-0.1,0.9-0.4,1.2c-0.4,0.6-1.6,1.5-4.2,1.5
		c-1.7,0-2.5-0.2-3.3-0.6c-1.2-0.6-1.5-1.1-1.8-1.8L409.4,313.3z"/>
	<path fill="#003552" stroke="#003552" stroke-width="0.5" d="M430.2,313.5c-0.1,0.3-0.4,0.5-0.6,0.8c-1.2,1.3-2.8,1.7-4.2,1.7
		c-3.7,0-5.2-2.5-5.2-4.5c0-2.5,2.3-4.5,5.2-4.5c1,0,2,0.2,2.8,0.6c1.1,0.6,1.6,1.2,1.9,1.7l-0.8,0.4c-0.1-0.2-0.3-0.4-0.5-0.7
		c-0.8-0.9-2.1-1.3-3.3-1.3c-2.5,0-4.3,1.6-4.3,3.7c0,2,1.6,3.7,4.3,3.7c2.6,0,3.6-1.6,4-2.1L430.2,313.5z"/>
	<path fill="#003552" stroke="#003552" stroke-width="0.5" d="M433.2,307.3v3.6h7.8v-3.6h0.9v8.5h-0.9v-4.2h-7.8v4.2h-0.9v-8.5
		H433.2z"/>
	<path fill="#003552" stroke="#003552" stroke-width="0.5" d="M445.2,307.3h0.8v5c-0.1,2.2,1.4,2.9,3.9,2.9c2.8,0,3.9-0.9,3.9-3
		v-4.9h0.8v5c0,2.5-1.6,3.7-4.7,3.7c-3.2,0-4.7-1.1-4.7-3.6V307.3z"/>
	<path fill="#003552" stroke="#003552" stroke-width="0.5" d="M459.2,307.3v3.6h7.8v-3.6h0.9v8.5H467v-4.2h-7.8v4.2h-0.9v-8.5H459.2
		z"/>
	<path fill="#003552" stroke="#003552" stroke-width="0.5" d="M472.4,307.3l3.5,6.9c0.2,0.4,0.3,0.6,0.4,0.9l4-7.8h1.1v8.5h-0.8
		v-7.5c-0.1,0.2-0.1,0.3-0.3,0.6l-3.5,6.9h-0.9l-3.5-6.9c-0.1-0.3-0.1-0.4-0.3-0.6v7.6h-0.8v-8.5H472.4z"/>
	<path fill="#003552" stroke="#003552" stroke-width="0.5" d="M488.8,307.3l4.7,8.5h-1l-1.2-2.2h-6l-1.2,2.2h-0.9l4.6-8.5H488.8z
		 M488.3,308.1l-2.6,4.9h5.3L488.3,308.1z"/>
	<path fill="#003552" stroke="#003552" stroke-width="0.5" d="M505,307.3v8.5h-0.8l-8-7.4v7.4h-0.8v-8.5h0.8l8,7.4v-7.4H505z"/>
	<path fill="#003552" stroke="#003552" stroke-width="0.5" d="M508.2,307.3h0.8v5c-0.1,2.2,1.4,2.9,3.9,2.9c2.8,0,3.9-0.9,3.9-3
		v-4.9h0.8v5c0,2.5-1.6,3.7-4.7,3.7c-3.2,0-4.7-1.1-4.7-3.6V307.3z"/>
	<path fill="#003552" stroke="#003552" stroke-width="0.5" d="M521.3,307.3h8.6v0.7h-7.7v3h6.9v0.7h-6.9v4h-0.9V307.3L521.3,307.3z"
		/>
	<path fill="#003552" stroke="#003552" stroke-width="0.5" d="M535.3,307.3l4.7,8.5h-1l-1.2-2.2h-6l-1.2,2.2h-0.9l4.6-8.5H535.3z
		 M534.8,308.1l-2.6,4.9h5.3L534.8,308.1z"/>
	<path fill="#003552" stroke="#003552" stroke-width="0.5" d="M549.6,307.3h1.3l-4.4,3.3l4.7,5.2h-1.3l-4.2-4.7l-3.1,2.3v2.4h-0.9
		v-8.5h0.9v5.2L549.6,307.3z"/>
	<path fill="#003552" stroke="#003552" stroke-width="0.5" d="M551.7,307.3h9.1v0.7h-4v7.8h-0.9V308h-4.2L551.7,307.3L551.7,307.3z"
		/>
	<path fill="#003552" stroke="#003552" stroke-width="0.5" d="M562.5,307.3h0.8v5c-0.1,2.2,1.4,2.9,3.9,2.9c2.8,0,3.9-0.9,3.9-3
		v-4.9h0.8v5c0,2.5-1.6,3.7-4.7,3.7c-3.2,0-4.7-1.1-4.7-3.6V307.3z"/>
	<path fill="#003552" stroke="#003552" stroke-width="0.5" d="M582,307.3c0.6,0,1.4,0,2.1,0.4c0.7,0.4,1.2,1.1,1.2,2
		c0,0.6-0.2,1.3-0.9,1.8c-0.7,0.5-1.7,0.6-2.4,0.6l3.7,3.7h-1.3l-3.7-3.7h-4.2v3.7h-0.9v-8.5L582,307.3L582,307.3z M576.4,311.3h5
		c0.9,0,1.8,0,2.3-0.6c0.3-0.3,0.4-0.8,0.4-1.1c0-0.6-0.3-1-0.6-1.3c-0.5-0.4-1.1-0.4-1.6-0.4h-5.6L576.4,311.3L576.4,311.3z"/>
</g>
<g>
	<path fill="#003552" stroke="#003552" stroke-width="0.75" d="M267.5,284.9h2.1l-7.6,6.2l8.1,9.9H268l-7.2-9l-5.4,4.4v4.6h-1.6
		v-16.1h1.6v9.8L267.5,284.9z"/>
	<path fill="#003552" stroke="#003552" stroke-width="0.75" d="M272.5,284.9H288v1.3h-13.9v5.7h12.9v1.3h-12.9v6.4h14.6v1.3h-16.1
		V284.9z"/>
	<path fill="#003552" stroke="#003552" stroke-width="0.75" d="M309.3,284.9v16.2h-1.4L293.9,287v14.1h-1.4v-16.1h1.4l13.9,14.1
		v-14.1H309.3z"/>
	<path fill="#003552" stroke="#003552" stroke-width="0.75" d="M330.7,284.9v16.2h-1.4l-13.9-14.1v14.1H314v-16.2h1.4l13.9,14.1
		v-14.1H330.7z"/>
	<path fill="#003552" stroke="#003552" stroke-width="0.75" d="M335.4,284.9h15.5v1.3h-13.9v5.7h12.9v1.3h-12.9v6.4h14.6v1.3h-16.1
		L335.4,284.9L335.4,284.9z"/>
	<path fill="#003552" stroke="#003552" stroke-width="0.75" d="M357.1,284.9v14.8h11.8v1.3h-13.4v-16.1H357.1z"/>
</g>
<g id="logo_und">
	<path fill="#003552" d="M386.1,299.5c-1.1,0-1.9-0.3-2.5-0.9s-0.9-1.5-0.9-2.5c0-1.5,0.9-2.8,2.8-4.2l4.7,5.4
		C388.8,298.8,387.5,299.5,386.1,299.5L386.1,299.5z M388.6,288.4c-0.4,0.6-0.9,1.1-1.6,1.5c-0.9-1.1-1.4-2-1.4-2.8
		c0-0.6,0.2-1.2,0.6-1.6c0.4-0.4,0.8-0.6,1.2-0.6c0.6,0,1,0.2,1.3,0.6c0.3,0.4,0.5,0.8,0.5,1.6C389.2,287.3,389,287.8,388.6,288.4z
		 M399.3,289.3c-0.4,0-0.9,0-1.6,0.1c-0.8,0.1-1.5,0.1-2.1,0.1c-0.6,0-1.3,0-2.3-0.1c-0.7-0.1-1.3-0.1-1.7-0.1
		c-0.1,0-0.2,0.1-0.2,0.4c0,0.2,0.1,0.4,0.2,0.4c0.8,0.1,1.5,0.2,1.8,0.4c0.4,0.2,0.6,0.4,0.6,0.8c0,0.4-0.1,0.8-0.4,1.3
		c-0.3,0.5-0.9,1.3-2,2.7l-4.2-4.8c1.1-0.6,2-1.3,2.5-1.9c0.5-0.6,0.8-1.2,0.8-1.8c0-0.8-0.4-1.5-1-2.1c-0.6-0.6-1.5-0.8-2.5-0.8
		c-1.1,0-2.1,0.4-2.8,1.2c-0.8,0.8-1.1,1.8-1.1,2.9c0,0.6,0.1,1.1,0.3,1.5c0.2,0.5,0.6,1,1.1,1.6c-3.3,1.5-4.9,3.3-4.9,5.3
		c0,1.3,0.5,2.4,1.4,3.3s2.1,1.4,3.4,1.4c1.2,0,2.3-0.3,3.2-0.8c0.9-0.5,1.8-1.3,2.8-2.5c1.1,1.3,2.1,2.3,2.8,2.7
		c0.7,0.4,1.4,0.6,2.2,0.6c0.6,0,1.2-0.1,1.7-0.3c0.5-0.2,1-0.5,1.4-1c0.4-0.4,0.7-0.7,0.7-0.8c0-0.1-0.1-0.2-0.1-0.4
		c-0.1-0.1-0.1-0.1-0.3-0.1h-0.1c-0.6,0.6-1.3,0.9-2.1,0.9c-0.6,0-1.1-0.2-1.7-0.7c-0.6-0.4-1.6-1.4-2.9-3l3.2-3.9
		c0.5-0.6,1-1,1.6-1.3c0.6-0.3,1.3-0.5,2.3-0.6c0.1,0,0.2-0.1,0.2-0.4C399.6,289.5,399.5,289.3,399.3,289.3L399.3,289.3z"/>
</g>
<circle fill="none" stroke="#003552" stroke-width="1.4" cx="388.5" cy="293.2" r="15.6"/>
</svg>
