<?xml version="1.0" encoding="utf-8"?>
<!-- Generator: Adobe Illustrator 16.0.0, SVG Export Plug-In . SVG Version: 6.00 Build 0)  -->
<!DOCTYPE svg PUBLIC "-//W3C//DTD SVG 1.1//EN" "http://www.w3.org/Graphics/SVG/1.1/DTD/svg11.dtd">
<svg version="1.1" id="Calque_1" xmlns="http://www.w3.org/2000/svg" xmlns:xlink="http://www.w3.org/1999/xlink" x="0px" y="0px"
	 width="960px" height="960px" viewBox="0 0 960 960" enable-background="new 0 0 960 960" xml:space="preserve">
<g>
	<path fill="#003552" stroke="#003552" stroke-width="0.75" d="M467.856,478.347c0.569,1.482,1.481,3.079,4.789,3.763
		c0.912,0.114,1.938,0.229,2.851,0.229c4.104,0,6.955-1.597,6.955-3.991c0-2.28-2.28-2.736-6.043-3.192
		c-1.141-0.114-2.167-0.229-3.307-0.457c-1.482-0.228-2.623-0.456-3.649-0.912c-1.368-0.684-2.166-1.824-2.166-3.307
		c0-2.622,2.622-5.131,8.096-5.131c3.421,0,6.271,0.912,8.324,3.421l-1.597,0.912c-0.57-0.685-2.053-2.851-6.842-2.851
		c-3.763,0-6.157,1.482-6.157,3.534c0,1.482,1.482,2.053,2.509,2.281c0.912,0.114,5.131,0.684,6.043,0.912
		c1.597,0.228,2.965,0.456,3.991,0.912c1.482,0.685,2.623,1.938,2.623,3.763c0,0.912-0.343,1.824-0.799,2.623
		c-0.912,1.254-2.851,3.192-7.867,3.192c-3.193,0-4.79-0.456-6.158-1.254c-2.28-1.141-2.851-2.395-3.534-3.763L467.856,478.347z"/>
	<path fill="#003552" stroke="#003552" stroke-width="0.75" d="M506.397,478.688c-0.342,0.57-0.685,1.026-1.254,1.711
		c-2.281,2.622-5.246,3.534-8.097,3.534c-7.069,0-10.034-5.131-10.034-9.35c0-5.359,4.333-9.351,10.034-9.351
		c1.938,0,3.764,0.456,5.245,1.254c2.053,1.141,2.852,2.509,3.649,3.649l-1.482,0.798c-0.342-0.456-0.456-0.912-0.912-1.482
		c-1.482-1.824-3.877-2.622-6.157-2.622c-4.79,0-8.21,3.307-8.21,7.867c0,4.105,3.078,7.754,8.21,7.754
		c4.903,0,6.955-3.192,7.64-4.446L506.397,478.688z"/>
	<path fill="#003552" stroke="#003552" stroke-width="0.75" d="M510.845,465.804v7.525h14.938v-7.525h1.71v17.788h-1.71v-8.666
		h-14.938v8.666h-1.711v-17.788H510.845z"/>
	<path fill="#003552" stroke="#003552" stroke-width="0.75" d="M534.904,465.804l6.728,14.367c0.456,0.912,0.456,1.141,0.798,1.824
		l7.526-16.306h2.167v17.788h-1.597v-15.85c-0.114,0.456-0.229,0.685-0.57,1.255l-6.728,14.595h-1.711l-6.728-14.481
		c-0.228-0.57-0.342-0.684-0.569-1.254v15.85h-1.597v-17.788H534.904L534.904,465.804z"/>
	<path fill="#003552" stroke="#003552" stroke-width="0.75" d="M557.254,465.804h16.99v1.482h-15.28v6.157h14.14v1.482h-14.14v7.069
		h15.964v1.482H557.14v-17.674H557.254z"/>
	<path fill="#003552" stroke="#003552" stroke-width="0.75" d="M597.619,465.804v17.788h-1.596l-15.166-15.508v15.508h-1.597
		v-17.788h1.597l15.166,15.508v-15.508H597.619z"/>
	<path fill="#003552" stroke="#003552" stroke-width="0.75" d="M619.285,479.829c-0.229,0.456-0.685,1.254-1.711,2.053
		c-0.912,0.798-3.192,2.052-6.385,2.052c-5.93,0-10.035-3.877-10.035-9.236s3.991-9.464,10.035-9.464
		c2.395,0,4.789,0.685,6.613,1.938c1.254,0.912,1.938,1.938,2.395,2.736l-1.711,0.912c-0.342-0.569-0.684-1.254-1.482-2.052
		c-1.596-1.482-3.763-2.053-5.929-2.053c-4.903,0-8.097,3.421-8.097,7.868c0,4.561,3.193,7.867,8.324,7.867
		c2.053,0,4.219-0.684,5.701-2.052c1.825-1.711,2.053-3.535,2.053-4.562h-9.464v-1.482h10.946v9.236h-1.482v-3.648h0.229V479.829z"
		/>
	<path fill="#003552" stroke="#003552" stroke-width="0.75" d="M625.784,465.804h16.99v1.482h-15.279v6.157h14.14v1.482h-14.14
		v7.069h15.964v1.482h-17.788v-17.674H625.784z"/>
	<path fill="#003552" stroke="#003552" stroke-width="0.75" d="M660.107,465.804c1.254,0,2.622,0,3.877,0.684
		c1.368,0.799,2.28,2.396,2.28,4.22c0,1.254-0.456,2.736-1.711,3.763c-1.368,1.026-3.192,1.141-4.561,1.254l7.069,7.868h-2.395
		l-7.069-7.868h-8.097v7.868h-1.71v-17.788H660.107z M649.502,474.014h9.465c1.824,0,3.421-0.114,4.447-1.141
		c0.569-0.684,0.912-1.596,0.912-2.395c0-1.14-0.57-2.053-1.255-2.622c-0.912-0.685-2.052-0.685-2.964-0.685h-10.605V474.014
		L649.502,474.014z"/>
</g>
<g>
	<path fill="#003552" stroke="#003552" stroke-width="0.5" d="M466.83,497.846c0.342,0.798,0.912,1.71,2.851,2.052
		c0.57,0.114,1.254,0.114,1.824,0.114c2.509,0,4.219-0.912,4.219-2.166c0-1.255-1.368-1.482-3.648-1.825
		c-0.685-0.113-1.255-0.113-2.053-0.228c-0.912-0.114-1.597-0.229-2.166-0.456c-0.799-0.342-1.255-0.912-1.255-1.824
		c0-1.482,1.482-2.852,4.903-2.852c2.053,0,3.763,0.57,5.018,1.938l-0.912,0.457c-0.343-0.457-1.255-1.482-4.105-1.482
		c-2.28,0-3.763,0.798-3.763,1.938c0,0.798,0.912,1.14,1.482,1.254c0.456,0.114,3.078,0.456,3.648,0.456
		c0.912,0.114,1.824,0.229,2.395,0.456c0.912,0.456,1.482,1.026,1.482,2.053c0,0.456-0.114,1.026-0.456,1.368
		c-0.456,0.685-1.824,1.711-4.789,1.711c-1.938,0-2.851-0.229-3.763-0.685c-1.368-0.685-1.711-1.255-2.053-2.053L466.83,497.846z"/>
	<path fill="#003552" stroke="#003552" stroke-width="0.5" d="M490.548,498.073c-0.114,0.342-0.456,0.57-0.685,0.912
		c-1.368,1.482-3.192,1.938-4.789,1.938c-4.219,0-5.93-2.851-5.93-5.131c0-2.851,2.623-5.131,5.93-5.131
		c1.141,0,2.28,0.228,3.192,0.684c1.255,0.685,1.825,1.368,2.167,1.938l-0.912,0.456c-0.114-0.228-0.342-0.456-0.57-0.798
		c-0.912-1.026-2.395-1.482-3.763-1.482c-2.851,0-4.903,1.824-4.903,4.219c0,2.28,1.824,4.219,4.903,4.219
		c2.965,0,4.104-1.824,4.561-2.395L490.548,498.073z"/>
	<path fill="#003552" stroke="#003552" stroke-width="0.5" d="M493.969,491.004v4.104h8.894v-4.104h1.026v9.692h-1.026v-4.789
		h-8.894v4.789h-1.026v-9.692H493.969z"/>
	<path fill="#003552" stroke="#003552" stroke-width="0.5" d="M507.651,491.004h0.913v5.701c-0.114,2.509,1.596,3.307,4.446,3.307
		c3.193,0,4.447-1.026,4.447-3.421v-5.587h0.912v5.701c0,2.851-1.824,4.219-5.359,4.219c-3.648,0-5.359-1.254-5.359-4.104V491.004
		L507.651,491.004z"/>
	<path fill="#003552" stroke="#003552" stroke-width="0.5" d="M523.615,491.004v4.104h8.895v-4.104h1.026v9.692h-1.026v-4.789
		h-8.895v4.789h-1.025v-9.692H523.615z"/>
	<path fill="#003552" stroke="#003552" stroke-width="0.5" d="M538.667,491.004l3.991,7.867c0.229,0.457,0.342,0.685,0.456,1.026
		l4.562-8.894h1.254v9.692h-0.912v-8.553c-0.114,0.229-0.114,0.343-0.342,0.685l-3.991,7.868h-1.026l-3.991-7.868
		c-0.113-0.342-0.113-0.456-0.342-0.685v8.667h-0.912v-9.692h1.254V491.004z"/>
	<path fill="#003552" stroke="#003552" stroke-width="0.5" d="M557.368,491.004l5.359,9.692h-1.141l-1.368-2.509h-6.842
		l-1.368,2.509h-1.026l5.245-9.692H557.368z M556.798,491.916l-2.965,5.587h6.044L556.798,491.916z"/>
	<path fill="#003552" stroke="#003552" stroke-width="0.5" d="M575.84,491.004v9.692h-0.912l-9.122-8.438v8.438h-0.912v-9.692h0.912
		l9.122,8.438v-8.438H575.84z"/>
	<path fill="#003552" stroke="#003552" stroke-width="0.5" d="M579.489,491.004h0.912v5.701c-0.114,2.509,1.597,3.307,4.447,3.307
		c3.192,0,4.447-1.026,4.447-3.421v-5.587h0.912v5.701c0,2.851-1.824,4.219-5.359,4.219c-3.649,0-5.359-1.254-5.359-4.104V491.004z"
		/>
	<path fill="#003552" stroke="#003552" stroke-width="0.5" d="M594.427,491.004h9.807v0.798h-8.78v3.421h7.868v0.798h-7.868v4.562
		h-1.026V491.004L594.427,491.004z"/>
	<path fill="#003552" stroke="#003552" stroke-width="0.5" d="M610.391,491.004l5.359,9.692h-1.141l-1.368-2.509h-6.842
		l-1.368,2.509h-1.026l5.245-9.692H610.391z M609.82,491.916l-2.965,5.587h6.044L609.82,491.916z"/>
	<path fill="#003552" stroke="#003552" stroke-width="0.5" d="M626.696,491.004h1.482l-5.017,3.763l5.359,5.93h-1.482l-4.789-5.359
		l-3.535,2.622v2.737h-1.026v-9.692h1.026v5.93L626.696,491.004z"/>
	<path fill="#003552" stroke="#003552" stroke-width="0.5" d="M629.092,491.004h10.376v0.798h-4.562v8.895h-1.025v-8.895h-4.789
		V491.004L629.092,491.004z"/>
	<path fill="#003552" stroke="#003552" stroke-width="0.5" d="M641.406,491.004h0.912v5.701c-0.113,2.509,1.597,3.307,4.447,3.307
		c3.192,0,4.447-1.026,4.447-3.421v-5.587h0.912v5.701c0,2.851-1.824,4.219-5.359,4.219c-3.648,0-5.359-1.254-5.359-4.104V491.004z"
		/>
	<path fill="#003552" stroke="#003552" stroke-width="0.5" d="M663.642,491.004c0.685,0,1.597,0,2.395,0.456s1.368,1.254,1.368,2.28
		c0,0.685-0.228,1.482-1.025,2.053c-0.799,0.57-1.939,0.684-2.737,0.684l4.219,4.22h-1.481l-4.22-4.22h-4.789v4.22h-1.026v-9.692
		H663.642L663.642,491.004z M657.256,495.564h5.702c1.026,0,2.052,0,2.622-0.684c0.342-0.343,0.456-0.912,0.456-1.255
		c0-0.684-0.342-1.14-0.684-1.482c-0.57-0.456-1.255-0.456-1.825-0.456h-6.385L657.256,495.564L657.256,495.564z"/>
</g>
<g>
	<path fill="#003552" stroke="#003552" stroke-width="0.75" d="M305.024,465.462h2.395l-8.666,7.069l9.236,11.289h-2.395
		l-8.21-10.263l-6.157,5.017v5.246h-1.825v-18.358h1.825v11.174L305.024,465.462z"/>
	<path fill="#003552" stroke="#003552" stroke-width="0.75" d="M310.726,465.462H328.4v1.481H312.55v6.5h14.71v1.482h-14.71v7.298
		h16.648v1.482H310.84v-18.244H310.726z"/>
	<path fill="#003552" stroke="#003552" stroke-width="0.75" d="M352.688,465.462v18.472h-1.596l-15.964-16.077v16.077h-1.597
		v-18.358h1.597l15.85,16.078v-16.078h1.71V465.462z"/>
	<path fill="#003552" stroke="#003552" stroke-width="0.75" d="M377.09,465.462v18.472h-1.597l-15.85-16.077v16.077h-1.597v-18.472
		h1.597l15.85,16.077v-16.077H377.09z"/>
	<path fill="#003552" stroke="#003552" stroke-width="0.75" d="M382.449,465.462h17.674v1.481h-15.85v6.5h14.71v1.482h-14.71v7.298
		h16.648v1.482h-18.358L382.449,465.462L382.449,465.462z"/>
	<path fill="#003552" stroke="#003552" stroke-width="0.75" d="M407.193,465.462v16.876h13.455v1.482h-15.279v-18.359
		L407.193,465.462L407.193,465.462z"/>
</g>
<g id="logo_und">
	<path fill="#003552" d="M440.262,482.109c-1.255,0-2.167-0.342-2.852-1.026c-0.684-0.684-1.025-1.71-1.025-2.851
		c0-1.71,1.025-3.192,3.192-4.789l5.359,6.157C443.34,481.312,441.857,482.109,440.262,482.109L440.262,482.109z M443.112,469.452
		c-0.456,0.685-1.026,1.255-1.825,1.711c-1.025-1.255-1.596-2.281-1.596-3.193c0-0.684,0.228-1.368,0.684-1.824
		s0.912-0.684,1.369-0.684c0.684,0,1.14,0.228,1.482,0.684c0.342,0.456,0.569,0.912,0.569,1.824
		C443.796,468.198,443.568,468.769,443.112,469.452z M455.312,470.479c-0.456,0-1.025,0-1.824,0.114
		c-0.912,0.114-1.71,0.114-2.395,0.114c-0.684,0-1.482,0-2.622-0.114c-0.799-0.114-1.482-0.114-1.938-0.114
		c-0.114,0-0.229,0.114-0.229,0.456c0,0.229,0.114,0.456,0.229,0.456c0.912,0.114,1.71,0.229,2.052,0.456
		c0.456,0.229,0.685,0.456,0.685,0.912s-0.114,0.913-0.456,1.482c-0.342,0.57-1.026,1.482-2.28,3.079l-4.789-5.474
		c1.254-0.684,2.28-1.482,2.851-2.166c0.569-0.685,0.912-1.368,0.912-2.053c0-0.912-0.456-1.71-1.141-2.395s-1.71-0.912-2.851-0.912
		c-1.254,0-2.395,0.456-3.193,1.368c-0.912,0.912-1.254,2.053-1.254,3.307c0,0.685,0.114,1.255,0.342,1.711
		c0.229,0.57,0.685,1.14,1.255,1.824c-3.763,1.71-5.588,3.763-5.588,6.043c0,1.482,0.57,2.737,1.597,3.764s2.395,1.596,3.877,1.596
		c1.368,0,2.623-0.342,3.648-0.912c1.026-0.57,2.053-1.482,3.193-2.851c1.254,1.482,2.395,2.623,3.192,3.079
		c0.799,0.456,1.597,0.684,2.509,0.684c0.685,0,1.368-0.113,1.938-0.342c0.57-0.228,1.141-0.57,1.597-1.141
		c0.456-0.456,0.798-0.798,0.798-0.912c0-0.113-0.114-0.228-0.114-0.456c-0.113-0.113-0.113-0.113-0.342-0.113h-0.114
		c-0.684,0.684-1.481,1.025-2.395,1.025c-0.684,0-1.254-0.228-1.938-0.798c-0.684-0.456-1.824-1.597-3.307-3.421l3.649-4.447
		c0.569-0.684,1.14-1.14,1.824-1.482c0.685-0.342,1.482-0.569,2.622-0.684c0.114,0,0.229-0.114,0.229-0.456
		C455.655,470.707,455.541,470.479,455.312,470.479L455.312,470.479z"/>
</g>
<circle fill="none" stroke="#003552" stroke-width="1.4" cx="442.998" cy="474.926" r="17.788"/>
</svg>
