<?xml version="1.0" encoding="utf-8"?>
<!-- Generator: Adobe Illustrator 17.1.0, SVG Export Plug-In . SVG Version: 6.00 Build 0)  -->
<!DOCTYPE svg PUBLIC "-//W3C//DTD SVG 1.1//EN" "http://www.w3.org/Graphics/SVG/1.1/DTD/svg11.dtd">
<svg version="1.1" id="Calque_1" xmlns="http://www.w3.org/2000/svg" xmlns:xlink="http://www.w3.org/1999/xlink" x="0px" y="0px"
	 viewBox="0 0 595.3 841.9" enable-background="new 0 0 595.3 841.9" xml:space="preserve">
<g>
	<path fill="#1D1D1B" stroke="#1D1D1B" stroke-width="0.75" d="M282.6,418.9c0.7,1.8,1.9,3.8,5.9,4.7c1.2,0.2,2.4,0.3,3.6,0.3
		c5.1,0,8.6-2,8.6-5c0-2.8-2.8-3.4-7.5-4c-1.4-0.2-2.7-0.3-4.1-0.5c-1.9-0.3-3.3-0.5-4.5-1.1c-1.7-0.8-2.7-2.2-2.7-4.1
		c0-3.3,3.2-6.4,10.1-6.4c4.2,0,7.8,1.2,10.3,4.3l-2,1.1c-0.7-0.9-2.6-3.5-8.5-3.5c-4.7,0-7.7,1.8-7.7,4.4c0,1.9,1.8,2.6,3.1,2.8
		c1.1,0.2,6.3,0.9,7.5,1.1c2,0.3,3.7,0.6,4.9,1.2c1.9,0.8,3.2,2.4,3.2,4.7c0,1.2-0.4,2.3-1,3.2c-1.1,1.6-3.6,3.9-9.7,3.9
		c-3.9,0-6-0.6-7.7-1.5c-2.8-1.4-3.5-3-4.4-4.6L282.6,418.9z"/>
	<path fill="#1D1D1B" stroke="#1D1D1B" stroke-width="0.75" d="M330.4,419.4c-0.4,0.7-0.8,1.3-1.5,2.1c-2.8,3.3-6.5,4.4-10,4.4
		c-8.8,0-12.4-6.4-12.4-11.6c0-6.7,5.4-11.6,12.4-11.6c2.4,0,4.6,0.6,6.5,1.6c2.5,1.4,3.6,3.1,4.5,4.5l-1.8,1
		c-0.4-0.6-0.6-1.1-1.2-1.8c-1.9-2.3-4.8-3.3-7.7-3.3c-5.9,0-10.2,4.1-10.2,9.8c0,5.1,3.8,9.6,10.2,9.6c6.1,0,8.6-4,9.5-5.5
		L330.4,419.4z"/>
	<path fill="#1D1D1B" stroke="#1D1D1B" stroke-width="0.75" d="M335.9,403.3v9.4h18.5v-9.4h2.1v22h-2.1v-10.7h-18.5v10.7h-2.1v-22
		H335.9z"/>
	<path fill="#1D1D1B" stroke="#1D1D1B" stroke-width="0.75" d="M365.7,403.3l8.4,17.8c0.5,1.1,0.6,1.4,1,2.3l9.3-20.2h2.7v22h-2
		v-19.6c-0.2,0.6-0.3,0.8-0.7,1.5l-8.3,18.1H374l-8.4-17.9c-0.3-0.7-0.4-0.8-0.7-1.6v19.6h-2v-22L365.7,403.3L365.7,403.3z"/>
	<path fill="#1D1D1B" stroke="#1D1D1B" stroke-width="0.75" d="M393.5,403.3h21.1v1.8h-18.9v7.7h17.5v1.8h-17.5v8.8h19.8v1.8h-22
		V403.3z"/>
	<path fill="#1D1D1B" stroke="#1D1D1B" stroke-width="0.75" d="M443.5,403.3v22h-2l-18.8-19.2v19.2h-2v-22h2l18.8,19.3v-19.3H443.5z
		"/>
	<path fill="#1D1D1B" stroke="#1D1D1B" stroke-width="0.75" d="M470.4,420.8c-0.3,0.5-0.8,1.5-2.1,2.5c-1.2,1-4,2.6-7.9,2.6
		c-7.4,0-12.4-4.8-12.4-11.5c0-6.6,4.9-11.7,12.5-11.7c3,0,6,0.8,8.2,2.4c1.6,1.2,2.4,2.4,3,3.4l-2.1,1.2c-0.4-0.7-0.9-1.6-1.9-2.5
		c-2-1.8-4.7-2.6-7.4-2.6c-6.1,0-10.1,4.3-10.1,9.7c0,5.6,4,9.7,10.3,9.7c2.6,0,5.2-0.8,7.1-2.6c2.3-2.1,2.5-4.4,2.6-5.7h-11.7v-1.9
		h13.6v11.5h-1.9v-4.5H470.4z"/>
	<path fill="#1D1D1B" stroke="#1D1D1B" stroke-width="0.75" d="M478.5,403.3h21.1v1.8h-18.9v7.7h17.5v1.8h-17.5v8.8h19.8v1.8h-22
		V403.3z"/>
	<path fill="#1D1D1B" stroke="#1D1D1B" stroke-width="0.75" d="M521,403.3c1.5,0,3.3,0,4.8,0.8c1.7,1,2.8,2.9,2.8,5.2
		c0,1.6-0.5,3.4-2.1,4.7c-1.7,1.3-4,1.4-5.7,1.5l8.8,9.8h-3l-8.7-9.8h-10.1v9.8h-2.1v-22H521z M507.9,413.6h11.8
		c2.2,0,4.2-0.1,5.5-1.4c0.7-0.8,1.1-2,1.1-3c0-1.4-0.7-2.6-1.5-3.2c-1.1-0.9-2.5-0.9-3.7-0.9H508L507.9,413.6L507.9,413.6z"/>
</g>
<g>
	<path fill="#1D1D1B" stroke="#1D1D1B" stroke-width="0.5" d="M281.3,443.1c0.4,1,1.2,2.1,3.6,2.5c0.7,0.1,1.5,0.2,2.2,0.2
		c3.1,0,5.2-1.1,5.2-2.7c0-1.5-1.7-1.9-4.5-2.2c-0.8-0.1-1.6-0.2-2.5-0.3c-1.1-0.2-2-0.3-2.7-0.6c-1-0.4-1.6-1.2-1.6-2.3
		c0-1.8,1.9-3.5,6.1-3.5c2.5,0,4.7,0.7,6.2,2.4l-1.2,0.6c-0.4-0.5-1.6-1.9-5.1-1.9c-2.8,0-4.6,1-4.6,2.4c0,1,1.1,1.4,1.9,1.5
		c0.6,0.1,3.8,0.5,4.5,0.6c1.2,0.2,2.2,0.3,3,0.6c1.1,0.5,1.9,1.3,1.9,2.5c0,0.6-0.2,1.3-0.6,1.7c-0.6,0.9-2.2,2.1-5.9,2.1
		c-2.4,0-3.6-0.3-4.6-0.8c-1.7-0.8-2.1-1.6-2.6-2.5L281.3,443.1z"/>
	<path fill="#1D1D1B" stroke="#1D1D1B" stroke-width="0.5" d="M310.8,443.4c-0.2,0.4-0.5,0.7-0.9,1.2c-1.7,1.8-3.9,2.4-6,2.4
		c-5.3,0-7.4-3.5-7.4-6.3c0-3.6,3.3-6.3,7.4-6.3c1.4,0,2.8,0.3,3.9,0.9c1.5,0.8,2.2,1.7,2.7,2.4l-1.1,0.6c-0.2-0.3-0.4-0.6-0.7-1
		c-1.1-1.3-2.9-1.8-4.6-1.8c-3.6,0-6.1,2.2-6.1,5.3c0,2.8,2.3,5.2,6.1,5.2c3.7,0,5.1-2.2,5.7-3L310.8,443.4z"/>
	<path fill="#1D1D1B" stroke="#1D1D1B" stroke-width="0.5" d="M315,434.6v5.1h11.1v-5.1h1.3v12h-1.3v-5.9H315v5.9h-1.3v-12H315z"/>
	<path fill="#1D1D1B" stroke="#1D1D1B" stroke-width="0.5" d="M332,434.6h1.2v7.1c-0.1,3.1,2,4.1,5.5,4.1c4,0,5.5-1.3,5.5-4.3v-6.9
		h1.2v7.1c0,3.6-2.2,5.2-6.7,5.2s-6.7-1.6-6.7-5.1V434.6z"/>
	<path fill="#1D1D1B" stroke="#1D1D1B" stroke-width="0.5" d="M351.7,434.6v5.1h11.1v-5.1h1.3v12h-1.3v-5.9h-11.1v5.9h-1.3v-12
		H351.7z"/>
	<path fill="#1D1D1B" stroke="#1D1D1B" stroke-width="0.5" d="M370.4,434.6l5,9.7c0.3,0.6,0.4,0.8,0.6,1.3l5.6-11h1.6v12H382V436
		c-0.1,0.3-0.2,0.4-0.4,0.8l-5,9.8h-1.3l-5-9.8c-0.2-0.4-0.2-0.5-0.4-0.9v10.7h-1.2v-12H370.4z"/>
	<path fill="#1D1D1B" stroke="#1D1D1B" stroke-width="0.5" d="M393.6,434.6l6.7,12h-1.4l-1.7-3.1h-8.5l-1.7,3.1h-1.3l6.5-12H393.6z
		 M392.9,435.7l-3.7,6.9h7.5L392.9,435.7z"/>
	<path fill="#1D1D1B" stroke="#1D1D1B" stroke-width="0.5" d="M416.5,434.6v12h-1.2L404,436.2v10.4h-1.2v-12h1.2l11.3,10.5v-10.5
		H416.5z"/>
	<path fill="#1D1D1B" stroke="#1D1D1B" stroke-width="0.5" d="M421.1,434.6h1.2v7.1c-0.1,3.1,2,4.1,5.5,4.1c4,0,5.5-1.3,5.5-4.3
		v-6.9h1.2v7.1c0,3.6-2.2,5.2-6.7,5.2s-6.7-1.6-6.7-5.1V434.6z"/>
	<path fill="#1D1D1B" stroke="#1D1D1B" stroke-width="0.5" d="M439.6,434.6h12.2v1h-10.9v4.3h9.7v1h-9.7v5.7h-1.3L439.6,434.6
		L439.6,434.6z"/>
	<path fill="#1D1D1B" stroke="#1D1D1B" stroke-width="0.5" d="M459.4,434.6l6.7,12h-1.4l-1.7-3.1h-8.5l-1.7,3.1h-1.3l6.5-12H459.4z
		 M458.7,435.7l-3.7,6.9h7.5L458.7,435.7z"/>
	<path fill="#1D1D1B" stroke="#1D1D1B" stroke-width="0.5" d="M479.6,434.6h1.8l-6.2,4.6l6.6,7.4H480l-5.9-6.6l-4.4,3.2v3.4h-1.3
		v-12h1.3v7.3L479.6,434.6z"/>
	<path fill="#1D1D1B" stroke="#1D1D1B" stroke-width="0.5" d="M482.6,434.6h12.8v1h-5.7v11h-1.3v-11h-5.9v-1H482.6z"/>
	<path fill="#1D1D1B" stroke="#1D1D1B" stroke-width="0.5" d="M497.8,434.6h1.2v7.1c-0.1,3.1,2,4.1,5.5,4.1c4,0,5.5-1.3,5.5-4.3
		v-6.9h1.2v7.1c0,3.6-2.2,5.2-6.7,5.2s-6.7-1.6-6.7-5.1V434.6z"/>
	<path fill="#1D1D1B" stroke="#1D1D1B" stroke-width="0.5" d="M525.4,434.6c0.9,0,2,0,2.9,0.5c1,0.5,1.7,1.6,1.7,2.8
		c0,0.9-0.3,1.8-1.3,2.5c-1,0.7-2.4,0.8-3.4,0.8l5.3,5.3h-1.8l-5.2-5.3h-6v5.3h-1.3v-12h9.1V434.6z M517.5,440.2h7.1
		c1.3,0,2.5,0,3.3-0.8c0.4-0.4,0.6-1.1,0.6-1.6c0-0.8-0.4-1.4-0.9-1.8c-0.7-0.5-1.5-0.5-2.2-0.5h-7.9L517.5,440.2L517.5,440.2z"/>
</g>
<g>
	<path fill="#1D1D1B" stroke="#1D1D1B" stroke-width="0.75" d="M80.6,403h3l-10.8,8.8l11.4,14h-2.9l-10.2-12.7l-7.6,6.2v6.5h-2.2
		V403h2.2v13.9L80.6,403z"/>
	<path fill="#1D1D1B" stroke="#1D1D1B" stroke-width="0.75" d="M87.7,403h21.9v1.9H89.9v8h18.2v1.9H89.9v9.1h20.6v1.9H87.7V403z"/>
	<path fill="#1D1D1B" stroke="#1D1D1B" stroke-width="0.75" d="M139.7,403v22.9h-2l-19.7-20v19.9h-2V403h2l19.6,20v-20H139.7z"/>
	<path fill="#1D1D1B" stroke="#1D1D1B" stroke-width="0.75" d="M170,403v22.9h-2L148.4,406v19.9h-2V403h2l19.6,20v-20H170z"/>
	<path fill="#1D1D1B" stroke="#1D1D1B" stroke-width="0.75" d="M176.7,403h21.9v1.9H179v8h18.2v1.9H179v9.1h20.6v1.9h-22.8V403
		H176.7z"/>
	<path fill="#1D1D1B" stroke="#1D1D1B" stroke-width="0.75" d="M207.3,403v20.9H224v1.9h-18.9V403H207.3z"/>
</g>
<g id="logo_und">
	<path fill="#1D1D1B" d="M248.3,423.6c-1.5,0-2.7-0.4-3.6-1.3c-0.9-0.9-1.3-2.1-1.3-3.6c0-2.1,1.3-4,3.9-5.9l6.7,7.7
		C252.2,422.6,250.3,423.6,248.3,423.6L248.3,423.6z M251.9,407.9c-0.5,0.8-1.3,1.5-2.2,2.1c-1.3-1.5-2-2.8-2-4
		c0-0.9,0.3-1.7,0.8-2.3c0.5-0.6,1.1-0.9,1.7-0.9c0.8,0,1.4,0.3,1.9,0.8c0.4,0.5,0.7,1.2,0.7,2.2
		C252.7,406.3,252.4,407.1,251.9,407.9z M267.1,409.2c-0.6,0-1.3,0-2.2,0.1c-1.1,0.1-2.1,0.1-3,0.1c-0.8,0-1.9,0-3.2-0.1
		c-1-0.1-1.8-0.1-2.4-0.1c-0.2,0-0.3,0.2-0.3,0.5c0,0.3,0.1,0.5,0.3,0.5c1.2,0.1,2.1,0.3,2.6,0.5c0.5,0.3,0.8,0.6,0.8,1.2
		s-0.2,1.2-0.6,1.8c-0.4,0.7-1.3,1.9-2.8,3.8l-6-6.8c1.6-0.9,2.8-1.8,3.5-2.7c0.7-0.8,1.1-1.7,1.1-2.6c0-1.1-0.5-2.1-1.4-2.9
		c-0.9-0.8-2.1-1.2-3.5-1.2c-1.6,0-3,0.6-4,1.7c-1.1,1.2-1.6,2.5-1.6,4.1c0,0.8,0.1,1.5,0.4,2.1c0.3,0.7,0.8,1.4,1.6,2.3
		c-4.7,2.1-7,4.6-7,7.5c0,1.8,0.7,3.4,2,4.7c1.3,1.3,2.9,2,4.8,2c1.7,0,3.2-0.4,4.5-1.1c1.3-0.7,2.6-1.9,3.9-3.6
		c1.6,1.9,2.9,3.2,3.9,3.8s2,0.9,3.1,0.9c0.9,0,1.7-0.1,2.4-0.4c0.7-0.3,1.4-0.7,2-1.4c0.6-0.6,1-1,1-1.2s-0.1-0.3-0.2-0.5
		c-0.1-0.1-0.2-0.2-0.4-0.2h-0.1c-0.8,0.8-1.8,1.3-2.9,1.3c-0.8,0-1.5-0.3-2.4-1c-0.8-0.6-2.2-2-4.1-4.2l4.5-5.5
		c0.7-0.8,1.4-1.4,2.2-1.8c0.8-0.4,1.9-0.7,3.2-0.9c0.2,0,0.3-0.2,0.3-0.5C267.4,409.4,267.3,409.2,267.1,409.2L267.1,409.2z"/>
</g>
<circle fill="none" stroke="#1D1D1B" stroke-width="1.4" cx="251.8" cy="414.7" r="22"/>
</svg>
