<?xml version="1.0" encoding="utf-8"?>
<!-- Generator: Adobe Illustrator 17.1.0, SVG Export Plug-In . SVG Version: 6.00 Build 0)  -->
<!DOCTYPE svg PUBLIC "-//W3C//DTD SVG 1.1//EN" "http://www.w3.org/Graphics/SVG/1.1/DTD/svg11.dtd">
<svg version="1.1" id="Calque_1" xmlns="http://www.w3.org/2000/svg" xmlns:xlink="http://www.w3.org/1999/xlink" x="0px" y="0px"
	 viewBox="0 0 595.3 841.9" enable-background="new 0 0 595.3 841.9" xml:space="preserve">
<path fill="none" d="M223.5,390c0-2.6-1.6-3.8-4.9-3.8H204v7.6h14.7C221.9,393.8,223.5,392.5,223.5,390z"/>
<path fill="none" d="M220.3,398.5H204v10.6h16.3c3.6,0,5.6-2,5.6-5.3C225.8,400.5,223.9,398.5,220.3,398.5z"/>
<path fill="none" d="M283.2,447.2h-3.5c-3.8,0-4.7,0.6-4.9,3.8h13.4v-0.9C288.2,448.7,287.1,447.2,283.2,447.2z"/>
<path fill="none" d="M261,445.7v-1.8c0-1.8-2-2.1-2.9-2.1h-14.2v6.4H258C259.4,448.2,261,447.7,261,445.7z"/>
<path fill="none" d="M257.9,450.4h-14v7h14.4c2.5,0,3.5-0.9,3.5-2.7v-1.4C261.7,450.8,260.3,450.4,257.9,450.4z"/>
<path fill="none" d="M514.8,386.1h-9.4v23h9.4c8,0,12.3-4.8,12.3-11.4C527,391.1,522.3,386.1,514.8,386.1z"/>
<polygon fill="#1C1C1B" points="67.7,381.5 62.7,381.5 62.7,413.7 91.6,413.7 91.6,409.1 67.7,409.1 "/>
<rect x="112.9" y="381.4" fill="#1C1C1B" width="5.1" height="32.4"/>
<polygon fill="#1C1C1B" points="149.6,398.9 166.2,398.9 166.2,394.3 149.6,394.3 149.6,386.2 174.8,386.2 174.8,381.5 144.6,381.5 
	144.6,413.7 176.2,413.7 176.2,409.1 149.6,409.1 "/>
<path fill="#1C1C1B" d="M225.6,395.5c2-1.2,3.1-3.3,3.1-6c0-5.2-3.3-8-10-8h-19.8v32.2h20.8c7.3,0,11.3-3.9,11.3-9.7
	C231,400.4,229.2,397.5,225.6,395.5z M204,386.2h14.6c3.3,0,4.9,1.2,4.9,3.8c0,2.5-1.6,3.8-4.9,3.8H204V386.2z M220.3,409.1H204
	v-10.6h16.3c3.6,0,5.6,2,5.6,5.3C225.8,407.1,223.8,409.1,220.3,409.1z"/>
<polygon fill="#1C1C1B" points="286.6,386.2 286.6,381.5 256.4,381.5 256.4,413.7 288,413.7 288,409.1 261.4,409.1 261.4,398.9 
	277.9,398.9 277.9,394.3 261.4,394.3 261.4,386.2 "/>
<path fill="#1C1C1B" d="M323.1,393.8c-6.7,0-10-0.9-10-3.9c0-2.6,3-4.6,8.1-4.6c4.1,0,9,1.5,13.1,4.3l2.5-4.2
	c-4.9-3.1-10-4.6-15.6-4.6c-8.3,0-13.3,3.9-13.3,9.2c0,6.9,5.5,8.3,15.4,8.4c6.7,0.2,10,1.8,10,5.6c0,3.5-3.6,6.3-9.6,6.3
	c-4.6,0-10.1-1.6-14.8-4.7l-2.5,4.3c5.3,3.3,11.7,5.1,17.8,5.1c9,0,14.3-4.9,14.3-10.6C338.6,397.4,333.4,393.8,323.1,393.8z"/>
<polygon fill="#1C1C1B" points="390.5,381.6 383.9,381.6 366.8,395.9 366.8,381.6 361.8,381.6 361.8,413.7 366.8,413.7 366.8,401.6 
	373.5,396 386.9,413.7 392.6,413.7 377,393 "/>
<rect x="414" y="381.4" fill="#1C1C1B" width="5.1" height="32.4"/>
<polygon fill="#1C1C1B" points="468.8,404.2 448.4,381.5 445.7,381.5 445.7,413.7 450.7,413.7 450.7,391.2 471.2,413.7 473.8,413.7 
	473.8,381.5 468.8,381.5 "/>
<path fill="#1C1C1B" d="M514.7,381.5h-14.3v32.2h14.3c11.2,0,17.5-6.7,17.5-16C532.2,388.5,525.6,381.5,514.7,381.5z M514.8,409.1
	h-9.4v-23h9.4c7.6,0,12.3,4.9,12.3,11.5C527,404.3,522.8,409.1,514.8,409.1z"/>
<path fill="#1C1C1B" d="M260.4,449v-0.1c2.4-0.3,3.3-1.7,3.3-3.2V444c0-2.3-1.2-4.5-5.3-4.5h-17.2v20.1h17.5c3.3,0,5.8-1.5,5.8-4.3
	V453C264.5,449.9,262.6,449.1,260.4,449z M243.9,441.8h14.2c0.8,0,2.9,0.3,2.9,2.1v1.8c0,2-1.5,2.5-3,2.5h-14.1V441.8z M261.7,454.8
	c0,1.8-0.9,2.7-3.5,2.7h-14.4v-7h14c2.5,0,3.9,0.4,3.9,2.9V454.8z"/>
<path fill="#1C1C1B" d="M283.2,445.3h-3.8c-3.4,0-7,0.6-7,5.7v3.1c0,5.2,3.6,5.8,6.7,5.8h4.3c4.5,0,7.2-1,7.2-4.2v-0.3h-2.4
	c-0.1,2.2-1.4,2.6-4.4,2.6h-3.3c-4.2,0-5.7-0.8-5.7-4.1V453h15.8v-1.6C290.6,446.4,287.5,445.3,283.2,445.3z M288.2,451.1h-13.4
	c0.2-3.2,1.1-3.8,4.9-3.8h3.5c3.9,0,5,1.4,5,2.9V451.1z"/>
<path fill="#1C1C1B" d="M307.6,445.3h-2.3c-1.6,0-3.5,0.4-4.3,2.3h-0.1v-2.1h-2.2v14.2h2.4v-9c0-1.8,1.2-3.5,3.8-3.5h1.5
	c4.3,0,5,0.6,5,4.1v0.6h2.2v-1.7C313.5,446.7,312.1,445.3,307.6,445.3z"/>
<rect x="320.9" y="439.5" fill="#1C1C1B" width="2.4" height="20.1"/>
<rect x="332.6" y="445.5" fill="#1C1C1B" width="2.4" height="14.2"/>
<rect x="332.6" y="439.5" fill="#1C1C1B" width="2.4" height="2.6"/>
<path fill="#1C1C1B" d="M355.7,445.3h-3.6c-3,0-4.8,0.5-5.7,2.7h-0.1v-2.4H344v14.2h2.4v-8.1c0-3.3,1.3-4.4,6.9-4.4h0.6
	c4.6,0,5.2,1.4,5.2,3.5v9h2.4v-9.6C361.5,447.5,360.1,445.3,355.7,445.3z"/>
</svg>
