<?xml version="1.0" encoding="utf-8"?>
<!-- Generator: Adobe Illustrator 17.1.0, SVG Export Plug-In . SVG Version: 6.00 Build 0)  -->
<!DOCTYPE svg PUBLIC "-//W3C//DTD SVG 1.1//EN" "http://www.w3.org/Graphics/SVG/1.1/DTD/svg11.dtd">
<svg version="1.1" id="Calque_1" xmlns="http://www.w3.org/2000/svg" xmlns:xlink="http://www.w3.org/1999/xlink" x="0px" y="0px"
	 viewBox="0 0 595.3 841.9" enable-background="new 0 0 595.3 841.9" xml:space="preserve">
<path fill="#1D1D1B" stroke="#1D1D1B" stroke-width="0.3" d="M527.9,398.6c2.4,0,4.3,1.7,4.3,3.8c0,2.1-1.9,3.8-4.3,3.8
	s-4.3-1.7-4.3-3.8C523.6,400.3,525.5,398.6,527.9,398.6L527.9,398.6z M527.9,399.1c-2.1,0-3.8,1.5-3.8,3.4s1.7,3.4,3.8,3.4
	s3.8-1.5,3.8-3.4S530,399.1,527.9,399.1L527.9,399.1z M530,404.6c-0.2,0-0.4,0-0.6,0s-0.4,0-0.6,0c-1.2-2-1.2-2-1.3-2c0,0,0,0,0,0.2
	c0,0.6,0,1.6,0.1,1.8c-0.2,0-0.4,0-0.6,0c-0.2,0-0.4,0-0.6,0c0-0.2,0.1-0.8,0.1-2.4c0-1.3,0-1.7-0.1-2c0.3,0,0.6,0,0.9,0
	c0.2,0,0.5,0,1,0c0.9,0,1.4,0.5,1.4,1.1c0,0.6-0.5,1.1-1.2,1.2L530,404.6L530,404.6z M527.8,400.5h-0.4c0,0.8,0,1.3,0,1.8
	c0.3,0,1.1,0,1.1-1C528.5,400.8,528.1,400.5,527.8,400.5L527.8,400.5z"/>
<path fill="#1D1D1B" stroke="#1D1D1B" stroke-width="0.8504" stroke-miterlimit="3.8637" d="M57.4,410.1c0-4.9-0.4-9.9-0.7-14.8
	c1.6,0.2,3.1,0.3,4.6,0.3s3-0.1,4.6-0.3c-0.4,4.9-0.7,9.9-0.7,14.8c0,9.6,0.2,16.3,0.3,21.9c8.7,0,16.4,0,25.7-0.7
	c-0.3,0.6-0.5,1.1-0.5,1.7c0,0.6,0.2,1.1,0.5,1.7c-5.7-0.2-11.4-0.3-17.1-0.3c-5.8,0-11.4,0.1-17.2,0.3c0.4-4.9,0.7-9.9,0.7-14.8
	v-9.8H57.4z"/>
<path fill="#1D1D1B" stroke="#1D1D1B" stroke-width="0.8504" stroke-miterlimit="3.8637" d="M129.7,404.6c0.8,0.1,1.8,0.2,2.7,0.2
	c0.7,0,1.4-0.1,2-0.2c-0.5,4.1-1,11.8-1.2,18.3c-0.1,7.8-6.9,12.7-18.6,12.7c-12.9,0-18.7-4-18.7-12.6c0-2.7,0.3-4.8,0.3-7
	c0-4.8-0.3-8.8-0.4-11.4c1,0.1,2.4,0.2,3.4,0.2c0.9,0,2-0.1,2.8-0.2c-0.4,2.6-0.8,8.6-0.8,15.1c0,6,0,13.8,14.6,13.8
	c14.3,0,14.3-9,14.3-14.6C130.1,410.5,130.1,406.3,129.7,404.6L129.7,404.6z"/>
<path fill="#1D1D1B" stroke="#1D1D1B" stroke-width="0.8504" stroke-miterlimit="3.8637" d="M144.5,415.7c0-3.8-0.3-7.6-0.5-11.4
	c1.1,0.1,2.2,0.2,3.2,0.2s2.1-0.1,3.2-0.2c-0.3,3.8-0.5,7.6-0.5,11.4v7.6c0,3.8,0.3,7.6,0.5,11.4c-1.1-0.1-2.2-0.2-3.2-0.2
	s-2.1,0.1-3.2,0.2c0.3-3.8,0.5-7.6,0.5-11.4V415.7L144.5,415.7z"/>
<path fill="#1D1D1B" stroke="#1D1D1B" stroke-width="0.8504" stroke-miterlimit="3.8637" d="M160.9,429.1c1.4,2.1,4.7,4.6,10.3,4.6
	c5.8,0,9.3-2.9,9.3-6.4c0-8.1-20.6-4.6-20.6-15c0-4.9,5.5-8.3,14.2-8.3c4.1,0,7.1,0.7,9.7,2.1c-0.8,1-1.2,2-1.8,3.7h-0.8
	c-0.9-1.6-2.9-4.1-7.8-4.1c-4.9,0-8.4,2.2-8.4,5.5c0,8.2,20.6,4.8,20.6,14.5c0,5.4-5.9,9.9-16,9.9c-5.4,0-8.5-1.3-10.8-2.5
	c0.8-1.4,1-2.2,1.2-3.9h0.9V429.1z"/>
<path fill="#1D1D1B" stroke="#1D1D1B" d="M211.3,404c6.4,10.2,16.2,26.2,19.7,30.9c-1.2-0.1-2.3-0.2-3.5-0.2c-1.2,0-2.3,0.1-3.5,0.2
	c-1.2-3-4.4-7.9-6.7-11.8c-2.8,0-5.7-0.1-8.6-0.1c-2.7,0-5.3,0-8,0.1c-2.7,4.5-5.2,9-6.3,11.8c-0.8-0.1-1.6-0.2-2.4-0.2
	s-1.6,0.1-2.4,0.2c7-10.3,13.8-20.5,20.4-30.9H211.3L211.3,404z M209.1,409.9l-7.1,11.2c2.3,0,4.8,0.1,7.1,0.1c2.4,0,4.9,0,7.3-0.1
	L209.1,409.9L209.1,409.9z"/>
<path fill="#1D1D1B" stroke="#1D1D1B" stroke-width="0.8504" stroke-miterlimit="3.8637" d="M303,432.1c-2.3,1.1-10.1,3.2-19.4,3.2
	c-19.6,0-34-7.5-34-20.4c0-12.9,14.3-20.4,34.9-20.4c8,0,15.2,1.2,20.2,2.6c-0.9,1-1.6,3.2-2,4.4l-0.6,0.1
	c-2.6-1.8-8.9-5.1-17.7-5.1c-14.6,0-25.8,5.6-25.8,18.3c0,12.7,11.2,18.3,25.8,18.3c8.8,0,15.4-3.1,18.9-4.7l0.4,0.2L303,432.1
	L303,432.1z"/>
<path fill="#1D1D1B" stroke="#1D1D1B" stroke-width="0.8504" stroke-miterlimit="3.8637" d="M314.5,415.9c0-3.8-0.3-7.6-0.5-11.4
	c3.9,0.1,7.8,0.2,11.7,0.2s7.8-0.1,11.6-0.2c-0.1,0.4-0.2,0.9-0.2,1.3c0,0.4,0.1,0.9,0.2,1.3c-5.5-0.3-8.7-0.6-17.2-0.6
	c-0.1,1.9-0.3,3.4-0.3,5.6c0,2.3,0.1,4.7,0.1,5.8c7.7,0,12-0.2,15.9-0.4c-0.1,0.4-0.2,0.9-0.2,1.4c0,0.4,0.1,0.9,0.2,1.3
	c-4.5-0.3-12.7-0.4-15.9-0.4c-0.1,1.1-0.1,2.2-0.1,6.4c0,3.3,0.1,5.5,0.1,6.6c5.8,0,13.5,0,17.6-0.6c-0.1,0.4-0.2,1-0.2,1.4
	s0.1,0.9,0.2,1.3c-3.9-0.1-7.8-0.2-11.8-0.2c-4,0-7.9,0.1-11.9,0.2c0.3-3.8,0.5-7.7,0.5-11.4v-7.6H314.5z"/>
<path fill="#1D1D1B" stroke="#1D1D1B" d="M348.5,415.9c0-3.8-0.3-7.6-0.5-11.4c2.5,0.1,5,0.2,7.4,0.2c2.5,0,5-0.2,7.4-0.2
	c7.4,0,13.6,1.7,13.6,7c0,5.7-8.4,8-13.4,8.4c3.2,2.7,14.1,12.1,17.9,15c-1.3-0.1-2.6-0.2-3.9-0.2c-1.2,0-2.5,0.1-3.8,0.2
	c-2.6-2.7-11.3-10.8-16.9-14.6h-2.5v3.2c0,3.8,0.3,7.6,0.5,11.4c-1.1-0.1-2.2-0.2-3.2-0.2s-2.1,0.1-3.2,0.2
	c0.3-3.8,0.5-7.6,0.5-11.4L348.5,415.9L348.5,415.9z M353.9,418.4c1.2,0.2,2.7,0.2,4.4,0.2c5.4,0,12.5-1.5,12.5-6.7
	c0-4.6-5.7-5.8-10.1-5.8c-3,0-5,0.1-6.3,0.2c-0.2,3.2-0.4,6.4-0.4,9.5L353.9,418.4L353.9,418.4z"/>
<path fill="#1D1D1B" stroke="#1D1D1B" d="M407.9,403.9c6.4,10.2,16.2,26.2,19.7,30.9c-1.2-0.1-2.3-0.2-3.5-0.2
	c-1.2,0-2.3,0.1-3.5,0.2c-1.2-3-4.4-7.9-6.7-11.8c-2.8,0-5.7-0.1-8.6-0.1c-2.7,0-5.3,0-8,0.1c-2.7,4.5-5.2,9-6.3,11.8
	c-0.9-0.1-1.6-0.2-2.4-0.2c-0.8,0-1.6,0.1-2.4,0.2c7-10.3,13.8-20.5,20.4-30.9H407.9L407.9,403.9z M405.8,409.9l-7.1,11.2
	c2.3,0,4.8,0.1,7.1,0.1c2.4,0,4.9,0,7.3-0.1L405.8,409.9L405.8,409.9z"/>
<path fill="#1D1D1B" stroke="#1D1D1B" stroke-width="0.8504" stroke-miterlimit="3.8637" d="M470,435.4c-9.9-7.9-21.8-16.3-33-24.3
	c-0.1,1.6-0.2,4.3-0.2,8.9c0,3.8,0.3,13.1,0.6,14.8c-0.7-0.1-1.5-0.2-2.3-0.2c-0.8,0-1.6,0.1-2.4,0.2c0.5-2.1,1.4-13.3,1.4-19.1
	c0-5.5,0-9.8-0.2-11.8h1c10.6,7.8,25.1,18.4,33,23.8c0-7.9,0-16.5-0.5-23.2c0.7,0.1,1.5,0.2,2.2,0.2c0.7,0,1.4-0.1,2.1-0.2
	c-0.4,2.6-1,11.3-1,14.7c0,4.5,0.1,14.2,0.2,16.2H470L470,435.4z"/>
<path fill="#1D1D1B" stroke="#1D1D1B" d="M503.1,403.4c14.4,0,24.5,5.8,24.5,15.8S517.5,435,503.1,435c-14.4,0-24.4-5.8-24.4-15.8
	C478.7,409.2,488.7,403.4,503.1,403.4L503.1,403.4z M503.1,405c-10.2,0-18,4.4-18,14.1c0,9.8,7.8,14.1,18,14.1
	c10.3,0,18.1-4.4,18.1-14.1S513.3,405,503.1,405L503.1,405z"/>
</svg>
