<?xml version="1.0" encoding="utf-8"?>
<!-- Generator: Adobe Illustrator 18.0.0, SVG Export Plug-In . SVG Version: 6.00 Build 0)  -->
<!DOCTYPE svg PUBLIC "-//W3C//DTD SVG 1.1//EN" "http://www.w3.org/Graphics/SVG/1.1/DTD/svg11.dtd">
<svg version="1.1" id="Calque_1" xmlns="http://www.w3.org/2000/svg" xmlns:xlink="http://www.w3.org/1999/xlink" x="0px" y="0px"
	 viewBox="0 0 841.9 595.3" enable-background="new 0 0 841.9 595.3" xml:space="preserve">
<path fill="#003552" stroke="#003552" stroke-width="0.3" d="M583.7,281.8c1.7,0,3,1.2,3,2.7c0,1.5-1.3,2.7-3,2.7
	c-1.7,0-3-1.2-3-2.7C580.7,283,582.1,281.8,583.7,281.8L583.7,281.8z M583.7,282.2c-1.5,0-2.7,1.1-2.7,2.4c0,1.3,1.2,2.4,2.7,2.4
	c1.5,0,2.7-1.1,2.7-2.4C586.4,283.3,585.2,282.2,583.7,282.2L583.7,282.2z M585.2,286.1c-0.1,0-0.3,0-0.4,0s-0.3,0-0.4,0
	c-0.8-1.4-0.8-1.4-0.9-1.4c0,0,0,0,0,0.1c0,0.4,0,1.1,0.1,1.3c-0.1,0-0.3,0-0.4,0c-0.1,0-0.3,0-0.4,0c0-0.1,0.1-0.6,0.1-1.7
	c0-0.9,0-1.2-0.1-1.4c0.2,0,0.4,0,0.6,0c0.1,0,0.4,0,0.7,0c0.6,0,1,0.4,1,0.8c0,0.4-0.4,0.8-0.8,0.8L585.2,286.1L585.2,286.1z
	 M583.7,283.2h-0.3c0,0.6,0,0.9,0,1.3c0.2,0,0.8,0,0.8-0.7C584.2,283.4,583.9,283.2,583.7,283.2L583.7,283.2z"/>
<g>
	<path fill="#003552" d="M273.8,333.8l-0.1-15.3c0-1.3,0.1-2.1,0.3-2.5c-0.4,0-0.7,0.1-0.9,0.4c-0.2,0.2-0.3,0.5-0.4,0.8
		c-0.1,0.4-0.1,1-0.1,1.8l0.1,15.3c0,0.8-0.1,1.3-0.2,1.6c-0.1,0.3-0.5,0.6-0.9,0.8h0.6c0.7,0,1.2-0.2,1.3-0.6
		C273.8,335.6,273.8,334.9,273.8,333.8z M254.3,316h-0.6c0.6,0.3,1.2,0.6,1.6,1.1c0.4,0.4,0.8,1.1,1.1,2.1l7.4,17.5
		c0.2-0.4,0.4-0.8,0.4-1.1c0-0.3-0.1-0.7-0.4-1.3l-6.4-15.3c-0.4-1-0.8-1.8-1.3-2.2C255.7,316.3,255.1,316,254.3,316z M253.1,336.7
		h3.3c-0.4-0.2-0.7-0.5-0.9-0.8c-0.2-0.4-0.4-0.8-0.6-1.3c-0.1,0.4-0.4,0.8-0.7,1.1C254,336.1,253.5,336.4,253.1,336.7z
		 M265.6,332.1l6.9-17h6.9v0.8c-1.1,0-1.8,0.1-2.3,0.4c-0.4,0.3-0.7,0.6-0.8,1.1s-0.1,1.4-0.1,2.8l0.1,13.7c0,0.7,0.1,1.2,0.3,1.6
		c0.2,0.4,0.5,0.6,0.9,0.8c0.4,0.1,1.1,0.2,2,0.3v0.8h-10.3v-0.8c1,0,1.8-0.1,2.2-0.4c0.4-0.2,0.7-0.6,0.8-1s0.1-1.1,0.1-2.1
		l-0.1-15.3l-7.8,19.6h-0.9l-7.8-18.9l0.1,13c0,1.5,0.3,2.6,0.8,3.4c0.6,0.8,1.5,1.3,2.8,1.6v0.8h-8.1v-0.8c1.1-0.1,2-0.6,2.6-1.3
		c0.6-0.8,0.9-1.8,0.9-3.3l-0.1-14.8c-0.4-0.5-1-0.8-1.6-1.1c-0.6-0.2-1.3-0.4-2-0.3v-0.8h7.3L265.6,332.1z"/>
	<path fill="#003552" d="M303.5,333l-5.7-14.4c-0.3-0.7-0.6-1.2-0.8-1.6c-0.3-0.3-0.7-0.4-1.2-0.4c-0.3,0-0.6,0-0.8,0.1
		c0.5,0.2,0.9,0.5,1.1,0.8c0.3,0.4,0.5,0.8,0.7,1.4l5.7,14.4c0.4,0.8,0.5,1.5,0.5,2c0,0.3-0.1,0.5-0.1,0.6c-0.1,0.1-0.4,0.4-0.7,0.6
		h0.4c0.5,0,0.8-0.1,1.1-0.4s0.4-0.6,0.4-0.9C304,334.7,303.8,333.9,303.5,333z M293.1,328h6.7l-3.4-8.6L293.1,328z M288.1,336.6h3
		c-0.6-0.5-1-1.1-1-2c0-0.2,0-0.4,0-0.5c-0.3,0.5-0.6,1-0.8,1.3C289,335.9,288.7,336.2,288.1,336.6z M302,333.5l-1.8-4.5h-7.5
		l-1.1,2.7c-0.3,0.7-0.4,1.4-0.4,2.1s0.2,1.3,0.7,1.8c0.4,0.6,1.1,0.8,1.9,0.8v0.8h-7.4v-0.8c1.6-0.2,3-1.7,4-4.2l5.4-14.1
		c-0.3-0.5-0.6-0.8-0.9-1c-0.4-0.1-0.8-0.3-1.4-0.4v-0.8l3.8-1.3h1.5l7.4,18.7c0.4,1.1,0.8,1.8,1.3,2.1c0.4,0.4,1.1,0.6,1.9,0.8v0.8
		h-9.4v-0.8c0.8-0.1,1.4-0.2,1.8-0.4c0.4-0.1,0.6-0.5,0.6-1C302.5,334.7,302.3,334.2,302,333.5z"/>
	<path fill="#003552" d="M320.5,318.7l0.1,15.8c0,0.6-0.1,0.9-0.3,1.2s-0.5,0.5-1,0.8c0.7,0,1.3-0.1,1.7-0.4
		c0.4-0.2,0.6-0.6,0.6-1.3l-0.1-16.8c0-0.7-0.1-1.3-0.4-1.6c-0.3-0.4-0.9-0.5-1.8-0.5c0.8,0.4,1.2,1.2,1.2,2.4v0.2L320.5,318.7z
		 M316.7,315h10.6v0.8c-1,0-1.8,0.1-2.3,0.4c-0.6,0.2-0.8,0.7-0.8,1.4c0,0.4-0.1,0.8-0.1,1.1c0,0.3,0,0.4,0,0.4l0.1,14.6
		c0,0.6,0.1,1.1,0.2,1.5c0.1,0.4,0.4,0.6,0.6,0.8c0.2,0.1,0.5,0.3,0.8,0.4c0.4,0.1,0.8,0.1,1.7,0.1v0.8h-10.6v-0.8
		c0.9,0,1.6-0.1,2.1-0.3c0.5-0.2,0.8-0.5,0.9-0.9c0.1-0.4,0.2-1.1,0.2-2l-0.1-14.2c0-0.8-0.1-1.5-0.1-1.9c-0.1-0.4-0.2-0.7-0.4-0.8
		c-0.2-0.2-0.5-0.3-0.9-0.4c-0.4-0.1-1-0.1-1.8-0.2L316.7,315z"/>
	<path fill="#003552" d="M349.6,319l-0.5-3c-0.4,0.1-0.7,0.2-1.1,0.2c-0.4,0-0.8-0.1-1.2-0.1c0.4,0.3,0.8,0.6,1.1,0.9
		c0.4,0.4,0.6,0.7,1,1.2C349.3,318.5,349.5,318.8,349.6,319z M337.7,332.2v4.2c0.3-0.4,0.6-0.6,0.8-0.8c0.3-0.1,0.6-0.1,1.2-0.1
		c-0.4-0.4-0.6-0.7-0.8-0.9c-0.1-0.2-0.4-0.5-0.6-0.8C338.2,333.4,338,332.8,337.7,332.2z M337.6,319.1c-0.1,0.8-0.3,1.5-0.3,2
		c0,0.6,0.1,1.1,0.3,1.7s0.5,1.1,0.8,1.6c0.4,0.5,0.8,0.9,1.3,1.2c0.6,0.4,1.3,0.7,2.1,0.9c0.8,0.1,1.8,0.4,3.3,0.6
		c1.5,0.2,2.5,0.5,3,0.7c1,0.4,1.8,0.9,2.4,1.7c0.6,0.8,0.8,1.6,0.8,2.7c0,0.8-0.2,1.6-0.6,2.4c0.8-0.9,1.3-2,1.3-3.2
		c0-1.3-0.4-2.3-1-3s-1.4-1.2-2.4-1.6c-0.9-0.4-2.3-0.6-3.9-0.9c-1.6-0.3-2.5-0.4-2.5-0.4c-1.5-0.4-2.6-1.1-3.4-2.1
		c-0.8-1-1.2-2.1-1.2-3.3c0-0.2,0-0.4,0-0.6C337.6,319.4,337.6,319.2,337.6,319.1z M337.1,329.3h1.1c0.6,1.7,1.3,3.1,2.1,4.2
		s1.7,2,2.7,2.5c1,0.6,2,0.8,3,0.8c1.3,0,2.5-0.4,3.4-1.3s1.4-1.9,1.4-3.2c0-1.2-0.3-2.1-0.9-2.8c-0.6-0.6-1.3-1.1-2.3-1.4
		c-0.8-0.3-2-0.5-3.4-0.8c-1.4-0.2-2.4-0.4-3-0.6c-0.9-0.3-1.7-0.8-2.3-1.3c-0.6-0.6-1.1-1.2-1.5-2s-0.5-1.6-0.5-2.5
		s0.1-1.7,0.4-2.5c0.3-0.8,0.7-1.5,1.3-2.1c0.6-0.6,1.2-1.1,2-1.4c0.8-0.4,1.6-0.5,2.6-0.6c0.7,0,1.6,0.1,2.5,0.3
		c1,0.2,1.7,0.3,2.2,0.3c0.6,0,1.1-0.1,1.6-0.4h1.2l0.7,6.5h-1.1c-1.1-1.9-2.1-3.4-3.3-4.5c-1.1-1-2.5-1.6-4-1.6
		c-0.8,0-1.5,0.2-2.1,0.6s-1.2,0.8-1.6,1.5c-0.4,0.6-0.6,1.3-0.6,2.1c0,1.1,0.4,1.8,1.1,2.4c0.7,0.6,1.8,1,3.2,1.3
		c1.4,0.3,2.7,0.5,3.8,0.7c1.1,0.2,2,0.4,2.7,0.8c1.2,0.6,2.1,1.4,2.8,2.5s1,2.3,1,3.5c0,1.3-0.3,2.5-0.9,3.5
		c-0.6,1.1-1.5,2-2.6,2.7c-1.1,0.6-2.3,1-3.7,1c-0.8,0-1.3-0.1-1.8-0.1c-0.4-0.1-1.1-0.4-2.1-0.6c-0.9-0.4-1.7-0.5-2.2-0.5
		c-0.8,0-1.5,0.4-2,1h-0.9L337.1,329.3z"/>
	<path fill="#003552" d="M373.5,315.5c1.2,0.6,2.2,1.5,3,2.6s1.5,2.5,1.9,4c0.4,1.6,0.6,3.3,0.6,5.2c0,1.8-0.2,3.3-0.7,4.6
		c-0.5,1.3-1.1,2.5-2.1,3.5c0.8-0.6,1.6-1.4,2.1-2.3c0.6-0.8,1-1.8,1.2-2.8c0.3-1.1,0.4-2.3,0.4-3.5c0-1.9-0.3-3.6-0.8-5.2
		c-0.5-1.6-1.3-2.9-2.3-4C376.1,316.5,374.9,315.8,373.5,315.5z M363.8,324.3c0,1.8,0.2,3.5,0.6,5.1c0.4,1.6,0.9,2.9,1.6,4
		c0.7,1.1,1.6,2,2.5,2.5c1,0.6,2.1,0.8,3.1,0.8c0.9,0,1.8-0.2,2.7-0.6s1.6-1.1,2.3-1.8c0.6-0.8,1.1-1.8,1.5-3
		c0.4-1.2,0.5-2.6,0.5-4.2c0-1.8-0.2-3.3-0.6-4.8c-0.4-1.5-1-2.8-1.7-3.7c-0.7-1.1-1.6-1.8-2.5-2.4c-1-0.6-2.1-0.8-3.2-0.8
		c-1,0-1.9,0.2-2.8,0.6c-0.8,0.4-1.6,1.1-2.2,1.8c-0.6,0.8-1.1,1.7-1.4,2.8C363.9,321.7,363.8,322.9,363.8,324.3z M365.3,316.1
		c-1.8,1.1-3.1,2.5-4,4.2c-0.9,1.7-1.3,3.6-1.3,5.7c0,1.8,0.3,3.3,0.9,4.8c0.6,1.4,1.5,2.7,2.6,3.7c1.1,1.1,2.6,1.8,4.3,2.4
		c-2.1-1.1-3.7-2.5-4.9-4.4c-1.2-1.8-1.8-4.1-1.8-6.8c0-1.3,0.1-2.5,0.5-3.6c0.4-1.1,0.8-2.1,1.5-3
		C363.5,318,364.3,317.1,365.3,316.1z M359.4,326c0-1,0.1-1.8,0.3-2.7c0.2-0.8,0.4-1.7,0.8-2.5c0.4-0.8,0.8-1.5,1.3-2.2
		c0.5-0.7,1.1-1.3,1.8-1.8c0.7-0.6,1.4-1,2.2-1.4c0.8-0.4,1.6-0.6,2.6-0.8c0.9-0.1,1.9-0.3,3-0.3c1.8,0,3.4,0.3,4.9,0.9
		c1.5,0.6,2.8,1.4,3.7,2.5c1.1,1.1,1.8,2.3,2.4,3.7s0.8,2.8,0.8,4.4c0,1.7-0.3,3.2-0.9,4.7c-0.6,1.4-1.5,2.7-2.6,3.7
		c-1.1,1.1-2.4,1.9-3.9,2.5c-1.5,0.6-3.1,0.9-4.9,0.9c-1.6,0-3.2-0.3-4.6-0.8c-1.4-0.6-2.6-1.3-3.7-2.4c-1-1.1-1.8-2.3-2.4-3.7
		C359.7,329.2,359.4,327.7,359.4,326z"/>
	<path fill="#003552" d="M410.2,315.6h-3.5c0.5,0.2,1,0.4,1.3,0.8c0.4,0.3,0.6,0.8,0.8,1.3C409.2,316.7,409.6,316,410.2,315.6z
		 M390.4,336.3h3.3c-0.5-0.4-0.8-0.7-1-1c-0.2-0.3-0.4-0.7-0.5-1.3c-0.1,0.5-0.4,0.9-0.6,1.3C391.4,335.6,391,336,390.4,336.3z
		 M407.8,333.8l-14.4-16.7c-0.3-0.4-0.6-0.7-1.1-1.1c-0.4-0.3-1-0.5-1.7-0.4H390c0.6,0.2,1.1,0.5,1.4,0.8c0.4,0.3,0.8,0.8,1.4,1.5
		l16.4,18.9c0-0.3,0-0.6-0.1-0.9c0-0.3-0.1-0.5-0.1-0.6c-0.1-0.1-0.1-0.4-0.3-0.6C408.5,334.6,408.3,334.2,407.8,333.8z
		 M404.7,315.6v-0.8h8.5v0.8c-0.7,0-1.3,0.2-1.8,0.5c-0.6,0.3-0.9,0.7-1.3,1.3c-0.3,0.6-0.4,1.3-0.4,2.1l0.4,18.2h-1l-16.3-18.9
		l0.3,12.7c0,0.8,0.1,1.5,0.2,2c0.1,0.6,0.3,1,0.6,1.4c0.3,0.4,0.6,0.7,1.2,0.9c0.5,0.2,1.2,0.4,2,0.4v0.8h-8.4v-0.8
		c1.1-0.1,1.9-0.4,2.5-0.9c0.6-0.5,0.8-1.1,1-1.9c0.1-0.8,0.1-1.7,0.1-2.8l-0.3-13c-0.6-0.6-1.2-1.1-1.8-1.5
		c-0.6-0.4-1.2-0.5-1.8-0.5h-0.2v-0.8h6.6l14.4,16.7l-0.3-11.2c0-0.8-0.1-1.6-0.3-2.2c-0.2-0.6-0.5-1.1-0.9-1.4
		c-0.3-0.3-0.7-0.6-1.3-0.7C405.7,315.7,405.2,315.6,404.7,315.6z"/>
	<path fill="#003552" d="M443,318.7l-0.5-3c-0.4,0.1-0.7,0.2-1.1,0.2c-0.4,0-0.8-0.1-1.3-0.1c0.4,0.3,0.8,0.6,1.1,0.9
		c0.4,0.4,0.6,0.8,1,1.2C442.6,318.3,442.8,318.6,443,318.7z M431,332v4.2c0.3-0.4,0.6-0.6,0.8-0.8c0.3-0.1,0.6-0.1,1.2-0.1
		c-0.4-0.4-0.6-0.7-0.8-0.9c-0.1-0.2-0.4-0.5-0.6-0.8C431.5,333.1,431.3,332.6,431,332z M431,318.8c-0.2,0.8-0.3,1.5-0.3,2
		c0,0.6,0.1,1.1,0.3,1.7c0.2,0.6,0.5,1.1,0.8,1.6c0.4,0.5,0.8,0.9,1.3,1.2c0.6,0.4,1.3,0.7,2.1,0.9c0.8,0.1,1.8,0.4,3.3,0.6
		c1.4,0.2,2.5,0.4,3,0.7c1,0.4,1.8,0.9,2.4,1.7c0.6,0.8,0.8,1.6,0.8,2.7c0,0.8-0.2,1.6-0.6,2.4c0.8-0.9,1.3-2,1.3-3.2
		c0-1.3-0.4-2.3-1-3s-1.4-1.3-2.4-1.6c-0.9-0.4-2.3-0.6-3.9-0.9c-1.6-0.3-2.5-0.4-2.5-0.4c-1.5-0.4-2.6-1.1-3.4-2.1
		s-1.2-2.1-1.2-3.3c0-0.2,0-0.4,0-0.6C431,319.1,431,319,431,318.8z M430.5,329h1.1c0.6,1.7,1.3,3.1,2.1,4.2s1.7,2,2.7,2.5
		c1,0.6,2,0.8,3,0.8c1.3,0,2.5-0.4,3.4-1.3c0.9-0.8,1.4-1.9,1.4-3.2c0-1.2-0.4-2.1-0.9-2.8c-0.6-0.6-1.4-1.1-2.3-1.4
		c-0.8-0.3-2-0.5-3.4-0.7c-1.4-0.2-2.4-0.4-3-0.6c-0.9-0.3-1.7-0.8-2.3-1.3c-0.6-0.6-1.1-1.2-1.5-2c-0.4-0.8-0.5-1.6-0.5-2.5
		c0-0.8,0.1-1.7,0.4-2.5c0.3-0.8,0.7-1.5,1.3-2.1c0.6-0.6,1.2-1.1,2-1.4c0.8-0.4,1.6-0.5,2.6-0.6c0.7,0,1.6,0.1,2.5,0.3
		c1,0.2,1.7,0.3,2.2,0.3c0.6,0,1.1-0.1,1.6-0.4h1.2l0.7,6.5h-1.1c-1.1-1.9-2.1-3.5-3.3-4.5c-1.1-1-2.5-1.6-4-1.6
		c-0.8,0-1.5,0.2-2.1,0.6c-0.6,0.4-1.2,0.8-1.6,1.5c-0.4,0.6-0.6,1.3-0.6,2.1c0,1.1,0.4,1.8,1.1,2.4s1.8,1,3.2,1.3
		c1.4,0.3,2.7,0.5,3.8,0.7c1.1,0.2,2,0.5,2.7,0.8c1.2,0.6,2.1,1.4,2.8,2.5c0.7,1.1,1,2.3,1,3.5c0,1.3-0.3,2.5-0.9,3.5
		c-0.6,1.1-1.5,2-2.6,2.6c-1.1,0.6-2.3,1-3.7,1c-0.8,0-1.3-0.1-1.8-0.1c-0.4-0.1-1.1-0.4-2.1-0.7c-0.9-0.4-1.7-0.5-2.2-0.5
		c-0.8,0-1.6,0.4-2,1h-0.9L430.5,329z"/>
	<path fill="#003552" d="M471.6,318.3l-0.1-2.7c-0.5,0.2-1,0.4-1.6,0.4c-0.3,0-0.5,0-0.8-0.1c0.6,0.4,1,0.8,1.3,1.2
		C470.9,317.4,471.3,317.8,471.6,318.3z M461.1,315c-1.6,0.6-3,1.3-4,2.3c-0.6,0.5-1.1,1.1-1.6,1.7c-0.4,0.6-0.8,1.3-1.2,2.1
		c-0.3,0.7-0.6,1.5-0.7,2.3c-0.1,0.8-0.3,1.6-0.3,2.4c0,1.9,0.4,3.7,1.2,5.3s2,3,3.5,4c1.6,1.1,3.4,1.7,5.6,1.9
		c-1.4-0.4-2.7-0.9-3.8-1.6c-1.2-0.7-2.2-1.6-3-2.5c-0.8-1-1.4-2.1-1.8-3.3c-0.4-1.2-0.6-2.4-0.6-3.7c0-1.1,0.1-2.2,0.5-3.3
		c0.4-1.1,0.8-2.2,1.5-3.1c0.7-1.1,1.4-1.8,2.2-2.5C459.2,316.3,460.1,315.6,461.1,315z M472.2,314.2h1.3v7.1h-1
		c-0.5-1.1-1.1-2-1.6-2.8s-1.2-1.4-1.8-2c-0.6-0.5-1.3-0.9-2.1-1.2c-0.7-0.3-1.5-0.4-2.3-0.4c-1.1,0-2.1,0.3-3,0.8
		c-0.9,0.5-1.6,1.2-2.3,2.1c-0.6,0.9-1.1,2.1-1.5,3.3c-0.4,1.3-0.5,2.7-0.5,4.2c0,2.1,0.4,4,1.1,5.6s1.7,2.9,3,3.8
		c1.3,0.9,2.7,1.3,4.3,1.3c1,0,1.9-0.1,2.8-0.5c0.9-0.4,1.8-0.8,2.6-1.5c0.8-0.6,1.6-1.5,2.3-2.5l0.9,0.5c-1.2,1.7-2.6,3-4.3,3.9
		c-1.7,0.8-3.6,1.3-5.8,1.3c-1.7,0-3.3-0.3-4.7-0.8c-1.4-0.6-2.7-1.4-3.7-2.5c-1.1-1.1-1.8-2.3-2.4-3.7c-0.6-1.4-0.8-2.9-0.8-4.5
		c0-1.7,0.3-3.3,0.9-4.7c0.6-1.5,1.4-2.7,2.5-3.7c1.1-1.1,2.3-1.8,3.7-2.4c1.4-0.6,2.9-0.8,4.5-0.8c0.6,0,1.1,0.1,1.6,0.1
		c0.5,0.1,1.1,0.2,1.8,0.4s1.2,0.3,1.4,0.4c0.3,0.1,0.6,0.1,0.8,0.1C471,315.1,471.6,314.9,472.2,314.2z"/>
	<path fill="#003552" d="M493.2,315.1c1.2,0.6,2.2,1.5,3,2.6s1.5,2.5,1.9,4c0.4,1.6,0.6,3.3,0.6,5.2c0,1.8-0.2,3.3-0.7,4.6
		s-1.1,2.5-2.1,3.5c0.8-0.6,1.6-1.4,2.1-2.3s1-1.8,1.2-2.8c0.3-1.1,0.4-2.3,0.4-3.5c0-1.9-0.3-3.6-0.8-5.2c-0.5-1.6-1.3-2.9-2.3-4
		C495.7,316.1,494.6,315.5,493.2,315.1z M483.5,324c0,1.8,0.2,3.5,0.6,5.1c0.4,1.6,0.9,2.9,1.6,4c0.7,1.1,1.6,2,2.5,2.5
		c1,0.6,2.1,0.8,3.1,0.8c0.9,0,1.8-0.2,2.7-0.6c0.8-0.4,1.6-1.1,2.3-1.8c0.6-0.8,1.1-1.8,1.5-3c0.4-1.2,0.5-2.6,0.5-4.2
		c0-1.8-0.2-3.3-0.6-4.8s-1-2.8-1.7-3.7c-0.7-1.1-1.6-1.8-2.5-2.4s-2.1-0.8-3.2-0.8c-1,0-1.9,0.2-2.8,0.6c-0.8,0.4-1.6,1.1-2.2,1.8
		c-0.6,0.8-1.1,1.8-1.4,2.8C483.6,321.4,483.4,322.6,483.5,324z M484.9,315.8c-1.8,1.1-3.1,2.5-4,4.2c-0.9,1.7-1.3,3.6-1.3,5.7
		c0,1.8,0.3,3.3,0.9,4.8c0.6,1.4,1.5,2.7,2.6,3.7c1.1,1.1,2.6,1.8,4.3,2.4c-2.1-1.1-3.7-2.5-4.9-4.4c-1.2-1.8-1.8-4.1-1.8-6.8
		c0-1.3,0.1-2.5,0.5-3.6c0.4-1.1,0.8-2.1,1.5-3C483.1,317.8,484,316.8,484.9,315.8z M479,325.7c0-1,0.1-1.8,0.3-2.7
		c0.1-0.8,0.4-1.7,0.8-2.5c0.4-0.8,0.8-1.5,1.3-2.2c0.5-0.7,1.1-1.3,1.8-1.8c0.7-0.6,1.4-1,2.2-1.4c0.8-0.4,1.6-0.6,2.6-0.8
		c0.9-0.1,1.9-0.3,3-0.3c1.8,0,3.4,0.3,4.9,0.9c1.5,0.6,2.8,1.4,3.7,2.5c1.1,1.1,1.8,2.3,2.4,3.7c0.6,1.4,0.8,2.8,0.8,4.4
		c0,1.7-0.3,3.2-0.9,4.7c-0.6,1.4-1.5,2.7-2.5,3.7c-1.1,1.1-2.4,1.9-4,2.5c-1.5,0.6-3.1,0.9-4.9,0.9c-1.6,0-3.2-0.3-4.6-0.8
		c-1.4-0.6-2.6-1.3-3.7-2.4c-1-1.1-1.8-2.3-2.4-3.7C479.3,328.9,479,327.3,479,325.7z"/>
	<path fill="#003552" d="M527.7,317.8l-0.7-2.5h-3c0.8,0.3,1.5,0.6,2.1,1C526.6,316.6,527.2,317.2,527.7,317.8z M517.8,332.8
		l-0.1-15.6c0-0.6-0.1-1.1-0.2-1.4c-0.1-0.3-0.4-0.5-0.8-0.5l0.1,18c0,0.6-0.1,1.2-0.2,1.6c-0.1,0.4-0.4,0.7-0.8,1.1h0.4
		c0.8,0,1.3-0.2,1.5-0.7C517.7,334.7,517.8,333.9,517.8,332.8z M511.1,315.3h-2.5l-0.6,2.7c0.6-0.7,1-1.2,1.4-1.6
		C509.8,316.1,510.4,315.7,511.1,315.3z M508.2,314.4l20.2-0.1l1.1,5.2h-1.1c-0.8-1.3-1.7-2.3-2.5-3c-0.9-0.6-1.8-1-2.5-1.1
		c-0.8-0.1-1.8-0.2-3.1-0.2l0.1,18.1c0,0.7,0.1,1.2,0.4,1.6c0.2,0.4,0.6,0.6,1.1,0.8c0.5,0.1,1.2,0.2,2.1,0.3v0.8h-11.2v-0.8
		c0.9,0,1.6-0.1,2.1-0.2c0.5-0.1,0.8-0.4,1.1-0.8c0.2-0.4,0.4-1,0.4-1.8l-0.1-17.9c-1.1,0-2.1,0.1-3,0.4c-0.8,0.2-1.6,0.5-2.1,0.9
		c-0.6,0.4-1.1,0.8-1.4,1.2c-0.4,0.4-0.9,1.1-1.6,2h-1L508.2,314.4z"/>
	<path fill="#003552" d="M553.1,318l-0.1-2.7c-0.5,0.2-1,0.4-1.6,0.4c-0.3,0-0.5,0-0.7-0.1c0.6,0.4,1,0.8,1.3,1.2
		C552.4,317.2,552.7,317.6,553.1,318z M542.5,314.7c-1.6,0.6-3,1.4-4,2.3c-0.6,0.5-1.1,1.1-1.6,1.7s-0.8,1.3-1.2,2.1
		s-0.6,1.5-0.7,2.3s-0.3,1.6-0.3,2.4c0,1.9,0.4,3.7,1.2,5.3c0.8,1.6,2,3,3.5,4c1.6,1.1,3.4,1.7,5.6,1.9c-1.4-0.4-2.7-0.9-3.9-1.6
		c-1.1-0.7-2.1-1.6-3-2.5c-0.8-1-1.4-2.1-1.8-3.3c-0.4-1.2-0.6-2.4-0.6-3.7c0-1.1,0.1-2.2,0.5-3.3c0.4-1.1,0.8-2.2,1.5-3.1
		c0.7-1.1,1.4-1.8,2.2-2.5S541.5,315.4,542.5,314.7z M553.6,314h1.3v7.1h-1c-0.5-1.1-1.1-2-1.6-2.8c-0.6-0.8-1.2-1.4-1.8-2
		c-0.6-0.5-1.3-0.9-2.1-1.2c-0.7-0.3-1.5-0.4-2.3-0.4c-1.1,0-2.1,0.3-3,0.8c-0.9,0.5-1.7,1.2-2.3,2.1c-0.6,0.9-1.1,2.1-1.5,3.3
		c-0.4,1.3-0.6,2.7-0.5,4.2c0,2.1,0.4,4,1.1,5.6c0.7,1.6,1.7,2.9,3,3.7c1.3,0.9,2.7,1.3,4.3,1.3c1,0,1.9-0.1,2.8-0.5
		c0.9-0.4,1.8-0.8,2.6-1.5s1.6-1.5,2.3-2.5l0.9,0.5c-1.2,1.7-2.6,3-4.3,3.9s-3.6,1.3-5.8,1.3c-1.7,0-3.3-0.3-4.7-0.8
		c-1.4-0.6-2.7-1.4-3.7-2.5c-1.1-1.1-1.8-2.3-2.4-3.7c-0.6-1.4-0.8-2.9-0.8-4.5c0-1.7,0.3-3.3,0.9-4.7c0.6-1.5,1.4-2.7,2.5-3.7
		c1.1-1.1,2.3-1.8,3.7-2.4c1.4-0.6,2.9-0.8,4.5-0.8c0.6,0,1.1,0.1,1.6,0.1s1.1,0.2,1.8,0.4c0.7,0.2,1.2,0.3,1.4,0.4s0.6,0.1,0.8,0.1
		C552.4,314.9,553.1,314.6,553.6,314z"/>
	<path fill="#003552" d="M578.9,317.5l0.1,15.8c0,0.8-0.1,1.3-0.3,1.6c-0.1,0.4-0.5,0.6-0.8,0.8h0.5c0.6,0,1-0.1,1.2-0.5
		c0.3-0.4,0.4-0.8,0.4-1.6l-0.1-15.8c0-1-0.1-1.7-0.3-2.2c-0.2-0.5-0.6-0.7-1.4-0.7h-0.5c0.4,0.2,0.8,0.5,0.9,0.8
		C578.8,316.3,578.9,316.8,578.9,317.5z M563.7,317.8l0.1,15.2c0,0.9-0.1,1.6-0.3,2c-0.2,0.4-0.5,0.6-0.8,0.8h0.5
		c0.6,0,1.1-0.2,1.3-0.7c0.3-0.5,0.4-1.2,0.4-2.2v-14.3c0-1-0.1-1.8-0.1-2.2c-0.1-0.5-0.3-0.8-0.6-1c-0.3-0.2-0.8-0.3-1.5-0.3
		c0.4,0.2,0.7,0.5,0.8,0.8C563.5,316.4,563.6,317,563.7,317.8z M575.1,336.7v-0.8c1.1-0.1,1.8-0.1,2.3-0.4c0.4-0.1,0.7-0.4,0.8-0.8
		c0.1-0.4,0.2-1.1,0.2-2v-6.9h-11.3v6.6c0,0.8,0,1.3,0.1,1.8c0.1,0.4,0.2,0.7,0.4,1c0.2,0.2,0.5,0.4,0.9,0.5
		c0.4,0.1,1.1,0.2,1.9,0.3v0.8h-10.6v-0.8c0.8,0,1.3-0.1,1.8-0.1s0.7-0.2,1-0.4c0.2-0.2,0.4-0.6,0.5-0.9c0.1-0.4,0.1-1,0.1-1.7
		l-0.1-14.9c0-1-0.2-1.7-0.7-2c-0.5-0.3-1.3-0.5-2.6-0.6v-0.8h10.6v0.8c-1.1,0-1.8,0.1-2.3,0.4c-0.4,0.2-0.7,0.6-0.8,1
		c-0.1,0.5-0.1,1.2-0.1,2.3v5.8h11.3V318c0-0.8-0.1-1.3-0.3-1.7c-0.1-0.4-0.5-0.6-0.9-0.7c-0.4-0.1-1.1-0.2-2.1-0.3v-0.8h10.6v0.8
		c-1.1,0-1.8,0.1-2.3,0.3s-0.7,0.5-0.8,0.9c-0.1,0.5-0.2,1.3-0.2,2.3v13.9c0,0.8,0.1,1.6,0.2,2c0.1,0.4,0.4,0.8,0.9,1
		c0.5,0.2,1.2,0.3,2.3,0.3v0.8L575.1,336.7z"/>
</g>
<path fill="#003552" d="M442.5,256.1c-2.8-0.9-5.8-2.8-8.5-4.1c-2-1-4-1.4-4.5-3.8c5.9,0.7,12.4,0.9,16,4.1
	C445.6,254.8,442.6,254,442.5,256.1z M442,259.4c-1.4-0.1-2.7,0.8-3.8,0.8c-3.9,0-6.2-4.4-9-5.8c-0.2-0.9-1.3-1.6-1.1-2.5
	c2.6-0.8,5.3,1.3,7.7,2.4c1,0.5,2.1,0.9,3,1.3c1,0.5,2.2,0.9,2.9,1.3c1,0.6,1.3,2.3,2.8,2.1C444.2,260.7,443,259.5,442,259.4z
	 M435.8,268.4c-4.2-0.6-5-4.2-7-7.6c-1.2-2.1-2.4-4.2-3.2-6.1c-0.2-0.2-0.1-0.2,0-0.4C430.5,257.3,437.9,259.8,435.8,268.4z
	 M430.5,270c-2.2-0.5-3.7-3.5-2.1-5.2c-0.2-0.6-1.2-0.5-1.7-0.9c-1.1-2.8-2.2-5.5-3.2-8.3c0-0.1,0.2-0.1,0.3-0.1
	c1.5,2.1,2.9,4.4,4.2,6.6C429.3,264.4,431.2,266.9,430.5,270z M422.5,256.7c1.1,2.1,2.1,4.2,2.8,6.9
	C422.5,263.2,422.8,259.6,422.5,256.7z M421.2,237.6c0.8-4.3,0.3-12.9,2.8-15.8c0.9-1.1,3.3-1.8,4.1,0c0.1,3.5-1.3,5.9-2.6,8.8
	C424.2,233.6,423.3,236.2,421.2,237.6z M421.1,264.7c-1.8,0.6-3,1.8-4.2,2.9c0-2,1.1-4.2,1.3-6.5c1.4-0.7,2.1-2.8,1.6-5
	c0.4,0,0.9,0,1.3,0C421.3,258.7,422.7,262.8,421.1,264.7z M414.7,270.7c-3.8,0.4-6.3-0.6-4.7-4.7c1.2-3.1,4.7-8.3,6.1-10.6
	c0.1,0,0.1,0.1,0.1,0.1c0.4-0.1,0.4,0.2,0.8,0.1C416.7,261,416.2,266.2,414.7,270.7z M406.8,266.7c-0.3-1.8,0.3-4.2-0.9-5.4
	c1.6-1.9,3.7-3.3,5.4-5.2c1.1-0.3,2.5-0.3,3-1.2c-1,2.4-2.8,5.8-4.4,8.7C409.1,265.1,408.7,266.5,406.8,266.7z M400.7,263.2
	c-0.4-1.3-1.1-2.8-1.1-4.1c-0.1-5.9,6.9-6.7,11.1-8.6c0.8,0.3,0.6,1.8,1.3,2.1c-0.6,0.8-1.4,1.3-1.6,2.4
	C407.1,257.5,403.9,260.8,400.7,263.2z M394.9,251.9c-1.2-0.7-1.8-2-3.2-2.4c-0.8,0.2-0.7,2.3-0.3,2.9c-0.7-0.1-1.8-1.1-1.8-2.4
	c1.2-0.6,2.9-0.8,3.7-2c3.1-0.1,6.4,0.1,9.3,0c1-0.1,2-0.4,2.9-0.1c0.7,0.1,1.3,0.8,2,0.9c1.2,0.1,2.2-0.6,3.2-0.1
	c0.4,1.8-2.6,2.1-4.5,2.8C402.4,252.6,398.6,254,394.9,251.9z M405.2,242.1c-1.3-0.6-5.4-2.3-5.2-3.5c0.3-1.4,4-0.9,4.9-1.3
	c1.6,0.1,1.6,1.5,2.1,2.8c0.9,2,3,2.4,4.9,3.7c0.1,0.6-0.4,0.8-0.6,1.2C409.2,244.4,407.9,243.4,405.2,242.1z M417,241.3
	c-1.4-1.7-1.3-4.9-2.4-7C416.5,234.8,416.9,239,417,241.3z M419.6,241c-0.6,0-1.1,0-1.7,0c0.1-2.5-1.3-4.5-0.6-6.7
	c0.5-1.6,2.3-2.3,2.9-3.8C420.5,233.9,419.5,237.3,419.6,241z M413.1,230.2c2.3-1.2,0.6-4.5-1.7-4.5c-0.4-4.7,3.2-5.4,4.7-8.2
	c2.5,1.8,5.2,3.4,5.2,7.7c-0.8,0.7-1.8,0.9-2.4,1.8c-0.7,1.1-0.1,2.8-1.5,3.3c-0.1-1.3-1.7-2.5-2.9-1.5c0.1,0.8-0.3,1.1-0.1,2
	C414,231.1,413.4,230.6,413.1,230.2z M412.7,237.6c-1.5-1.8-2.6-4-4.1-6.4c-0.7-1.1-1.6-1.6-1.3-3.3c1.1-0.8,3.7,0.3,4,1.8
	c-4.7-0.6-0.3,3.7,1.3,4.2C412.9,235.3,412.9,235.9,412.7,237.6z M445.8,246.7c-0.6,0.4-0.6,1.4-1.2,1.8c-5.4,0.1-9.9-1.3-15.2-1.8
	c-0.1-1.1-1-1.3-1.2-2.3c1.8-0.9,3.4-2.4,5.4-2.3c1.8,0.1,3.3,2.1,5.5,1.7c0.2-0.4,0.7-0.6,0.8-1.2c-0.4-0.8-1.9-0.5-2.5-1.2
	c2.7-0.6,0.9-3.3-0.8-3.7c-0.4-1-0.4-2.3-1.8-2.1c-1.3,0.7-0.3,2.3-0.4,3.3c-0.2,1.1-2.1,2.1-3,2.8c-1.4,0.9-3,1.5-4.1,2.1
	c-1-1.2-2.5-1.9-4-2.6c0.7-1.3,0.8-3,1.2-4.7c0.6-2.3,1.8-4.6,2.8-6.9c0.4-1.1,1-2.3,1.5-3.3c0.5-0.9,1.1-2.2,2-2.5
	c-0.2,1.8,1.1,3.6,2.5,2.8c2.3-1.3-1.8-6.4-2.1-7.3c0.3-1.1,1.5-1.3,1.5-2.6c-2.1-1.5-4.5,0.7-7,0.6c-1.9-0.1-3.5-1.5-5.4-0.9
	c-1-0.6-2.1-1.1-3.8-1.1c-1.6-3-2.5,1.1-4.7,1.1c0.3-0.6,0.1-1.6-0.1-2.1c-0.4-0.5-1.3-0.5-2.3-0.4c-1.1,0.7-1.3,2.3-1.7,3.8
	c-1.3-1.1-2.9-4.2-5.2-2.4c-0.6,1.8,1.7,2.8,2.9,3.8c2.5,2.1,4.5,3.3,4.7,6.6c-2.3-1.4-6.1-1.6-7.8,0.6c-0.8,1.2-1.5,5.4,0.8,5
	c0.9-0.1,0.8-1.3,1.5-2c3.8,3.7,6,9,9.3,13.2c-3.1-3-7.4-6.6-10.6-10c-1.1-1.2-2.8-2.5-3.2-3.8c-1.1-2.6,0.1-5.4,0.3-8.2
	c-2-0.2-2.8,1.7-3.3,2.9c-0.7,1.4-1.3,2.8-2.6,3.8c-1.3,1.1-2.9,1.2-3.2,3.2c1.4,1.6,3-0.6,4.4-0.8c4-0.6,5.2,2.5,7.1,4.7
	c-2.3,1.3-5.2,0.8-7,2.3c-0.8,0.7-0.9,2-1.3,3c-0.6,1.4-2.1,3.3-1.5,5.2c2.1-0.2,2.1-2.8,3.8-3.5c1.1-0.5,2.9-0.4,4.2,0.1
	c2.5,0.9,5.7,2.8,7,4.1c-2.1,0.5-4.5,0.5-7,0.6c-2.8,0.1-5.7,0.8-8.1,0.6c-1.2-0.1-2.7-0.3-3.5-1.1c0.4-1.8,2.8-1,3.2-2.6
	c0.1-0.7-0.1-2-1.7-2c-1.8,0-4.8,3.7-4.9,6.5c0,2,1.7,3.6,2.4,5.2c0.6,1.3,1.1,4.2,3.3,3.3c0.5-0.5,0.8-1.6,0.4-2.4
	c2.3,1.4,4.9,3.5,4.5,7c-1.3,0.1-1.8-0.6-3.2-0.4c-1.9,2.1,1.3,3.4,2.4,4.4c-0.1,1.1,0.1,2.1,0.6,2.8c0.9,0.6,1.8-0.4,2.5,0
	c0.6,0.7,0.2,2.2,0.3,3.3c0.6,0.6,1.5,1.3,2.6,0.8c0.8-2.3-0.5-4.6-0.6-6.9c0.6-0.6,1.1-1.2,2-1.3c-0.1,6.6,3.8,9.1,8.8,10.6
	c-1,1.1-4,1.4-3,3.7c4.1-0.1,7.4-1.6,11.7-0.3c2.2-1.6-0.1-1.9-1.6-2.8c-1.4-0.8-2.3-2.6-2.8-3.5c2.2-2.4,4.5-6,9.4-4.7
	c0.7,0.8,1.8,3.1,0.8,4.2c-2.1-0.2-3.3-3.3-5.4-1.8c0.8,2.5,4.6,4.9,7.7,4.5c-0.1,1-0.1,1.3,0.3,2c1.5,0.6,2.3-0.5,3-1.1
	c1.1,0.4,1.3,1.3,2.5,1.2c1.6-0.2,1.1-3,2.4-3.3c1.8-0.5,3.6,0.8,3-1.8c-0.5-0.8-1.3-0.6-1.6-1.3c-0.3-0.9,0.3-4.2,0.8-5.3
	c0.8-1.8,4.7-1.2,6.4-2.1c1.9-1.1,2.3-2.8,3-4.7c0.5-1.3,1.6-2.5,1.7-4.6C448.3,251.2,449.9,246.1,445.8,246.7z"/>
<path fill="#003552" d="M549,368.8l0.6-1.4c-0.4,0.4-0.6,0.6-0.8,0.8c-0.3,0.1-0.6,0.4-1.1,0.6H549z M548.7,358.3h-1.5
	c0.4,0.1,0.8,0.3,1.1,0.5c0.3,0.2,0.6,0.4,1,0.7L548.7,358.3z M547.3,364.1v-1.6c-0.2,0.4-0.6,0.6-1.1,0.8c0.3,0.1,0.6,0.2,0.7,0.3
	S547.3,363.9,547.3,364.1z M541.9,359.6v7.8c0,0.4-0.1,0.7-0.1,0.8c-0.1,0.2-0.2,0.4-0.4,0.5c0.4,0,0.7-0.1,0.8-0.4
	c0.1-0.2,0.2-0.6,0.2-1.1v-7.8c0-0.5-0.1-0.8-0.2-0.9c-0.1-0.1-0.4-0.2-0.8-0.2c0.2,0.1,0.4,0.3,0.4,0.4
	C541.9,359,541.9,359.3,541.9,359.6z M543.7,363.6v3.5c0,0.4,0,0.7,0.1,0.9c0.1,0.2,0.1,0.4,0.3,0.5c0.1,0.1,0.4,0.1,0.6,0.2
	c0.3,0,0.7,0.1,1.1,0.1c0.6,0,1.1-0.1,1.6-0.3c0.5-0.2,0.9-0.4,1.3-0.8c0.4-0.4,0.8-0.8,1.3-1.4h0.6l-1,3h-10v-0.4
	c0.5,0,0.8-0.1,1.1-0.1c0.3-0.1,0.4-0.2,0.6-0.4c0.1-0.1,0.1-0.4,0.1-0.7v-8c0-0.4-0.1-0.6-0.1-0.8c-0.1-0.1-0.3-0.3-0.5-0.4
	c-0.2-0.1-0.6-0.1-1.1-0.1v-0.4h9.6l1,2.6h-0.6c-0.3-0.4-0.7-0.8-1.1-1.1c-0.4-0.4-1-0.6-1.5-0.8c-0.5-0.2-1.1-0.3-1.8-0.3
	c-0.5,0-0.8,0.1-1.1,0.1c-0.3,0.1-0.4,0.3-0.5,0.4c-0.1,0.2-0.1,0.4-0.1,0.8v3.5h1.6c1.4,0,2.1-0.6,2.2-2h0.6v4.3h-0.5
	c-0.1-0.6-0.3-1.1-0.6-1.4c-0.3-0.3-0.8-0.4-1.4-0.4h-2L543.7,363.6L543.7,363.6z M532.8,359.8v8.1c0,0.3-0.1,0.5-0.1,0.6
	c-0.1,0.1-0.3,0.3-0.5,0.4c0.4,0,0.6-0.1,0.8-0.1c0.2-0.1,0.4-0.4,0.4-0.7v-8.6c0-0.4-0.1-0.6-0.2-0.8c-0.1-0.2-0.4-0.3-0.9-0.3
	c0.4,0.2,0.6,0.6,0.6,1.2v0.1L532.8,359.8z M530.9,357.8h5.4v0.4c-0.5,0-0.9,0.1-1.2,0.2c-0.3,0.1-0.4,0.4-0.4,0.7v0.6v0.1v7.5
	c0,0.4,0,0.6,0.1,0.8c0.1,0.2,0.1,0.4,0.3,0.4c0.1,0.1,0.3,0.1,0.4,0.1s0.4,0.1,0.8,0.1v0.4h-5.4v-0.4c0.5,0,0.8-0.1,1.1-0.1
	c0.2-0.1,0.4-0.2,0.5-0.4c0.1-0.2,0.1-0.6,0.1-1V360c0-0.4,0-0.8-0.1-1c-0.1-0.2-0.1-0.4-0.2-0.4c-0.1-0.1-0.3-0.1-0.4-0.2
	c-0.2,0-0.5-0.1-0.9-0.1L530.9,357.8L530.9,357.8L530.9,357.8z M509.2,367l-2.9-7.4c-0.1-0.4-0.3-0.6-0.4-0.8s-0.4-0.2-0.6-0.2
	c-0.1,0-0.3,0-0.4,0c0.3,0.1,0.4,0.2,0.6,0.4c0.1,0.2,0.3,0.4,0.4,0.7l2.9,7.4c0.2,0.4,0.3,0.8,0.3,1c0,0.1,0,0.3-0.1,0.4
	c-0.1,0.1-0.2,0.1-0.4,0.3h0.2c0.3,0,0.4-0.1,0.6-0.2c0.1-0.1,0.2-0.3,0.2-0.5C509.5,367.9,509.4,367.5,509.2,367z M503.9,364.4h3.5
	l-1.7-4.4L503.9,364.4z M501.4,368.8h1.6c-0.4-0.3-0.5-0.6-0.5-1c0-0.1,0-0.2,0-0.3c-0.1,0.3-0.3,0.5-0.4,0.7
	C501.9,368.5,501.7,368.6,501.4,368.8z M508.4,367.3l-0.9-2.3h-3.8l-0.6,1.3c-0.1,0.4-0.2,0.7-0.2,1.1c0,0.4,0.1,0.7,0.4,1
	c0.2,0.3,0.6,0.4,1,0.4v0.4h-3.7v-0.4c0.8-0.1,1.5-0.8,2.1-2.2l2.8-7.2c-0.1-0.3-0.3-0.4-0.5-0.5c-0.1-0.1-0.4-0.1-0.7-0.2v-0.4
	l2-0.6h0.8l3.7,9.5c0.2,0.6,0.4,0.9,0.6,1.1c0.2,0.2,0.6,0.4,1,0.4v0.4h-4.9v-0.4c0.4-0.1,0.7-0.1,0.9-0.2c0.2-0.1,0.3-0.3,0.3-0.5
	C508.7,367.9,508.6,367.6,508.4,367.3z M494.4,367.4v-7.8c0-0.6,0.1-1.1,0.1-1.3c-0.2,0-0.4,0.1-0.5,0.2c-0.1,0.1-0.1,0.3-0.1,0.4
	c0,0.2,0,0.5,0,0.9v7.8c0,0.4-0.1,0.6-0.1,0.8c-0.1,0.1-0.2,0.3-0.5,0.4h0.3c0.4,0,0.6-0.1,0.7-0.4
	C494.4,368.3,494.4,367.9,494.4,367.4z M484.4,358.3h-0.3c0.4,0.1,0.6,0.3,0.8,0.6c0.2,0.2,0.4,0.6,0.6,1.1l3.7,8.9
	c0.1-0.2,0.2-0.4,0.2-0.6c0-0.1-0.1-0.4-0.2-0.6l-3.3-7.8c-0.2-0.5-0.4-0.9-0.6-1.1C485.2,358.4,484.8,358.3,484.4,358.3z
	 M483.8,368.8h1.7c-0.2-0.1-0.4-0.2-0.5-0.4c-0.1-0.2-0.2-0.4-0.3-0.6c-0.1,0.2-0.2,0.4-0.4,0.6
	C484.3,368.5,484.1,368.7,483.8,368.8z M490.2,366.5l3.5-8.7h3.5v0.4c-0.6,0-0.9,0.1-1.1,0.2c-0.2,0.1-0.4,0.4-0.4,0.6
	c-0.1,0.3-0.1,0.7-0.1,1.4v7c0,0.4,0.1,0.6,0.1,0.8c0.1,0.2,0.2,0.3,0.4,0.4c0.2,0.1,0.6,0.1,1,0.1v0.4H492v-0.4
	c0.5,0,0.9-0.1,1.1-0.2c0.2-0.1,0.4-0.3,0.4-0.5c0.1-0.2,0.1-0.6,0.1-1.1V359l-4,10h-0.5l-4-9.7v6.6c0,0.8,0.1,1.3,0.4,1.8
	c0.3,0.4,0.8,0.7,1.4,0.8v0.4h-4.1v-0.4c0.6-0.1,1-0.3,1.3-0.7c0.3-0.4,0.5-0.9,0.5-1.6v-7.5c-0.2-0.2-0.5-0.4-0.8-0.6
	c-0.3-0.1-0.6-0.1-1-0.1v-0.4h3.7L490.2,366.5z M472.4,358.3h-1.8c0.3,0.1,0.5,0.2,0.6,0.4c0.1,0.1,0.3,0.4,0.4,0.6
	C471.8,358.8,472,358.5,472.4,358.3z M462.2,368.8h1.7c-0.2-0.2-0.4-0.4-0.5-0.5s-0.2-0.4-0.3-0.6c-0.1,0.3-0.2,0.5-0.4,0.6
	C462.7,368.5,462.5,368.7,462.2,368.8z M471.1,367.5l-7.3-8.6c-0.1-0.2-0.4-0.4-0.6-0.5c-0.2-0.1-0.5-0.2-0.8-0.2h-0.4
	c0.3,0.1,0.6,0.2,0.7,0.4c0.1,0.1,0.4,0.4,0.7,0.8l8.3,9.7v-0.4c0-0.1,0-0.3-0.1-0.4l-0.1-0.3C471.5,368,471.3,367.8,471.1,367.5z
	 M469.6,358.3v-0.4h4.3v0.4c-0.4,0-0.7,0.1-0.9,0.2c-0.3,0.1-0.5,0.4-0.6,0.6c-0.1,0.3-0.2,0.6-0.2,1.1l0.1,9.3h-0.5l-8.3-9.7
	l0.1,6.5c0,0.4,0.1,0.8,0.1,1c0.1,0.3,0.1,0.5,0.3,0.7c0.1,0.2,0.4,0.4,0.6,0.5c0.3,0.1,0.6,0.2,1,0.2v0.4h-4.3v-0.4
	c0.6-0.1,1-0.2,1.3-0.4c0.3-0.3,0.4-0.6,0.5-1c0.1-0.4,0.1-0.8,0.1-1.5l-0.1-6.6c-0.3-0.4-0.6-0.6-0.9-0.8c-0.3-0.1-0.6-0.3-0.9-0.3
	l-0.1-0.4h3.3l7.3,8.6l-0.1-5.7c0-0.4-0.1-0.8-0.1-1.1c-0.1-0.3-0.2-0.6-0.4-0.7c-0.1-0.1-0.4-0.3-0.6-0.4
	C470.1,358.3,469.8,358.3,469.6,358.3z M453.4,358.2c0.6,0.4,1.1,0.8,1.6,1.3c0.4,0.6,0.8,1.3,1,2.1c0.2,0.8,0.4,1.7,0.4,2.6
	s-0.1,1.7-0.4,2.3c-0.2,0.6-0.6,1.3-1.1,1.8c0.4-0.4,0.8-0.7,1.1-1.1c0.3-0.4,0.5-0.9,0.6-1.4c0.1-0.6,0.2-1.1,0.2-1.8
	c0-1-0.1-1.8-0.4-2.7c-0.3-0.8-0.6-1.5-1.1-2.1C454.8,358.7,454.1,358.3,453.4,358.2z M448.5,362.7c0,0.9,0.1,1.8,0.3,2.6
	c0.2,0.8,0.5,1.5,0.8,2.1c0.4,0.6,0.8,1,1.3,1.3c0.5,0.3,1.1,0.4,1.6,0.4c0.5,0,0.9-0.1,1.4-0.3c0.4-0.2,0.8-0.5,1.1-0.9
	c0.4-0.4,0.6-0.9,0.8-1.6s0.3-1.3,0.3-2.1c0-0.9-0.1-1.7-0.3-2.5c-0.2-0.8-0.5-1.4-0.8-1.9c-0.4-0.5-0.8-0.9-1.3-1.2
	c-0.5-0.3-1.1-0.4-1.6-0.4c-0.5,0-1,0.1-1.4,0.4c-0.4,0.2-0.8,0.5-1.1,0.9c-0.3,0.4-0.6,0.9-0.7,1.4
	C448.6,361.3,448.5,361.9,448.5,362.7z M449.2,358.5c-0.9,0.6-1.6,1.3-2.1,2.1c-0.5,0.8-0.7,1.8-0.7,2.9c0,0.9,0.1,1.7,0.4,2.5
	c0.3,0.7,0.8,1.3,1.3,1.9c0.6,0.5,1.3,0.9,2.2,1.2c-1.1-0.6-1.9-1.3-2.5-2.3c-0.6-0.9-0.9-2.1-0.9-3.5c0-0.7,0.1-1.3,0.3-1.8
	c0.1-0.6,0.4-1.1,0.8-1.6C448.3,359.5,448.7,359,449.2,358.5z M446.2,363.5c0-0.5,0.1-0.9,0.1-1.4c0.1-0.4,0.2-0.8,0.4-1.3
	c0.2-0.4,0.4-0.8,0.7-1.1c0.3-0.4,0.6-0.6,0.9-0.9c0.4-0.3,0.7-0.5,1.1-0.7c0.4-0.2,0.8-0.3,1.3-0.4c0.5-0.1,1-0.1,1.6-0.1
	c0.9,0,1.8,0.1,2.5,0.5c0.8,0.3,1.4,0.7,1.9,1.3c0.5,0.6,0.9,1.2,1.2,1.9c0.3,0.7,0.4,1.5,0.4,2.3c0,0.8-0.1,1.6-0.5,2.4
	c-0.3,0.7-0.8,1.3-1.3,1.9s-1.3,1-2,1.3c-0.8,0.3-1.6,0.4-2.5,0.4c-0.8,0-1.6-0.1-2.3-0.4c-0.7-0.3-1.3-0.7-1.8-1.2
	c-0.5-0.6-0.9-1.1-1.2-1.9C446.4,365.1,446.2,364.4,446.2,363.5z M440.4,368.8h1.5l0.7-1.6c-0.3,0.4-0.6,0.7-1,0.9
	C441.3,368.4,440.9,368.7,440.4,368.8z M435,359.5v8.3c0,0.3-0.1,0.5-0.1,0.6c-0.1,0.1-0.2,0.3-0.4,0.4h0.1h0.1
	c0.6,0,0.8-0.4,0.8-1.2v-7.8c0-0.6-0.1-0.9-0.1-1.2c-0.1-0.3-0.4-0.4-0.7-0.4h-0.2c0.2,0.1,0.4,0.3,0.4,0.4
	C434.9,358.8,435,359.1,435,359.5z M432.9,358.3v-0.4h5.7v0.4h-0.3c-0.4,0-0.8,0.1-1,0.1s-0.4,0.2-0.5,0.4c-0.1,0.2-0.1,0.5-0.1,0.8
	v7.9c0,0.3,0.1,0.6,0.1,0.7s0.3,0.3,0.6,0.4c0.3,0.1,0.6,0.1,1.2,0.1c0.4,0,0.8,0,1.2-0.1c0.4-0.1,0.7-0.2,1.1-0.4
	c0.4-0.2,0.7-0.4,1.1-0.8c0.4-0.4,0.8-0.7,1.1-1.2h0.8l-1.1,2.9h-9.8v-0.4c0.6,0,0.9-0.1,1.2-0.1c0.2-0.1,0.4-0.2,0.5-0.4
	c0.1-0.2,0.1-0.5,0.1-0.8v-7.6c0-0.4-0.1-0.7-0.1-0.9c-0.1-0.2-0.2-0.4-0.5-0.4C433.8,358.3,433.4,358.3,432.9,358.3z M427.9,368.8
	l0.6-1.4c-0.4,0.4-0.6,0.6-0.8,0.8c-0.3,0.1-0.6,0.4-1.1,0.6H427.9z M427.6,358.3h-1.5c0.4,0.1,0.8,0.3,1.1,0.5
	c0.3,0.2,0.6,0.4,1,0.7L427.6,358.3z M426.2,364.1v-1.6c-0.2,0.4-0.6,0.6-1.1,0.8c0.3,0.1,0.6,0.2,0.7,0.3S426.1,363.9,426.2,364.1z
	 M420.8,359.6v7.8c0,0.4-0.1,0.7-0.1,0.8c-0.1,0.2-0.2,0.4-0.4,0.5c0.4,0,0.7-0.1,0.8-0.4c0.1-0.2,0.2-0.6,0.2-1.1v-7.8
	c0-0.5-0.1-0.8-0.2-0.9c-0.1-0.1-0.4-0.2-0.8-0.2c0.2,0.1,0.4,0.3,0.4,0.4C420.7,359,420.8,359.3,420.8,359.6z M422.5,363.6v3.5
	c0,0.4,0,0.7,0.1,0.9c0.1,0.2,0.1,0.4,0.3,0.5c0.1,0.1,0.4,0.1,0.6,0.2c0.3,0,0.7,0.1,1.1,0.1c0.6,0,1.1-0.1,1.6-0.3
	c0.5-0.2,0.9-0.4,1.3-0.8c0.4-0.4,0.8-0.8,1.3-1.4h0.6l-1,3h-10v-0.4c0.5,0,0.8-0.1,1.1-0.1c0.3-0.1,0.4-0.2,0.6-0.4
	c0.1-0.1,0.1-0.4,0.1-0.7v-8c0-0.4-0.1-0.6-0.1-0.8c-0.1-0.1-0.3-0.3-0.5-0.4c-0.2-0.1-0.6-0.1-1.1-0.1v-0.4h9.5l1,2.6h-0.6
	c-0.3-0.4-0.7-0.8-1.1-1.1c-0.4-0.4-1-0.6-1.5-0.8c-0.6-0.2-1.1-0.3-1.8-0.3c-0.5,0-0.8,0.1-1.1,0.1c-0.3,0.1-0.4,0.3-0.5,0.4
	c-0.1,0.2-0.1,0.4-0.1,0.8v3.5h1.6c1.4,0,2.1-0.6,2.2-2h0.6v4.3h-0.5c-0.1-0.6-0.3-1.1-0.6-1.4c-0.3-0.3-0.8-0.4-1.4-0.4h-1.9
	L422.5,363.6L422.5,363.6z M413.3,359.9l-0.3-1.6c-0.2,0.1-0.4,0.1-0.6,0.1c-0.2,0-0.4,0-0.6-0.1c0.2,0.1,0.4,0.3,0.6,0.5
	c0.1,0.1,0.4,0.4,0.5,0.6C413.1,359.7,413.2,359.8,413.3,359.9z M407.1,366.7v2.2c0.1-0.2,0.3-0.4,0.4-0.4s0.4-0.1,0.6-0.1l-0.4-0.5
	c-0.1-0.1-0.1-0.3-0.3-0.4C407.4,367.3,407.3,367,407.1,366.7z M407.1,360c-0.1,0.4-0.1,0.8-0.1,1c0,0.3,0.1,0.6,0.1,0.8
	c0.1,0.3,0.2,0.6,0.4,0.8s0.4,0.5,0.6,0.6c0.4,0.2,0.6,0.4,1.1,0.5c0.4,0.1,0.9,0.2,1.7,0.3c0.7,0.1,1.3,0.2,1.6,0.4
	c0.5,0.2,0.9,0.5,1.2,0.8c0.3,0.4,0.4,0.8,0.4,1.3c0,0.4-0.1,0.8-0.4,1.2c0.4-0.4,0.6-1,0.6-1.6c0-0.6-0.1-1.1-0.5-1.5
	c-0.4-0.4-0.7-0.6-1.2-0.8c-0.5-0.1-1.1-0.4-2-0.5l-1.3-0.2c-0.8-0.2-1.3-0.6-1.8-1.1c-0.4-0.5-0.6-1.1-0.6-1.7v-0.3V360z
	 M406.8,365.1h0.6c0.3,0.8,0.6,1.6,1.1,2.1c0.4,0.6,0.8,1,1.3,1.3c0.5,0.3,1,0.4,1.6,0.4c0.7,0,1.3-0.2,1.8-0.6
	c0.5-0.4,0.7-1,0.7-1.6s-0.1-1.1-0.5-1.4c-0.4-0.4-0.7-0.6-1.1-0.7c-0.4-0.1-1.1-0.3-1.8-0.4c-0.7-0.1-1.3-0.2-1.6-0.4
	c-0.5-0.1-0.8-0.4-1.2-0.6c-0.4-0.3-0.6-0.6-0.8-1c-0.1-0.4-0.3-0.8-0.3-1.3c0-0.4,0.1-0.8,0.2-1.3c0.1-0.4,0.4-0.8,0.6-1.1
	c0.3-0.3,0.6-0.6,1-0.7c0.4-0.2,0.8-0.3,1.3-0.3c0.4,0,0.8,0.1,1.3,0.1c0.5,0.1,0.8,0.1,1.1,0.1c0.3,0,0.6-0.1,0.8-0.2h0.6l0.4,3.3
	h-0.6c-0.6-1-1.1-1.8-1.7-2.3c-0.6-0.5-1.3-0.8-2.1-0.8c-0.4,0-0.8,0.1-1.1,0.3c-0.4,0.2-0.6,0.4-0.8,0.8c-0.2,0.4-0.3,0.7-0.3,1.1
	c0,0.6,0.2,1,0.6,1.3c0.4,0.3,0.9,0.5,1.6,0.6c0.7,0.1,1.3,0.3,1.9,0.4c0.6,0.1,1,0.2,1.3,0.4c0.6,0.3,1.1,0.7,1.4,1.3
	c0.4,0.6,0.5,1.1,0.5,1.8c0,0.6-0.1,1.3-0.5,1.8c-0.3,0.6-0.8,1-1.3,1.3c-0.6,0.4-1.2,0.5-1.9,0.5c-0.4,0-0.7,0-0.9-0.1
	c-0.2-0.1-0.6-0.1-1.1-0.4c-0.5-0.1-0.8-0.3-1.1-0.3c-0.4,0-0.8,0.1-1.1,0.5h-0.5v-4.2L406.8,365.1L406.8,365.1z M394,368.8l0.6-1.4
	c-0.4,0.4-0.6,0.6-0.8,0.8c-0.3,0.1-0.6,0.4-1.1,0.6H394z M393.7,358.3h-1.5c0.4,0.1,0.8,0.3,1.1,0.5c0.3,0.2,0.6,0.4,1,0.7
	L393.7,358.3z M392.3,364.1v-1.6c-0.2,0.4-0.6,0.6-1.1,0.8c0.3,0.1,0.6,0.2,0.7,0.3C392.1,363.7,392.3,363.9,392.3,364.1z
	 M386.9,359.6v7.8c0,0.4-0.1,0.7-0.1,0.8c-0.1,0.2-0.2,0.4-0.4,0.5c0.4,0,0.7-0.1,0.8-0.4c0.1-0.2,0.2-0.6,0.2-1.1v-7.8
	c0-0.5-0.1-0.8-0.2-0.9c-0.1-0.1-0.4-0.2-0.8-0.2c0.2,0.1,0.4,0.3,0.4,0.4C386.9,359,386.9,359.3,386.9,359.6z M388.7,363.6v3.5
	c0,0.4,0,0.7,0.1,0.9c0.1,0.2,0.1,0.4,0.3,0.5c0.1,0.1,0.4,0.1,0.6,0.2c0.3,0,0.7,0.1,1.1,0.1c0.6,0,1.1-0.1,1.6-0.3
	c0.5-0.2,0.9-0.4,1.3-0.8c0.4-0.4,0.8-0.8,1.3-1.4h0.6l-1,3h-10v-0.4c0.5,0,0.8-0.1,1.1-0.1c0.3-0.1,0.4-0.2,0.6-0.4
	c0.1-0.1,0.1-0.4,0.1-0.7v-8c0-0.4-0.1-0.6-0.1-0.8c-0.1-0.1-0.3-0.3-0.5-0.4c-0.2-0.1-0.6-0.1-1.1-0.1v-0.4h9.6l1,2.6h-0.6
	c-0.3-0.4-0.7-0.8-1.1-1.1c-0.4-0.4-1-0.6-1.5-0.8c-0.6-0.2-1.1-0.3-1.8-0.3c-0.5,0-0.8,0.1-1.1,0.1s-0.4,0.3-0.5,0.4
	c-0.1,0.2-0.1,0.4-0.1,0.8v3.5h1.6c1.4,0,2.1-0.6,2.2-2h0.6v4.3h-0.5c-0.1-0.6-0.3-1.1-0.6-1.4c-0.3-0.3-0.8-0.4-1.4-0.4h-2V363.6z
	 M378.6,367.4v-7.8c0-0.6,0.1-1.1,0.1-1.3c-0.2,0-0.4,0.1-0.5,0.2c-0.1,0.1-0.1,0.3-0.1,0.4c0,0.2,0,0.5,0,0.9v7.8
	c0,0.4-0.1,0.6-0.1,0.8c-0.1,0.1-0.2,0.3-0.5,0.4h0.3c0.4,0,0.6-0.1,0.7-0.4C378.5,368.3,378.6,367.9,378.6,367.4z M368.6,358.3
	h-0.3c0.4,0.1,0.6,0.3,0.8,0.6c0.2,0.2,0.4,0.6,0.6,1.1l3.7,8.9c0.1-0.2,0.2-0.4,0.2-0.6c0-0.1-0.1-0.4-0.2-0.6l-3.3-7.8
	c-0.2-0.5-0.4-0.9-0.6-1.1C369.3,358.4,369,358.3,368.6,358.3z M368,368.8h1.7c-0.2-0.1-0.4-0.2-0.5-0.4c-0.1-0.2-0.2-0.4-0.3-0.6
	c-0.1,0.2-0.2,0.4-0.4,0.6C368.4,368.5,368.2,368.7,368,368.8z M374.3,366.5l3.5-8.7h3.5v0.4c-0.6,0-0.9,0.1-1.1,0.2
	s-0.4,0.4-0.4,0.6c-0.1,0.3-0.1,0.7-0.1,1.4v7c0,0.4,0.1,0.6,0.1,0.8c0.1,0.2,0.2,0.3,0.4,0.4c0.2,0.1,0.6,0.1,1,0.1v0.4h-5.2v-0.4
	c0.5,0,0.9-0.1,1.1-0.2s0.4-0.3,0.4-0.5c0.1-0.2,0.1-0.6,0.1-1.1V359l-4,10h-0.5l-4-9.7v6.6c0,0.8,0.1,1.3,0.4,1.8
	c0.3,0.4,0.8,0.7,1.4,0.8v0.4H367v-0.4c0.6-0.1,1-0.3,1.3-0.7c0.3-0.4,0.5-0.9,0.5-1.6v-7.5c-0.2-0.2-0.5-0.4-0.8-0.6
	c-0.3-0.1-0.6-0.1-1-0.1v-0.4h3.7L374.3,366.5z M360.7,367.4v-7.8c0-0.6,0.1-1.1,0.1-1.3c-0.2,0-0.4,0.1-0.5,0.2
	c-0.1,0.1-0.1,0.3-0.1,0.4c0,0.2,0,0.5,0,0.9v7.8c0,0.4-0.1,0.6-0.1,0.8c-0.1,0.1-0.2,0.3-0.5,0.4h0.3c0.4,0,0.6-0.1,0.7-0.4
	C360.6,368.3,360.7,367.9,360.7,367.4z M350.7,358.3h-0.3c0.4,0.1,0.6,0.3,0.8,0.6c0.2,0.2,0.4,0.6,0.6,1.1l3.7,8.9
	c0.1-0.2,0.2-0.4,0.2-0.6c0-0.1-0.1-0.4-0.2-0.6l-3.3-7.8c-0.2-0.5-0.4-0.9-0.6-1.1C351.5,358.4,351.1,358.3,350.7,358.3z
	 M350.1,368.8h1.7c-0.2-0.1-0.4-0.2-0.5-0.4c-0.1-0.2-0.2-0.4-0.3-0.6c-0.1,0.2-0.2,0.4-0.4,0.6
	C350.6,368.5,350.3,368.7,350.1,368.8z M356.4,366.5l3.5-8.7h3.5v0.4c-0.6,0-0.9,0.1-1.1,0.2c-0.2,0.1-0.4,0.4-0.4,0.6
	c-0.1,0.3-0.1,0.7-0.1,1.4v7c0,0.4,0.1,0.6,0.1,0.8c0.1,0.2,0.3,0.3,0.4,0.4c0.2,0.1,0.6,0.1,1,0.1v0.4h-5.2v-0.4
	c0.5,0,0.9-0.1,1.1-0.2s0.4-0.3,0.4-0.5c0.1-0.2,0.1-0.6,0.1-1.1V359l-4,10h-0.5l-4-9.7v6.6c0,0.8,0.1,1.3,0.4,1.8
	c0.3,0.4,0.8,0.7,1.4,0.8v0.4h-4.1v-0.4c0.6-0.1,1-0.3,1.3-0.7c0.3-0.4,0.5-0.9,0.5-1.6v-7.5c-0.2-0.2-0.5-0.4-0.8-0.6
	c-0.3-0.1-0.6-0.1-1-0.1v-0.4h3.7L356.4,366.5z M344.2,368.8l0.6-1.4c-0.4,0.4-0.6,0.6-0.8,0.8c-0.3,0.1-0.6,0.4-1.1,0.6H344.2z
	 M343.8,358.3h-1.5c0.4,0.1,0.8,0.3,1.1,0.5s0.6,0.4,1,0.7L343.8,358.3z M342.5,364.1v-1.6c-0.2,0.4-0.6,0.6-1.1,0.8
	c0.3,0.1,0.6,0.2,0.7,0.3C342.3,363.7,342.4,363.9,342.5,364.1z M337.1,359.6v7.8c0,0.4-0.1,0.7-0.1,0.8c-0.1,0.2-0.2,0.4-0.4,0.5
	c0.4,0,0.7-0.1,0.8-0.4c0.1-0.2,0.2-0.6,0.2-1.1v-7.8c0-0.5-0.1-0.8-0.2-0.9c-0.1-0.1-0.4-0.2-0.8-0.2c0.2,0.1,0.4,0.3,0.4,0.4
	C337.1,359,337.1,359.3,337.1,359.6z M338.8,363.6v3.5c0,0.4,0,0.7,0.1,0.9c0.1,0.2,0.1,0.4,0.3,0.5s0.4,0.1,0.6,0.2
	c0.3,0,0.7,0.1,1.1,0.1c0.6,0,1.1-0.1,1.6-0.3c0.5-0.2,0.9-0.4,1.3-0.8c0.4-0.4,0.8-0.8,1.3-1.4h0.6l-1,3h-10v-0.4
	c0.5,0,0.8-0.1,1.1-0.1c0.3-0.1,0.4-0.2,0.6-0.4c0.1-0.1,0.1-0.4,0.1-0.7v-8c0-0.4-0.1-0.6-0.1-0.8c-0.1-0.1-0.3-0.3-0.5-0.4
	s-0.6-0.1-1.1-0.1v-0.4h9.6l1,2.6H345c-0.3-0.4-0.7-0.8-1.1-1.1c-0.4-0.4-1-0.6-1.5-0.8c-0.6-0.2-1.1-0.3-1.8-0.3
	c-0.5,0-0.8,0.1-1.1,0.1c-0.3,0.1-0.4,0.3-0.5,0.4c-0.1,0.2-0.1,0.4-0.1,0.8v3.5h1.6c1.4,0,2.1-0.6,2.2-2h0.6v4.3h-0.6
	c-0.1-0.6-0.3-1.1-0.6-1.4c-0.3-0.3-0.8-0.4-1.4-0.4h-1.9V363.6z M330.9,359.6l-0.8-1.3h-1.6c0.4,0.1,0.6,0.2,0.9,0.4
	s0.5,0.3,0.6,0.4C330.3,359.2,330.5,359.3,330.9,359.6z M329,364.1v-1.7c-0.1,0.2-0.3,0.4-0.4,0.5c-0.1,0.1-0.4,0.2-0.7,0.4
	c0.4,0.1,0.6,0.2,0.8,0.3C328.7,363.7,328.8,363.9,329,364.1z M324,367.7v-7.6c0-0.6,0-1-0.1-1.2c-0.1-0.3-0.1-0.4-0.3-0.6
	c-0.1-0.1-0.4-0.1-0.8-0.1c0.3,0.1,0.5,0.3,0.6,0.4c0.1,0.2,0.1,0.6,0.1,1.1v7.6c0,0.4,0,0.6-0.1,0.8c0,0.1-0.1,0.3-0.1,0.4
	c-0.1,0.1-0.2,0.2-0.4,0.3c0.4,0,0.7-0.1,0.8-0.2C323.9,368.5,324,368.2,324,367.7z M321.4,357.8h9.5l1,2.6h-0.6
	c-0.4-0.4-0.7-0.7-1.1-1c-0.4-0.3-0.8-0.6-1.2-0.7c-0.4-0.2-0.8-0.3-1.1-0.4c-0.3-0.1-0.6-0.1-1-0.1c-0.6,0-0.9,0.1-1.1,0.1
	s-0.4,0.3-0.4,0.6c-0.1,0.3-0.1,0.7-0.1,1.3v2.8h1.5c0.8,0,1.3-0.1,1.7-0.5c0.4-0.4,0.6-0.8,0.6-1.6h0.6v4.3h-0.6
	c-0.1-0.6-0.1-0.9-0.3-1.2c-0.1-0.3-0.4-0.4-0.7-0.5c-0.3-0.1-0.8-0.1-1.3-0.1h-1.4v4c0,0.5,0.1,0.8,0.4,1c0.3,0.2,0.7,0.3,1.4,0.3
	h0.2v0.4h-5.9v-0.4c0.5,0,0.9-0.1,1.1-0.1c0.2-0.1,0.4-0.3,0.5-0.5c0.1-0.2,0.1-0.6,0.1-1v-7.1v-0.4c0-0.5-0.1-0.9-0.3-1.1
	c-0.2-0.2-0.6-0.4-1.3-0.4h-0.2L321.4,357.8L321.4,357.8z M308.5,367l-2.9-7.4c-0.1-0.4-0.3-0.6-0.4-0.8s-0.4-0.2-0.6-0.2
	c-0.1,0-0.3,0-0.4,0c0.3,0.1,0.4,0.2,0.6,0.4c0.1,0.2,0.3,0.4,0.4,0.7l2.9,7.4c0.2,0.4,0.3,0.8,0.3,1c0,0.1,0,0.3-0.1,0.4
	c-0.1,0.1-0.2,0.1-0.4,0.3h0.2c0.3,0,0.4-0.1,0.6-0.2s0.2-0.3,0.2-0.5C308.8,367.9,308.7,367.5,308.5,367z M303.2,364.4h3.5L305,360
	L303.2,364.4z M300.7,368.8h1.6c-0.4-0.3-0.5-0.6-0.5-1c0-0.1,0-0.2,0-0.3c-0.1,0.3-0.3,0.5-0.4,0.7
	C301.1,368.5,301,368.6,300.7,368.8z M307.8,367.3l-0.9-2.3H303l-0.6,1.3c-0.1,0.4-0.2,0.7-0.2,1.1c0,0.4,0.1,0.7,0.4,1
	c0.2,0.3,0.6,0.4,1,0.4v0.4h-3.7v-0.4c0.8-0.1,1.5-0.8,2.1-2.2l2.8-7.2c-0.1-0.3-0.3-0.4-0.5-0.5c-0.1-0.1-0.4-0.1-0.7-0.2v-0.4
	l2-0.6h0.8l3.7,9.5c0.2,0.6,0.4,0.9,0.6,1.1c0.2,0.2,0.6,0.4,1,0.4v0.4h-4.8v-0.4c0.4-0.1,0.7-0.1,0.9-0.2c0.2-0.1,0.3-0.3,0.3-0.5
	C308,367.9,307.9,367.6,307.8,367.3z M293.6,368.8h1.5l0.7-1.6c-0.3,0.4-0.6,0.7-1,0.9C294.5,368.4,294.1,368.7,293.6,368.8z
	 M288.1,359.5v8.3c0,0.3-0.1,0.5-0.1,0.6c-0.1,0.1-0.2,0.3-0.4,0.4h0.1h0.1c0.6,0,0.8-0.4,0.8-1.2v-7.8c0-0.6-0.1-0.9-0.1-1.2
	c-0.1-0.3-0.4-0.4-0.7-0.4h-0.3c0.2,0.1,0.4,0.3,0.4,0.4C288.1,358.8,288.1,359.1,288.1,359.5z M286.1,358.3v-0.4h5.7v0.4h-0.3
	c-0.4,0-0.8,0.1-1,0.1s-0.4,0.2-0.5,0.4c-0.1,0.2-0.1,0.5-0.1,0.8v7.9c0,0.3,0.1,0.6,0.1,0.7s0.3,0.3,0.6,0.4s0.6,0.1,1.2,0.1
	c0.4,0,0.8,0,1.2-0.1c0.4-0.1,0.7-0.2,1.1-0.4c0.4-0.2,0.7-0.4,1.1-0.8c0.4-0.4,0.8-0.7,1.1-1.2h0.8l-1.1,2.9h-9.8v-0.4
	c0.6,0,0.9-0.1,1.2-0.1c0.2-0.1,0.4-0.2,0.5-0.4c0.1-0.2,0.1-0.5,0.1-0.8v-7.6c0-0.4-0.1-0.7-0.1-0.9c-0.1-0.2-0.2-0.4-0.5-0.4
	C287,358.3,286.6,358.3,286.1,358.3z M521,369.3h-5.6v-0.4c0.5,0,0.9-0.1,1.2-0.1c0.3-0.1,0.4-0.2,0.5-0.4c0.1-0.2,0.1-0.5,0.1-0.9
	v-7.6c0-0.4-0.1-0.8-0.1-1c-0.1-0.2-0.3-0.4-0.5-0.4s-0.6-0.1-1.2-0.1v-0.4h6.4c0.8,0,1.5,0.1,2.1,0.4c0.6,0.3,1.1,0.6,1.3,1.1
	c0.3,0.5,0.5,1,0.5,1.5c0,0.4-0.1,0.7-0.2,1.1c-0.1,0.4-0.4,0.6-0.6,0.9c-0.3,0.3-0.6,0.5-1,0.7c-0.4,0.2-0.8,0.4-1.3,0.4
	c0.4,0.4,0.8,0.9,1.4,1.6l0.8,0.9l0.1,0.2l0.3,0.3l0.6,0.8c0.2,0.2,0.4,0.4,0.5,0.6c0.2,0.1,0.4,0.3,0.5,0.4
	c0.1,0.1,0.4,0.1,0.6,0.2v0.4H526c-0.4,0-0.7-0.1-1-0.2c-0.3-0.1-0.6-0.4-0.9-0.6s-0.6-0.6-1-1.1l-1.1-1.4c-0.5-0.7-0.9-1.1-1.2-1.4
	s-0.5-0.4-0.6-0.4h-0.9v3.5c0,0.4,0.1,0.6,0.1,0.8c0.1,0.2,0.3,0.4,0.6,0.4c0.1,0.1,0.4,0.1,0.6,0.1c0.2,0,0.4,0.1,0.5,0L521,369.3
	L521,369.3z M517.5,359.8v8c0,0.5-0.2,0.8-0.6,1.1c0.7,0,1.1-0.3,1.1-0.8v-8.2c0-0.4,0-0.7-0.1-0.9c-0.1-0.2-0.1-0.4-0.3-0.5
	c-0.1-0.1-0.4-0.1-0.8-0.1c0.3,0.1,0.4,0.3,0.5,0.5C517.5,359,517.5,359.3,517.5,359.8z M519.3,359.9v3.7h1.3c0.4,0,0.8-0.1,1.3-0.2
	c0.4-0.1,0.8-0.4,1-0.6c0.4-0.4,0.6-1.1,0.6-1.9c0-1-0.4-1.8-1.1-2.3c-0.2-0.1-0.5-0.3-0.8-0.4c-0.3-0.1-0.6-0.1-1-0.1
	c-0.4,0-0.7,0.1-0.9,0.1c-0.2,0.1-0.4,0.3-0.4,0.5C519.3,359.2,519.3,359.5,519.3,359.9z M521.4,364h-0.6c0.2,0.1,0.4,0.4,0.6,0.6
	c0.3,0.3,0.6,0.7,1,1.2l1.2,1.5c0.4,0.5,0.7,0.8,1,1.1c0.3,0.2,0.6,0.4,0.8,0.5c0.2,0.1,0.5,0.1,0.8,0.1c-0.4-0.1-0.6-0.4-1-0.6
	c-0.3-0.3-0.6-0.6-1-1.1l-1.1-1.4c-0.4-0.5-0.8-0.9-1.1-1.3l-0.2-0.3C521.6,364.2,521.5,364.1,521.4,364z M522.1,363.5
	c0.7-0.1,1.3-0.4,1.7-0.8s0.6-1.1,0.6-1.8s-0.1-1.3-0.5-1.8c-0.4-0.4-0.8-0.7-1.5-0.8c0.5,0.3,0.8,0.6,1.1,1c0.2,0.4,0.4,1,0.4,1.7
	c0,0.7-0.1,1.3-0.4,1.6C523.1,363,522.7,363.3,522.1,363.5z"/>
</svg>
