<?xml version="1.0" encoding="utf-8"?>
<!-- Generator: Adobe Illustrator 17.1.0, SVG Export Plug-In . SVG Version: 6.00 Build 0)  -->
<!DOCTYPE svg PUBLIC "-//W3C//DTD SVG 1.1//EN" "http://www.w3.org/Graphics/SVG/1.1/DTD/svg11.dtd">
<svg version="1.1" id="Calque_1" xmlns="http://www.w3.org/2000/svg" xmlns:xlink="http://www.w3.org/1999/xlink" x="0px" y="0px"
	 viewBox="0 0 595.3 841.9" enable-background="new 0 0 595.3 841.9" xml:space="preserve">
<path fill="#1D1D1B" stroke="#1D1D1B" stroke-width="0.3" d="M527.9,398.6c2.4,0,4.3,1.7,4.3,3.8c0,2.1-1.9,3.8-4.3,3.8
	c-2.4,0-4.3-1.7-4.3-3.8C523.6,400.3,525.5,398.6,527.9,398.6L527.9,398.6z M527.9,399.1c-2.1,0-3.8,1.5-3.8,3.4s1.7,3.4,3.8,3.4
	s3.8-1.5,3.8-3.4S530,399.1,527.9,399.1L527.9,399.1z M530,404.6c-0.2,0-0.4,0-0.6,0c-0.2,0-0.4,0-0.6,0c-1.2-2-1.2-2-1.3-2
	c0,0,0,0,0,0.2c0,0.6,0,1.6,0.1,1.8c-0.2,0-0.4,0-0.6,0c-0.2,0-0.4,0-0.6,0c0-0.2,0.1-0.8,0.1-2.4c0-1.3,0-1.7-0.1-2
	c0.3,0,0.6,0,0.9,0c0.2,0,0.5,0,1,0c0.9,0,1.4,0.5,1.4,1.1c0,0.6-0.5,1.1-1.2,1.2L530,404.6L530,404.6z M527.8,400.5h-0.4
	c0,0.8,0,1.3,0,1.8c0.3,0,1.1,0,1.1-1C528.5,400.8,528.1,400.5,527.8,400.5L527.8,400.5z"/>
<g>
	<path d="M89.6,472.1l-0.1-21.7c0-1.8,0.1-3,0.4-3.6c-0.6,0-1,0.2-1.3,0.5s-0.4,0.7-0.5,1.2C88,449,88,449.9,88,451l0.1,21.7
		c0,1.1-0.1,1.8-0.3,2.2c-0.2,0.4-0.7,0.8-1.3,1.2h0.8c1,0,1.7-0.3,1.9-0.9C89.5,474.6,89.6,473.6,89.6,472.1z M61.9,446.9h-0.8
		c0.9,0.4,1.7,0.9,2.2,1.5c0.5,0.6,1.1,1.6,1.6,3l10.5,24.7c0.3-0.6,0.5-1.1,0.5-1.6c0-0.4-0.2-1-0.5-1.8l-9-21.7
		c-0.6-1.4-1.1-2.5-1.8-3.1C64,447.3,63.1,446.9,61.9,446.9z M60.2,476.2h4.7c-0.5-0.3-1-0.7-1.3-1.2c-0.3-0.5-0.6-1.1-0.8-1.8
		c-0.2,0.6-0.5,1.2-1,1.6C61.5,475.3,60.9,475.8,60.2,476.2z M77.9,469.7l9.8-24.1h9.7v1.2c-1.5,0-2.6,0.2-3.2,0.6
		c-0.6,0.4-1,0.9-1.1,1.6c-0.1,0.7-0.2,2-0.2,3.9l0.1,19.4c0,1,0.1,1.7,0.4,2.2c0.3,0.5,0.7,0.9,1.3,1.1s1.5,0.3,2.8,0.4v1.2H83V476
		c1.4,0,2.5-0.2,3.1-0.5s1-0.8,1.1-1.4c0.1-0.6,0.2-1.5,0.2-2.9l-0.1-21.7l-11.1,27.7h-1.3l-11.1-26.8l0.1,18.4
		c0,2.1,0.4,3.7,1.2,4.8c0.8,1.2,2.1,1.9,3.9,2.3v1.2H57.6v-1.2c1.6-0.2,2.8-0.8,3.7-1.9s1.3-2.6,1.3-4.6l-0.1-20.9
		c-0.6-0.7-1.4-1.2-2.2-1.5c-0.9-0.3-1.8-0.5-2.8-0.4v-1.2h10.3L77.9,469.7z"/>
	<path d="M131.5,470.9l-8.1-20.3c-0.4-1-0.8-1.7-1.2-2.2c-0.4-0.4-1-0.6-1.7-0.6c-0.4,0-0.8,0-1.1,0.1c0.7,0.3,1.3,0.7,1.6,1.2
		c0.4,0.5,0.7,1.2,1,2l8,20.3c0.5,1.2,0.7,2.1,0.7,2.8c0,0.4-0.1,0.7-0.2,0.9c-0.2,0.2-0.5,0.5-1,0.9h0.5c0.7,0,1.2-0.2,1.6-0.6
		c0.4-0.4,0.6-0.8,0.6-1.3C132.3,473.4,132,472.3,131.5,470.9z M116.8,463.9h9.5l-4.8-12.1L116.8,463.9z M109.8,476h4.3
		c-0.9-0.7-1.4-1.6-1.4-2.8c0-0.3,0-0.6,0-0.7c-0.4,0.7-0.8,1.4-1.2,1.9C111.1,475,110.6,475.5,109.8,476z M129.4,471.7l-2.5-6.4
		h-10.6l-1.5,3.8c-0.4,1-0.6,2-0.6,3s0.3,1.9,1,2.6c0.6,0.8,1.5,1.2,2.7,1.2v1.2h-10.4V476c2.3-0.3,4.2-2.4,5.6-6l7.7-19.9
		c-0.4-0.7-0.8-1.2-1.3-1.4c-0.5-0.2-1.1-0.4-2-0.5v-1.1l5.4-1.9h2.1l10.5,26.5c0.6,1.5,1.2,2.5,1.8,3c0.6,0.5,1.5,0.9,2.7,1.2v1.2
		h-13.3v-1.2c1.2-0.1,2-0.3,2.6-0.5s0.9-0.7,0.9-1.4C130.1,473.4,129.8,472.7,129.4,471.7z"/>
	<path d="M155.6,450.8l0.1,22.4c0,0.8-0.1,1.3-0.4,1.7c-0.3,0.4-0.7,0.7-1.4,1.1c1,0,1.8-0.2,2.4-0.5c0.6-0.3,0.9-0.9,0.9-1.9
		l-0.1-23.8c0-1-0.2-1.8-0.6-2.3c-0.4-0.5-1.3-0.7-2.5-0.7c1.1,0.6,1.7,1.7,1.7,3.4v0.3L155.6,450.8z M150.2,445.5h15v1.2
		c-1.4,0-2.5,0.2-3.3,0.6c-0.8,0.3-1.2,1-1.2,2c0,0.6-0.1,1.1-0.1,1.5c0,0.4,0,0.5,0,0.5l0.1,20.7c0,0.9,0.1,1.6,0.3,2.1
		c0.2,0.5,0.5,0.9,0.8,1.1c0.3,0.2,0.7,0.4,1.2,0.5s1.2,0.2,2.4,0.2v1.2h-15v-1.2c1.3,0,2.3-0.2,3-0.4c0.7-0.3,1.1-0.7,1.3-1.3
		c0.2-0.6,0.3-1.5,0.3-2.8l-0.1-20.1c0-1.2-0.1-2.1-0.2-2.7c-0.1-0.6-0.3-1-0.6-1.2c-0.3-0.3-0.7-0.4-1.3-0.5
		c-0.5-0.1-1.4-0.2-2.6-0.3L150.2,445.5z"/>
	<path d="M196.8,451.1l-0.7-4.3c-0.5,0.2-1,0.3-1.5,0.3s-1.1-0.1-1.7-0.2c0.6,0.4,1.1,0.8,1.6,1.3s0.9,1,1.4,1.7
		C196.3,450.5,196.6,450.9,196.8,451.1z M179.9,469.8v6c0.4-0.6,0.8-0.9,1.2-1.1c0.4-0.2,0.9-0.2,1.7-0.2c-0.5-0.6-0.9-1-1.1-1.3
		c-0.2-0.3-0.5-0.7-0.8-1.2C180.6,471.5,180.3,470.7,179.9,469.8z M179.8,451.3c-0.2,1.1-0.4,2.1-0.4,2.8c0,0.8,0.1,1.6,0.4,2.4
		c0.3,0.8,0.7,1.6,1.2,2.3c0.5,0.7,1.1,1.3,1.8,1.7c0.9,0.6,1.9,1,2.9,1.3c1.1,0.2,2.6,0.5,4.7,0.9c2.1,0.3,3.5,0.7,4.2,1
		c1.4,0.5,2.6,1.3,3.4,2.4c0.8,1.1,1.2,2.3,1.2,3.8c0,1.1-0.3,2.2-0.9,3.4c1.2-1.3,1.8-2.8,1.8-4.5c0-1.8-0.5-3.2-1.4-4.2
		s-2-1.7-3.4-2.2c-1.3-0.5-3.2-0.9-5.5-1.3c-2.3-0.4-3.5-0.6-3.6-0.6c-2.1-0.5-3.7-1.5-4.8-2.9c-1.1-1.4-1.7-2.9-1.7-4.7
		c0-0.3,0-0.6,0-0.8C179.8,451.7,179.8,451.5,179.8,451.3z M179.1,465.7h1.5c0.8,2.4,1.8,4.4,3,6s2.4,2.8,3.8,3.6
		c1.4,0.8,2.8,1.2,4.3,1.2c1.9,0,3.5-0.6,4.8-1.8c1.3-1.2,2-2.7,2-4.5c0-1.7-0.4-3-1.3-4c-0.9-0.9-1.9-1.6-3.2-2
		c-1.2-0.4-2.8-0.7-4.8-1.1c-2-0.3-3.4-0.6-4.3-0.9c-1.3-0.4-2.4-1.1-3.3-1.8c-0.9-0.8-1.6-1.7-2.1-2.8c-0.5-1.1-0.7-2.3-0.7-3.5
		c0-1.2,0.2-2.4,0.6-3.5c0.4-1.1,1-2.1,1.8-2.9c0.8-0.8,1.7-1.5,2.8-2c1.1-0.5,2.3-0.7,3.7-0.8c1,0,2.2,0.1,3.6,0.4
		c1.4,0.3,2.4,0.4,3.1,0.4c0.8,0,1.6-0.2,2.3-0.5h1.7l1,9.2h-1.6c-1.5-2.7-3-4.8-4.6-6.3c-1.6-1.4-3.5-2.2-5.7-2.2
		c-1.1,0-2.1,0.3-3,0.8c-0.9,0.5-1.7,1.2-2.2,2.1c-0.6,0.9-0.8,1.9-0.8,2.9c0,1.5,0.5,2.6,1.5,3.4c1,0.8,2.5,1.4,4.5,1.8
		c2,0.4,3.8,0.7,5.4,1c1.6,0.3,2.8,0.6,3.8,1.1c1.7,0.8,3,2,4,3.5c1,1.5,1.4,3.2,1.4,5s-0.4,3.5-1.3,5c-0.9,1.6-2.1,2.8-3.7,3.8
		c-1.6,0.9-3.3,1.4-5.3,1.4c-1.1,0-1.9-0.1-2.5-0.2c-0.6-0.2-1.5-0.5-2.9-0.9c-1.3-0.5-2.4-0.7-3.1-0.7c-1.2,0-2.1,0.5-2.8,1.4h-1.3
		L179.1,465.7z"/>
	<path d="M230.6,446.2c1.7,0.9,3.1,2.1,4.3,3.7c1.2,1.6,2.1,3.5,2.7,5.7c0.6,2.2,0.9,4.6,0.9,7.3c0,2.5-0.3,4.7-1,6.5
		c-0.7,1.8-1.6,3.5-2.9,4.9c1.2-0.9,2.3-2,3-3.2c0.8-1.2,1.4-2.5,1.7-4c0.4-1.5,0.6-3.2,0.5-5c0-2.7-0.4-5.1-1.1-7.4
		c-0.7-2.2-1.8-4.1-3.3-5.6C234.2,447.6,232.5,446.6,230.6,446.2z M216.8,458.6c0,2.6,0.3,5,0.8,7.2c0.5,2.2,1.3,4.1,2.3,5.6
		c1,1.6,2.2,2.8,3.6,3.6c1.4,0.8,2.9,1.2,4.4,1.2c1.3,0,2.6-0.3,3.8-0.9c1.2-0.6,2.3-1.5,3.2-2.6c0.9-1.2,1.6-2.6,2.1-4.3
		c0.5-1.7,0.7-3.7,0.7-5.9c0-2.5-0.3-4.7-0.9-6.8c-0.6-2.1-1.4-3.9-2.4-5.3c-1-1.5-2.2-2.6-3.6-3.4c-1.4-0.8-2.9-1.2-4.5-1.2
		c-1.4,0-2.7,0.3-3.9,0.9c-1.2,0.6-2.2,1.5-3.1,2.6c-0.8,1.1-1.5,2.4-2,4C217,455,216.8,456.7,216.8,458.6z M218.9,447.1
		c-2.5,1.5-4.4,3.5-5.6,5.9c-1.3,2.4-1.9,5.1-1.9,8c0,2.5,0.4,4.7,1.3,6.8c0.8,2,2.1,3.8,3.7,5.2c1.6,1.5,3.7,2.6,6.1,3.4
		c-2.9-1.5-5.3-3.5-7-6.2c-1.7-2.6-2.6-5.8-2.6-9.6c0-1.9,0.2-3.6,0.7-5.1s1.1-3,2.1-4.3C216.4,449.8,217.5,448.5,218.9,447.1z
		 M210.6,461c0-1.4,0.1-2.6,0.4-3.8c0.3-1.2,0.6-2.4,1.1-3.5s1.1-2.1,1.9-3.1c0.7-1,1.6-1.8,2.5-2.5c1-0.8,2-1.4,3.1-2
		c1.1-0.5,2.3-0.9,3.7-1.1c1.3-0.2,2.7-0.4,4.2-0.4c2.5,0,4.8,0.4,6.9,1.3c2.1,0.8,3.9,2,5.3,3.5c1.5,1.5,2.6,3.2,3.4,5.2
		c0.8,2,1.2,4,1.2,6.2c0,2.4-0.4,4.5-1.3,6.6c-0.9,2-2.1,3.8-3.7,5.3c-1.6,1.5-3.4,2.7-5.5,3.5c-2.1,0.8-4.4,1.3-6.9,1.3
		c-2.3,0-4.5-0.4-6.5-1.2c-2-0.8-3.7-1.9-5.2-3.4c-1.4-1.5-2.6-3.2-3.4-5.3C211,465.6,210.6,463.4,210.6,461z"/>
	<path d="M282.5,446.3h-4.9c0.7,0.3,1.4,0.6,1.8,1.1c0.5,0.4,0.9,1.1,1.2,1.8C281,447.9,281.6,446.9,282.5,446.3z M254.5,475.6h4.7
		c-0.7-0.5-1.1-1-1.4-1.4c-0.3-0.4-0.5-1-0.7-1.8c-0.2,0.7-0.5,1.3-0.9,1.8C255.8,474.7,255.3,475.2,254.5,475.6z M279.1,472.1
		l-20.3-23.6c-0.4-0.5-0.9-1-1.5-1.5c-0.6-0.4-1.4-0.7-2.4-0.6h-1c0.8,0.3,1.5,0.7,2,1.1c0.5,0.4,1.1,1.1,2,2.1l23.2,26.8
		c0-0.4,0-0.9-0.1-1.3c0-0.4-0.1-0.7-0.1-0.9c-0.1-0.2-0.2-0.5-0.4-0.8C280,473.2,279.7,472.7,279.1,472.1z M274.7,446.3v-1.2h12
		v1.2c-1,0-1.9,0.3-2.6,0.7c-0.8,0.4-1.3,1-1.8,1.8c-0.4,0.8-0.6,1.8-0.6,2.9l0.5,25.8h-1.4l-23-26.8l0.4,18c0,1.1,0.1,2.1,0.3,2.8
		c0.2,0.8,0.4,1.4,0.8,2c0.4,0.6,0.9,1,1.7,1.3c0.7,0.3,1.7,0.5,2.8,0.6v1.2h-11.9v-1.2c1.6-0.1,2.7-0.6,3.5-1.3
		c0.8-0.7,1.2-1.6,1.4-2.7c0.2-1.1,0.2-2.4,0.2-4l-0.4-18.4c-0.9-0.9-1.7-1.6-2.5-2.1c-0.8-0.5-1.7-0.7-2.5-0.7h-0.3V445h9.3
		l20.3,23.6l-0.4-15.8c0-1.2-0.1-2.2-0.4-3.1c-0.3-0.8-0.7-1.5-1.3-2c-0.4-0.4-1-0.8-1.8-1C276.1,446.5,275.4,446.3,274.7,446.3z"/>
	<path d="M328.8,450.7l-0.7-4.3c-0.5,0.2-1,0.3-1.5,0.3c-0.5,0-1.1-0.1-1.8-0.2c0.6,0.4,1.1,0.8,1.6,1.3c0.5,0.5,0.9,1.1,1.4,1.7
		C328.3,450.1,328.6,450.6,328.8,450.7z M311.9,469.5v6c0.4-0.6,0.8-0.9,1.2-1.1s0.9-0.2,1.7-0.2c-0.5-0.6-0.8-1-1.1-1.3
		c-0.2-0.3-0.5-0.7-0.8-1.2C312.6,471.1,312.3,470.4,311.9,469.5z M311.9,450.9c-0.3,1.1-0.4,2.1-0.4,2.8c0,0.8,0.1,1.6,0.4,2.4
		c0.3,0.8,0.7,1.6,1.2,2.3c0.5,0.7,1.1,1.3,1.8,1.7c0.9,0.6,1.8,1,2.9,1.3c1.1,0.2,2.6,0.5,4.7,0.9c2,0.3,3.5,0.6,4.2,1
		c1.4,0.5,2.6,1.3,3.4,2.4s1.2,2.3,1.2,3.8c0,1.1-0.3,2.2-0.9,3.4c1.2-1.3,1.8-2.8,1.8-4.5c0-1.8-0.5-3.2-1.4-4.2
		c-0.9-1-2-1.8-3.4-2.2c-1.3-0.5-3.2-0.9-5.5-1.3c-2.3-0.4-3.5-0.6-3.6-0.6c-2.1-0.5-3.7-1.5-4.8-2.9c-1.1-1.4-1.7-2.9-1.7-4.7
		c0-0.3,0-0.6,0-0.8C311.9,451.3,311.9,451.1,311.9,450.9z M311.2,465.3h1.5c0.8,2.4,1.8,4.4,3,6c1.2,1.6,2.4,2.8,3.8,3.6
		c1.4,0.8,2.8,1.2,4.3,1.2c1.9,0,3.5-0.6,4.8-1.8c1.3-1.2,2-2.7,2-4.5c0-1.7-0.5-3-1.3-4c-0.9-0.9-2-1.6-3.2-2
		c-1.2-0.4-2.8-0.7-4.8-1c-2-0.3-3.4-0.6-4.3-0.9c-1.3-0.4-2.4-1.1-3.3-1.8c-0.9-0.8-1.6-1.7-2.1-2.8c-0.5-1.1-0.7-2.3-0.7-3.5
		s0.2-2.4,0.6-3.5c0.4-1.1,1-2.1,1.8-2.9c0.8-0.9,1.7-1.5,2.8-2c1.1-0.5,2.3-0.7,3.7-0.8c1,0,2.2,0.1,3.6,0.4
		c1.4,0.3,2.4,0.4,3.1,0.4c0.8,0,1.6-0.2,2.3-0.5h1.7l1,9.2h-1.6c-1.5-2.7-3-4.9-4.6-6.3c-1.6-1.4-3.5-2.2-5.7-2.2
		c-1.1,0-2.1,0.3-3,0.8s-1.7,1.2-2.2,2.1c-0.6,0.9-0.8,1.9-0.8,2.9c0,1.5,0.5,2.6,1.5,3.4s2.5,1.4,4.5,1.8c2,0.4,3.8,0.7,5.4,1
		c1.6,0.3,2.8,0.7,3.8,1.1c1.7,0.8,3,2,4,3.5c1,1.5,1.4,3.2,1.4,5s-0.4,3.5-1.3,5c-0.9,1.6-2.1,2.8-3.7,3.7
		c-1.6,0.9-3.3,1.4-5.3,1.4c-1.1,0-1.9-0.1-2.5-0.2c-0.6-0.2-1.5-0.5-2.9-1c-1.3-0.5-2.4-0.7-3.1-0.7c-1.2,0-2.2,0.5-2.8,1.4h-1.3
		L311.2,465.3z"/>
	<path d="M369.3,450.1l-0.1-3.8c-0.7,0.3-1.4,0.5-2.2,0.5c-0.4,0-0.7,0-1.1-0.1c0.8,0.6,1.4,1.1,1.9,1.7
		C368.3,448.9,368.8,449.5,369.3,450.1z M354.4,445.5c-2.3,0.9-4.2,1.9-5.7,3.2c-0.9,0.7-1.6,1.5-2.3,2.4c-0.6,0.9-1.2,1.9-1.7,2.9
		c-0.4,1-0.8,2.1-1,3.3c-0.2,1.2-0.4,2.3-0.4,3.4c0,2.7,0.6,5.2,1.7,7.5c1.1,2.3,2.8,4.2,5,5.7c2.2,1.5,4.8,2.4,7.9,2.7
		c-2-0.5-3.8-1.3-5.4-2.3c-1.7-1-3.1-2.2-4.2-3.6c-1.2-1.4-2-3-2.6-4.6c-0.6-1.7-0.9-3.4-0.9-5.2c0-1.5,0.2-3.1,0.7-4.7
		c0.5-1.6,1.2-3.1,2.1-4.4c1-1.5,2-2.6,3.1-3.5C351.7,447.3,353,446.4,354.4,445.5z M370.1,444.4h1.8v10h-1.4
		c-0.7-1.5-1.5-2.8-2.3-3.9c-0.8-1.1-1.7-2-2.6-2.8c-0.9-0.7-1.9-1.3-2.9-1.7c-1-0.4-2.1-0.5-3.3-0.5c-1.6,0-3,0.4-4.2,1.1
		c-1.3,0.7-2.3,1.7-3.2,3c-0.9,1.3-1.6,2.9-2.1,4.7c-0.5,1.9-0.7,3.8-0.7,6c0,2.9,0.5,5.6,1.5,7.9c1,2.3,2.4,4.1,4.2,5.4
		c1.8,1.3,3.8,1.9,6.1,1.9c1.4,0,2.7-0.2,4-0.7c1.3-0.5,2.5-1.2,3.7-2.1c1.2-0.9,2.3-2.1,3.3-3.5l1.3,0.7c-1.7,2.4-3.7,4.3-6.1,5.5
		s-5.1,1.9-8.2,1.9c-2.4,0-4.6-0.4-6.6-1.2c-2-0.8-3.8-2-5.2-3.5c-1.5-1.5-2.6-3.3-3.4-5.2c-0.8-2-1.2-4.1-1.2-6.3
		c0-2.4,0.4-4.6,1.3-6.7c0.8-2.1,2-3.8,3.5-5.3c1.5-1.5,3.2-2.6,5.2-3.4s4.1-1.2,6.3-1.2c0.8,0,1.6,0.1,2.3,0.2s1.6,0.3,2.6,0.6
		s1.7,0.4,2,0.5c0.4,0.1,0.8,0.1,1.2,0.1C368.4,445.7,369.3,445.3,370.1,444.4z"/>
	<path d="M399.9,445.7c1.7,0.9,3.1,2.1,4.3,3.7c1.2,1.6,2.1,3.5,2.7,5.7c0.6,2.2,0.9,4.6,0.9,7.3c0,2.5-0.3,4.7-1,6.5
		c-0.7,1.8-1.6,3.5-2.9,4.9c1.2-0.9,2.2-2,3-3.2c0.8-1.2,1.4-2.5,1.7-4c0.4-1.5,0.6-3.2,0.5-5c0-2.7-0.4-5.1-1.1-7.4
		c-0.7-2.3-1.8-4.1-3.3-5.6C403.4,447.1,401.8,446.2,399.9,445.7z M386.1,458.2c0,2.6,0.3,5,0.8,7.2c0.5,2.2,1.3,4.1,2.3,5.6
		c1,1.6,2.2,2.8,3.6,3.6c1.4,0.8,2.9,1.2,4.4,1.2c1.3,0,2.6-0.3,3.8-0.9c1.2-0.6,2.3-1.5,3.2-2.6c0.9-1.2,1.6-2.6,2.1-4.3
		c0.5-1.7,0.7-3.7,0.7-5.9c0-2.5-0.3-4.7-0.9-6.8c-0.6-2.1-1.4-3.9-2.4-5.3c-1-1.5-2.2-2.6-3.6-3.4c-1.4-0.8-2.9-1.2-4.5-1.2
		c-1.4,0-2.7,0.3-3.9,0.9c-1.2,0.6-2.2,1.5-3.1,2.6c-0.8,1.1-1.5,2.5-2,4C386.3,454.5,386,456.2,386.1,458.2z M388.1,446.7
		c-2.5,1.5-4.4,3.5-5.6,5.9c-1.3,2.4-1.9,5.1-1.9,8c0,2.5,0.4,4.7,1.3,6.8c0.8,2,2.1,3.8,3.7,5.2c1.6,1.5,3.7,2.6,6.1,3.4
		c-2.9-1.5-5.3-3.5-7-6.2c-1.7-2.6-2.6-5.8-2.6-9.6c0-1.9,0.2-3.6,0.7-5.1c0.5-1.5,1.1-3,2.1-4.3C385.6,449.4,386.8,448,388.1,446.7
		z M379.8,460.6c0-1.4,0.1-2.6,0.4-3.8c0.2-1.2,0.6-2.4,1.1-3.5c0.5-1.1,1.1-2.1,1.9-3.1c0.7-1,1.6-1.8,2.5-2.5c1-0.8,2-1.4,3.1-2
		c1.1-0.5,2.3-0.9,3.7-1.1c1.3-0.2,2.7-0.4,4.2-0.4c2.5,0,4.8,0.4,6.9,1.3s3.9,2,5.3,3.5c1.5,1.5,2.6,3.3,3.4,5.2
		c0.8,2,1.2,4,1.2,6.2c0,2.4-0.4,4.5-1.3,6.6c-0.9,2-2.1,3.8-3.6,5.3c-1.6,1.5-3.4,2.7-5.6,3.5c-2.1,0.8-4.4,1.3-6.9,1.3
		c-2.3,0-4.5-0.4-6.5-1.2c-2-0.8-3.7-1.9-5.2-3.4c-1.4-1.5-2.6-3.2-3.4-5.3C380.2,465.2,379.8,462.9,379.8,460.6z"/>
	<path d="M448.7,449.5l-1-3.6h-4.2c1.1,0.4,2.1,0.8,2.9,1.4C447.1,447.8,447.9,448.6,448.7,449.5z M434.7,470.7l-0.1-22.1
		c0-0.9-0.1-1.5-0.3-2c-0.2-0.4-0.6-0.7-1.1-0.7l0.1,25.5c0,0.9-0.1,1.7-0.3,2.2c-0.2,0.6-0.6,1-1.2,1.5h0.5c1.1,0,1.8-0.3,2.1-1
		C434.5,473.4,434.7,472.3,434.7,470.7z M425.2,445.9h-3.6l-0.9,3.8c0.8-1,1.4-1.7,2-2.2C423.3,447,424.1,446.5,425.2,445.9z
		 M421,444.7l28.6-0.1l1.6,7.4h-1.6c-1.2-1.9-2.4-3.3-3.6-4.2c-1.3-0.9-2.5-1.4-3.6-1.6c-1.1-0.2-2.6-0.3-4.4-0.3l0.1,25.6
		c0,1,0.2,1.7,0.5,2.3c0.3,0.5,0.8,0.9,1.6,1.1c0.7,0.2,1.7,0.3,3,0.4v1.2h-15.8v-1.2c1.3,0,2.3-0.1,3-0.3c0.7-0.2,1.2-0.5,1.6-1.1
		c0.3-0.5,0.5-1.4,0.5-2.6l-0.1-25.3c-1.6,0-3,0.2-4.2,0.5s-2.2,0.7-3,1.3c-0.8,0.5-1.5,1.1-2,1.7c-0.5,0.6-1.3,1.5-2.3,2.8h-1.4
		L421,444.7z"/>
	<path d="M484.5,449.8l-0.2-3.8c-0.7,0.3-1.4,0.5-2.2,0.5c-0.4,0-0.7,0-1-0.1c0.8,0.6,1.4,1.2,1.9,1.7
		C483.5,448.6,484,449.2,484.5,449.8z M469.6,445.1c-2.3,0.9-4.2,2-5.7,3.2c-0.9,0.7-1.6,1.5-2.3,2.4s-1.2,1.9-1.7,2.9
		c-0.5,1-0.8,2.1-1,3.3c-0.2,1.2-0.4,2.3-0.4,3.4c0,2.7,0.6,5.2,1.7,7.5c1.1,2.3,2.8,4.2,5,5.7c2.2,1.5,4.8,2.4,7.9,2.7
		c-2-0.5-3.8-1.3-5.5-2.3c-1.6-1-3-2.2-4.2-3.6c-1.2-1.4-2-3-2.6-4.6c-0.6-1.7-0.9-3.4-0.9-5.2c0-1.5,0.2-3.1,0.7-4.7
		c0.5-1.6,1.2-3.1,2.1-4.4c1-1.5,2-2.6,3.1-3.5C466.9,447,468.2,446.1,469.6,445.1z M485.3,444.1h1.8v10h-1.4
		c-0.7-1.5-1.5-2.8-2.3-3.9c-0.8-1.1-1.7-2-2.6-2.8c-0.9-0.7-1.9-1.3-2.9-1.7c-1-0.4-2.1-0.5-3.2-0.5c-1.6,0-3,0.4-4.2,1.1
		c-1.3,0.7-2.4,1.7-3.3,3c-0.9,1.3-1.6,2.9-2.1,4.7c-0.5,1.9-0.8,3.8-0.7,5.9c0,2.9,0.5,5.6,1.5,7.9c1,2.3,2.4,4.1,4.2,5.3
		c1.8,1.3,3.8,1.9,6.1,1.9c1.4,0,2.7-0.2,4-0.7c1.3-0.5,2.5-1.2,3.7-2.1s2.3-2.1,3.3-3.5l1.3,0.7c-1.7,2.4-3.7,4.3-6.1,5.5
		c-2.4,1.2-5.1,1.9-8.2,1.9c-2.4,0-4.6-0.4-6.6-1.2c-2-0.8-3.8-2-5.2-3.5c-1.5-1.5-2.6-3.2-3.4-5.2c-0.8-2-1.2-4.1-1.2-6.3
		c0-2.4,0.4-4.6,1.3-6.7c0.9-2.1,2-3.8,3.5-5.3c1.5-1.5,3.2-2.6,5.2-3.4c2-0.8,4.1-1.2,6.3-1.2c0.8,0,1.6,0.1,2.3,0.2
		c0.7,0.1,1.6,0.3,2.6,0.6c1,0.3,1.7,0.4,2,0.5s0.8,0.1,1.2,0.1C483.6,445.4,484.5,445,485.3,444.1z"/>
	<path d="M521,449.1l0.1,22.3c0,1.1-0.1,1.9-0.4,2.3c-0.2,0.5-0.7,0.8-1.2,1.2h0.7c0.8,0,1.4-0.2,1.7-0.7c0.4-0.5,0.5-1.2,0.5-2.2
		l-0.1-22.3c0-1.4-0.2-2.4-0.4-3.1c-0.3-0.7-0.9-1-2-1h-0.7c0.6,0.3,1.1,0.7,1.3,1.2C520.9,447.4,521,448.1,521,449.1z M499.5,449.5
		l0.1,21.5c0,1.3-0.2,2.2-0.4,2.8c-0.3,0.5-0.7,0.9-1.1,1.2h0.7c0.9,0,1.5-0.3,1.8-1c0.4-0.7,0.5-1.7,0.5-3.1v-20.2
		c0-1.4-0.1-2.5-0.2-3.1c-0.1-0.7-0.4-1.1-0.8-1.4c-0.4-0.3-1.1-0.4-2.1-0.4c0.6,0.3,1,0.7,1.2,1.2
		C499.3,447.5,499.4,448.3,499.5,449.5z M515.7,476.2V475c1.5-0.1,2.6-0.2,3.2-0.5c0.6-0.2,1-0.6,1.2-1.2c0.2-0.6,0.3-1.5,0.3-2.8
		v-9.8h-16v9.3c0,1.1,0,1.9,0.1,2.5c0.1,0.6,0.3,1,0.6,1.4c0.3,0.3,0.7,0.6,1.3,0.7c0.6,0.2,1.5,0.3,2.7,0.4v1.2h-15V475
		c1.1,0,1.9-0.1,2.5-0.2s1-0.3,1.4-0.6c0.3-0.3,0.6-0.8,0.7-1.3c0.1-0.6,0.2-1.4,0.2-2.4l-0.1-21.1c0-1.4-0.3-2.4-1-2.8
		c-0.7-0.4-1.9-0.7-3.7-0.8v-1.2h15v1.2c-1.5,0-2.5,0.2-3.2,0.5c-0.6,0.3-1,0.8-1.2,1.4c-0.2,0.7-0.2,1.7-0.2,3.2v8.2h16v-9.4
		c0-1.1-0.1-1.9-0.4-2.4c-0.2-0.5-0.7-0.8-1.3-1c-0.6-0.2-1.6-0.3-3-0.4v-1.2h15v1.2c-1.5,0-2.6,0.2-3.2,0.4c-0.6,0.2-1,0.7-1.2,1.3
		c-0.2,0.7-0.3,1.8-0.3,3.3v19.6c0,1.2,0.1,2.2,0.3,2.8c0.2,0.6,0.6,1.1,1.3,1.4c0.7,0.3,1.7,0.4,3.2,0.4v1.2L515.7,476.2z"/>
</g>
<path d="M328.1,362.2c-4-1.3-8.2-3.9-12-5.8c-2.8-1.4-5.7-2-6.4-5.4c8.4,1,17.6,1.3,22.6,5.8C332.5,360.3,328.3,359.3,328.1,362.2z
	 M327.4,366.9c-2-0.2-3.8,1.1-5.4,1.1c-5.5,0-8.8-6.2-12.7-8.2c-0.3-1.3-1.9-2.3-1.5-3.6c3.7-1.2,7.5,1.8,10.9,3.4
	c1.4,0.7,3,1.3,4.3,1.9c1.4,0.7,3.1,1.3,4.1,1.9c1.4,0.9,1.9,3.2,3.9,3C330.6,368.7,328.8,367,327.4,366.9z M318.6,379.6
	c-5.9-0.8-7.1-5.9-9.9-10.7c-1.7-3-3.4-5.9-4.5-8.6c-0.3-0.3-0.1-0.3,0-0.6C311.1,363.9,321.7,367.4,318.6,379.6z M311.1,381.9
	c-3.1-0.7-5.2-4.9-3-7.3c-0.3-0.9-1.7-0.7-2.4-1.3c-1.5-3.9-3.1-7.8-4.5-11.8c0-0.2,0.3-0.2,0.4-0.2c2.1,3,4.1,6.2,6,9.4
	C309.5,373.9,312.1,377.5,311.1,381.9z M299.9,363c1.5,3,3,6,3.9,9.7C299.8,372.2,300.3,367.2,299.9,363z M298,336
	c1.1-6.1,0.4-18.2,3.9-22.3c1.3-1.6,4.6-2.6,5.8,0c0.1,5-1.9,8.3-3.7,12.5C302.2,330.4,301,334,298,336z M297.8,374.4
	c-2.5,0.9-4.2,2.5-6,4.1c0-2.8,1.6-6,1.9-9.2c2-1,2.9-4,2.2-7.1c0.6,0,1.3,0,1.9,0C298.2,365.9,300.1,371.7,297.8,374.4z
	 M288.8,382.8c-5.4,0.6-8.9-0.9-6.7-6.7c1.7-4.4,6.7-11.7,8.6-15c0.2,0,0.2,0.1,0.2,0.2c0.6-0.2,0.5,0.3,1.1,0.2
	C291.7,369.2,290.9,376.5,288.8,382.8z M277.6,377.2c-0.4-2.6,0.4-6-1.3-7.7c2.3-2.7,5.3-4.7,7.7-7.3c1.6-0.4,3.6-0.4,4.3-1.7
	c-1.4,3.4-4,8.2-6.2,12.3C280.9,374.9,280.3,376.9,277.6,377.2z M269,372.3c-0.6-1.8-1.5-4-1.5-5.8c-0.2-8.3,9.7-9.5,15.7-12.2
	c1.2,0.4,0.8,2.5,1.9,3c-0.9,1.1-2,1.9-2.3,3.4C278,364.2,273.5,368.9,269,372.3z M260.8,356.2c-1.7-1-2.5-2.8-4.5-3.4
	c-1.2,0.3-1,3.2-0.4,4.1c-1-0.1-2.6-1.5-2.6-3.4c1.7-0.9,4.1-1.2,5.2-2.8c4.4-0.1,9.1,0.2,13.1,0c1.4-0.1,2.8-0.5,4.1-0.2
	c1,0.2,1.8,1.2,2.8,1.3c1.7,0.2,3.1-0.9,4.5-0.2c0.5,2.5-3.7,2.9-6.4,3.9C271.4,357.2,266.1,359.2,260.8,356.2z M275.4,342.4
	c-1.8-0.8-7.7-3.2-7.3-4.9c0.4-2,5.6-1.3,6.9-1.9c2.2,0.1,2.2,2.1,3,3.9c1.3,2.8,4.2,3.4,6.9,5.2c0.1,0.9-0.6,1.1-0.9,1.7
	C281.1,345.7,279.2,344.2,275.4,342.4z M292,341.3c-2-2.4-1.9-7-3.4-9.9C291.4,332.1,291.9,338,292,341.3z M295.8,340.9
	c-0.8,0-1.6,0-2.4,0c0.1-3.5-1.9-6.4-0.9-9.5c0.7-2.2,3.3-3.3,4.1-5.4C297,330.8,295.6,335.6,295.8,340.9z M286.6,325.6
	c3.3-1.7,0.9-6.4-2.4-6.4c-0.5-6.6,4.5-7.6,6.7-11.6c3.6,2.5,7.3,4.8,7.3,10.9c-1.1,1-2.5,1.3-3.4,2.6c-1,1.5-0.2,3.9-2.1,4.7
	c-0.2-1.9-2.4-3.6-4.1-2.1c0.1,1.1-0.4,1.6-0.2,2.8C287.8,326.9,287,326.1,286.6,325.6z M286,336c-2.1-2.6-3.7-5.7-5.8-9
	c-1-1.6-2.2-2.2-1.9-4.7c1.6-1.1,5.2,0.4,5.6,2.6c-6.6-0.8-0.4,5.3,1.9,6C286.3,332.8,286.3,333.7,286,336z M332.8,348.9
	c-0.8,0.6-0.9,2-1.7,2.6c-7.6,0.1-14-1.9-21.5-2.6c-0.2-1.5-1.4-1.9-1.7-3.2c2.5-1.3,4.8-3.4,7.7-3.2c2.6,0.2,4.7,2.9,7.8,2.4
	c0.3-0.6,1-0.8,1.1-1.7c-0.6-1.1-2.7-0.7-3.5-1.7c3.8-0.9,1.3-4.7-1.1-5.2c-0.5-1.4-0.6-3.2-2.6-3c-1.8,1-0.4,3.3-0.6,4.7
	c-0.3,1.6-2.9,3-4.3,3.9c-2,1.3-4.2,2.1-5.8,3c-1.4-1.7-3.5-2.7-5.6-3.7c1-1.9,1.1-4.3,1.7-6.7c0.9-3.3,2.6-6.5,3.9-9.7
	c0.6-1.6,1.4-3.3,2.1-4.7c0.7-1.3,1.5-3.1,2.8-3.6c-0.3,2.6,1.6,5.1,3.6,3.9c3.2-1.9-2.5-9-3-10.3c0.4-1.5,2.1-1.8,2.1-3.7
	c-3-2.1-6.3,1-9.9,0.9c-2.7-0.1-4.9-2.1-7.7-1.3c-1.4-0.9-3-1.5-5.4-1.5c-2.3-4.2-3.5,1.6-6.7,1.5c0.4-0.9,0.2-2.3-0.2-3
	c-0.5-0.7-1.9-0.7-3.2-0.6c-1.6,1-1.9,3.2-2.4,5.4c-1.8-1.6-4.1-5.9-7.3-3.4c-0.9,2.6,2.4,4,4.1,5.4c3.5,2.9,6.3,4.6,6.6,9.4
	c-3.3-2-8.6-2.3-11,0.9c-1.2,1.7-2.1,7.6,1.1,7.1c1.3-0.2,1.2-1.9,2.1-2.8c5.4,5.2,8.5,12.7,13.1,18.7c-4.4-4.2-10.5-9.3-15-14.2
	c-1.6-1.7-3.9-3.6-4.5-5.4c-1.5-3.7,0.2-7.7,0.4-11.6c-2.8-0.3-3.9,2.4-4.7,4.1c-1,2-1.9,3.9-3.7,5.4c-1.8,1.5-4.1,1.7-4.5,4.5
	c2,2.3,4.2-0.8,6.2-1.1c5.6-0.9,7.4,3.6,10.1,6.7c-3.2,1.9-7.3,1.1-9.9,3.2c-1.2,1-1.3,2.8-1.9,4.3c-0.9,2-2.9,4.7-2.1,7.3
	c2.9-0.3,2.9-3.9,5.4-4.9c1.6-0.7,4.1-0.5,6,0.2c3.6,1.3,8,4,9.9,5.8c-2.9,0.7-6.4,0.7-9.9,0.8c-4,0.2-8,1.1-11.4,0.9
	c-1.7-0.1-3.8-0.4-4.9-1.5c0.5-2.6,4-1.4,4.5-3.7c0.2-1-0.2-2.8-2.4-2.8c-2.5,0-6.8,5.2-6.9,9.2c0,2.8,2.4,5.1,3.4,7.3
	c0.8,1.8,1.6,6,4.7,4.7c0.7-0.7,1.2-2.2,0.6-3.4c3.3,2,6.9,4.9,6.4,9.9c-1.8,0.1-2.6-0.8-4.5-0.6c-2.7,3,1.8,4.8,3.4,6.2
	c-0.1,1.6,0.2,3,0.9,3.9c1.3,0.8,2.5-0.6,3.6,0c0.8,1,0.3,3.1,0.4,4.7c0.8,0.8,2.1,1.8,3.7,1.1c1.2-3.2-0.7-6.5-0.9-9.7
	c0.8-0.8,1.5-1.7,2.8-1.9c-0.2,9.4,5.4,12.9,12.4,15c-1.4,1.6-5.7,2-4.3,5.2c5.8-0.2,10.5-2.2,16.6-0.4c3.1-2.2-0.1-2.7-2.2-3.9
	c-2-1.2-3.2-3.7-3.9-5c3.1-3.4,6.3-8.5,13.3-6.7c1,1.2,2.6,4.4,1.1,6c-2.9-0.3-4.6-4.6-7.7-2.6c1.2,3.6,6.5,7,10.9,6.4
	c-0.1,1.4-0.2,1.9,0.4,2.8c2.1,0.9,3.2-0.7,4.3-1.5c1.5,0.6,1.9,1.9,3.5,1.7c2.3-0.3,1.5-4.2,3.4-4.7c2.6-0.7,5.1,1.1,4.3-2.6
	c-0.7-1.1-1.8-0.8-2.2-1.9c-0.4-1.3,0.4-6,1.1-7.5c1.2-2.6,6.6-1.7,9-3c2.7-1.5,3.3-4,4.3-6.7c0.7-1.8,2.2-3.5,2.4-6.5
	C336.3,355.3,338.6,348,332.8,348.9z"/>
<path d="M478.8,521.6l0.8-2c-0.5,0.5-0.9,0.9-1.2,1.1c-0.4,0.2-0.9,0.5-1.6,0.9H478.8z M478.3,506.7h-2.1c0.6,0.2,1.1,0.4,1.5,0.7
	c0.4,0.3,0.9,0.6,1.4,1L478.3,506.7z M476.4,515v-2.2c-0.3,0.5-0.8,0.9-1.6,1.1c0.4,0.1,0.8,0.3,1,0.4S476.3,514.7,476.4,515z
	 M468.7,508.6v11.1c0,0.6-0.1,1-0.2,1.2c-0.1,0.3-0.3,0.5-0.6,0.7c0.6,0,1-0.2,1.2-0.5s0.3-0.8,0.3-1.6v-11.1c0-0.7-0.1-1.1-0.3-1.3
	c-0.2-0.2-0.6-0.3-1.2-0.3c0.3,0.2,0.5,0.4,0.6,0.6C468.7,507.7,468.7,508.1,468.7,508.6z M471.2,514.2v5c0,0.6,0,1,0.1,1.3
	s0.2,0.5,0.4,0.7c0.2,0.2,0.5,0.2,0.9,0.3c0.4,0,1,0.1,1.6,0.1c0.8,0,1.6-0.1,2.3-0.4c0.7-0.3,1.3-0.6,1.9-1.1
	c0.6-0.5,1.2-1.2,1.9-2h0.9l-1.4,4.2h-14.1v-0.6c0.7,0,1.2-0.1,1.6-0.2c0.4-0.1,0.6-0.3,0.8-0.5c0.1-0.2,0.2-0.6,0.2-1v-11.3
	c0-0.5-0.1-0.9-0.2-1.2c-0.1-0.2-0.4-0.4-0.7-0.5c-0.3-0.1-0.9-0.2-1.6-0.2v-0.6h13.6l1.4,3.7H480c-0.4-0.6-1-1.1-1.6-1.5
	c-0.6-0.5-1.4-0.8-2.1-1.1s-1.6-0.4-2.5-0.4c-0.7,0-1.2,0.1-1.6,0.2c-0.4,0.1-0.6,0.4-0.7,0.6c-0.1,0.3-0.2,0.6-0.2,1.1v5h2.3
	c2,0,3-0.9,3.1-2.8h0.8v6.1h-0.7c-0.1-0.9-0.4-1.6-0.8-2c-0.4-0.4-1.1-0.6-2-0.6h-2.8V514.2z M455.9,508.8v11.4
	c0,0.4-0.1,0.7-0.2,0.9s-0.4,0.4-0.7,0.6c0.5,0,0.9-0.1,1.2-0.2c0.3-0.1,0.5-0.5,0.5-1v-12.2c0-0.5-0.1-0.9-0.3-1.2
	c-0.2-0.3-0.6-0.4-1.3-0.4c0.6,0.3,0.9,0.9,0.9,1.7v0.2L455.9,508.8z M453.2,506.1h7.6v0.6c-0.7,0-1.3,0.1-1.7,0.3
	c-0.4,0.2-0.6,0.5-0.6,1v0.8v0.2v10.6c0,0.5,0,0.8,0.1,1.1s0.2,0.5,0.4,0.6c0.2,0.1,0.4,0.2,0.6,0.2c0.2,0,0.6,0.1,1.2,0.1v0.6h-7.6
	v-0.6c0.7,0,1.2-0.1,1.5-0.2c0.3-0.1,0.6-0.3,0.7-0.6s0.2-0.8,0.2-1.4v-10.2c0-0.6,0-1.1-0.1-1.4c-0.1-0.3-0.2-0.5-0.3-0.6
	c-0.2-0.1-0.4-0.2-0.6-0.3c-0.3,0-0.7-0.1-1.3-0.2v-0.6H453.2z M422.4,519l-4.1-10.4c-0.2-0.5-0.4-0.9-0.6-1.1
	c-0.2-0.2-0.5-0.3-0.9-0.3c-0.2,0-0.4,0-0.5,0c0.4,0.1,0.6,0.3,0.8,0.6c0.2,0.3,0.4,0.6,0.5,1l4.1,10.4c0.3,0.6,0.4,1.1,0.4,1.4
	c0,0.2,0,0.4-0.1,0.5s-0.3,0.2-0.5,0.4h0.3c0.4,0,0.6-0.1,0.8-0.3c0.2-0.2,0.3-0.4,0.3-0.7C422.9,520.3,422.7,519.7,422.4,519z
	 M415,515.4h4.9l-2.4-6.2L415,515.4z M411.4,521.6h2.2c-0.5-0.4-0.7-0.8-0.7-1.4c0-0.2,0-0.3,0-0.4c-0.2,0.4-0.4,0.7-0.6,1
	C412.1,521.1,411.8,521.3,411.4,521.6z M421.4,519.4l-1.3-3.3h-5.4l-0.8,1.9c-0.2,0.5-0.3,1-0.3,1.5s0.2,1,0.5,1.4
	c0.3,0.4,0.8,0.6,1.4,0.6v0.6h-5.3v-0.6c1.2-0.2,2.1-1.2,2.9-3.1l4-10.2c-0.2-0.4-0.4-0.6-0.7-0.7c-0.2-0.1-0.6-0.2-1-0.3v-0.6
	l2.8-0.9h1.1l5.3,13.5c0.3,0.8,0.6,1.3,0.9,1.6s0.8,0.5,1.4,0.6v0.6H420v-0.6c0.6-0.1,1-0.2,1.3-0.3c0.3-0.1,0.4-0.4,0.4-0.7
	C421.7,520.3,421.6,519.9,421.4,519.4z M401.5,519.6v-11.1c0-0.9,0.1-1.5,0.2-1.8c-0.3,0-0.5,0.1-0.7,0.3c-0.1,0.1-0.2,0.4-0.2,0.6
	c0,0.3,0,0.7,0,1.3V520c0,0.6-0.1,0.9-0.2,1.1c-0.1,0.2-0.3,0.4-0.7,0.6h0.4c0.5,0,0.9-0.2,1-0.5
	C401.5,520.9,401.5,520.3,401.5,519.6z M387.4,506.7H387c0.5,0.2,0.8,0.4,1.1,0.8c0.3,0.3,0.5,0.8,0.8,1.5l5.3,12.6
	c0.2-0.3,0.3-0.6,0.3-0.8s-0.1-0.5-0.3-0.9l-4.6-11.1c-0.3-0.7-0.6-1.3-0.9-1.6C388.5,506.9,388,506.7,387.4,506.7z M386.6,521.6
	h2.4c-0.3-0.1-0.5-0.3-0.7-0.6s-0.3-0.6-0.4-0.9c-0.1,0.3-0.3,0.6-0.5,0.8C387.2,521.2,386.9,521.4,386.6,521.6z M395.6,518.3
	l5-12.3h5v0.6c-0.8,0-1.3,0.1-1.6,0.3s-0.5,0.5-0.6,0.8c-0.1,0.4-0.1,1-0.1,2v9.9c0,0.5,0.1,0.9,0.2,1.1c0.1,0.3,0.3,0.4,0.6,0.5
	s0.8,0.2,1.4,0.2v0.6h-7.4v-0.6c0.7,0,1.3-0.1,1.6-0.3s0.5-0.4,0.6-0.7c0.1-0.3,0.1-0.8,0.1-1.5v-11.1l-5.7,14.1H394l-5.6-13.7v9.4
	c0,1.1,0.2,1.9,0.6,2.5c0.4,0.6,1.1,1,2,1.2v0.6h-5.8v-0.6c0.8-0.1,1.4-0.4,1.9-1c0.4-0.6,0.7-1.3,0.7-2.3v-10.6
	c-0.3-0.3-0.7-0.6-1.1-0.8c-0.4-0.2-0.9-0.2-1.4-0.2v-0.6h5.2L395.6,518.3z M370.4,506.7h-2.5c0.4,0.1,0.7,0.3,0.9,0.5
	c0.2,0.2,0.4,0.5,0.6,0.9C369.6,507.5,369.9,507,370.4,506.7z M356,521.6h2.4c-0.3-0.3-0.6-0.5-0.7-0.7s-0.3-0.5-0.4-0.9
	c-0.1,0.4-0.3,0.7-0.5,0.9C356.7,521.2,356.4,521.4,356,521.6z M368.6,519.8l-10.3-12.1c-0.2-0.3-0.5-0.5-0.8-0.7
	c-0.3-0.2-0.7-0.3-1.2-0.3h-0.5c0.4,0.2,0.8,0.3,1,0.6c0.2,0.2,0.6,0.6,1,1.1l11.8,13.7v-0.6c0-0.2,0-0.4-0.1-0.5l-0.2-0.4
	C369.1,520.4,368.9,520.2,368.6,519.8z M366.4,506.7v-0.6h6.1v0.6c-0.5,0-1,0.1-1.3,0.3c-0.4,0.2-0.7,0.5-0.9,0.9
	c-0.2,0.4-0.3,0.9-0.3,1.5l0.2,13.2h-0.7l-11.7-13.7l0.2,9.2c0,0.6,0.1,1.1,0.1,1.4c0.1,0.4,0.2,0.7,0.4,1c0.2,0.3,0.5,0.5,0.9,0.7
	c0.4,0.2,0.8,0.3,1.4,0.3v0.6h-6.1v-0.6c0.8-0.1,1.4-0.3,1.8-0.6c0.4-0.4,0.6-0.8,0.7-1.4c0.1-0.5,0.1-1.2,0.1-2.1l-0.2-9.4
	c-0.4-0.5-0.9-0.8-1.3-1.1c-0.4-0.2-0.8-0.4-1.3-0.4l-0.1-0.6h4.7l10.3,12.1l-0.2-8.1c0-0.6-0.1-1.1-0.2-1.6c-0.1-0.4-0.3-0.8-0.6-1
	c-0.2-0.2-0.5-0.4-0.9-0.5C367.1,506.8,366.7,506.7,366.4,506.7z M343.6,506.6c0.9,0.5,1.6,1.1,2.2,1.9c0.6,0.8,1.1,1.8,1.4,2.9
	s0.5,2.4,0.5,3.7c0,1.3-0.2,2.4-0.5,3.3c-0.3,0.9-0.8,1.8-1.5,2.5c0.6-0.5,1.2-1,1.6-1.6c0.4-0.6,0.7-1.3,0.9-2
	c0.2-0.8,0.3-1.6,0.3-2.6c0-1.4-0.2-2.6-0.6-3.8c-0.4-1.1-0.9-2.1-1.6-2.9C345.5,507.3,344.6,506.8,343.6,506.6z M336.6,512.9
	c0,1.3,0.1,2.6,0.4,3.7s0.7,2.1,1.2,2.9c0.5,0.8,1.1,1.4,1.8,1.8c0.7,0.4,1.5,0.6,2.3,0.6c0.7,0,1.3-0.2,2-0.4
	c0.6-0.3,1.2-0.7,1.6-1.3c0.5-0.6,0.8-1.3,1.1-2.2c0.3-0.9,0.4-1.9,0.4-3c0-1.3-0.1-2.4-0.4-3.5c-0.3-1.1-0.7-2-1.2-2.7
	c-0.5-0.7-1.1-1.3-1.9-1.7c-0.7-0.4-1.5-0.6-2.3-0.6c-0.7,0-1.4,0.2-2,0.5c-0.6,0.3-1.1,0.7-1.6,1.3c-0.4,0.6-0.8,1.3-1,2
	C336.7,511,336.6,511.9,336.6,512.9z M337.6,507c-1.3,0.8-2.2,1.8-2.9,3c-0.7,1.2-1,2.6-1,4.1c0,1.3,0.2,2.4,0.6,3.5
	c0.4,1,1.1,1.9,1.9,2.7c0.8,0.7,1.9,1.3,3.1,1.7c-1.5-0.8-2.7-1.8-3.6-3.2c-0.9-1.3-1.3-3-1.3-4.9c0-1,0.1-1.8,0.4-2.6
	c0.2-0.8,0.6-1.5,1.1-2.2C336.4,508.4,336.9,507.7,337.6,507z M333.4,514.1c0-0.7,0.1-1.3,0.2-2c0.1-0.6,0.3-1.2,0.6-1.8
	c0.3-0.6,0.6-1.1,1-1.6c0.4-0.5,0.8-0.9,1.3-1.3c0.5-0.4,1-0.7,1.6-1s1.2-0.4,1.9-0.6c0.7-0.1,1.4-0.2,2.2-0.2
	c1.3,0,2.5,0.2,3.5,0.7c1.1,0.4,2,1,2.7,1.8c0.7,0.8,1.3,1.7,1.7,2.7c0.4,1,0.6,2.1,0.6,3.2c0,1.2-0.2,2.3-0.7,3.4
	c-0.4,1-1.1,1.9-1.9,2.7c-0.8,0.8-1.8,1.4-2.8,1.8c-1.1,0.4-2.3,0.6-3.5,0.6s-2.3-0.2-3.3-0.6c-1-0.4-1.9-1-2.6-1.7
	c-0.7-0.8-1.3-1.6-1.7-2.7C333.6,516.4,333.4,515.3,333.4,514.1z M325.2,521.6h2.1l1-2.3c-0.4,0.5-0.9,1-1.4,1.3
	C326.4,521,325.9,521.4,325.2,521.6z M317.5,508.5v11.7c0,0.4-0.1,0.7-0.2,0.9s-0.3,0.4-0.6,0.5h0.2h0.2c0.8,0,1.2-0.6,1.2-1.7v-11
	c0-0.8-0.1-1.3-0.2-1.7c-0.1-0.4-0.5-0.6-1-0.6h-0.3c0.3,0.2,0.5,0.4,0.6,0.6C317.4,507.5,317.5,507.9,317.5,508.5z M314.6,506.7
	v-0.6h8v0.6h-0.4c-0.6,0-1.1,0.1-1.4,0.2c-0.3,0.1-0.5,0.3-0.7,0.6c-0.1,0.3-0.2,0.7-0.2,1.2v11.2c0,0.4,0.1,0.8,0.2,1
	s0.4,0.4,0.8,0.5c0.4,0.1,0.9,0.2,1.7,0.2c0.6,0,1.2,0,1.7-0.1s1-0.3,1.5-0.5c0.5-0.3,1-0.6,1.5-1.1c0.5-0.5,1.1-1,1.6-1.7h1.1
	l-1.5,4.1h-13.9v-0.6c0.8,0,1.3-0.1,1.7-0.2c0.3-0.1,0.6-0.3,0.7-0.6s0.2-0.7,0.2-1.1V509c0-0.6-0.1-1-0.2-1.3
	c-0.1-0.3-0.3-0.5-0.7-0.6C315.9,506.8,315.3,506.7,314.6,506.7z M307.5,521.6l0.8-2c-0.5,0.5-0.9,0.9-1.2,1.1
	c-0.4,0.2-0.9,0.5-1.6,0.9H307.5z M307,506.7h-2.1c0.6,0.2,1.1,0.4,1.5,0.7c0.4,0.3,0.9,0.6,1.4,1L307,506.7z M305.1,515v-2.2
	c-0.3,0.5-0.8,0.9-1.6,1.1c0.4,0.1,0.8,0.3,1,0.4S304.9,514.7,305.1,515z M297.4,508.6v11.1c0,0.6-0.1,1-0.2,1.2
	c-0.1,0.3-0.3,0.5-0.6,0.7c0.6,0,1-0.2,1.2-0.5s0.3-0.8,0.3-1.6v-11.1c0-0.7-0.1-1.1-0.3-1.3c-0.2-0.2-0.6-0.3-1.2-0.3
	c0.3,0.2,0.5,0.4,0.6,0.6C297.3,507.7,297.4,508.1,297.4,508.6z M299.9,514.2v5c0,0.6,0,1,0.1,1.3s0.2,0.5,0.4,0.7
	c0.2,0.2,0.5,0.2,0.9,0.3c0.4,0,1,0.1,1.6,0.1c0.8,0,1.6-0.1,2.3-0.4c0.7-0.3,1.3-0.6,1.9-1.1c0.6-0.5,1.2-1.2,1.9-2h0.9l-1.4,4.2
	h-14.1v-0.6c0.7,0,1.2-0.1,1.6-0.2c0.4-0.1,0.6-0.3,0.8-0.5c0.1-0.2,0.2-0.6,0.2-1v-11.3c0-0.5-0.1-0.9-0.2-1.2
	c-0.1-0.2-0.4-0.4-0.7-0.5c-0.3-0.1-0.9-0.2-1.6-0.2v-0.6H308l1.4,3.7h-0.8c-0.4-0.6-1-1.1-1.6-1.5c-0.6-0.5-1.4-0.8-2.1-1.1
	c-0.8-0.3-1.6-0.4-2.5-0.4c-0.7,0-1.2,0.1-1.6,0.2c-0.4,0.1-0.6,0.4-0.7,0.6c-0.1,0.3-0.2,0.6-0.2,1.1v5h2.3c2,0,3-0.9,3.1-2.8h0.8
	v6.1h-0.7c-0.1-0.9-0.4-1.6-0.8-2c-0.4-0.4-1.1-0.6-2-0.6h-2.7V514.2z M286.8,509l-0.4-2.2c-0.3,0.1-0.5,0.1-0.8,0.1
	c-0.3,0-0.6,0-0.9-0.1c0.3,0.2,0.6,0.4,0.8,0.7c0.2,0.2,0.5,0.5,0.7,0.9C286.5,508.7,286.7,508.9,286.8,509z M278.1,518.6v3.1
	c0.2-0.3,0.4-0.5,0.6-0.6s0.5-0.1,0.9-0.1l-0.5-0.7c-0.1-0.1-0.2-0.4-0.4-0.6C278.5,519.4,278.3,519,278.1,518.6z M278.1,509.1
	c-0.1,0.6-0.2,1.1-0.2,1.4c0,0.4,0.1,0.8,0.2,1.2c0.1,0.4,0.3,0.8,0.6,1.2c0.3,0.4,0.6,0.7,0.9,0.9c0.5,0.3,0.9,0.5,1.5,0.7
	c0.5,0.1,1.3,0.3,2.4,0.4c1,0.2,1.8,0.3,2.2,0.5c0.7,0.3,1.3,0.7,1.7,1.2c0.4,0.6,0.6,1.2,0.6,1.9c0,0.6-0.2,1.1-0.5,1.7
	c0.6-0.6,0.9-1.4,0.9-2.3c0-0.9-0.2-1.6-0.7-2.1c-0.5-0.5-1-0.9-1.7-1.1c-0.7-0.2-1.6-0.5-2.8-0.7l-1.8-0.3
	c-1.1-0.3-1.9-0.8-2.5-1.5c-0.6-0.7-0.8-1.5-0.8-2.4v-0.4L278.1,509.1z M277.7,516.4h0.8c0.4,1.2,0.9,2.2,1.5,3
	c0.6,0.8,1.2,1.4,1.9,1.8c0.7,0.4,1.4,0.6,2.2,0.6c1,0,1.8-0.3,2.5-0.9c0.7-0.6,1-1.4,1-2.3s-0.2-1.6-0.7-2c-0.5-0.5-1-0.8-1.6-1
	c-0.6-0.2-1.5-0.4-2.5-0.5c-1-0.2-1.8-0.3-2.2-0.5c-0.7-0.2-1.2-0.5-1.7-0.9c-0.5-0.4-0.8-0.9-1.1-1.4c-0.2-0.6-0.4-1.2-0.4-1.8
	c0-0.6,0.1-1.2,0.3-1.8c0.2-0.6,0.5-1.1,0.9-1.5c0.4-0.4,0.9-0.8,1.4-1c0.6-0.3,1.2-0.4,1.9-0.4c0.5,0,1.1,0.1,1.8,0.2
	c0.7,0.1,1.2,0.2,1.6,0.2c0.4,0,0.8-0.1,1.2-0.3h0.9l0.5,4.7h-0.8c-0.8-1.4-1.5-2.5-2.4-3.2c-0.8-0.7-1.8-1.1-2.9-1.1
	c-0.6,0-1.1,0.1-1.5,0.4c-0.5,0.3-0.9,0.6-1.1,1.1c-0.3,0.5-0.4,1-0.4,1.5c0,0.8,0.3,1.4,0.8,1.8c0.5,0.4,1.3,0.7,2.3,0.9
	c1,0.2,1.9,0.4,2.7,0.5c0.8,0.1,1.4,0.3,1.9,0.6c0.9,0.4,1.5,1,2,1.8c0.5,0.8,0.7,1.6,0.7,2.6c0,0.9-0.2,1.8-0.7,2.6
	c-0.4,0.8-1.1,1.4-1.9,1.9c-0.8,0.5-1.7,0.7-2.7,0.7c-0.6,0-1,0-1.3-0.1c-0.3-0.1-0.8-0.2-1.5-0.5c-0.7-0.2-1.2-0.4-1.6-0.4
	c-0.6,0-1.1,0.2-1.5,0.7h-0.7v-6H277.7z M259.6,521.6l0.8-2c-0.5,0.5-0.9,0.9-1.2,1.1c-0.4,0.2-0.9,0.5-1.6,0.9H259.6z M259.1,506.7
	H257c0.6,0.2,1.1,0.4,1.5,0.7c0.4,0.3,0.9,0.6,1.4,1L259.1,506.7z M257.2,515v-2.2c-0.3,0.5-0.8,0.9-1.6,1.1c0.4,0.1,0.8,0.3,1,0.4
	C256.9,514.4,257.1,514.7,257.2,515z M249.5,508.6v11.1c0,0.6-0.1,1-0.2,1.2c-0.1,0.3-0.3,0.5-0.6,0.7c0.6,0,1-0.2,1.2-0.5
	c0.2-0.3,0.3-0.8,0.3-1.6v-11.1c0-0.7-0.1-1.1-0.3-1.3c-0.2-0.2-0.6-0.3-1.2-0.3c0.3,0.2,0.5,0.4,0.6,0.6
	C249.5,507.7,249.5,508.1,249.5,508.6z M252,514.2v5c0,0.6,0,1,0.1,1.3c0.1,0.3,0.2,0.5,0.4,0.7c0.2,0.2,0.5,0.2,0.9,0.3
	c0.4,0,1,0.1,1.6,0.1c0.8,0,1.6-0.1,2.3-0.4c0.7-0.3,1.3-0.6,1.9-1.1c0.6-0.5,1.2-1.2,1.9-2h0.9l-1.4,4.2h-14.1v-0.6
	c0.7,0,1.2-0.1,1.6-0.2c0.4-0.1,0.6-0.3,0.8-0.5c0.1-0.2,0.2-0.6,0.2-1v-11.3c0-0.5-0.1-0.9-0.2-1.2c-0.1-0.2-0.4-0.4-0.7-0.5
	c-0.3-0.1-0.9-0.2-1.6-0.2v-0.6h13.6l1.4,3.7h-0.8c-0.4-0.6-1-1.1-1.6-1.5c-0.6-0.5-1.4-0.8-2.1-1.1c-0.8-0.3-1.6-0.4-2.5-0.4
	c-0.7,0-1.2,0.1-1.6,0.2s-0.6,0.4-0.7,0.6c-0.1,0.3-0.2,0.6-0.2,1.1v5h2.3c2,0,3-0.9,3.1-2.8h0.8v6.1h-0.7c-0.1-0.9-0.4-1.6-0.8-2
	c-0.4-0.4-1.1-0.6-2-0.6H252V514.2z M237.7,519.6v-11.1c0-0.9,0.1-1.5,0.2-1.8c-0.3,0-0.5,0.1-0.7,0.3c-0.1,0.1-0.2,0.4-0.2,0.6
	c0,0.3,0,0.7,0,1.3V520c0,0.6-0.1,0.9-0.2,1.1c-0.1,0.2-0.3,0.4-0.7,0.6h0.4c0.5,0,0.9-0.2,1-0.5
	C237.6,520.9,237.7,520.3,237.7,519.6z M223.6,506.7h-0.4c0.5,0.2,0.8,0.4,1.1,0.8c0.3,0.3,0.5,0.8,0.8,1.5l5.3,12.6
	c0.2-0.3,0.3-0.6,0.3-0.8s-0.1-0.5-0.3-0.9l-4.6-11.1c-0.3-0.7-0.6-1.3-0.9-1.6C224.6,506.9,224.2,506.7,223.6,506.7z M222.7,521.6
	h2.4c-0.3-0.1-0.5-0.3-0.7-0.6c-0.2-0.3-0.3-0.6-0.4-0.9c-0.1,0.3-0.3,0.6-0.5,0.8C223.3,521.2,223.1,521.4,222.7,521.6z
	 M231.7,518.3l5-12.3h5v0.6c-0.8,0-1.3,0.1-1.6,0.3s-0.5,0.5-0.6,0.8c-0.1,0.4-0.1,1-0.1,2v9.9c0,0.5,0.1,0.9,0.2,1.1
	c0.1,0.3,0.3,0.4,0.6,0.5c0.3,0.1,0.8,0.2,1.4,0.2v0.6h-7.4v-0.6c0.7,0,1.3-0.1,1.6-0.3c0.3-0.2,0.5-0.4,0.6-0.7
	c0.1-0.3,0.1-0.8,0.1-1.5v-11.1l-5.7,14.1h-0.7l-5.6-13.7v9.4c0,1.1,0.2,1.9,0.6,2.5c0.4,0.6,1.1,1,2,1.2v0.6h-5.8v-0.6
	c0.8-0.1,1.4-0.4,1.9-1c0.4-0.6,0.7-1.3,0.7-2.3v-10.6c-0.3-0.3-0.7-0.6-1.1-0.8c-0.4-0.2-0.9-0.2-1.4-0.2v-0.6h5.2L231.7,518.3z
	 M212.4,519.6v-11.1c0-0.9,0.1-1.5,0.2-1.8c-0.3,0-0.5,0.1-0.7,0.3c-0.1,0.1-0.2,0.4-0.2,0.6c0,0.3,0,0.7,0,1.3V520
	c0,0.6-0.1,0.9-0.2,1.1c-0.1,0.2-0.3,0.4-0.7,0.6h0.4c0.5,0,0.9-0.2,1-0.5C212.3,520.9,212.4,520.3,212.4,519.6z M198.3,506.7h-0.4
	c0.5,0.2,0.8,0.4,1.1,0.8c0.3,0.3,0.5,0.8,0.8,1.5l5.3,12.6c0.2-0.3,0.3-0.6,0.3-0.8s-0.1-0.5-0.3-0.9l-4.6-11.1
	c-0.3-0.7-0.6-1.3-0.9-1.6C199.4,506.9,198.9,506.7,198.3,506.7z M197.4,521.6h2.4c-0.3-0.1-0.5-0.3-0.7-0.6
	c-0.2-0.3-0.3-0.6-0.4-0.9c-0.1,0.3-0.3,0.6-0.5,0.8C198.1,521.2,197.8,521.4,197.4,521.6z M206.4,518.3l5-12.3h5v0.6
	c-0.8,0-1.3,0.1-1.6,0.3c-0.3,0.2-0.5,0.5-0.6,0.8c-0.1,0.4-0.1,1-0.1,2v9.9c0,0.5,0.1,0.9,0.2,1.1c0.1,0.3,0.4,0.4,0.6,0.5
	c0.3,0.1,0.8,0.2,1.4,0.2v0.6H209v-0.6c0.7,0,1.3-0.1,1.6-0.3c0.3-0.2,0.5-0.4,0.6-0.7c0.1-0.3,0.1-0.8,0.1-1.5v-11.1l-5.7,14.1
	h-0.7l-5.6-13.7v9.4c0,1.1,0.2,1.9,0.6,2.5c0.4,0.6,1.1,1,2,1.2v0.6h-5.8v-0.6c0.8-0.1,1.4-0.4,1.9-1c0.4-0.6,0.7-1.3,0.7-2.3v-10.6
	c-0.3-0.3-0.7-0.6-1.1-0.8c-0.4-0.2-0.9-0.2-1.4-0.2v-0.6h5.2L206.4,518.3z M189.1,521.6l0.8-2c-0.5,0.5-0.9,0.9-1.2,1.1
	c-0.4,0.2-0.9,0.5-1.6,0.9H189.1z M188.6,506.7h-2.1c0.6,0.2,1.1,0.4,1.5,0.7c0.4,0.3,0.9,0.6,1.4,1L188.6,506.7z M186.7,515v-2.2
	c-0.3,0.5-0.8,0.9-1.6,1.1c0.4,0.1,0.8,0.3,1,0.4C186.4,514.4,186.6,514.7,186.7,515z M179,508.6v11.1c0,0.6-0.1,1-0.2,1.2
	c-0.1,0.3-0.3,0.5-0.6,0.7c0.6,0,1-0.2,1.2-0.5c0.2-0.3,0.3-0.8,0.3-1.6v-11.1c0-0.7-0.1-1.1-0.3-1.3c-0.2-0.2-0.6-0.3-1.2-0.3
	c0.3,0.2,0.5,0.4,0.6,0.6C179,507.7,179,508.1,179,508.6z M181.5,514.2v5c0,0.6,0,1,0.1,1.3c0.1,0.3,0.2,0.5,0.4,0.7
	c0.2,0.2,0.5,0.2,0.9,0.3c0.4,0,1,0.1,1.6,0.1c0.8,0,1.6-0.1,2.3-0.4c0.7-0.3,1.3-0.6,1.9-1.1c0.6-0.5,1.2-1.2,1.9-2h0.9l-1.4,4.2
	H176v-0.6c0.7,0,1.2-0.1,1.6-0.2c0.4-0.1,0.6-0.3,0.8-0.5c0.1-0.2,0.2-0.6,0.2-1v-11.3c0-0.5-0.1-0.9-0.2-1.2
	c-0.1-0.2-0.4-0.4-0.7-0.5c-0.3-0.1-0.9-0.2-1.6-0.2v-0.6h13.6l1.4,3.7h-0.8c-0.4-0.6-1-1.1-1.6-1.5c-0.6-0.5-1.4-0.8-2.1-1.1
	c-0.8-0.3-1.6-0.4-2.5-0.4c-0.7,0-1.2,0.1-1.6,0.2c-0.4,0.1-0.6,0.4-0.7,0.6c-0.1,0.3-0.2,0.6-0.2,1.1v5h2.3c2,0,3-0.9,3.1-2.8h0.8
	v6.1H187c-0.1-0.9-0.4-1.6-0.8-2c-0.4-0.4-1.1-0.6-2-0.6h-2.7V514.2z M170.3,508.6l-1.1-1.9H167c0.5,0.2,0.9,0.3,1.3,0.5
	c0.4,0.2,0.7,0.4,0.9,0.6C169.5,508,169.8,508.2,170.3,508.6z M167.6,515v-2.4c-0.2,0.3-0.4,0.6-0.6,0.7c-0.2,0.2-0.6,0.3-1,0.5
	c0.5,0.1,0.8,0.3,1.1,0.4C167.2,514.4,167.4,514.7,167.6,515z M160.6,520.1v-10.8c0-0.8,0-1.4-0.1-1.7c-0.1-0.4-0.2-0.6-0.4-0.8
	c-0.2-0.2-0.6-0.2-1.1-0.2c0.4,0.1,0.7,0.4,0.8,0.6c0.1,0.3,0.1,0.8,0.1,1.5v10.7c0,0.5,0,0.8-0.1,1.1c0,0.2-0.1,0.4-0.2,0.5
	c-0.1,0.1-0.3,0.3-0.5,0.4c0.6,0,1-0.1,1.2-0.3C160.4,521.1,160.6,520.7,160.6,520.1z M156.9,506.1h13.4l1.4,3.7h-0.8
	c-0.5-0.5-1-1-1.5-1.4c-0.6-0.4-1.1-0.8-1.7-1c-0.6-0.3-1.1-0.4-1.6-0.5c-0.4-0.1-0.9-0.1-1.4-0.1c-0.8,0-1.3,0.1-1.6,0.2
	c-0.3,0.1-0.5,0.4-0.6,0.8c-0.1,0.4-0.1,1-0.1,1.9v3.9h2.1c1.1,0,1.9-0.2,2.4-0.7c0.5-0.5,0.8-1.2,0.8-2.2h0.8v6.1h-0.8
	c-0.1-0.8-0.2-1.3-0.4-1.7c-0.2-0.4-0.5-0.6-1-0.7c-0.4-0.1-1.1-0.2-1.9-0.2h-2v5.6c0,0.7,0.2,1.1,0.6,1.4c0.4,0.3,1,0.4,2,0.4h0.3
	v0.6H157v-0.6c0.7,0,1.3-0.1,1.6-0.2c0.3-0.1,0.6-0.4,0.7-0.7c0.1-0.3,0.2-0.8,0.2-1.4v-10v-0.6c0-0.7-0.1-1.3-0.4-1.6
	c-0.3-0.3-0.9-0.5-1.8-0.5H157L156.9,506.1L156.9,506.1z M138.6,519l-4.1-10.4c-0.2-0.5-0.4-0.9-0.6-1.1c-0.2-0.2-0.5-0.3-0.9-0.3
	c-0.2,0-0.4,0-0.5,0c0.4,0.1,0.6,0.3,0.8,0.6c0.2,0.3,0.4,0.6,0.5,1l4.1,10.4c0.3,0.6,0.4,1.1,0.4,1.4c0,0.2,0,0.4-0.1,0.5
	c-0.1,0.1-0.3,0.2-0.5,0.4h0.3c0.4,0,0.6-0.1,0.8-0.3c0.2-0.2,0.3-0.4,0.3-0.7C139,520.3,138.9,519.7,138.6,519z M131.1,515.4h4.9
	l-2.4-6.2L131.1,515.4z M127.6,521.6h2.2c-0.5-0.4-0.7-0.8-0.7-1.4c0-0.2,0-0.3,0-0.4c-0.2,0.4-0.4,0.7-0.6,1
	C128.2,521.1,128,521.3,127.6,521.6z M137.6,519.4l-1.3-3.3h-5.4l-0.8,1.9c-0.2,0.5-0.3,1-0.3,1.5s0.2,1,0.5,1.4s0.8,0.6,1.4,0.6
	v0.6h-5.3v-0.6c1.2-0.2,2.1-1.2,2.9-3.1l4-10.2c-0.2-0.4-0.4-0.6-0.7-0.7c-0.2-0.1-0.6-0.2-1-0.3v-0.6l2.8-0.9h1.1l5.3,13.5
	c0.3,0.8,0.6,1.3,0.9,1.6c0.3,0.3,0.8,0.5,1.4,0.6v0.6h-6.8v-0.6c0.6-0.1,1-0.2,1.3-0.3s0.4-0.4,0.4-0.7
	C137.9,520.3,137.8,519.9,137.6,519.4z M117.6,521.6h2.1l1-2.3c-0.4,0.5-0.9,1-1.4,1.3C118.8,521,118.2,521.4,117.6,521.6z
	 M109.8,508.5v11.7c0,0.4-0.1,0.7-0.2,0.9c-0.1,0.2-0.3,0.4-0.6,0.5h0.2h0.2c0.8,0,1.2-0.6,1.2-1.7v-11c0-0.8-0.1-1.3-0.2-1.7
	c-0.1-0.4-0.5-0.6-1-0.6H109c0.3,0.2,0.5,0.4,0.6,0.6C109.7,507.5,109.8,507.9,109.8,508.5z M106.9,506.7v-0.6h8v0.6h-0.4
	c-0.6,0-1.1,0.1-1.4,0.2c-0.3,0.1-0.5,0.3-0.7,0.6c-0.1,0.3-0.2,0.7-0.2,1.2v11.2c0,0.4,0.1,0.8,0.2,1c0.1,0.2,0.4,0.4,0.8,0.5
	s0.9,0.2,1.7,0.2c0.6,0,1.2,0,1.7-0.1s1-0.3,1.5-0.5c0.5-0.3,1-0.6,1.5-1.1c0.5-0.5,1.1-1,1.6-1.7h1.1l-1.5,4.1h-13.9v-0.6
	c0.8,0,1.3-0.1,1.7-0.2c0.3-0.1,0.6-0.3,0.7-0.6c0.1-0.3,0.2-0.7,0.2-1.1V509c0-0.6-0.1-1-0.2-1.3c-0.1-0.3-0.3-0.5-0.7-0.6
	C108.2,506.8,107.6,506.7,106.9,506.7z M439.2,522.3h-7.9v-0.6c0.7,0,1.3-0.1,1.7-0.2c0.4-0.1,0.6-0.3,0.7-0.6s0.2-0.7,0.2-1.3
	v-10.7c0-0.6-0.1-1.1-0.2-1.4s-0.4-0.5-0.7-0.6c-0.3-0.1-0.9-0.2-1.7-0.2v-0.6h9.1c1.1,0,2.1,0.2,3,0.6c0.9,0.4,1.5,0.9,1.9,1.6
	c0.4,0.7,0.7,1.4,0.7,2.1c0,0.5-0.1,1-0.3,1.5c-0.2,0.5-0.5,0.9-0.9,1.3c-0.4,0.4-0.8,0.7-1.4,1c-0.5,0.3-1.1,0.5-1.8,0.6
	c0.5,0.5,1.2,1.3,2,2.2l1.1,1.3l0.2,0.3l0.4,0.4l0.9,1.1c0.3,0.3,0.5,0.5,0.7,0.8c0.3,0.2,0.5,0.4,0.7,0.6c0.2,0.1,0.5,0.2,0.8,0.3
	v0.6h-2.2c-0.5,0-1-0.1-1.4-0.3c-0.4-0.2-0.9-0.5-1.3-0.9c-0.4-0.4-0.9-0.9-1.4-1.6l-1.6-2c-0.7-1-1.3-1.6-1.7-2
	c-0.4-0.4-0.7-0.6-0.9-0.6h-1.3v4.9c0,0.5,0.1,0.9,0.2,1.1c0.1,0.3,0.4,0.5,0.8,0.6c0.2,0.1,0.5,0.1,0.8,0.1c0.3,0,0.6,0.1,0.7,0
	L439.2,522.3L439.2,522.3z M434.2,508.8v11.3c0,0.7-0.3,1.2-0.8,1.5c1,0,1.5-0.4,1.5-1.2v-11.6c0-0.6,0-1-0.1-1.3s-0.2-0.5-0.4-0.7
	c-0.2-0.1-0.6-0.2-1.1-0.2c0.4,0.2,0.6,0.4,0.7,0.7C434.2,507.7,434.2,508.2,434.2,508.8z M436.7,509v5.2h1.9c0.6,0,1.2-0.1,1.9-0.3
	c0.6-0.2,1.1-0.5,1.4-0.8c0.6-0.6,0.9-1.5,0.9-2.7c0-1.4-0.5-2.5-1.5-3.2c-0.3-0.2-0.7-0.4-1.1-0.5c-0.4-0.1-0.9-0.1-1.4-0.1
	c-0.6,0-1,0.1-1.3,0.2c-0.3,0.2-0.5,0.4-0.6,0.7C436.7,508,436.7,508.4,436.7,509z M439.7,514.8h-0.9c0.3,0.2,0.6,0.5,0.9,0.9
	c0.4,0.4,0.8,1,1.4,1.7l1.7,2.1c0.5,0.7,1,1.1,1.4,1.5c0.4,0.3,0.8,0.6,1.2,0.7c0.3,0.1,0.7,0.2,1.1,0.2c-0.5-0.2-0.9-0.5-1.4-0.9
	c-0.4-0.4-0.9-0.9-1.4-1.5l-1.5-2c-0.5-0.7-1.1-1.3-1.6-1.9l-0.3-0.4C440,515.1,439.9,515,439.7,514.8z M440.7,514.1
	c1-0.1,1.8-0.5,2.4-1.1c0.6-0.6,0.8-1.5,0.8-2.6s-0.2-1.9-0.7-2.5c-0.5-0.6-1.2-1-2.1-1.1c0.7,0.4,1.2,0.8,1.5,1.4
	c0.3,0.6,0.5,1.4,0.5,2.4c0,1-0.2,1.8-0.6,2.3C442.1,513.4,441.5,513.8,440.7,514.1z"/>
</svg>
