<?xml version="1.0" encoding="utf-8"?>
<!-- Generator: Adobe Illustrator 17.1.0, SVG Export Plug-In . SVG Version: 6.00 Build 0)  -->
<!DOCTYPE svg PUBLIC "-//W3C//DTD SVG 1.1//EN" "http://www.w3.org/Graphics/SVG/1.1/DTD/svg11.dtd">
<svg version="1.1" id="Calque_1" xmlns="http://www.w3.org/2000/svg" xmlns:xlink="http://www.w3.org/1999/xlink" x="0px" y="0px"
	 viewBox="0 0 595.3 841.9" enable-background="new 0 0 595.3 841.9" xml:space="preserve">
<g>
	<path fill="#1D1D1B" d="M245,439.7c-10.6,0-13-8.4-13-13.6c0-5.3,3.6-13.5,12.9-13.5c2.5,0,7.3,0.7,9.1,2.8
		c0.1,0.2,0.2,0.4,0.2,0.6c0,0.1-0.2,0.3-0.4,0.3c-2,0-5,0.8-5,3.9c0,1.9,2.1,3.9,4.8,3.9c3.5,0,5-3,5-5.5c0-1.5-0.5-2.8-1.4-3.9
		c-2.4-3.3-8.2-4.9-12.8-4.9c-11.3,0-21.5,8.2-21.5,16.9c0,8.6,8.3,16.5,20.5,16.5c8.7,0,13.5-2.8,17.4-7.7l-2.4-1.5
		C255.1,437.2,251.1,439.7,245,439.7"/>
	<path fill="#1D1D1B" d="M114.7,435c0,0-0.1-0.5-0.1-15.7c0-14.6,0.1-14.6,0.1-14.6c0.2-4.2-0.4-4.9,9.2-4.9v-2.5H102l-14.6,32.9
		h-0.2l-13.5-32.9h-23v2.5c10,0,9.2,0.4,9.4,4.9c0,0,0.1,1.3,0.1,13.1c0,11.8-0.1,13.4-0.1,13.4c-0.2,7.5-2.5,9-9.3,9v2.5H73v-2.5
		c-7.3-0.6-8.6-1.9-8.6-8v-32.1h1.4l18.3,43.8h1.8l19.2-44h1.2v36c0,3.6-0.5,4.2-9.1,4.3v2.5H124v-2.5
		C115.4,439.9,114.9,439.4,114.7,435"/>
	<path fill="#1D1D1B" d="M320.5,396c-19,0-29.5,13-29.5,23.9s10.6,23.9,29.5,23.9c19,0,29.5-13,29.5-23.9
		C350,408.9,339.5,396,320.5,396 M320.5,441.3c-14.4,0-19.1-11.3-19.1-21.4s4.6-21.4,19.1-21.4c14.4,0,19.1,11.3,19.1,21.4
		C339.6,429.9,335,441.3,320.5,441.3"/>
	<path fill="#1D1D1B" d="M405.3,397.2h-30.4v2.5c8.7,0,8.8,0.8,9.1,5.6c0,0,0,1.5,0,14c0,12.5-0.1,14-0.1,14c-0.3,6-0.8,6.7-9.1,6.7
		v2.5h27.4V440c-9.7-0.1-9.6-0.3-9.6-6.8v-11.5h10.7c11.2,0,27-1.5,27.2-11.9C430.6,400.2,419.8,397.2,405.3,397.2 M392.7,418.7
		v-14.9c0-3.5,2.4-3.9,11.4-3.9c10.7,0,16.6,2.9,16.5,9C420.6,417.1,415.3,418.9,392.7,418.7"/>
	<path fill="#1D1D1B" d="M526.9,409.9c-12.6,0-20.5,8.4-20.5,16.6s7.9,16.6,20.5,16.6s20.5-8.4,20.5-16.6S539.5,409.9,526.9,409.9
		 M526.9,440.5c-8.8,0-12.3-7.5-12.3-14.1s3.6-14.1,12.3-14.1c8.8,0,12.3,7.5,12.3,14.1C539.2,433.1,535.7,440.5,526.9,440.5"/>
	<path fill="#1D1D1B" d="M211,409.8c-0.4-0.1-0.9-0.1-1.3-0.1c-0.8,0-1.5,0.1-2.3,0.2l0,0c-6.9,1.1-10.8,6.1-13.2,11.8H194v-12
		l-14.6,0.7v2.3c7,0.3,6.9,0.8,7,6.7c0,0,0,1.7,0,8.6c0,6.9-0.1,8.4-0.1,8.4c0,3.3-0.7,3.8-6.9,3.8v2.4h22.3v-2.4
		c-7.8,0-7.8-0.4-7.8-5.2c0-10,6.8-22.7,15-22.4c0.6,0,1.4,0.1,1.5,0.3c0,0,0.1,0.1,0,0.2c-0.1,0.7-2.7,1.2-2.7,4.2
		c0,2.8,2.9,3.8,4.8,3.8c3.2-0.1,4.8-2.9,4.9-4.5C217.7,413.5,216,410.5,211,409.8"/>
	<path fill="#1D1D1B" d="M361.1,395.7c-2.2,0-4.4,1.8-4.4,3.8c0.1,4.5,5.1,4.3,5.1,5c0,2.2-2,4.3-5.3,6.8l2.2,1.4
		c3.7-2.8,8.3-6.3,8.3-11.5C367,397.9,364.9,395.7,361.1,395.7"/>
	<path fill="#1D1D1B" d="M452.8,409.9c-12.6,0-20.5,8.4-20.5,16.6s7.9,16.6,20.5,16.6s20.5-8.4,20.5-16.6S465.4,409.9,452.8,409.9
		 M452.8,440.5c-8.8,0-12.3-7.5-12.3-14.1s3.5-14.1,12.3-14.1s12,7.5,12,14.1C464.7,433.1,461.5,440.5,452.8,440.5"/>
	<path fill="#1D1D1B" d="M493.8,435.6v-39.4l-16,1v2.4c7,0.3,8.1,0.8,8.1,4.4c0,0,0.2,1.5,0.2,15.5c0,14-0.2,15.6-0.2,15.6
		c0,4.3-1,5-7.1,5v2.5h21.9V440C494.8,440,493.8,438.9,493.8,435.6"/>
	<path fill="#1D1D1B" d="M172.5,438.3c-0.3,0.3-1.3,1.5-2.9,1.5c-2.6,0-3.1-2-3.1-5.2v-15c0-8.8-9.8-9.8-17-9.8
		c-1.8,0-3.7,0.1-5.4,0.4c-1.7,0.2-3.3,0.6-4.8,1.1c0,0,0,0-0.1,0l0,0c-3.7,1.3-6.3,4-6.3,6.9c0,2.2,2,4.4,4.6,4.4c2.8,0,5-1.6,5-4
		c0-2.1-1.1-3.5-3.5-4.1c0.3-0.3,1.8-0.9,3.3-1.3c1.9-0.5,5-0.6,6.5-0.6c7.1,0,10,2.6,10.2,7.7c0,2.4,0,2.8,0,2.8
		c-10.5,2.6-27.8,2.3-28,11.9c-0.1,4.4,4.8,8.3,11.1,8.3c8.2,0,12.8-2.7,16.7-7.5h0.2c0.2,4,3,7.5,8,7.5c5.5,0,7.2-2.9,7.5-3.1
		L172.5,438.3z M158.8,428.4c-0.2,5.7-5.4,11.1-13.3,11.1c-2.9,0-5.9-1.7-6.2-4.3c-0.8-7.6,13.5-8.6,19.5-10
		C158.8,425.7,158.9,425.5,158.8,428.4"/>
</g>
</svg>
