<?xml version="1.0" encoding="utf-8"?>
<!-- Generator: Adobe Illustrator 17.1.0, SVG Export Plug-In . SVG Version: 6.00 Build 0)  -->
<!DOCTYPE svg PUBLIC "-//W3C//DTD SVG 1.1//EN" "http://www.w3.org/Graphics/SVG/1.1/DTD/svg11.dtd">
<svg version="1.1" id="Calque_1" xmlns="http://www.w3.org/2000/svg" xmlns:xlink="http://www.w3.org/1999/xlink" x="0px" y="0px"
	 viewBox="0 0 595.3 841.9" enable-background="new 0 0 595.3 841.9" xml:space="preserve">
<g>
	<polygon fill="#1D1D1B" points="51,466.1 99.1,384 103.4,384 103.4,457.6 145.5,384 149.8,384 149.8,466.1 145.5,466.1 
		145.5,393.2 103.4,466.1 99.1,466.1 99.1,393.2 56.2,466.1 	"/>
	<polygon fill="#1D1D1B" points="450.7,466.1 450.7,384 455.1,384 455.1,466.1 	"/>
	<polygon fill="#1D1D1B" points="470.2,466.1 470.1,384 474.5,384 540.3,459.3 540.3,384 544.7,384 544.7,466.1 540.3,466.1 
		474.5,389.9 474.5,466.1 	"/>
	<path fill="#1D1D1B" d="M304.2,464.1c14.5,0,27.1-7.9,33.7-19.7h5.1c-7,14.3-21.7,24.2-38.8,24.2c-23.8,0-43.2-19.3-43.2-43.2
		c0-23.8,19.3-43.2,43.2-43.2c16.2,0,30.4,9,37.7,22.2h-5.2c-6.9-10.7-18.9-17.7-32.5-17.7c-21.4,0-38.7,17.3-38.7,38.7
		C265.5,446.8,282.8,464.1,304.2,464.1L304.2,464.1z"/>
	<path fill="#1D1D1B" d="M353.3,464.1c14.5,0,27.1-7.9,33.7-19.7h5.1c-7,14.3-21.7,24.2-38.8,24.2c-23.8,0-43.2-19.3-43.2-43.2
		c0-23.8,19.3-43.2,43.2-43.2c16.2,0,30.4,9,37.7,22.2h-5.2c-6.9-10.7-18.9-17.7-32.5-17.7c-21.4,0-38.7,17.3-38.7,38.7
		S331.9,464.1,353.3,464.1L353.3,464.1z"/>
	<path fill="#1D1D1B" d="M255.5,466.1h-5L227,423.6h6.4c9.5,0,17.2-7.9,17.2-17.6c0-9.7-7.7-17.6-17.1-17.7h-11.7v77.8h-4.3V384h16
		c11.8,0.1,21.4,9.9,21.4,22c0,11.8-9.1,21.4-20.4,22L255.5,466.1L255.5,466.1z"/>
	<path fill="#1D1D1B" d="M197.2,433.8v-41.1l-23.7,41.1H197.2L197.2,433.8z M149.9,466.1l47.3-82.1h4.3v82.1h-4.3v-27.9H171
		l-16,27.9H149.9L149.9,466.1z"/>
	<path fill="#1D1D1B" d="M430.2,433.8v-41.1l-23.7,41.1H430.2L430.2,433.8z M382.9,466.1l47.3-82.1h4.3v82.1h-4.3v-27.9H404
		l-16,27.9H382.9L382.9,466.1z"/>
</g>
</svg>
