<?xml version="1.0" encoding="utf-8"?>
<!-- Generator: Adobe Illustrator 18.0.0, SVG Export Plug-In . SVG Version: 6.00 Build 0)  -->
<!DOCTYPE svg PUBLIC "-//W3C//DTD SVG 1.1//EN" "http://www.w3.org/Graphics/SVG/1.1/DTD/svg11.dtd">
<svg version="1.1" id="Calque_1" xmlns="http://www.w3.org/2000/svg" xmlns:xlink="http://www.w3.org/1999/xlink" x="0px" y="0px"
	 viewBox="0 0 841.9 595.3" enable-background="new 0 0 841.9 595.3" xml:space="preserve">
<g>
	<path fill="#003552" d="M383.7,310.9c-7.5,0-9.2-5.9-9.2-9.6c0-3.7,2.5-9.5,9.1-9.5c1.8,0,5.2,0.5,6.4,2c0.1,0.1,0.1,0.3,0.1,0.4
		c0,0.1-0.1,0.2-0.3,0.2c-1.4,0-3.5,0.6-3.5,2.8c0,1.3,1.5,2.8,3.4,2.8c2.5,0,3.5-2.1,3.5-3.9c0-1.1-0.4-2-1-2.8
		c-1.7-2.3-5.8-3.5-9.1-3.5c-8,0-15.2,5.8-15.2,11.9c0,6.1,5.9,11.7,14.5,11.7c6.2,0,9.5-2,12.3-5.4l-1.7-1.1
		C390.9,309.1,388,310.9,383.7,310.9"/>
	<path fill="#003552" d="M291.6,307.6c0,0-0.1-0.4-0.1-11.1c0-10.3,0.1-10.3,0.1-10.3c0.1-3-0.3-3.5,6.5-3.5v-1.8h-15.5l-10.3,23.3
		h-0.1l-9.5-23.3h-16.3v1.8c7.1,0,6.5,0.3,6.6,3.5c0,0,0.1,0.9,0.1,9.3c0,8.3-0.1,9.5-0.1,9.5c-0.1,5.3-1.8,6.4-6.6,6.4v1.8h15.7
		v-1.8c-5.2-0.4-6.1-1.3-6.1-5.7v-22.7h1l12.9,31h1.3l13.6-31.1h0.8v25.5c0,2.5-0.4,3-6.4,3v1.8h18.9v-1.8
		C292.1,311,291.7,310.7,291.6,307.6"/>
	<path fill="#003552" d="M437.1,280c-13.4,0-20.9,9.2-20.9,16.9s7.5,16.9,20.9,16.9c13.4,0,20.9-9.2,20.9-16.9
		C458,289.1,450.5,280,437.1,280 M437.1,312c-10.2,0-13.5-8-13.5-15.1s3.3-15.1,13.5-15.1c10.2,0,13.5,8,13.5,15.1
		C450.6,304,447.4,312,437.1,312"/>
	<path fill="#003552" d="M497.1,280.8h-21.5v1.8c6.2,0,6.2,0.6,6.4,4c0,0,0,1.1,0,9.9s-0.1,9.9-0.1,9.9c-0.2,4.2-0.6,4.7-6.4,4.7
		v1.8h19.4v-1.8c-6.9-0.1-6.8-0.2-6.8-4.8v-8.1h7.6c7.9,0,19.1-1.1,19.2-8.4C514.9,283,507.3,280.8,497.1,280.8 M488.2,296v-10.5
		c0-2.5,1.7-2.8,8.1-2.8c7.6,0,11.7,2.1,11.7,6.4C507.9,294.9,504.1,296.2,488.2,296"/>
	<path fill="#003552" d="M583,289.8c-8.9,0-14.5,5.9-14.5,11.7c0,5.8,5.6,11.7,14.5,11.7s14.5-5.9,14.5-11.7
		C597.5,295.8,591.9,289.8,583,289.8 M583,311.5c-6.2,0-8.7-5.3-8.7-10c0-4.7,2.5-10,8.7-10c6.2,0,8.7,5.3,8.7,10
		C591.7,306.2,589.3,311.5,583,311.5"/>
	<path fill="#003552" d="M359.7,289.8c-0.3-0.1-0.6-0.1-0.9-0.1c-0.6,0-1.1,0.1-1.6,0.1l0,0c-4.9,0.8-7.6,4.3-9.3,8.3h-0.1v-8.5
		l-10.3,0.5v1.6c4.9,0.2,4.9,0.6,4.9,4.7c0,0,0,1.2,0,6.1c0,4.9-0.1,5.9-0.1,5.9c0,2.3-0.5,2.7-4.9,2.7v1.7h15.8v-1.7
		c-5.5,0-5.5-0.3-5.5-3.7c0-7.1,4.8-16.1,10.6-15.8c0.4,0,1,0.1,1.1,0.2c0,0,0.1,0.1,0,0.1c-0.1,0.5-1.9,0.8-1.9,3
		c0,2,2.1,2.7,3.4,2.7c2.3-0.1,3.4-2.1,3.5-3.2C364.4,292.4,363.2,290.3,359.7,289.8"/>
	<path fill="#003552" d="M465.8,279.8c-1.6,0-3.1,1.3-3.1,2.7c0.1,3.2,3.6,3,3.6,3.5c0,1.6-1.4,3-3.7,4.8l1.6,1
		c2.6-2,5.9-4.5,5.9-8.1C470,281.3,468.5,279.8,465.8,279.8"/>
	<path fill="#003552" d="M530.6,289.8c-8.9,0-14.5,5.9-14.5,11.7c0,5.8,5.6,11.7,14.5,11.7s14.5-5.9,14.5-11.7
		C545.1,295.8,539.6,289.8,530.6,289.8 M530.6,311.5c-6.2,0-8.7-5.3-8.7-10c0-4.7,2.5-10,8.7-10c6.2,0,8.5,5.3,8.5,10
		C539.1,306.2,536.8,311.5,530.6,311.5"/>
	<path fill="#003552" d="M559.6,308v-27.9l-11.3,0.7v1.7c4.9,0.2,5.7,0.6,5.7,3.1c0,0,0.1,1.1,0.1,11c0,9.9-0.1,11-0.1,11
		c0,3-0.7,3.5-5,3.5v1.8h15.5v-1.8C560.3,311.1,559.6,310.3,559.6,308"/>
	<path fill="#003552" d="M332.5,309.9c-0.2,0.2-0.9,1.1-2.1,1.1c-1.8,0-2.2-1.4-2.2-3.7v-10.6c0-6.2-6.9-6.9-12-6.9
		c-1.3,0-2.6,0.1-3.8,0.3c-1.2,0.1-2.3,0.4-3.4,0.8c0,0,0,0-0.1,0l0,0c-2.6,0.9-4.5,2.8-4.5,4.9c0,1.6,1.4,3.1,3.3,3.1
		c2,0,3.5-1.1,3.5-2.8c0-1.5-0.8-2.5-2.5-2.9c0.2-0.2,1.3-0.6,2.3-0.9c1.3-0.4,3.5-0.4,4.6-0.4c5,0,7.1,1.8,7.2,5.4c0,1.7,0,2,0,2
		c-7.4,1.8-19.7,1.6-19.8,8.4c-0.1,3.1,3.4,5.9,7.8,5.9c5.8,0,9.1-1.9,11.8-5.3h0.1c0.1,2.8,2.1,5.3,5.7,5.3c3.9,0,5.1-2.1,5.3-2.2
		L332.5,309.9z M322.8,302.9c-0.1,4-3.8,7.8-9.4,7.8c-2.1,0-4.2-1.2-4.4-3c-0.6-5.4,9.5-6.1,13.8-7.1
		C322.8,301,322.8,300.9,322.8,302.9"/>
</g>
</svg>
