<?xml version="1.0" encoding="utf-8"?>
<!-- Generator: Adobe Illustrator 17.1.0, SVG Export Plug-In . SVG Version: 6.00 Build 0)  -->
<!DOCTYPE svg PUBLIC "-//W3C//DTD SVG 1.1//EN" "http://www.w3.org/Graphics/SVG/1.1/DTD/svg11.dtd">
<svg version="1.1" id="Calque_1" xmlns="http://www.w3.org/2000/svg" xmlns:xlink="http://www.w3.org/1999/xlink" x="0px" y="0px"
	 viewBox="0 0 595.3 841.9" enable-background="new 0 0 595.3 841.9" xml:space="preserve">
<g>
	<path fill="#1D1D1B" d="M174.9,386.6c0-3.4,1.8-7.1,10.3-7.1v-2.2H162l-25.8,58.9l-27-58.9H86v2.2c9.3,0,11.1,3.7,11.1,7.1v58.6
		c0,3.4-1.8,7.1-11.3,7.1v2.2h27.8v-2.2c-9.6,0-11.3-3.7-11.3-7.1v-54.4l29.3,63.7h1.6l29.9-66.4v57.1c0,3.4-1.8,7.1-10.3,7.1v2.2
		h32.4v-2.2c-8.5,0-10.3-3.7-10.3-7.1L174.9,386.6L174.9,386.6z M223.6,420.9c0-14.4-3.8-19.8-16.7-19.8c-7.4,0-14.7,1.9-18.6,8.8
		c-2.5,4.4-1.4,9.1,4,9.1c2.7,0,5.1-2.5,5.1-5.1c0-3-0.6-5.4,0.1-6.8c1.2-2.2,5.3-3.3,7.6-3.3c7.4,0,8.5,4.6,8.5,16.8
		c-9.9,4.1-28.7,8.9-28.7,22.9c0,6.8,5.4,12.3,12.3,12.3c5.1,0,11.7-4.1,17-8.9c0.1,4.4,2.3,8.9,8.4,8.9c3.3,0,7.8-4.1,9.6-6.2v-3
		c-2.7,1.9-4.8,2.7-6.2,2.7c-1.6,0-2.5-1.4-2.5-3.6L223.6,420.9L223.6,420.9z M213.7,443.7c-1.2,2.6-7.9,5.1-10.3,5.1
		c-5.6,0-8.2-4.4-8.2-9.6c0-10.5,11.1-12.5,18.4-15.5v20H213.7z M259.6,422.9l9-12.6c2.3-3.4,5.8-6.3,10.3-6.4v-1.6h-18.4v1.6
		c1.8,0.1,4.7,0.5,4.7,2.8c0,2.9-6.2,10.2-7.8,12.7c-1.3-2-7-10.6-7-12.4c0-1.5,0.9-3,5-3.2v-1.6h-24.2v1.6
		c7.5,0.3,8.1,4.2,10.9,8.4l10,15.3l-12.5,18.1c-3,4.3-5.1,7.2-9.3,7.2v1.6h16.9v-1.6c-6,0-6-1.3-1.5-8.2l8.4-13.2l12.1,17.3
		c1.9,2.7-1.2,3.9-5.5,4.1v1.6h23.5v-1.6c-4,0-7.4-3.5-10.4-8.3L259.6,422.9L259.6,422.9z M373.6,386.6c0-3.4,1.8-7.1,10.3-7.1v-2.2
		h-23.2l-25.8,58.9l-27-58.9h-23.1v2.2c9.3,0,11.1,3.7,11.1,7.1v58.6c0,3.4-1.8,7.1-11.3,7.1v2.2h27.8v-2.2
		c-9.6,0-11.3-3.7-11.3-7.1v-54.4l29.3,63.7h1.6l29.9-66.4v57.1c0,3.4-1.8,7.1-10.3,7.1v2.2H384v-2.2c-8.5,0-10.3-3.7-10.3-7.1
		L373.6,386.6L373.6,386.6z M422.4,420.9c0-14.4-3.8-19.8-16.7-19.8c-7.4,0-14.7,1.9-18.6,8.8c-2.5,4.4-1.4,9.1,4,9.1
		c2.7,0,5.1-2.5,5.1-5.1c0-3-0.6-5.4,0.1-6.8c1.2-2.2,5.3-3.3,7.6-3.3c7.4,0,8.5,4.6,8.5,16.8c-9.9,4.1-28.7,8.9-28.7,22.9
		c0,6.8,5.4,12.3,12.3,12.3c5.1,0,11.7-4.1,17-8.9c0.1,4.4,2.3,8.9,8.4,8.9c3.3,0,7.8-4.1,9.6-6.2v-3c-2.7,1.9-4.8,2.7-6.2,2.7
		c-1.6,0-2.5-1.4-2.5-3.6v-24.8H422.4z M412.5,443.7c-1.2,2.6-7.9,5.1-10.3,5.1c-5.6,0-8.2-4.4-8.2-9.6c0-10.5,11.1-12.5,18.4-15.5
		v20H412.5z M439.7,445.2c0,5.1-1.8,7.2-8.8,7.7v1.6h27.4v-1.6c-7-0.5-8.8-2.6-8.8-7.7v-27.8c0-3.4,4.9-9.1,7.2-9.1
		c2.9,0,3.7,4.1,7.8,4.1c2.5,0,4.4-1.2,4.8-3.6c0.7-5-2-7.7-6.5-7.7c-5.8,0-11,6.5-13.3,10.5v-10.5l-18.7,6.2v1.9
		c7-2,8.8-0.6,8.8,10.6v25.4H439.7z M505.7,420.9c0-14.4-3.9-19.8-16.7-19.8c-7.4,0-14.7,1.9-18.6,8.8c-2.5,4.4-1.4,9.1,4,9.1
		c2.7,0,5.1-2.5,5.1-5.1c0-3-0.6-5.4,0.1-6.8c1.2-2.2,5.3-3.3,7.6-3.3c7.4,0,8.5,4.6,8.5,16.8c-9.9,4.1-28.7,8.9-28.7,22.9
		c0,6.8,5.4,12.3,12.3,12.3c5.1,0,11.7-4.1,17-8.9c0.1,4.4,2.3,8.9,8.4,8.9c3.3,0,7.8-4.1,9.6-6.2v-3c-2.7,1.9-4.8,2.7-6.2,2.7
		c-1.6,0-2.4-1.4-2.4-3.6L505.7,420.9L505.7,420.9z M495.8,443.7c-1.2,2.6-7.9,5.1-10.3,5.1c-5.6,0-8.2-4.4-8.2-9.6
		c0-10.5,11.1-12.5,18.4-15.5v20H495.8z"/>
</g>
</svg>
