<?xml version="1.0" encoding="utf-8"?>
<!-- Generator: Adobe Illustrator 17.1.0, SVG Export Plug-In . SVG Version: 6.00 Build 0)  -->
<!DOCTYPE svg PUBLIC "-//W3C//DTD SVG 1.1//EN" "http://www.w3.org/Graphics/SVG/1.1/DTD/svg11.dtd">
<svg version="1.1" id="Calque_1" xmlns="http://www.w3.org/2000/svg" xmlns:xlink="http://www.w3.org/1999/xlink" x="0px" y="0px"
	 viewBox="0 0 595.3 841.9" enable-background="new 0 0 595.3 841.9" xml:space="preserve">
<g>
	<path fill="#1D1D1B" d="M148.9,370.7h6.4l3.5,15.9c0.3,1.5,0.4,1.9,0.6,3.5c0.3-1.7,0.3-2.1,0.8-3.7l5.2-15.7h6.9l5,14.8
		c0.6,1.8,0.7,2.3,1.1,4.4c0.2-1.8,0.2-2.3,0.6-4.2l3.4-15h6.4l-7,26.5h-6.5l-5.4-16.1c-0.6-1.8-0.6-2.1-1-3.9
		c-0.4,1.8-0.5,2.1-1,3.8l-5.4,16.2h-6.6L148.9,370.7L148.9,370.7z"/>
	<polygon fill="#1D1D1B" points="203,370.7 227.8,370.7 227.8,375.4 209.7,375.4 209.7,381.4 227.2,381.4 227.2,386.1 209.7,386.1 
		209.7,392.5 228.5,392.5 228.5,397.2 203,397.2 	"/>
	<polygon fill="#1D1D1B" points="245.7,370.7 270.4,370.7 270.4,375.4 252.3,375.4 252.3,381.4 269.8,381.4 269.8,386.1 
		252.3,386.1 252.3,392.5 271.2,392.5 271.2,397.2 245.7,397.2 	"/>
	<polygon fill="#1D1D1B" points="288.3,370.7 294.9,370.7 294.9,382.3 307.9,370.7 316.4,370.7 303.5,381.9 318.2,397.2 
		309.3,397.2 298.9,385.8 294.9,389.2 294.9,397.2 288.3,397.2 	"/>
	<polygon fill="#1D1D1B" points="331.7,370.7 356.4,370.7 356.4,375.4 338.3,375.4 338.3,381.4 355.8,381.4 355.8,386.1 
		338.3,386.1 338.3,392.5 357.2,392.5 357.2,397.2 331.7,397.2 	"/>
	<path fill="#1D1D1B" d="M374.3,370.7h6.6l13,14.8c1.6,1.8,1.9,2.2,3.5,4.3c-0.2-2.5-0.2-3.2-0.3-5.5v-13.6h6.4v26.5H397l-13.2-15
		c-1.4-1.6-2-2.3-3.4-4.2c0.2,2,0.2,2.5,0.2,4.5v14.6h-6.3L374.3,370.7L374.3,370.7z"/>
	<path fill="#1D1D1B" d="M436.7,375.4c2.3,0,5.1,0.1,6.8,2.8c0.8,1.2,1.3,2.9,1.3,5.5c0,3.3-0.8,5.2-1.6,6.3
		c-1.8,2.5-4.5,2.6-6.9,2.6H429v-17.1L436.7,375.4L436.7,375.4z M422.4,397.2h13.7c4,0,9-0.1,12.8-4.9c1.8-2.4,2.6-5.5,2.6-8.5
		c0-6.8-3.8-12.3-11.6-13c-1-0.1-2-0.1-2.9-0.2h-14.5v26.6H422.4z"/>
	<path fill="#1D1D1B" d="M265.2,438.7c0.1,0.3-0.2,0.5-0.4,0.6c-1,0.3-2.3,0.1-2.9,1.2l-0.1,1.6l0.3,20.4c0.4,1.6,2.2,1.3,3.2,2.1
		c0.1,0.1,0.1,0.4-0.1,0.6c-0.4,0.4-1.2,0.1-1.8,0.2c-2.9-0.1-6,0-8.9,0c-0.2,0-0.5-0.1-0.6-0.4c0.2-1.1,1.5-0.8,2.3-1.2
		c0.8-0.3,0.8-1.1,0.8-1.7c0.1-5.3,0.1-10.8-0.1-16c-0.1-0.1,0.1-0.4-0.2-0.4l-0.3,0.5c-2.3,6-4.5,12.1-6.9,18.1
		c-0.1,0.3-0.3,0.6-0.7,0.7c-0.5,0-0.5-0.6-0.8-0.9c-2.4-6.1-5-12.1-7.7-18c-0.1-0.1-0.2-0.1-0.3,0.1c-0.3,5.2-0.4,11,0.1,16.2
		c0.1,0.6,0.3,1.1,0.9,1.3c0.9,0.6,2.2,0.3,3,1.1c0.1,0.3,0,0.6-0.3,0.7c-1.5,0.1-3.1,0-4.6,0l-4.8,0.1c-0.3-0.1-0.6-0.1-0.8-0.4
		c-0.1-0.3,0.1-0.6,0.4-0.7c1.1-0.4,2.7-0.3,3.4-1.5l0.2-1.1c0.1-6.9,0.4-13.7,1.2-20.3c-0.1-0.4,0-0.8-0.3-1.1
		c-1.1-0.6-2.4-0.7-3.6-1.2c-0.1-0.1-0.1-0.4,0-0.6c0.6-0.4,1.3-0.2,2-0.3l4.6,0.1c0.5,0,0.9,0.3,1.2,0.7c2.6,5.5,5,11.2,7.6,16.8
		c0.1,0.1,0.2,0.4,0.4,0.3l0.3-0.4c2-5.5,4.1-11,6-16.5c0.4-1,1.3-1.1,2.3-1c1.9,0.1,3.7-0.1,5.5,0
		C264.9,438.4,265.1,438.5,265.2,438.7L265.2,438.7z"/>
	<path fill="#1D1D1B" d="M345.1,447.7c0.1,0.7-0.1,1.7,0.3,2.4c0.1,0.2,0.3,0,0.4-0.1c1.3-1.3,2.9-2.6,4.8-1.9
		c0.6,0.2,1.2,1,1.3,1.7c0.1,0.7-0.1,1.4-0.5,1.9c-0.4,0.4-1,0.7-1.5,0.7c-1.5,0-2.8-2.7-4.1-0.6c-0.3,0.4-0.4,0.8-0.4,1.3l-0.1,8.7
		c0.1,0.5,0.2,1,0.8,1.3c0.8,0.4,1.7,0.5,2.7,0.7c0.3,0.1,0.4,0.4,0.3,0.6l-0.3,0.3l-3.2-0.1L340,465c-0.3,0-0.7,0-0.8-0.3
		c-0.1-0.6,0.6-0.6,0.9-0.8c0.5-0.1,1.1-0.3,1.5-0.8c0.3-0.6,0.3-1.2,0.3-1.9l0.1-7.6c0.1-1.1-0.6-2-1.6-2.5c-0.2-0.2-0.2-0.4,0-0.6
		c1.4-0.8,2.8-1.8,4.1-3C344.7,447.2,345.1,447.4,345.1,447.7L345.1,447.7z"/>
	<path fill="#1D1D1B" d="M363.2,449.5c0.5,1,0.4,2.2,0.4,3.4l0.1,9c0.1,0.4,0.3,0.9,0.8,1c0.3,0.1,0.7,0,0.8,0.4
		c-0.2,0.7-0.9,1.2-1.5,1.4c-1.1,0.2-2-0.1-2.7-0.9c-0.4-0.3-0.6-1-1.1-0.8c-1.7,1.1-3.4,2.7-5.7,2.2c-1-0.3-1.7-1.3-1.9-2.3
		c-0.4-1.9,0.3-3.8,2-5c1.5-1.4,3.3-2,5.1-2.9c0.4-0.2,0.8-0.6,0.9-1c0.1-1.6,0.2-3.3-0.7-4.6c-0.7-0.6-1.7-0.6-2.5-0.5
		c-2.7,0.8-1.3,5.7-5,4.6c-0.3-0.2-0.4-0.6-0.4-1c0.7-2.4,3.2-4.3,5.5-4.8C359.3,447.4,361.9,447.6,363.2,449.5L363.2,449.5z
		 M359.6,456.1c-1.8,0.4-3.6,2-3.8,3.8c-0.1,1-0.1,2.1,0.8,2.8c0.4,0.3,0.8,0.4,1.3,0.3c0.8-0.3,1.7-0.7,2-1.6
		c0.4-1.5,0.6-3.2,0.3-4.9C360.1,456.2,359.8,456.1,359.6,456.1L359.6,456.1z"/>
	<path fill="#1D1D1B" d="M337.1,449.5c0.5,1,0.4,2.2,0.4,3.4l0.1,9c0.1,0.4,0.3,0.9,0.8,1c0.3,0.1,0.7,0,0.8,0.4
		c-0.2,0.7-0.9,1.2-1.5,1.4c-1.1,0.2-2-0.1-2.7-0.9c-0.4-0.3-0.6-1-1.1-0.8c-1.7,1.1-3.4,2.7-5.7,2.2c-1-0.3-1.7-1.3-1.9-2.3
		c-0.4-1.9,0.3-3.8,2-5c1.5-1.4,3.3-2,5.1-2.9c0.4-0.2,0.8-0.6,0.9-1c0.1-1.6,0.2-3.3-0.7-4.6c-0.7-0.6-1.7-0.6-2.5-0.5
		c-2.7,0.8-1.3,5.7-5,4.6c-0.3-0.2-0.4-0.6-0.4-1c0.7-2.4,3.2-4.3,5.5-4.8C333.2,447.4,335.7,447.6,337.1,449.5L337.1,449.5z
		 M333.4,456.1c-1.8,0.4-3.6,2-3.8,3.8c-0.1,1-0.1,2.1,0.8,2.8c0.4,0.3,0.8,0.4,1.3,0.3c0.8-0.3,1.7-0.7,2-1.6
		c0.4-1.5,0.6-3.2,0.3-4.9C334,456.2,333.7,456.1,333.4,456.1L333.4,456.1z"/>
	<path fill="#1D1D1B" d="M326.2,438.3c0.1,0.3-0.1,0.5-0.4,0.6c-1,0.4-2.5,0.1-3,1.3c-0.1,7.3,0.1,14.4,0.2,21.8
		c0.1,0.4,0.3,0.9,0.7,1.2c0.8,0.4,1.7,0.6,2.5,0.9c0.3,0.1,0.2,0.5,0.1,0.7l-0.4,0.3c-3.6-0.1-7.2,0.1-10.7,0
		c-0.2,0-0.4-0.1-0.4-0.3c0.1-1.1,1.5-0.8,2.2-1.2c0.3-0.1,0.6-0.4,0.8-0.7c0.2-2.4,0.2-4.8,0.2-7.3c0.1-3.5-0.1-6.8-0.2-10.2
		c0-0.1-0.1-0.1-0.1-0.1c-0.4,0.3-0.4,0.8-0.7,1.2l-3.7,10.1c-0.1,0.3-0.1,0.4-0.3,0.7l-2.6,6.7c-0.2,0.3-0.3,0.7-0.6,0.8
		c-0.3,0.1-0.6-0.1-0.7-0.4c-2.4-6.2-5.1-12.4-7.8-18.5c-0.3-0.1-0.3,0.3-0.3,0.4c-0.4,5.4-0.4,11,0.1,16.4c0.7,1.3,2.3,1.3,3.6,1.6
		c0.3,0.2,0.3,0.5,0.3,0.8c-0.3,0.5-1,0.3-1.5,0.3c-4.4-0.2-8.9,0.1-13.4,0.1c-1-0.1-1.9,0.2-2.7-0.2c-0.2-0.1-0.2-0.4-0.1-0.6
		c0.3-0.5,1.1-0.6,1.1-1.2c0.1-0.8-0.6-1.3-0.9-2c-0.5-0.7-1-1.4-1.7-2c-0.3-0.1-0.4,0.1-0.6,0.2c-0.7,1-1.4,1.8-1.8,2.8
		c-0.1,0.3-0.2,0.7,0,1c0.3,0.6,1.4,0.8,1.1,1.6c-0.8,0.4-1.7,0.1-2.7,0.2l-4,0.1c-0.3,0-0.4-0.5-0.7-0.3c-0.8,0.4-2,0.3-2.7-0.3
		c-0.7-0.3-0.8-1.4-1.7-1.1c-1.8,1.2-3.9,3.1-6.3,1.7c-1.4-0.9-1.4-2.7-1.1-4.1c1.1-3.1,4.4-4.5,7-5.6c1.5-0.9,0.8-2.8,0.7-4.2
		c-0.1-0.8-0.7-1.5-1.5-1.7s-1.8-0.1-2.4,0.4c-1.4,1.3-1,4.5-3.8,4.2c-0.3-0.1-0.6-0.3-0.7-0.7c0.1-1.8,1.7-3.3,3.2-4.3
		c2.1-1.3,5.6-1.7,7.7,0.1c1.4,1.5,0.8,4.1,0.9,6.1l0.1,6.9c0.1,0.4,0.3,0.8,0.7,1c0.3,0,0.7,0.1,0.8,0.4c-0.1,0.1-0.1,0.3-0.1,0.3
		c1.2,0,2.3-0.8,3.1-1.7c1.3-1.3,2.7-2.8,3.6-4.3l-0.1-0.5c-1.4-2.2-2.7-4.4-4.5-6.4c-0.6-0.6-1.5-0.9-2.2-1.3
		c-0.1-0.1-0.3-0.4-0.1-0.5l0.3-0.2c2.4,0.1,4.6-0.2,7-0.1c0.3,0.1,0.6,0.1,0.8,0.4c0,0.9-1.7,0.7-1.1,1.8c0.8,1.2,1.5,2.4,2.3,3.5
		c0.1,0.2,0.4,0,0.5-0.1c0.8-1.3,2.2-2.4,2.2-3.9c-0.1-0.8-1.8-0.8-0.8-1.6c1.9-0.1,3.8,0.1,5.7-0.1c0.2,0,0.4,0.2,0.4,0.4
		c-0.2,1-1.3,0.7-2,1.1c-2,1.3-3.5,3.1-4.8,5c-0.2,1.2,0.8,2.1,1.4,3.1c1.3,1.7,2.4,3.6,4.1,5.1c1.3,0.4,2.9,0,3.9-0.8
		c0.4-0.6,0.4-1.4,0.5-2.1c-0.1-4.6,0.3-9,0.6-13.5c0.2-2.3,0.6-4.5,0.6-6.9c-0.4-1.1-1.8-1-2.8-1.3c-0.4-0.1-1-0.1-1.1-0.6
		c-0.1-0.3,0.1-0.4,0.3-0.6c2.1-0.1,4.4-0.1,6.5-0.1c0.4,0.1,1,0.4,1.1,0.8l7.6,16.8c0.1,0.1,0.3,0.4,0.4,0.3l0.2-0.3l6.1-16.6
		c0.2-0.4,0.6-0.8,1.1-1c1.7-0.1,3.4-0.1,5.2-0.2C324.8,438,325.8,437.6,326.2,438.3L326.2,438.3z M272.3,456.6
		c-1,0.3-2,0.8-2.7,1.6c-1,1-1.3,2.6-0.9,3.9c0.3,0.5,0.7,1.1,1.3,1.1c1.1,0.1,2-0.4,2.5-1.3c0.4-1.5,0.4-3.3,0.4-5
		C273,456.7,272.6,456.5,272.3,456.6L272.3,456.6z"/>
	<line fill="none" stroke="#1D1D1B" stroke-width="3.9113" x1="54.1" y1="417.6" x2="546" y2="417.6"/>
</g>
</svg>
