<?xml version="1.0" encoding="utf-8"?>
<!-- Generator: Adobe Illustrator 17.1.0, SVG Export Plug-In . SVG Version: 6.00 Build 0)  -->
<!DOCTYPE svg PUBLIC "-//W3C//DTD SVG 1.1//EN" "http://www.w3.org/Graphics/SVG/1.1/DTD/svg11.dtd">
<svg version="1.1" id="Calque_1" xmlns="http://www.w3.org/2000/svg" xmlns:xlink="http://www.w3.org/1999/xlink" x="0px" y="0px"
	 viewBox="0 0 595.3 841.9" enable-background="new 0 0 595.3 841.9" xml:space="preserve">
<g>
	<polygon fill="none" stroke="#1D1D1B" points="400.4,300 241.3,531.5 341.2,531.5 500.3,300 400.4,300 	"/>
	<path fill="#1D1D1B" d="M92.7,427.9c-3.9,2.1-8.5,3.4-13.5,2.3c-2.1-0.5-4-1.3-5.6-2.3H92.7L92.7,427.9z M132.7,427.9
		c-2.8,1.4-6.1,2.4-9.9,2.7c-4,0.2-7-1-9.2-2.7H132.7L132.7,427.9z M172.6,427.9c-3.9,1.4-8,2.5-11.7,2.3c-3.2-0.1-5.7-1-7.7-2.3
		H172.6L172.6,427.9z M213.9,427.9c-3.1,1-6.6,1.7-10.5,1.7c-2.2,0-4.1-0.7-5.6-1.7H213.9L213.9,427.9z M257.5,427.9
		c-2.8,1.3-5.6,2.2-8.2,2.3c-5.5,0.2-9.2-0.9-11.9-2.3H257.5L257.5,427.9z M297.5,427.9c-2.8,1.1-5.9,1.7-9,1.7
		c-2.9-0.1-5-0.7-6.6-1.7H297.5L297.5,427.9z M346.3,427.9c-2.6,0.9-5.4,1.5-8.2,1.5c-2.7,0-5.1-0.5-7.3-1.5H346.3L346.3,427.9z
		 M385.6,427.9c-3.1,1-6,1.7-8.8,1.7c-3.3,0-5.9-0.7-8-1.7H385.6L385.6,427.9z M441.2,427.9c-2.3,0.6-4.6,1-6.6,1
		c-2.4,0-4.5-0.4-6.3-1H441.2L441.2,427.9z M491.3,427.9c-2.6,0.7-5.2,1-7.5,1c-2.2,0-4-0.4-5.7-1H491.3L491.3,427.9L491.3,427.9z"
		/>
	<path fill="#1D1D1B" d="M100.2,422.6c-2,1.8-4.6,3.8-7.5,5.3H73.6c-2-1.4-3.6-3.2-4.8-5.3H100.2L100.2,422.6z M140.2,422.6
		c-1.9,1.8-4.4,3.8-7.5,5.3h-19.1c-2-1.5-3.5-3.5-4.6-5.3H140.2L140.2,422.6z M183.7,422.6c-3,1.7-6.9,3.8-11.1,5.3h-19.3
		c-2.3-1.5-3.9-3.5-5.1-5.3H183.7L183.7,422.6z M224.8,422.6c-2.8,1.6-6.4,3.8-10.9,5.3h-16.1c-2.3-1.4-4-3.6-5.4-5.3H224.8
		L224.8,422.6z M266.9,422.6c-2.8,1.8-6.1,3.8-9.4,5.3h-20.1c-2.9-1.6-4.4-3.8-5.6-5.3H266.9L266.9,422.6z M306.5,422.6
		c-2.7,2.2-5.7,4.1-9,5.3h-15.6c-2.3-1.4-3.6-3.5-4.5-5.3H306.5L306.5,422.6z M356.9,422.6c-2.6,1.5-6.4,3.8-10.7,5.3h-15.4
		c-2.3-1.1-4.3-2.8-6.1-5.3H356.9L356.9,422.6z M397.1,422.6c-3.7,2.1-7.7,4-11.5,5.3h-16.7c-3.2-1.5-5.1-3.8-6.5-5.3H397.1
		L397.1,422.6z M454.2,422.6c-4.1,2.1-8.7,4.1-13,5.3h-13c-3.2-1.1-5.4-3.1-7.1-5.3H454.2L454.2,422.6z M504.4,422.6
		c-4.4,2.3-8.9,4.2-13.2,5.3H478c-3.2-1.2-5.4-3.2-7-5.3H504.4L504.4,422.6L504.4,422.6z"/>
	<path fill="#1D1D1B" d="M84,412c1.1,2.2,3.1,2.3,4.5,2.3c2.8,0,5.3-0.8,7.7-2.3h28.5c1,0.7,2.4,1.2,4.3,1.2c1.7,0,3.6-0.5,5.4-1.2
		h29.2c1.7,1.6,4.3,2.5,6.9,2.5c4.1,0,7.5-0.9,10.2-2.5h25.5c1.1,1.7,3.1,2.5,5.8,2.3c3.8-0.2,6.9-1,9.5-2.3h25.4
		c1.5,2.2,4.2,3.4,6.9,3.1c5-0.6,9.5-1.8,13-3.1h25.6c0.4,0.2,0.8,0.3,1.3,0.3c0.4,0,0.9-0.1,1.4-0.3h21.7
		c-2.7,3.4-6.2,7.4-10.3,10.6h-29.1c-1.1-2.2-1.7-4-3.2-3.9c-1.4,0.1-4,1.8-7.3,3.9h-35.1c-0.9-1.2-1.5-2-2.3-2
		c-1.1,0-2.7,0.8-4.7,2h-32.4c-1.3-1.7-2.4-3-3.6-3c-0.2,0-2.1,1.3-5.1,3h-35.5c-1.5-2.3-2.4-4.3-3.2-4.3c-0.7,0-2.2,2-4.8,4.3H109
		c-1.6-2.6-2.5-4.8-3.3-4.8c-0.7,0-2.6,2.2-5.6,4.8H68.7c-1.7-3-2.6-6.6-2.8-10.6H84L84,412z M340.3,412c1.6,1.3,3.9,1.7,6.6,1.7
		c2.4,0,4.5-0.6,6.4-1.7h25.1c0.9,1.1,2.3,2,4.4,1.9c2.2,0,5.5-0.8,9.2-1.9h21.6c-3.5,2.4-9.7,6.8-16.5,10.6h-34.7
		c-0.9-1-1.5-1.7-2.2-1.7c-0.5,0-1.6,0.7-3.2,1.7h-32.2c-0.2-0.2-0.3-0.4-0.5-0.7c-1.5-2.3-2-6.2-2-10L340.3,412L340.3,412z
		 M436.8,412c2.2,1.4,5.6,2,9.7,1.7c3-0.2,5.7-0.8,8.1-1.7h31.3c1.1,1.3,2.8,2.3,5.1,2.3c2,0,5.4-0.9,9.3-2.3h20.4
		c-4.6,3.6-10.4,7.5-16.4,10.6H471c-2.6-3.4-3.4-7-4-7c-0.8,0-6.2,3.5-12.9,7h-33c-2.7-3.8-3.6-8.3-4.1-10.6H436.8L436.8,412
		L436.8,412z"/>
	<path fill="#1D1D1B" d="M84.1,401.3c-0.6,1.9-1,4-1,6.3c0,2,0.3,3.3,0.8,4.3h-18c0-0.8-0.1-1.5,0-2.3c0-2,0.7-4.9,1.8-8.3H84.1
		L84.1,401.3z M123.2,401.3c-0.5,1.6-0.9,3.2-0.9,5c0,2,0.6,4.3,2.4,5.6H96.2c3.6-2.3,6.8-6.1,9.8-10.6H123.2L123.2,401.3z
		 M162.2,401.3c-0.5,1.7-0.8,3.6-0.8,5.6c0,2,0.9,3.7,2.2,5h-29.2c5.2-2.2,10.2-6.6,11.7-8.3c0.3-0.4,0.8-1.2,1.3-2.3L162.2,401.3
		L162.2,401.3z M206.8,401.3c-0.8,2.1-1.4,4.4-1.4,7c0,1.5,0.3,2.7,0.9,3.7h-25.5c4.2-2.4,7-6.3,9.3-10.6L206.8,401.3L206.8,401.3z
		 M246.9,401.3c-0.7,1.8-1.1,3.7-1.2,5.9c-0.1,1.9,0.4,3.5,1.2,4.7h-25.4c4.7-2.4,7.8-6.3,10.6-10.6H246.9L246.9,401.3z
		 M290.6,401.3c-0.5,1.5-0.8,3.1-0.9,5c0,1.9,0.8,4.7,2.6,5.6h-25.6c3.5-1.3,6-2.7,7.1-3.8c0.3-0.3,1.1-2.9,2.5-6.8L290.6,401.3
		L290.6,401.3z M339.2,401.3c-0.5,1.6-0.9,3.1-0.9,5c0,2.8,0.8,4.6,2.1,5.6h-18.1c0-2.7,0.2-5.3,0.4-7.1l-0.4-0.2
		c-1.1,1.5-3,4.2-5.4,7.3h-21.7c2.8-1.2,7.2-5.6,12-10.6L339.2,401.3L339.2,401.3z M378,401.3c-0.6,1.9-1,3.8-1.1,5.6
		c-0.1,1.3,0.2,3.5,1.4,5.1h-25.1c3.8-2.1,6.8-6.1,9.7-10.6L378,401.3L378,401.3z M398.7,401.3c-1.4,1.5-3,2.7-4.5,3.7
		c-2.7,1.7-7.5,2.5-9.7,0.6c-1.3-1.1-1.5-3-0.9-4.3L398.7,401.3L398.7,401.3z M434.9,401.3c-0.6,1.7-1,3.6-1,5.6
		c0,2.1,1.1,3.8,2.9,5H417c-0.2-1-0.3-1.6-0.5-1.7c-0.3-0.1-1.4,0.6-3,1.7h-21.6c9.2-2.8,20.9-7.9,24.8-10.6H434.9L434.9,401.3z
		 M484.6,401.3c-0.6,1.7-1,3.4-0.9,5c0,1.3,0.6,3.8,2.2,5.6h-31.3c6.2-2.2,10.6-6.2,14.4-10.6H484.6L484.6,401.3z M505.9,401.3
		c-1.9,1.7-4.2,3.2-7,4.4c-2.9,1.2-7.2,0.2-7.6-3.2c-0.1-0.4,0-0.9,0-1.2L505.9,401.3L505.9,401.3z M530.9,401.3c0,0.1,0,0.2,0,0.3
		c0,1.4-4.1,5.6-10.1,10.3h-20.4c7.6-2.7,17.4-7.3,24-10.6L530.9,401.3L530.9,401.3L530.9,401.3z"/>
	<path fill="#1D1D1B" d="M88.8,393.3c-2,2.3-3.7,4.9-4.7,8H67.6c0.8-2.5,1.9-5.2,3.1-8H88.8L88.8,393.3z M128.3,393.3
		c-2.2,2.5-4.1,5.1-5.1,8H106c1.6-2.5,3.2-5.2,4.8-8H128.3L128.3,393.3z M166.8,393.3c-2,2.3-3.7,4.9-4.6,8h-14.8
		c0.9-2.1,2.1-5.1,3.3-8H166.8L166.8,393.3z M210.6,393.3c-1.2,2.6-2.7,5.2-3.8,8h-16.7c1.4-2.6,2.5-5.4,3.7-8H210.6L210.6,393.3z
		 M252.8,393.3c-2.4,1.8-4.6,4.5-5.9,8h-14.8c1.7-2.6,3.2-5.4,4.9-8H252.8L252.8,393.3z M297,393.3c-2.8,2.2-5.2,4.7-6.3,8h-14.3
		c0.8-2.3,1.8-5,3-8H297L297,393.3z M340.9,393.3c0,0.1,0,0.2,0,0.4c-0.1,3.1-1,5.4-1.7,7.6h-32c2.5-2.6,5.2-5.4,8-8H340.9
		L340.9,393.3z M383.2,393.3c-2.5,2.1-4.2,5.1-5.2,8h-15c1.7-2.6,3.4-5.3,5.3-8H383.2L383.2,393.3z M403.7,393.3
		c-1.1,3.1-2.9,5.8-5,8h-15.1c0.2-0.5,0.6-1,1-1.3c1.7-1.3,3.8-3.2,4.6-4.5c0.5-0.8,0.8-1.5,0.9-2.2H403.7L403.7,393.3z
		 M440.7,393.3c-2.6,2.3-4.7,4.8-5.8,8h-18.1c0.6-0.4,1-0.7,1.2-1c0.3-0.4,1.5-3.1,3.6-7H440.7L440.7,393.3z M490.6,393.3
		c-2.8,2.2-4.8,5.1-5.9,8h-15.6c2.2-2.6,4.3-5.3,6.4-8H490.6L490.6,393.3z M511.8,393.3c-1.1,2.5-3,5.4-5.9,8h-14.6
		c0.6-3.3,5.2-5.1,6.7-8H511.8L511.8,393.3z M524.3,401.3c1.5-0.7,2.8-1.4,3.9-2c1.8-0.9,2.6,0.7,2.7,2H524.3L524.3,401.3z"/>
	<path fill="#1D1D1B" d="M70.8,393.3c7.1-15.8,20.6-35.3,33-34.8c4.5,0.2,8,3.2,8,8.6c0,11.9-14.6,16.7-23,26.2L70.8,393.3
		L70.8,393.3z M110.8,393.3c8.9-15.9,17.2-35.1,32.1-35.5c6.2-0.2,8.2,6,7.3,11.3c-1.5,9.2-14.2,15.7-22,24.2H110.8L110.8,393.3z
		 M150.7,393.3c1-2.6,2.1-5.1,2.9-6.8c6.5-12.6,18.6-30,31.2-28.6c1.5,0.2,6,2.4,6,8.5c0,12.6-15.5,17.3-24,26.9H150.7L150.7,393.3z
		 M193.8,393.3c3.3-7.6,6.6-14.3,14.3-14.3c2.1,0,4.6,2.3,4.6,6.6c0,2.7-0.9,5.1-2.1,7.6L193.8,393.3L193.8,393.3z M237.1,393.3
		c4.4-6.9,9.9-12.9,21.3-13.3c10.7-0.3,16.5,4.4,15.6,8.6c-0.8,4-5.7,4.6-9.3,3.7c-2.2-0.6-4.8-3.2-10.1-0.2
		c-0.6,0.3-1.2,0.7-1.7,1.1L237.1,393.3L237.1,393.3z M279.4,393.3c6-15.1,17.1-36.2,33.7-36.2c6.8,0,7.3,7.4,7.3,12
		c0,13.9-14.3,17.3-23.4,24.2H279.4L279.4,393.3z M315.1,393.3c5.9-5.6,11.8-10.3,16.5-10.3c6.9,0,9.4,5.1,9.3,10.3H315.1
		L315.1,393.3z M368.3,393.3c5.3-7.5,11.9-14.3,23.8-14.3c7,0,12.9,3.5,12.6,9.3c-0.1,1.7-0.4,3.4-1,4.9h-13.6
		c0.5-2.1-0.5-3.2-2-2.7c-1.9,0.6-3.6,1.5-5,2.7L368.3,393.3L368.3,393.3z M421.6,393.3c6.3-12.2,20.1-36.2,34.3-36.2
		c5,0,9.7,1.9,9.7,9.6c0,14.2-15.5,18.4-24.8,26.5h-19.2V393.3z M475.5,393.3c6-7.5,12.7-14.3,25.5-14.3c7.5,0,12,4.1,12,10
		c0,1-0.4,2.5-1.1,4.3H498c0.1-0.2,0.2-0.5,0.3-0.7c0.7-2.7-2.1-2.6-3.5-1.9c-1.5,0.7-2.9,1.6-4.2,2.6H475.5L475.5,393.3z
		 M380.8,357.2c7,0.8,17.6,12.2,18.3,16.5c0.4,2.3-1.8,2.7-4.3,2.7c-5.9,0-19.4-6.6-20.2-13.7C374,358.4,377.8,356.8,380.8,357.2
		L380.8,357.2z M206.4,367.1c0-5,4-9,9-9s9,4,9,9c0,5-4,9-9,9S206.4,372.1,206.4,367.1L206.4,367.1L206.4,367.1z"/>
	<path fill="#1D1D1B" d="M520.3,372.6c-1.2,1.2-1.8,2.7-1.8,4.5s0.6,3.3,1.8,4.5c1.2,1.2,2.7,1.9,4.5,1.9s3.2-0.6,4.5-1.9
		c1.2-1.2,1.8-2.7,1.8-4.5c0-1.7-0.6-3.2-1.8-4.5c-1.2-1.2-2.7-1.9-4.5-1.9C523.1,370.8,521.6,371.4,520.3,372.6L520.3,372.6z
		 M530,382.3c-1.4,1.4-3.2,2.2-5.2,2.2s-3.8-0.7-5.2-2.2c-1.4-1.4-2.1-3.2-2.1-5.2s0.7-3.8,2.2-5.2c1.4-1.4,3.1-2.1,5.2-2.1
		c2,0,3.8,0.7,5.2,2.1c1.4,1.4,2.1,3.1,2.2,5.2C532.2,379.2,531.5,380.9,530,382.3L530,382.3z M526.2,374.3
		c-0.4-0.2-0.9-0.3-1.7-0.3h-1.2v2.9h1.3c0.6,0,1.1-0.1,1.4-0.2c0.5-0.2,0.8-0.6,0.8-1.3C526.7,374.9,526.5,374.5,526.2,374.3
		L526.2,374.3z M524.7,373.1c1,0,1.7,0.1,2.2,0.3c0.8,0.3,1.2,1,1.3,2c0,0.7-0.3,1.3-0.8,1.6c-0.3,0.2-0.7,0.3-1.2,0.4
		c0.6,0.1,1.1,0.4,1.4,0.8c0.3,0.4,0.4,0.8,0.4,1.3v0.6c0,0.2,0,0.4,0,0.6s0,0.4,0.1,0.4v0.1h-1.3c0,0,0,0,0-0.1c0,0,0,0,0-0.1v-0.3
		v-0.6c0-0.9-0.2-1.5-0.8-1.9c-0.3-0.2-0.8-0.3-1.6-0.3h-1.1v3.2h-1.4V373L524.7,373.1L524.7,373.1L524.7,373.1z"/>
	<path fill="#1D1D1B" d="M328.2,471.7v-4.6h1.9v4.6H328.2L328.2,471.7z M346.5,467.2l-1.2,4.6h2l1.2-4.6H346.5L346.5,467.2z
		 M354.7,467.2l1.1,4.6h2.1l-1.2-4.6H354.7L354.7,467.2z M366.8,467.2c0.1,0.9,0.4,1.7,1,2.7c1.3,2.1,2.7,2.4,4.6,2.5
		c2.8,0.1,5.3-1.9,5.6-5.2h-1.9c-0.1,0.8-0.5,1.5-0.9,2c-0.5,0.6-1.3,0.8-2,0.9c-0.7,0.1-1.5,0-1.9-0.1c-1.6-0.4-2.3-1.7-2.6-2.8
		H366.8L366.8,467.2z M388.3,471.7v-4.6h1.9v4.6H388.3L388.3,471.7z M397.5,471.7v-4.6h1.9v4.6H397.5L397.5,471.7z M410.5,471.7
		v-4.6h1.9v4.6H410.5L410.5,471.7z M423.2,467.2c0.4,1.2,1,2.3,1.7,3.2c0.7,0.8,2.4,2,4.4,2s3.7-1.2,4.4-2c0.8-0.9,1.3-2,1.7-3.2
		h-2.1c-0.2,0.4-0.4,0.7-0.6,1c-0.9,1.3-2.2,1.9-3.5,1.9c-1.3,0-2.6-0.6-3.5-1.9c-0.2-0.3-0.4-0.7-0.6-1H423.2L423.2,467.2z
		 M446.2,471.7v-4.6h1.9v4.6H446.2L446.2,471.7z M453.3,467.2l2.1,4.6h2.1v-4.6h-1.9v0.8l-0.4-0.8H453.3L453.3,467.2L453.3,467.2z"
		/>
	<path fill="#1D1D1B" d="M330.1,467.2v-4.4h6.9v-2.2h-6.9v-6.2h7.8v-2.2h-9.7v15L330.1,467.2L330.1,467.2z M348.5,467.2l0.3-1.3h5.5
		l0.3,1.3h2l-3.9-15h-2.3l-4,15H348.5L348.5,467.2z M368.6,467.2c-0.2-0.6-0.2-1.2-0.2-1.6h-1.7c0,0.6,0,1.1,0.1,1.6H368.6
		L368.6,467.2z M378,467.2c0-0.4,0.1-0.8,0-1.2c-0.1-1.9-1.2-3.8-2.5-4.4c-1.2-0.4-2.4-0.9-3.6-1.3c-1-0.2-1.7-0.6-2.2-1
		c-1.7-1.2-1.1-5.4,2.3-5.4c0.7,0,1.4,0,2.4,0.8c1.1,0.9,1.3,2,1.3,3.2h1.8c0.1-0.9-0.1-3.4-2-5c-0.9-0.7-2.3-1-3.5-1
		c-3.5,0-5.1,3.2-4.9,6.3c0.2,2.4,1.3,3.3,1.9,3.6c1.9,0.9,1,0.6,3,1.2c1,0.3,2.2,0.7,3,1.3c1,0.9,1.2,2,1,3h2V467.2z M390.1,467.2
		v-4.4h7.4v4.4h1.9v-15h-1.9v8.4h-7.4v-8.4h-1.9v15H390.1L390.1,467.2z M410.5,467.2v-15h1.9v15H410.5L410.5,467.2z M425.3,467.2
		c-0.6-1.4-1-3.2-1-5.1c0-2.4,0.6-4.8,1.6-6.1c0.9-1.3,2.2-1.9,3.5-1.9c1.3,0,2.6,0.6,3.5,1.9c1,1.4,1.6,3.7,1.6,6.1
		c0,1.9-0.4,3.7-1,5.1h2.1c0.6-1.7,0.8-3.5,0.8-5.1c0-2.8-0.7-6.1-2.5-8.2c-0.7-0.8-2.4-2-4.4-2c-2,0-3.7,1.2-4.4,2
		c-1.9,2.2-2.5,5.5-2.5,8.2c0,1.6,0.2,3.4,0.8,5.1H425.3L425.3,467.2z M448.1,467.2v-11.1l5.2,11.1h2l-6.8-15h-2.2v15H448.1
		L448.1,467.2z M455.7,467.2v-15h1.9v15H455.7L455.7,467.2z M351.7,455.2l2.1,8.6h-4.5L351.7,455.2L351.7,455.2L351.7,455.2z"/>
	<path fill="#1D1D1B" d="M205.2,471.7v-4.6h1.9v4.6H205.2L205.2,471.7z M222,471.7v-4.6h1.9v4.6H222L222,471.7z M231.3,471.7v-4.6
		h1.9v4.6H231.3L231.3,471.7z M244.4,467.2l-1.2,4.6h2l1.2-4.6H244.4L244.4,467.2z M252.6,467.2l1.1,4.6h2.1l-1.2-4.6H252.6
		L252.6,467.2z M267.9,471.7v-4.6h1.9v4.6H267.9L267.9,471.7z M299.6,467.2c0.1,0.9,0.4,1.7,1,2.7c1.3,2.1,2.7,2.4,4.6,2.5
		c2.8,0.1,5.3-1.9,5.6-5.2h-1.9c-0.1,0.8-0.5,1.5-0.9,2c-0.5,0.6-1.3,0.8-2,0.9s-1.5,0-1.9-0.1c-1.6-0.4-2.3-1.7-2.6-2.8H299.6
		L299.6,467.2L299.6,467.2z"/>
	<path fill="#1D1D1B" d="M207.1,467.2v-12.8h4.7v-2.2h-11.3v2.2h4.8v12.8H207.1L207.1,467.2z M223.9,467.2v-4.4h7.4v4.4h1.9v-15
		h-1.9v8.4h-7.4v-8.4H222v15H223.9L223.9,467.2z M246.4,467.2l0.3-1.3h5.5l0.3,1.3h2l-3.9-15h-2.3l-4,15H246.4L246.4,467.2z
		 M269.7,467.2v-12.8h4.7v-2.2h-11.3v2.2h4.8v12.8H269.7L269.7,467.2z M301.4,467.2c-0.2-0.6-0.2-1.2-0.2-1.6h-1.7
		c0,0.6,0,1.1,0.1,1.6H301.4L301.4,467.2z M310.8,467.2c0-0.4,0.1-0.8,0-1.2c-0.1-1.9-1.2-3.8-2.5-4.4c-1.2-0.4-2.4-0.9-3.6-1.3
		c-1-0.2-1.7-0.6-2.2-1c-1.7-1.2-1.1-5.4,2.3-5.4c0.7,0,1.4,0,2.4,0.8c1.1,0.9,1.3,2,1.3,3.2h1.8c0.1-0.9-0.1-3.4-2-5
		c-0.9-0.7-2.3-1-3.5-1c-3.5,0-5.1,3.2-4.9,6.3c0.2,2.4,1.3,3.3,1.9,3.6c1.9,0.9,1,0.6,3,1.2c1,0.3,2.2,0.7,3,1.3c1,0.9,1.2,2,1,3h2
		V467.2z M249.6,455.2l2.1,8.6h-4.5L249.6,455.2L249.6,455.2z M284,452.7v3l0.5,3.6h0.8l0.5-3.6v-3H284L284,452.7L284,452.7z"/>
</g>
</svg>
