<?xml version="1.0" encoding="utf-8"?>
<!-- Generator: Adobe Illustrator 18.0.0, SVG Export Plug-In . SVG Version: 6.00 Build 0)  -->
<!DOCTYPE svg PUBLIC "-//W3C//DTD SVG 1.1//EN" "http://www.w3.org/Graphics/SVG/1.1/DTD/svg11.dtd">
<svg version="1.1" id="Calque_1" xmlns="http://www.w3.org/2000/svg" xmlns:xlink="http://www.w3.org/1999/xlink" x="0px" y="0px"
	 viewBox="0 0 841.9 595.3" enable-background="new 0 0 841.9 595.3" xml:space="preserve">
<g>
	<path fill="#003552" d="M269.5,261.9l12.7,6.2c3.1,1.3,5.7,5.3,5.7,8.4l-0.1,43l-12-5.7V277c0.1-6.2-11.2-7.9-11.2-7.9v39.6
		c0,0-5.2-2.5-7.7-3.8c-3.1-1.3-5.7-5.3-5.7-8.4l0.1-42.4C251.3,254.1,265.2,259.8,269.5,261.9L269.5,261.9z"/>
	<path fill="none" stroke="#003552" stroke-width="0.4121" stroke-miterlimit="10" d="M269.5,261.9l12.7,6.2
		c3.1,1.3,5.7,5.3,5.7,8.4l-0.1,43l-12-5.7V277c0.1-6.2-11.2-7.9-11.2-7.9v39.6c0,0-5.2-2.5-7.7-3.8c-3.1-1.3-5.7-5.3-5.7-8.4
		l0.1-42.4C251.3,254.1,265.2,259.8,269.5,261.9L269.5,261.9z"/>
	<path fill="#003552" d="M306.1,261.9l-12.5,6c-3.3,1.6-5.9,5.3-5.9,8.6l0.1,42.8l12-5.5l0.1-37c-0.4-6.2,11-7.9,11-7.9v39.6
		c0,0,5.3-2.4,7.7-3.6c3.1-1.6,5.7-5.5,5.7-8.6V254C324.5,254,310.5,259.6,306.1,261.9L306.1,261.9z"/>
	<path fill="none" stroke="#003552" stroke-width="0.4121" stroke-miterlimit="10" d="M306.1,261.9l-12.5,6
		c-3.3,1.6-5.9,5.3-5.9,8.6l0.1,42.8l12-5.5l0.1-37c-0.4-6.2,11-7.9,11-7.9v39.6c0,0,5.3-2.4,7.7-3.6c3.1-1.6,5.7-5.5,5.7-8.6V254
		C324.5,254,310.5,259.6,306.1,261.9L306.1,261.9z"/>
	<path fill="#003552" d="M366.2,276.8c0,0,3.3-5,10-5c6.4,0,9.8,6.5,9.8,10.3v37.5h-10.8v-36.8c-0.4-2.4-1.9-4.1-4.1-4.1
		c-2.8-0.1-4.1,1.3-4.8,2.8"/>
	<path fill="none" stroke="#003552" stroke-width="0.4121" stroke-miterlimit="10" d="M366.2,276.8c0,0,3.3-5,10-5
		c6.4,0,9.8,6.5,9.8,10.3v37.5h-10.8v-36.8c-0.4-2.4-1.9-4.1-4.1-4.1c-2.8-0.1-4.1,1.3-4.8,2.8"/>
	<polygon fill="#003552" points="355.5,271.9 366.3,271.9 366.3,319.5 355.5,319.5 	"/>
	<polygon fill="none" stroke="#003552" stroke-width="0.4121" stroke-miterlimit="10" points="355.5,271.9 366.3,271.9 366.3,319.5 
		355.5,319.5 	"/>
	<path fill="#003552" d="M383.7,278.9c0,0,4.8-7.2,12.2-7.1c6.2,0,9.8,6.5,9.8,10.3v37.5h-11v-36.9c-0.4-2.4-1.7-4.1-4-4.1
		c-2.9-0.1-4.1,1.3-4.8,2.8"/>
	<path fill="none" stroke="#003552" stroke-width="0.4121" stroke-miterlimit="10" d="M383.7,278.9c0,0,4.8-7.2,12.2-7.1
		c6.2,0,9.8,6.5,9.8,10.3v37.5h-11v-36.9c-0.4-2.4-1.7-4.1-4-4.1c-2.9-0.1-4.1,1.3-4.8,2.8"/>
	<polygon fill="#003552" points="411.2,271.9 422,271.9 422,319.5 411.2,319.5 	"/>
	<polygon fill="none" stroke="#003552" stroke-width="0.4121" stroke-miterlimit="10" points="411.2,271.9 422,271.9 422,319.5 
		411.2,319.5 	"/>
	<path fill="#003552" d="M421.8,276.8c0,0,3.3-5,10-5c6.4,0,9.8,6.5,9.8,10.3v37.5h-10.8v-36.8c-0.4-2.4-1.9-4.1-4.1-4.1
		c-2.8-0.1-4.1,1.3-4.8,2.8"/>
	<path fill="none" stroke="#003552" stroke-width="0.4121" stroke-miterlimit="10" d="M421.8,276.8c0,0,3.3-5,10-5
		c6.4,0,9.8,6.5,9.8,10.3v37.5h-10.8v-36.8c-0.4-2.4-1.9-4.1-4.1-4.1c-2.8-0.1-4.1,1.3-4.8,2.8"/>
	<polygon fill="#003552" points="411.2,254.1 422,254.1 422,265.3 411.2,265.3 	"/>
	<polygon fill="none" stroke="#003552" stroke-width="0.4121" stroke-miterlimit="10" points="411.2,254.1 422,254.1 422,265.3 
		411.2,265.3 	"/>
	<polygon fill="#003552" points="447.3,254.1 458.1,254.1 458.1,265.3 447.3,265.3 	"/>
	<polygon fill="none" stroke="#003552" stroke-width="0.4121" stroke-miterlimit="10" points="447.3,254.1 458.1,254.1 458.1,265.3 
		447.3,265.3 	"/>
	<polygon fill="#003552" points="447.3,271.9 458.1,271.9 458.1,319.5 447.3,319.5 	"/>
	<polygon fill="none" stroke="#003552" stroke-width="0.4121" stroke-miterlimit="10" points="447.3,271.9 458.1,271.9 458.1,319.5 
		447.3,319.5 	"/>
	<path fill="#003552" d="M474.2,276.8c0,0,3.3-5.2,10-5.2c6.4,0,10,6.5,10,10.3v37.5h-11v-36.8c-0.4-2.4-1.7-4-4.1-4.1
		c-2.8,0-4,1.3-4.7,2.9"/>
	<path fill="none" stroke="#003552" stroke-width="0.4121" stroke-miterlimit="10" d="M474.2,276.8c0,0,3.3-5.2,10-5.2
		c6.4,0,10,6.5,10,10.3v37.5h-11v-36.8c-0.4-2.4-1.7-4-4.1-4.1c-2.8,0-4,1.3-4.7,2.9"/>
	<polygon fill="#003552" points="463.6,271.7 474.4,271.7 474.4,319.5 463.6,319.5 	"/>
	<polygon fill="none" stroke="#003552" stroke-width="0.4121" stroke-miterlimit="10" points="463.6,271.7 474.4,271.7 474.4,319.5 
		463.6,319.5 	"/>
	<path fill="#003552" d="M491.8,278.7c0,0,4.8-7.1,12.2-7.1c6.4,0.1,9.8,6.5,9.8,10.3v37.5h-10.8v-36.8c-0.4-2.4-1.9-4-4.1-4.1
		c-2.8,0-4.1,1.3-4.8,2.9"/>
	<path fill="none" stroke="#003552" stroke-width="0.4121" stroke-miterlimit="10" d="M491.8,278.7c0,0,4.8-7.1,12.2-7.1
		c6.4,0.1,9.8,6.5,9.8,10.3v37.5h-10.8v-36.8c-0.4-2.4-1.9-4-4.1-4.1c-2.8,0-4.1,1.3-4.8,2.9"/>
	<path fill="#003552" d="M549.2,276.7c0,0,3.3-5,10-5c6.4,0,9.8,6.5,9.8,10.3v37.5h-10.8v-37c-0.4-2.3-1.9-4-4.1-4
		c-2.8-0.1-4.1,1.3-4.8,2.8"/>
	<path fill="none" stroke="#003552" stroke-width="0.4121" stroke-miterlimit="10" d="M549.2,276.7c0,0,3.3-5,10-5
		c6.4,0,9.8,6.5,9.8,10.3v37.5h-10.8v-37c-0.4-2.3-1.9-4-4.1-4c-2.8-0.1-4.1,1.3-4.8,2.8"/>
	<polygon fill="#003552" points="538.5,271.7 549.3,271.7 549.3,319.3 538.5,319.3 	"/>
	<polygon fill="none" stroke="#003552" stroke-width="0.4121" stroke-miterlimit="10" points="538.5,271.7 549.3,271.7 549.3,319.3 
		538.5,319.3 	"/>
	<path fill="#003552" d="M566.6,278.6c0,0,4.8-7.1,12.2-6.9c6.2,0,9.8,6.5,9.8,10.3v37.5h-11v-37c-0.4-2.3-1.7-4-4-4
		c-2.9-0.1-4.1,1.3-4.8,2.8"/>
	<path fill="none" stroke="#003552" stroke-width="0.4121" stroke-miterlimit="10" d="M566.6,278.6c0,0,4.8-7.1,12.2-6.9
		c6.2,0,9.8,6.5,9.8,10.3v37.5h-11v-37c-0.4-2.3-1.7-4-4-4c-2.9-0.1-4.1,1.3-4.8,2.8"/>
	<path fill="#003552" d="M539.2,315.9c0,0-3.5,5.2-10.1,5.2c-6.2,0-9.8-6.7-9.8-10.5v-38.7h11v38c0.4,2.3,1.7,4.1,4,4.1
		c2.9,0.1,4.1-1.3,4.8-2.9"/>
	<path fill="none" stroke="#003552" stroke-width="0.4121" stroke-miterlimit="10" d="M539.2,315.9c0,0-3.5,5.2-10.1,5.2
		c-6.2,0-9.8-6.7-9.8-10.5v-38.7h11v38c0.4,2.3,1.7,4.1,4,4.1c2.9,0.1,4.1-1.3,4.8-2.9"/>
</g>
</svg>
