<?xml version="1.0" encoding="utf-8"?>
<!-- Generator: Adobe Illustrator 17.1.0, SVG Export Plug-In . SVG Version: 6.00 Build 0)  -->
<!DOCTYPE svg PUBLIC "-//W3C//DTD SVG 1.1//EN" "http://www.w3.org/Graphics/SVG/1.1/DTD/svg11.dtd">
<svg version="1.1" id="Calque_1" xmlns="http://www.w3.org/2000/svg" xmlns:xlink="http://www.w3.org/1999/xlink" x="0px" y="0px"
	 viewBox="0 0 595.3 841.9" enable-background="new 0 0 595.3 841.9" xml:space="preserve">
<g>
	<path fill="#1C1C1B" d="M83.5,370.4l18,8.8c4.4,1.9,8,7.5,8,11.9l-0.2,60.8l-17-8v-52.1c0.2-8.8-15.8-11.2-15.8-11.2v56
		c0,0-7.3-3.6-10.9-5.4c-4.4-1.9-8-7.5-8-11.9l0.2-59.9C57.7,359.4,77.4,367.4,83.5,370.4L83.5,370.4z"/>
	<path fill="none" stroke="#000000" stroke-width="0.4121" stroke-miterlimit="10" d="M83.5,370.4l18,8.8c4.4,1.9,8,7.5,8,11.9
		l-0.2,60.8l-17-8v-52.1c0.2-8.8-15.8-11.2-15.8-11.2v56c0,0-7.3-3.6-10.9-5.4c-4.4-1.9-8-7.5-8-11.9l0.2-59.9
		C57.7,359.4,77.4,367.4,83.5,370.4L83.5,370.4z"/>
	<path fill="#1C1C1B" d="M135.2,370.4l-17.7,8.5c-4.6,2.2-8.3,7.5-8.3,12.2l0.2,60.6l17-7.8l0.2-52.3c-0.5-8.8,15.6-11.2,15.6-11.2
		v56c0,0,7.5-3.4,10.9-5.1c4.4-2.2,8-7.8,8-12.2v-59.9C161.2,359.2,141.5,367.2,135.2,370.4L135.2,370.4z"/>
	<path fill="none" stroke="#000000" stroke-width="0.4121" stroke-miterlimit="10" d="M135.2,370.4l-17.7,8.5
		c-4.6,2.2-8.3,7.5-8.3,12.2l0.2,60.6l17-7.8l0.2-52.3c-0.5-8.8,15.6-11.2,15.6-11.2v56c0,0,7.5-3.4,10.9-5.1c4.4-2.2,8-7.8,8-12.2
		v-59.9C161.2,359.2,141.5,367.2,135.2,370.4L135.2,370.4z"/>
	<path fill="#1C1C1B" d="M220.2,391.5c0,0,4.6-7.1,14.1-7.1c9,0,13.8,9.2,13.8,14.6v53.1h-15.3V400c-0.5-3.4-2.7-5.8-5.8-5.8
		c-3.9-0.2-5.8,1.9-6.8,3.9"/>
	<path fill="none" stroke="#000000" stroke-width="0.4121" stroke-miterlimit="10" d="M220.2,391.5c0,0,4.6-7.1,14.1-7.1
		c9,0,13.8,9.2,13.8,14.6v53.1h-15.3V400c-0.5-3.4-2.7-5.8-5.8-5.8c-3.9-0.2-5.8,1.9-6.8,3.9"/>
	<polygon fill="#1C1C1B" points="205.1,384.5 220.4,384.5 220.4,451.9 205.1,451.9 	"/>
	<polygon fill="none" stroke="#000000" stroke-width="0.4121" stroke-miterlimit="10" points="205.1,384.5 220.4,384.5 220.4,451.9 
		205.1,451.9 	"/>
	<path fill="#1C1C1B" d="M245,394.5c0,0,6.8-10.2,17.3-10c8.7,0,13.8,9.2,13.8,14.6v53.1h-15.5V400c-0.5-3.4-2.4-5.8-5.6-5.8
		c-4.1-0.2-5.8,1.9-6.8,3.9"/>
	<path fill="none" stroke="#000000" stroke-width="0.4121" stroke-miterlimit="10" d="M245,394.5c0,0,6.8-10.2,17.3-10
		c8.7,0,13.8,9.2,13.8,14.6v53.1h-15.5V400c-0.5-3.4-2.4-5.8-5.6-5.8c-4.1-0.2-5.8,1.9-6.8,3.9"/>
	<polygon fill="#1C1C1B" points="283.9,384.5 299.2,384.5 299.2,451.9 283.9,451.9 	"/>
	<polygon fill="none" stroke="#000000" stroke-width="0.4121" stroke-miterlimit="10" points="283.9,384.5 299.2,384.5 299.2,451.9 
		283.9,451.9 	"/>
	<path fill="#1C1C1B" d="M298.9,391.5c0,0,4.6-7.1,14.1-7.1c9,0,13.8,9.2,13.8,14.6v53.1h-15.3V400c-0.5-3.4-2.7-5.8-5.8-5.8
		c-3.9-0.2-5.8,1.9-6.8,3.9"/>
	<path fill="none" stroke="#000000" stroke-width="0.4121" stroke-miterlimit="10" d="M298.9,391.5c0,0,4.6-7.1,14.1-7.1
		c9,0,13.8,9.2,13.8,14.6v53.1h-15.3V400c-0.5-3.4-2.7-5.8-5.8-5.8c-3.9-0.2-5.8,1.9-6.8,3.9"/>
	<polygon fill="#1C1C1B" points="283.9,359.4 299.2,359.4 299.2,375.2 283.9,375.2 	"/>
	<polygon fill="none" stroke="#000000" stroke-width="0.4121" stroke-miterlimit="10" points="283.9,359.4 299.2,359.4 299.2,375.2 
		283.9,375.2 	"/>
	<polygon fill="#1C1C1B" points="334.9,359.4 350.2,359.4 350.2,375.2 334.9,375.2 	"/>
	<polygon fill="none" stroke="#000000" stroke-width="0.4121" stroke-miterlimit="10" points="334.9,359.4 350.2,359.4 350.2,375.2 
		334.9,375.2 	"/>
	<polygon fill="#1C1C1B" points="334.9,384.5 350.2,384.5 350.2,451.9 334.9,451.9 	"/>
	<polygon fill="none" stroke="#000000" stroke-width="0.4121" stroke-miterlimit="10" points="334.9,384.5 350.2,384.5 350.2,451.9 
		334.9,451.9 	"/>
	<path fill="#1C1C1B" d="M373,391.5c0,0,4.6-7.3,14.1-7.3c9,0,14.1,9.2,14.1,14.6v53.1h-15.5v-52.1c-0.5-3.4-2.4-5.6-5.8-5.8
		c-3.9,0-5.6,1.9-6.6,4.1"/>
	<path fill="none" stroke="#000000" stroke-width="0.4121" stroke-miterlimit="10" d="M373,391.5c0,0,4.6-7.3,14.1-7.3
		c9,0,14.1,9.2,14.1,14.6v53.1h-15.5v-52.1c-0.5-3.4-2.4-5.6-5.8-5.8c-3.9,0-5.6,1.9-6.6,4.1"/>
	<polygon fill="#1C1C1B" points="358,384.2 373.3,384.2 373.3,451.9 358,451.9 	"/>
	<polygon fill="none" stroke="#000000" stroke-width="0.4121" stroke-miterlimit="10" points="358,384.2 373.3,384.2 373.3,451.9 
		358,451.9 	"/>
	<path fill="#1C1C1B" d="M397.8,394.2c0,0,6.8-10,17.3-10c9,0.2,13.8,9.2,13.8,14.6v53.1h-15.3v-52.1c-0.5-3.4-2.7-5.6-5.8-5.8
		c-3.9,0-5.8,1.9-6.8,4.1"/>
	<path fill="none" stroke="#000000" stroke-width="0.4121" stroke-miterlimit="10" d="M397.8,394.2c0,0,6.8-10,17.3-10
		c9,0.2,13.8,9.2,13.8,14.6v53.1h-15.3v-52.1c-0.5-3.4-2.7-5.6-5.8-5.8c-3.9,0-5.8,1.9-6.8,4.1"/>
	<path fill="#1C1C1B" d="M479,391.3c0,0,4.6-7.1,14.1-7.1c9,0,13.8,9.2,13.8,14.6v53.1h-15.3v-52.3c-0.5-3.2-2.7-5.6-5.8-5.6
		c-3.9-0.2-5.8,1.9-6.8,3.9"/>
	<path fill="none" stroke="#000000" stroke-width="0.4121" stroke-miterlimit="10" d="M479,391.3c0,0,4.6-7.1,14.1-7.1
		c9,0,13.8,9.2,13.8,14.6v53.1h-15.3v-52.3c-0.5-3.2-2.7-5.6-5.8-5.6c-3.9-0.2-5.8,1.9-6.8,3.9"/>
	<polygon fill="#1C1C1B" points="463.9,384.2 479.2,384.2 479.2,451.6 463.9,451.6 	"/>
	<polygon fill="none" stroke="#000000" stroke-width="0.4121" stroke-miterlimit="10" points="463.9,384.2 479.2,384.2 479.2,451.6 
		463.9,451.6 	"/>
	<path fill="#1C1C1B" d="M503.7,394c0,0,6.8-10,17.3-9.7c8.7,0,13.8,9.2,13.8,14.6V452h-15.6v-52.3c-0.5-3.2-2.4-5.6-5.6-5.6
		c-4.1-0.2-5.8,1.9-6.8,3.9"/>
	<path fill="none" stroke="#000000" stroke-width="0.4121" stroke-miterlimit="10" d="M503.7,394c0,0,6.8-10,17.3-9.7
		c8.7,0,13.8,9.2,13.8,14.6V452h-15.6v-52.3c-0.5-3.2-2.4-5.6-5.6-5.6c-4.1-0.2-5.8,1.9-6.8,3.9"/>
	<path fill="#1C1C1B" d="M464.9,446.8c0,0-4.9,7.3-14.3,7.3c-8.7,0-13.8-9.5-13.8-14.8v-54.8h15.5v53.8c0.5,3.2,2.4,5.8,5.6,5.8
		c4.1,0.2,5.8-1.9,6.8-4.1"/>
	<path fill="none" stroke="#000000" stroke-width="0.4121" stroke-miterlimit="10" d="M464.9,446.8c0,0-4.9,7.3-14.3,7.3
		c-8.7,0-13.8-9.5-13.8-14.8v-54.8h15.5v53.8c0.5,3.2,2.4,5.8,5.6,5.8c4.1,0.2,5.8-1.9,6.8-4.1"/>
</g>
</svg>
