<?xml version="1.0" encoding="utf-8"?>
<!-- Generator: Adobe Illustrator 17.1.0, SVG Export Plug-In . SVG Version: 6.00 Build 0)  -->
<!DOCTYPE svg PUBLIC "-//W3C//DTD SVG 1.1//EN" "http://www.w3.org/Graphics/SVG/1.1/DTD/svg11.dtd">
<svg version="1.1" id="Calque_1" xmlns="http://www.w3.org/2000/svg" xmlns:xlink="http://www.w3.org/1999/xlink" x="0px" y="0px"
	 viewBox="0 0 595.3 841.9" enable-background="new 0 0 595.3 841.9" xml:space="preserve">
<g>
	<path fill="#1A171B" d="M90.2,480.9c-0.9-5-5-7.4-9.8-7.4c-8.9,0-10.7,6.9-10.7,11.6c0,4.7,1.9,11.6,10.7,11.6
		c4.5,0,8.9-2.2,9.8-7.6h10.2c-1.2,10-9.4,14.2-20.3,14.2c-12.5,0-20.3-5.4-20.3-18.1c0-12.8,7.8-18.1,20.3-18.1
		c8.3,0,18.8,2.1,20.2,14H90.2V480.9z"/>
	<path fill="#1A171B" d="M105.8,467.9h9.3v12.9h19.4v-12.9h9.3v34.4h-9.3v-14.9h-19.4v14.9h-9.3
		C105.8,502.3,105.8,467.9,105.8,467.9z"/>
	<path fill="#1A171B" d="M151.3,467.9h32.1v6.5h-22.8v7.1h21.6v6.3h-21.6v7.9h23v6.5h-32.3L151.3,467.9L151.3,467.9z"/>
	<path fill="#1A171B" d="M212.8,488.9H202l5.4-13.6L212.8,488.9z M218.1,502.3h10.1L213,467.9h-11.3l-15.1,34.4h10.1l2.8-7.1h15.8
		L218.1,502.3z"/>
	<path fill="#1A171B" d="M242,474.2h10.9c2.6,0,5.4,0.4,5.4,4.9c0,4.6-3.4,4.7-6.3,4.7h-10L242,474.2L242,474.2z M232.7,502.3h9.3
		V490h14.5c7.6,0,11.4-4.3,11.4-11.6c0-4.6-2.4-10.4-12.1-10.4h-23.1L232.7,502.3L232.7,502.3z"/>
	<path fill="#1A171B" d="M292,488.6h-15.2l7.7-17.1L292,488.6z M298,502.3h4.1l-15.6-34.4h-4.1l-15.6,34.4h3.9l4.7-10.4h18.1
		L298,502.3z"/>
	<path fill="#1A171B" d="M306,467.9h4.3l24,29.4h0.1v-29.4h3.6v34.4h-4.1l-24.2-29.4h-0.1v29.4H306V467.9z"/>
	<path fill="#1A171B" d="M348.9,471.2h13c7.9,0,11.5,4.8,11.5,13.9c0,10.5-5.3,13.9-11.5,13.9h-13V471.2z M345.3,502.3h17.2
		c9.6,0,14.7-7.5,14.7-17.2c0-10.8-5.2-17.2-15.2-17.2h-16.7V502.3z"/>
	<path fill="#1A171B" d="M412.8,480.9c-0.9-5-5-7.4-9.8-7.4c-8.9,0-10.7,6.9-10.7,11.6c0,4.7,1.9,11.6,10.7,11.6
		c4.5,0,8.9-2.2,9.8-7.6H423c-1.2,10-9.4,14.2-20.3,14.2c-12.5,0-20.3-5.4-20.3-18.1c0-12.8,7.8-18.1,20.3-18.1
		c8.3,0,18.8,2.1,20.2,14h-10.1V480.9z"/>
	<path fill="#1A171B" d="M428.6,467.9h9.3v12.9h19.4v-12.9h9.3v34.4h-9.3v-14.9h-19.4v14.9h-9.3V467.9z"/>
	<path fill="#1A171B" d="M474.1,467.9h9.3v34.4h-9.3V467.9z"/>
	<path fill="#1A171B" d="M520,480.9c-0.9-5-5-7.4-9.8-7.4c-8.9,0-10.7,6.9-10.7,11.6c0,4.7,1.9,11.6,10.7,11.6
		c4.5,0,8.9-2.2,9.8-7.6h10.2c-1.2,10-9.4,14.2-20.3,14.2c-12.5,0-20.3-5.4-20.3-18.1c0-12.8,7.8-18.1,20.3-18.1
		c8.3,0,18.8,2.1,20.2,14H520V480.9z"/>
	<g>
		<polygon points="403,322.5 403,444.3 385.8,444.3 385.8,322.5 		"/>
		<path d="M234.7,346.7v11.5H251V344c-1.7-18.4-14.5-22.8-24-22.8s-24.4,4.8-24.4,25.5c0,20.8,0.1,24.6,18.8,37.6
			c11.7,8.1,14.7,13.3,15.1,20.3c0,0,0.3,10.3,0,15.4c-0.9,16.4-17.3,12.4-17.3,1.2c0-6.1,0-17.9,0-17.9h-16.6c0,0,0,17.6,0,17.8
			c0,15.5,10.3,24.7,25.3,24.9c8.6,0.1,25.3-3.3,25.7-24.6V400c-0.8-15.7-10.4-21.6-17.8-27.1c-7.4-5.5-16.6-9.3-16.9-17.8v-8.4
			C218.8,331.3,234.7,331.5,234.7,346.7L234.7,346.7z"/>
		<polygon points="59.1,444.3 59.1,322.5 78,322.5 94.9,390 111.7,322.5 130.7,322.5 130.7,444.3 113.5,444.3 113.5,369.2 
			100.6,444.3 89,444.3 76.2,369.2 76.2,444.3 		"/>
		<polygon points="323.4,444.3 340.6,444.3 340.6,390.2 357.8,390.2 357.8,444.3 375,444.3 375,322.4 357.8,322.4 357.8,375 
			340.6,375 340.6,322.4 323.4,322.4 		"/>
		<polygon points="414.3,322.4 432,322.4 451.1,385.5 451.1,322.5 468.3,322.5 468.3,444.3 453.9,444.3 431.5,370.7 431.5,444.3 
			414.3,444.3 		"/>
		<path d="M478.6,352.8c0-11.5,5.5-31.8,26.3-31.8c20.6,0,26.2,19.6,26.2,31.8V414c0,12.2-5.6,31.8-26.2,31.8
			c-20.9,0-26.3-19.6-26.3-31.8C478.6,397.7,478.6,352.8,478.6,352.8L478.6,352.8z M495.7,414c0,11.4,5,15.2,9.2,15.2
			c4.2,0,9.2-3.8,9.2-15.2c0,0,0-53,0-61.2c0-11.5-5-15.2-9.2-15.2c-4.2,0-9.2,3.7-9.2,15.2C495.7,352.8,495.7,402.6,495.7,414
			L495.7,414z"/>
		<path d="M140.6,352.8c0-11.5,5.5-31.8,26.3-31.8c20.6,0,26.2,19.6,26.2,31.8V414c0,12.2-5.6,31.8-26.2,31.8
			c-20.9,0-26.3-19.6-26.3-31.8C140.6,397.7,140.6,352.8,140.6,352.8L140.6,352.8z M157.7,414c0,11.4,5,15.2,9.2,15.2
			c4.2,0,9.2-3.8,9.2-15.2c0,0,0-53,0-61.2c0-11.5-5-15.2-9.2-15.2c-4.2,0-9.2,3.7-9.2,15.2C157.7,352.8,157.7,402.6,157.7,414
			L157.7,414z"/>
		<path d="M313.9,403v11.1c0,14.6-4.6,31.8-25.2,31.8c-20.9,0-26.3-19.6-26.3-31.8c0-16.3,0-61.2,0-61.2c0-11.5,5.5-31.8,26.3-31.8
			c20.6,0,24.3,16.9,24.3,31.8v9.8h-15.6c0,0,0-1.4,0-9.8c0-10.3-3.2-15.2-8.7-15.2c-4.1,0-9.2,3.2-9.2,15.2c0,11,0,61.2,0,61.2
			c0,9.4,3.5,15.2,9.2,15.2c4.8,0,8.7-3.6,8.7-15.2c0-4.6,0-11,0-11L313.9,403L313.9,403z"/>
	</g>
</g>
</svg>
