<?xml version="1.0" encoding="utf-8"?>
<!-- Generator: Adobe Illustrator 17.1.0, SVG Export Plug-In . SVG Version: 6.00 Build 0)  -->
<!DOCTYPE svg PUBLIC "-//W3C//DTD SVG 1.1//EN" "http://www.w3.org/Graphics/SVG/1.1/DTD/svg11.dtd">
<svg version="1.1" id="Calque_1" xmlns="http://www.w3.org/2000/svg" xmlns:xlink="http://www.w3.org/1999/xlink" x="0px" y="0px"
	 viewBox="0 0 595.3 841.9" enable-background="new 0 0 595.3 841.9" xml:space="preserve">
<g>
	<polygon fill="#1D1D1B" points="253,405.5 199.7,407.4 250.3,410.2 253,405.5 	"/>
	<polygon fill="#1D1D1B" points="246.6,416.7 193.2,418.6 244,421.4 246.6,416.7 	"/>
	<polygon fill="#1D1D1B" points="240.2,428 186.9,429.9 237.6,432.7 240.2,428 	"/>
	<polygon fill="#1D1D1B" points="234,439.2 180.6,441.1 231.2,444 234,439.2 	"/>
	<polygon fill="#1D1D1B" points="299.3,349 231.3,351.4 299.5,355.2 299.3,349 	"/>
	<polygon fill="#1D1D1B" points="298.9,337.9 237.8,340 299.1,343.5 298.9,337.9 	"/>
	<polygon fill="#1D1D1B" points="298.4,327.2 244,328.9 298.7,332 298.4,327.2 	"/>
	<polygon fill="#1D1D1B" points="298.1,316.2 250.3,317.7 298.3,320.6 298.1,316.2 	"/>
	<polygon fill="#1D1D1B" points="297.8,307.3 256.3,307.3 297.8,309.5 297.8,307.3 	"/>
	<polygon fill="#1D1D1B" points="227.6,450.5 174.3,452.4 226.5,452.4 227.6,450.5 	"/>
	<path fill="#1D1D1B" d="M408.2,307.6h-76.8l-2.2,3.9l38.4,2l0,0c0.4,0,0.4,0.6-0.2,0.6l0,0l-40.5,1.4l-3.9,6.8l38.2,2.3l0,0
		c0.5,0.1,0.4,0.8-0.1,0.8l0,0l-40.5,1.3l-3.8,6.5l38.1,2.1l0,0c0.8,0.1,0.8,0.8,0,0.8l0,0l-40.5,1.4l-3.8,6.8l38,2.2l0,0
		c0.8,0.1,0.8,0.8,0,0.8l0,0l-40.5,1.4l-3.9,6.8l38,2.1l0,0c0.6,0.1,0.6,0.8-0.1,0.8l0,0l-116.6,3.9l110.7,6.1l0,0
		c0.7,0,0.6,0.9-0.1,0.9l0,0l-116.8,4.2l110.7,6.1l0,0c0.5,0,0.6,0.8-0.1,0.8l0,0l-117,4.2l110.7,6.2l0,0c0.4,0.1,0.9,0.9-0.1,1l0,0
		L206.7,396l110.7,6.1l0,0c0.3,0.1,0.6,0.9-0.1,0.9l0,0l-58.8,2.1l0.2,5.3l52.4,2.9l0,0c0.4,0.1,0.6,0.8-0.1,0.8l0,0l-52.1,1.8
		l0.3,5.9l45.5,2.5l0,0c0.4,0.1,0.6,1-0.1,1l0,0l-45.1,1.6l0.2,6.5l38.8,2.2l0,0c0.4,0.1,0.6,0.9-0.2,0.9l0,0l-38.4,1.4l0.3,7.2
		l32,1.8l0,0c0.4,0.1,0.4,0.8-0.2,0.8l0,0l-31.7,1.2l0.1,3.1h103.4l0,0c27.4,0,52-20,56.6-35.9c4.6-15.9,4.6-30.2-17.4-37.4
		c12.3-2.8,33.7-16.7,37.9-35.9C444.4,325.5,438,307.7,408.2,307.6L408.2,307.6L408.2,307.6L408.2,307.6z M356.2,418.9h-31.8
		l17.9-31.8h23.6l0,0C390.2,387.1,378.4,418.9,356.2,418.9L356.2,418.9L356.2,418.9L356.2,418.9z M397.3,350.7
		c-1,3.8-8.7,13.6-18.4,13.6l0,0h-23.6l15.1-26.6h12l0,0C397.8,338.2,398.3,346.9,397.3,350.7L397.3,350.7L397.3,350.7L397.3,350.7z
		"/>
	<path fill="#1D1D1B" d="M524.5,498.1c0-12.3-10.2-22.6-22.5-22.6c-12.6,0-22.9,10.5-22.9,23.3c0,12.8,10.2,23,23,23
		c9.3,0,18.2-6.4,20.9-15.1l0,0h-11.7l0,0c-2.3,3.7-5.4,5.4-9.5,5.4c-5.3,0-10-3.6-11.5-8.7l0,0H524l0,0
		C524.4,500.9,524.5,499.7,524.5,498.1L524.5,498.1L524.5,498.1L524.5,498.1z M489.9,495c1.5-6,6.3-9.8,12.2-9.8
		c5.9,0,10.6,3.8,12,9.8l0,0H489.9L489.9,495L489.9,495z"/>
	<path fill="#1D1D1B" d="M373,477.6v3.6l0,0c-3.4-3.6-8.2-5.6-13.4-5.6c-11.5,0-21.3,9.8-21.3,22.6c0,12.1,8.7,22.9,21.6,22.9
		c5.7,0,10-1.3,14.1-5.9l0,0v5.7h9.8v-43.2H373V477.6L373,477.6z M361.1,511.9c-7.4,0-13.4-6-13.4-13.4s6-13.4,13.4-13.4
		s13.4,6,13.4,13.4S368.5,511.9,361.1,511.9L361.1,511.9L361.1,511.9L361.1,511.9z"/>
	<path fill="#1D1D1B" d="M82.3,475.5c-4.4,0-7.8,1.5-11.4,5.3l0,0v-4.2H61v44.3h10.6V500l0,0c0-5.7,0.5-14.7,8.3-14.7
		c7.4,0,8.2,8.5,8.2,13.9l0,0v21.7h10.6v-23.7l0,0c0-6.2-0.5-9.2-2.2-12.7C94.1,479.1,88.3,475.5,82.3,475.5L82.3,475.5L82.3,475.5
		L82.3,475.5z"/>
	<path fill="#1D1D1B" d="M148.3,498.1c0-12.3-10.2-22.6-22.5-22.6c-12.6,0-22.9,10.5-22.9,23.3c0,12.8,10.2,23,23,23
		c9.4,0,18.2-6.4,20.9-15.1l0,0h-11.7l0,0c-2.3,3.7-5.4,5.4-9.5,5.4c-5.3,0-10-3.6-11.5-8.7l0,0h33.7l0,0
		C148.2,500.9,148.3,499.7,148.3,498.1L148.3,498.1L148.3,498.1L148.3,498.1z M113.7,495c1.5-6,6.3-9.8,12.2-9.8
		c5.9,0,10.6,3.8,12,9.8l0,0H113.7L113.7,495L113.7,495z"/>
	<polygon fill="#1D1D1B" points="323.3,520.8 333.9,520.8 333.9,461.7 323.3,461.7 323.3,520.8 	"/>
	<path fill="#1D1D1B" d="M411.7,475.5c-4.4,0-7.8,1.5-11.4,5.3l0,0v-4.2h-9.8v44.3H401V500l0,0c0-5.7,0.5-14.7,8.3-14.7
		c7.4,0,8.2,8.5,8.2,13.9l0,0v21.7h10.6v-23.7l0,0c0-6.2-0.5-9.2-2.2-12.7C423.5,479.1,417.7,475.5,411.7,475.5L411.7,475.5
		L411.7,475.5L411.7,475.5z"/>
	<path fill="#1D1D1B" d="M454.7,485.2c4.9,0,7.7,1.6,10.3,6.1l0,0h12l0,0c-3.3-9.5-11.7-15.8-21.9-15.8c-12.9,0-23.3,10.3-23.3,23
		c0,12.8,10.5,23.3,23.3,23.3c6.6,0,13-2.9,17.4-7.8c2.2-2.5,3-3.9,4.5-7.8l0,0h-12l0,0c-2.5,3.8-5.7,5.8-9.7,5.8
		c-7.4,0-12.9-5.8-12.9-13.4C442.4,490.9,447.6,485.2,454.7,485.2L454.7,485.2L454.7,485.2L454.7,485.2z"/>
	<polygon fill="#1D1D1B" points="189,503.5 181.4,476.5 172.9,476.5 165.3,503.5 156.3,476.5 146.9,476.5 161.7,520.8 168.5,520.8 
		177.1,492.1 185.5,520.8 192.7,520.8 206.8,476.5 198,476.5 189,503.5 	"/>
	<path fill="#1D1D1B" d="M245.9,475.5c-5.2,0-10.1,2-13.4,5.6l0,0v-19.5h-10.6v59.1h9.8V515l0,0c4.1,4.6,8.4,5.9,14.1,5.9
		c12.9,0,21.6-10.8,21.6-22.9C267.3,485.3,257.4,475.5,245.9,475.5L245.9,475.5L245.9,475.5L245.9,475.5z M244.4,511.9
		c-7.4,0-13.4-6-13.4-13.4s6-13.4,13.4-13.4c7.4,0,13.4,6,13.4,13.4S251.8,511.9,244.4,511.9L244.4,511.9L244.4,511.9L244.4,511.9z"
		/>
	<path fill="#1D1D1B" d="M305.5,477.6v3.6l0,0c-3.4-3.6-8.2-5.6-13.4-5.6c-11.5,0-21.3,9.8-21.3,22.6c0,12.1,8.7,22.9,21.6,22.9
		c5.7,0,10-1.3,14.1-5.9l0,0v5.7h9.7v-43.2h-10.7V477.6L305.5,477.6z M293.6,511.9c-7.4,0-13.4-6-13.4-13.4s6-13.4,13.4-13.4
		s13.4,6,13.4,13.4S301,511.9,293.6,511.9L293.6,511.9L293.6,511.9L293.6,511.9z"/>
</g>
</svg>
