<?xml version="1.0" encoding="utf-8"?>
<!-- Generator: Adobe Illustrator 18.0.0, SVG Export Plug-In . SVG Version: 6.00 Build 0)  -->
<!DOCTYPE svg PUBLIC "-//W3C//DTD SVG 1.1//EN" "http://www.w3.org/Graphics/SVG/1.1/DTD/svg11.dtd">
<svg version="1.1" id="Calque_1" xmlns="http://www.w3.org/2000/svg" xmlns:xlink="http://www.w3.org/1999/xlink" x="0px" y="0px"
	 viewBox="0 0 841.9 595.3" enable-background="new 0 0 841.9 595.3" xml:space="preserve">
<g>
	<polygon fill="#003552" points="389.4,286.7 351.7,288.1 387.5,290 	"/>
	<polygon fill="#003552" points="384.8,294.6 347.1,296 383,298 	"/>
	<polygon fill="#003552" points="380.3,302.6 342.6,304 378.5,305.9 	"/>
	<polygon fill="#003552" points="375.9,310.5 338.2,311.9 374,313.9 	"/>
	<polygon fill="#003552" points="422.1,246.8 374,248.5 422.3,251.2 	"/>
	<polygon fill="#003552" points="421.8,238.9 378.6,240.4 422,242.9 	"/>
	<polygon fill="#003552" points="421.5,231.4 383,232.6 421.7,234.7 	"/>
	<polygon fill="#003552" points="421.3,223.6 387.5,224.6 421.4,226.7 	"/>
	<polygon fill="#003552" points="421.1,217.3 391.7,217.3 421.1,218.8 	"/>
	<polygon fill="#003552" points="371.4,318.5 333.7,319.9 370.6,319.9 	"/>
	<path fill="#003552" d="M499.1,217.5h-54.3l-1.6,2.8l27.2,1.4l0,0c0.3,0,0.3,0.4-0.1,0.4l0,0l-28.6,1l-2.8,4.8l27,1.6l0,0
		c0.4,0.1,0.3,0.6-0.1,0.6l0,0l-28.6,0.9l-2.7,4.6l26.9,1.5l0,0c0.6,0.1,0.6,0.6,0,0.6l0,0l-28.6,1l-2.7,4.8L457,245l0,0
		c0.6,0.1,0.6,0.6,0,0.6l0,0l-28.6,1l-2.8,4.8l26.9,1.5l0,0c0.4,0.1,0.4,0.6-0.1,0.6l0,0l-82.4,2.8l78.3,4.3l0,0
		c0.5,0,0.4,0.6-0.1,0.6l0,0l-82.6,3l78.3,4.3l0,0c0.4,0,0.4,0.6-0.1,0.6l0,0l-82.7,3l78.3,4.4l0,0c0.3,0.1,0.6,0.6-0.1,0.7l0,0
		l-82.6,3l78.3,4.3l0,0c0.2,0.1,0.4,0.6-0.1,0.6l0,0l-41.6,1.5l0.1,3.7l37.1,2.1l0,0c0.3,0.1,0.4,0.6-0.1,0.6l0,0l-36.8,1.3l0.2,4.2
		l32.2,1.8l0,0c0.3,0.1,0.4,0.7-0.1,0.7l0,0l-31.9,1.1l0.1,4.6l27.4,1.6l0,0c0.3,0.1,0.4,0.6-0.1,0.6l0,0l-27.2,1l0.2,5.1l22.6,1.3
		l0,0c0.3,0.1,0.3,0.6-0.1,0.6l0,0l-22.4,0.8l0.1,2.2h73.1l0,0c19.4,0,36.8-14.1,40-25.4c3.3-11.2,3.3-21.4-12.3-26.4
		c8.7-2,23.8-11.8,26.8-25.4C524.7,230.2,520.2,217.6,499.1,217.5L499.1,217.5L499.1,217.5L499.1,217.5z M462.3,296.2h-22.5
		l12.7-22.5h16.7l0,0C486.4,273.7,478,296.2,462.3,296.2L462.3,296.2L462.3,296.2L462.3,296.2z M491.4,248c-0.7,2.7-6.2,9.6-13,9.6
		l0,0h-16.7l10.7-18.8h8.5l0,0C491.8,239.1,492.1,245.3,491.4,248L491.4,248L491.4,248L491.4,248z"/>
	<path fill="#003552" d="M581.3,352.2c0-8.7-7.2-16-15.9-16c-8.9,0-16.2,7.4-16.2,16.5c0,9.1,7.2,16.3,16.3,16.3
		c6.6,0,12.9-4.5,14.8-10.7l0,0H572l0,0c-1.6,2.6-3.8,3.8-6.7,3.8c-3.7,0-7.1-2.5-8.1-6.2l0,0H581l0,0
		C581.3,354.2,581.3,353.3,581.3,352.2L581.3,352.2L581.3,352.2L581.3,352.2z M556.9,350c1.1-4.2,4.5-6.9,8.6-6.9
		c4.2,0,7.5,2.7,8.5,6.9l0,0H556.9L556.9,350L556.9,350z"/>
	<path fill="#003552" d="M474.2,337.7v2.5l0,0c-2.4-2.5-5.8-4-9.5-4c-8.1,0-15.1,6.9-15.1,16c0,8.6,6.2,16.2,15.3,16.2
		c4,0,7.1-0.9,10-4.2l0,0v4h6.9v-30.5L474.2,337.7L474.2,337.7L474.2,337.7z M465.8,361.9c-5.2,0-9.5-4.2-9.5-9.5s4.2-9.5,9.5-9.5
		s9.5,4.2,9.5,9.5S471,361.9,465.8,361.9L465.8,361.9L465.8,361.9L465.8,361.9z"/>
	<path fill="#003552" d="M268.7,336.2c-3.1,0-5.5,1.1-8.1,3.7l0,0v-3h-7v31.3h7.5v-14.8l0,0c0-4,0.4-10.4,5.9-10.4
		c5.2,0,5.8,6,5.8,9.8l0,0v15.3h7.5v-16.8l0,0c0-4.4-0.4-6.5-1.6-9C277,338.8,272.9,336.2,268.7,336.2L268.7,336.2L268.7,336.2
		L268.7,336.2z"/>
	<path fill="#003552" d="M315.3,352.2c0-8.7-7.2-16-15.9-16c-8.9,0-16.2,7.4-16.2,16.5c0,9.1,7.2,16.3,16.3,16.3
		c6.6,0,12.9-4.5,14.8-10.7l0,0H306l0,0c-1.6,2.6-3.8,3.8-6.7,3.8c-3.7,0-7.1-2.5-8.1-6.2l0,0H315l0,0
		C315.3,354.2,315.3,353.3,315.3,352.2L315.3,352.2L315.3,352.2L315.3,352.2z M290.9,350c1.1-4.2,4.5-6.9,8.6-6.9s7.5,2.7,8.5,6.9
		l0,0H290.9L290.9,350L290.9,350z"/>
	<polygon fill="#003552" points="439.1,368.2 446.6,368.2 446.6,326.5 439.1,326.5 	"/>
	<path fill="#003552" d="M501.6,336.2c-3.1,0-5.5,1.1-8.1,3.7l0,0v-3h-6.9v31.3h7.4v-14.8l0,0c0-4,0.4-10.4,5.9-10.4
		c5.2,0,5.8,6,5.8,9.8l0,0v15.3h7.5v-16.8l0,0c0-4.4-0.4-6.5-1.6-9C509.9,338.8,505.8,336.2,501.6,336.2L501.6,336.2L501.6,336.2
		L501.6,336.2z"/>
	<path fill="#003552" d="M532,343.1c3.5,0,5.4,1.1,7.3,4.3l0,0h8.5l0,0c-2.3-6.7-8.3-11.2-15.5-11.2c-9.1,0-16.5,7.3-16.5,16.3
		c0,9.1,7.4,16.5,16.5,16.5c4.7,0,9.2-2.1,12.3-5.5c1.6-1.8,2.1-2.8,3.2-5.5l0,0h-8.5l0,0c-1.8,2.7-4,4.1-6.9,4.1
		c-5.2,0-9.1-4.1-9.1-9.5C523.3,347.1,527,343.1,532,343.1L532,343.1L532,343.1L532,343.1z"/>
	<polygon fill="#003552" points="344.1,356 338.7,336.9 332.7,336.9 327.4,356 321,336.9 314.4,336.9 324.8,368.2 329.6,368.2 
		335.7,347.9 341.6,368.2 346.7,368.2 356.7,336.9 350.5,336.9 	"/>
	<path fill="#003552" d="M384.4,336.2c-3.7,0-7.1,1.4-9.5,4l0,0v-13.8h-7.5v41.8h6.9v-4l0,0c2.9,3.3,5.9,4.2,10,4.2
		c9.1,0,15.3-7.6,15.3-16.2C399.5,343.1,392.5,336.2,384.4,336.2L384.4,336.2L384.4,336.2L384.4,336.2z M383.3,361.9
		c-5.2,0-9.5-4.2-9.5-9.5s4.2-9.5,9.5-9.5s9.5,4.2,9.5,9.5S388.5,361.9,383.3,361.9L383.3,361.9L383.3,361.9L383.3,361.9z"/>
	<path fill="#003552" d="M426.5,337.7v2.5l0,0c-2.4-2.5-5.8-4-9.5-4c-8.1,0-15.1,6.9-15.1,16c0,8.6,6.2,16.2,15.3,16.2
		c4,0,7.1-0.9,10-4.2l0,0v4h6.9v-30.5L426.5,337.7L426.5,337.7L426.5,337.7z M418.1,361.9c-5.2,0-9.5-4.2-9.5-9.5s4.2-9.5,9.5-9.5
		s9.5,4.2,9.5,9.5S423.3,361.9,418.1,361.9L418.1,361.9L418.1,361.9L418.1,361.9z"/>
</g>
</svg>
