<?xml version="1.0" encoding="utf-8"?>
<!-- Generator: Adobe Illustrator 17.1.0, SVG Export Plug-In . SVG Version: 6.00 Build 0)  -->
<!DOCTYPE svg PUBLIC "-//W3C//DTD SVG 1.1//EN" "http://www.w3.org/Graphics/SVG/1.1/DTD/svg11.dtd">
<svg version="1.1" id="Calque_1" xmlns="http://www.w3.org/2000/svg" xmlns:xlink="http://www.w3.org/1999/xlink" x="0px" y="0px"
	 viewBox="0 0 595.3 841.9" enable-background="new 0 0 595.3 841.9" xml:space="preserve">
<polygon fill="#1D1D1B" points="263,324 280.9,324 280.9,450 264.7,450 176.1,353 176.1,450 158.3,450 158.3,324 173.7,324 
	263,421.8 "/>
<g>
	<path fill="#1D1D1B" d="M328,443.6c-11.1-5.6-20-13.5-26.5-23.3c-6.5-9.9-9.7-20.6-9.7-32.1c0-18.2,7.5-33.7,22.3-46.1
		c14.9-12.5,33.5-18.8,55.3-18.8c14.9,0,31.7,3.5,49.9,10.2v16.8c-16.5-8-32.9-12.1-48.8-12.1c-16.9,0-31.2,4.8-42.4,14.2
		c-11.3,9.5-17,21.5-17,35.8c0,14.4,5.6,26.4,16.7,35.6s25.3,13.9,42.5,13.9c17.2,0,34.2-4.6,50.6-13.5v17.4
		c-15,6.9-32.4,10.5-51.9,10.5C352.9,452.1,339.2,449.2,328,443.6"/>
</g>
<polygon fill="#1D1D1B" points="73.3,482.3 76.8,482.3 76.8,507.1 73.7,507.1 56.2,488 56.2,507.1 52.7,507.1 52.7,482.3 
	55.7,482.3 73.3,501.6 "/>
<rect x="90.9" y="482.3" fill="#1D1D1B" width="3.7" height="24.8"/>
<g>
	<path fill="#1D1D1B" d="M130.7,501.4v3.9c-2.7,1.4-5.9,2.2-9.5,2.2c-2.9,0-5.4-0.6-7.4-1.7c-2-1.1-3.6-2.7-4.8-4.6
		c-1.2-2-1.8-4.1-1.8-6.4c0-3.6,1.4-6.7,4.1-9.2s6-3.7,10-3.7c2.7,0,5.8,0.7,9.1,2v3.8c-3-1.6-6-2.5-8.9-2.5c-3,0-5.5,0.9-7.4,2.7
		c-2,1.8-3,4.1-3,6.8c0,2.7,1,5,2.9,6.8c1.9,1.8,4.4,2.7,7.4,2.7C124.6,504.2,127.7,503.3,130.7,501.4"/>
</g>
<polygon fill="#1D1D1B" points="143.7,482.3 158.4,482.3 158.4,485.4 147.4,485.4 147.4,493 158.1,493 158.1,496.3 147.4,496.3 
	147.4,504 158.8,504 158.8,507.1 143.7,507.1 "/>
<g>
	<path fill="#1D1D1B" d="M191.4,505.3c-2.7-1.3-4.8-3.2-6.4-5.6c-1.6-2.4-2.3-5-2.3-7.7c0-4.4,1.8-8.1,5.4-11.1
		c3.6-3,8-4.5,13.3-4.5c3.6,0,7.6,0.8,12,2.5v4c-4-1.9-7.9-2.9-11.7-2.9c-4.1,0-7.5,1.1-10.2,3.4c-2.7,2.3-4.1,5.2-4.1,8.6
		c0,3.5,1.4,6.3,4,8.6c2.7,2.2,6.1,3.3,10.2,3.3c4.1,0,8.2-1.1,12.2-3.3v4.2c-3.6,1.7-7.8,2.5-12.5,2.5
		C197.4,507.3,194.1,506.6,191.4,505.3"/>
	<path fill="#1D1D1B" d="M240.4,485.3c-3,0-5.4,0.9-7.4,2.7c-1.9,1.8-2.9,4.1-2.9,6.8c0,2.7,1,4.9,2.9,6.7c1.9,1.8,4.3,2.7,7.2,2.7
		c2.9,0,5.3-0.9,7.3-2.7c1.9-1.8,2.9-4.1,2.9-6.8c0-2.6-1-4.9-2.9-6.7C245.6,486.2,243.2,485.3,240.4,485.3 M240.2,481.9
		c4,0,7.4,1.2,10.1,3.7c2.7,2.4,4,5.5,4,9.2s-1.4,6.7-4.1,9.1c-2.7,2.4-6.1,3.6-10.2,3.6c-3.9,0-7.2-1.2-9.8-3.6
		c-2.6-2.4-3.9-5.4-3.9-9.1s1.3-6.8,4-9.2C232.8,483.1,236.2,481.9,240.2,481.9"/>
</g>
<polygon fill="#1D1D1B" points="288,482.3 291.6,482.3 291.6,507.1 288.4,507.1 270.9,488 270.9,507.1 267.4,507.1 267.4,482.3 
	270.4,482.3 288,501.6 "/>
<polygon fill="#1D1D1B" points="326.7,482.3 330.2,482.3 330.2,507.1 327,507.1 309.5,488 309.5,507.1 306,507.1 306,482.3 
	309.1,482.3 326.7,501.6 "/>
<polygon fill="#1D1D1B" points="344.4,482.3 359.2,482.3 359.2,485.4 348.2,485.4 348.2,493 358.8,493 358.8,496.3 348.2,496.3 
	348.2,504 359.6,504 359.6,507.1 344.4,507.1 "/>
<g>
	<path fill="#1D1D1B" d="M394.5,501.4v3.9c-2.7,1.4-5.9,2.2-9.5,2.2c-2.9,0-5.4-0.6-7.4-1.7c-2-1.1-3.6-2.7-4.8-4.6
		c-1.2-2-1.8-4.1-1.8-6.4c0-3.6,1.3-6.7,4.1-9.2c2.7-2.5,6-3.7,10-3.7c2.7,0,5.8,0.7,9.1,2v3.8c-3-1.6-6-2.5-8.9-2.5
		c-3,0-5.5,0.9-7.4,2.7c-2,1.8-3,4.1-3,6.8c0,2.7,1,5,2.9,6.8s4.4,2.7,7.4,2.7C388.4,504.2,391.5,503.3,394.5,501.4"/>
</g>
<polygon fill="#1D1D1B" points="405.3,482.3 427.1,482.3 427.1,485.4 418,485.4 418,507.1 414.3,507.1 414.3,485.4 405.3,485.4 "/>
<rect x="439" y="482.3" fill="#1D1D1B" width="3.7" height="24.8"/>
<g>
	<path fill="#1D1D1B" d="M469.9,485.3c-3,0-5.4,0.9-7.4,2.7c-1.9,1.8-2.9,4.1-2.9,6.8c0,2.7,1,4.9,2.9,6.7c1.9,1.8,4.3,2.7,7.2,2.7
		s5.3-0.9,7.3-2.7c1.9-1.8,2.9-4.1,2.9-6.8c0-2.6-1-4.9-2.9-6.7C475.2,486.2,472.8,485.3,469.9,485.3 M469.8,481.9
		c4,0,7.4,1.2,10.1,3.7c2.7,2.4,4,5.5,4,9.2s-1.4,6.7-4.1,9.1s-6.1,3.6-10.2,3.6c-3.9,0-7.2-1.2-9.8-3.6c-2.6-2.4-3.9-5.4-3.9-9.1
		s1.3-6.8,4-9.2C462.4,483.1,465.7,481.9,469.8,481.9"/>
</g>
<polygon fill="#1D1D1B" points="517.6,482.3 521.1,482.3 521.1,507.1 517.9,507.1 500.5,488 500.5,507.1 497,507.1 497,482.3 
	500,482.3 517.6,501.6 "/>
<g>
	<path fill="#1D1D1B" d="M530.1,482.6c0,4.1,3.3,7.4,7.4,7.4c4.1,0,7.4-3.3,7.4-7.4c0-4.1-3.3-7.4-7.4-7.4
		C533.5,475.1,530.1,478.5,530.1,482.6 M528.5,482.6c0-5,4.1-9.1,9.1-9.1s9.1,4.1,9.1,9.1c0,5-4.1,9.1-9.1,9.1
		C532.5,491.7,528.5,487.6,528.5,482.6"/>
	<path fill="#1D1D1B" d="M533.9,482.4h4.4c1.8,0,3.1-0.2,3.1-1.7c0-1.5-1.3-1.7-3.1-1.7h-4.4V482.4z M532.6,477.8h5.9
		c1.6,0,4,0.4,4,2.9c0,2.1-2,2.7-3.2,2.8l3.4,4.5h-1.5l-3.3-4.5h-4v4.5h-1.2v-10.2H532.6z"/>
</g>
</svg>
