<?xml version="1.0" encoding="utf-8"?>
<!-- Generator: Adobe Illustrator 18.0.0, SVG Export Plug-In . SVG Version: 6.00 Build 0)  -->
<!DOCTYPE svg PUBLIC "-//W3C//DTD SVG 1.1//EN" "http://www.w3.org/Graphics/SVG/1.1/DTD/svg11.dtd">
<svg version="1.1" id="Calque_1" xmlns="http://www.w3.org/2000/svg" xmlns:xlink="http://www.w3.org/1999/xlink" x="0px" y="0px"
	 viewBox="0 0 841.9 595.3" enable-background="new 0 0 841.9 595.3" xml:space="preserve">
<path fill="#003552" d="M370,286.4c4.1,0,17-0.1,17-0.1c0.2,0,0.7-0.4,0.8-0.8c0,0,26.4-89.4,29.9-101.3c0.2-0.6-0.4-1.1-1.2-1.1
	c-4.4,0-16.7,0.1-16.7,0.1c-0.2,0-0.7,0.4-0.8,0.8c0,0-25.2,85.6-29.6,100.4C369.1,285.4,369.4,286.4,370,286.4"/>
<path fill="#003552" d="M301.4,286.8c3.5,0,17.2-0.1,17.2-0.1c0.2,0,0.6,0.1,0.8-0.8l13.9-47c0.5-1.7,0.4-2.2,2.4-2.3
	c1.3,0,1.6-0.1,1.6,2.2c0,0.1-1,38.3-1.2,46c-0.1,1.7,0.4,1.7,0.9,1.7c3.6,0,17.6-0.1,17.6-0.1c0.1,0,0.6-0.1,0.8-0.8
	c0,0,26.4-89.4,29.9-101.3c0.2-0.9-0.3-1.1-1.1-1.1c-4.5,0-4.2,0-16.5,0.1c-0.6,0-1,0.2-1.1,0.8l-12.9,42.6c-0.7,2-0.5,2.1-2.4,2.1
	c-1.7,0-1.6-0.4-1.6-2.1c0-0.1,1.7-34.6,2.1-41.8c0.1-1.4-0.4-1.6-1.1-1.6c-4.3,0-19.3,0.1-19.3,0.1c-0.4,0-0.7,0.4-0.8,0.8
	c0,0-25.9,87.9-29.8,101C300.6,286.7,301.1,286.8,301.4,286.8"/>
<path fill="#003552" d="M402.9,286.3c4.2,0,16.8-0.1,16.8-0.1c0.2,0,0.7-0.4,0.8-0.8l12.1-41.6c0.4-1.4,0.8-1.5,2.3-1.5
	c1.6,0,1.8,0.5,1.8,2.1l1.4,39.9c0,0,0,1.8,1.3,1.7c3.1,0,12.3-0.1,15.3-0.1c0.4,0,1.5,0.1,1.3-1.5c-0.6-9.5-3.5-54.6-3.5-54.7
	c-0.1-2.1-0.2-2.5,1.3-4.8c0,0,22.6-31.7,28.6-40.2c1.1-1.8,0.4-2.1-0.5-2.1c-4.8,0-14.6,0.1-14.6,0.1c-0.4,0-1,0.1-1.7,1
	l-19.6,27.6c-0.7,1.3-1.6,1.1-2.8,1.1c-1,0-1.3-0.1-1.3-0.9c0.1-0.4,0.4-1.6,0.5-2.1c0,0,5.4-17.2,7.5-24c0.4-1.8,0.8-2.5-1.1-2.5
	c-4.4,0-2.8,0-14.6,0.1c-2.2,0-2.4,1-2.5,1.5c0,0-24.8,84.1-29.3,99.6C402,285.2,402.2,286.3,402.9,286.3"/>
<path fill="#003552" d="M464.2,285.9h37.3c3.5,0,4.2-4,4.2-4l3.3-12.2c0.2-1,0.1-1.8-1.3-1.8c-5.3,0-20.2,0.1-20.2,0.1
	c-1.9-0.1-1.9-0.7-1.8-1.1l7.6-25.6c0.6-1.8,0.9-2.1,2.8-2.1l16.2-0.1c0.6,0,1.3-0.2,1.7-1.3c0,0,2.5-8.8,3.6-12.6
	c0.2-0.8-0.4-1.5-1.3-1.5c-3.9,0-16.1,0.2-16.1,0.2c-1.1,0-1.2-1.3-1.1-1.8l6.1-20.9c0.5-1.8,0.9-2.1,2.8-2.1h16
	c1.1,0,1.6-0.4,1.6-0.8c0,0,3-10.3,4.2-14.2c0.2-0.9,0.1-1.3-1.6-1.3c-6.8,0-29.1,0.1-34.6,0.1c-1.3,0.1-1.7,0.5-2,1.7
	c-0.6,2.1-21.7,75.2-28.2,97.9C462.8,284.3,462.7,285.4,464.2,285.9"/>
<path fill="#003552" d="M591.9,252.4l-59.6,17.8l0,0l-12.7,3.7h0.1l-1.7,0.5l-159.8,47.8c-24.3,7.3-43.7,13.9-55.2,6.2
	c-25.1-17-13.6-57.6-5.9-73.7c0,0,0.3-0.6-0.1-1c-0.4-0.4-0.8,0.1-0.8,0.1c-11,12.8-23.8,26.3-32.7,41c-18.1,29.6-22,57.3-10.6,74.2
	c16.7,24.8,51.5,25.3,103.6,1.3l235.9-116.5c0,0,0.6-0.4,0.5-0.8C592.4,252.2,591.9,252.4,591.9,252.4"/>
<path fill="#003552" d="M537.2,410.2h-8.6c-0.2,0-0.4-0.1-0.4-0.1c-0.1-0.1-0.1-0.3-0.1-0.4l3-10.8c0.1-0.6,0.7-1,1.4-1h7.8
	c0.6,0,0.8-0.8,1.1-1.8c0.4-1.1,0.6-2.5-0.4-2.5h-7.9c-0.2,0-0.4-0.1-0.4-0.2c-0.1-0.1-0.1-0.2-0.1-0.4l3-10.5c0.3-0.9,0.8-1,1.4-1
	h8c0.6,0,1.1-0.9,1.3-2c0.2-1.1,0.3-2.4-0.5-2.4c0,0-10.3,0-11.4,0c-1.2,0.1-2.1-0.1-2.4,1l-9.9,34c-0.6,2.2-0.5,2.4,2.1,2.5h11.9
	c1.1,0,1.3-0.8,1.5-1.9C538,411.5,538.3,410.2,537.2,410.2"/>
<path fill="#003552" d="M526.3,377c-1.3-0.1-2.5-0.1-3.1,1c0,0-5.9,15-8.7,21.6c-0.1,0.3-0.5,0.3-0.5,0c0.7-5.7,2.7-21.5,2.7-21.6
	c-0.1-1.3-4.3-1.6-5.2,0.1c0,0-6.9,15.9-9.4,21.5c-0.1,0.2-0.4,0.1-0.4-0.1c1.1-6.6,3.3-21.3,3.3-21.3c-0.1-0.8-1.3-1-2.5-1.1
	c-1.3-0.1-2.5,0.3-2.7,0.9l-4.4,35.8c-0.1,0.7,3.8,0.8,4.2,0.2c0,0,8.9-18.2,11.5-23.5c0.1-0.2,0.6-0.2,0.6,0.1
	c-0.5,6.1-3.8,20.6-4,23.3c0.1,0.8,4.3,0.8,4.7,0.1l15.9-35.8C528.5,377.5,527.7,377.1,526.3,377"/>
<path fill="#003552" d="M488,376.9c-8.5,0-9.8,6-10,6.7l-0.6,2.3c0,0-1.1,2.9,0.8,6.2l5.9,10.3c0.4,0.6,0.6,1.7,0.3,2.4l-0.6,2.6
	c-0.1,0.6-0.7,3.7-4.4,3.7c-2.5,0-2.8-2-2.4-3.8l1.1-4c0.1-0.6-1.1-0.7-2.4-0.7c-1.3,0-2.5,0-2.6,0.6l-1.1,3.9
	c-0.6,3-1.3,7.7,6.6,7.7c8.5,0,9.8-6,10-6.7l0.6-2.3c0,0,1.1-2.9-0.9-6.2l-5.9-10.3c-0.4-0.6-0.6-1.7-0.4-2.4l0.6-2.5
	c0.1-0.6,0.8-3.6,4.5-3.6c2.5,0,2.7,1.8,2.2,3.7l-1.1,4c-0.1,0.6,1.1,0.7,2.3,0.7c1.3,0.1,2.5,0,2.6-0.6l1.2-3.9
	C495.4,381.6,495.9,376.9,488,376.9"/>
<path fill="#003552" d="M557.5,377.9c0,0-17.1,34.8-17.6,35.6c-0.6,1.1,4.6,1.1,5,0.2c0.4-0.7,3.2-6.6,3.2-6.6
	c0.4-0.8,1.1-1.1,1.8-1.1h4.7c1,0,0.8,0.6,0.8,0.8l-1,6.9c0,0.9,4.9,0.8,4.9,0.1c0,0,4-35.8,4-35.9
	C563.5,376.7,558,376.6,557.5,377.9 M556.1,400.9c-0.1,0.5-0.6,0.9-1.2,0.9h-3.4c-0.2,0-0.7-0.1-0.4-0.6c0,0,4.7-10,6.9-14.3
	c0.1-0.2,0.4-0.1,0.5,0.1C557.9,391.4,556.1,400.9,556.1,400.9"/>
<path fill="#003552" d="M451.3,377.1L451.3,377.1c-0.1,0-5.4-0.1-7.6,0c-0.7,0.1-2.2,0-2.9,2.1c0,0-8.5,30.8-9.5,34.3
	c-0.3,1,4.7,1.3,5.1,0.1l3.4-11.7l0.2-0.8c0.2-0.6,0.8-0.5,1.1-0.6c0.4-0.1,1.5-0.1,1.8-0.1c0.5-0.1,0.6,0.2,0.6,0.2l1.8,13.3
	c0.3,1.1,5.2,0.9,5.2,0l-2.2-14c0,0-0.1-0.1,0.1-0.2c1.8-0.6,4.6-0.4,7.7-12.4C456.8,385.1,458.5,377.1,451.3,377.1 M451.2,387.6
	c-1.8,7.3-2.3,9.1-7.3,9.1c-3,0-2.6-0.8-2.5-1.1l3.5-13.6c0.3-1,0.8-1,1.3-1h3.4C452.4,381.1,452.2,383.7,451.2,387.6"/>
<path fill="#003552" d="M583.7,376.9L583.7,376.9c0,0-5.7-0.1-7.6,0c-0.8,0.1-2.2,0-2.9,2.1c0,0-8.6,31-9.5,34.4
	c-0.3,1,4.7,1.3,5,0.1l3.5-11.9l0.2-0.8c0.2-0.6,0.8-0.5,1.1-0.6c0.3,0,1.4-0.1,1.8-0.1c0.5-0.1,0.6,0.2,0.6,0.2l1.8,13.3
	c0.2,0.8,5.4,0.6,5.2-0.1l-2.2-13.9c0,0-0.1-0.1,0.1-0.2c1.8-0.6,4.5-0.4,7.7-12.4C589.2,385,590.9,376.9,583.7,376.9 M583.7,387.5
	c-1.8,7.3-2.3,9.1-7.3,9.1c-3.1,0-2.5-0.8-2.5-1.1l3.5-13.6c0.3-1,0.8-1,1.3-1h3.4C584.9,380.9,584.7,383.4,583.7,387.5"/>
<path fill="#003552" d="M476.5,379.6c0.4-1.2,0.6-2.5-0.6-2.5h-15c-0.7,0-1.3,1.2-1.4,2.4c-0.1,1,0.1,1.9,0.7,1.9h4.2
	c0.6,0,0.7,0.1,0.5,0.6l-8.9,31.6c-0.4,1.1,4.7,1.4,4.9,0.4l8.9-31.6c0.3-1,0.6-1,1.4-1h3.7C475.6,381.5,476.1,380.6,476.5,379.6"/>
<path fill="#003552" d="M376.9,389.4c-0.4-0.6-0.6-1.7-0.4-2.4l0.7-2.6c0.1-0.6,0.8-3.6,4.5-3.6c2.5,0,2.7,1.9,2.2,3.7l-1.1,4
	c-0.1,0.6,1.1,0.7,2.4,0.7c1.3,0,2.5,0,2.6-0.6l1.1-3.9c0.6-3,1.3-7.7-6.6-7.7c-8.5,0-9.8,6-10,6.7l-0.6,2.3c0,0-1.1,2.9,0.8,6.2
	l5.9,10.3c0.4,0.6,0.6,1.7,0.4,2.4l-0.7,2.6c-0.1,0.6-0.7,3.7-4.4,3.7c-2.5,0-2.8-2-2.4-3.8l1.1-4c0.1-0.6-1.1-0.7-2.3-0.7
	c-1.3,0-2.5,0-2.6,0.6l-1.2,3.9c-0.6,3-1.3,7.7,6.7,7.6c8.5,0,9.8-6,10-6.7l0.6-2.3c0,0,1.1-2.9-0.9-6.2L376.9,389.4z"/>
<path fill="#003552" d="M405,377.3c0,0-6.4-0.1-7.6,0c-1.2,0.1-2.3-0.1-2.9,2.1l-9.5,34.6c-0.3,1.1,4.7,0.8,5.1-0.2l3.7-12.4
	c0.2-0.6,0.8-0.6,1.1-0.6c6.2,0,11.8,2.1,15.1-13.2C410.4,385.3,412.2,377.3,405,377.3 M404.9,387.7c-1.8,7.3-2.3,9.1-7.3,9.1
	c-3.1,0-2.5-0.8-2.5-1.1l3.5-13.5c0.3-1,0.8-1,1.3-1h3.4C406.1,381.2,406,383.7,404.9,387.7"/>
<path fill="#003552" d="M431.6,395.9c4.3-16.1,3.5-19.4-5.2-19.4c-9.2,0-10.3,0.9-15.2,19.4c-4.3,16.1-3.5,19.4,5.2,19.4
	C425.6,415.3,426.6,414.4,431.6,395.9L431.6,395.9 M426.5,396c-4.1,15.1-4.5,15.8-9.1,15.8c-5.3,0.1-4.2-3.3-1.1-15.9
	c4.1-15.1,4.8-15.7,9.3-15.8C430.9,380.2,429.7,383.5,426.5,396"/>
</svg>
