<?xml version="1.0" encoding="utf-8"?>
<!-- Generator: Adobe Illustrator 17.1.0, SVG Export Plug-In . SVG Version: 6.00 Build 0)  -->
<!DOCTYPE svg PUBLIC "-//W3C//DTD SVG 1.1//EN" "http://www.w3.org/Graphics/SVG/1.1/DTD/svg11.dtd">
<svg version="1.1" id="Calque_1" xmlns="http://www.w3.org/2000/svg" xmlns:xlink="http://www.w3.org/1999/xlink" x="0px" y="0px"
	 viewBox="0 0 595.3 841.9" enable-background="new 0 0 595.3 841.9" xml:space="preserve">
<path fill="#1D1D1B" d="M225.6,405.1c5.8,0,24.1-0.1,24.1-0.1c0.3,0,1-0.5,1.2-1.2c0,0,37.4-126.4,42.3-143.2
	c0.3-0.8-0.5-1.6-1.7-1.6c-6.2,0-23.6,0.1-23.6,0.1c-0.3,0-1,0.5-1.2,1.2c0,0-35.7,121-41.9,142
	C224.3,403.7,224.7,405.1,225.6,405.1"/>
<path fill="#1D1D1B" d="M128.6,405.6c4.9,0,24.3-0.2,24.3-0.2c0.3,0,0.8,0.1,1.2-1.2l19.7-66.5c0.7-2.4,0.5-3.1,3.4-3.2
	c1.8,0,2.3-0.2,2.2,3.1c0,0.1-1.4,54.1-1.7,65.1c-0.1,2.4,0.6,2.4,1.3,2.4c5.1,0,24.9-0.1,24.9-0.1c0.2,0,0.8-0.1,1.2-1.2
	c0,0,37.4-126.5,42.3-143.2c0.3-1.3-0.4-1.6-1.5-1.6c-6.3,0-5.9,0-23.4,0.1c-0.9,0-1.4,0.3-1.6,1.2l-18.2,60.3c-1,2.8-0.7,2.9-3.4,3
	c-2.4,0-2.3-0.6-2.2-3c0-0.2,2.4-48.9,2.9-59.1c0.1-2-0.5-2.2-1.6-2.2c-6.1,0-27.3,0.1-27.3,0.1c-0.6,0-1,0.5-1.1,1.2
	c0,0-36.6,124.3-42.1,142.8C127.5,405.5,128.1,405.6,128.6,405.6"/>
<path fill="#1D1D1B" d="M272.1,404.9c5.9,0,23.7-0.1,23.7-0.1c0.3,0,1-0.5,1.2-1.2l17.1-58.8c0.6-2,1.1-2.1,3.2-2.1
	c2.2,0,2.5,0.7,2.6,2.9l2,56.5c0,0,0,2.5,1.8,2.4c4.4,0,17.4-0.1,21.6-0.1c0.6,0,2.1,0.1,1.8-2.1c-0.8-13.4-4.9-77.2-4.9-77.3
	c-0.2-3-0.3-3.5,1.9-6.8c0,0,31.9-44.9,40.4-56.9c1.5-2.5,0.5-2.9-0.7-2.9c-6.8,0-20.7,0.1-20.7,0.1c-0.6,0-1.4,0.2-2.4,1.4L333,299
	c-1,1.8-2.3,1.6-4,1.6c-1.4,0-1.9-0.2-1.8-1.3c0.1-0.6,0.5-2.3,0.7-3c0,0,7.6-24.3,10.6-34c0.6-2.5,1.2-3.6-1.6-3.6
	c-6.2,0-4,0-20.7,0.1c-3.1,0-3.4,1.4-3.6,2.1c0,0-35.1,119-41.5,140.8C270.8,403.4,271.1,404.9,272.1,404.9"/>
<path fill="#1D1D1B" d="M358.8,404.3h52.8c5,0,5.9-5.6,5.9-5.6l4.6-17.3c0.3-1.4,0.2-2.5-1.8-2.5c-7.5,0-28.6,0.2-28.6,0.2
	c-2.7-0.1-2.7-1-2.6-1.6l10.8-36.2c0.8-2.6,1.3-3,3.9-3l22.9-0.2c0.8,0,1.9-0.3,2.4-1.9c0,0,3.6-12.5,5.1-17.8
	c0.3-1.1-0.5-2.1-1.8-2.1c-5.5,0-22.8,0.3-22.8,0.3c-1.5,0-1.7-1.9-1.5-2.5l8.6-29.6c0.7-2.6,1.3-3,3.9-3h22.6
	c1.5,0,2.2-0.6,2.3-1.2c0,0,4.3-14.6,6-20.1c0.3-1.3,0.1-1.9-2.2-1.8c-9.6,0-41.2,0.2-48.9,0.2c-1.8,0.1-2.4,0.7-2.8,2.4
	c-0.9,3-30.7,106.4-39.9,138.4C356.9,402.1,356.7,403.7,358.8,404.3"/>
<path fill="#1D1D1B" d="M539.4,357l-84.3,25.2l0,0l-18,5.3h0.2l-2.4,0.7l-226,67.6c-34.3,10.3-61.8,19.7-78.1,8.7
	c-35.5-24-19.2-81.5-8.4-104.2c0,0,0.4-0.9-0.2-1.4c-0.6-0.5-1.2,0.1-1.2,0.1c-15.5,18.1-33.6,37.2-46.3,58
	c-25.6,41.8-31.1,81.1-15,104.9c23.6,35.1,72.9,35.8,146.5,1.9L539.8,359c0,0,0.8-0.5,0.7-1.2C540.2,356.7,539.4,357,539.4,357"/>
<path fill="#1D1D1B" d="M462.1,580.1H450c-0.3,0-0.5-0.1-0.6-0.2c-0.1-0.1-0.2-0.4-0.1-0.6l4.3-15.3c0.1-0.8,1-1.4,2-1.4h11.1
	c0.8,0,1.1-1.2,1.6-2.6c0.5-1.6,0.9-3.5-0.5-3.5h-11.2c-0.3,0-0.5-0.1-0.6-0.3c-0.1-0.1-0.2-0.3-0.1-0.6l4.2-14.8
	c0.4-1.3,1.1-1.4,2-1.4h11.3c0.9,0,1.5-1.3,1.8-2.8c0.3-1.6,0.4-3.4-0.7-3.4c0,0-14.6,0-16.1,0c-1.7,0.1-3-0.1-3.4,1.4l-14,48.1
	c-0.8,3.1-0.7,3.4,2.9,3.6h16.9c1.6,0,1.8-1.2,2.1-2.7C463.2,582,463.6,580.1,462.1,580.1"/>
<path fill="#1D1D1B" d="M446.6,533.2c-1.8-0.1-3.5-0.2-4.4,1.4c0,0-8.3,21.2-12.3,30.6c-0.2,0.4-0.7,0.4-0.7,0
	c1-8.1,3.8-30.4,3.8-30.6c-0.2-1.8-6.1-2.2-7.3,0.1c0,0-9.7,22.5-13.3,30.4c-0.2,0.3-0.6,0.1-0.5-0.2c1.5-9.4,4.6-30.1,4.6-30.1
	c-0.2-1.2-1.8-1.4-3.6-1.5c-1.8-0.2-3.6,0.4-3.8,1.3l-6.2,50.7c-0.1,1,5.4,1.2,5.9,0.3c0,0,12.6-25.8,16.2-33.3
	c0.2-0.3,0.9-0.3,0.9,0.2c-0.7,8.6-5.4,29.1-5.6,32.9c0.1,1.2,6.1,1.2,6.7,0.1l22.5-50.6C449.8,533.9,448.6,533.3,446.6,533.2"/>
<path fill="#1D1D1B" d="M392.5,533c-12,0-13.9,8.5-14.2,9.5l-0.8,3.3c0,0-1.5,4.1,1.2,8.8l8.3,14.5c0.5,0.9,0.8,2.4,0.4,3.4
	l-0.9,3.7c-0.2,0.8-1,5.2-6.2,5.2c-3.6,0-4-2.8-3.4-5.4l1.6-5.6c0.2-0.8-1.6-1-3.4-1s-3.5,0-3.7,0.9l-1.6,5.5
	c-0.9,4.2-1.8,10.9,9.4,10.9c12,0,13.9-8.5,14.2-9.5l0.9-3.3c0,0,1.5-4.1-1.3-8.8l-8.3-14.6c-0.5-0.8-0.8-2.4-0.5-3.4l0.9-3.6
	c0.2-0.8,1.2-5.1,6.4-5.1c3.6,0,3.8,2.6,3.1,5.3l-1.5,5.6c-0.2,0.8,1.6,1,3.3,1c1.8,0.1,3.5,0,3.7-0.9l1.7-5.5
	C402.9,539.7,403.7,533,392.5,533"/>
<path fill="#1D1D1B" d="M490.8,534.5c0,0-24.2,49.2-24.9,50.3c-0.8,1.6,6.5,1.6,7.1,0.3c0.5-1,4.5-9.3,4.5-9.3
	c0.6-1.2,1.6-1.5,2.5-1.5h6.7c1.4,0,1.2,0.8,1.1,1.1l-1.4,9.7c0,1.3,7,1.1,7,0.1c0,0,5.6-50.6,5.6-50.8
	C499.2,532.8,491.5,532.6,490.8,534.5 M488.8,567c-0.1,0.7-0.8,1.3-1.7,1.3h-4.8c-0.3,0-1-0.1-0.6-0.9c0,0,6.7-14.1,9.7-20.2
	c0.2-0.3,0.6-0.2,0.7,0.2C491.4,553.6,488.8,567,488.8,567"/>
<path fill="#1D1D1B" d="M340.6,533.3L340.6,533.3c-0.1,0-7.6-0.1-10.8,0c-1,0.1-3.1,0-4.1,3c0,0-12,43.5-13.4,48.5
	c-0.4,1.4,6.7,1.8,7.2,0.2l4.8-16.5l0.3-1.1c0.3-0.8,1.2-0.7,1.6-0.8c0.5-0.1,2.1-0.2,2.5-0.2c0.7-0.1,0.9,0.3,0.9,0.3l2.6,18.8
	c0.4,1.6,7.4,1.3,7.4,0l-3.1-19.8c0,0-0.1-0.2,0.2-0.3c2.6-0.9,6.5-0.5,10.9-17.5C348.3,544.7,350.7,533.3,340.6,533.3 M340.5,548.2
	c-2.6,10.3-3.3,12.8-10.3,12.8c-4.3,0-3.7-1.1-3.6-1.5l4.9-19.2c0.4-1.4,1.2-1.4,1.9-1.4h4.8C342.2,539,341.9,542.6,340.5,548.2"/>
<path fill="#1D1D1B" d="M527.8,533.1L527.8,533.1c0,0-8.1-0.2-10.8,0c-1.2,0.1-3.1,0-4.1,3c0,0-12.1,43.8-13.5,48.7
	c-0.4,1.4,6.7,1.9,7.1,0.2l4.9-16.8l0.3-1.1c0.3-0.8,1.1-0.7,1.6-0.8c0.4,0,2-0.2,2.5-0.2c0.7-0.1,0.9,0.3,0.9,0.3l2.6,18.8
	c0.3,1.2,7.6,0.9,7.4-0.1l-3.1-19.6c0,0-0.1-0.2,0.2-0.3c2.6-0.9,6.4-0.5,10.9-17.5C535.6,544.5,538,533,527.8,533.1 M527.8,548
	c-2.5,10.3-3.3,12.8-10.3,12.8c-4.4,0-3.6-1.1-3.6-1.5l4.9-19.2c0.4-1.4,1.1-1.4,1.9-1.4h4.8C529.5,538.7,529.2,542.3,527.8,548"/>
<path fill="#1D1D1B" d="M376.2,536.9c0.6-1.7,0.8-3.6-0.8-3.5h-21.2c-1,0-1.8,1.7-2,3.4c-0.1,1.4,0.1,2.7,1,2.7h6
	c0.8,0,1,0.1,0.7,0.9l-12.6,44.7c-0.6,1.6,6.7,2,7,0.6l12.6-44.7c0.4-1.4,0.8-1.4,2-1.4h5.3C375,539.5,375.7,538.3,376.2,536.9"/>
<path fill="#1D1D1B" d="M235.4,550.7c-0.5-0.8-0.8-2.4-0.5-3.4l1-3.7c0.2-0.8,1.2-5.1,6.4-5.1c3.6,0,3.8,2.7,3.1,5.3l-1.6,5.6
	c-0.2,0.8,1.6,1,3.4,1c1.8,0,3.5,0,3.7-0.9l1.6-5.5c0.9-4.2,1.8-10.9-9.4-10.9c-12,0-13.9,8.5-14.2,9.5l-0.9,3.3
	c0,0-1.5,4.1,1.2,8.8l8.3,14.6c0.5,0.8,0.8,2.4,0.5,3.4l-1,3.7c-0.2,0.8-1,5.2-6.2,5.2c-3.6,0-4-2.8-3.4-5.4l1.6-5.6
	c0.2-0.8-1.6-1-3.3-1c-1.8,0-3.5,0-3.7,0.9l-1.7,5.5c-0.9,4.2-1.8,10.9,9.5,10.8c12,0,13.9-8.5,14.2-9.5l0.9-3.3
	c0,0,1.5-4.1-1.3-8.8L235.4,550.7z"/>
<path fill="#1D1D1B" d="M275.1,533.6c0,0-9-0.2-10.8,0c-1.7,0.2-3.2-0.1-4.1,3l-13.5,48.9c-0.4,1.5,6.7,1.1,7.2-0.3l5.2-17.6
	c0.3-0.8,1.1-0.8,1.6-0.8c8.8,0,16.7,2.9,21.3-18.7C282.7,544.9,285.3,533.6,275.1,533.6 M275,548.3c-2.6,10.3-3.3,12.8-10.3,12.8
	c-4.4,0-3.6-1.1-3.6-1.5l4.9-19.1c0.4-1.4,1.1-1.4,1.8-1.4h4.8C276.7,539.1,276.5,542.7,275,548.3"/>
<path fill="#1D1D1B" d="M312.7,559.9c6.1-22.8,5-27.4-7.3-27.4c-13,0-14.5,1.3-21.5,27.4c-6.1,22.8-5,27.4,7.3,27.4
	C304.3,587.4,305.7,586.1,312.7,559.9L312.7,559.9 M305.5,560c-5.8,21.3-6.4,22.3-12.9,22.4c-7.5,0.1-6-4.7-1.5-22.5
	c5.8-21.3,6.8-22.2,13.2-22.3C311.7,537.7,310,542.4,305.5,560"/>
</svg>
