<?xml version="1.0" encoding="utf-8"?>
<!-- Generator: Adobe Illustrator 17.1.0, SVG Export Plug-In . SVG Version: 6.00 Build 0)  -->
<!DOCTYPE svg PUBLIC "-//W3C//DTD SVG 1.1//EN" "http://www.w3.org/Graphics/SVG/1.1/DTD/svg11.dtd">
<svg version="1.1" id="Calque_1" xmlns="http://www.w3.org/2000/svg" xmlns:xlink="http://www.w3.org/1999/xlink" x="0px" y="0px"
	 viewBox="0 0 595.3 841.9" enable-background="new 0 0 595.3 841.9" xml:space="preserve">
<g>
	<path fill="#1D1D1B" d="M514.8,396.3c6.4,0,10,2.7,10,8.5v2.3c0,5.4-2.9,8.8-10,8.8h-32.2v-19.7h32.2V396.3z M482.6,448.8v-18.5h37
		c18.5,0,23.4-10.9,23.4-21v-6.2c0-10.6-4.4-21.1-23.4-21.1h-55.2v66.8H482.6L482.6,448.8z"/>
	<path fill="#1D1D1B" d="M140.3,434.5c-3.1,12.4-13.4,15.6-27.2,15.6H80.8c-13.8,0-24.1-3.2-27.2-15.6H140.3L140.3,434.5z"/>
	<path fill="#1D1D1B" d="M141.3,425.1H123v-20.3c0-5.3-3.5-8.6-8.9-8.6H79.8c-5.4,0-8.9,3.3-8.9,8.6v20.3H52.6v-19.9
		c0-19.8,11.5-24.5,28.2-24.5h32.3c16.7,0,28.2,4.7,28.2,24.5V425.1L141.3,425.1z"/>
	<path fill="#1D1D1B" d="M185.4,381.9v42.5c0,5.3,3.5,8.7,9,8.7h37.9v15.6h-37.1c-16.7,0-28.2-4.7-28.2-24.5v-42.3L185.4,381.9
		L185.4,381.9z"/>
	<polygon fill="#1D1D1B" points="284.9,448.8 284.9,426.5 322.8,381.9 300.9,381.9 276.2,412.2 251.5,381.9 228.1,381.9 
		265.4,426.5 265.4,448.8 	"/>
	<polygon fill="#1D1D1B" points="354.2,448.8 354.2,400.1 380.3,448.8 392.3,448.8 418.3,400.1 418.3,448.8 436.4,448.8 
		436.4,381.9 410.5,381.9 387,425.6 363.4,381.9 336.4,381.9 336.4,448.8 	"/>
</g>
</svg>
