<?xml version="1.0" encoding="utf-8"?>
<!-- Generator: Adobe Illustrator 17.1.0, SVG Export Plug-In . SVG Version: 6.00 Build 0)  -->
<!DOCTYPE svg PUBLIC "-//W3C//DTD SVG 1.1//EN" "http://www.w3.org/Graphics/SVG/1.1/DTD/svg11.dtd">
<svg version="1.1" id="Calque_1" xmlns="http://www.w3.org/2000/svg" xmlns:xlink="http://www.w3.org/1999/xlink" x="0px" y="0px"
	 viewBox="0 0 595.3 841.9" enable-background="new 0 0 595.3 841.9" xml:space="preserve">
<g>
	<path fill="#1D1D1B" d="M513.5,357.2l-34.7,47.9l-35.7-47.9h-29.9l52.4,73.4v36.8h26.1v-36.8l51.4-73.4H513.5z M437.9,442.3h-65.1
		v-85.1h-26.3v110.3h91.4V442.3z M321.8,357.1h-25.9v70.4l-64.1-70.4h-27v110.4h26.4v-71.9l64.7,71.9h25.9L321.8,357.1L321.8,357.1z
		 M156.4,430.9c-1.2,3.5-2.8,6.4-4.9,8.7c-1.3,1.4-1.7,1.7-2.5,2.3c-0.5,0.4-1.2,0.8-2.2,1.3c-2.2,1.1-5,2-8.5,2.6
		c-5,0.9-11.1,1.4-18.4,1.4s-13.5-0.5-18.5-1.4c-3.5-0.6-6.3-1.5-8.5-2.6c-0.7-0.4-1.4-0.9-2.1-1.4c-0.6-0.4-1.3-0.8-2.6-2.3
		c-2-2.2-3.6-5.1-4.8-8.8c-1.7-5-2.6-11.1-2.6-18.2s0.9-13.1,2.6-18.2c1.2-3.6,2.8-6.5,4.8-8.7c1.3-1.5,2-2,2.7-2.5
		c0.7-0.5,1-0.7,2-1.2c2.2-1,5-2,8.5-2.6c4.9-0.9,11-1.4,18.4-1.4c7.2,0,13.3,0.5,18.4,1.4c3.6,0.7,6.4,1.6,8.5,2.6
		c2.2,1.1,3.3,2.1,4.6,3.6c2,2.3,3.7,5.2,4.9,8.7c1.7,5,2.6,11,2.6,18.2C159,419.7,158.2,425.8,156.4,430.9z M182,382.1
		c-2.1-6.1-4.8-10.9-8.1-14.7c-2.2-2.5-3.4-3.3-4.1-3.8c-1.1-0.7-2.4-1.5-4-2.2c-3.6-1.6-8.5-2.9-14.7-3.9c-8.5-1.4-18.8-2.1-31-2.1
		c-12,0-22.4,0.7-31.1,2.2c-6.2,1-11.2,2.3-14.7,3.9c-1.4,0.6-2.1,1-3.4,1.8c-0.7,0.4-2.5,1.6-4.7,4.1c-3.4,3.8-6.1,8.7-8.1,14.7
		c-2.9,8.4-4.3,18.5-4.3,30.4c0,11.8,1.5,22,4.4,30.5c2.1,6,4.8,10.9,8.1,14.7c2.2,2.5,3.3,3.3,4.4,3.9c1.2,0.7,2.1,1.4,3.6,2
		c3.7,1.6,8.6,2.9,14.8,3.9c8.6,1.4,19,2.1,31.1,2.1s22.5-0.7,31.1-2.1c6.1-1,10.9-2.3,14.7-3.9c1-0.4,2.2-1.1,3.4-2
		c1.8-1.2,3.6-2.7,4.7-4c3.4-3.7,6.1-8.6,8.1-14.7c2.9-8.5,4.4-18.6,4.4-30.4C186.3,400.7,184.9,390.6,182,382.1"/>
</g>
</svg>
