<?xml version="1.0" encoding="utf-8"?>
<!-- Generator: Adobe Illustrator 17.1.0, SVG Export Plug-In . SVG Version: 6.00 Build 0)  -->
<!DOCTYPE svg PUBLIC "-//W3C//DTD SVG 1.1//EN" "http://www.w3.org/Graphics/SVG/1.1/DTD/svg11.dtd">
<svg version="1.1" id="Calque_1" xmlns="http://www.w3.org/2000/svg" xmlns:xlink="http://www.w3.org/1999/xlink" x="0px" y="0px"
	 viewBox="0 0 595.3 841.9" enable-background="new 0 0 595.3 841.9" xml:space="preserve">
<rect x="527.3" y="372.9" fill="#1D1D1B" width="15.8" height="74.5"/>
<polygon fill="#1D1D1B" points="514.7,372.9 500.2,372.9 500.2,429.2 455.7,372.9 437.1,372.9 437.1,447.3 453.5,447.3 453.5,391.6 
	496.6,447.3 514.7,447.3 "/>
<polygon fill="#1D1D1B" points="345.1,435.6 301.1,435.6 301.1,372.9 285.3,372.9 285.3,447.3 345.1,447.3 "/>
<path fill="#1D1D1B" d="M138,417.7l13.6-32.1l12.5,32.1H138z M161.5,372.9h-19.1l-32.5,74.5h16.2l6.8-18.5h37l7.5,18.5h16.7
	L161.5,372.9z"/>
<g>
	<path fill="#1D1D1B" d="M105.8,403.9c-2.2,3.4-5.3,3.8-9.3,3.8H68.8v-23.1h26.8c4.3,0,7.6,1.1,9.8,3.4c2,1.9,2.9,4.4,2.9,7.4
		C108.4,398.5,107.5,401.3,105.8,403.9 M121.6,384.9c-4.1-8-9.9-12.1-23.7-12.1H53.8v74.5h15v-28.5h27.5c11.5,0,19.9-2.5,25.2-11.4
		c1.6-2.8,2.5-6.6,2.5-11.3C123.9,391.7,123.2,387.9,121.6,384.9"/>
	<path fill="#1D1D1B" d="M257.7,428.6c-4.2,6.4-14.1,9.6-23.1,9.6c-9.1,0-19.7-3.2-23.8-9.5c-3.1-4.7-4.7-10.7-4.7-18
		s1.6-13.3,4.7-18c4.2-6.3,14.8-10.8,23.8-10.8s18.9,4.5,23.1,10.9c3.1,4.7,4.7,10.7,4.7,18C262.4,417.9,260.8,423.9,257.7,428.6
		 M268.9,383.4c-7.9-8.7-19.3-13-34.2-13c-14.8,0-26.3,4.3-34.2,13c-6.7,7.3-10.1,16.4-10.1,27.3s3.4,20,10.1,27.3
		c7.9,8.7,19.3,13,34.2,13c14.9,0,26.3-4.3,34.2-13c6.7-7.3,10-16.4,10-27.2C278.9,399.8,275.5,390.7,268.9,383.4"/>
	<path fill="#1D1D1B" d="M412.9,428.6c-4.2,6.4-14.1,9.6-23.1,9.6c-9.1,0-19.7-3.2-23.8-9.5c-3.1-4.7-4.7-10.7-4.7-18
		s1.6-13.3,4.7-18c4.2-6.3,14.8-10.8,23.8-10.8s18.9,4.5,23.1,10.9c3.1,4.7,4.7,10.7,4.7,18C417.5,417.9,416,423.9,412.9,428.6
		 M424,383.4c-7.9-8.7-19.3-13-34.2-13c-14.9,0-26.3,4.3-34.2,13c-6.7,7.3-10.1,16.4-10.1,27.3s3.4,20,10.1,27.3
		c7.9,8.7,19.3,13,34.2,13c14.9,0,26.3-4.3,34.2-13c6.7-7.3,10-16.4,10-27.2C434,399.8,430.7,390.7,424,383.4"/>
</g>
</svg>
