<?xml version="1.0" encoding="utf-8"?>
<!-- Generator: Adobe Illustrator 17.1.0, SVG Export Plug-In . SVG Version: 6.00 Build 0)  -->
<!DOCTYPE svg PUBLIC "-//W3C//DTD SVG 1.1//EN" "http://www.w3.org/Graphics/SVG/1.1/DTD/svg11.dtd">
<svg version="1.1" id="Calque_1" xmlns="http://www.w3.org/2000/svg" xmlns:xlink="http://www.w3.org/1999/xlink" x="0px" y="0px"
	 viewBox="0 0 595.3 841.9" enable-background="new 0 0 595.3 841.9" xml:space="preserve">
<path fill="#1D1D1B" d="M71.6,465.5h3.1c2.4,0,4.1-0.5,5.1-1.6c1-1.1,1.5-2.5,1.5-4.2c0-1.7-0.4-3.1-1.3-4.2
	c-0.9-1.2-2.5-1.7-4.8-1.7h-3.6C71.6,453.8,71.6,465.5,71.6,465.5z M58.9,442.8h21c4.6,0,8,1.4,10.3,4.2c2.3,2.8,3.4,6.9,3.4,12.1
	c0,5.4-1.2,9.6-3.7,12.6c-2.5,3-6.3,4.5-11.4,4.5h-6.9V496H58.9V442.8"/>
<path fill="#1D1D1B" d="M123.4,475.7l-4.5-19.1l-4.5,19.1H123.4z M126,487.2h-14.4l-2,8.8H96.7l15.4-53.2h13.8l15.4,53.2H128
	L126,487.2"/>
<path fill="#1D1D1B" d="M158.8,464.4h5.3c0.6,0,1.7-0.2,3.3-0.7c0.8-0.2,1.5-0.8,2-1.7c0.5-0.9,0.8-1.9,0.8-3.1c0-1.7-0.4-3-1.3-4
	c-0.8-0.9-2.4-1.4-4.7-1.4h-5.6v10.9H158.8z M146.1,496v-53.2h21.1c3.9,0,6.9,0.4,9,1.3c2.1,0.9,3.7,2.5,5,4.9
	c1.3,2.3,1.9,5.2,1.9,8.6c0,3-0.5,5.5-1.5,7.7c-1,2.1-2.3,3.9-4,5.2c-1.1,0.8-2.6,1.5-4.4,2.1c1.5,0.7,2.6,1.3,3.3,2
	c0.5,0.4,1.1,1.4,2,2.8s1.5,2.5,1.8,3.3l6.1,15.4H172l-6.8-16.2c-0.9-2.1-1.6-3.5-2.3-4.1c-0.9-0.8-1.9-1.2-3.1-1.2h-1.1V496H146.1"
	/>
<path fill="#1D1D1B" d="M213.5,475.7l-4.5-19.1l-4.5,19.1H213.5z M216.1,487.2h-14.4l-2,8.8h-12.9l15.4-53.2H216l15.4,53.2h-13.2
	L216.1,487.2"/>
<path fill="#1D1D1B" d="M253,442.8h12.7v28.9c0,6.1-0.4,10.7-1.3,13.9c-0.8,3.2-2.5,5.9-5,8.1c-2.5,2.2-5.7,3.3-9.6,3.3
	c-4.1,0-7.3-0.7-9.6-2.2s-4-3.6-5.3-6.3c-1.2-2.8-2-6.3-2.2-10.4l12.1-2.1c0,2.3,0.2,4.1,0.5,5.2c0.3,1.1,0.8,2.1,1.5,2.8
	c0.5,0.5,1.2,0.7,2.1,0.7c1.4,0,2.4-0.7,3.1-2c0.7-1.4,1-3.7,1-6.9L253,442.8L253,442.8z"/>
<path fill="#1D1D1B" d="M301.3,442.8h12.6v31.7c0,3.1-0.4,6.1-1.1,8.9c-0.7,2.8-1.9,5.2-3.5,7.3c-1.6,2.1-3.3,3.5-5.1,4.4
	c-2.5,1.2-5.4,1.8-8.8,1.8c-2,0-4.2-0.2-6.5-0.5c-2.3-0.4-4.3-1.1-5.9-2.1c-1.6-1.1-3-2.6-4.4-4.6c-1.3-2-2.2-4-2.7-6.1
	c-0.8-3.4-1.2-6.4-1.2-9v-31.7h12.6v32.5c0,2.9,0.6,5.2,1.8,6.8s3,2.4,5.2,2.4s3.9-0.8,5.1-2.4c1.2-1.6,1.9-3.9,1.9-6.9V442.8z"/>
<polygon fill="#1D1D1B" points="322.7,442.8 339.3,442.8 345.8,475.2 352.2,442.8 368.7,442.8 368.7,496 358.4,496 358.4,455.4 
	350.4,496 341,496 333.1,455.4 333.1,496 322.7,496 "/>
<path fill="#1D1D1B" d="M390,465.5h3.1c2.4,0,4.1-0.5,5.1-1.6s1.5-2.5,1.5-4.2c0-1.7-0.4-3.1-1.3-4.2c-0.9-1.2-2.5-1.7-4.8-1.7H390
	V465.5z M377.3,442.8h21c4.6,0,8,1.4,10.3,4.2c2.3,2.8,3.4,6.9,3.4,12.1c0,5.4-1.2,9.6-3.7,12.6c-2.5,3-6.3,4.5-11.4,4.5H390V496
	h-12.7V442.8"/>
<polygon fill="#1D1D1B" points="419.2,442.8 453.1,442.8 453.1,454.2 431.9,454.2 431.9,462.6 451.5,462.6 451.5,473.5 431.9,473.5 
	431.9,483.9 453.7,483.9 453.7,496 419.2,496 "/>
<path fill="#1D1D1B" d="M473.9,464.4h5.3c0.6,0,1.7-0.2,3.3-0.7c0.8-0.2,1.5-0.8,2-1.7c0.5-0.9,0.8-1.9,0.8-3.1c0-1.7-0.4-3-1.3-4
	c-0.8-0.9-2.4-1.4-4.7-1.4h-5.6v10.9H473.9z M461.2,496v-53.2h21.1c3.9,0,6.9,0.4,9,1.3c2.1,0.9,3.7,2.5,5,4.9
	c1.3,2.3,1.9,5.2,1.9,8.6c0,3-0.5,5.5-1.5,7.7c-1,2.1-2.3,3.9-4,5.2c-1.1,0.8-2.6,1.5-4.4,2.1c1.5,0.7,2.6,1.3,3.3,2
	c0.5,0.4,1.1,1.4,2,2.8s1.5,2.5,1.8,3.3l6.1,15.4h-14.3l-6.8-16.2c-0.9-2.1-1.6-3.5-2.3-4.1c-0.9-0.8-1.9-1.2-3.1-1.2h-1.1V496
	H461.2"/>
<path fill="#1D1D1B" d="M503.9,478.4l12-1c0.3,2.5,0.8,4.5,1.6,5.8c1.3,2.2,3.2,3.2,5.6,3.2c1.8,0,3.2-0.5,4.2-1.6
	c1-1.1,1.5-2.4,1.5-3.8s-0.5-2.6-1.4-3.7c-0.9-1.1-3.1-2.1-6.5-3.1c-5.5-1.6-9.5-3.8-11.9-6.5c-2.4-2.7-3.6-6.1-3.6-10.3
	c0-2.7,0.6-5.3,1.8-7.7c1.2-2.4,3.1-4.4,5.5-5.7c2.5-1.4,5.8-2.1,10.1-2.1c5.2,0,9.2,1.3,11.9,3.8c2.8,2.5,4.4,6.5,4.9,12l-11.9,0.9
	c-0.3-2.4-1-4.1-2-5.2c-1-1.1-2.4-1.6-4.2-1.6c-1.5,0-2.6,0.4-3.3,1.2c-0.7,0.8-1.1,1.8-1.1,2.9c0,0.8,0.3,1.6,0.9,2.3
	c0.6,0.7,2,1.4,4.2,2c5.5,1.5,9.5,3.1,11.9,4.7c2.4,1.6,4.1,3.5,5.2,5.9c1.1,2.3,1.6,5,1.6,7.9c0,3.4-0.7,6.6-2.2,9.4
	c-1.5,2.9-3.5,5.1-6.1,6.6c-2.6,1.5-5.9,2.2-9.9,2.2c-7,0-11.8-1.7-14.5-5.2C505.8,488.2,504.3,483.8,503.9,478.4z"/>
<path fill="#1D1D1B" d="M243.9,388.7c-13.4-7.6-20.8-17.5-20.8-27.9c0-10.3,7.4-20.3,20.8-27.9c14.1-8.1,33-12.5,53.2-12.5
	s39.1,4.4,53.2,12.5c13.4,7.6,20.8,17.5,20.8,27.9c0,10.3-7.4,20.3-20.8,27.9c-14.1,8.1-33,12.5-53.2,12.5S258.1,396.8,243.9,388.7z
	 M239.9,325.8c-16.1,9.2-24.9,21.6-24.9,35s8.9,25.8,24.9,35c15.4,8.7,35.7,13.6,57.3,13.6s41.9-4.8,57.3-13.6
	c16.1-9.2,24.9-21.6,24.9-35s-8.9-25.8-24.9-35c-15.4-8.7-35.7-13.6-57.3-13.6C275.6,312.3,255.2,317.1,239.9,325.8"/>
<path fill="#1D1D1B" d="M264.5,342.5h-7.3v12.2h7.3V342.5z M261.4,388.2h-19.2v-9.8h3.9v-35.8h-4v-10h28.7l5.4,5.4v20.9l-5.6,5.8
	h-13.1l0.1,13.7h4v9.8"/>
<polygon fill="#1D1D1B" points="281.5,388.1 275.9,382.4 275.9,369.9 286.7,369.9 286.7,378.5 295,378.5 295,342.5 290.9,342.5 
	290.9,332.5 309.7,332.5 309.7,342.5 305.7,342.5 305.7,382.4 300.1,388.1 "/>
<polygon fill="#1D1D1B" points="319.7,371.7 330.5,371.7 330.5,378.4 342.2,378.4 342.2,365 324.9,365 319.7,359.9 319.7,337.4 
	324.8,332.5 347.5,332.5 353.2,338.2 353.2,348.8 342,348.8 342,342.4 330.6,342.4 330.6,355 347.9,355 353,360.1 353,382.8 
	347.7,388.1 325.7,388.1 319.7,382.2 "/>
<polygon fill="#1D1D1B" points="267.5,372.4 269.4,378.4 275.7,378.4 270.6,382.1 272.6,388.1 267.5,384.4 262.4,388.1 264.3,382.1 
	259.2,378.4 265.5,378.4 "/>
<polygon fill="#1D1D1B" points="312.3,372.4 314.2,378.4 320.5,378.4 315.4,382.1 317.4,388.1 312.3,384.4 307.2,388.1 309.1,382.1 
	304,378.4 310.3,378.4 "/>
</svg>
