<?xml version="1.0" encoding="utf-8"?>
<!-- Generator: Adobe Illustrator 17.1.0, SVG Export Plug-In . SVG Version: 6.00 Build 0)  -->
<!DOCTYPE svg PUBLIC "-//W3C//DTD SVG 1.1//EN" "http://www.w3.org/Graphics/SVG/1.1/DTD/svg11.dtd">
<svg version="1.1" id="Calque_1" xmlns="http://www.w3.org/2000/svg" xmlns:xlink="http://www.w3.org/1999/xlink" x="0px" y="0px"
	 viewBox="0 0 595.3 841.9" enable-background="new 0 0 595.3 841.9" xml:space="preserve">
<g>
	<path fill="#1D1D1B" d="M400.3,394.4c2.2-1.3,2.7-4.6,1.2-7.8c-1.4-2.9-4.2-4.5-6.4-3.5c-2.1,1.2-2.6,4.6-1.2,7.8
		C395.3,393.8,398.2,395.3,400.3,394.4"/>
	<path fill="#1D1D1B" d="M197.9,413.2c-2.6-5.3-4.3-14.5-2.6-20.1c2.8-9.2,11.4-10.6,12.3,3.8c0.5,5.7-0.2,19.1-1.7,25.7
		c-0.3,1.7-0.7,3.3-1,4.9C202.3,422.8,200,417.7,197.9,413.2 M98.6,447.4c-8,0-7.8-9.8-7.3-13.7c0.9-8.7,3.7-18.5,11.3-18.4
		c4.5-0.1,8.3,6.2,8.3,18.2C110.9,440.9,104.6,447.4,98.6,447.4 M234.2,441.1c-0.1,0.1-4.7,3.5-10.6,3.5c-5.6,0-10.2-4-14.2-9.6
		c1.1-3.5,2-7.4,2.9-11.6c2.4-11.2,3.4-20.8,1.4-29.2c-5.8-25.2-36.2-9-19.8,26.2c2.9,6.2,5.7,11.6,8.8,16.1c-2,6.2-4.6,9.1-9.7,9.1
		c-13.3,0-19.3-25-23.8-25c-4.5,0-8.5,21.3-15.8,21.2c-6.9,0.1-8.4-23.7-12.7-23.8c-5,0.1-7.1,26.7-13.7,26.6
		c-13.1,0.1-5.9-35.1-25.5-35.1c-1.8,0-6.3,1.1-10.4,5.9c-3,3.6-7.1,10.2-7.8,21c-0.8,12.2,4.6,18.2,14.6,18.2
		c9.4,0,12.9-9.5,17-9.4c3.9-0.1,6.3,8.3,11.3,8.3c8.1,0.1,11.5-14.9,15.1-14.9c2.7-0.1,6.2,10.3,12.5,10.4
		c8.3,0,12.5-13.1,16.8-13.2c5.5,0.1,8.5,15.9,20.5,15.8c7.7,0.1,12.4-3.8,15.7-9.9c4.7,5.1,10.1,8,17.1,8c7,0,11.4-2.8,13.2-4.5
		C238.7,443.3,236.3,440.2,234.2,441.1"/>
	<path fill="#1D1D1B" d="M58.7,419c-4.1-31,8.9-52.1,20.8-47.1C89.4,376.2,82.5,405,58.7,419 M81.6,367.2
		c-12.1-6.3-36.4,15.5-31.6,60.2c1.1,9.5,2.7,21.3,6.8,27.6c2,3.2,8.2,1.8,7.3-0.9c-1.9-6.2-3.1-19.1-4.6-29.4
		c4.6-2.7,10.6-7.2,14.5-10.2C93.5,398.9,92.6,373,81.6,367.2"/>
	<path fill="#1D1D1B" d="M307.3,398.6c4,0.1,6.6-3.7,6.6-5.9c0-5-11.2-14.8-23.3-14.9c-9,0.1-15.4,6.5-14.2,13.4
		c0.7,3.9,2.9,7.1,5,9.7c3,3.7,9.2,11.3,12,14.6c3,3.2,13.6,15.9,13.7,22.9c-0.1,7.1-6.8,7.6-7.8,7.5c-6.7,0-11.3-3.6-19.1-9.9
		c-4.5-3.6-5.9-0.9-4.7,1.2c3.8,6.3,16.4,15.6,26.2,15.6c10.3,0.1,12.1-7.9,12-11.3c0.1-13.9-16.1-30.8-22.6-38.7
		c-7.6-9-8.2-10.5-8.3-13.2c0-2.2,2-5.8,6.6-5.9c6.3,0.1,17.5,6.2,17.4,9.9c0,2.5-2.4,2.3-2.4,3.8
		C304.4,398.4,306.4,398.7,307.3,398.6"/>
	<path fill="#1D1D1B" d="M486.8,432.6c3.6-3.1,7.6-6.6,11.1-6.6c3.6,0,4.7,3.5,15.6,14.6c8.3,8.2,10.7,11.4,15.1,11.3
		c4.7,0,9.6-1.6,11.3-2.1c3.9-0.7,3.6,1.7,2.6,3.1c-0.6,1-0.9,1.1-2.6,1.6c-1.8,0.6-8.5,2.6-11.3,2.6c-9.1,0.1-10.3-3.3-20.3-13.7
		c-4.3-4.8-8.3-8.8-11.1-8.7c-3.4-0.1-6.1,2.3-9.4,5.4c-3.6,3.1-6.7,7.8-7.8,9.7c-0.9,2.1-2.5,2.9-3.5,2.8c-2.7,0.1-4.7-4.2-7.8-4.2
		c-4.3,0-6.1,8.3-13.4,8.3c-6.6,0-11.2-7.5-14.9-14.6c-0.4-0.7-0.9-0.8-1.9,0c-2.8,2.9-10.3,11.3-16.5,11.3
		c-7.1,0-14.3-17.2-18.9-17.2c-4.9,0-8.3,17.3-14.2,17.2c-5.2,0.1-13.3-22-18.6-21.9c-4.9-0.1-10,20.5-15.8,20.5
		c-4.5-0.1-9.8-17.5-14.4-17.5c-4.8,0-8.1,16.7-11.8,16.7c-3.2,0-4.4-14.1-5.4-17.9c-0.6-3-1.6-5.5-1.7-7.8c0.1-1.6,0.2-3.1,1.9-3.1
		c3.2-0.1,4,6.8,7.3,6.8c3.6,0,5.6-10.5,8.5-10.6c4.2,0.1,9,19.3,14.6,19.3c6.7,0,10.2-19.7,14.9-19.6c7.2-0.1,13.2,22.6,19.3,22.6
		c6.2,0,10.4-21.6,13.7-21.7c4.8,0.1,12,26.4,21.2,26.4c1.7,0,13.6-5.7,13.5-24.5c0.1-6.6-2.4-23.5-2.4-25.7c0-2.4,0.3-4.3,2.4-4.3
		c2.5-0.1,5.1,2.9,6.6,7.8c0.5,2.2,0.4,3.3,5.2,2.8c1.9-0.3,5-1.2,6.1-1.2c3.3,0,4.1,2.7,4,3.5c0.1,2.4-2.5,3.2-4.9,3.5
		c-7.5,1.5-9.7,3-9.7,7.8c0,6.5,3.7,31.2,12,31.1c9.2,0.1,8.1-25,8-30.7c0.1-6.4-0.6-10.2-0.7-11.8c0.1-1.7,0.4-6.8,3.1-6.8
		c5.6,0.1,5.5,13.6,5.4,23.4c0.1,13.4-0.3,19.6,4.9,19.6C479.4,440.4,482.5,436.2,486.8,432.6"/>
</g>
</svg>
