<?xml version="1.0" encoding="utf-8"?>
<!-- Generator: Adobe Illustrator 17.1.0, SVG Export Plug-In . SVG Version: 6.00 Build 0)  -->
<!DOCTYPE svg PUBLIC "-//W3C//DTD SVG 1.1//EN" "http://www.w3.org/Graphics/SVG/1.1/DTD/svg11.dtd">
<svg version="1.1" id="Calque_1" xmlns="http://www.w3.org/2000/svg" xmlns:xlink="http://www.w3.org/1999/xlink" x="0px" y="0px"
	 viewBox="0 0 595.3 841.9" enable-background="new 0 0 595.3 841.9" xml:space="preserve">
<path d="M312.1,248.3c0.9,0.1,1.7-0.3,2.4-0.9l0.3-1.5c0.8,0,2.3-0.2,2.5,0.8c-0.4,5.6-1.2,11.1-1.5,16.7l-2.5-0.1
	c0.7-4,0.1-8.5-2.6-11.7c-2.5-2.7-5.8-4.9-9.7-4c-1.8,0.5-3,2-3.9,3.6c-0.8,2.5,0.3,4.9,1.6,6.8c5,4.6,13,3.6,17.4,9.4
	c3.1,3.6,4,9.7,1.6,14c-1.5,3.3-4.5,5.1-7.6,6.8c-6.1,3.1-14.6,2.5-20.2-1.1c-1.4-0.2-3.3-0.5-4.4,0.6c-0.2,0.3-0.6,0.6-0.4,1.1
	c-0.7,0.2-1.7,0.2-2.5,0c0.3-6.2,1.2-12.2,1.5-18.4c0.7-0.4,1.6-0.1,2.3,0.1c0.7,6.9,3.7,15.3,11.1,17c3,0.6,6.1,0.2,8-2.2
	c1.5-1.6,1.7-4.2,1.1-6.3c-2.6-4.9-8.7-5.5-13.3-7.7c-4.6-1.9-8.2-7.4-8-12.9c0.2-6.4,5.6-11.3,11.1-13.2
	C301.9,243.5,307.9,245,312.1,248.3z"/>
<path d="M351.7,250.9c-0.1,1.1-0.3,2.2-0.7,3.1c-1.6-0.3-3.6-0.2-4.7,1.1c-1.6,1.6-1.2,4.1-2.1,6l-2.8,11.6c3.6,2,8.3,1.7,12.3,3.1
	l0.7-1.6c1-5.1,2.5-10.1,3.5-15.2c-0.1-1.9-1.7-3.4-3.5-4c-0.2-0.2-0.7,0-0.8-0.4l0.9-3c7.4,1.8,14.6,3.8,21.7,6.1
	c0.3,0.9-0.2,2-0.7,2.4c-1.7-0.4-3.3,0.3-4.5,1.2l-1,2c-2.5,10.4-5.2,20.8-7.4,31.4c-0.2,2.1,1.3,3.4,2.9,4.2
	c0.3,0.1,0.7,0.2,0.8,0.5c-0.2,1-0.3,2.1-0.9,2.9c-7.1-2.3-14.2-4.7-21.5-6.5l0.7-2.3c2.1,0.4,4.1-0.1,5.3-1.7
	c1.2-4.4,2.1-8.8,3.2-13.2c-4-1.3-8.1-2-12.1-3l-0.3,0.2l-2.9,12.3c0.2,1.2,0.2,2.4,1.2,3.2c0.8,0.7,1.9,1.2,2.7,1.6l-0.5,2.5
	c-7.2-1.6-14.5-2.9-21.9-4c-0.2-1.2,0.4-1.8,0.5-3.1c1.8,0.1,3.9-0.1,4.9-1.8c2.8-10.9,5.7-21.7,7.9-32.9c0.2-1.2-0.6-2.2-1.2-3.1
	c-0.7-1.1-3.5-0.7-2.5-2.7c0.2-0.3,0-0.9,0.5-1.1C337,247.9,344.5,249.1,351.7,250.9z"/>
<path d="M184.7,271.1c-1.1,0.7-2.1,1.8-2.1,3.3l0.1,1.1c5,10.1,9.7,20.3,14.6,30.5c0.8,0.9,2,1.5,3.1,1.3c2-0.2,3.1-2.3,4.3-3.8
	c2.6-4,3.2-10.3,1.6-15l2.1-1c2.6,5.2,5.2,10.6,7.7,15.9c-10.7,4.7-21.8,10.2-31.6,16.1c-0.6-1-1.7-2.3-1.3-3.4
	c1.3-0.6,2.3-1.7,2.6-3.1c0.2-3.1-2.1-5.3-3-7.8c-3.6-8.1-7.7-16-11.7-23.8c-1.5-1.2-3.8-1.4-5.5-0.6l-1.2-2.1
	c6.4-3.7,12.9-7.5,19.8-10.6C184.4,269,186.2,270.5,184.7,271.1z"/>
<path d="M249.9,252.3c1.2,1.9,1.8,4.8,0.5,6.8c-1.5,3-4,5.1-6.3,7.3c2.2,2.6,4.1,4.8,7,6.6c1-5.2,2.5-11.1,7.5-13.7
	c2.3-1,5.1-0.6,7.1,0.7c2.2,1.9,3.2,4.8,2.6,7.7c-0.7,1.9-2.1,3.7-4,4.5c-2.5,1-5.5,0.4-7.4-1.4c-1-0.6-1-1.9-2-2.6
	c-0.6,2.1-1.5,4.2-1.7,6.5c3.2,2.6,7.1,5.1,11.8,5c2.2-0.5,4.1-2.2,4.9-4.4c1.5,3.6,0.6,7.9-1.4,11c-2.6,3-5.9,5.7-10.3,4.7
	c-3.4-0.3-6.3-2.1-9.1-3.6c-2.5,5.1-7.2,8.8-13.1,8.9c-5.1,0-9.6-3.2-11.4-7.9c-1.6-3.5-0.7-8.3,1.3-11.4c1.5-2.6,4-3.6,6.1-5.7
	c-1.6-2.6-4-5.2-4-8.7c-0.4-5,1.8-9.7,6-12.2C238.7,247.8,246.5,247.7,249.9,252.3z M236.3,253.5c-0.1,0.6-0.2,1.4,0.2,1.9
	c1.6,3.1,3.7,6.3,5.9,8.7c0.7-0.2,0.8-0.9,1.5-1.1c1.6-3.6-2.6-6.1-3.7-9C239.2,253,237.4,252,236.3,253.5z M231.9,275.2
	c-0.7,3.9,2.7,6.5,5,8.8c2.1,1.9,4.9,4.6,8.2,4.6c1.2-0.7,1.5-1.7,1.9-2.8c-4.7-3.5-9.1-7.2-13-12.1
	C233.2,273.8,232.4,274.7,231.9,275.2z"/>
<path d="M416.6,275.1c-2.3,14.3-5.1,28.3-7.3,42.6c0.3,1.7,1.7,3.2,3.1,4c-0.3,1-0.7,1.9-1.3,2.7c-6.4-4-13.1-7.6-19.6-11.3
	c-0.1-0.7,0.6-1.5,1-2.2c1.3,0.6,3,1.5,4.4,0.6l0.5-0.7l1.8-11.4c-3.1-2-6.4-3.5-9.7-5.2H389c-2.3,3.5-9.1,6.2-5.7,11.5
	c0.7,0.9,1.7,1.2,2.6,2c-0.7,0.6-0.4,2.9-1.9,1.8l-12.6-5.5c0.2-0.8,0.7-2,1.2-2.8c6.6,3.1,8.9-4.7,13.1-7.6
	c7.4-7.5,15-15.4,22.3-23.1C411.1,271.6,414,273.4,416.6,275.1z M402.1,281l-10.6,10.8v0.4c2.6,1.3,5.4,2.9,8,4
	C400.3,291.1,401.7,286.4,402.1,281z"/>
<path d="M159.1,284.5c-1.5,1.2-2.1,3-1.7,4.9c1.7,3.1,4.3,5.4,6.4,8.4l12.4,15.8c1.8,3.4,1.8,8.3-0.4,11.3
	c-5.1,5.1-10.7,10.2-18.8,9.3c-2.5-0.2-4.7-1.7-6.3-3.6c-5.4-7.2-11.6-14.3-17.1-21.4c-1.1-0.8-2.6-1.1-3.8-0.7l-1.9,0.9
	c-0.4-0.6-2.2-1.7-1-2.4c5.5-5,11-9.6,16.4-13.9c1,0.3,1.5,1.5,2.1,2.1c-0.1,0.8-0.8,0.9-1.2,1.6c-2.4,3.6,1.6,6.4,3.4,8.9
	c4.5,5.9,10.5,13.5,15.4,19.3c2.1,1.4,4.9,2.3,7.4,1.2c2.4-0.8,4.1-2.9,4.8-5.2c0.7-1.7,0-3.6-0.4-5.2c-6.3-8.7-12.1-15.5-19-24
	c-1-0.8-2.4-1-3.6-0.7c-1,0.1-1.7,0.8-2.5,0.9c-0.7-0.7-1.2-1.4-1.8-2.2c3-2.6,6.3-4.7,9.8-7.1C158.2,282.9,158.9,283.7,159.1,284.5
	z"/>
<path d="M461.6,305.4c5.5,4.5,10.4,12.1,7.8,19.7c-2.1,4-6.6,5.2-11.2,4.7c-1.7,0-3-0.8-4.6-1.1c1.2,3.6,3.5,7.8,1.7,11.9
	c-1.5,3.6-4.7,5.5-7,8.3c-0.2,0.3,0.1,0.7,0.3,0.8c3,0.2,5-1.9,6.9-3.8c0.7,0.5,1.7,1.1,1.7,2c-2.6,3-6.1,5.2-10.7,4.2
	c-3-0.6-5.4-2.6-6.9-5c-1.4-2.2-1.4-5.5,0-7.8c2.8-3.6,6.9-6.4,9.2-10.2c0.3-1.2,0.5-2.7-0.1-3.9c-0.9-1.6-2.6-2.6-3.8-3.6
	c-4,3.8-7.6,8.2-11.2,12.2c-0.6,2.1,0.5,3.9,1.7,5.3c-0.7,0.9-0.9,1.7-1.8,2.2c-5.6-5-11.6-9.3-17.4-14.2c0.4-1.1,1.5-2,2.2-2.6
	c0.9,0.8,1.9,1.2,3.1,1.3l2.2-0.6l22.5-24.9c0.4-1.2,0.7-2.8,0.1-4l-1.3-1.8c0.4-0.9,1.9-2.6,2.8-1L461.6,305.4z M458,306.8
	c-4.1,4.2-7.9,8.4-11.4,13c0.8,0.8,2.1,1.7,2.8,2.5c2,1.1,4.3,0.3,6-0.9c2.5-2.7,6-5.5,6.4-9.7C461.9,309.3,459.6,308,458,306.8z"/>
<path d="M489.3,333.3c3.9,4.5,7.4,9.8,11.2,14.7l-2.6,1.8c-1.3-1.2-2.5-2.4-4.2-2.1l-1.4,0.3c-3.8,3-8,5.5-11.9,8.6l0.6,0.3
	l17.2,2.8c1-0.3,1.9-1.2,2.5-2.1c0.7-1.4,0.2-3.3-0.4-4.6c0.6-0.7,1.6-1.4,2.6-1.7c3.5,5,6.4,10.1,9.3,15.2
	c-0.5,0.7-1.2,1.2-2.1,1.7c-4.3-6.4-13.1-5.3-20-6.9c-3.7,8.3-8.1,16.4-12,24.6c-0.6,2.3-0.2,5,0.7,6.9c-0.7,0.9-1.7,1.4-2.6,1.9
	c-3.7-6.5-7.8-12.7-11.8-18.9c1.2-0.6,2.1-2.1,3.6-1.2c2.7-1.2,3-4.5,4.5-6.8c1.2-2.8,2.6-5.5,3.8-8.3c-3.6,2.3-7.7,5-10.9,8.2
	c-0.6,1.2-0.6,2.9,0,4.1c-0.6,0.9-1.7,1.2-2.5,1.8c-4.3-5.5-8.8-11.2-13.1-16.5l2.3-1.9c1.2,1.4,2.8,2.3,4.8,1.9l2.2-1.3l25.9-18.4
	c0.9-1.2,1.5-3.3,0.7-4.8c-0.1-0.5-1-1.1-0.2-1.5C487.4,328.1,487.8,332.7,489.3,333.3z"/>
<path d="M149.9,340.1c2.4,0.7,3.9-3.3,5.6-0.9l0.9,1.2c-5.7,5.1-11,10.7-15.9,16c-0.9-0.5-1.4-1.1-2.1-1.9c0.7-1.2,2.6-2.9,1.4-4.5
	c-3.1-2.1-6.7-3.6-10.1-5.1c-3.1,2.4-5.4,5.5-8,8.3c1.6,2.9,3.1,5.9,5.1,8.5c1.3,1.1,3.2,1,4.7,0.4c1.1-0.2,2.1-2.6,3.1-1.2l1,1.1
	c-3.1,3.6-6.1,7.6-8.9,11.4c-1-0.2-1.8-1.2-2.6-2.1c4-4.5-0.5-9.5-2.6-13.4c-5.7-9.8-11.2-19.3-17.1-29c2.1-2.7,4.3-4.6,6.4-6.9
	C123.7,327.8,136.7,334.2,149.9,340.1z M112.4,337.4c2.6,4.5,4.9,9.2,7.8,13.4c2.3-2.2,4.5-4.7,6.4-7.1L112.4,337.4z"/>
<path d="M108.5,352.1c2.3,3.3,2.6,8.2,1.5,12.1c-1.2,2.7-3.1,5.3-4.5,7.8c3,2.5,6.4,4.3,9.8,6.5c2,0.3,4.1-0.6,5.1-2.2
	c1.1,0.2,1.7,0.9,2.6,1.6c-3.7,6.1-8.5,12.5-12,18.9c-1-0.3-1.7-0.7-2.6-1.6c0.9-1.4,1.1-3.9,0.2-5.2c-9.5-6.2-18.8-12.4-28.3-18.3
	c-1.9-0.7-3.8,0.2-5,1.4c-0.2,0.2-0.2,0.6-0.5,0.6c-0.9-0.1-1.2-0.6-1.9-1.1c4-7.7,9-15.2,14.3-22.1c3.1-3.2,7.6-5,12.4-4.3
	C103.2,347.3,106.2,349,108.5,352.1z M88,356c-1.7,0.2-2.6,1.7-3.1,3.1c5.9,3.6,11.7,7.9,18.3,11.5l1.3-1.7c0.7-2.3-0.9-4.6-2.6-6.1
	C97.3,360.4,94.1,355.9,88,356z"/>
<path d="M477,394h-0.2l0.2-0.2C477,393.7,477,393.9,477,394z"/>
<path d="M298.5,346.9c-6.9,8.1-12.8,18.1-15.9,28.6c-0.9,2.7,0.2,5.5,1.7,7.7c1.7,2.2,4.5,3,7.3,3.5l78.5,14.3h0.3
	c15.7-19.3,38.7-32.5,64.9-33.7l-0.7,1c-14,12.3-25.8,27.9-34.4,44.4c1.9,13.9,10.2,26.7,21.1,34.9c-20.9,0.8-40.2-8.5-52.1-24
	l-32.1,5.1l-0.4,0.2l3.1,3.3c-7.4,4.5-15.3,8.3-22.7,12.4l-13-7.1c-15.9,2.6-32.6,3-49.3,2.6c-2,0.2-3.5,1.3-4.5,3.1
	c-4.3,12.6-0.6,26.9,6.7,37.1c-18.1-2.5-31.1-17.7-36.1-34.3c0-0.3-0.1-0.7-0.4-0.8c-14.6,5.2-29.8,13.3-39.3,25.1
	c0-10.5,3.6-19.8,8.8-28.3c1.2-2.2,3.3-4.1,4.6-6.1c-9.5-2.2-18.9-4.7-27.8-8.3c1.6-2,3.4-3.6,5.3-5.5c-2.6,0.2-5.1,1.3-7.7,1.9
	c-8.7-4.5-16.4-10.1-22.9-17.5c21.9-12.4,47.3-17.3,72.4-22.2c11.2-2,22.8-3.1,34.4-4.4c13.3-15.5,28.3-30.7,49.4-33.3h0.7v0.3
	H298.5z M283,357.9c-13.4,6.7-22.1,16.9-31.6,28.5c-6.8,0.5-13.7,1.2-20.2,2c-27.4,4-54.5,8.9-79.3,19.6c3.9,3.6,8.5,6.6,13.2,9.3
	c11.8-3.5,25.4-5.4,38.2-3.1c-9,1.7-17.9,4.9-24.7,10.9c12.3,4,25.4,6.4,38.8,7.3c-0.1-2-0.7-3.8-0.6-5.7c2.2-0.2,4.5-0.8,6.6-0.6
	c1,16.7,6.9,33,20.7,42c-1.7-9-2.6-19.8,1-28.3c1.9-3.1,5-5.2,8.4-5.9c17.4,0.3,34.8,0,51.4-3.2l12.1,6.6l11.9-6.5l-5.8-5.5
	c-0.2-0.2-0.5-0.6-0.1-0.7l44.8-7.2l4.1-0.5c7.6,11.1,19.1,19.9,32.6,22.5c-6.1-7.6-9.5-16.8-10.8-26.5c5.3-13.5,13.8-26,23.4-36.3
	c-12.2,3.6-23.5,10.2-32.8,18.5c-4,3.7-7.9,8.3-11.6,12.6l-84.4-15.2l-3.8-1.3c-5.5-3-9.2-8.8-8.4-15.4
	C277.5,369.5,280.2,363.6,283,357.9z M202.6,437.3c-4.7,4.1-8,8.9-10.7,14.5c4.1-2.8,8.3-5.1,12.6-7.2c4.5-2.3,9.8-3.8,14.2-5.6
	C213.3,438.6,207.9,438.1,202.6,437.3z"/>
<path d="M326.9,472.1c1.9,7.1-2.7,12.5-6.3,17.9c-8.9,11.3-20.8,19.8-32.9,26.9c-0.5,1.2-1.7,2.3-2,3.6c4.6-1.9,10.6-5.9,15.9-2.3
	c2.8,2,4.2,5.5,3.5,9.1c-4,7.7-8.3,15.4-12.8,22.9c-0.3,0.4-0.3,1.1-0.2,1.7c0.2,0.7,0.9,1.2,1.7,1.1c2-0.7,3.1-1.7,4.7-3.1h4.5
	c-1.5,2.6-3.9,4.3-6.2,6c-3.1,1.9-7.8,1.7-10.7-0.2c-3.4-2.2-5.1-6.4-4.2-10.7l0.7-2.3l11.2-19.4c-0.1-0.6-0.7-1.2-1.2-1.1
	l-11.1,5.6c-1.6,1.9-2.6,4.1-3.9,6.1c-4.8,7.9-9.6,15.7-14.3,23.5c-4.3,0.3-10.2,0.2-14.2,0.2c6.4-10.6,13.6-21.5,19.9-32.4
	c-1.9,0.3-4,1.2-5.9,1.6v-4.6c3.2-1.3,6.9-2.2,10.2-3.5c10.1-16.5,20.2-34.8,37.2-45.1c4.1-2.1,8.2-4.5,13.2-3.8
	C325.1,470,326.3,470.9,326.9,472.1z M322.3,473.6c-7.1,3-12.4,9.2-17.2,15.1c-4.2,6.7-8.5,13.6-12.1,20.1c3-1.8,6.4-4.1,9.3-6.4
	c8.7-7.6,19.5-15.5,21.2-28C323.3,474,323,473.3,322.3,473.6z"/>
<path d="M361.1,475.8c-2.6,4.7-5.5,9.7-8.5,14.5c7.4,0.5,14.2-0.3,22.3,0.3l-3,5l-22.8,0.4c-11.3,18.2-22,36.6-33.2,54.7
	c-0.3,1.2,0.4,2,1.2,2.3c2.3,0,3.6-1.8,5.2-2.9h4.6c-0.8,1.8-2.6,3.1-4.1,4.3c-2.3,2.2-6.1,3.4-9.7,2.6c-3.7-1-7.1-4.5-7.5-8.4
	c-0.3-2.3,0.4-4.4,1.2-6.3c9.8-15.3,19.1-31.1,28.3-46.3c-1-0.4-2-0.1-2.9,0.1l-0.2-0.3c-3-0.1-5.9,0.2-9.2,0c0.8-1.7,1.8-3.4,2.8-5
	c3.7-0.4,9.2-0.1,13-0.3c3.1-4.9,6-9.9,9.2-14.7C352.2,475.7,356.7,475.6,361.1,475.8z"/>
<path d="M364.9,503.2c0.6,2,0.2,4.4-1.2,5.9c-2.1,1.9-5.6,2.8-8.3,1.6c-1.9-1-3.1-3-2.9-5.2c0.3-2.3,1.8-4,4-4.8
	C359.3,499.3,363.6,499.9,364.9,503.2z"/>
<path d="M260.6,520.6c1.2,3.2,0.5,7.1-1.4,9.8c-1.7,1.8-4.5,2.7-6.9,1.7c-2.2-1-3.7-3.1-3.6-5.6c0.1-2,1.8-3.6,3.5-4.1
	c1.4,0,2.8-0.5,3.6-1.7c0.4-1.2-0.7-2-1.4-2.4c-5.5-1.2-7,4.5-10.5,7.8c-5.2,6.8-9.5,13.5-13,21.2c-0.8,1.4-0.7,3.4,0.2,4.7
	c1,1.3,2.6,2.1,4.4,1.8c7.2-2.1,12.1-7.1,16.3-13.1l4.1-0.1c-4,7.3-10,13-17.7,16.1c-4.8,1.4-11.5,1.8-14.9-2.1
	c-5.6-6.2-1.5-15.2,1.5-21.5c5-9.3,14.2-16.2,24.8-18.4C254.4,514.2,258.7,516.2,260.6,520.6z"/>
<path d="M359.6,515.3c-7.1,11.8-14.5,23.7-21.4,35.4c-0.4,1.1,0.6,1.6,1.1,2.1c2.2,0.1,3.6-1.7,5.3-2.9c2.1-1.7,3.2-4.2,5.2-6.1
	l4.5,0.1c-4.7,6-9.5,14.3-18.4,13c-3.5-0.7-6.1-3.2-7.4-6.5c-2.7-7.3,4.4-12.3,6.9-18.2c3.6-5.5,6.5-11.4,10.3-16.8
	C350.8,515.4,354.9,515.1,359.6,515.3z"/>
<path d="M400.8,520.5c3.2,5.5-2.3,9.6-4.1,14.1c-3.1,5.3-6.4,10.5-9.3,15.9c0.2,0.6,0.2,1.3,0.7,1.7c2,1.2,3.6-1.2,5-1.9
	c2.1-1.8,3.8-4.5,5.5-6.7c1.6-0.3,3.2-0.2,4.7-0.1c-3.1,4.5-6.7,9.4-11.5,12.2c-2.5,1.3-6,1.4-8.7,0.2c-2.9-1.2-5.4-4.2-5.9-7.6
	c-0.4-2.1,0-4.5,1.1-6.4c4.1-6.8,8.1-13.2,11.9-19.9c-0.2-0.3-0.2-1-0.7-1.1c-3.5,0.9-5.9,3.2-8.7,5.7c-3.2,4-5,8.5-8,12.8
	c-3.6,5.7-6.8,11.6-10.4,17.3l-13.8,0.2c2.2-4.5,4.9-8.3,7.3-12.6c4.1-6.9,8.3-13.4,12.1-20.4c-0.3-0.6-1.3-0.3-1.7-0.2l-1.1,0.7
	l-6.9,11.3h-4l0.2-0.7c3.3-5,5.5-10.7,9.7-15c2.6-2,6.3-2.8,9.7-1.7c2.2,0.8,4.3,2.2,5.5,4.1c4.1-2.5,7.8-6.7,13.4-6.9
	C396.2,515.6,399.5,517.4,400.8,520.5z"/>
<path d="M211,517.8c0.5-0.1,1.2-1,1.4-1.6c4.5-0.1,9.8-0.1,13.8,0c-6.7,11.6-13.8,22.6-20.2,34.4c0.2,0.6,0.2,1.6,1.1,1.8
	c2.5,0.1,4.8-2.9,6.3-4.5h4c-2.3,4.9-6.9,8.2-12,9.8c-2.6,0.7-5.2-0.1-7-1.7c-1.2-1-1.9-2.5-2.6-3.9c-2.6,3.4-6.5,6.8-11.7,6.4
	c-3.3-0.2-6.3-2.2-7.9-4.7c-4.1-8.9,1.8-17.4,6-24.6c5.4-6,11.1-12.2,19.5-14C205.4,514.8,208.6,515.8,211,517.8z M206.9,519.4
	c-2-0.7-3.3,1.6-4.5,2.6c-6.9,7.8-13.1,17.3-17.4,26.6c-0.5,1.6-2.2,3.9-0.6,5.5c0.7,0.7,1.9,0.2,2.6-0.2c8-7.7,13-17,18.5-26.4
	c1.2-2.3,3-4.5,2.4-7.3C207.6,519.9,207.3,519.5,206.9,519.4z"/>
<path d="M442.1,518.9c0.9-1.1,1.7-2.5,2.6-3.7c4.5-0.2,9.1-0.1,13.7,0c-9.7,16.6-20.8,33-30.7,49.3c6.5,0.8,12.3-1.3,17.8-3.9l2.3,3
	c-6.7,4.3-15.8,5.5-23.7,5c-14.1,12.5-31.7,23.7-52.6,22.3c-6.6-1-14.1-3.7-16-10.8c-1.3-4.3,0.3-8.6,2.8-11.5
	c8.3-7.7,21.7-10.2,33.1-7.2c7.4,1.2,14.8,2.6,22.5,2.7c2-1.8,2.8-4.5,4.5-6.5c-0.2-0.7,0.8-1.1,0.8-1.8c-3.1,1-7.6,1.8-10.6-0.2
	c-3.9-2.2-4.3-7.7-3.8-11.7c2.5-11.5,10.1-21.3,19.7-27.2c3.7-2.5,9.2-3.5,13.4-1.2C439.5,516.2,440.7,517.6,442.1,518.9z
	 M435,520.9c-5.5,2.9-9.2,8.8-12.6,13.6c-3.1,4.6-6.5,9.4-7,15.1c0.2,0.8,0.9,1.2,1.4,1.7c2.9,0.8,5.2-1.6,7-3.2
	c4.2-6.3,8.3-12.6,12.1-19.3c0.8-2,2.6-3.6,2.2-6C437.4,521.6,436.3,520.8,435,520.9z M386.7,563.9c-9.3-1.4-19.3,0.9-26.2,6.5
	c-2.3,2.5-3.3,6.2-2,9.7c1.7,4.8,7,6.2,12.1,6.2c16-0.2,31.2-6.2,41.1-18V568l-11-1.2L386.7,563.9z"/>
<path d="M185.6,516.6l-18.8,30.1c-3.7,6.3-8.7,12.9-12,19.6c6.3,0.2,12.3-1,17.3-4c1.2,0.5,1.6,1.9,2.4,2.8
	c-6.6,4.5-15.2,5.5-23.8,5.3c-12.1,11-26.9,20.3-44,22.5c-9.3,0.9-19.6-1.2-23.9-9.7c-1.7-4.7-0.7-10.3,3-13.5
	c7.3-5.9,17.4-8.8,27.5-7.4c9.2,1.6,18.1,3.3,27.5,3.5c2.1-2.7,3.6-5.7,5.4-8.6c-5,0.9-12.6,3.2-15.7-2.2
	c-4.3-6.3,2.3-11.7,4.6-16.9l12.9-21.2c4.2-0.3,9.1-0.1,13.9-0.2c-7.1,11.5-13.6,23.1-21,35c-0.2,1,0.4,2,1.3,2.5
	c9.5-0.3,11.2-9.8,16.1-15.9c4.4-7.4,9.3-14.4,13.6-21.6c4.5-0.2,9.2-0.3,13.6-0.3L185.6,516.6z M125.8,568.3
	c-8.8-2-18.7-4.4-27.8-1.6c-4.4,1.8-9.4,3.4-12.1,7.5c-1.3,2.5-1.5,6.1-0.2,8.7c2,4.4,7.3,5.6,12.2,5.4c16-0.7,31.2-6.3,40.6-18.5
	L125.8,568.3z"/>
<path d="M173.7,406.6c0.4,0.8,0.4,1.7,0,2.6c-0.6,1.2-2.2,1.3-3.4,0.9c-1.2-0.6-1.2-2.1-1-3.2c0.2-0.9,1.2-1.2,2-1.5
	C172.3,405.3,173.3,405.7,173.7,406.6z"/>
</svg>
