<?xml version="1.0" encoding="utf-8"?>
<!-- Generator: Adobe Illustrator 17.1.0, SVG Export Plug-In . SVG Version: 6.00 Build 0)  -->
<!DOCTYPE svg PUBLIC "-//W3C//DTD SVG 1.1//EN" "http://www.w3.org/Graphics/SVG/1.1/DTD/svg11.dtd">
<svg version="1.1" id="Calque_1" xmlns="http://www.w3.org/2000/svg" xmlns:xlink="http://www.w3.org/1999/xlink" x="0px" y="0px"
	 viewBox="0 0 595.3 841.9" enable-background="new 0 0 595.3 841.9" xml:space="preserve">
<polygon fill="#1D1D1B" points="449.8,432.2 482.6,456 500.3,456 500.3,500 540.5,500 519.1,466.1 540.5,432.2 "/>
<polygon fill="#1D1D1B" points="50.3,432.2 71.8,466.1 50.3,500 87.1,500 87.1,456 108.5,456 138.1,432.2 "/>
<g>
	<path fill="#1D1D1B" d="M464,481.5h-3.1V502h3.1c0.9,0,1.6-0.2,2.2-0.7c0.6-0.5,0.9-1.1,0.9-1.7V484c0-0.7-0.3-1.3-0.9-1.7
		C465.6,481.7,464.9,481.5,464,481.5"/>
	<path fill="#1D1D1B" d="M126.8,481.5h-3.1v12.6h3.1c0.9,0,1.6-0.2,2.2-0.7c0.6-0.5,0.9-1.1,0.9-1.7V484c0-0.7-0.3-1.3-0.9-1.7
		C128.4,481.7,127.7,481.5,126.8,481.5"/>
	<path fill="#1D1D1B" d="M474.7,499.6c0,1.2-0.3,2.2-0.8,3.3c-0.5,1-1.3,1.9-2.3,2.7c-1,0.8-2.1,1.4-3.4,1.8
		c-1.3,0.4-2.7,0.6-4.2,0.6h-9.3c-0.3,0-0.6,0-0.9-0.1c-0.3-0.1-0.5-0.3-0.5-0.8v-30.5c0-0.7,0.4-1.1,1.4-1.1h9.3
		c1.5,0,2.9,0.2,4.2,0.6c1.3,0.4,2.4,1,3.4,1.7c1,0.7,1.7,1.6,2.3,2.7c0.6,1,0.8,2.2,0.8,3.5V499.6z M424.4,507c0,0.6-0.4,0.9-1.2,1
		h-19c-0.8,0-1.2-0.3-1.2-1v-30.6c0-0.3,0.1-0.5,0.3-0.7c0.2-0.2,0.5-0.3,0.9-0.3h5.1c0.7,0,1.1,0.3,1.2,1V502h12.6
		c0.3,0,0.6,0.1,0.9,0.3c0.3,0.2,0.4,0.4,0.4,0.7L424.4,507L424.4,507z M374.6,480.5c0,0.3-0.1,0.5-0.4,0.7
		c-0.2,0.2-0.5,0.3-0.9,0.3h-12.5v7.3h10.9c0.8,0,1.2,0.3,1.2,1v4c0,0.3-0.1,0.5-0.3,0.7c-0.2,0.2-0.5,0.3-1,0.3h-10.9v7.3h12.5
		c0.4,0,0.7,0.1,0.9,0.3c0.2,0.2,0.4,0.4,0.4,0.8v4c0,0.6-0.4,0.9-1.2,0.9h-19c-0.3,0-0.6-0.1-0.9-0.2c-0.2-0.1-0.4-0.4-0.4-0.7
		v-30.5c0-0.7,0.4-1.1,1.2-1.1h19c0.4,0,0.7,0.1,0.9,0.3c0.2,0.2,0.3,0.5,0.3,0.8v3.8H374.6z M324.7,507c0,0.6-0.5,1-1.3,1h-5
		c-0.8,0-1.2-0.3-1.2-1v-30.5c0-0.3,0.1-0.5,0.3-0.7c0.2-0.2,0.5-0.3,0.9-0.3h5c0.3,0,0.6,0.1,0.9,0.3c0.3,0.2,0.5,0.4,0.5,0.7
		L324.7,507L324.7,507z M288,480.4c0,0.3-0.1,0.5-0.3,0.7c-0.2,0.2-0.6,0.3-1,0.3h-12.5v7.3h10.9c0.4,0,0.7,0.1,0.9,0.2
		c0.2,0.2,0.4,0.4,0.4,0.8v4c0,0.3-0.1,0.5-0.3,0.7c-0.2,0.2-0.5,0.3-1,0.3h-10.9V507c0,0.3-0.1,0.5-0.3,0.6
		c-0.2,0.2-0.5,0.3-0.9,0.3h-5.3c-0.3,0-0.6-0.1-0.8-0.2c-0.2-0.1-0.3-0.4-0.3-0.7v-30.4c0-0.7,0.4-1,1.3-1.1h18.8
		c0.9,0,1.3,0.4,1.3,1.1L288,480.4L288,480.4z M238.2,507c0,0.6-0.5,1-1.4,1h-5c-0.5,0-0.8-0.1-0.9-0.3c-0.1-0.2-0.3-0.4-0.5-0.8
		l-6-13.7V507c0,0.6-0.4,1-1.3,1h-5c-0.8,0-1.2-0.3-1.2-1v-30.5c0-0.3,0.1-0.5,0.3-0.7c0.2-0.2,0.5-0.3,0.9-0.3h5
		c0.2,0,0.4,0.1,0.7,0.2c0.3,0.1,0.5,0.3,0.6,0.5v0.1l6.3,14.2v-14c0-0.3,0.1-0.5,0.3-0.7c0.2-0.2,0.5-0.3,0.9-0.3h5
		c0.3,0,0.6,0.1,0.9,0.3c0.3,0.2,0.5,0.4,0.5,0.7V507H238.2z M188.1,480.5c0,0.3-0.1,0.5-0.4,0.7c-0.3,0.2-0.5,0.3-0.9,0.3h-12.5
		v7.3h10.9c0.8,0,1.2,0.3,1.2,1v4c0,0.3-0.1,0.5-0.3,0.7c-0.2,0.2-0.5,0.3-0.9,0.3h-10.9v7.3h12.5c0.4,0,0.7,0.1,0.9,0.3
		s0.4,0.4,0.4,0.8v4c0,0.6-0.4,0.9-1.2,0.9H168c-0.3,0-0.6-0.1-0.9-0.2c-0.3-0.1-0.4-0.4-0.4-0.7v-30.5c0-0.7,0.4-1.1,1.2-1.1h18.9
		c0.4,0,0.7,0.1,0.9,0.3s0.3,0.5,0.3,0.8L188.1,480.5L188.1,480.5z M137.5,491.6c0,1.1-0.3,2.2-0.8,3.3c-0.5,1-1.3,1.9-2.3,2.7
		c-1,0.8-2.1,1.4-3.4,1.8c-1.3,0.4-2.7,0.7-4.2,0.7h-3.1v6.8c0,0.2-0.1,0.5-0.4,0.7c-0.2,0.2-0.6,0.4-1,0.4h-5.1
		c-0.3,0-0.6-0.1-0.8-0.3c-0.2-0.2-0.4-0.5-0.4-0.8v-30.4c0-0.3,0.1-0.5,0.4-0.6c0.2-0.2,0.5-0.3,0.9-0.3h9.5c1.5,0,2.8,0.2,4.2,0.6
		c1.3,0.4,2.4,1,3.4,1.7c1,0.7,1.7,1.6,2.3,2.6c0.5,1,0.8,2.2,0.8,3.5V491.6z M94.1,522.9h399.2V463H94.1V522.9z"/>
</g>
<polygon fill="#1D1D1B" points="111.3,540.1 105.1,554.1 98.9,540.1 96.8,540.1 96.8,556.7 98.8,556.7 98.8,545.1 103.9,556.7 
	106.2,556.7 111.3,545.1 111.3,556.7 113.4,556.7 113.4,540.1 "/>
<path fill="#1D1D1B" d="M133,542.3l3.4,9.3h-6.8L133,542.3z M131.6,540.1l-6.1,16.6h2.2l1.1-3.1h8.3l1.2,3.1h2.2l-6.1-16.6H131.6z"
	/>
<polygon fill="#1D1D1B" points="163,540.1 163,552.9 154.7,540.1 152.6,540.1 152.6,556.7 154.7,556.7 154.7,543.9 163,556.7 
	165.1,556.7 165.1,540.1 "/>
<g>
	<path fill="#1D1D1B" d="M192.8,550.2c0,1.9-0.7,3.4-2,4.8c-1.3,1.3-2.9,2-4.8,2c-1.9,0-3.4-0.6-4.8-2c-1.3-1.3-2-2.9-2-4.8v-10.1
		h2.1v10.1c0,1.3,0.5,2.4,1.4,3.3c0.9,0.9,2,1.4,3.3,1.4s2.4-0.5,3.3-1.4c0.9-0.9,1.4-2,1.4-3.3v-10.1h2.1V550.2z"/>
</g>
<polygon fill="#1D1D1B" points="207,540.1 207,556.7 209,556.7 209,549.2 215.3,549.2 215.3,547.2 209,547.2 209,542.2 217.4,542.2 
	217.4,540.1 "/>
<path fill="#1D1D1B" d="M235.9,542.3l3.4,9.3h-6.8L235.9,542.3z M234.5,540.1l-6.1,16.6h2.2l1.1-3.1h8.3l1.2,3.1h2.2l-6.1-16.6
	H234.5z"/>
<g>
	<path fill="#1D1D1B" d="M268.4,544.9c-0.6-0.9-1.4-1.6-2.4-2.2c-1-0.5-2-0.8-3.1-0.8c-1.8,0-3.3,0.6-4.6,1.9
		c-1.3,1.3-1.9,2.8-1.9,4.5c0,1.8,0.6,3.3,1.9,4.6c1.3,1.3,2.8,1.9,4.6,1.9c1.1,0,2.1-0.3,3.1-0.8s1.8-1.2,2.4-2.2l1.7,1.1
		c-0.4,0.6-0.9,1.1-1.4,1.6c-0.5,0.5-1.1,0.9-1.7,1.2c-1.3,0.7-2.6,1-4.1,1c-2.4,0-4.4-0.8-6-2.5c-1.7-1.7-2.5-3.7-2.5-6
		s0.8-4.3,2.5-6c1.7-1.7,3.7-2.5,6-2.5c1.4,0,2.8,0.3,4.1,1.1c1.3,0.7,2.3,1.7,3.1,2.9L268.4,544.9z"/>
</g>
<polygon fill="#1D1D1B" points="281.7,540.1 281.7,542.2 286.9,542.2 286.9,556.7 289,556.7 289,542.2 294.2,542.2 294.2,540.1 "/>
<g>
	<path fill="#1D1D1B" d="M320.4,550.2c0,1.9-0.7,3.4-2,4.8c-1.3,1.3-2.9,2-4.8,2c-1.8,0-3.4-0.6-4.8-2c-1.3-1.3-2-2.9-2-4.8v-10.1
		h2.1v10.1c0,1.3,0.5,2.4,1.4,3.3c0.9,0.9,2,1.4,3.3,1.4c1.3,0,2.4-0.5,3.3-1.4c0.9-0.9,1.4-2,1.4-3.3v-10.1h2.1V550.2z"/>
	<path fill="#1D1D1B" d="M346,544.8c0-0.7-0.2-1.3-0.8-1.8c-0.5-0.5-1.1-0.8-1.8-0.8h-6.8v5.2h6.8c0.7,0,1.3-0.3,1.8-0.8
		C345.7,546.1,346,545.5,346,544.8 M345.7,556.7l-4.2-7.3h-4.9v7.3h-2.1v-16.6h8.8c1.3,0,2.4,0.5,3.3,1.4c0.9,0.9,1.4,2,1.4,3.3
		c0,1.2-0.4,2.2-1.2,3.1c-0.8,0.9-1.8,1.4-3,1.5l4.2,7.3H345.7z"/>
</g>
<rect x="361.2" y="540.1" fill="#1D1D1B" width="2.1" height="16.6"/>
<polygon fill="#1D1D1B" points="387.9,540.1 387.9,552.9 379.5,540.1 377.4,540.1 377.4,556.7 379.5,556.7 379.5,543.9 387.9,556.7 
	389.9,556.7 389.9,540.1 "/>
<g>
	<path fill="#1D1D1B" d="M417,544.9c-0.6-0.9-1.4-1.6-2.4-2.2c-1-0.5-2-0.8-3.1-0.8c-1.8,0-3.3,0.6-4.6,1.9
		c-1.3,1.3-1.9,2.8-1.9,4.5c0,1.8,0.6,3.3,1.9,4.6c1.3,1.3,2.8,1.9,4.6,1.9c2.1,0,3.8-0.8,5.1-2.5v-2.9h-5.1v-2.1h7.2v9.3h-2.1v-1.9
		c-1.2,1.4-2.9,2.1-5.1,2.1c-2.3,0-4.4-0.8-6-2.5c-1.7-1.7-2.5-3.7-2.5-6s0.8-4.3,2.5-6s3.7-2.5,6-2.5c1.4,0,2.8,0.3,4.1,1.1
		c1.3,0.7,2.3,1.7,3.1,2.9L417,544.9z"/>
	<path fill="#1D1D1B" d="M463.2,544.9c-0.6-0.9-1.4-1.6-2.4-2.2c-1-0.5-2-0.8-3.1-0.8c-1.8,0-3.3,0.6-4.6,1.9
		c-1.3,1.3-1.9,2.8-1.9,4.5c0,1.8,0.6,3.3,1.9,4.6c1.3,1.3,2.8,1.9,4.6,1.9c1.1,0,2.1-0.3,3.1-0.8s1.8-1.2,2.4-2.2l1.7,1.1
		c-0.4,0.6-0.9,1.1-1.4,1.6c-0.5,0.5-1.1,0.9-1.7,1.2c-1.3,0.7-2.6,1-4.1,1c-2.3,0-4.4-0.8-6-2.5c-1.7-1.7-2.5-3.7-2.5-6
		s0.8-4.3,2.5-6s3.7-2.5,6-2.5c1.4,0,2.8,0.3,4.1,1.1c1.3,0.7,2.3,1.7,3.1,2.9L463.2,544.9z"/>
	<path fill="#1D1D1B" d="M492,548.4c0-1.7-0.6-3.3-1.9-4.5c-1.3-1.3-2.8-1.9-4.6-1.9c-1.8,0-3.3,0.6-4.6,1.9
		c-1.3,1.3-1.9,2.8-1.9,4.5c0,1.8,0.6,3.3,1.9,4.6c1.3,1.3,2.8,1.9,4.6,1.9c1.8,0,3.3-0.6,4.6-1.9C491.3,551.7,492,550.2,492,548.4
		 M494.1,548.4c0,2.3-0.8,4.3-2.5,6c-1.7,1.7-3.7,2.5-6,2.5s-4.4-0.8-6-2.5c-1.7-1.7-2.5-3.7-2.5-6s0.8-4.3,2.5-6
		c1.7-1.7,3.7-2.5,6-2.5s4.3,0.8,6,2.5C493.2,544.1,494.1,546.1,494.1,548.4"/>
	<path fill="#1D1D1B" d="M82.6,400.8c0,1.2-0.4,2.2-1.3,3c-0.8,0.8-1.9,1.2-3.1,1.2c-1,0-1.9-0.3-2.7-1c-0.8-0.6-1.3-1.5-1.5-2.5
		l1.9-0.5c0.1,0.6,0.4,1.1,0.8,1.5c0.4,0.4,0.9,0.6,1.5,0.6c0.6,0,1.2-0.2,1.7-0.7c0.5-0.5,0.7-1,0.7-1.7c0-1-0.6-1.8-1.7-2.3
		c-0.5-0.2-1.1-0.5-1.6-0.7c-0.5-0.2-1.1-0.5-1.6-0.7c-1.1-0.8-1.7-1.9-1.7-3.5c0-1.2,0.4-2.2,1.3-3s1.9-1.2,3.1-1.2
		c1,0,1.9,0.3,2.7,1c0.8,0.6,1.3,1.5,1.5,2.5l-1.9,0.5c-0.1-0.6-0.3-1.1-0.7-1.5c-0.4-0.4-0.9-0.6-1.5-0.6c-0.6,0-1.2,0.2-1.7,0.7
		c-0.5,0.5-0.7,1-0.7,1.7c0,1,0.6,1.8,1.7,2.3l3.2,1.4C82,398.2,82.6,399.3,82.6,400.8"/>
</g>
<rect x="91" y="389.6" fill="#1D1D1B" width="1.9" height="15.4"/>
<polygon fill="#1D1D1B" points="111.1,405 103.3,393.1 103.3,405 101.4,405 101.4,389.6 103.3,389.6 111.1,401.4 111.1,389.6 
	113,389.6 113,405 "/>
<g>
	<path fill="#1D1D1B" d="M133.4,394.1c-0.5-0.8-1.3-1.5-2.2-2c-0.9-0.5-1.8-0.7-2.8-0.7c-1.6,0-3,0.6-4.2,1.8
		c-1.2,1.2-1.8,2.6-1.8,4.2s0.6,3,1.8,4.2c1.2,1.2,2.6,1.8,4.2,1.8c1,0,1.9-0.2,2.8-0.7c0.9-0.5,1.6-1.2,2.2-2l1.6,1.1
		c-0.4,0.5-0.8,1-1.3,1.5c-0.5,0.4-1,0.8-1.6,1.1c-1.2,0.6-2.4,0.9-3.8,0.9c-2.2,0-4-0.8-5.6-2.3c-1.5-1.6-2.3-3.4-2.3-5.6
		c0-2.1,0.8-4,2.3-5.5c1.6-1.6,3.4-2.3,5.6-2.3c1.3,0,2.6,0.3,3.8,1s2.1,1.5,2.9,2.7L133.4,394.1z"/>
</g>
<polygon fill="#1D1D1B" points="142.6,405 142.6,389.6 152.2,389.6 152.2,391.5 144.5,391.5 144.5,396.1 150.3,396.1 150.3,398 
	144.5,398 144.5,403 152.2,403 152.2,405 "/>
<rect x="445.2" y="389.6" fill="#1D1D1B" width="1.9" height="15.4"/>
<g>
	<path fill="#1D1D1B" d="M462.4,394.2c0-0.8-0.3-1.5-0.8-2c-0.6-0.6-1.2-0.8-2-0.8c-0.8,0-1.5,0.3-2.1,0.8c-0.6,0.6-0.8,1.2-0.8,2
		s0.3,1.5,0.8,2c0.6,0.6,1.3,0.8,2.1,0.8c0.8,0,1.5-0.3,2-0.8C462.1,395.7,462.4,395,462.4,394.2 M464.3,394.2
		c0,0.4-0.1,0.8-0.2,1.3l-2.5,9.5h-2l1.8-6.6c-0.7,0.4-1.4,0.7-2.1,0.7c-1.2,0-2.3-0.5-3.3-1.4c-0.9-0.9-1.4-2.1-1.4-3.3
		c0-1.3,0.5-2.5,1.4-3.4c1-0.9,2.1-1.4,3.4-1.4c1.3,0,2.5,0.5,3.4,1.4C463.9,391.7,464.3,392.9,464.3,394.2"/>
</g>
<polygon fill="#1D1D1B" points="474.3,405 472.1,405 478.4,391.5 471.8,391.5 471.8,389.6 481.5,389.6 "/>
<g>
	<path fill="#1D1D1B" d="M497.6,400c0,1.4-0.5,2.6-1.4,3.6s-2.1,1.5-3.5,1.5c-1.1,0-2.1-0.3-2.9-0.9c-0.9-0.7-1.4-1.5-1.7-2.6
		l1.9-0.5c0.2,0.6,0.5,1.2,1,1.5c0.5,0.4,1.1,0.6,1.8,0.6c0.8,0,1.6-0.3,2.1-1c0.5-0.6,0.8-1.4,0.8-2.2c0-0.8-0.3-1.6-0.8-2.3
		c-0.5-0.7-1.2-1-2.1-1c-0.7,0-1.3,0.2-1.8,0.6c-0.5,0.4-0.8,0.9-1,1.5l-1.9-0.5l0.7-8.7h7.9v1.9h-6.1l-0.4,4.4
		c0.8-0.8,1.8-1.1,3-1.1c1.3,0,2.4,0.5,3.3,1.6C497.2,397.5,497.6,398.6,497.6,400"/>
	<path fill="#1D1D1B" d="M402.1,440c-3.9-3.3-7.9-6.6-11.8-9.9c-3.6-3-11.6-12.6-15.8-12.1c-0.3,0-0.6,0.1-0.9,0.2
		c-4.6,1.3-8.1,8.3-13.7,6c-4.9-2-8.1-8.8-11.7-12.8c-6.3-7-12.6-14.1-18.9-21.1c-5.3-6-10.6-11.9-16-17.9c-2.7-3.1-5.6-7.5-9.5-8.4
		c-2.1-0.5-3.9,0.3-5.9,1.2c-3.5,1.7-6.2,2.5-9.2,5.1c-3,2.5-7,1.3-10.4,1.5c-3.1,0.2-6.1,0.6-9.2,0.9c-2.5,0.2-2-0.5-3.9,1.9
		c-2.4,3-5.2,5.8-7.3,9.2c-2.2,3.5-6.2,7.9-10.2,9.2c-3.5,1.2-8.3,0.7-12,0.7c-0.6,0-1.2,0-1.7,0.1c-1.7,2.9-7,1.3-7.5,5.1
		c-0.8,5.9,4.5,7.2,5.4,11.9c-1.2-1.3-3.4-4-5-4.7c-1.7-0.7-3.5,0.8-5.3,0.8c-3.4,0-6.3-3.5-9.3-3.5c-0.9,0-4.6,2-5.3,2.7
		c-3.9,4,1.4,7.5,3.3,10.1c3.4,4.5,7.4,5.1,11.1,8.3c3.5,3.1,3.8,8.8,8.3,10.7c2.6,1.1,6.6,3.1,9.4,2.9c-2.4,1.9-7.5-0.4-10.1-0.8
		c-4.1-0.7-8-9.5-11.8-8.5c-0.6,0.2-1.1,0.3-1.5,0.5c-2.4,0.8-2.2,0.8-4.9-2.2c-2.4-2.6-5.1-4.1-8.1-5.4c-4.7-2-6.7-4.3-11.2-1.1
		l0,0c-1.8,1.3-3.5,2.6-4.9,4.3c-1.2,1.4-2,2.8-4,2.8c-1.6,0-2.9-0.5-4.4-0.7c-10.4,4.8-37.6,17.1-37.5,17.1c3.4-2,6.6-3.9,9.7-5.8
		c-0.9,0.4-1.5,0.6-1.5,0.6c2.2-1.1,4.3-2.3,6.3-3.6c0.4-0.3,0.8-0.5,1.2-0.8c2-1.3,3.9-2.7,5.8-4.1c1.3-1,2.7-1.8,4-2.4
		c11.7-8.1,19.7-15.1,23.7-20.4c5.5-7.1,5.7-16,12.8-21.8c1.8-1.5,4.1-2.1,5.9-3.5c1.9-1.6,3.6-4.4,5.4-6.4c2.1-2.2,4.3-4.6,6.6-6.3
		c2.8-2,3.8-1.4,7-0.8c4.9,0.9,8.7,0.6,12.2-4.2c3.1-4.2,5.3-10.4,10.6-11.2c4.8-0.7,9.3,4.3,14,4.2c8.4-0.1,16.1-9.8,21.6-16.2
		c6.2-7.3,12.5-15.1,17-24c0.3-0.5,0.8-0.8,1.2-1.2c1.1,2.1,2.3,4.3,3.5,6.5c2.8,5.2,5.9,10.7,9.2,16.7c2.8,5.2,5.5,10.5,8.6,15.5
		c3,4.9,8,8.4,10.2,14c1.8,4.6,2.2,9.8,4.3,14.4c1.7,3.7,4.1,6.9,6.3,10.2c3.8,5.6,5.6,15.3,12.9,13.6c3.3-0.8,6.4-2.5,9.7-3.3
		c1.6-0.4,2.7,0.2,4.1-1.1c3.9,5.3,21.2,10.5,25.2,15.7c4.1,5.2,8.8,3.1,13.6,7.2l-13.2,4.2c2.3,2,4.5,4,7.1,5.5
		c0.5,0.3,19.2,0.6,18.1-1.4c0.4,0.8,18,12.8,18,12.8C431.3,446,410.8,447.3,402.1,440 M420.9,404.2c-4.5-5.3-31.2-7.6-33.6-12.2
		l-15.9-17.6l-4.7,4.1l-0.6,0.7c-1.4,1.9-2.8,3.7-4.2,5.5c-3.7-5.2-7.4-10.3-10.9-15.2c-9.9-13.7-18.9-26.1-26.8-36.8
		c-4-5.4-7.7-10.4-11.1-15c-1.7-2.3-3.4-4.5-4.9-6.6c-1.9-2.6-4.1-3.6-6.2-0.6c-0.7,1-1.4,2-2.1,2.9c-8.1,11.2-13.5,18.9-15.8,22.1
		c-5.2,5.7-11.7,16.2-19.7,13.7c-2.5-0.8-5-1.7-7.5-2.5c-4.6-1.5-11-3.9-15.1,0.3c-1.1,1.1-2.2,2.3-3.4,3.5
		c-3.8,3.9-6.6,6.2-11.8,5.5c-3.6-0.5-8-2.2-11.2,0.7c-1.9,1.7-2.3,4.8-3,7.2c-1.4,4.6-4.2,7.4-7.7,9.8c-3.6,2.4-6.1,6.4-8.8,10
		c-3.2,4.3-6.4,8.7-9.7,13c-3.1,4.1-6.6,9.6-10.6,12.6l-58.9,46h352.6c-11.4-9.2-19.1-15.5-25.4-22.3
		C438.3,426.8,433.4,419.1,420.9,404.2"/>
	<path fill="#1D1D1B" d="M56,311.3c1.3-0.5,1.9-0.7,3.2-1.2c1.5,4.1,2.2,6.2,3.7,10.3c0.3,0.9,0.6,1.5,0.9,1.8
		c0.3,0.3,0.7,0.5,1.1,0.6c0.5,0.1,1,0,1.5-0.1c0.5-0.2,1-0.5,1.3-0.9c0.3-0.4,0.5-0.8,0.5-1.2c0-0.4-0.2-1.2-0.5-2.3
		c-1.4-4-2.1-6-3.5-10c1.3-0.4,1.9-0.7,3.2-1.1c1.3,3.8,2,5.7,3.3,9.6c0.6,1.6,0.9,2.8,0.9,3.5c0,0.7-0.1,1.4-0.5,2.2
		c-0.3,0.8-0.8,1.4-1.4,1.9c-0.6,0.5-1.3,0.9-2.3,1.2c-1.2,0.4-2.3,0.5-3.4,0.3s-2-0.6-2.6-1.3c-0.7-0.7-1.4-1.9-2-3.8
		C58.1,317,57.4,315.1,56,311.3"/>
	<path fill="#1D1D1B" d="M74.3,305c3.8-1.2,5.7-1.8,9.4-3c0.4,1.2,0.6,1.8,1,3c-1.2,0.4-1.9,0.6-3.1,1c1.7,5.3,2.5,7.9,4.2,13.1
		c-1.3,0.4-1.9,0.6-3.2,1c-1.7-5.2-2.6-7.9-4.3-13.1c-1.2,0.4-1.8,0.6-3,1C74.9,306.8,74.7,306.2,74.3,305"/>
	<path fill="#1D1D1B" d="M90.5,299.9c1.3-0.4,1.9-0.6,3.2-1c1.9,6.5,2.9,9.8,4.9,16.3c-1.3,0.4-1.9,0.6-3.2,0.9
		C93.5,309.6,92.5,306.4,90.5,299.9"/>
	<path fill="#1D1D1B" d="M102.2,296.4c1.3-0.4,2-0.6,3.3-0.9c1.5,5.4,2.2,8,3.7,13.4c1.9-0.5,2.8-0.8,4.7-1.3c0.3,1.2,0.5,1.8,0.8,3
		c-3.2,0.8-4.7,1.3-7.9,2.2C105,306.2,104.1,303,102.2,296.4"/>
	<path fill="#1D1D1B" d="M117.3,292.3c1.3-0.3,2-0.5,3.3-0.8c1.7,6.6,2.5,9.9,4.2,16.4c-1.3,0.3-1.9,0.5-3.2,0.8
		C119.9,302.2,119.1,298.9,117.3,292.3"/>
	<path fill="#1D1D1B" d="M127.4,289.8c3.8-0.9,5.8-1.4,9.6-2.3c0.3,1.2,0.4,1.9,0.7,3.1c-1.3,0.3-1.9,0.4-3.2,0.7
		c1.3,5.4,1.9,8,3.2,13.4c-1.3,0.3-2,0.5-3.3,0.8c-1.3-5.4-1.9-8-3.2-13.4c-1.2,0.3-1.8,0.4-3.1,0.8
		C127.9,291.7,127.7,291,127.4,289.8"/>
	<path fill="#1D1D1B" d="M142.9,286.2c1.4-0.3,2.1-0.5,3.6-0.8c1.8,2.1,2.7,3.2,4.5,5.3c0.8-2.7,1.2-4,2-6.6
		c1.4-0.3,2.1-0.4,3.5-0.7c-1.3,4.2-1.9,6.3-3.1,10.5c0.6,2.9,0.9,4.3,1.5,7.2c-1.3,0.3-2,0.4-3.3,0.7c-0.6-2.9-0.9-4.3-1.5-7.2
		C147.2,291.2,145.8,289.5,142.9,286.2"/>
	<path fill="#1D1D1B" d="M197,278.8c-0.9,1-1.3,1.5-2.2,2.4c-1-1-2-1.5-2.9-1.4c-0.4,0.1-0.8,0.2-1,0.5c-0.2,0.3-0.3,0.5-0.3,0.8
		c0,0.3,0.2,0.5,0.4,0.8c0.3,0.3,1.2,0.9,2.8,1.8c1.4,0.8,2.3,1.4,2.6,1.6c0.8,0.6,1.3,1.1,1.7,1.7s0.6,1.2,0.7,1.9
		c0.2,1.4-0.1,2.6-1,3.6c-0.8,1-2,1.7-3.6,1.9c-1.2,0.2-2.3,0.1-3.3-0.4c-1-0.5-1.9-1.3-2.8-2.4c1-0.8,1.5-1.2,2.5-2
		c1.1,1.4,2.1,2,3.2,1.8c0.6-0.1,1-0.3,1.3-0.7c0.3-0.4,0.5-0.8,0.4-1.2c-0.1-0.4-0.3-0.7-0.6-1.1c-0.4-0.3-1.1-0.8-2.2-1.5
		c-2.1-1.2-3.5-2.2-4.2-2.9c-0.7-0.7-1.1-1.5-1.2-2.3c-0.2-1.2,0.1-2.2,0.9-3.2c0.8-1,1.9-1.6,3.2-1.8c0.9-0.1,1.7-0.1,2.6,0.2
		C195,277.3,195.9,277.9,197,278.8"/>
	<path fill="#1D1D1B" d="M203.3,275.6c3.9-0.5,5.8-0.7,9.7-1.2c0.2,1.3,0.2,1.9,0.4,3.2c-1.3,0.1-1.9,0.2-3.2,0.4
		c0.7,5.5,1,8.2,1.7,13.7c-1.3,0.2-2,0.2-3.3,0.4c-0.7-5.5-1-8.2-1.7-13.7c-1.2,0.2-1.9,0.2-3.1,0.4
		C203.6,277.5,203.5,276.9,203.3,275.6"/>
	<path fill="#1D1D1B" d="M224.5,279.8c0.4,0,0.6-0.1,1-0.1c1.1-0.1,1.8-0.3,2.1-0.6c0.4-0.3,0.5-0.8,0.5-1.4c0-0.4-0.2-0.7-0.4-0.9
		c-0.2-0.2-0.5-0.4-0.8-0.5s-1-0.1-1.9,0c-0.4,0-0.5,0.1-0.9,0.1C224.3,277.7,224.4,278.4,224.5,279.8 M220.5,273.6
		c1.4-0.2,2.1-0.2,3.5-0.4c1.9-0.2,3.4-0.2,4.2,0.1c0.9,0.3,1.6,0.7,2.2,1.5c0.6,0.7,0.9,1.6,1,2.7c0.1,1.1-0.1,2.1-0.6,2.9
		s-1.3,1.4-2.3,1.9c1.9,2.8,2.9,4.3,4.8,7.1c-1.4,0.1-2.2,0.2-3.6,0.3c-1.8-2.7-2.7-4.1-4.6-6.8c-0.1,0-0.2,0-0.3,0
		c0.3,2.9,0.4,4.3,0.7,7.1c-1.3,0.1-2,0.2-3.3,0.3C221.6,283.7,221.2,280.3,220.5,273.6"/>
	<path fill="#1D1D1B" d="M239.5,271.8c3.9-0.3,5.8-0.4,9.6-0.7c0.1,1.3,0.1,1.9,0.2,3.2c-2.5,0.2-3.8,0.2-6.3,0.4
		c0.1,1.2,0.1,1.8,0.2,3.1c2.5-0.2,3.7-0.3,6.3-0.4c0.1,1.2,0.1,1.9,0.2,3.1c-2.5,0.2-3.7,0.2-6.2,0.4c0.1,1.8,0.2,2.7,0.3,4.5
		c2.5-0.2,3.7-0.3,6.2-0.4c0.1,1.3,0.1,1.9,0.2,3.2c-3.8,0.2-5.7,0.4-9.4,0.7C240.3,282,240,278.6,239.5,271.8"/>
	<path fill="#1D1D1B" d="M257.2,270.6c1.3-0.1,1.9-0.1,3.2-0.2c3.3,4.3,4.9,6.5,8,10.8c-0.2-4.5-0.3-6.7-0.4-11.2
		c1.4,0,2-0.1,3.4-0.1c0.2,6.8,0.3,10.2,0.6,17c-1.3,0-1.9,0.1-3.2,0.1c-3.1-4.3-4.7-6.5-7.9-10.8c0.2,4.5,0.3,6.7,0.5,11.1
		c-1.3,0.1-2,0.1-3.3,0.2C257.7,280.8,257.6,277.4,257.2,270.6"/>
	<path fill="#1D1D1B" d="M296.7,272.4c-0.9,0.9-1.4,1.3-2.4,2.3c-1.5-1.5-3.3-2.3-5.2-2.3c-1.7,0-3.2,0.6-4.3,1.7s-1.7,2.5-1.7,4.1
		c0,1.6,0.6,3,1.9,4.1c1.2,1.1,2.7,1.7,4.5,1.7c1.1,0,2.1-0.3,2.9-0.7c0.8-0.5,1.4-1.2,1.9-2.2c-2,0-3,0-5,0c0-1.2,0-1.8,0-3
		c3.5,0,5.3,0,8.8,0c0,0.3,0,0.4,0,0.7c0,1.5-0.4,2.9-1.2,4.2c-0.8,1.3-1.8,2.3-3.1,3c-1.2,0.7-2.7,1.1-4.4,1.1
		c-1.8,0-3.4-0.3-4.8-1.1c-1.4-0.7-2.6-1.8-3.4-3.2s-1.3-2.9-1.3-4.6c0-2.2,0.7-4.2,2.2-5.9c1.8-2,4.2-3,7.1-3.1
		c1.5,0,3,0.3,4.3,0.8C294.5,270.4,295.6,271.2,296.7,272.4"/>
	<path fill="#1D1D1B" d="M304.2,269.6c3.9,0.1,5.9,0.1,9.8,0.2c0,1.3,0,1.9-0.1,3.2c-1.3,0-1.9-0.1-3.2-0.1
		c-0.1,5.5-0.2,8.3-0.3,13.8c-1.3,0-2,0-3.3-0.1c0.1-5.5,0.1-8.3,0.2-13.8c-1.3,0-1.9,0-3.1,0C304.2,271.6,304.2,270.9,304.2,269.6"
		/>
	<path fill="#1D1D1B" d="M321.3,270.1c1.4,0.1,2,0.1,3.4,0.1c-0.1,2.6-0.2,3.8-0.3,6.4c2.3,0.1,3.5,0.1,5.8,0.3
		c0.1-2.6,0.2-3.8,0.3-6.4c1.4,0.1,2,0.1,3.4,0.2c-0.4,6.8-0.6,10.2-0.9,17c-1.3-0.1-2-0.1-3.3-0.2c0.1-3,0.2-4.5,0.4-7.4
		c-2.3-0.1-3.5-0.2-5.8-0.3c-0.1,3-0.2,4.5-0.3,7.4c-1.3-0.1-2-0.1-3.3-0.1C320.9,280.2,321,276.8,321.3,270.1"/>
	<path fill="#1D1D1B" d="M369.6,276.6c-0.5,4.3-0.7,6.4-1.1,10.7c0.6,0.1,0.9,0.1,1.5,0.2c1.5,0.2,2.6,0.1,3.3-0.1
		c0.7-0.3,1.3-0.8,1.8-1.5c0.5-0.7,0.9-1.7,1-2.9c0.2-1.8-0.2-3.2-1.1-4.4c-0.8-1-2.3-1.6-4.4-1.8
		C370.2,276.7,370,276.7,369.6,276.6 M366.6,273.2c1.6,0.2,2.4,0.2,4,0.4c2.6,0.3,4.4,0.8,5.6,1.5c1.2,0.8,2.1,1.9,2.7,3.3
		c0.6,1.5,0.9,3.1,0.6,4.9c-0.2,1.3-0.5,2.5-1.1,3.5c-0.6,1-1.3,1.9-2.2,2.5c-0.9,0.6-1.8,1-2.7,1.2c-0.9,0.2-2.5,0.1-4.7-0.1
		c-1.6-0.2-2.4-0.2-3.9-0.4C365.5,283.3,365.9,279.9,366.6,273.2"/>
	<path fill="#1D1D1B" d="M388.5,275.7c1.3,0.2,2,0.3,3.4,0.5c-0.6,4.3-0.9,6.5-1.5,10.9c-0.1,0.9-0.1,1.6,0,2c0.1,0.4,0.3,0.8,0.7,1
		c0.4,0.3,0.8,0.5,1.4,0.5c0.6,0.1,1.1,0,1.6-0.2c0.5-0.2,0.8-0.5,1-0.9c0.2-0.4,0.4-1.1,0.6-2.2c0.6-4.2,0.9-6.3,1.5-10.5
		c1.3,0.2,2,0.3,3.4,0.5c-0.6,4-0.9,6-1.5,10c-0.3,1.7-0.5,2.8-0.8,3.5c-0.3,0.6-0.8,1.2-1.4,1.7c-0.6,0.5-1.3,0.9-2.1,1.1
		c-0.7,0.2-1.6,0.2-2.6,0.1c-1.2-0.2-2.3-0.6-3.1-1.3c-0.8-0.7-1.4-1.5-1.7-2.4s-0.3-2.3,0-4.3C387.7,281.8,388,279.7,388.5,275.7"
		/>
	<path fill="#1D1D1B" d="M411.6,285.9c0.4,0.1,0.6,0.1,1,0.2c1.1,0.2,1.8,0.2,2.2,0c0.4-0.2,0.7-0.6,0.8-1.2c0.1-0.4,0-0.7-0.1-1
		c-0.2-0.3-0.4-0.5-0.7-0.7s-0.9-0.3-1.8-0.5c-0.4-0.1-0.5-0.1-0.9-0.2C412,283.9,411.9,284.5,411.6,285.9 M409.4,278.8
		c1.4,0.2,2.1,0.3,3.5,0.6c1.9,0.3,3.3,0.7,4.1,1.2c0.8,0.5,1.3,1.1,1.7,2s0.4,1.8,0.3,2.8c-0.2,1.1-0.6,2-1.3,2.6
		c-0.7,0.6-1.6,1.1-2.8,1.2c1.1,3.3,1.7,4.9,2.7,8.1c-1.4-0.3-2.1-0.4-3.5-0.6c-1-3.1-1.6-4.6-2.6-7.7c-0.1,0-0.2,0-0.3,0
		c-0.5,2.8-0.7,4.2-1.2,7.1c-1.3-0.2-2-0.3-3.3-0.5C407.8,288.9,408.3,285.5,409.4,278.8"/>
	<path fill="#1D1D1B" d="M434.3,287.9c-1.4,2.1-2.1,3.1-3.5,5.3c1.8,0.4,2.8,0.5,4.6,0.9C435,291.6,434.8,290.4,434.3,287.9
		 M433.5,283.2c1.3,0.3,2,0.4,3.4,0.7c1.3,7.2,1.9,10.8,3.1,18c-1.3-0.3-2-0.4-3.4-0.7c-0.2-1.5-0.4-2.2-0.6-3.7
		c-2.8-0.6-4.2-0.9-7-1.4c-0.8,1.3-1.2,1.9-2.1,3.2c-1.4-0.3-2-0.4-3.4-0.6C427.5,292.4,429.5,289.3,433.5,283.2"/>
	<path fill="#1D1D1B" d="M452.1,296.9c-0.4,1.7-0.6,2.5-1,4.2c0.3,0.1,0.5,0.1,0.8,0.2c1.3,0.3,2.3,0.4,2.8,0.1
		c0.5-0.2,0.9-0.6,1-1.3c0.2-0.7,0-1.3-0.4-1.9c-0.4-0.5-1.3-1-2.6-1.3C452.5,297,452.4,297,452.1,296.9 M453.6,290.6
		c-0.3,1.4-0.5,2.1-0.8,3.5c0.3,0.1,0.4,0.1,0.7,0.2c0.8,0.2,1.4,0.2,1.9-0.1c0.5-0.2,0.8-0.6,0.9-1.2c0.1-0.5,0-1-0.3-1.4
		c-0.3-0.4-0.8-0.7-1.6-0.8C454.1,290.8,454,290.7,453.6,290.6 M447.2,303.4c1.5-6.6,2.2-9.9,3.8-16.5c1.1,0.2,1.6,0.4,2.7,0.6
		c1.6,0.4,2.7,0.7,3.4,1.1c1,0.5,1.7,1.2,2.1,2c0.4,0.9,0.5,1.8,0.3,2.7c-0.2,0.6-0.4,1.2-0.8,1.6c-0.4,0.5-1.7,1.1-1.7,1.1
		c0,0.2,1.5,1.5,1.9,2.3c0.3,0.8,0.4,1.7,0.1,2.7c-0.2,0.9-0.7,1.7-1.4,2.4c-0.7,0.6-1.5,1.1-2.3,1.3c-0.9,0.2-2,0.1-3.4-0.2
		C450.1,304.1,449.1,303.9,447.2,303.4"/>
	<path fill="#1D1D1B" d="M469.6,291.3c1.3,0.3,2,0.5,3.3,0.8c-1.7,6.6-2.6,9.9-4.3,16.4c-1.3-0.3-1.9-0.5-3.2-0.8
		C467.1,301.2,467.9,297.9,469.6,291.3"/>
	<path fill="#1D1D1B" d="M481.4,294.4c1.3,0.4,2,0.5,3.3,0.9c-1.5,5.3-2.2,8-3.7,13.4c1.9,0.5,2.8,0.8,4.7,1.3
		c-0.3,1.2-0.5,1.8-0.8,3c-3.1-0.9-4.7-1.3-7.9-2.2C478.7,304.2,479.6,301,481.4,294.4"/>
	<path fill="#1D1D1B" d="M496.4,298.7c1.3,0.4,2,0.6,3.2,1c-2,6.5-3,9.7-4.9,16.2c-1.3-0.4-1.9-0.6-3.2-0.9
		C493.5,308.5,494.5,305.2,496.4,298.7"/>
	<path fill="#1D1D1B" d="M506.4,301.7c3.8,1.2,5.7,1.8,9.4,3c-0.4,1.2-0.6,1.8-1,3c-1.2-0.4-1.9-0.6-3.1-1
		c-1.7,5.2-2.5,7.9-4.2,13.1c-1.3-0.4-1.9-0.6-3.2-1c1.7-5.3,2.5-7.9,4.2-13.1c-1.2-0.4-1.8-0.6-3-0.9
		C505.9,303.6,506,302.9,506.4,301.7"/>
	<path fill="#1D1D1B" d="M521.6,306.7c1.4,0.5,2.1,0.7,3.5,1.2c0.5,2.7,0.7,4.1,1.1,6.9c2.1-1.9,3.1-2.8,5.2-4.7
		c1.4,0.5,2,0.7,3.4,1.2c-3.3,2.9-4.9,4.4-8.2,7.3c-1,2.8-1.5,4.2-2.4,6.9c-1.3-0.4-1.9-0.7-3.2-1.1c1-2.8,1.4-4.2,2.4-6.9
		C522.7,313.1,522.4,311,521.6,306.7"/>
	<path fill="#1D1D1B" d="M175.6,289c0,2.1-1.7,3.8-3.8,3.8c-2.1,0-3.8-1.7-3.8-3.8c0-2.1,1.7-3.8,3.8-3.8
		C173.9,285.3,175.6,287,175.6,289"/>
	<path fill="#1D1D1B" d="M353.6,279.4c0,2.1-1.7,3.8-3.8,3.8c-2.1,0-3.8-1.7-3.8-3.8s1.7-3.8,3.8-3.8
		C351.9,275.7,353.6,277.4,353.6,279.4"/>
</g>
</svg>
