<?xml version="1.0" encoding="utf-8"?>
<!-- Generator: Adobe Illustrator 18.0.0, SVG Export Plug-In . SVG Version: 6.00 Build 0)  -->
<!DOCTYPE svg PUBLIC "-//W3C//DTD SVG 1.1//EN" "http://www.w3.org/Graphics/SVG/1.1/DTD/svg11.dtd">
<svg version="1.1" id="Calque_1" xmlns="http://www.w3.org/2000/svg" xmlns:xlink="http://www.w3.org/1999/xlink" x="0px" y="0px"
	 viewBox="0 0 841.9 595.3" enable-background="new 0 0 841.9 595.3" xml:space="preserve">
<polygon fill="#003552" points="528.5,305.6 551.7,322.4 564.2,322.4 564.2,353.5 592.7,353.5 577.5,329.6 592.7,305.6 "/>
<polygon fill="#003552" points="246.1,305.6 261.3,329.6 246.1,353.5 272.1,353.5 272.1,322.4 287.2,322.4 308.1,305.6 "/>
<g>
	<path fill="#003552" d="M538.6,340.5h-2.2v14.5h2.2c0.6,0,1.1-0.1,1.6-0.5c0.4-0.4,0.6-0.8,0.6-1.2v-11c0-0.5-0.2-0.9-0.6-1.2
		C539.7,340.6,539.2,340.5,538.6,340.5"/>
	<path fill="#003552" d="M300.1,340.5H298v8.9h2.2c0.6,0,1.1-0.1,1.6-0.5c0.4-0.4,0.6-0.8,0.6-1.2v-5.4c0-0.5-0.2-0.9-0.6-1.2
		C301.3,340.6,300.8,340.5,300.1,340.5"/>
	<path fill="#003552" d="M546.1,353.3c0,0.8-0.2,1.6-0.6,2.3c-0.4,0.7-0.9,1.3-1.6,1.9c-0.7,0.6-1.5,1-2.4,1.3
		c-0.9,0.3-1.9,0.4-3,0.4H532c-0.2,0-0.4,0-0.6-0.1c-0.2-0.1-0.4-0.2-0.4-0.6V337c0-0.5,0.3-0.8,1-0.8h6.6c1.1,0,2.1,0.1,3,0.4
		c0.9,0.3,1.7,0.7,2.4,1.2c0.7,0.5,1.2,1.1,1.6,1.9c0.4,0.7,0.6,1.6,0.6,2.5V353.3z M510.6,358.5c0,0.4-0.3,0.6-0.8,0.7h-13.4
		c-0.6,0-0.8-0.2-0.8-0.7v-21.6c0-0.2,0.1-0.4,0.2-0.5c0.1-0.1,0.4-0.2,0.6-0.2h3.6c0.5,0,0.8,0.2,0.8,0.7v18.1h8.9
		c0.2,0,0.4,0.1,0.6,0.2c0.2,0.1,0.3,0.3,0.3,0.5L510.6,358.5L510.6,358.5z M475.4,339.7c0,0.2-0.1,0.4-0.3,0.5
		c-0.1,0.1-0.4,0.2-0.6,0.2h-8.8v5.2h7.7c0.6,0,0.8,0.2,0.8,0.7v2.8c0,0.2-0.1,0.4-0.2,0.5s-0.4,0.2-0.7,0.2h-7.7v5.2h8.8
		c0.3,0,0.5,0.1,0.6,0.2c0.1,0.1,0.3,0.3,0.3,0.6v2.8c0,0.4-0.3,0.6-0.8,0.6H461c-0.2,0-0.4-0.1-0.6-0.1c-0.1-0.1-0.3-0.3-0.3-0.5
		v-21.6c0-0.5,0.3-0.8,0.8-0.8h13.4c0.3,0,0.5,0.1,0.6,0.2c0.1,0.1,0.2,0.4,0.2,0.6v2.7L475.4,339.7L475.4,339.7z M440.1,358.5
		c0,0.4-0.4,0.7-0.9,0.7h-3.5c-0.6,0-0.8-0.2-0.8-0.7v-21.6c0-0.2,0.1-0.4,0.2-0.5c0.1-0.1,0.4-0.2,0.6-0.2h3.5
		c0.2,0,0.4,0.1,0.6,0.2c0.2,0.1,0.4,0.3,0.4,0.5L440.1,358.5L440.1,358.5z M414.1,339.7c0,0.2-0.1,0.4-0.2,0.5
		c-0.1,0.1-0.4,0.2-0.7,0.2h-8.8v5.2h7.7c0.3,0,0.5,0.1,0.6,0.1c0.1,0.1,0.3,0.3,0.3,0.6v2.8c0,0.2-0.1,0.4-0.2,0.5
		c-0.1,0.1-0.4,0.2-0.7,0.2h-7.7v8.7c0,0.2-0.1,0.4-0.2,0.4c-0.1,0.1-0.4,0.2-0.6,0.2h-3.7c-0.2,0-0.4-0.1-0.6-0.1
		c-0.1-0.1-0.2-0.3-0.2-0.5V337c0-0.5,0.3-0.7,0.9-0.8h13.3c0.6,0,0.9,0.3,0.9,0.8L414.1,339.7L414.1,339.7z M378.9,358.5
		c0,0.4-0.4,0.7-1,0.7h-3.5c-0.4,0-0.6-0.1-0.6-0.2c-0.1-0.1-0.2-0.3-0.4-0.6l-4.2-9.7v9.8c0,0.4-0.3,0.7-0.9,0.7h-3.5
		c-0.6,0-0.8-0.2-0.8-0.7v-21.6c0-0.2,0.1-0.4,0.2-0.5c0.1-0.1,0.4-0.2,0.6-0.2h3.5c0.1,0,0.3,0.1,0.5,0.1s0.4,0.2,0.4,0.4v0.1
		l4.5,10v-9.9c0-0.2,0.1-0.4,0.2-0.5s0.4-0.2,0.6-0.2h3.5c0.2,0,0.4,0.1,0.6,0.2c0.2,0.1,0.4,0.3,0.4,0.5L378.9,358.5L378.9,358.5z
		 M343.5,339.7c0,0.2-0.1,0.4-0.3,0.5c-0.2,0.1-0.4,0.2-0.6,0.2h-8.8v5.2h7.7c0.6,0,0.8,0.2,0.8,0.7v2.8c0,0.2-0.1,0.4-0.2,0.5
		c-0.1,0.1-0.4,0.2-0.6,0.2h-7.7v5.2h8.8c0.3,0,0.5,0.1,0.6,0.2c0.1,0.1,0.3,0.3,0.3,0.6v2.8c0,0.4-0.3,0.6-0.8,0.6h-13.4
		c-0.2,0-0.4-0.1-0.6-0.1s-0.3-0.3-0.3-0.5v-21.6c0-0.5,0.3-0.8,0.8-0.8h13.4c0.3,0,0.5,0.1,0.6,0.2c0.1,0.1,0.2,0.4,0.2,0.6
		L343.5,339.7L343.5,339.7z M307.7,347.6c0,0.8-0.2,1.6-0.6,2.3c-0.4,0.7-0.9,1.3-1.6,1.9c-0.7,0.6-1.5,1-2.4,1.3
		c-0.9,0.3-1.9,0.5-3,0.5H298v4.8c0,0.1-0.1,0.4-0.3,0.5c-0.1,0.1-0.4,0.3-0.7,0.3h-3.6c-0.2,0-0.4-0.1-0.6-0.2
		c-0.1-0.1-0.3-0.4-0.3-0.6v-21.5c0-0.2,0.1-0.4,0.3-0.4c0.1-0.1,0.4-0.2,0.6-0.2h6.7c1.1,0,2,0.1,3,0.4c0.9,0.3,1.7,0.7,2.4,1.2
		c0.7,0.5,1.2,1.1,1.6,1.8c0.4,0.7,0.6,1.6,0.6,2.5V347.6z M277,369.7h282.3v-42.4H277V369.7z"/>
</g>
<polygon fill="#003552" points="289.2,381.9 284.8,391.8 280.4,381.9 278.9,381.9 278.9,393.6 280.3,393.6 280.3,385.4 284,393.6 
	285.6,393.6 289.2,385.4 289.2,393.6 290.7,393.6 290.7,381.9 "/>
<path fill="#003552" d="M304.5,383.4l2.4,6.6h-4.8L304.5,383.4z M303.5,381.9l-4.3,11.7h1.6l0.8-2.2h5.9l0.8,2.2h1.6l-4.3-11.7
	H303.5z"/>
<polygon fill="#003552" points="325.7,381.9 325.7,390.9 319.9,381.9 318.4,381.9 318.4,393.6 319.9,393.6 319.9,384.6 325.7,393.6 
	327.2,393.6 327.2,381.9 "/>
<g>
	<path fill="#003552" d="M346.8,389c0,1.3-0.5,2.4-1.4,3.4c-0.9,0.9-2.1,1.4-3.4,1.4c-1.3,0-2.4-0.4-3.4-1.4
		c-0.9-0.9-1.4-2.1-1.4-3.4v-7.1h1.5v7.1c0,0.9,0.4,1.7,1,2.3c0.6,0.6,1.4,1,2.3,1s1.7-0.4,2.3-1s1-1.4,1-2.3v-7.1h1.5V389z"/>
</g>
<polygon fill="#003552" points="356.8,381.9 356.8,393.6 358.3,393.6 358.3,388.3 362.7,388.3 362.7,386.9 358.3,386.9 358.3,383.4 
	364.2,383.4 364.2,381.9 "/>
<path fill="#003552" d="M377.3,383.4l2.4,6.6h-4.8L377.3,383.4z M376.3,381.9l-4.3,11.7h1.6l0.8-2.2h5.9l0.8,2.2h1.6l-4.3-11.7
	H376.3z"/>
<g>
	<path fill="#003552" d="M400.3,385.3c-0.4-0.6-1-1.1-1.7-1.6c-0.7-0.4-1.4-0.6-2.2-0.6c-1.3,0-2.3,0.4-3.3,1.3
		c-0.9,0.9-1.3,2-1.3,3.2c0,1.3,0.4,2.3,1.3,3.3c0.9,0.9,2,1.3,3.3,1.3c0.8,0,1.5-0.2,2.2-0.6c0.7-0.4,1.3-0.8,1.7-1.6l1.2,0.8
		c-0.3,0.4-0.6,0.8-1,1.1c-0.4,0.4-0.8,0.6-1.2,0.8c-0.9,0.5-1.8,0.7-2.9,0.7c-1.7,0-3.1-0.6-4.2-1.8c-1.2-1.2-1.8-2.6-1.8-4.2
		s0.6-3,1.8-4.2s2.6-1.8,4.2-1.8c1,0,2,0.2,2.9,0.8c0.9,0.5,1.6,1.2,2.2,2.1L400.3,385.3z"/>
</g>
<polygon fill="#003552" points="409.7,381.9 409.7,383.4 413.3,383.4 413.3,393.6 414.8,393.6 414.8,383.4 418.5,383.4 418.5,381.9 
	"/>
<g>
	<path fill="#003552" d="M437,389c0,1.3-0.5,2.4-1.4,3.4c-0.9,0.9-2.1,1.4-3.4,1.4c-1.3,0-2.4-0.4-3.4-1.4c-0.9-0.9-1.4-2.1-1.4-3.4
		v-7.1h1.5v7.1c0,0.9,0.4,1.7,1,2.3c0.6,0.6,1.4,1,2.3,1c0.9,0,1.7-0.4,2.3-1s1-1.4,1-2.3v-7.1h1.5V389z"/>
	<path fill="#003552" d="M455.1,385.2c0-0.5-0.1-0.9-0.6-1.3c-0.4-0.4-0.8-0.6-1.3-0.6h-4.8v3.7h4.8c0.5,0,0.9-0.2,1.3-0.6
		C454.9,386.1,455.1,385.7,455.1,385.2 M454.9,393.6l-3-5.2h-3.5v5.2H447v-11.7h6.2c0.9,0,1.7,0.4,2.3,1s1,1.4,1,2.3
		c0,0.8-0.3,1.6-0.8,2.2c-0.6,0.6-1.3,1-2.1,1.1l3,5.2H454.9z"/>
</g>
<rect x="465.9" y="381.9" fill="#003552" width="1.5" height="11.7"/>
<polygon fill="#003552" points="484.8,381.9 484.8,390.9 478.8,381.9 477.3,381.9 477.3,393.6 478.8,393.6 478.8,384.6 484.8,393.6 
	486.2,393.6 486.2,381.9 "/>
<g>
	<path fill="#003552" d="M505.3,385.3c-0.4-0.6-1-1.1-1.7-1.6c-0.7-0.4-1.4-0.6-2.2-0.6c-1.3,0-2.3,0.4-3.3,1.3
		c-0.9,0.9-1.3,2-1.3,3.2c0,1.3,0.4,2.3,1.3,3.3c0.9,0.9,2,1.3,3.3,1.3c1.5,0,2.7-0.6,3.6-1.8v-2.1h-3.6V387h5.1v6.6h-1.5v-1.3
		c-0.8,1-2.1,1.5-3.6,1.5c-1.6,0-3.1-0.6-4.2-1.8c-1.2-1.2-1.8-2.6-1.8-4.2s0.6-3,1.8-4.2c1.2-1.2,2.6-1.8,4.2-1.8
		c1,0,2,0.2,2.9,0.8c0.9,0.5,1.6,1.2,2.2,2.1L505.3,385.3z"/>
	<path fill="#003552" d="M538,385.3c-0.4-0.6-1-1.1-1.7-1.6c-0.7-0.4-1.4-0.6-2.2-0.6c-1.3,0-2.3,0.4-3.3,1.3
		c-0.9,0.9-1.3,2-1.3,3.2c0,1.3,0.4,2.3,1.3,3.3c0.9,0.9,2,1.3,3.3,1.3c0.8,0,1.5-0.2,2.2-0.6c0.7-0.4,1.3-0.8,1.7-1.6l1.2,0.8
		c-0.3,0.4-0.6,0.8-1,1.1c-0.4,0.4-0.8,0.6-1.2,0.8c-0.9,0.5-1.8,0.7-2.9,0.7c-1.6,0-3.1-0.6-4.2-1.8c-1.2-1.2-1.8-2.6-1.8-4.2
		s0.6-3,1.8-4.2c1.2-1.2,2.6-1.8,4.2-1.8c1,0,2,0.2,2.9,0.8c0.9,0.5,1.6,1.2,2.2,2.1L538,385.3z"/>
	<path fill="#003552" d="M558.4,387.8c0-1.2-0.4-2.3-1.3-3.2c-0.9-0.9-2-1.3-3.3-1.3c-1.3,0-2.3,0.4-3.3,1.3c-0.9,0.9-1.3,2-1.3,3.2
		c0,1.3,0.4,2.3,1.3,3.3c0.9,0.9,2,1.3,3.3,1.3c1.3,0,2.3-0.4,3.3-1.3C557.9,390.1,558.4,389,558.4,387.8 M559.8,387.8
		c0,1.6-0.6,3-1.8,4.2s-2.6,1.8-4.2,1.8c-1.6,0-3.1-0.6-4.2-1.8c-1.2-1.2-1.8-2.6-1.8-4.2s0.6-3,1.8-4.2c1.2-1.2,2.6-1.8,4.2-1.8
		c1.6,0,3,0.6,4.2,1.8C559.2,384.7,559.8,386.1,559.8,387.8"/>
	<path fill="#003552" d="M268.9,283.4c0,0.8-0.3,1.6-0.9,2.1c-0.6,0.6-1.3,0.8-2.2,0.8c-0.7,0-1.3-0.2-1.9-0.7
		c-0.6-0.4-0.9-1.1-1.1-1.8l1.3-0.4c0.1,0.4,0.3,0.8,0.6,1.1c0.3,0.3,0.6,0.4,1.1,0.4c0.4,0,0.8-0.1,1.2-0.5
		c0.4-0.4,0.5-0.7,0.5-1.2c0-0.7-0.4-1.3-1.2-1.6c-0.4-0.1-0.8-0.4-1.1-0.5c-0.4-0.1-0.8-0.4-1.1-0.5c-0.8-0.6-1.2-1.3-1.2-2.5
		c0-0.8,0.3-1.6,0.9-2.1c0.6-0.6,1.3-0.8,2.2-0.8c0.7,0,1.3,0.2,1.9,0.7c0.6,0.4,0.9,1.1,1.1,1.8l-1.3,0.4c-0.1-0.4-0.2-0.8-0.5-1.1
		c-0.3-0.3-0.6-0.4-1.1-0.4c-0.4,0-0.8,0.1-1.2,0.5c-0.4,0.4-0.5,0.7-0.5,1.2c0,0.7,0.4,1.3,1.2,1.6l2.3,1
		C268.5,281.6,268.9,282.3,268.9,283.4"/>
</g>
<rect x="274.8" y="275.5" fill="#003552" width="1.3" height="10.9"/>
<polygon fill="#003552" points="289,286.4 283.5,277.9 283.5,286.4 282.2,286.4 282.2,275.5 283.5,275.5 289,283.8 289,275.5 
	290.4,275.5 290.4,286.4 "/>
<g>
	<path fill="#003552" d="M304.8,278.7c-0.4-0.6-0.9-1.1-1.6-1.4s-1.3-0.5-2-0.5c-1.1,0-2.1,0.4-3,1.3s-1.3,1.8-1.3,3
		c0,1.1,0.4,2.1,1.3,3c0.8,0.8,1.8,1.3,3,1.3c0.7,0,1.3-0.1,2-0.5c0.6-0.4,1.1-0.8,1.6-1.4l1.1,0.8c-0.3,0.4-0.6,0.7-0.9,1.1
		c-0.4,0.3-0.7,0.6-1.1,0.8c-0.8,0.4-1.7,0.6-2.7,0.6c-1.6,0-2.8-0.6-4-1.6c-1.1-1.1-1.6-2.4-1.6-4c0-1.5,0.6-2.8,1.6-3.9
		c1.1-1.1,2.4-1.6,4-1.6c0.9,0,1.8,0.2,2.7,0.7c0.8,0.5,1.5,1.1,2.1,1.9L304.8,278.7z"/>
</g>
<polygon fill="#003552" points="311.3,286.4 311.3,275.5 318.1,275.5 318.1,276.8 312.7,276.8 312.7,280.1 316.8,280.1 316.8,281.4 
	312.7,281.4 312.7,284.9 318.1,284.9 318.1,286.4 "/>
<rect x="525.3" y="275.5" fill="#003552" width="1.3" height="10.9"/>
<g>
	<path fill="#003552" d="M537.4,278.7c0-0.6-0.2-1.1-0.6-1.4c-0.4-0.4-0.8-0.6-1.4-0.6c-0.6,0-1.1,0.2-1.5,0.6
		c-0.4,0.4-0.6,0.8-0.6,1.4c0,0.6,0.2,1.1,0.6,1.4c0.4,0.4,0.9,0.6,1.5,0.6c0.6,0,1.1-0.2,1.4-0.6
		C537.2,279.8,537.4,279.3,537.4,278.7 M538.8,278.7c0,0.3-0.1,0.6-0.1,0.9l-1.8,6.7h-1.4l1.3-4.7c-0.5,0.3-1,0.5-1.5,0.5
		c-0.8,0-1.6-0.4-2.3-1c-0.6-0.6-1-1.5-1-2.3c0-0.9,0.4-1.8,1-2.4c0.7-0.6,1.5-1,2.4-1s1.8,0.4,2.4,1
		C538.5,277,538.8,277.8,538.8,278.7"/>
</g>
<polygon fill="#003552" points="545.8,286.4 544.3,286.4 548.7,276.8 544.1,276.8 544.1,275.5 550.9,275.5 "/>
<g>
	<path fill="#003552" d="M562.3,282.8c0,1-0.4,1.8-1,2.5c-0.6,0.7-1.5,1.1-2.5,1.1c-0.8,0-1.5-0.2-2.1-0.6c-0.6-0.5-1-1.1-1.2-1.8
		l1.3-0.4c0.1,0.4,0.4,0.8,0.7,1.1c0.4,0.3,0.8,0.4,1.3,0.4c0.6,0,1.1-0.2,1.5-0.7c0.4-0.4,0.6-1,0.6-1.6c0-0.6-0.2-1.1-0.6-1.6
		c-0.4-0.5-0.8-0.7-1.5-0.7c-0.5,0-0.9,0.1-1.3,0.4c-0.4,0.3-0.6,0.6-0.7,1.1l-1.3-0.4l0.5-6.2h5.6v1.3h-4.3l-0.3,3.1
		c0.6-0.6,1.3-0.8,2.1-0.8c0.9,0,1.7,0.4,2.3,1.1C562,281.1,562.3,281.8,562.3,282.8"/>
	<path fill="#003552" d="M494.8,311.1c-2.8-2.3-5.6-4.7-8.3-7c-2.5-2.1-8.2-8.9-11.2-8.6c-0.2,0-0.4,0.1-0.6,0.1
		c-3.3,0.9-5.7,5.9-9.7,4.2c-3.5-1.4-5.7-6.2-8.3-9.1c-4.5-4.9-8.9-10-13.4-14.9c-3.7-4.2-7.5-8.4-11.3-12.7c-1.9-2.2-4-5.3-6.7-5.9
		c-1.5-0.4-2.8,0.2-4.2,0.8c-2.5,1.2-4.4,1.8-6.5,3.6c-2.1,1.8-4.9,0.9-7.4,1.1c-2.2,0.1-4.3,0.4-6.5,0.6c-1.8,0.1-1.4-0.4-2.8,1.3
		c-1.7,2.1-3.7,4.1-5.2,6.5c-1.6,2.5-4.4,5.6-7.2,6.5c-2.5,0.8-5.9,0.5-8.5,0.5c-0.4,0-0.8,0-1.2,0.1c-1.2,2.1-4.9,0.9-5.3,3.6
		c-0.6,4.2,3.2,5.1,3.8,8.4c-0.8-0.9-2.4-2.8-3.5-3.3c-1.2-0.5-2.5,0.6-3.7,0.6c-2.4,0-4.5-2.5-6.6-2.5c-0.6,0-3.3,1.4-3.7,1.9
		c-2.8,2.8,1,5.3,2.3,7.1c2.4,3.2,5.2,3.6,7.8,5.9c2.5,2.2,2.7,6.2,5.9,7.6c1.8,0.8,4.7,2.2,6.6,2.1c-1.7,1.3-5.3-0.3-7.1-0.6
		c-2.9-0.5-5.7-6.7-8.3-6c-0.4,0.1-0.8,0.2-1.1,0.4c-1.7,0.6-1.6,0.6-3.5-1.6c-1.7-1.8-3.6-2.9-5.7-3.8c-3.3-1.4-4.7-3-7.9-0.8l0,0
		c-1.3,0.9-2.5,1.8-3.5,3c-0.8,1-1.4,2-2.8,2c-1.1,0-2.1-0.4-3.1-0.5c-7.4,3.4-26.6,12.1-26.5,12.1c2.4-1.4,4.7-2.8,6.9-4.1
		c-0.6,0.3-1.1,0.4-1.1,0.4c1.6-0.8,3-1.6,4.5-2.5c0.3-0.2,0.6-0.4,0.8-0.6c1.4-0.9,2.8-1.9,4.1-2.9c0.9-0.7,1.9-1.3,2.8-1.7
		c8.3-5.7,13.9-10.7,16.8-14.4c3.9-5,4-11.3,9.1-15.4c1.3-1.1,2.9-1.5,4.2-2.5c1.3-1.1,2.5-3.1,3.8-4.5c1.5-1.6,3-3.3,4.7-4.5
		c2-1.4,2.7-1,4.9-0.6c3.5,0.6,6.2,0.4,8.6-3c2.2-3,3.7-7.4,7.5-7.9c3.4-0.5,6.6,3,9.9,3c5.9-0.1,11.4-6.9,15.3-11.5
		c4.4-5.2,8.8-10.7,12-17c0.2-0.4,0.6-0.6,0.8-0.8c0.8,1.5,1.6,3,2.5,4.6c2,3.7,4.2,7.6,6.5,11.8c2,3.7,3.9,7.4,6.1,11
		c2.1,3.5,5.7,5.9,7.2,9.9c1.3,3.3,1.6,6.9,3,10.2c1.2,2.6,2.9,4.9,4.5,7.2c2.7,4,4,10.8,9.1,9.6c2.3-0.6,4.5-1.8,6.9-2.3
		c1.1-0.3,1.9,0.1,2.9-0.8c2.8,3.7,15,7.4,17.8,11.1c2.9,3.7,6.2,2.2,9.6,5.1l-9.3,3c1.6,1.4,3.2,2.8,5,3.9c0.4,0.2,13.6,0.4,12.8-1
		c0.3,0.6,12.7,9.1,12.7,9.1C515.4,315.4,500.9,316.3,494.8,311.1 M508.1,285.8c-3.2-3.7-22.1-5.4-23.8-8.6l-11.2-12.4l-3.3,2.9
		l-0.4,0.5c-1,1.3-2,2.6-3,3.9c-2.6-3.7-5.2-7.3-7.7-10.7c-7-9.7-13.4-18.5-18.9-26c-2.8-3.8-5.4-7.4-7.8-10.6
		c-1.2-1.6-2.4-3.2-3.5-4.7c-1.3-1.8-2.9-2.5-4.4-0.4c-0.5,0.7-1,1.4-1.5,2.1c-5.7,7.9-9.5,13.4-11.2,15.6c-3.7,4-8.3,11.5-13.9,9.7
		c-1.8-0.6-3.5-1.2-5.3-1.8c-3.3-1.1-7.8-2.8-10.7,0.2c-0.8,0.8-1.6,1.6-2.4,2.5c-2.7,2.8-4.7,4.4-8.3,3.9c-2.5-0.4-5.7-1.6-7.9,0.5
		c-1.3,1.2-1.6,3.4-2.1,5.1c-1,3.3-3,5.2-5.4,6.9c-2.5,1.7-4.3,4.5-6.2,7.1c-2.3,3-4.5,6.2-6.9,9.2c-2.2,2.9-4.7,6.8-7.5,8.9
		L293,321.9h249.3c-8.1-6.5-13.5-11-18-15.8C520.4,301.8,516.9,296.3,508.1,285.8"/>
	<path fill="#003552" d="M250.1,220.1c0.9-0.4,1.3-0.5,2.3-0.8c1.1,2.9,1.6,4.4,2.6,7.3c0.2,0.6,0.4,1.1,0.6,1.3s0.5,0.4,0.8,0.4
		c0.4,0.1,0.7,0,1.1-0.1c0.4-0.1,0.7-0.4,0.9-0.6c0.2-0.3,0.4-0.6,0.4-0.8c0-0.3-0.1-0.8-0.4-1.6c-1-2.8-1.5-4.2-2.5-7.1
		c0.9-0.3,1.3-0.5,2.3-0.8c0.9,2.7,1.4,4,2.3,6.8c0.4,1.1,0.6,2,0.6,2.5s-0.1,1-0.4,1.6c-0.2,0.6-0.6,1-1,1.3
		c-0.4,0.4-0.9,0.6-1.6,0.8c-0.8,0.3-1.6,0.4-2.4,0.2s-1.4-0.4-1.8-0.9c-0.5-0.5-1-1.3-1.4-2.7C251.6,224.1,251.1,222.8,250.1,220.1
		"/>
	<path fill="#003552" d="M263,215.7c2.7-0.8,4-1.3,6.6-2.1c0.3,0.8,0.4,1.3,0.7,2.1c-0.8,0.3-1.3,0.4-2.2,0.7c1.2,3.7,1.8,5.6,3,9.3
		c-0.9,0.3-1.3,0.4-2.3,0.7c-1.2-3.7-1.8-5.6-3-9.3c-0.8,0.3-1.3,0.4-2.1,0.7C263.4,216.9,263.3,216.5,263,215.7"/>
	<path fill="#003552" d="M274.5,212c0.9-0.3,1.3-0.4,2.3-0.7c1.3,4.6,2.1,6.9,3.5,11.5c-0.9,0.3-1.3,0.4-2.3,0.6
		C276.6,218.9,275.9,216.6,274.5,212"/>
	<path fill="#003552" d="M282.7,209.6c0.9-0.3,1.4-0.4,2.3-0.6c1.1,3.8,1.6,5.7,2.6,9.5c1.3-0.4,2-0.6,3.3-0.9
		c0.2,0.8,0.4,1.3,0.6,2.1c-2.3,0.6-3.3,0.9-5.6,1.6C284.7,216.5,284.1,214.2,282.7,209.6"/>
	<path fill="#003552" d="M293.4,206.7c0.9-0.2,1.4-0.4,2.3-0.6c1.2,4.7,1.8,7,3,11.6c-0.9,0.2-1.3,0.4-2.3,0.6
		C295.3,213.7,294.7,211.3,293.4,206.7"/>
	<path fill="#003552" d="M300.6,204.9c2.7-0.6,4.1-1,6.8-1.6c0.2,0.8,0.3,1.3,0.5,2.2c-0.9,0.2-1.3,0.3-2.3,0.5
		c0.9,3.8,1.3,5.7,2.3,9.5c-0.9,0.2-1.4,0.4-2.3,0.6c-0.9-3.8-1.3-5.7-2.3-9.5c-0.8,0.2-1.3,0.3-2.2,0.6
		C300.9,206.3,300.8,205.8,300.6,204.9"/>
	<path fill="#003552" d="M311.5,202.4c1-0.2,1.5-0.4,2.5-0.6c1.3,1.5,1.9,2.3,3.2,3.7c0.6-1.9,0.8-2.8,1.4-4.7
		c1-0.2,1.5-0.3,2.5-0.5c-0.9,3-1.3,4.5-2.2,7.4c0.4,2.1,0.6,3,1.1,5.1c-0.9,0.2-1.4,0.3-2.3,0.5c-0.4-2.1-0.6-3-1.1-5.1
		C314.6,205.9,313.6,204.7,311.5,202.4"/>
	<path fill="#003552" d="M349.8,197.1c-0.6,0.7-0.9,1.1-1.6,1.7c-0.7-0.7-1.4-1.1-2.1-1c-0.3,0.1-0.6,0.1-0.7,0.4s-0.2,0.4-0.2,0.6
		s0.1,0.4,0.3,0.6c0.2,0.2,0.8,0.6,2,1.3c1,0.6,1.6,1,1.8,1.1c0.6,0.4,0.9,0.8,1.2,1.2c0.3,0.4,0.4,0.8,0.5,1.3
		c0.1,1-0.1,1.8-0.7,2.5c-0.6,0.7-1.4,1.2-2.5,1.3c-0.8,0.1-1.6,0.1-2.3-0.3c-0.7-0.4-1.3-0.9-2-1.7c0.7-0.6,1.1-0.8,1.8-1.4
		c0.8,1,1.5,1.4,2.3,1.3c0.4-0.1,0.7-0.2,0.9-0.5c0.2-0.3,0.4-0.6,0.3-0.8c-0.1-0.3-0.2-0.5-0.4-0.8c-0.3-0.2-0.8-0.6-1.6-1.1
		c-1.5-0.8-2.5-1.6-3-2.1c-0.5-0.5-0.8-1.1-0.8-1.6c-0.1-0.8,0.1-1.6,0.6-2.3c0.6-0.7,1.3-1.1,2.3-1.3c0.6-0.1,1.2-0.1,1.8,0.1
		C348.4,196.1,349,196.5,349.8,197.1"/>
	<path fill="#003552" d="M354.2,194.9c2.8-0.4,4.1-0.5,6.9-0.8c0.1,0.9,0.1,1.3,0.3,2.3c-0.9,0.1-1.3,0.1-2.3,0.3
		c0.5,3.9,0.7,5.8,1.2,9.7c-0.9,0.1-1.4,0.1-2.3,0.3c-0.5-3.9-0.7-5.8-1.2-9.7c-0.8,0.1-1.3,0.1-2.2,0.3
		C354.4,196.2,354.4,195.8,354.2,194.9"/>
	<path fill="#003552" d="M369.2,197.8c0.3,0,0.4-0.1,0.7-0.1c0.8-0.1,1.3-0.2,1.5-0.4c0.3-0.2,0.4-0.6,0.4-1c0-0.3-0.1-0.5-0.3-0.6
		c-0.1-0.1-0.4-0.3-0.6-0.4c-0.2-0.1-0.7-0.1-1.3,0c-0.3,0-0.4,0.1-0.6,0.1C369.1,196.4,369.2,196.8,369.2,197.8 M366.4,193.5
		c1-0.1,1.5-0.1,2.5-0.3c1.3-0.1,2.4-0.1,3,0.1c0.6,0.2,1.1,0.5,1.6,1.1c0.4,0.5,0.6,1.1,0.7,1.9c0.1,0.8-0.1,1.5-0.4,2.1
		c-0.4,0.6-0.9,1-1.6,1.3c1.3,2,2.1,3,3.4,5c-1,0.1-1.6,0.1-2.5,0.2c-1.3-1.9-1.9-2.9-3.3-4.8c-0.1,0-0.1,0-0.2,0
		c0.2,2.1,0.3,3,0.5,5c-0.9,0.1-1.4,0.1-2.3,0.2C367.2,200.6,366.9,198.2,366.4,193.5"/>
	<path fill="#003552" d="M379.8,192.2c2.8-0.2,4.1-0.3,6.8-0.5c0.1,0.9,0.1,1.3,0.1,2.3c-1.8,0.1-2.7,0.1-4.5,0.3
		c0.1,0.8,0.1,1.3,0.1,2.2c1.8-0.1,2.6-0.2,4.5-0.3c0.1,0.8,0.1,1.3,0.1,2.2c-1.8,0.1-2.6,0.1-4.4,0.3c0.1,1.3,0.1,1.9,0.2,3.2
		c1.8-0.1,2.6-0.2,4.4-0.3c0.1,0.9,0.1,1.3,0.1,2.3c-2.7,0.1-4,0.3-6.6,0.5C380.4,199.4,380.2,197,379.8,192.2"/>
	<path fill="#003552" d="M392.3,191.3c0.9-0.1,1.3-0.1,2.3-0.1c2.3,3,3.5,4.6,5.7,7.6c-0.1-3.2-0.2-4.7-0.3-7.9c1,0,1.4-0.1,2.4-0.1
		c0.1,4.8,0.2,7.2,0.4,12c-0.9,0-1.3,0.1-2.3,0.1c-2.2-3-3.3-4.6-5.6-7.6c0.1,3.2,0.2,4.7,0.4,7.8c-0.9,0.1-1.4,0.1-2.3,0.1
		C392.7,198.5,392.6,196.1,392.3,191.3"/>
	<path fill="#003552" d="M420.3,192.6c-0.6,0.6-1,0.9-1.7,1.6c-1.1-1.1-2.3-1.6-3.7-1.6c-1.2,0-2.3,0.4-3,1.2
		c-0.8,0.8-1.2,1.8-1.2,2.9c0,1.1,0.4,2.1,1.3,2.9c0.8,0.8,1.9,1.2,3.2,1.2c0.8,0,1.5-0.2,2.1-0.5c0.6-0.4,1-0.8,1.3-1.6
		c-1.4,0-2.1,0-3.5,0c0-0.8,0-1.3,0-2.1c2.5,0,3.7,0,6.2,0c0,0.2,0,0.3,0,0.5c0,1.1-0.3,2.1-0.8,3c-0.6,0.9-1.3,1.6-2.2,2.1
		c-0.8,0.5-1.9,0.8-3.1,0.8c-1.3,0-2.4-0.2-3.4-0.8c-1-0.5-1.8-1.3-2.4-2.3c-0.6-1-0.9-2.1-0.9-3.3c0-1.6,0.5-3,1.6-4.2
		c1.3-1.4,3-2.1,5-2.2c1.1,0,2.1,0.2,3,0.6C418.7,191.2,419.5,191.8,420.3,192.6"/>
	<path fill="#003552" d="M425.6,190.6c2.8,0.1,4.2,0.1,6.9,0.1c0,0.9,0,1.3-0.1,2.3c-0.9,0-1.3-0.1-2.3-0.1
		c-0.1,3.9-0.1,5.9-0.2,9.8c-0.9,0-1.4,0-2.3-0.1c0.1-3.9,0.1-5.9,0.1-9.8c-0.9,0-1.3,0-2.2,0C425.6,192,425.6,191.5,425.6,190.6"/>
	<path fill="#003552" d="M437.7,191c1,0.1,1.4,0.1,2.4,0.1c-0.1,1.8-0.1,2.7-0.2,4.5c1.6,0.1,2.5,0.1,4.1,0.2
		c0.1-1.8,0.1-2.7,0.2-4.5c1,0.1,1.4,0.1,2.4,0.1c-0.3,4.8-0.4,7.2-0.6,12c-0.9-0.1-1.4-0.1-2.3-0.1c0.1-2.1,0.1-3.2,0.3-5.2
		c-1.6-0.1-2.5-0.1-4.1-0.2c-0.1,2.1-0.1,3.2-0.2,5.2c-0.9-0.1-1.4-0.1-2.3-0.1C437.4,198.1,437.5,195.7,437.7,191"/>
	<path fill="#003552" d="M471.8,195.6c-0.4,3-0.5,4.5-0.8,7.6c0.4,0.1,0.6,0.1,1.1,0.1c1.1,0.1,1.8,0.1,2.3-0.1
		c0.5-0.2,0.9-0.6,1.3-1.1c0.4-0.5,0.6-1.2,0.7-2.1c0.1-1.3-0.1-2.3-0.8-3.1c-0.6-0.7-1.6-1.1-3.1-1.3
		C472.2,195.6,472.1,195.6,471.8,195.6 M469.7,193.2c1.1,0.1,1.7,0.1,2.8,0.3c1.8,0.2,3.1,0.6,4,1.1c0.8,0.6,1.5,1.3,1.9,2.3
		c0.4,1.1,0.6,2.2,0.4,3.5c-0.1,0.9-0.4,1.8-0.8,2.5c-0.4,0.7-0.9,1.3-1.6,1.8s-1.3,0.7-1.9,0.8c-0.6,0.1-1.8,0.1-3.3-0.1
		c-1.1-0.1-1.7-0.1-2.8-0.3C468.9,200.3,469.2,197.9,469.7,193.2"/>
	<path fill="#003552" d="M485.2,194.9c0.9,0.1,1.4,0.2,2.4,0.4c-0.4,3-0.6,4.6-1.1,7.7c-0.1,0.6-0.1,1.1,0,1.4s0.2,0.6,0.5,0.7
		c0.3,0.2,0.6,0.4,1,0.4c0.4,0.1,0.8,0,1.1-0.1c0.4-0.1,0.6-0.4,0.7-0.6s0.3-0.8,0.4-1.6c0.4-3,0.6-4.5,1.1-7.4
		c0.9,0.1,1.4,0.2,2.4,0.4c-0.4,2.8-0.6,4.2-1.1,7.1c-0.2,1.2-0.4,2-0.6,2.5c-0.2,0.4-0.6,0.8-1,1.2c-0.4,0.4-0.9,0.6-1.5,0.8
		c-0.5,0.1-1.1,0.1-1.8,0.1c-0.8-0.1-1.6-0.4-2.2-0.9c-0.6-0.5-1-1.1-1.2-1.7s-0.2-1.6,0-3C484.6,199.3,484.8,197.8,485.2,194.9"/>
	<path fill="#003552" d="M501.5,202.2c0.3,0.1,0.4,0.1,0.7,0.1c0.8,0.1,1.3,0.1,1.6,0s0.5-0.4,0.6-0.8c0.1-0.3,0-0.5-0.1-0.7
		c-0.1-0.2-0.3-0.4-0.5-0.5c-0.2-0.1-0.6-0.2-1.3-0.4c-0.3-0.1-0.4-0.1-0.6-0.1C501.8,200.7,501.7,201.2,501.5,202.2 M500,197.1
		c1,0.1,1.5,0.2,2.5,0.4c1.3,0.2,2.3,0.5,2.9,0.8c0.6,0.4,0.9,0.8,1.2,1.4s0.3,1.3,0.2,2c-0.1,0.8-0.4,1.4-0.9,1.8
		c-0.5,0.4-1.1,0.8-2,0.8c0.8,2.3,1.2,3.5,1.9,5.7c-1-0.2-1.5-0.3-2.5-0.4c-0.7-2.2-1.1-3.3-1.8-5.4c-0.1,0-0.1,0-0.2,0
		c-0.4,2-0.5,3-0.8,5c-0.9-0.1-1.4-0.2-2.3-0.4C498.8,204.3,499.2,201.9,500,197.1"/>
	<path fill="#003552" d="M517.6,203.6c-1,1.5-1.5,2.2-2.5,3.7c1.3,0.3,2,0.4,3.3,0.6C518.1,206.2,517.9,205.3,517.6,203.6
		 M517,200.2c0.9,0.2,1.4,0.3,2.4,0.5c0.9,5.1,1.3,7.6,2.2,12.7c-0.9-0.2-1.4-0.3-2.4-0.5c-0.1-1.1-0.3-1.6-0.4-2.6
		c-2-0.4-3-0.6-4.9-1c-0.6,0.9-0.8,1.3-1.5,2.3c-1-0.2-1.4-0.3-2.4-0.4C512.8,206.7,514.2,204.6,517,200.2"/>
	<path fill="#003552" d="M530.2,209.9c-0.3,1.2-0.4,1.8-0.7,3c0.2,0.1,0.4,0.1,0.6,0.1c0.9,0.2,1.6,0.3,2,0.1
		c0.4-0.1,0.6-0.4,0.7-0.9c0.1-0.5,0-0.9-0.3-1.3c-0.3-0.4-0.9-0.7-1.8-0.9C530.4,210,530.4,210,530.2,209.9 M531.2,205.5
		c-0.2,1-0.4,1.5-0.6,2.5c0.2,0.1,0.3,0.1,0.5,0.1c0.6,0.1,1,0.1,1.3-0.1c0.4-0.1,0.6-0.4,0.6-0.8c0.1-0.4,0-0.7-0.2-1
		c-0.2-0.3-0.6-0.5-1.1-0.6C531.6,205.6,531.5,205.5,531.2,205.5 M526.7,214.5c1.1-4.7,1.6-7,2.7-11.7c0.8,0.1,1.1,0.3,1.9,0.4
		c1.1,0.3,1.9,0.5,2.4,0.8c0.7,0.4,1.2,0.8,1.5,1.4c0.3,0.6,0.4,1.3,0.2,1.9c-0.1,0.4-0.3,0.8-0.6,1.1c-0.3,0.4-1.2,0.8-1.2,0.8
		c0,0.1,1.1,1.1,1.3,1.6c0.2,0.6,0.3,1.2,0.1,1.9c-0.1,0.6-0.5,1.2-1,1.7c-0.5,0.4-1.1,0.8-1.6,0.9c-0.6,0.1-1.4,0.1-2.4-0.1
		C528.7,215,528,214.9,526.7,214.5"/>
	<path fill="#003552" d="M542.5,206c0.9,0.2,1.4,0.4,2.3,0.6c-1.2,4.7-1.8,7-3,11.6c-0.9-0.2-1.3-0.4-2.3-0.6
		C540.8,213,541.3,210.6,542.5,206"/>
	<path fill="#003552" d="M550.9,208.2c0.9,0.3,1.4,0.4,2.3,0.6c-1.1,3.7-1.6,5.7-2.6,9.5c1.3,0.4,2,0.6,3.3,0.9
		c-0.2,0.8-0.4,1.3-0.6,2.1c-2.2-0.6-3.3-0.9-5.6-1.6C549,215.1,549.6,212.8,550.9,208.2"/>
	<path fill="#003552" d="M561.5,211.2c0.9,0.3,1.4,0.4,2.3,0.7c-1.4,4.6-2.1,6.9-3.5,11.5c-0.9-0.3-1.3-0.4-2.3-0.6
		C559.4,218.1,560.1,215.8,561.5,211.2"/>
	<path fill="#003552" d="M568.5,213.3c2.7,0.8,4,1.3,6.6,2.1c-0.3,0.8-0.4,1.3-0.7,2.1c-0.8-0.3-1.3-0.4-2.2-0.7
		c-1.2,3.7-1.8,5.6-3,9.3c-0.9-0.3-1.3-0.4-2.3-0.7c1.2-3.7,1.8-5.6,3-9.3c-0.8-0.3-1.3-0.4-2.1-0.6
		C568.2,214.7,568.3,214.2,568.5,213.3"/>
	<path fill="#003552" d="M579.3,216.9c1,0.4,1.5,0.5,2.5,0.8c0.4,1.9,0.5,2.9,0.8,4.9c1.5-1.3,2.2-2,3.7-3.3c1,0.4,1.4,0.5,2.4,0.8
		c-2.3,2.1-3.5,3.1-5.8,5.2c-0.7,2-1.1,3-1.7,4.9c-0.9-0.3-1.3-0.5-2.3-0.8c0.7-2,1-3,1.7-4.9C580.1,221.4,579.9,219.9,579.3,216.9"
		/>
	<path fill="#003552" d="M334.6,204.3c0,1.5-1.2,2.7-2.7,2.7c-1.5,0-2.7-1.2-2.7-2.7c0-1.5,1.2-2.7,2.7-2.7
		C333.4,201.7,334.6,202.9,334.6,204.3"/>
	<path fill="#003552" d="M460.5,197.6c0,1.5-1.2,2.7-2.7,2.7s-2.7-1.2-2.7-2.7c0-1.5,1.2-2.7,2.7-2.7
		C459.3,194.9,460.5,196.1,460.5,197.6"/>
</g>
</svg>
