<?xml version="1.0" encoding="utf-8"?>
<!-- Generator: Adobe Illustrator 17.1.0, SVG Export Plug-In . SVG Version: 6.00 Build 0)  -->
<!DOCTYPE svg PUBLIC "-//W3C//DTD SVG 1.1//EN" "http://www.w3.org/Graphics/SVG/1.1/DTD/svg11.dtd">
<svg version="1.1" id="Calque_1" xmlns="http://www.w3.org/2000/svg" xmlns:xlink="http://www.w3.org/1999/xlink" x="0px" y="0px"
	 viewBox="0 0 595.3 841.9" enable-background="new 0 0 595.3 841.9" xml:space="preserve">
<g>
	<path d="M76.1,335.9c1.2-1.3-1.4-5.4,0.4-7.1c6.3-2.4,5,0.2,7.4,0.6c9.4,1.3,19-1.7,28.5,3.1c10.8,5.4,21.4,14.1,19.8,28.2
		c-1.7,15.5-17.8,22-32.4,23.7c-1.4,0.2-3.4,2.2-3.2,3.2c1.1,7.7,1.3,15.2-1.2,21.8c-3.6,9.8-14.1,16.6-24.9,13.4
		c-14.1-4.2-16.8-19.1-16.6-31.5C54.2,370.8,61.1,351.6,76.1,335.9z M79.2,357c-0.3-2-2-2.3-2.7-3.6c-10,6-10.6,18.8-12.9,29.5
		c-2.5,11.9-1.2,25.1,8.6,32c5.2,3.7,12-4.3,13.5-10.3C89.6,388.1,82,373.2,79.2,357z M88.7,339.9c-2.1,5,1.5,18.7,3,28.1
		c0.5,3.4,0.8,9.3,4.3,9c11.4-1,27-16.3,25.1-27.1C118.7,336.7,92.1,331.6,88.7,339.9z"/>
	<polygon points="215.1,502.9 215.1,507 202.2,507 202.2,486.6 206.9,486.6 206.9,502.9 	"/>
	<polygon points="284.4,507 280.3,507 272.5,493.3 272.4,493.3 272.4,507 268.7,507 268.7,486.6 273.9,486.6 280.6,498.6 
		280.7,498.6 280.7,486.6 284.4,486.6 	"/>
	<path d="M310.1,486.6c2.9,0,5.5,0.2,7.7,2.3c2.2,2.1,3.1,4.9,3.1,7.8c0,2.7-0.8,5.4-2.6,7.4c-2,2.2-4.5,2.8-7.4,2.8h-6.7v-20.3
		L310.1,486.6L310.1,486.6z M309,503.1h1.6c2,0,3.3-0.4,4.4-2.2c0.8-1.3,1.1-2.9,1.1-4.4c0-1.6-0.5-3.3-1.5-4.6
		c-1.1-1.4-2.3-1.6-4-1.6H309V503.1z"/>
	<polygon points="391.1,507 387.1,507 379.3,493.3 379.1,493.3 379.1,507 375.5,507 375.5,486.6 380.6,486.6 387.4,498.6 
		387.4,498.6 387.4,486.6 391.1,486.6 	"/>
	<path d="M138.4,379.2c7.3,0.4,11.8,8.7,11,14.4c-1.1,7-6.4,11.3-11.6,16.1c-0.8,0.7,0.1,1.9,1.1,2.2c3.4,1.1,7.2-0.3,9.3-1.8
		c14.9-10.5,25.3-31.8,44.9-24.6c9.6,3.5,21.6,13.9,19.8,26.5c-0.4,2.5,3.9,3,6.6,2.1c1.7-0.6,3.6-2.5,2.3-4.5
		c-6-8.9-2.5-22.7,6.5-28c5.8-3.4,12.6-2.7,17.8,0.4c10.3,6.2,10.3,23-0.8,29.9c5.4,7,13.4-4.7,19.8-1.5c0.2,0.1,1.1,1.7,1.1,2.2
		c-0.3,7.1-9.4,11.2-15.2,11.5c-6.8,0.4-15.8-4.3-20.2-3.1c-17.2,4.8-20.5,4.9-45.4,3.1c0.1,13.1,3.2,34.1-12.4,38.4
		c-9,2.5-12.6-6.2-14.2-14c-2.6-12.6-0.9-25.3,1.6-36.6c-8.4,7.1-20.1,14-30.8,9.1c-7.4-3.4-11.6-11.2-20.9-10.2
		c-1.9,0.2-5.2-2.4-4.4-5.2c3.7-1.2,9.3,2.3,10,1.1c2.8-5.3-1.8-9.6,0.5-14.3c2.4-4.9,3.9-10.4,9.6-12.1
		C129.5,379,133,378.9,138.4,379.2z M233.2,391.4c-2.4,5.2-2.1,15.5,1.2,16.2c5.6,1.2,12.5-10.7,9.4-17.4
		C241.2,384.8,235.3,386.9,233.2,391.4z M126.5,402.3c-0.1,2.1,2.1,3.3,2.4,3.2c6.6-1.5,10.5-10.8,9.4-15.2
		c-0.6-2.4-3.2-6.3-6.7-4.7C125.1,388.4,126.8,396.1,126.5,402.3z M167.4,427.5c-1.8,7.9-3.2,15,0,22.2c2.2,4.9,7.1,2.8,8.2-1.8
		c2.2-8.8,0.9-16.6-0.4-26c-0.2-1.5-2.4-3.7-3.3-3.3C168.5,420.5,168.2,423.9,167.4,427.5z M182.4,396.6c-4.1,3.7-1.9,14.9,4.2,18.3
		c4.7,2.7,10.8-0.7,12.8-5.5c3.1-7.2-5.2-13.1-11.8-15.5C185.1,393,183.6,395.5,182.4,396.6z"/>
	<path d="M282.9,358.3c0.6-12,14.5-19,24.3-15.1c20.3,8,23.2,34.3,25.1,54.2c0.2,2.2,5,1.2,5.1,0.9c2.4-18.6,20.7-23.5,30.6-18
		c11.9,6.7,2.2,22.6-8.1,26.5c-2.1,0.8-5.9,1.2-5.3,2.5c3.6,7.7,14.4,5.4,19.8-1.1c4.6-5.6,3.7-13.7,10.3-17.8
		c2.3-1.5,5.7-4.4,8-4.5c6.4-0.2,17.4-2.7,18.8,4.2c-2.3,7-20.5,0.9-24.2,12.3c-1.6,4.9,0.2,10.1,4.7,10.1c3.4,0,4.9-7.4,8.1-9.3
		c4.2-2.4,9.8,3.3,13.3,0.8c6.2-4.3,4.8-16,13.2-18.3c7.6-2.1,15.3,0.3,20.4,6.9c5.2-4.3,9.3-11.4,17-8.3c1.8,0.7,4,1.4,4.9,3.4
		c3.2,7.2,5.7,14.2,7.9,21.8c1.5,5.2,7.5,4.2,10.2,0c6.9-10.4,8.9-24.8,20.1-29.7c13-5.8,19.7,10.9,18.8,22.5
		c-0.7,9.3,12.2,0.6,15.1,8.5c-3.8,3.2-9.7,1.9-13.2,3.1c-4.6,1.5-6,8.5-11.3,10.1c-10.1,3.2-17.4-3.5-19.5-13.2
		c-7.7,2.1-7.7,14.4-17.1,10.9c-9.9-3.7-12.3-14.2-18.7-21.6c-1.3-1.5-3.7,0.5-4.3,2.2c-1.8,5.4-1.7,11.9-6.7,15.4
		c-3.4,2.3-4.8-2.4-5.3-4.5c-1.7-7.7-5.5-19.2-13-18.8c-8,0.4-6.7,20.6-12.3,28.6c-3,4.3-8.6-6.1-13.3-7.7
		c-4.4-1.5-6.5,4.6-10.9,6.8c-7.9,3.9-15.1-6.7-18.6-4.2c-15.9,11.5-27.7,3.6-37.8-6.7c-1-1-6.5,0-6.7,0.8
		c-7,24.3-14.6,59.5-45.4,55.2c-16.8-2.4-21.8-22.1-17-36.4c4.6-13.7,20.5-18.4,32.7-23.8c1.7-0.8,3.8-3.1,2.2-4.3
		C290.5,391.1,281.9,376.3,282.9,358.3z M508.4,405.5c2.4,0.1,5.9,2,6.4-0.8c1.2-6.2,0.7-12.7-3.5-17.5c-1.4-1.6-4,3.1-5.5,5.6
		c-2.2,3.6-1.7,7.8-5,11c-0.8,0.8,0.3,2.2,1,2.1C504.8,405.2,505.3,405.4,508.4,405.5z M292.6,360.7c-0.6,16.1,7.7,30.8,21.2,38.7
		c1.4,0.8,5.2,1.6,5.4-0.9c1.6-16.8,0.5-38.7-14.7-48.1C298.8,346.8,292.9,353.6,292.6,360.7z M310.7,439.9
		c4.7-7.8,7.5-16.3,7.6-25.4c0-0.8-1.4-2.2-2.1-2.1c-15.2,1.9-28,12.4-37.6,24.4c-4.2,5.2-3.1,11.6,1.1,16.7
		c4.1,5.1,11.2,6.1,15.6,4.6C303.2,455.2,306.4,446.9,310.7,439.9z M354,397.4c5.3-1.7,10.2-4.8,9.5-11c-0.2-2.1-3-3.1-4.7-3.3
		c-5.7-0.8-7.8,6.1-9.6,10.6C347.9,396.9,351.5,398.2,354,397.4z"/>
	<path d="M234.4,504.1c-1.5-2.1-2.1-4.7-2.1-7.3c0-5.4,2.7-10.4,8.7-10.4c2.7,0,4.8,0.9,6.5,3.1c1.5,2,2.2,4.9,2.2,7.3
		c0,2.3-0.6,5.1-1.9,7.1c-1.6,2.3-4,3.4-6.7,3.4C238.2,507.3,236,506.3,234.4,504.1z M237.9,492.5c-0.5,1.2-0.7,3-0.7,4.2
		c0,2.6,0.4,6.6,3.7,6.6c1.6,0,2.5-0.8,3.1-2.3c0.5-1.2,0.6-2.9,0.6-4.3c0-1.5-0.1-3.2-0.7-4.6c-0.6-1.4-1.5-2-2.9-2
		C239.4,490.2,238.5,491,237.9,492.5z"/>
	<path d="M341.2,504.1c-1.5-2.1-2.1-4.7-2.1-7.3c0-5.4,2.7-10.4,8.7-10.4c2.7,0,4.8,0.9,6.5,3.1c1.5,2,2.2,4.9,2.2,7.3
		c0,2.3-0.6,5.1-1.9,7.1c-1.6,2.3-4,3.4-6.7,3.4C345,507.3,342.8,506.3,341.2,504.1z M344.7,492.5c-0.5,1.2-0.7,3-0.7,4.2
		c0,2.6,0.4,6.6,3.7,6.6c1.6,0,2.5-0.8,3.1-2.3c0.5-1.2,0.6-2.9,0.6-4.3c0-1.5-0.1-3.2-0.7-4.6c-0.6-1.4-1.5-2-2.9-2
		C346.1,490.2,345.2,491,344.7,492.5z"/>
</g>
</svg>
