<?xml version="1.0" encoding="utf-8"?>
<!-- Generator: Adobe Illustrator 18.0.0, SVG Export Plug-In . SVG Version: 6.00 Build 0)  -->
<!DOCTYPE svg PUBLIC "-//W3C//DTD SVG 1.1//EN" "http://www.w3.org/Graphics/SVG/1.1/DTD/svg11.dtd">
<svg version="1.1" id="Calque_1" xmlns="http://www.w3.org/2000/svg" xmlns:xlink="http://www.w3.org/1999/xlink" x="0px" y="0px"
	 viewBox="0 0 841.9 595.3" enable-background="new 0 0 841.9 595.3" xml:space="preserve">
<g>
	<path fill="#003552" d="M264.3,237.5c0.8-0.9-1-3.8,0.3-5c4.5-1.7,3.5,0.1,5.2,0.4c6.6,0.9,13.4-1.2,20.2,2.2
		c7.6,3.8,15.1,10,14,19.9c-1.2,11-12.6,15.6-22.9,16.8c-1,0.1-2.4,1.6-2.3,2.3c0.8,5.4,0.9,10.7-0.8,15.4
		c-2.5,6.9-10,11.7-17.6,9.5c-10-3-11.9-13.5-11.7-22.3C248.8,262.2,253.7,248.6,264.3,237.5z M266.5,252.4
		c-0.2-1.4-1.4-1.6-1.9-2.5c-7.1,4.2-7.5,13.3-9.1,20.9c-1.8,8.4-0.8,17.7,6.1,22.6c3.7,2.6,8.5-3,9.5-7.3
		C273.8,274.4,268.5,263.9,266.5,252.4z M273.2,240.3c-1.5,3.5,1.1,13.2,2.1,19.9c0.4,2.4,0.6,6.6,3,6.4
		c8.1-0.7,19.1-11.5,17.7-19.2C294.4,238.1,275.6,234.5,273.2,240.3z"/>
	<polygon fill="#003552" points="362.6,355.6 362.6,358.5 353.5,358.5 353.5,344.1 356.8,344.1 356.8,355.6 	"/>
	<polygon fill="#003552" points="411.6,358.5 408.7,358.5 403.2,348.8 403.1,348.8 403.1,358.5 400.5,358.5 400.5,344.1 
		404.2,344.1 408.9,352.5 409,352.5 409,344.1 411.6,344.1 	"/>
	<path fill="#003552" d="M429.7,344.1c2.1,0,3.9,0.1,5.4,1.6c1.6,1.5,2.2,3.5,2.2,5.5c0,1.9-0.6,3.8-1.8,5.2c-1.4,1.6-3.2,2-5.2,2
		h-4.7v-14.4L429.7,344.1L429.7,344.1z M429,355.7h1.1c1.4,0,2.3-0.3,3.1-1.6c0.6-0.9,0.8-2.1,0.8-3.1c0-1.1-0.4-2.3-1.1-3.3
		c-0.8-1-1.6-1.1-2.8-1.1H429V355.7z"/>
	<polygon fill="#003552" points="487,358.5 484.2,358.5 478.7,348.8 478.5,348.8 478.5,358.5 476,358.5 476,344.1 479.6,344.1 
		484.4,352.5 484.4,352.5 484.4,344.1 487,344.1 	"/>
	<path fill="#003552" d="M308.3,268.1c5.2,0.3,8.3,6.2,7.8,10.2c-0.8,4.9-4.5,8-8.2,11.4c-0.6,0.5,0.1,1.3,0.8,1.6
		c2.4,0.8,5.1-0.2,6.6-1.3c10.5-7.4,17.9-22.5,31.7-17.4c6.8,2.5,15.3,9.8,14,18.7c-0.3,1.8,2.8,2.1,4.7,1.5
		c1.2-0.4,2.5-1.8,1.6-3.2c-4.2-6.3-1.8-16.1,4.6-19.8c4.1-2.4,8.9-1.9,12.6,0.3c7.3,4.4,7.3,16.3-0.6,21.1c3.8,4.9,9.5-3.3,14-1.1
		c0.1,0.1,0.8,1.2,0.8,1.6c-0.2,5-6.6,7.9-10.7,8.1c-4.8,0.3-11.2-3-14.3-2.2c-12.2,3.4-14.5,3.5-32.1,2.2
		c0.1,9.3,2.3,24.1-8.8,27.2c-6.4,1.8-8.9-4.4-10-9.9c-1.8-8.9-0.6-17.9,1.1-25.9c-5.9,5-14.2,9.9-21.8,6.4
		c-5.2-2.4-8.2-7.9-14.8-7.2c-1.3,0.1-3.7-1.7-3.1-3.7c2.6-0.8,6.6,1.6,7.1,0.8c2-3.7-1.3-6.8,0.4-10.1c1.7-3.5,2.8-7.4,6.8-8.6
		C302.1,268,304.5,267.9,308.3,268.1z M375.4,276.7c-1.7,3.7-1.5,11,0.8,11.5c4,0.8,8.8-7.6,6.6-12.3
		C381,272.1,376.9,273.6,375.4,276.7z M299.9,284.5c-0.1,1.5,1.5,2.3,1.7,2.3c4.7-1.1,7.4-7.6,6.6-10.7c-0.4-1.7-2.3-4.5-4.7-3.3
		C298.9,274.6,300.1,280.1,299.9,284.5z M328.8,302.3c-1.3,5.6-2.3,10.6,0,15.7c1.6,3.5,5,2,5.8-1.3c1.6-6.2,0.6-11.7-0.3-18.4
		c-0.1-1.1-1.7-2.6-2.3-2.3C329.6,297.3,329.4,299.7,328.8,302.3z M339.5,280.4c-2.9,2.6-1.3,10.5,3,12.9c3.3,1.9,7.6-0.5,9.1-3.9
		c2.2-5.1-3.7-9.3-8.3-11C341.4,277.9,340.3,279.6,339.5,280.4z"/>
	<path fill="#003552" d="M410.5,253.3c0.4-8.5,10.3-13.4,17.2-10.7c14.4,5.7,16.4,24.3,17.7,38.3c0.1,1.6,3.5,0.8,3.6,0.6
		c1.7-13.2,14.6-16.6,21.6-12.7c8.4,4.7,1.6,16-5.7,18.7c-1.5,0.6-4.2,0.8-3.7,1.8c2.5,5.4,10.2,3.8,14-0.8c3.3-4,2.6-9.7,7.3-12.6
		c1.6-1.1,4-3.1,5.7-3.2c4.5-0.1,12.3-1.9,13.3,3c-1.6,4.9-14.5,0.6-17.1,8.7c-1.1,3.5,0.1,7.1,3.3,7.1c2.4,0,3.5-5.2,5.7-6.6
		c3-1.7,6.9,2.3,9.4,0.6c4.4-3,3.4-11.3,9.3-12.9c5.4-1.5,10.8,0.2,14.4,4.9c3.7-3,6.6-8.1,12-5.9c1.3,0.5,2.8,1,3.5,2.4
		c2.3,5.1,4,10,5.6,15.4c1.1,3.7,5.3,3,7.2,0c4.9-7.4,6.3-17.5,14.2-21c9.2-4.1,13.9,7.7,13.3,15.9c-0.5,6.6,8.6,0.4,10.7,6
		c-2.7,2.3-6.9,1.3-9.3,2.2c-3.3,1.1-4.2,6-8,7.1c-7.1,2.3-12.3-2.5-13.8-9.3c-5.4,1.5-5.4,10.2-12.1,7.7c-7-2.6-8.7-10-13.2-15.3
		c-0.9-1.1-2.6,0.4-3,1.6c-1.3,3.8-1.2,8.4-4.7,10.9c-2.4,1.6-3.4-1.7-3.7-3.2c-1.2-5.4-3.9-13.6-9.2-13.3
		c-5.7,0.3-4.7,14.6-8.7,20.2c-2.1,3-6.1-4.3-9.4-5.4c-3.1-1.1-4.6,3.3-7.7,4.8c-5.6,2.8-10.7-4.7-13.2-3
		c-11.2,8.1-19.6,2.5-26.7-4.7c-0.7-0.7-4.6,0-4.7,0.6c-4.9,17.2-10.3,42.1-32.1,39c-11.9-1.7-15.4-15.6-12-25.7
		c3.3-9.7,14.5-13,23.1-16.8c1.2-0.6,2.7-2.2,1.6-3C415.9,276.5,409.8,266.1,410.5,253.3z M570,286.7c1.7,0.1,4.2,1.4,4.5-0.6
		c0.8-4.4,0.5-9-2.5-12.4c-1-1.1-2.8,2.2-3.9,4c-1.6,2.5-1.2,5.5-3.5,7.8c-0.6,0.6,0.2,1.6,0.7,1.5
		C567.4,286.5,567.8,286.6,570,286.7z M417.4,255c-0.4,11.4,5.4,21.8,15,27.4c1,0.6,3.7,1.1,3.8-0.6c1.1-11.9,0.4-27.4-10.4-34
		C421.8,245.2,417.6,250,417.4,255z M430.2,311c3.3-5.5,5.3-11.5,5.4-18c0-0.6-1-1.6-1.5-1.5c-10.7,1.3-19.8,8.8-26.6,17.3
		c-3,3.7-2.2,8.2,0.8,11.8c2.9,3.6,7.9,4.3,11,3.3C424.9,321.9,427.1,316,430.2,311z M460.8,281c3.7-1.2,7.2-3.4,6.7-7.8
		c-0.1-1.5-2.1-2.2-3.3-2.3c-4-0.6-5.5,4.3-6.8,7.5C456.5,280.6,459,281.6,460.8,281z"/>
	<path fill="#003552" d="M376.2,356.4c-1.1-1.5-1.5-3.3-1.5-5.2c0-3.8,1.9-7.4,6.2-7.4c1.9,0,3.4,0.6,4.6,2.2
		c1.1,1.4,1.6,3.5,1.6,5.2c0,1.6-0.4,3.6-1.3,5c-1.1,1.6-2.8,2.4-4.7,2.4C378.9,358.7,377.4,358,376.2,356.4z M378.7,348.2
		c-0.4,0.8-0.5,2.1-0.5,3c0,1.8,0.3,4.7,2.6,4.7c1.1,0,1.8-0.6,2.2-1.6c0.4-0.8,0.4-2.1,0.4-3c0-1.1-0.1-2.3-0.5-3.3
		c-0.4-1-1.1-1.4-2.1-1.4C379.8,346.6,379.1,347.2,378.7,348.2z"/>
	<path fill="#003552" d="M451.7,356.4c-1.1-1.5-1.5-3.3-1.5-5.2c0-3.8,1.9-7.4,6.2-7.4c1.9,0,3.4,0.6,4.6,2.2
		c1.1,1.4,1.6,3.5,1.6,5.2c0,1.6-0.4,3.6-1.3,5c-1.1,1.6-2.8,2.4-4.7,2.4C454.4,358.7,452.9,358,451.7,356.4z M454.2,348.2
		c-0.4,0.8-0.5,2.1-0.5,3c0,1.8,0.3,4.7,2.6,4.7c1.1,0,1.8-0.6,2.2-1.6c0.4-0.8,0.4-2.1,0.4-3c0-1.1-0.1-2.3-0.5-3.3
		c-0.4-1-1.1-1.4-2.1-1.4C455.2,346.6,454.6,347.2,454.2,348.2z"/>
</g>
</svg>
