<?xml version="1.0" encoding="utf-8"?>
<!-- Generator: Adobe Illustrator 18.0.0, SVG Export Plug-In . SVG Version: 6.00 Build 0)  -->
<!DOCTYPE svg PUBLIC "-//W3C//DTD SVG 1.1//EN" "http://www.w3.org/Graphics/SVG/1.1/DTD/svg11.dtd">
<svg version="1.1" id="Calque_1" xmlns="http://www.w3.org/2000/svg" xmlns:xlink="http://www.w3.org/1999/xlink" x="0px" y="0px"
	 viewBox="0 0 841.9 595.3" enable-background="new 0 0 841.9 595.3" xml:space="preserve">
<g>
	<path fill="#003552" d="M454.1,330.3c1.7,0,4.1,0.4,5.1-1.3c-1.3-0.6-3-0.4-3.8-1.7c0.6-1.2,1.9,0.1,2.8,0.1
		c3.5,0.8,8.1,0.9,11-1.1c0.4-0.4,0.4-1.1,0.1-1.6c-2.2-0.4-4.2,0.3-6.2-0.8c-0.4-0.4,0.1-0.8,0.3-1.2l0.4-0.3c4,0,8.2,0.2,11.7-1.1
		c0.9-0.4,2.3-0.9,2.6-1.2s0-0.8,0-0.8c-3.5,0.1-7-0.2-10.2-0.6c-0.3-0.4-0.4-0.5-0.1-0.9c0.3-0.4,0.8-0.4,0.8-0.4
		c5.8,0,12.9,0.9,17.8-2.3c0.4-0.4,1-1,0.5-1.4c-5.3,0.8-11,0.6-16.4,0.1c-0.4-0.2-0.5-0.7-0.3-1.1c0.4-0.4,1.2-0.4,1.9-0.4
		c1.2,0,2.5,0.4,3.7,0.4c5.7-0.1,11.7,0.6,15.9-2.8c0.3-0.5,0.6-1.2,0.2-1.8c-5.9,1-11.9-0.1-18,0c-0.4-0.1-0.6-0.1-0.5-0.8
		c0.1-0.6,0.4-0.6,1.2-0.8c8,0,15.1,0.2,22.3-1.8c0.2-0.4,1.2-0.7,0.9-1.4l-0.4-0.3c-8.8,0.2-19.3-3-27.2,1.2
		c-4.3,3-1.6,8.3-3.9,12.2c-0.8,1-1.8,1.3-2.7,1.3c-0.8,0-1.6-0.4-1.9-1.2c-1.5,1.8-4.1,2.5-6.5,2.4c-2.5,2.3-5.7,3.5-9,4.2
		c-0.1,1.5-0.3,2.8-0.6,4.8c0.6,0.4,1.3,0.6,2,0.8C449.5,329.6,450.9,329.7,454.1,330.3z"/>
	<path fill="#003552" d="M379.3,316.2c-2.5-1.6-3-4.7-2.7-7.8c-0.1-0.5-0.4-0.8-0.9-0.6c-1.1,1.6-0.5,3.6-0.1,5.4
		c0.3,0.8,0.4,1.3,0.8,2.1c-0.6,0.3-1.6,0.3-1.9-0.1c-1.1-1.8-0.5-4.5-1.1-6.6c-0.8-3-2.6-5.5-5.4-6.5c-1.2-0.4-2.8-1-3.9-1.1
		c-0.5-0.1-1.6-0.2-1.6-0.2c-1.8-0.1-2.3-0.1-4.3-0.1c-5.5,0.1-11.5,1.1-17.3,0.8c-27.1,0.7-55.3-0.9-81.7-6.3
		c-1.7-0.4-3.7-0.8-4.6-2.3c-0.1-0.4,0.3-0.4,0.4-0.6c8.3,0.2,16.3,1.7,24.5,2l28.4,2c21,1.3,42,0.9,62.6,1.3
		c3.8,0.6,8.6,1.1,9.9,5.2c0.5,2.1-4.5,7.1-1.3,11.3l2.7,2.4C381.1,317.3,380.1,316.7,379.3,316.2L379.3,316.2z"/>
	<path fill="#003552" d="M287.3,265.9h3.1l5.4,13.8h-3l-1.2-3.2h-5.6l-1.2,3.2h-2.8L287.3,265.9z M288.8,268.6L288.8,268.6l-2.1,5.7
		h4L288.8,268.6z"/>
	<path fill="#003552" d="M303.5,265.9h4.5l3.3,10.5h0.1l3.3-10.5h4.5v13.8h-2.6v-11.4h-0.1l-3.7,11.4h-2.6l-3.7-11.4l-0.1,0.1v11.3
		h-2.6V265.9L303.5,265.9z"/>
	<path fill="#003552" d="M328.1,265.9h8.1v2.2h-5.4v3.4h4.9v2.2h-4.9v3.9h5.4v2.2h-8.2L328.1,265.9L328.1,265.9z"/>
	<path fill="#003552" d="M344.8,265.9h3c3,0,6.5-0.1,6.5,3.7c0,1.6-1.1,3-2.8,3.2v0.1c0.8,0.1,1.2,0.8,1.5,1.4l2.2,5.4H352l-1.6-4.3
		c-0.4-1-0.8-1.4-1.9-1.4h-0.9v5.7h-2.8L344.8,265.9L344.8,265.9z M347.5,271.7h0.9c1.3,0,2.9-0.2,2.9-1.9c0-1.6-1.6-1.8-2.9-1.8
		h-0.9V271.7z"/>
	<path fill="#003552" d="M362.7,265.9h2.8v13.8h-2.8V265.9z"/>
	<path fill="#003552" d="M384.4,279.4c-1,0.2-2.1,0.4-3.1,0.4c-4.5,0-7.6-2.3-7.6-6.9c0-4.7,2.9-7.4,7.6-7.4c0.9,0,2.1,0.1,3.1,0.6
		l-0.2,2.3c-1.1-0.6-2-0.7-3-0.7c-2.8,0-4.6,2.2-4.6,5c0,2.8,1.8,4.9,4.7,4.9c1.1,0,2.4-0.2,3-0.6L384.4,279.4z"/>
	<path fill="#003552" d="M396.4,265.9h3.1l5.4,13.8h-3l-1.2-3.2H395l-1.2,3.2h-2.9L396.4,265.9z M397.9,268.6L397.9,268.6l-2.1,5.7
		h4L397.9,268.6z"/>
	<path fill="#003552" d="M412.4,265.9h3.4l5.2,10.3h0.1v-10.3h2.6v13.8h-3.4l-5.3-10.3l0,0v10.3h-2.7L412.4,265.9L412.4,265.9z"/>
	<path fill="#003552" d="M454.2,279.4c-1,0.2-2.1,0.4-3.1,0.4c-4.5,0-7.6-2.3-7.6-6.9c0-4.7,2.9-7.4,7.6-7.4c0.9,0,2.1,0.1,3.1,0.6
		l-0.2,2.3c-1.1-0.6-2-0.7-3-0.7c-2.8,0-4.6,2.2-4.6,5c0,2.8,1.8,4.9,4.7,4.9c1.1,0,2.4-0.2,3-0.6L454.2,279.4z"/>
	<path fill="#003552" d="M462.2,265.9h2.8v11.6h5.4v2.2h-8.1V265.9z"/>
	<path fill="#003552" d="M481.9,265.9h3.1l5.4,13.8h-3l-1.2-3.2h-5.6l-1.2,3.2h-2.9L481.9,265.9z M483.5,268.6L483.5,268.6l-2.1,5.7
		h4L483.5,268.6z"/>
	<path fill="#003552" d="M505.6,268.4c-0.8-0.4-1.8-0.6-2.8-0.6c-0.9,0-2.2,0.4-2.2,1.9c0,2.4,6.1,1.4,6.1,6c0,3-2.4,4.2-5.2,4.2
		c-1.5,0-2.2-0.2-3.5-0.6l0.3-2.5c0.9,0.5,2.1,0.8,3.1,0.8c1.1,0,2.5-0.6,2.5-1.8c0-2.6-6.1-1.6-6.1-6.1c0-3,2.4-4.2,4.8-4.2
		c1.2,0,2.3,0.1,3.3,0.5L505.6,268.4z"/>
	<path fill="#003552" d="M522.5,268.4c-0.8-0.4-1.8-0.6-2.8-0.6c-0.9,0-2.2,0.4-2.2,1.9c0,2.4,6,1.4,6,6c0,3-2.4,4.2-5.2,4.2
		c-1.5,0-2.2-0.2-3.5-0.6l0.3-2.5c0.9,0.5,2.1,0.8,3.1,0.8c1.1,0,2.5-0.6,2.5-1.8c0-2.6-6.1-1.6-6.1-6.1c0-3,2.4-4.2,4.8-4.2
		c1.2,0,2.3,0.1,3.3,0.5L522.5,268.4z"/>
	<path fill="#003552" d="M531.8,265.9h2.8v13.8h-2.8V265.9z"/>
	<path fill="#003552" d="M553.5,279.4c-1,0.2-2.1,0.4-3.1,0.4c-4.5,0-7.6-2.3-7.6-6.9c0-4.7,2.9-7.4,7.6-7.4c0.9,0,2.1,0.1,3.1,0.6
		l-0.2,2.3c-1.1-0.6-2-0.7-3-0.7c-2.8,0-4.6,2.2-4.6,5c0,2.8,1.8,4.9,4.7,4.9c1.1,0,2.4-0.2,3-0.6L553.5,279.4z"/>
	<path fill="#003552" d="M581.4,297.2c-0.4,0.1-1.1,0.4-1.8,0.4c-17.1,3.7-35.3,4.8-53.5,5.7c0.4,0.6,0.9,1.4,0.5,2.3
		c-1.1,1.6-2.5,2.1-4.4,2.5c-1.8,0.4-3.8,0.5-5.7,0.4c1.1,0.7,1.8,2.1,1.1,3.3c-0.5,0.8-1.8,1.5-2.8,1.6c-1,0.2-4.8,0.1-4.8,0.1
		c0.2,0.3,0.6,0.6,0.9,0.8c0.8,0.9,1.3,2,0.3,3.2c-1.6,1.8-4.7,1-6.9,1.2c0.3,0.7,0.9,1.4,0.3,2.3c-1.6,2.3-5.3,1.5-7.5,1.2
		c0.4,1.2,0.1,2.5-0.8,3.3c-1.7,1.6-4.8,1.4-7.1,1.2c-3.1-0.1-5.9-1.6-8-2.7c-0.4-0.2-0.5-0.7-0.3-1.1l0.4-0.3
		c4.1,1.3,8.8,3.5,13.4,1.6c0.4-0.4,1-1.6,0.7-2.6c-0.7-0.2-2.3-0.8-2.3-0.8c-2.1-0.6-4.7-1.6-5.1-2.3c-0.1-0.4,0.1-0.6,0.4-0.6
		c4.3,1.4,9,2.8,13.8,2.8c0.7-0.1,1.4-1,0.5-2.3c-0.6-0.2-1.7-0.6-3.3-1c-1.9-0.6-3.7-1-5.6-2.5c0-0.4,0.1-0.9,0.6-0.8
		c4.4,1.3,8.6,3,13.6,2.8c0.6-0.3,1.2-0.6,1.1-1.6c-0.1-0.7-0.6-1.2-1.3-2.1c-2.5-0.7-7.6-1.8-9.7-2.8c-0.7-0.3-1.9-0.9-0.7-1.8
		c1.8,0.4,3.4,0.8,5.3,1.3c1.1,0.3,2.3,0.7,3.3,0.9c3.4,0.7,8,1.7,9.1-0.2c0.4-0.7-0.5-1.6-1.1-2.2c-2.7-0.1-6.3-0.4-10.1-0.9
		c-1.1-0.1-3.5-0.2-3.3-1.6l0.4-0.3c7.6,1.1,14.7,2,22.2,0.3c0.4-0.1,1.1-0.6,0.8-1.1c-0.1-0.6-0.3-0.8-0.8-1.3
		c-1.8,0-4.9,0.1-6.7,0.1c-5.7-0.1-11.2-0.3-16.5-0.1c0.1,0.9-0.1,2-0.8,2.7c-1.4,0.9-3.2,1.5-4.9,1.9c0.4,0.7,0.4,1.8,0.1,2.7
		c-1.3,1.4-3.4,2.4-5.4,2.8c0.5,0.6,0.3,1.3,0.1,2.1c-2.1,2.7-5.9,3.1-9.2,3.8c0.2,0.6,0.4,1.3-0.1,2c-0.8,1-1.9,1.6-3,2.1
		c-1.5,0.6-2.7,0.8-4.2,1.1c-0.5,0.1-1.1,0.1-1.4,0.1c0.4,1.3-0.2,2.3-0.8,3.2c-2.6,2-6.2,1.8-9.6,1.6c-2.1,4.2-6.6,2.5-10.6,2.4
		c-1.7-0.5-3.5-0.9-5.2-1.4c-0.3,1.3-0.6,2.7-0.9,4c-0.4,1.6-0.8,3.3-1.3,4.8c-0.4,3.6-1.6,7.1-2.9,10.3c-0.1,1.3,1.1,1.5,2.1,1.2
		c3.3-2.9,3.9-7.8,3.5-12.4c0.1-0.4,0.6-0.5,0.9-0.2c0.9,1.7,0.5,4.3,0.3,6.2c-0.4,2.3-1.1,4.6-2.4,6.6c0.4,0.5,1,0.9,1.8,0.9
		c3.3-0.6,4.6-4.8,5.4-7.8c0.3-1.2-0.4-3.3,0.4-4c0.2-0.1,0.7-0.3,0.9,0.4c0.9,4-0.5,7.4-2.3,10.9c0.4,1.1,1.2,1.8,2.4,1.8
		c2.8-0.1,4.1-2.6,4.9-5c0.5-1.8,0.2-3.4,0.4-5c0.1-0.7,0.1-1.9,0.6-2.1c0.8-0.1,0.8,0.8,0.8,1.3c0.4,2.5,0.2,5.4-0.4,7.8
		c1.1,0.7,1.6,2.1,3.3,1.5c3.7-2.6,4.6-7.4,4.3-12.2c0.2-0.1,0.6-0.4,0.9-0.1c0.7,2.5,0.4,6.1-0.3,8.5c0.7,1.1,0.9,1.7,2.3,1.9
		c1.5,0.4,2.5-0.4,3-1.6c1.8-3.5,0.6-8-0.5-11.4c0.4-0.8,0.7-0.3,1.1,0.1c1.2,2,1.5,4.5,2,6.8l0.3,0.3l0.4,0.4
		c0.8,0.8,1.4,0.8,2.3,1.2c1.4,0,2.2-1.3,2.5-2.5c0.4-3.4-1.2-6-2.5-8.7c0.4-1.1,1.3-0.3,1.8,0c2.2,1.6,4.5,3.2,6.8,4.5
		c2,1.1,3.8,2.1,6.1,2.1c0.6-0.1,0.9-1.3,0.7-2.3c-3.8-2-7.4-3.8-10.8-5.9c-0.3-0.6,0.4-0.6,0.6-0.9c7.5,3,14.1,8.2,22.3,9.3
		c0.6-0.1,1.1-0.8,0.8-2.1c-1.6-0.6-3.3-1.1-5.7-2c-4.2-1.6-8.6-3-12.5-5.5c-0.3-0.2-0.4-0.4-0.4-0.8c0.4-0.1,0.6-0.6,1.1-0.3
		c7.4,3,14.6,6.4,22.6,7.9c0,0,0.8,0.2,1.8,0.2c0.9,0,1.1,0.1,1.6-0.6c0.4-0.7-0.1-1.6-0.7-2.5c-3.5-0.9-7.4-2-10.7-3
		c-3.5-1.1-6.9-2-9.8-3.7c-0.2-0.4-0.1-1,0.4-1c7.9,3,16.2,5.5,25,6.5c3.1,0.4,6.2,0.8,9.5,0.4c0.5-0.1,0.4-0.6,0.3-1.1
		c-0.4-0.9-0.8-1.5-0.8-1.5c-2.3-0.4-6.3-1-8.8-1.5c-6.2-1.2-12.4-2.8-18-5.6c0-0.4,0-0.8,0.4-0.8c11.2,3,22.2,6.9,34.8,6.2
		c0,0,0.4,0.1,0.6-0.3c0.4-0.4,0.2-2-0.4-2.8c-2.7-0.1-6.9-0.2-11.3-0.9c-5.9-0.9-11.8-2.1-17.2-4.4c-0.3-0.1-0.1-0.4-0.1-0.6
		c0.8-0.6,1.9-0.1,2.8,0.1c9.7,2.8,18.6,4.2,29.4,4c2-0.1,3.7-0.4,5.1-1.6c0.5-0.8,0.1-1.3-0.4-2c0,0-1.6-0.1-2-0.1
		c-10-0.4-19.7-1.9-29.3-3.7c-0.2-0.1-0.1-0.5-0.1-0.8c1.3-0.8,3.3-0.1,5.2,0.3c4.4,0.8,8.8,1.1,13.4,1.6c6.8,0.6,13.6,0.8,20.5,0.6
		c0.5-0.2,0.9-0.5,0.7-1.3l-0.4-0.6c-3,0.2-6.7,0.3-9.8,0.2c-8.6-0.2-17.5-1.3-25.5-3.3c-0.3-0.3-0.4-0.7-0.1-1.1l0.6-0.6
		c8.1,2,17.3,3.1,26.3,3c5.8-0.1,11.7-0.1,16.8-1.8c0.6-0.2,0.8-0.6,0.4-1.1l-0.4-0.6c-11.9,1.3-25.7,1.1-37.3-0.8
		c-0.4-0.4-0.3-0.7-0.1-1.1l0.6-0.3c14.3,1.7,29.8,2.2,43.7-0.9c1-0.4,2.3-0.2,3-1.2c0.5-0.9-0.8-2-0.8-2c-3.5,0.6-7.8,1.3-11.4,1.6
		c-7.8,0.6-15.8,0.6-23.6,0.1c-2.3-0.1-5.9-0.4-6.2-1.1c-0.3-0.6,0.1-1,0.6-1.1c6.4,0.6,12.6,0.8,18.9,0.8c2.4,0,5-0.1,7.4-0.3
		c2.1-0.2,5.7-0.6,9-1.1c5.2-0.8,10.3-1.9,14.6-4.7C581,299.5,582,298.6,581.4,297.2z M486.7,329.4c-1.2,2.5-4.5,1.3-6.2,1.5
		c-0.7,0-1.4-0.2-2-0.4l0.1,0.9c-0.3,1.5-1.2,2-2.4,2.1c-1.6,0.2-3.9,0.1-4.9-0.3c0.3,1,0.2,2.5-0.8,2.8c-2,0.6-4.7,0.4-6.6-0.4
		c-0.1,0.7-0.2,1.3-0.6,1.8c-0.7,0.7-1.8,0.9-3,0.9c-2.1-0.1-3.7-0.6-5.4-1.2c-0.2-0.1-0.3-0.1-0.4-0.2c-0.9-0.6-2.5-1.1-3.5-2.2
		c-0.6-0.6-1.2-1.3-1.1-2.1c0.3-0.6,0.5-0.4,1.1-0.1c2.8,2.8,6.4,4.4,10.3,4.4c0.4-0.2,0.8-0.4,1-0.9c0.1-0.3,0.1-0.8,0.1-0.8
		s-0.9-0.5-1.3-0.7c-0.8-0.6-1.3-1-1.6-1.4c-0.1-0.3-0.3-1.1,0.3-1.1c1.5,1,3,2.1,4.7,2.5c0.9,0.3,1.9,0.4,2.5,0.6
		c0.9,0.1,1.8,0.1,2.5-0.6c0.4-0.8,0.1-1.1-0.1-1.8c-1.3-0.3-3.5-1.3-4.5-2.5c0-0.4,0.4-0.6,0.6-0.6c3,1.6,6.2,3,10,2.8
		c0.7-0.4,1.3-0.9,1.2-2c-1.1-1.9-3-2.2-4.8-3.7l0.3-0.8c2.5,0.7,4.6,2.3,7.2,2.8c1.8,0.4,4.4,1.1,6-0.1c0.7-0.7-0.4-1.5,0.1-2.3
		c0.4-0.1,0.5,0.2,0.8,0.4C487,327.4,486.9,328.6,486.7,329.4z"/>
	<path fill="#003552" d="M459.9,316.2c2.5-1.6,3-4.7,2.7-7.8c0.1-0.5,0.4-0.8,0.9-0.6c1.1,1.6,0.5,3.6,0.1,5.4
		c-0.3,0.8-0.4,1.3-0.8,2.1c0.6,0.3,1.6,0.3,1.9-0.1c1.2-1.8,0.5-4.5,1.1-6.6c0.8-3,2.6-5.5,5.4-6.5c1.2-0.4,2.8-1,3.9-1.1
		c0.5-0.1,1.6-0.2,1.6-0.2c1.8-0.1,2.3-0.1,4.3-0.1c5.5,0.1,11.5,1.1,17.3,0.8c27.1,0.7,55.3-0.9,81.7-6.3c1.7-0.4,3.6-0.5,4.6-2.3
		c0.1-0.4,0-0.6-0.4-0.6c-8.3,0.2-16.3,1.7-24.5,2c0,0-8.3,0.7-14,1.1c-5.7,0.4-14.4,0.9-14.4,0.9c-21,1.3-42,0.9-62.6,1.3
		c-3.8,0.6-8.6,1.1-9.9,5.2c-0.4,2.1,4.5,7.1,1.3,11.3l-2.7,2.4C458.1,317.3,459.1,316.7,459.9,316.2L459.9,316.2z"/>
	<polygon fill="#003552" points="415.8,314.4 418.4,312.4 421.7,314.4 	"/>
	<path fill="#003552" d="M404.9,321c0,0-3,1-4.1,1.3c-1.1,0.3-4.2,0.7-4.2,0.7h46.8c0,0-2.8-0.4-4.7-0.8c-1.8-0.4-4.2-1.2-4.2-1.2
		H404.9L404.9,321z"/>
	<polygon fill="#003552" points="410.7,318.1 406.7,320.2 432.3,320.2 427.7,318.1 	"/>
	<polygon fill="#003552" points="415,315.3 411.6,317.3 426.2,317.3 423,315.3 	"/>
	<g>
		<polygon fill="#003552" points="421.9,366.6 424,365.3 424,338 421.9,338 		"/>
		<polygon fill="#003552" points="418.9,368.3 420.9,367.1 420.9,339.7 420.6,340.4 418.9,340.4 		"/>
		<polygon fill="#003552" points="424.9,364.6 426.9,362.9 426.9,340.4 424.9,340.4 		"/>
		<polygon fill="#003552" points="428,362.1 430,360.2 430,338 428,338 		"/>
		<polygon fill="#003552" points="431,358.9 433,356.5 433,340.4 431,340.4 		"/>
		<polygon fill="#003552" points="434.1,355 436,352.2 436,340.4 434.1,340.4 		"/>
		<polygon fill="#003552" points="440.1,345.9 442.1,339.5 442.1,338 440.1,338 		"/>
		<polygon fill="#003552" points="416.1,367.1 418.1,368.3 418.1,340.4 417.3,340.4 416.5,338 416.1,338 		"/>
		<polygon fill="#003552" points="413.1,365.3 415,366.5 415,338 413.9,338 414,340.4 413.1,340.4 		"/>
		<polygon fill="#003552" points="410,362.9 412.1,364.6 412.1,340.4 410.4,340.4 410.4,338 410,338 		"/>
		<polygon fill="#003552" points="407.1,360.5 409,362.2 409,338.1 407.1,338.1 		"/>
		<polygon fill="#003552" points="404,356.9 406,359.3 406,338.1 404,338.1 		"/>
		<polygon fill="#003552" points="401,352.3 403,355.7 403,338.1 401.9,338.1 401.9,340.4 401,340.4 		"/>
		<path fill="#003552" d="M397.9,346.7c0,0,0.5,1.2,0.8,1.9c0.4,0.7,1.1,2.2,1.1,2.2v-10.4h-1.8v-2.2h-0.3L397.9,346.7L397.9,346.7z
			"/>
		<path fill="#003552" d="M394.9,339.7c0,0,0.5,1.4,0.9,2.5c0.4,1.1,1.1,2.6,1.1,2.6v-6.7h-2L394.9,339.7L394.9,339.7L394.9,339.7z"
			/>
		<polygon fill="#003552" points="433.8,337.3 442.6,337.3 443.1,335.4 433.8,335.4 		"/>
		<polygon fill="#003552" points="394,335.4 394.4,337.3 398.2,337.3 398.2,335.4 		"/>
		<rect x="427.8" y="335.4" fill="#003552" width="2.4" height="2"/>
		<path fill="#003552" d="M410.4,337.3v-2h-5.2c-0.6,0.1-1.1,0.2-1.8,0.2h-1.4v1.8L410.4,337.3L410.4,337.3z"/>
		<polygon fill="#003552" points="419.2,335.4 418.9,335.4 419.1,335.7 419.1,335.7 		"/>
		<polygon fill="#003552" points="416.3,337.3 415.7,335.4 413.9,335.4 413.9,337.3 		"/>
		<polygon fill="#003552" points="421.7,337.3 424.2,337.3 424.2,335.4 422.3,335.4 		"/>
		<polygon fill="#003552" points="424.2,334.5 424.2,332.5 423.2,332.5 422.6,334.5 		"/>
		<polygon fill="#003552" points="393.5,332.5 393.8,334.5 398.2,334.5 398.2,332.5 		"/>
		<path fill="#003552" d="M401.9,332.5v0.4h0.9c0.6,0,1.2-0.1,1.6-0.4H401.9z"/>
		<path fill="#003552" d="M407.1,334.5h3.2v-2h-1.8C408.3,333.3,407.8,333.9,407.1,334.5z"/>
		<polygon fill="#003552" points="415.4,334.5 414.8,332.5 413.9,332.5 413.9,334.5 		"/>
		<polygon fill="#003552" points="418.6,334.5 419.6,334.5 420.2,332.5 418,332.5 		"/>
		<rect x="427.8" y="332.5" fill="#003552" width="2.4" height="2"/>
		<polygon fill="#003552" points="443.4,334.5 443.9,332.5 439.5,332.5 439.5,334.5 		"/>
		<polygon fill="#003552" points="414.5,331.6 413.9,329.8 413.9,329.8 413.9,331.6 		"/>
		<polygon fill="#003552" points="424.2,331.6 424.2,329.8 424.2,329.8 423.6,331.6 		"/>
		<polygon fill="#003552" points="421.2,329.6 417.1,329.6 417.7,331.6 420.5,331.6 		"/>
		<polygon fill="#003552" points="393.1,329.6 393.3,331.6 398.2,331.6 398.2,329.6 		"/>
		<rect x="427.8" y="329.6" fill="#003552" width="2.4" height="2"/>
		<path fill="#003552" d="M404.5,329.6h-2.6v2h3.2c0.1-0.2,0.1-0.4,0.1-0.6C405.1,330.3,404.9,329.9,404.5,329.6z"/>
		<path fill="#003552" d="M410.4,331.6v-2h-1.8c0.1,0.4,0.2,0.9,0.2,1.5c0,0.2,0,0.4,0,0.5L410.4,331.6L410.4,331.6z"/>
		<polygon fill="#003552" points="444.1,331.6 444.5,329.6 433.8,329.6 433.8,331.6 		"/>
		<rect x="427.8" y="326.7" fill="#003552" width="2.4" height="2"/>
		<polygon fill="#003552" points="392.7,326.7 392.9,328.7 398.2,328.7 398.2,326.7 		"/>
		<path fill="#003552" d="M410.4,326.7h-5.5c1.6,0.3,2.8,0.9,3.4,2h2.1V326.7z"/>
		<polygon fill="#003552" points="444.6,328.7 444.9,326.7 439.9,326.7 439.9,328.7 		"/>
		<polygon fill="#003552" points="421.5,328.7 422.1,326.7 416.2,326.7 416.9,328.7 		"/>
		<polygon fill="#003552" points="392.5,323.9 392.7,325.9 444.9,325.9 445.2,323.9 		"/>
		<polygon fill="#003552" points="437.2,350.4 439.2,347 439.2,340.4 437.2,340.4 		"/>
	</g>
	<path fill="#003552" d="M392,323.1c-3-0.7-5.7-1.9-8.1-4c-2.4,0.1-5-0.6-6.5-2.4c-0.3,0.7-1.1,1.2-1.9,1.2
		c-0.9-0.1-1.9-0.4-2.7-1.3c-2.3-3.8,0.4-9.2-3.9-12.2c-7.8-4.2-18.3-1-27.2-1.2l-0.4,0.3c-0.3,0.7,0.7,1.1,0.9,1.4
		c7.2,2,14.3,1.8,22.3,1.8c0.7,0.1,1.1,0.1,1.2,0.8c0.1,0.7-0.1,0.6-0.5,0.8c-6.2-0.1-12.2,1-18,0c-0.4,0.6-0.1,1.3,0.2,1.8
		c4.2,3.3,10.3,2.5,15.9,2.8c1.2,0,2.5-0.4,3.7-0.4c0.7,0,1.5,0,1.9,0.4c0.2,0.4,0.1,0.8-0.3,1.1c-5.4,0.6-11.2,0.7-16.4-0.1
		c-0.5,0.4,0.1,1.1,0.5,1.4c4.9,3.2,12,2.3,17.8,2.3c0,0,0.5-0.1,0.8,0.4s0.2,0.6-0.1,0.9c-3.2,0.4-6.7,0.6-10.2,0.6
		c0,0-0.3,0.6,0,0.8c0.3,0.3,1.7,0.8,2.6,1.2c3.5,1.3,7.6,1.1,11.7,1.1l0.4,0.3c0.2,0.4,0.6,0.8,0.3,1.2c-1.9,1.1-4,0.4-6.2,0.8
		c-0.2,0.4-0.2,1.2,0.1,1.6c2.9,2,7.4,2,11,1.1c0.9-0.1,2.3-1.4,2.8-0.1c-0.8,1.4-2.5,1.2-3.8,1.7c0.9,1.7,3.3,1.3,5.1,1.3
		c3-0.6,4.5-0.6,6.2-1.2c-0.3-1.8-0.4-3.7-0.6-5.6C391.2,323.3,391.6,323.2,392,323.1z"/>
	<path fill="#003552" d="M396.9,350.6c0.5,0.1,1,0.2,1.4,0.1c-2.1-3.7-3.7-7.7-4.9-12C393.1,343.1,393.8,347.8,396.9,350.6z"/>
	<path fill="#003552" d="M392.3,344.2c-0.2-2-0.6-4.5,0.3-6.2c0.2-0.2,0.5-0.2,0.7-0.1c-0.6-2.3-1.1-4.5-1.5-6.9
		c-1,0.3-1.9,0.5-2.9,0.8c-4,0.1-8.5,1.8-10.6-2.4c-3.4,0.2-7,0.4-9.6-1.6c-0.6-0.9-1.2-1.8-0.8-3.2c-0.4,0-0.9-0.1-1.4-0.1
		c-1.5-0.3-2.8-0.4-4.2-1.1c-1.1-0.4-2.1-1.1-3-2.1c-0.6-0.7-0.4-1.4-0.1-2c-3.3-0.6-7.1-1.1-9.2-3.8c-0.1-0.8-0.4-1.4,0.1-2.1
		c-2.1-0.4-4.1-1.3-5.4-2.8c-0.4-0.8-0.4-2,0.1-2.7c-1.8-0.4-3.5-0.9-4.9-1.9c-0.6-0.7-0.9-1.8-0.8-2.7c-5.3-0.1-10.8,0.1-16.5,0.1
		c-1.8,0-4.9,0-6.7-0.1c-0.6,0.5-0.7,0.7-0.8,1.3c-0.2,0.6,0.4,1,0.8,1.1c7.5,1.7,14.6,0.8,22.2-0.3l0.4,0.3
		c0.1,1.4-2.2,1.6-3.3,1.6c-3.8,0.5-7.4,0.8-10.1,0.9c-0.6,0.6-1.5,1.5-1.1,2.2c1.1,1.9,5.7,0.9,9.2,0.2c0.9-0.2,2.3-0.6,3.3-0.9
		c2-0.4,3.5-0.9,5.3-1.3c1.2,0.8,0,1.6-0.6,1.8c-2.1,1-7.2,2.1-9.7,2.8c-0.7,0.9-1.2,1.3-1.3,2.1c-0.1,0.9,0.5,1.3,1.1,1.6
		c5,0.1,9.3-1.5,13.6-2.8c0.4-0.1,0.6,0.4,0.6,0.8c-2,1.6-3.7,2-5.6,2.5c-1.5,0.4-2.5,0.7-3.3,1c-0.9,1.3-0.2,2.3,0.5,2.3
		c4.8,0,9.4-1.4,13.8-2.8c0.3,0,0.5,0.3,0.4,0.6c-0.4,0.7-3,1.7-5.1,2.3c0,0-1.6,0.6-2.3,0.8c-0.3,1,0.3,2.3,0.7,2.6
		c4.5,1.8,9.3-0.4,13.4-1.6l0.4,0.3c0.2,0.4,0.1,0.8-0.3,1.1c-2.1,1.1-4.9,2.5-8,2.7c-2.3,0.2-5.4,0.4-7.1-1.2
		c-0.9-0.8-1.2-2.2-0.8-3.3c-2.2,0.2-5.8,1.1-7.5-1.2c-0.6-0.8,0-1.6,0.3-2.3c-2.1-0.1-5.3,0.6-6.9-1.2c-1-1.2-0.4-2.3,0.3-3.2
		c0.3-0.3,0.7-0.6,0.9-0.8c0,0-3.9,0.1-4.8-0.1c-1-0.2-2.3-0.8-2.8-1.6c-0.6-1.3,0-2.7,1.1-3.3c-1.8,0.1-3.9-0.1-5.7-0.4
		c-1.8-0.4-3.3-0.9-4.4-2.5c-0.4-0.8,0.1-1.6,0.5-2.3c-18.2-0.9-36.3-2-53.5-5.7c-0.6-0.1-1.6-0.4-1.8,0c-0.4,1.2,0.9,1.8,1.6,2.7
		c4.4,2.9,9.4,4,14.6,4.7c3.3,0.6,6.9,0.8,9,1.1c2.3,0.1,4.9,0.3,7.4,0.3c6.4,0.1,12.5-0.2,18.9-0.8c0.6,0.1,0.9,0.4,0.6,1.1
		c-0.3,0.7-3.9,0.9-6.2,1.1c-7.8,0.5-15.8,0.6-23.6-0.1c-3.6-0.3-7.9-1-11.4-1.6c0,0-1.3,1.1-0.8,2c0.6,1,2,0.8,3,1.2
		c13.9,3.1,29.5,2.6,43.7,0.9l0.6,0.3c0.1,0.4,0.3,0.6-0.1,1.1c-11.7,1.8-25.3,2.1-37.3,0.8l-0.4,0.6c-0.4,0.5-0.1,0.8,0.4,1.1
		c13.6,3,29.9,2,43.2-1.2l0.6,0.6c0.1,0.4,0.1,0.8-0.1,1.1c-8.9,2.1-18.9,3.3-28.4,3.3c-2.1,0-4.7-0.1-6.8-0.2c0,0,0,0.1-0.4,0.6
		c-0.3,0.5-0.2,1.2,0.6,1.3c6.9,0.3,13.7,0,20.5-0.6c4.5-0.4,9-0.8,13.4-1.6c1.9-0.4,3.9-1.1,5.2-0.3c0,0.3,0.1,0.6-0.1,0.8
		c-9.5,1.8-19.3,3.4-29.3,3.7c-0.4,0-2,0.1-2,0.1c-0.5,0.6-0.9,1.2-0.4,2c1.4,1.2,3,1.3,4.9,1.6c10.8,0.3,19.8-1.2,29.6-3.9
		c0.9-0.2,2-0.6,2.8-0.1c0,0.2,0.1,0.5-0.1,0.6c-5.4,2.3-11.4,3.5-17.2,4.4c-4.3,0.7-8.6,0.8-11.3,0.9c-0.6,0.8-0.8,2.4-0.5,2.8
		c0.3,0.4,0.6,0.3,0.6,0.3c12.6,0.7,23.5-3.2,34.8-6.2c0.4,0,0.4,0.4,0.4,0.8c-5.6,2.8-11.8,4.4-18,5.6c-2.5,0.5-6.5,1.1-8.8,1.5
		c0,0-0.4,0.6-0.8,1.5c-0.1,0.4-0.2,1,0.3,1.1c3.3,0.5,6.4,0,9.5-0.4c8.8-0.9,17-3.5,25-6.5c0.5,0,0.6,0.6,0.4,1
		c-3,1.8-6.4,2.7-9.8,3.7c-3.5,1.1-7.3,2.1-10.7,3c-0.6,0.9-1.2,1.8-0.7,2.5c0.5,0.7,0.6,0.6,1.6,0.6s1.8-0.2,1.8-0.2
		c8-1.5,15.3-4.8,22.6-7.9c0.4-0.4,0.7,0.1,1.1,0.3c0,0.4-0.1,0.6-0.4,0.8c-3.9,2.5-8.3,4-12.5,5.5c-2.4,0.9-4,1.4-5.7,2
		c-0.3,1.3,0.2,2,0.8,2.1c8.3-1.2,14.8-6.3,22.3-9.3c0.2,0.4,0.9,0.4,0.6,0.9c-3.5,2.2-7,4-10.8,5.9c-0.1,0.9,0.1,2.2,0.7,2.3
		c2.3,0,4.2-1,6.1-2.1c2.3-1.3,4.6-3,6.8-4.5c0.5-0.3,1.4-1.1,1.8,0c-1.3,2.7-2.8,5.3-2.5,8.7c0.4,1.2,1.1,2.5,2.5,2.5
		c0.9-0.4,1.5-0.4,2.3-1.2l0.4-0.4l0.2-0.3c0.5-2.3,0.8-4.8,2-6.8c0.4-0.4,0.7-0.8,1.1-0.1c-1.2,3.4-2.3,7.9-0.5,11.4
		c0.5,1.2,1.4,2,3,1.6c1.3-0.2,1.6-0.8,2.3-1.9c-0.6-2.5-1-6-0.3-8.5c0.3-0.4,0.6,0,0.9,0.1c-0.3,4.8,0.6,9.6,4.3,12.2
		c1.6,0.6,2.1-0.8,3.3-1.5c-0.6-2.5-0.6-5.4-0.4-7.8c0-0.6,0.1-1.4,0.8-1.3c0.5,0.1,0.5,1.3,0.6,2.1c0.1,1.6-0.1,3.3,0.4,5
		c0.7,2.4,2,4.9,4.9,5c1.2,0,2-0.8,2.4-1.8c-1.8-3.5-3.3-6.9-2.3-10.9c0.1-0.6,0.7-0.5,0.9-0.4c0.8,0.7,0.1,2.8,0.4,4
		c0.8,3,2,7.3,5.4,7.8c0.8,0.1,1.4-0.4,1.8-0.9C393.3,348.7,392.7,346.5,392.3,344.2z M388.4,334.9c-1.1,1.1-2.6,1.5-3.5,2.2
		c-0.1,0.1-0.3,0.1-0.4,0.2c-1.7,0.6-3.3,1.1-5.4,1.2c-1.2,0.1-2.3-0.2-3-0.9c-0.4-0.6-0.6-1.1-0.6-1.8c-2,0.7-4.7,1-6.6,0.4
		c-1.1-0.4-1.1-1.8-0.8-2.8c-1.1,0.4-3.3,0.5-4.9,0.3c-1.2-0.1-2.2-0.6-2.4-2.1l0.1-0.9c-0.6,0.1-1.3,0.4-2,0.4
		c-1.7-0.1-5,0.9-6.2-1.5c-0.1-0.8-0.4-1.9,0.3-2.5c0.3-0.1,0.4-0.6,0.8-0.4c0.6,0.8-0.6,1.6,0.1,2.3c1.7,1.2,4.2,0.4,6,0.1
		c2.5-0.6,4.7-2.1,7.2-2.8l0.3,0.8c-1.7,1.6-3.7,1.8-4.8,3.7c-0.1,1.1,0.4,1.6,1.2,2c3.8,0.2,7-1.2,10-2.8c0.2,0.1,0.6,0.2,0.6,0.6
		c-0.9,1.1-3.2,2.1-4.5,2.5c-0.2,0.7-0.5,1-0.1,1.8c0.7,0.7,1.6,0.7,2.5,0.6c0.6-0.1,1.6-0.3,2.5-0.6c1.7-0.5,3.2-1.6,4.7-2.5
		c0.6,0,0.4,0.8,0.3,1.1c-0.4,0.4-0.8,0.8-1.6,1.4c-0.4,0.2-1.3,0.7-1.3,0.7s0.1,0.6,0.1,0.8c0.1,0.6,0.6,0.7,1,0.9
		c3.8,0,7.5-1.6,10.3-4.4c0.6-0.2,0.8-0.5,1.1,0.1C389.6,333.6,389,334.3,388.4,334.9z"/>
	<g>
		<polygon fill="#003552" points="415.8,314.4 418.4,312.4 421.7,314.4 		"/>
	</g>
	<path fill="#003552" d="M245.9,217.4h11.7c11.2,0,16.5,3.8,16.5,12.1c0,7.4-5.4,11.9-14.6,11.9h-3.7v12.9h-9.8V217.4z M255.7,234.5
		h2.5c3.4,0,6.1-1.2,6.1-5.1c0-3.7-2.7-4.9-6.1-4.9h-2.5V234.5z"/>
	<path fill="#003552" d="M278.4,217.4h15.5l7.8,24.5h0.1l8.2-24.5h14.8v36.8h-9.6l0.1-28.3h-0.1l-9.4,28.3h-9.1l-9-28.3h-0.1
		l0.2,28.3h-9.5V217.4z"/>
	<path fill="#003552" d="M331.2,217.4h25.9v6.9H341v7.6h15.3v6.9H341v8.3h16.7v7h-26.5V217.4z"/>
	<path fill="#003552" d="M379.8,217.4h9.8V247h15.2v7.3h-25V217.4z"/>
	<path fill="#003552" d="M408.9,217.4h25.9v6.9h-16.1v7.6h15.2v6.9h-15.3v8.3h16.8v7h-26.5V217.4z"/>
	<path fill="#003552" d="M475.4,253.2c-6.2,1.6-10.9,1.7-14.2,1.7c-9.8,0-21.1-4.9-21.1-18.9c0-13.9,9.8-19.2,23.3-19.2
		c2.4,0,7.6,0.3,11.1,1.6l-0.8,8c-3-1.8-6.6-2.4-9-2.4c-8,0-14.5,3.3-14.5,11.9c0,7.2,5.1,11.6,12.3,11.6c1.3,0,2.6-0.2,3.5-0.6
		v-7.2h-5.7v-6.9h15.3L475.4,253.2L475.4,253.2z"/>
	<path fill="#003552" d="M482.1,217.4h25.9v6.9H492v7.6h15.3v6.9H492v8.3h16.7v7h-26.5L482.1,217.4L482.1,217.4z"/>
	<path fill="#003552" d="M514.8,217.4h12.4l12.4,25h0.1l-0.1-25h9v36.8h-12.2l-12.9-25.2h-0.1l0.3,25.2h-9L514.8,217.4L514.8,217.4z
		"/>
	<path fill="#003552" d="M555.7,217.4H569c12.8,0,21.8,4,21.8,18.2c0,13.8-9.3,18.6-21.8,18.6h-13.4V217.4L555.7,217.4z M565.5,247
		h3.8c7.4,0,11.5-3.8,11.5-11.1c0-7.4-4.2-11.1-11.5-11.1h-3.8V247z"/>
</g>
</svg>
