<?xml version="1.0" encoding="utf-8"?>
<!-- Generator: Adobe Illustrator 17.1.0, SVG Export Plug-In . SVG Version: 6.00 Build 0)  -->
<!DOCTYPE svg PUBLIC "-//W3C//DTD SVG 1.1//EN" "http://www.w3.org/Graphics/SVG/1.1/DTD/svg11.dtd">
<svg version="1.1" id="Calque_1" xmlns="http://www.w3.org/2000/svg" xmlns:xlink="http://www.w3.org/1999/xlink" x="0px" y="0px"
	 viewBox="0 0 595.3 841.9" enable-background="new 0 0 595.3 841.9" xml:space="preserve">
<g>
	<path fill="#1D1D1B" d="M344.5,467.1c2.4,0,5.8,0.5,7.2-1.9c-1.8-0.8-4.3-0.5-5.4-2.4c0.8-1.7,2.7,0.1,3.9,0.2
		c5,1.2,11.4,1.3,15.5-1.6c0.5-0.6,0.5-1.6,0.2-2.2c-3.1-0.5-6,0.4-8.7-1.2c-0.5-0.5,0.1-1.2,0.4-1.7l0.6-0.4
		c5.7,0,11.6,0.3,16.6-1.5c1.3-0.5,3.3-1.3,3.7-1.7c0.4-0.4,0-1.2,0-1.2c-5,0.2-9.9-0.3-14.4-0.8c-0.4-0.5-0.6-0.7-0.2-1.3
		c0.4-0.6,1.1-0.5,1.1-0.5c8.2,0,18.2,1.3,25.2-3.2c0.6-0.5,1.4-1.4,0.7-2c-7.5,1.2-15.6,0.9-23.2,0.2c-0.6-0.3-0.7-1-0.4-1.5
		c0.5-0.5,1.7-0.6,2.7-0.6c1.7,0,3.6,0.5,5.3,0.5c8-0.2,16.6,0.8,22.5-3.9c0.4-0.7,0.8-1.7,0.3-2.5c-8.4,1.4-16.9-0.2-25.5,0
		c-0.5-0.2-0.8-0.1-0.7-1.1c0.2-0.9,0.6-0.9,1.7-1.1c11.3,0,21.4,0.3,31.6-2.5c0.3-0.5,1.7-1,1.3-2l-0.6-0.4
		c-12.4,0.3-27.3-4.3-38.4,1.7c-6.1,4.2-2.3,11.8-5.5,17.2c-1.1,1.4-2.5,1.8-3.8,1.9c-1.2,0-2.3-0.6-2.7-1.7
		c-2.1,2.5-5.8,3.6-9.2,3.4c-3.6,3.2-8,5-12.7,5.9c-0.2,2.1-0.4,3.9-0.9,6.8c0.9,0.5,1.8,0.9,2.8,1.2
		C338,466.2,340,466.3,344.5,467.1z"/>
	<path fill="#1D1D1B" d="M238.7,447.2c-3.6-2.3-4.2-6.7-3.8-11.1c-0.2-0.7-0.6-1.1-1.3-0.8c-1.5,2.2-0.7,5.1-0.2,7.6
		c0.4,1.2,0.6,1.9,1.2,2.9c-0.9,0.4-2.3,0.4-2.7-0.2c-1.6-2.6-0.7-6.3-1.5-9.3c-1.1-4.3-3.7-7.8-7.6-9.2c-1.7-0.6-4-1.4-5.5-1.6
		c-0.7-0.1-2.3-0.3-2.3-0.3c-2.6-0.2-3.3-0.1-6.1-0.1c-7.8,0.1-16.3,1.5-24.5,1.2c-38.3,1-78.2-1.3-115.5-8.9
		c-2.4-0.5-5.2-1.1-6.5-3.2c-0.2-0.5,0.4-0.6,0.6-0.9c11.8,0.3,23.1,2.4,34.6,2.8l40.1,2.8c29.7,1.8,59.4,1.3,88.5,1.9
		c5.4,0.8,12.2,1.5,14,7.4c0.7,2.9-6.3,10.1-1.9,16l3.8,3.4C241.3,448.8,239.9,447.9,238.7,447.2L238.7,447.2z"/>
	<path fill="#1D1D1B" d="M108.6,376h4.4l7.6,19.5h-4.3l-1.7-4.5h-7.9l-1.7,4.5h-4L108.6,376z M110.7,379.9L110.7,379.9l-2.9,8h5.7
		L110.7,379.9z"/>
	<path fill="#1D1D1B" d="M131.5,376h6.3l4.6,14.8h0.1l4.6-14.8h6.3v19.5h-3.7v-16.1h-0.1l-5.3,16.1h-3.7l-5.3-16.1l-0.1,0.1v16h-3.7
		L131.5,376L131.5,376z"/>
	<path fill="#1D1D1B" d="M166.3,376h11.5v3.1h-7.6v4.8h7v3.1h-7v5.5h7.7v3.1h-11.6L166.3,376L166.3,376z"/>
	<path fill="#1D1D1B" d="M189.9,376h4.2c4.2,0,9.2-0.1,9.2,5.3c0,2.3-1.5,4.2-4,4.5v0.1c1.1,0.1,1.7,1.1,2.1,2l3.1,7.6h-4.4
		l-2.3-6.1c-0.6-1.4-1.1-2-2.7-2h-1.3v8.1h-3.9L189.9,376L189.9,376z M193.8,384.3h1.3c1.9,0,4.1-0.3,4.1-2.7c0-2.3-2.2-2.5-4.1-2.5
		h-1.3V384.3z"/>
	<path fill="#1D1D1B" d="M215.3,376h3.9v19.5h-3.9V376z"/>
	<path fill="#1D1D1B" d="M246,395.2c-1.4,0.3-3,0.6-4.4,0.6c-6.3,0-10.7-3.2-10.7-9.8c0-6.7,4.1-10.4,10.7-10.4c1.3,0,3,0.2,4.4,0.8
		l-0.3,3.3c-1.5-0.8-2.8-1-4.2-1c-4,0-6.5,3.1-6.5,7.1c0,4,2.5,7,6.6,7c1.5,0,3.4-0.3,4.3-0.8L246,395.2z"/>
	<path fill="#1D1D1B" d="M262.9,376h4.4l7.7,19.5h-4.3L269,391h-8l-1.7,4.5h-4.1L262.9,376z M265,379.9L265,379.9l-2.9,8h5.7
		L265,379.9z"/>
	<path fill="#1D1D1B" d="M285.6,376h4.8l7.4,14.6h0.1V376h3.7v19.5h-4.8l-7.5-14.6l0,0v14.6h-3.8L285.6,376L285.6,376z"/>
	<path fill="#1D1D1B" d="M344.7,395.2c-1.4,0.3-3,0.6-4.4,0.6c-6.3,0-10.7-3.2-10.7-9.8c0-6.7,4.1-10.4,10.7-10.4
		c1.3,0,3,0.2,4.4,0.8l-0.3,3.3c-1.5-0.8-2.8-1-4.2-1c-4,0-6.5,3.1-6.5,7.1c0,4,2.5,7,6.6,7c1.5,0,3.4-0.3,4.3-0.8L344.7,395.2z"/>
	<path fill="#1D1D1B" d="M356,376h3.9v16.4h7.6v3.1H356V376z"/>
	<path fill="#1D1D1B" d="M383.9,376h4.4l7.7,19.5h-4.3L390,391h-7.9l-1.7,4.5h-4.1L383.9,376z M386.1,379.9L386.1,379.9l-2.9,8h5.7
		L386.1,379.9z"/>
	<path fill="#1D1D1B" d="M417.4,379.6c-1.2-0.5-2.6-0.8-4-0.8c-1.3,0-3.1,0.6-3.1,2.7c0,3.4,8.6,2,8.6,8.5c0,4.3-3.4,5.9-7.3,5.9
		c-2.1,0-3.1-0.3-5-0.8l0.4-3.5c1.3,0.7,2.9,1.2,4.4,1.2c1.5,0,3.5-0.8,3.5-2.5c0-3.7-8.6-2.2-8.6-8.6c0-4.3,3.4-5.9,6.8-5.9
		c1.7,0,3.2,0.2,4.7,0.7L417.4,379.6z"/>
	<path fill="#1D1D1B" d="M441.3,379.6c-1.2-0.5-2.6-0.8-4-0.8c-1.3,0-3.1,0.6-3.1,2.7c0,3.4,8.5,2,8.5,8.5c0,4.3-3.4,5.9-7.3,5.9
		c-2.1,0-3.1-0.3-5-0.8l0.4-3.5c1.3,0.7,2.9,1.2,4.4,1.2c1.5,0,3.5-0.8,3.5-2.5c0-3.7-8.6-2.2-8.6-8.6c0-4.3,3.4-5.9,6.8-5.9
		c1.7,0,3.2,0.2,4.7,0.7L441.3,379.6z"/>
	<path fill="#1D1D1B" d="M454.4,376h3.9v19.5h-3.9V376z"/>
	<path fill="#1D1D1B" d="M485.1,395.2c-1.4,0.3-3,0.6-4.4,0.6c-6.3,0-10.7-3.2-10.7-9.8c0-6.7,4.1-10.4,10.7-10.4
		c1.3,0,3,0.2,4.4,0.8l-0.3,3.3c-1.5-0.8-2.8-1-4.2-1c-4,0-6.5,3.1-6.5,7.1c0,4,2.5,7,6.6,7c1.5,0,3.4-0.3,4.3-0.8L485.1,395.2z"/>
	<path fill="#1D1D1B" d="M524.6,420.3c-0.5,0.2-1.6,0.5-2.6,0.6c-24.2,5.3-49.9,6.8-75.6,8.1c0.6,0.9,1.3,2,0.7,3.2
		c-1.5,2.2-3.6,3-6.2,3.6c-2.5,0.5-5.4,0.7-8,0.6c1.6,1,2.6,2.9,1.6,4.7c-0.7,1.2-2.5,2.1-3.9,2.3c-1.4,0.3-6.8,0.1-6.8,0.1
		c0.3,0.4,0.9,0.8,1.3,1.2c1.1,1.3,1.9,2.8,0.4,4.5c-2.2,2.5-6.7,1.4-9.7,1.7c0.4,1,1.3,2,0.4,3.2c-2.3,3.3-7.5,2.1-10.6,1.7
		c0.5,1.7,0.1,3.6-1.2,4.7c-2.4,2.3-6.8,2-10,1.7c-4.4-0.2-8.4-2.2-11.3-3.8c-0.6-0.3-0.7-1-0.4-1.5l0.6-0.4
		c5.8,1.8,12.5,4.9,18.9,2.3c0.6-0.5,1.4-2.3,1-3.7c-1-0.3-3.2-1.1-3.2-1.1c-3-0.9-6.7-2.2-7.2-3.3c-0.2-0.5,0.2-0.9,0.5-0.9
		c6.1,2,12.7,3.9,19.5,3.9c1-0.1,2-1.4,0.7-3.3c-0.9-0.3-2.4-0.8-4.6-1.4c-2.7-0.8-5.2-1.4-7.9-3.6c0-0.5,0.2-1.3,0.8-1.1
		c6.2,1.8,12.2,4.2,19.3,3.9c0.8-0.4,1.7-0.9,1.5-2.3c-0.1-1-0.8-1.7-1.8-2.9c-3.5-1-10.8-2.6-13.7-4c-1-0.4-2.7-1.3-1-2.5
		c2.6,0.5,4.8,1.1,7.5,1.8c1.5,0.4,3.3,1,4.7,1.3c4.8,1,11.3,2.4,12.9-0.3c0.6-1-0.7-2.3-1.5-3.1c-3.8-0.2-8.9-0.6-14.3-1.3
		c-1.5-0.2-4.9-0.3-4.6-2.3l0.6-0.4c10.8,1.5,20.8,2.8,31.4,0.4c0.5-0.2,1.5-0.8,1.1-1.6c-0.2-0.9-0.4-1.2-1.2-1.9
		c-2.5,0-7,0.1-9.5,0.1c-8-0.1-15.9-0.4-23.4-0.2c0.2,1.3-0.2,2.8-1.1,3.8c-2,1.3-4.5,2.1-7,2.7c0.6,1,0.6,2.6,0.2,3.8
		c-1.9,2-4.8,3.4-7.7,3.9c0.7,0.9,0.4,1.9,0.2,3c-3,3.8-8.4,4.4-13,5.4c0.3,0.9,0.6,1.8-0.2,2.8c-1.2,1.4-2.7,2.3-4.3,2.9
		c-2.1,0.8-3.8,1.1-5.9,1.5c-0.7,0.1-1.5,0.1-2,0.2c0.5,1.9-0.3,3.2-1.2,4.5c-3.7,2.8-8.8,2.6-13.6,2.3c-3,5.9-9.4,3.6-15,3.4
		c-2.4-0.7-4.9-1.3-7.3-2c-0.4,1.9-0.8,3.8-1.3,5.7c-0.5,2.3-1.2,4.6-1.9,6.8c-0.6,5.1-2.2,10.1-4.1,14.5c-0.2,1.9,1.5,2.1,3,1.7
		c4.6-4.1,5.5-11,4.9-17.6c0.2-0.6,0.9-0.7,1.3-0.3c1.3,2.4,0.7,6.1,0.4,8.8c-0.6,3.3-1.5,6.5-3.4,9.3c0.6,0.7,1.4,1.3,2.6,1.3
		c4.7-0.8,6.5-6.8,7.6-11.1c0.4-1.7-0.6-4.7,0.6-5.7c0.3-0.2,1-0.4,1.3,0.5c1.3,5.7-0.7,10.4-3.3,15.4c0.6,1.5,1.7,2.6,3.4,2.6
		c4-0.1,5.8-3.7,6.9-7.1c0.7-2.5,0.3-4.8,0.5-7.1c0.1-1,0.1-2.7,0.8-2.9c1.1-0.1,1.2,1.1,1.2,1.9c0.5,3.5,0.3,7.6-0.5,11.1
		c1.6,1,2.3,2.9,4.6,2.1c5.3-3.7,6.5-10.5,6.1-17.3c0.3-0.2,0.9-0.6,1.3-0.2c1,3.6,0.6,8.6-0.4,12c1,1.5,1.3,2.4,3.2,2.7
		c2.1,0.5,3.5-0.5,4.2-2.3c2.6-4.9,0.9-11.3-0.7-16.1c0.5-1.1,1-0.4,1.5,0.1c1.7,2.8,2.1,6.3,2.8,9.6l0.4,0.4l0.5,0.5
		c1.2,1.1,2,1.1,3.3,1.7c2,0,3.1-1.9,3.6-3.5c0.5-4.8-1.7-8.5-3.6-12.3c0.6-1.6,1.9-0.4,2.6,0c3.1,2.2,6.3,4.5,9.6,6.4
		c2.8,1.6,5.4,2.9,8.6,2.9c0.9-0.1,1.3-1.9,1-3.2c-5.4-2.8-10.4-5.4-15.3-8.4c-0.4-0.9,0.6-0.9,0.9-1.3
		c10.6,4.3,19.9,11.6,31.5,13.2c0.8-0.1,1.6-1.2,1.1-3c-2.3-0.8-4.6-1.5-8-2.8c-5.9-2.3-12.1-4.3-17.7-7.8c-0.4-0.3-0.5-0.6-0.5-1.1
		c0.5-0.2,0.9-0.9,1.5-0.4c10.4,4.3,20.6,9.1,32,11.2c0,0,1.1,0.3,2.5,0.3c1.3,0,1.6,0.2,2.3-0.8c0.6-1-0.2-2.3-1-3.6
		c-4.9-1.3-10.4-2.8-15.2-4.3c-4.9-1.5-9.7-2.8-13.9-5.3c-0.3-0.5-0.1-1.4,0.6-1.4c11.2,4.3,22.9,7.8,35.3,9.2
		c4.4,0.5,8.8,1.2,13.5,0.5c0.7-0.1,0.6-0.9,0.4-1.5c-0.6-1.3-1.1-2.1-1.1-2.1c-3.3-0.5-8.9-1.4-12.5-2.1
		c-8.7-1.7-17.5-3.9-25.4-7.9c0-0.5,0-1.1,0.5-1.1c15.8,4.3,31.4,9.8,49.2,8.8c0,0,0.5,0.1,0.9-0.4c0.5-0.6,0.3-2.8-0.6-4
		c-3.8-0.2-9.8-0.3-16-1.3c-8.3-1.3-16.7-3-24.3-6.2c-0.4-0.2-0.2-0.6-0.2-0.9c1.2-0.8,2.7-0.2,3.9,0.1c13.7,3.9,26.3,6,41.6,5.6
		c2.8-0.2,5.2-0.6,7.2-2.3c0.7-1.1,0.1-1.9-0.6-2.8c0,0-2.3-0.1-2.8-0.1c-14.1-0.5-27.9-2.7-41.4-5.2c-0.3-0.2-0.2-0.7-0.2-1.1
		c1.9-1.2,4.6-0.1,7.3,0.4c6.2,1.1,12.5,1.6,18.9,2.2c9.6,0.8,19.3,1.2,29,0.8c0.7-0.3,1.3-0.7,1-1.9l-0.5-0.8
		c-4.3,0.3-9.5,0.4-13.9,0.3c-12.2-0.3-24.7-1.9-36-4.6c-0.4-0.4-0.5-1-0.2-1.5l0.9-0.8c11.4,2.8,24.4,4.4,37.2,4.3
		c8.2-0.1,16.6-0.2,23.8-2.5c0.8-0.3,1.1-0.8,0.6-1.5l-0.6-0.8c-16.9,1.9-36.3,1.5-52.7-1.1c-0.6-0.6-0.4-1-0.2-1.5l0.9-0.4
		c20.2,2.4,42.2,3.1,61.8-1.3c1.4-0.6,3.3-0.3,4.2-1.7c0.7-1.3-1.2-2.8-1.2-2.8c-4.9,0.8-11,1.8-16.1,2.2c-11,0.9-22.4,0.8-33.4,0.1
		c-3.3-0.2-8.3-0.5-8.7-1.5c-0.4-0.9,0.1-1.4,0.9-1.5c9.1,0.9,17.8,1.2,26.8,1.1c3.4,0,7.1-0.2,10.4-0.4c3-0.3,8.1-0.8,12.7-1.5
		c7.4-1.1,14.6-2.7,20.7-6.7C524,423.6,525.4,422.3,524.6,420.3z M390.6,465.8c-1.7,3.5-6.3,1.9-8.8,2.1c-1,0-2-0.3-2.8-0.5l0.2,1.3
		c-0.4,2.1-1.7,2.8-3.4,3c-2.3,0.3-5.5,0.1-6.9-0.4c0.4,1.4,0.3,3.5-1.2,4c-2.8,0.9-6.7,0.5-9.4-0.5c-0.1,1-0.3,1.8-0.8,2.6
		c-1,1-2.5,1.3-4.2,1.3c-3-0.1-5.2-0.9-7.6-1.7c-0.3-0.1-0.4-0.2-0.6-0.3c-1.3-0.9-3.6-1.5-5-3.1c-0.8-0.9-1.7-1.9-1.6-3
		c0.4-0.9,0.7-0.5,1.6-0.2c3.9,4,9.1,6.2,14.5,6.2c0.6-0.3,1.2-0.5,1.4-1.3c0.1-0.4,0.2-1.2,0.2-1.2s-1.3-0.7-1.8-1
		c-1.2-0.9-1.8-1.4-2.3-2c-0.2-0.4-0.4-1.5,0.4-1.5c2.1,1.4,4.2,2.9,6.6,3.6c1.3,0.4,2.7,0.6,3.6,0.8c1.3,0.2,2.5,0.2,3.6-0.8
		c0.6-1.2,0.2-1.6-0.1-2.6c-1.8-0.4-5-1.8-6.3-3.5c0-0.6,0.6-0.8,0.9-0.9c4.3,2.3,8.7,4.3,14.2,3.9c1-0.5,1.9-1.3,1.7-2.8
		c-1.6-2.7-4.3-3.1-6.8-5.3l0.4-1.1c3.5,1,6.5,3.2,10.2,3.9c2.6,0.5,6.2,1.6,8.5-0.2c1-1-0.6-2.1,0.2-3.2c0.5-0.2,0.7,0.3,1.1,0.6
		C391.1,463,390.9,464.7,390.6,465.8z"/>
	<path fill="#1D1D1B" d="M352.8,447.2c3.5-2.3,4.2-6.7,3.8-11.1c0.2-0.7,0.6-1.1,1.3-0.8c1.5,2.2,0.7,5.1,0.2,7.6
		c-0.4,1.2-0.6,1.9-1.2,2.9c0.9,0.4,2.3,0.4,2.7-0.2c1.7-2.6,0.7-6.3,1.5-9.3c1.1-4.3,3.7-7.8,7.6-9.2c1.7-0.6,4-1.4,5.5-1.6
		c0.7-0.1,2.3-0.3,2.3-0.3c2.6-0.2,3.3-0.1,6.1-0.1c7.8,0.1,16.3,1.5,24.5,1.2c38.3,1,78.2-1.3,115.5-8.9c2.4-0.5,5.1-0.7,6.5-3.2
		c0.2-0.5,0-0.9-0.6-0.9c-11.8,0.3-23.1,2.4-34.6,2.8c0,0-11.7,1-19.8,1.6c-8,0.5-20.3,1.3-20.3,1.3c-29.7,1.8-59.4,1.3-88.5,1.9
		c-5.4,0.8-12.2,1.5-14,7.4c-0.6,2.9,6.3,10.1,1.9,16l-3.8,3.4C350.2,448.8,351.6,447.9,352.8,447.2L352.8,447.2z"/>
	<polygon fill="#1D1D1B" points="290.4,444.6 294.1,441.8 298.7,444.6 	"/>
	<path fill="#1D1D1B" d="M275,454c0,0-4.2,1.4-5.8,1.8c-1.6,0.4-5.9,1-5.9,1h66.2c0,0-3.9-0.5-6.6-1.1c-2.6-0.6-5.9-1.7-5.9-1.7
		L275,454L275,454z"/>
	<polygon fill="#1D1D1B" points="283.1,449.9 277.5,452.8 313.7,452.8 307.2,449.9 	"/>
	<polygon fill="#1D1D1B" points="289.2,445.9 284.5,448.7 305.1,448.7 300.6,445.9 	"/>
	<g>
		<polygon fill="#1D1D1B" points="299,518.5 301.9,516.6 301.9,478 299,478 		"/>
		<polygon fill="#1D1D1B" points="294.8,520.9 297.6,519.2 297.6,480.4 297.2,481.4 294.8,481.4 		"/>
		<polygon fill="#1D1D1B" points="303.3,515.7 306.1,513.2 306.1,481.4 303.3,481.4 		"/>
		<polygon fill="#1D1D1B" points="307.6,512.1 310.4,509.4 310.4,478 307.6,478 		"/>
		<polygon fill="#1D1D1B" points="311.9,507.6 314.7,504.2 314.7,481.4 311.9,481.4 		"/>
		<polygon fill="#1D1D1B" points="316.2,502.1 319,498.1 319,481.4 316.2,481.4 		"/>
		<polygon fill="#1D1D1B" points="324.7,489.2 327.6,480.1 327.6,478 324.7,478 		"/>
		<polygon fill="#1D1D1B" points="290.8,519.2 293.6,520.9 293.6,481.4 292.5,481.4 291.4,478 290.8,478 		"/>
		<polygon fill="#1D1D1B" points="286.5,516.6 289.3,518.4 289.3,478 287.7,478 287.8,481.4 286.5,481.4 		"/>
		<polygon fill="#1D1D1B" points="282.2,513.2 285.1,515.7 285.1,481.4 282.7,481.4 282.7,478 282.2,478 		"/>
		<polygon fill="#1D1D1B" points="278,509.8 280.8,512.3 280.8,478.2 278,478.2 		"/>
		<polygon fill="#1D1D1B" points="273.7,504.8 276.5,508.2 276.5,478.2 273.7,478.2 		"/>
		<polygon fill="#1D1D1B" points="269.4,498.3 272.2,503 272.2,478.2 270.7,478.2 270.7,481.4 269.4,481.4 		"/>
		<path fill="#1D1D1B" d="M265.1,490.3c0,0,0.7,1.7,1.2,2.7c0.5,1,1.6,3.1,1.6,3.1v-14.7h-2.5v-3.1H265L265.1,490.3L265.1,490.3z"/>
		<path fill="#1D1D1B" d="M260.8,480.4c0,0,0.7,2,1.3,3.6c0.5,1.6,1.6,3.7,1.6,3.7v-9.5h-2.8v2.2H260.8z"/>
		<polygon fill="#1D1D1B" points="315.8,477.1 328.3,477.1 329,474.3 315.8,474.3 		"/>
		<polygon fill="#1D1D1B" points="259.6,474.3 260.1,477.1 265.5,477.1 265.5,474.3 		"/>
		<rect x="307.3" y="474.3" fill="#1D1D1B" width="3.4" height="2.8"/>
		<path fill="#1D1D1B" d="M282.7,477.1v-2.8h-7.4c-0.8,0.2-1.6,0.3-2.6,0.3h-2v2.6h12V477.1z"/>
		<polygon fill="#1D1D1B" points="295.2,474.3 294.8,474.3 295,474.8 295.1,474.8 		"/>
		<polygon fill="#1D1D1B" points="291.1,477.1 290.2,474.3 287.7,474.3 287.7,477.1 		"/>
		<polygon fill="#1D1D1B" points="298.7,477.1 302.2,477.1 302.2,474.3 299.6,474.3 		"/>
		<polygon fill="#1D1D1B" points="302.2,473.1 302.3,470.2 300.9,470.2 300,473.1 		"/>
		<polygon fill="#1D1D1B" points="258.9,470.2 259.3,473.1 265.5,473.1 265.5,470.2 		"/>
		<path fill="#1D1D1B" d="M270.7,470.2v0.6h1.3c0.9,0,1.7-0.2,2.3-0.6H270.7z"/>
		<path fill="#1D1D1B" d="M278.1,473.1h4.5v-2.8h-2.5C279.8,471.4,279.1,472.3,278.1,473.1z"/>
		<polygon fill="#1D1D1B" points="289.8,473.1 288.9,470.2 287.7,470.2 287.7,473.1 		"/>
		<polygon fill="#1D1D1B" points="294.4,473.1 295.7,473.1 296.6,470.2 293.5,470.2 		"/>
		<rect x="307.3" y="470.2" fill="#1D1D1B" width="3.4" height="2.8"/>
		<polygon fill="#1D1D1B" points="329.4,473.1 330.1,470.2 323.9,470.2 323.9,473.1 		"/>
		<polygon fill="#1D1D1B" points="288.5,469 287.7,466.4 287.7,466.4 287.7,469 		"/>
		<polygon fill="#1D1D1B" points="302.3,469 302.3,466.4 302.2,466.4 301.4,469 		"/>
		<polygon fill="#1D1D1B" points="298,466.2 292.2,466.2 293.1,469 297,469 		"/>
		<polygon fill="#1D1D1B" points="258.2,466.2 258.6,469 265.5,469 265.5,466.2 		"/>
		<rect x="307.3" y="466.2" fill="#1D1D1B" width="3.4" height="2.8"/>
		<path fill="#1D1D1B" d="M274.4,466.2h-3.7v2.8h4.5c0.1-0.3,0.1-0.5,0.1-0.8C275.2,467.2,274.9,466.6,274.4,466.2z"/>
		<path fill="#1D1D1B" d="M282.7,469v-2.8h-2.5c0.2,0.6,0.3,1.3,0.3,2.1c0,0.3,0,0.5,0,0.7L282.7,469L282.7,469z"/>
		<polygon fill="#1D1D1B" points="330.4,469 330.9,466.2 315.8,466.2 315.8,469 		"/>
		<rect x="307.3" y="462.1" fill="#1D1D1B" width="3.4" height="2.8"/>
		<polygon fill="#1D1D1B" points="257.7,462.1 258,464.9 265.5,464.9 265.5,462.1 		"/>
		<path fill="#1D1D1B" d="M282.7,462.1h-7.8c2.3,0.4,3.9,1.3,4.8,2.8h3V462.1z"/>
		<polygon fill="#1D1D1B" points="331.1,464.9 331.5,462.1 324.4,462.1 324.4,464.9 		"/>
		<polygon fill="#1D1D1B" points="298.4,464.9 299.3,462.1 291,462.1 291.9,464.9 		"/>
		<polygon fill="#1D1D1B" points="257.4,458.1 257.7,460.9 331.6,460.9 331.9,458.1 		"/>
		<polygon fill="#1D1D1B" points="320.7,495.6 323.5,490.8 323.5,481.4 320.7,481.4 		"/>
	</g>
	<path fill="#1D1D1B" d="M256.7,456.9c-4.2-1-8.1-2.7-11.4-5.6c-3.4,0.2-7.1-0.9-9.2-3.4c-0.4,1-1.5,1.7-2.7,1.7
		c-1.3-0.1-2.7-0.5-3.8-1.9c-3.2-5.4,0.6-13-5.5-17.2c-11-6-25.9-1.4-38.4-1.7l-0.5,0.4c-0.4,1,1,1.5,1.3,2
		c10.2,2.8,20.2,2.5,31.6,2.5c1,0.2,1.5,0.2,1.7,1.1c0.1,1-0.2,0.9-0.7,1.1c-8.7-0.2-17.2,1.4-25.5,0c-0.5,0.9-0.1,1.8,0.3,2.5
		c6,4.6,14.6,3.6,22.5,3.9c1.7,0,3.6-0.5,5.3-0.5c1,0,2.1,0,2.7,0.6c0.3,0.5,0.2,1.2-0.4,1.5c-7.6,0.8-15.8,1-23.2-0.2
		c-0.7,0.6,0.1,1.6,0.7,2c7,4.5,17,3.2,25.2,3.2c0,0,0.7-0.1,1.1,0.5c0.4,0.6,0.3,0.9-0.2,1.3c-4.5,0.5-9.5,0.9-14.4,0.8
		c0,0-0.4,0.8,0,1.2s2.4,1.2,3.7,1.7c5,1.8,10.8,1.5,16.6,1.5l0.6,0.4c0.3,0.5,0.9,1.1,0.4,1.7c-2.7,1.6-5.6,0.6-8.7,1.2
		c-0.3,0.6-0.3,1.7,0.2,2.2c4.1,2.8,10.5,2.8,15.5,1.6c1.3-0.2,3.2-2,3.9-0.2c-1.2,2-3.6,1.7-5.4,2.4c1.3,2.4,4.7,1.9,7.2,1.9
		c4.3-0.8,6.3-0.9,8.8-1.7c-0.4-2.6-0.6-5.3-0.8-7.9C255.6,457.3,256.2,457.1,256.7,456.9z"/>
	<path fill="#1D1D1B" d="M263.7,495.8c0.7,0.2,1.4,0.3,2,0.1c-2.9-5.2-5.2-10.9-7-17C258.3,485.3,259.3,491.9,263.7,495.8z"/>
	<path fill="#1D1D1B" d="M257.1,486.8c-0.3-2.8-0.9-6.4,0.4-8.8c0.3-0.3,0.7-0.3,1-0.1c-0.9-3.2-1.6-6.4-2.1-9.7
		c-1.4,0.4-2.7,0.7-4.1,1.1c-5.6,0.2-12,2.5-15-3.4c-4.8,0.3-9.9,0.5-13.6-2.3c-0.9-1.3-1.7-2.6-1.2-4.5c-0.5,0-1.3-0.1-2-0.2
		c-2.1-0.4-3.9-0.6-5.9-1.5c-1.6-0.6-3-1.5-4.3-2.9c-0.9-1-0.5-2-0.2-2.8c-4.6-0.9-10-1.6-13-5.4c-0.2-1.1-0.5-2,0.2-3
		c-2.9-0.5-5.8-1.9-7.7-3.9c-0.5-1.2-0.5-2.8,0.2-3.8c-2.5-0.6-5-1.3-7-2.7c-0.9-1-1.3-2.5-1.1-3.8c-7.5-0.2-15.3,0.1-23.4,0.2
		c-2.5,0-7,0-9.5-0.1c-0.9,0.7-1,1-1.2,1.9c-0.3,0.9,0.6,1.4,1.1,1.6c10.6,2.4,20.6,1.1,31.4-0.4l0.6,0.4c0.2,2-3.1,2.2-4.6,2.3
		c-5.4,0.7-10.5,1.1-14.3,1.3c-0.8,0.8-2.1,2.1-1.5,3.1c1.6,2.7,8.1,1.3,13,0.3c1.3-0.3,3.2-0.8,4.7-1.3c2.8-0.6,4.9-1.3,7.5-1.8
		c1.7,1.2,0,2.2-0.9,2.5c-2.9,1.4-10.2,3-13.7,4c-1,1.3-1.7,1.9-1.8,2.9c-0.2,1.3,0.7,1.9,1.5,2.3c7.1,0.2,13.1-2.1,19.3-3.9
		c0.6-0.2,0.8,0.6,0.8,1.1c-2.8,2.2-5.2,2.8-7.9,3.6c-2.1,0.6-3.6,1-4.6,1.4c-1.3,1.9-0.3,3.2,0.7,3.3c6.8,0,13.3-2,19.5-3.9
		c0.4,0,0.7,0.4,0.6,0.9c-0.5,1-4.2,2.4-7.2,3.3c0,0-2.2,0.8-3.2,1.1c-0.4,1.4,0.4,3.2,1,3.7c6.4,2.6,13.1-0.5,18.9-2.3l0.6,0.4
		c0.3,0.5,0.2,1.2-0.4,1.5c-3,1.6-6.9,3.5-11.3,3.8c-3.2,0.3-7.6,0.6-10-1.7c-1.3-1.1-1.7-3.1-1.2-4.7c-3.1,0.3-8.2,1.5-10.6-1.7
		c-0.9-1.2,0-2.2,0.4-3.2c-3-0.2-7.5,0.9-9.7-1.7c-1.4-1.7-0.6-3.2,0.4-4.5c0.4-0.4,1-0.8,1.3-1.2c0,0-5.5,0.2-6.8-0.1
		c-1.4-0.3-3.2-1.2-3.9-2.3c-0.9-1.8,0-3.8,1.6-4.7c-2.6,0.1-5.5-0.1-8-0.6c-2.5-0.5-4.7-1.3-6.2-3.6c-0.5-1.2,0.1-2.3,0.7-3.2
		c-25.8-1.3-51.4-2.8-75.6-8.1c-0.9-0.2-2.2-0.6-2.6,0c-0.5,1.7,1.3,2.6,2.2,3.8c6.2,4.1,13.3,5.6,20.7,6.7
		c4.6,0.8,9.7,1.2,12.7,1.5c3.3,0.2,7,0.4,10.4,0.4c9,0.1,17.7-0.3,26.8-1.1c0.8,0.1,1.3,0.6,0.9,1.5c-0.4,1-5.5,1.3-8.7,1.5
		c-11.1,0.7-22.4,0.8-33.4-0.1c-5.1-0.4-11.2-1.4-16.1-2.2c0,0-1.8,1.5-1.2,2.8c0.9,1.4,2.8,1.2,4.2,1.7c19.6,4.4,41.7,3.7,61.8,1.3
		l0.9,0.4c0.2,0.5,0.4,0.9-0.2,1.5c-16.5,2.6-35.8,3-52.8,1.1l-0.6,0.8c-0.5,0.7-0.2,1.2,0.6,1.5c19.3,4.2,42.3,2.8,61.1-1.7
		l0.9,0.8c0.2,0.5,0.2,1.1-0.2,1.5c-12.6,3-26.7,4.7-40.2,4.7c-3,0-6.6-0.1-9.6-0.3c0,0,0,0.1-0.5,0.8c-0.4,0.7-0.3,1.7,0.8,1.9
		c9.7,0.4,19.4,0,29-0.8c6.4-0.6,12.7-1.1,18.9-2.2c2.7-0.5,5.5-1.6,7.3-0.4c0,0.4,0.2,0.9-0.2,1.1c-13.5,2.5-27.3,4.8-41.4,5.2
		c-0.6,0-2.8,0.1-2.8,0.1c-0.7,0.8-1.3,1.7-0.6,2.8c2,1.7,4.2,1.9,7,2.2c15.3,0.4,28-1.7,41.8-5.5c1.3-0.3,2.8-0.9,3.9-0.1
		c0,0.3,0.2,0.7-0.2,0.9c-7.6,3.2-16.1,4.9-24.3,6.2c-6.1,1-12.1,1.1-16,1.3c-0.9,1.2-1.1,3.4-0.7,4c0.4,0.5,0.9,0.4,0.9,0.4
		c17.8,1,33.3-4.5,49.2-8.8c0.6,0,0.6,0.6,0.6,1.1c-7.9,4-16.7,6.2-25.4,7.9c-3.6,0.7-9.2,1.6-12.5,2.1c0,0-0.6,0.8-1.1,2.1
		c-0.2,0.5-0.3,1.4,0.4,1.5c4.7,0.7,9.1,0,13.5-0.5c12.4-1.3,24.1-4.9,35.3-9.2c0.7,0,0.9,0.9,0.6,1.4c-4.2,2.5-9,3.8-13.9,5.3
		c-4.9,1.5-10.3,3-15.2,4.3c-0.8,1.3-1.7,2.6-1,3.6c0.7,1,0.9,0.8,2.3,0.8c1.4,0,2.5-0.3,2.5-0.3c11.3-2.1,21.6-6.8,32-11.2
		c0.6-0.6,1,0.2,1.5,0.4c0,0.5-0.2,0.8-0.6,1.1c-5.5,3.5-11.7,5.6-17.7,7.8c-3.4,1.3-5.7,2-8,2.8c-0.4,1.8,0.3,2.8,1.1,3
		c11.7-1.7,21-8.9,31.5-13.2c0.3,0.5,1.3,0.5,0.9,1.3c-4.9,3.1-9.9,5.6-15.3,8.4c-0.2,1.3,0.1,3.1,1,3.2c3.2,0,5.9-1.4,8.6-2.9
		c3.3-1.9,6.5-4.3,9.6-6.4c0.7-0.4,2-1.6,2.6,0c-1.9,3.8-4,7.5-3.5,12.3c0.5,1.7,1.6,3.5,3.5,3.5c1.3-0.6,2.1-0.6,3.3-1.7l0.5-0.5
		l0.3-0.4c0.7-3.3,1.2-6.8,2.8-9.6c0.5-0.5,1-1.2,1.5-0.1c-1.7,4.8-3.3,11.2-0.7,16.1c0.7,1.7,2,2.8,4.2,2.3
		c1.9-0.3,2.2-1.2,3.2-2.7c-0.9-3.5-1.4-8.5-0.4-12c0.4-0.5,0.9,0,1.3,0.2c-0.4,6.8,0.8,13.6,6.1,17.3c2.3,0.8,3-1.1,4.6-2.1
		c-0.8-3.5-0.9-7.6-0.5-11.1c0-0.8,0.1-2,1.2-1.9c0.7,0.2,0.7,1.9,0.8,2.9c0.2,2.3-0.2,4.7,0.5,7.1c1,3.4,2.8,7,6.9,7.1
		c1.7,0,2.8-1.1,3.4-2.6c-2.6-5-4.6-9.7-3.3-15.4c0.2-0.9,1-0.7,1.3-0.5c1.1,1,0.1,4,0.6,5.7c1.1,4.3,2.8,10.3,7.6,11.1
		c1.2,0.1,2-0.5,2.6-1.3C258.6,493.2,257.7,490.1,257.1,486.8z M251.6,473.7c-1.5,1.6-3.7,2.1-5,3.1c-0.2,0.1-0.4,0.2-0.6,0.3
		c-2.4,0.8-4.6,1.6-7.6,1.7c-1.7,0.1-3.2-0.3-4.2-1.3c-0.6-0.8-0.8-1.5-0.9-2.6c-2.8,1-6.6,1.4-9.4,0.5c-1.5-0.5-1.6-2.6-1.2-4
		c-1.5,0.5-4.7,0.7-7,0.4c-1.7-0.2-3.1-0.9-3.4-3l0.2-1.3c-0.9,0.2-1.8,0.5-2.8,0.5c-2.4-0.2-7.1,1.3-8.7-2.1
		c-0.2-1.1-0.5-2.7,0.4-3.6c0.4-0.2,0.6-0.8,1.1-0.6c0.9,1.1-0.8,2.2,0.2,3.2c2.4,1.7,5.9,0.6,8.5,0.2c3.6-0.8,6.7-2.9,10.2-3.9
		l0.4,1.1c-2.4,2.2-5.2,2.6-6.8,5.3c-0.2,1.5,0.6,2.3,1.7,2.8c5.4,0.3,9.9-1.7,14.2-3.9c0.3,0.2,0.9,0.3,0.9,0.9
		c-1.3,1.6-4.5,3-6.3,3.5c-0.3,1-0.7,1.4-0.1,2.6c1,1,2.3,1,3.6,0.8c0.9-0.2,2.3-0.4,3.6-0.8c2.4-0.7,4.5-2.2,6.6-3.6
		c0.8,0,0.6,1.1,0.4,1.5c-0.5,0.6-1.1,1.1-2.3,2c-0.5,0.3-1.8,1-1.8,1s0.1,0.8,0.2,1.2c0.2,0.8,0.8,1,1.4,1.3
		c5.4,0,10.6-2.2,14.5-6.2c0.8-0.3,1.2-0.7,1.6,0.2C253.3,471.8,252.4,472.8,251.6,473.7z"/>
	<g>
		<polygon fill="#1D1D1B" points="290.4,444.6 294.1,441.8 298.7,444.6 		"/>
	</g>
	<path fill="#1D1D1B" d="M50.1,307.5h16.6c15.9,0,23.3,5.4,23.3,17.1c0,10.5-7.7,16.8-20.7,16.8H64v18.2H50.1V307.5z M64,331.6h3.6
		c4.8,0,8.6-1.7,8.6-7.2c0-5.3-3.8-7-8.6-7H64V331.6z"/>
	<path fill="#1D1D1B" d="M96.1,307.5H118l11,34.6h0.2l11.6-34.6h21v52.1h-13.6l0.2-40h-0.2l-13.3,40h-12.8l-12.7-40h-0.1l0.3,40
		H96.1V307.5z"/>
	<path fill="#1D1D1B" d="M170.7,307.5h36.7v9.8h-22.8V328h21.6v9.8h-21.6v11.8h23.6v9.9h-37.5V307.5z"/>
	<path fill="#1D1D1B" d="M239.5,307.5h13.9v41.8h21.5v10.3h-35.4V307.5z"/>
	<path fill="#1D1D1B" d="M280.6,307.5h36.7v9.8h-22.8V328H316v9.8h-21.6v11.8h23.7v9.9h-37.5V307.5z"/>
	<path fill="#1D1D1B" d="M374.6,358.1c-8.8,2.2-15.4,2.4-20.1,2.4c-13.9,0-29.9-7-29.9-26.7c0-19.6,13.8-27.2,32.9-27.2
		c3.4,0,10.7,0.4,15.7,2.3l-1.1,11.3c-4.3-2.5-9.4-3.4-12.7-3.4c-11.3,0-20.5,4.7-20.5,16.9c0,10.2,7.2,16.4,17.4,16.4
		c1.9,0,3.7-0.3,4.9-0.9V339h-8.1v-9.8h21.6L374.6,358.1L374.6,358.1z"/>
	<path fill="#1D1D1B" d="M384.2,307.5h36.7v9.8h-22.8V328h21.6v9.8h-21.6v11.8h23.6v9.9h-37.5L384.2,307.5L384.2,307.5z"/>
	<path fill="#1D1D1B" d="M430.4,307.5H448l17.6,35.4h0.2l-0.2-35.4h12.7v52.1H461L442.8,324h-0.2l0.4,35.6h-12.7v-52.1H430.4z"/>
	<path fill="#1D1D1B" d="M488.2,307.5h18.9c18.1,0,30.8,5.7,30.8,25.8c0,19.5-13.1,26.3-30.8,26.3h-18.9L488.2,307.5L488.2,307.5z
		 M502.1,349.3h5.4c10.4,0,16.2-5.4,16.2-15.7c0-10.4-6-15.7-16.2-15.7h-5.4V349.3z"/>
</g>
</svg>
