<?xml version="1.0" encoding="utf-8"?>
<!-- Generator: Adobe Illustrator 17.1.0, SVG Export Plug-In . SVG Version: 6.00 Build 0)  -->
<!DOCTYPE svg PUBLIC "-//W3C//DTD SVG 1.1//EN" "http://www.w3.org/Graphics/SVG/1.1/DTD/svg11.dtd">
<svg version="1.1" id="Calque_1" xmlns="http://www.w3.org/2000/svg" xmlns:xlink="http://www.w3.org/1999/xlink" x="0px" y="0px"
	 viewBox="0 0 595.3 841.9" enable-background="new 0 0 595.3 841.9" xml:space="preserve">
<g>
	<path fill="#1D1D1B" d="M456.6,406.9h3.8v19.2c0,1.8-0.1,3.1-0.5,4.2c-0.1,0.7-0.6,1.4-1.2,2.3c-1.4,2-3.7,3.1-6.7,3.1
		c-2.2,0-3.8-0.6-4.8-1.9c-1.1-1.4-1.7-3.8-1.7-6.9V407h3.1v-0.5h-9.8v0.5h2.8v19.4c0,6.6,3.2,9.9,9.7,9.9c3.6,0,6.2-1.2,7.9-3.4
		c1.2-1.7,1.8-3.7,1.8-6.1v-19.9h2.6v-0.5h-7.1v0.5H456.6z"/>
	<path fill="#1D1D1B" d="M425.5,406.3H424L413.7,435H412v0.6h5.9V435h-3.5l4.2-11.5h9l4.2,11.5h-4.3v0.6h10.8V435H436L425.5,406.3
		L425.5,406.3z M423,411.1l4.4,12h-8.6L423,411.1L423,411.1z"/>
	<path fill="#1D1D1B" d="M407,423.8h-0.5c-1.7,7.3-5,11-10.2,11h-8.7V398h5.4v-0.7h-13.8v0.7h3.6v36.9h-3.6v0.8H407V423.8L407,423.8
		z"/>
	<path fill="#1D1D1B" d="M512.9,406.9c2,0,3.6,0.6,4.7,1.7c1,1,1.8,2.6,2.5,4.9h0.4v-7.1H498v0.5h2.9V435H498v0.6h22.5v-9.1H520
		c-0.2,1.9-0.8,3.7-1.8,5.2c-1.6,2.2-3.5,3.4-6,3.4h-7.4v-14.8h3.1c1.8,0,3,0.6,3.7,1.9c0.5,0.7,1,2.2,1.4,4.2h0.5v-12.7H513
		c-0.6,2.4-1.2,4.1-2,4.8c-0.6,0.8-1.9,1.2-3.7,1.2h-2.5V407h8.1V406.9z"/>
	<path fill="#1D1D1B" d="M468.1,406.9h2.3v28h-2.3v0.6h10.5V435h-3.4v-13.9h0.2l12.1,14.5h6.6V435h-1.8l-11.6-13.9
		c7.5-0.2,11.4-2.9,11.4-7.8c0-4.8-4.3-7.1-12.7-7.1l-11.4,0.1L468.1,406.9L468.1,406.9z M478,406.8c2.8,0,4.8,0.4,6.1,1.1
		c1.7,1.1,2.5,2.8,2.5,5.4c0,4.8-2.5,7.2-7.5,7.2h-3.8V407L478,406.8L478,406.8z"/>
	<polygon fill="#1D1D1B" points="546,406.9 548.9,406.9 548.9,406.5 542.6,406.5 542.6,406.9 545.4,406.9 545.4,428.7 532.2,406.5 
		525.3,406.5 525.3,406.9 528.2,406.9 528.2,435.1 525.3,435.1 525.3,435.7 532.6,435.7 532.6,435.1 528.7,435.1 528.7,408.6 
		528.8,408.6 545.3,436.2 546,436.2 	"/>
	<path fill="#1D1D1B" d="M77.1,407.3c0-3.4-1.1-5.7-3.4-7.4c-2.5-1.8-6.6-2.8-12.3-2.8l-15.6,0.1v0.7h4.4v36.9h-4.4v0.8h15.7v-0.8
		h-5.4v-17.4h4.4C71.6,417.5,77.1,414.1,77.1,407.3L77.1,407.3z M67.7,399.9c1.7,1.4,2.5,3.8,2.5,7.4c0,3.1-0.8,5.5-2.5,7.1
		c-1.6,1.6-3.8,2.4-6.8,2.4h-4.8V398h3.5C63.6,398,66.2,398.6,67.7,399.9L67.7,399.9z"/>
	<path fill="#1D1D1B" d="M90.3,405.7c-3.2,0-6.1,1.4-8.7,4.3c-2.8,3.1-4.2,6.7-4.2,10.9c0,4.1,1.2,7.5,3.7,10.7
		c2.5,3.1,5.6,4.7,9.2,4.7c3.5,0,6.5-1.7,9.1-4.8c2.5-3.1,3.7-6.6,3.7-10.5c0-4.2-1.3-7.9-4-10.9C96.5,407.2,93.6,405.7,90.3,405.7
		L90.3,405.7z M83.2,410.8c1.4-3,3.7-4.5,7.1-4.5c3.2,0,5.5,1.6,6.9,4.5c1.1,2.4,1.7,5.8,1.7,10.2c0,5-0.7,8.7-1.9,11
		c-1.4,2.5-3.6,3.7-6.7,3.7c-3.1,0-5.4-1.2-6.7-3.7c-1.3-2.3-1.9-6-1.9-11C81.6,416.5,82.1,413.2,83.2,410.8L83.2,410.8z"/>
	<path fill="#1D1D1B" d="M153,410.1c-2.6-2.9-5.5-4.3-8.9-4.3c-3.2,0-6.1,1.4-8.7,4.3c-2.8,3.1-4.1,6.7-4.1,10.9
		c0,4.1,1.2,7.7,3.6,10.7c2.5,3.1,5.5,4.7,9.2,4.7c3.5,0,6.6-1.7,9.1-4.8c2.5-3.1,3.7-6.6,3.7-10.5C156.9,416.8,155.6,413,153,410.1
		L153,410.1z M135.5,420.9c0-4.4,0.5-7.8,1.7-10.2c1.3-3,3.7-4.5,6.9-4.5s5.6,1.6,6.9,4.5c1.1,2.4,1.7,5.8,1.7,10.2
		c0,5-0.7,8.7-1.9,11c-1.4,2.5-3.6,3.7-6.7,3.7c-3.1,0-5.4-1.2-6.7-3.7C136.1,429.7,135.5,426,135.5,420.9L135.5,420.9z"/>
	<path fill="#1D1D1B" d="M127.8,426.6h-0.5c-1.2,5.6-3.8,8.5-8,8.5h-6.7V407h3.6v-0.5h-9.3v0.5h1.9v28.1h-1.9v0.6h21L127.8,426.6
		L127.8,426.6z"/>
	<path fill="#1D1D1B" d="M187.7,371.9l-0.8,0.2l-1.6,1.7l-6,5l-1.2,1.1l0.2,0.4h0.7l0.2-0.4h0.4l0.6-0.8h0.4l0.4-0.6l1.3-0.8
		l2.4-2.4l1-0.5l1-1.2l0.7-0.4l0.7-1h0.5l0.4-0.7l1.4-1.1l0.7-0.8l0.2-0.1c0,0,0.1,0,0.2-0.1v-0.2h0.2v-0.5l1-0.5v-0.5
		c0.2-0.5,0.8-1.1,1.8-1.8l0.5-0.6c0.5-0.1,1,0.1,1.3,0.7l0.8,1.2h0.6l0.2-0.4l-3.1-5.9h-0.5l-0.6,0.4v0.7l0.5,0.4
		c0.5,0.7,0.6,1.6,0.1,2.4h-0.4v0.2l-0.6,0.5v0.4l-0.1,0.4c-0.1,0-0.2,0-0.2,0l-0.2,0.1v0.2l-1.6,1.1v0.5H191v0.4l-1.1,1l-0.6,0.7
		h-0.5l-0.6,0.8C188.1,371.4,187.8,371.6,187.7,371.9L187.7,371.9z"/>
	<path fill="#1D1D1B" d="M171.9,385.7c-0.7,0.5-1.2,1-1.3,1.2v1l0.4,1.1l-0.4,0.6l-0.5-0.2l0.1-1.3l-0.2-0.4
		c-0.4,0.1-0.5,0.2-0.4,0.4l0.1,0.5l-0.2,0.6l-0.1,0.8c0,0.4,0.2,0.7,0.7,1.1l1.1,0.6l0.1,0.5l1.2-0.5v0.8l-1.9,1.6
		c-0.6,0.6-1.1,1.3-1.2,2.2v1.6l-1.1,0.8v0.2h-0.5v0.5l-1.2,1.1v0.8l-0.5,1.4l0.2,0.1l1.9-1v0.2c0,0.1,0,0.2-0.2,0.4l-1.1,0.2v0.4
		l0.8,0.7h0.5l0.1-0.5h0.5l-0.1,0.5l-0.2,0.4h1l0.2,0.5h1l0.2,0.1l0.7,1.9l0.2,2l1,1.8l0.2,1.9l0.5,0.4l0.5,2.2h0.4
		c0.2-0.7,0.4-1.2,0.2-1.3l-0.2-0.1l-0.2-1.3l-0.6-0.7l-0.2-1.7l-0.5-0.5l-0.5-2.8l-0.2-0.2v-0.8h-0.4l-0.2-2.4l0.7-0.8V402
		c0.6-0.5,1.2-0.4,1.6,0.4l0.4,1.9c0.1,0.1,0,0.2,0,0.2l-0.1,0.4l0.4,0.2v0.7l0.2,0.4l0.4,2.4l0.6,1.3v0.6l0.7,0.7l0.4,0.7l-0.5,0.1
		l-0.7-1.1H175l-0.4,2.2l0.1,0.1l0.1,0.1l0.2,0.1l0.5,1.7l0.5,0.2l0.7,2.3l0.5,0.5l0.2,1.7l0.4,0.2v1.9v0.4l0.2,0.1v0.6l1,0.8
		l0.8,2.3l0.8,0.7l1.4,2.2l0.6,0.5h0.6l1,0.6l0.8,0.1l0.4,0.5h0.7l0.2-1h0.2l0.4,0.5l0.2,3c0.1,1.3,0.1,2.4,0,3.1l-0.2,0.1v0.6
		l-0.6,1.9h0.2c0.1,1.1,0.4,1.9,1.1,2.5c-0.1,0.1,0,0.2,0.1,0.4c0,0.1-0.1,0.4-0.5,0.6l1.3,1.1v0.5l0.5,0.5l0.7,0.4l0.4,0.8l0.8,0.1
		l0.6-1c0-0.2-0.2-0.8-0.8-1.3l-0.7-0.6h-0.5l-0.1,0.5l-0.5-0.1c0.6-0.7,0.6-1.3,0.4-1.6l-0.4-0.2l0.2-0.7c0.2-0.5,0.4-0.7,0.2-1.1
		l-0.6-0.8v-2.6l0.4-0.1v-0.8l0.2-0.1v-1.1l0.5-0.6l0.5,0.1v0.4c0.1,0,0.2,0,0.4-0.1l0.1-0.2l0.1,0.1h0.1c0.6,1.4,1,2.3,1,2.6
		l-0.1,1.2l0.1,0.4l0.5,0.5c0.2,0.5,0.2,1,0.1,1.4l-0.4,0.4l-0.4,0.1l0.1-1.8l-0.5-0.2v-1.2l-0.2-0.1v-0.6l-0.7-0.7l0.1-0.5
		l-0.1-0.5l-0.5-0.4l-0.4,1.1l-0.5,0.2v0.1c0.2,0.1,0.2,0.4,0.4,0.7l0.1,1l0.2,0.1l0.6,1.4l0.4,4.1h0.6l0.2-0.2l0.1-0.4l0.6-0.5
		c0.1-0.4,0.4-1,0.5-1.8c0.1-1,0.2-1.6,0.1-1.9l-0.6-2v-1l-0.6-1.1v-0.4l0.1-0.4l-0.5-2h-0.5v0.8l-0.2,0.6l-0.5,0.1l0.2-1.7l0.4-0.1
		v-0.4v-0.4l0.4-0.1l0.7-1.9l-0.4-1.4v-0.1l-0.1-0.5l0.4-1.6c0.2-0.6,0.5-1,0.7-1.2v-0.1l-0.6-1.4l-0.1-0.1v-0.2
		c0.4-0.1,0.6-0.1,0.7,0.1v0.2v0.2l1,1.3l0.7,2.2h1.4l0.1-0.1c0.5-0.4,0.6-0.8,0.5-1.6h-0.4v-0.6l-0.7-1.2l-0.1-0.5l-0.1-0.5
		l-0.6-0.6L194,419h-0.4l-0.1-0.2v-0.4l-1,1l1.1,2l0.4,0.4v0.8c-0.5,0.1-0.6,0-0.5-0.1l-0.5-1.2l-1.1-1.7l-0.6,0.2l-0.1,0.5l0.5,0.8
		l-0.5-0.4l-0.1,0.2l-0.2,0.1v1.8h-0.5c0-1.3,0-2-0.1-2.3l-0.5-0.4l-0.7-0.4v-0.4l-1-0.6v-0.4l-0.5-0.1l-0.1-0.7l-0.6-0.6l-0.2-1.2
		v-1.4c-0.1-0.6-0.5-1.3-1-2.2l-0.4-0.1v-0.2c0.1-0.1,0-0.2,0-0.2l0.7,0.1v0.5l0.5,0.4l0.8-0.2l0.2,2.2l1,0.7l0.4,1.4l0.6,0.5l0.2,1
		h0.4l0.2,0.4h0.1l0.6,0.8l1-0.5c0.4-0.2,0.5-0.6,0.5-1.1l-0.2-1.3l-0.5-0.2v1l-0.5-0.1V416c0-0.1-0.1-0.2-0.5-0.2l0.2-0.6l-1-0.5
		l0.6-1.1V413l0.4-0.1v-1.6l0.2-0.2l0.1-0.2v-0.1l0.2-1.9h0.4l0.2,0.2l-0.4,1.7v0.1l-0.1,1.7l0.6,0.5l-0.1,0.1l0.2,0.1l0.1,0.1
		c0.2,0,0.5-0.1,0.7-0.4l0.2-0.2l0.2-0.8l-0.1-0.5l-0.2-0.5l-0.6-1.2l-0.2-0.7l-0.2-0.6l-0.5-0.2l-0.2-0.4l0.1-0.4l0.1-0.1l-0.1-0.4
		l-0.1-0.2l0.1-1.1l-0.4-0.1l-0.4,0.7c-0.2,0-0.4,0-0.2-0.1h-0.1l0.5-1.7l-0.1-0.5h-0.4c0-0.1-0.1-0.2-0.4-0.2v-1.2H190l-0.1-0.2
		l-0.5,0.1l-0.1,1.6l-0.5-0.1c0.1-0.8,0.1-1.3,0.1-1.6c-0.1-0.5-0.5-0.6-1.1-0.5l-0.4,0.4l-0.2,0.4h-0.7l0.1-0.6
		c0.1-0.1,0.5-0.2,0.8-0.4l1.2-0.2l0.2-0.4c0.1,0.1,0.1-0.1,0-0.5c-0.1-0.1-0.2-0.1-0.5-0.2l-0.6-0.1c0.2-0.6,0.2-1.2,0-1.8
		l-2.5,0.2l-1.6,0.8l-0.5-0.1l-0.2-0.2V399l1.4-0.4l0.1-0.2l1.8-0.7h1l0.8-0.2c-0.4-0.6-0.6-1.3-0.7-2.3c-0.1-1-0.1-1.8,0.1-2.5
		l-1,0.2l-0.1,1.1c-0.6,0-0.7,0-0.6,0l-0.5-0.2l-0.5-0.1v-0.2l1-0.8h0.5l0.2-0.6l1.2-0.4c1-0.5,1.1-1.3,0.6-2.9l-0.4-0.4l-0.2-0.4
		h-0.7l-0.1,0.4l-0.8,0.1l-0.4,0.5h0.4l0.5-1.2h0.6l0.8-0.6l-0.5-0.6l-1.3-0.4l-1.8-1.2c-0.8-0.5-1.6-0.6-2.2-0.6l-0.5,0.4v1h-0.5
		l-0.1-1c-0.1-0.2-0.4-0.4-0.8-0.4l-0.1,0.4H179l-0.2-0.2l-0.1-0.4l-0.4-0.1H178l0.2-1.1l0.6-0.5v-0.6h-0.1c-0.7,0-1,0-0.7,0.1
		l-1.1,0.6l-0.4-0.1l-0.2-0.1l2.4-1.1V381h-1.3v-0.1v-0.2l0.1-0.4l-0.7-0.4l-1.2-0.1l-2.2,1.1v0.4l-0.4,0.2l-0.2,0.5v1.9l0.2,1.6
		l-0.7-0.1L171.9,385.7L171.9,385.7z M172.1,386.6l0.7-0.7c0.1,0,0.2,0.1,0.2,0.4l0.7-0.1l0.4-0.2l0.2,0.4l1,0.6l0.7,0.8l1.1-0.1
		l0.2-1h0.5c0,1.1,0.1,1.7,0.5,2l0.6,0.5l0.4,1.1h0.2l1-1.8l0.7-0.2l0.1-0.4v-0.6l0.5-0.1c0.2,0.1,0.2,0.5,0.1,1.1l-0.4,1.1l-1-0.1
		c-0.1,0.6-0.5,1.3-1,2.3l-1-0.6c0.1-0.1,0-0.2-0.6-0.2l-0.1,0.6l-0.2,0.4l-0.8-0.1l-1,1.3h-0.7l-0.6-0.5l-0.2-0.4l0.6-0.7l0.2-1.2
		l-0.5,0.4l-0.4,0.2c-0.2,0.5-0.4,0.7-0.2,0.8l-0.1,0.5h-0.5l-0.4-0.6l-0.2-0.7l-0.8-0.7v-0.2h-0.4l-0.2-1.2c-0.1-0.6-0.1-1,0-1.3
		l0.2-0.2L172.1,386.6L172.1,386.6z M176.7,381.6c0,0.1-0.1,0.1-0.4,0l-0.1-0.2C176.5,381.3,176.6,381.4,176.7,381.6L176.7,381.6z
		 M180.3,387.1l-0.1-0.1H180l0.1-0.5C180.5,386.5,180.5,386.6,180.3,387.1L180.3,387.1z M175.3,384.7c-0.1-0.1-0.1-0.2,0-0.6
		c0.6-0.1,0.7,0.1,0.4,0.6H175.3L175.3,384.7z M173.8,384.2l0.2-0.4c0.2,0,0.4,0.1,0.2,0.6l-0.2,0.7h-0.2l-0.4-0.5L173.8,384.2
		L173.8,384.2z M184,389.3l0.1-0.6l1.9,0.4l0.1,1l-1.1,0.4V390L184,389.3L184,389.3z M182.2,391.6l0.7,0.1c0.4,0,0.4,0.1,0.1,0.2
		l-0.5,0.5h-0.4L182.2,391.6L182.2,391.6z M188.9,423.7l0.5,0.2v0.2l-0.2,1.2l-0.8,1.1c-0.5,0.2-0.5-0.1-0.2-1.1L188.9,423.7
		L188.9,423.7z M191.9,424.1l-0.2,0.1l-0.6,0.6v1l-0.7,0.1l0.2,0.5l0.2,0.2l0.2,1.4l0.2,0.1v0.5l-0.5,2.2l-0.6,0.6v0.7l-0.1,0.1
		l-0.1,0.1l-0.2-0.2l0.1-0.2l-0.1-0.5l0.5-1.4c0.2-1.3,0-2.6-0.7-4.1l1.3-1.2l0.4-0.7l0.5-0.5h0.1v0.1
		C191.8,423.5,191.9,423.6,191.9,424.1L191.9,424.1z M184.7,393.7l0.5,0.1l-0.5,0.2V393.7L184.7,393.7z M184.8,396l0.4,0.1l1.4-0.4
		l0.1-0.4c1.1-0.1,1,0.4-0.2,1.4h-1.3l-0.1-0.4l-0.4,0.1l-0.1,0.2h-0.7l0.1-0.5l0.5-0.5L184.8,396L184.8,396z M183.3,394l0.6,0.1
		l0.5-0.4l0.1,0.5l-0.5,0.1l-0.1,0.4l-0.1,0.2h-0.5l-0.7-1.3L183.3,394L183.3,394z M181,394.1l0.1-0.6l-0.5-0.4l-0.5-0.2v-0.5
		l0.5,0.1l0.4-0.5l0.6,0.1c-0.2,1-0.1,1.8,0.2,2.6h0.5v0.5l-1.2,0.2l-0.4,0.7l-0.7,0.1v0.5l0.2,0.1l1,0.7l1.3,0.2l0.2,0.5l-0.6,0.4
		h-0.5l-0.5,1c-0.1,0.4,0,0.7,0.1,0.7h0.6l0.4-0.2l0.2-0.4l0.2-0.2c0.4,0,0.5,0.1,0.5,0.2c0.1,0.1,0,0.2-0.2,0.5L182,401v0.6v0.6
		l-0.2,0.2l-0.1,1.1l-0.5,0.1l-0.5-0.5v-0.7l-0.6-1.2l-0.7-3.2h-0.8l-0.7-3.4h0.4l0.1,0.2l0.1,0.4l0.6,0.6l1.2-0.4
		c0.5-0.1,0.7-0.4,0.8-0.7L181,394.1L181,394.1z M179.1,393.2l0.5,0.4l-0.1,0.5H179L179.1,393.2L179.1,393.2z M173.9,392.6
		c0.4,0.4,0.2,0.6-0.1,0.6l-1.1-0.2l0.1-0.5L173.9,392.6L173.9,392.6z M174.7,395.6v0.8l-0.2,0.5H174l-0.4-0.5
		c-0.1,0.1-0.2,0-0.1-0.1l-0.1-0.5l0.6-0.6L174.7,395.6L174.7,395.6z M176.2,396c0,0.1,0,0.2-0.1,0.2l-0.1-0.5L176.2,396L176.2,396z
		 M175.5,398.6c0.1-0.1,0.1,0,0.1,0.1c0.1-0.1,0.1-0.1,0,0.2c0,0.2-0.1,0.5-0.4,0.5C174.8,399.8,174.8,399.4,175.5,398.6
		L175.5,398.6z M173.6,400.8l0.5-0.6c0.6-0.2,0.5,0-0.1,1.1C173.6,401.3,173.5,401.2,173.6,400.8L173.6,400.8z M176.6,399.9v-0.5
		c0.5-0.8,0.7-1.4,0.8-1.9h0.5l-0.4,1.3l-0.2,0.2v0.6l-1.1,1.6c-0.5-0.6-0.5-0.8-0.1-0.7L176.6,399.9L176.6,399.9z M175.3,401.8
		l-0.2,0.4c-0.4,0.1-0.5,0.1-0.5-0.1l0.2-0.5C175.1,401.4,175.3,401.6,175.3,401.8L175.3,401.8z M180.6,406v-0.1l0.1-0.1l0.6,0.5
		v0.7c-0.4,0-0.5,0-0.2-0.1L180.6,406L180.6,406z M181.7,404.5l0.6,0.8v0.8l0.2,0.1l0.2,0.2v1l1.1,0.6c-0.1,0,0,0.1,0.5,0.4
		c0.2-0.5,0.1-0.6-0.2-0.5l-0.1-0.5v-0.5l0.4-0.2c-0.2-0.2-0.1-0.2,0.2,0l0.2,1.2l2.6,3.4v0.5l-0.4,0.1l-0.4-0.5l-0.5-0.1
		c-0.2,0-0.4,0-0.5-0.1v-1h-0.1l-1-1.1l-1.2-0.5c-0.5-0.2-0.8-0.5-1.1-0.7l-0.1-0.6l-0.1-0.6l-0.4-0.2v-0.4v-0.4L181,405v-0.6h0.7
		V404.5z M182.2,409.2v-0.6h0.4l0.8,1.1v1.6c0,0.8-0.1,1.2-0.4,1.3h-0.5v-0.7l0.4-0.1c0.2-0.6,0.2-1.3-0.1-1.9L182.2,409.2
		L182.2,409.2z M172.7,398.7c-0.1,0.1-0.1,0-0.1-0.4l0.2-0.6h0.1v0.5C173,398.4,172.9,398.6,172.7,398.7L172.7,398.7z M171.5,398.6
		l0.2,0.1l0.4,2.2h0.6c0,0,0,0.2,0,0.5l-0.8,0.1l-0.1-0.2l-0.2-0.4l-0.4-2.4C171.3,398.4,171.4,398.6,171.5,398.6L171.5,398.6z
		 M170,398.4V398c0.1,0,0.2,0,0.2,0.1C170.2,398.3,170.1,398.4,170,398.4L170,398.4z M170.6,397.1v0.4h-0.5l0.1-0.5
		C170.5,397,170.6,397,170.6,397.1L170.6,397.1z M170.9,400v0.5l0.6,0.8v0.6l-0.7,0.5l-0.6,0.6v0.2c0,0.1,0,0.2-0.1,0.4h-0.4h-0.2
		c0.8-1.1,1.2-2.5,1.1-4.3l0.4,0.1C170.9,399.6,170.9,399.9,170.9,400L170.9,400z M185.2,412.1l-0.6,0.5v0.5l-0.2,0.1l-0.2,0.6
		c-0.1,0.4-0.6,0.6-1.3,1l-0.2,0.2h-0.5l-0.1-0.2l0.4-0.4l0.2-0.2h0.5c0.6-0.5,1.2-1.4,1.9-3.1h0.2L185.2,412.1L185.2,412.1z
		 M181.5,416.4L181,417c-0.7-0.1-0.8-0.2-0.5-0.5l0.6-0.7C181.5,415.9,181.7,416.2,181.5,416.4L181.5,416.4z M185.3,416.8l0.5-0.6
		l0.4,0.1L186,418c0,0.7-0.1,1.3-0.2,1.6h-0.2l-0.8,0.8h-0.6l0.2-0.5l0.4-0.2l0.5-1.1L185.3,416.8L185.3,416.8z M176.9,413.6v0.4
		l0.6,0.4v1h-0.4l-0.2-0.6l-0.6-1.3h0.5L176.9,413.6L176.9,413.6z M180.3,417.7l-0.2,0.6l-0.4,0.5c-0.4,0-0.5-0.2-0.2-0.6l0.7-0.7
		C180.4,417.4,180.4,417.5,180.3,417.7L180.3,417.7z M179.2,421.3c-0.1,0.1-0.2,0.2-0.4,0.1l-0.1-0.5
		C179,421.1,179.2,421.1,179.2,421.3L179.2,421.3z M179.2,422.5c0,0.2-0.1,0.2-0.4,0.2l-0.1-0.6h0.4L179.2,422.5L179.2,422.5z
		 M179.1,420.1h-0.4l0.1-0.8C179.3,419.5,179.4,419.9,179.1,420.1L179.1,420.1z M188.1,422v0.5l-0.6,0.6v1.8l-0.6,1.3h-0.4
		c0-0.8,0-1.3,0.1-1.3l0.2-0.2l0.2-0.1c0-0.2,0-0.5,0-1v-1l0.4-0.7L188.1,422L188.1,422z M183.4,422.1c-0.2,1.1-0.4,1.7-0.5,1.9
		c-0.5-0.4-0.6-0.5-0.5-0.5l0.4-1.4H183.4L183.4,422.1z M181.8,425.3l-0.5-0.4v-0.6l0.6,0.2l0.4,0.2l0.1,0.6v0.6h0.1l0.5,1.1
		l0.7,1.1l0.7,0.4c-0.1-1.3,0.2-2,1.2-2.2l0.4,0.1c0.2,0.1,0.2,0.1,0.1,0.1l-0.2,0.2l-0.1,0.2l-0.6,0.2c-0.1,0.1-0.2,0.4-0.2,0.7
		l0.2,1.3l-0.6-0.1l-0.6-0.1l-0.2-0.5h-0.5v-0.5l-1.3-1.2V426L181.8,425.3L181.8,425.3z M186.8,427.1l0.5,0.2l-0.4,1.8
		c0.2,0.1,0,0.1-0.4,0.2v-1.9C186.6,427.3,186.8,427.2,186.8,427.1L186.8,427.1z"/>
	<polygon fill="#1D1D1B" points="177.9,388.6 177.5,388.7 177.5,389.7 177.9,389.9 178.7,389.8 	"/>
	<path fill="#1D1D1B" d="M207.7,410.3h-0.5c-1.3-1-2.3-1.4-3.2-1.3c-0.5,0-0.7,0.1-0.8,0.2v0.2l-0.1,0.4h0.2v0.6h-0.5
		c-0.2-0.2-0.2-0.4,0-0.2v-0.4l-0.6-0.1c-0.1-0.1-0.2,0-0.4,0.5l1,0.8h0.5l0.1-0.2l0.4-0.2l0.2,0.4l0.6,0.1v0.4l1.4,0.4l0.6,0.6
		c0.6,0,1-0.1,1.1-0.6V410.3L207.7,410.3z M204.7,409.3l0.2,0.2l1,0.7l0.5,0.2h0.1l0.2,0.2h0.1l0.1,0.5h-0.2l-0.1-0.1l-0.2-0.1
		l-1-0.6h-1l-0.4-0.5v-0.6L204.7,409.3L204.7,409.3z"/>
	<path fill="#1D1D1B" d="M193.8,408.5l-0.4,0.2l0.5,0.4c0.4,0.5,0.5,1.3,0.6,2.4v0.5v0.1c0,0.7-0.1,1.4-0.2,2l0.6-0.2
		c0.1,0,0.4-0.1,0.4-0.2c0.1-0.1,0.2-0.6,0.1-1.4l-0.1-1.7l-0.4-0.2l-0.2-0.7L193.8,408.5L193.8,408.5z"/>
	<path fill="#1D1D1B" d="M195,408.5v0.6l0.7,1.4c0.4,0.6,0.5,1.1,0.5,1.6c0,0.6-0.1,1.2-0.5,1.8l-1.1,1l0.2,0.7l0.4,0.6l-0.1,0.4
		v0.5l0.4,0.4l-0.2,0.8l-0.6,0.5v1l0.5,0.1l0.4,1.2l0.6,0.5v0.6l0.2,0.1l0.4,1.2h0.6c0.1,0,0.1,0,0,0l0.5-3l0.4-0.1
		c0,1.4,0,2.4-0.2,2.9l-0.1,0.6l-0.6,0.5v0.5h0.6v-0.4c0.4,0,0.5,0.2,0.4,0.6l-0.1,1.4c0.1,0.2,0.6,0.7,1.4,1.3v0.4
		c-0.1-0.1-0.2-0.1-0.1,0.1l-0.1,0.1l0.1,0.4h0.2l0.5,1c0.2,0.7,0.1,2.3-0.1,4.4l-0.4,0.1l-0.1,1.7c0,0.7,0,1.3,0.1,1.7
		c0,0.1,0.2,0.4,0.5,0.4l0.7,0.2v0.6l-1.2,0.5v2.3c0,0.8-0.1,1.6-0.2,2.2l-0.6,0.7c-0.1,0.5-0.1,1,0.1,1.4l0.2,1.1l-0.1,0.5
		l-0.1,0.2l0.1,1.1h0.5l0.1,0.4h0.7l0.5-0.5l-0.7-1.1v-0.6l0.1-0.2v-0.4l0.1-1.3l0.4-0.1V442l0.4-0.2v-1.6l0.2-0.1l0.4-3l0.7-0.7v-1
		l-1.1,0.2v-0.4V435l-0.6-0.8v-2.8h0.1l0.2-0.1l0.1,0.1l0.1,0.2c0,1.1,0,1.8,0.1,2.3l0.5,0.2c0.4-0.7,0.6-1.8,0.7-3.2l0.4-3.6
		l0.4-0.1v-0.7V426l0.6-0.7l0.7-2.9v-0.1l-0.1-0.2l0.6-0.8c0.2-1,0.1-2-0.1-3.4c-0.4-1.2-0.6-2-1-2.6l-1.3-1.6l-0.2-0.7l-1.4-1.1
		v-0.5l1.1,0.1v-1l-0.6-0.2h-0.7c0,0.1-0.1,0.2-0.2,0.2v0.4h-0.2H200c-0.6-0.7-1.1-1.2-1.4-1.4l-2.4-0.5L195,408.5L195,408.5z
		 M198.1,418.9c0,0.1,0,0.4-0.2,0.6l-0.5-0.7l0.1-2.4l0.6,0.1l0.2,1.1l1.2,1.2l-0.1,0.5c0.2,0,0.2,0.1,0,0.5c-0.5,0-0.6-0.1-0.5-0.1
		h-0.1l-0.5-1.2L198.1,418.9L198.1,418.9z M199.4,421.2c0.1,0.2,0,0.2-0.4,0l-0.1-1.1h0.2l0.1-0.2l0.2,0.2V421.2L199.4,421.2z
		 M199,421.5c0.1,0,0.2,0.1,0.2,0.2l0.1,0.6h-0.6c0-0.4,0-0.5,0.1-0.5L199,421.5L199,421.5z M200.8,427.3c0.8,0,0.7,0.4-0.2,1.1H200
		c0.1-0.1,0-0.2-0.2-0.2l0.2-0.6h0.7L200.8,427.3L200.8,427.3z"/>
	<polygon fill="#1D1D1B" points="192.7,414.2 192.7,413.8 192.1,413.4 192,413.9 191.9,414.7 192.3,414.8 192.4,415.6 192.5,416.2 
		193.1,416.5 193.3,417.2 193.5,418.1 193.7,418 193.8,418 193.8,417 193.5,415.7 193,414.4 	"/>
	<path fill="#1D1D1B" d="M188.4,418.2l1.6,1.4h0.6V419l-0.6-0.4l-0.2-0.1l-0.6-1.2l-1.3-2c-0.1,0-0.2,0.2-0.2,0.5
		c0,0.4,0.1,0.5,0.2,0.4v0.8l0.6,0.6v0.6H188.4z"/>
	<path fill="#1D1D1B" d="M194.4,415.3H194c-0.1-0.1-0.2,0.2,0,1l0.4,1.4c0.1,0,0.2-0.2,0.1-0.8L194.4,415.3L194.4,415.3z"/>
	<path fill="#1D1D1B" d="M194.7,426.9l-0.2,0.4l0.5,2.9l0.2,0.1l-0.1,0.6l0.2,0.6l0.2,0.6l0.7,0.2l1-1.2v-0.6l0.4-0.2l0.5-1.6
		c0.1-0.4,0-0.7-0.1-1l-0.4-0.7l-0.1-1.6h-0.2l-0.7,0.6l0.1-0.1l0.6,1l-0.2,0.5l-1-0.8h-1C194.9,426.7,194.8,426.8,194.7,426.9
		L194.7,426.9z"/>
	<path fill="#1D1D1B" d="M193.1,424.5c-0.2,0.6-0.5,1.3-0.6,1.9c-0.1,0-0.2,0-0.2,0.1v0.4h0.8c-0.1-0.6,0.1-1.2,0.5-1.8L193.1,424.5
		L193.1,424.5z"/>
	<path fill="#1D1D1B" d="M175.5,416.3l-0.2-0.7l-0.2,0.2v0.7l-0.4,0.2c0,0.2,0.1,0.6,0.2,1l0.2,1l-0.7,1.1c-0.1,0.2,0,0.8,0.2,1.7
		c0.1,0.7,0.4,1.2,0.5,1.2c0.1,0.1,0.1,0.1,0,0.1L175,423l0.5,0.5l0.2,1.4l0.8,1v0.4l0.1,0.4l0.6,0.4v0.5h-0.1l-0.5-0.1h-0.1
		l-0.5-0.8v1.7l-0.4,0.2l-0.2,1.4l-0.2,2.2l-0.2,0.4l-0.4,2.3l-0.8,1.6c-0.1,0.1,0,0.4,0.1,0.7l-0.1,2.3l0.2,0.1l-0.1,1.7l1.8,0.4
		l0.6-1.8V437c-0.2,0-0.2-0.2,0-0.7l0.1-0.5l0.1-0.5l0.4-0.1v-0.4l1.4-1.1l0.5-0.7h0.5l1.7-1.7l0.2-1.1l0.4-0.2l0.2-0.4v-0.5
		l-0.5,0.1l-0.1,0.6l-0.5,0.2l-0.5,0.1v-0.5l0.5-0.4c0.4-0.2,0.4-0.6,0.2-1.1l-1.1-1l-0.2-1l-1.2-1.3v-0.4v-0.2l-0.7-1.2l-0.7,0.1
		c-0.1,0-0.4,0-0.5-0.1l-0.4-0.6l-0.1-0.7l-1-0.6l-0.1-0.7l0.6,0.1l0.4-0.5c-0.2,0-0.4,0-0.4-0.1v-0.4l0.7,0.4
		c0.2,0.7,0.4,1.3,0.5,1.6l0.4,0.4c0.2,0.1,0.2,0.1,0.2-0.1V421l-0.2-0.2l-0.4-2.2l-0.2-0.1L175.5,416.3L175.5,416.3z M178.1,425.3
		c-0.5,0-0.7-0.1-0.4-0.4l-0.2-0.2v-0.5l0.6,0.4L178.1,425.3L178.1,425.3z M179,430.5l-0.1-1h0.6l0.1,1.2l-0.5,0.5h-0.2v-0.5
		C178.8,431,178.8,430.9,179,430.5L179,430.5z M175,435.2l0.7,0.5v0.6l-1-0.4L175,435.2L175,435.2z M175.3,437.9l0.5,0.4
		c0.1,0.5,0.1,0.8,0,1.3l-0.5,0.8l-0.6-0.1C175,439.7,175.3,438.9,175.3,437.9L175.3,437.9z"/>
	<path fill="#1D1D1B" d="M173.9,442l0.2,0.4l0.5,2.3c0.1,0.7,0.2,1.1,0.5,1.2v0.1l-0.1,0.2l0.2,0.2l0.2,2.5l1.2-0.4
		c0.5,1.2,1,1.8,1.4,1.9h1l0.2,0.7h0.2l0.4,0.5l0.5,0.1l0.7,0.1c0.2-1,0.2-1.7,0.1-2.2l-0.2-0.1c0.2-0.1,0.1-0.2-0.1-0.2
		c-0.5,0-0.5,0-0.2,0.1l-0.5,0.2l-0.2,0.5c0.1,0,0,0.1-0.6,0.2l0.1-0.4l0.2-0.5l0.5-0.1v-0.2v-0.5l-0.1-0.5h-0.6v0.1l-1,0.5
		l-0.5-0.8l-0.6-0.5l-0.1-1l-0.7-0.4v-0.5l-0.4-0.4l-0.2-3.1l-1.9-0.6C173.9,441.8,173.9,441.9,173.9,442L173.9,442z"/>
	<path fill="#1D1D1B" d="M187.8,452.4v0.5l1.2,0.5v0.5l-1.6-0.4l0.1,0.4l-0.2,0.1l-0.1,1.8l2.8-1.8c-0.1-0.8-0.2-1.6-0.5-2.3l1.1-1
		c0.1-0.2,0.1-0.7,0-1.2v-1.2l0.2-0.2l-0.1-0.5l0.4-0.1l0.1-0.7l-1.2-1l-1,2.8h-0.2l-0.2,1.1h-0.1l0.1,0.7l0.2,0.4
		c0,0.5-0.1,0.8-0.4,1.1L187.8,452.4L187.8,452.4z"/>
	<polygon fill="#1D1D1B" points="193,442.4 192.5,442.6 192.5,443.5 193.1,443.7 193.1,444.3 193.6,444.5 193.7,443.2 	"/>
	<path fill="#1D1D1B" d="M192.1,443.9v0.2l0.1,0.7v0.2l-0.6,1.6l0.8-0.2l0.2-0.4l0.4-0.4v-0.4l-0.1-0.5l-0.2-0.1l-0.1-0.2v-0.1v-0.2
		C192.6,444,192.5,443.9,192.1,443.9L192.1,443.9L192.1,443.9z"/>
	<path fill="#1D1D1B" d="M200.3,450.2v-0.8l-1.4-0.2c-0.4,1-0.4,1.4-0.1,1.6C198.8,450.8,199.4,450.6,200.3,450.2L200.3,450.2z"/>
	<path fill="#1D1D1B" d="M267.8,406.3h-1.4L256,435.1h-1.8v0.6h5.9v-0.6h-3.4l4-11.5h9.2l4.1,11.5h-4.3v0.6h10.8v-0.6h-2.3
		L267.8,406.3L267.8,406.3z M265.3,411.1l4.3,12H261L265.3,411.1L265.3,411.1z"/>
	<path fill="#1D1D1B" d="M219.3,398h2.9v36.9h-2.9v0.8h12.9v-0.8H228v-18.2h0.4l15.1,19h8v-0.8h-2.3L235,416.5
		c9.3-0.2,14-3.6,14-10.1c0-6.2-5.1-9.3-15.7-9.3l-14,0.1V398L219.3,398z M239.1,399.4c2.2,1.3,3.1,3.6,3.1,7.1c0,3-0.8,5.4-2.5,7.1
		c-1.6,1.6-3.8,2.3-6.7,2.3h-4.9V398h3.5C235,398,237.6,398.4,239.1,399.4L239.1,399.4z"/>
	<polygon fill="#1D1D1B" points="337.6,406.5 337.6,406.9 340.7,406.9 340.7,435.1 337.6,435.1 337.6,435.7 347.9,435.7 
		347.9,435.1 344.7,435.1 344.7,420.9 357.7,420.9 357.7,435.1 354.8,435.1 354.8,435.7 364.8,435.7 364.8,435.1 361.7,435.1 
		361.7,406.9 364.8,406.9 364.8,406.5 354.8,406.5 354.8,406.9 357.7,406.9 357.7,420.3 344.7,420.3 344.7,406.9 347.9,406.9 
		347.9,406.5 	"/>
	<path fill="#1D1D1B" d="M322.2,406.3l-11.4,0.1v0.6h2.5v27.8h-2.5v0.6h10.7v-0.6H318v-13h3.6c8.9,0,13.3-2.6,13.3-7.8
		c0-2.5-1-4.3-2.6-5.5C330.1,407.1,326.8,406.3,322.2,406.3L322.2,406.3z M318,407.1l2.8-0.1c3.2,0,5.4,0.5,6.6,1.6
		c1.3,1,2,2.9,2,5.5c0,4.8-2.5,7.2-7.4,7.2h-4V407.1L318,407.1z"/>
	<path fill="#1D1D1B" d="M294.4,406.5h-11.3v0.5h3v28.1h-3v0.6h22.6v-9.1h-0.5c-1.2,5.6-4.1,8.5-8.3,8.5H290V407h4.4V406.5
		L294.4,406.5z"/>
</g>
</svg>
