<?xml version="1.0" encoding="utf-8"?>
<!-- Generator: Adobe Illustrator 17.1.0, SVG Export Plug-In . SVG Version: 6.00 Build 0)  -->
<!DOCTYPE svg PUBLIC "-//W3C//DTD SVG 1.1//EN" "http://www.w3.org/Graphics/SVG/1.1/DTD/svg11.dtd">
<svg version="1.1" id="Calque_1" xmlns="http://www.w3.org/2000/svg" xmlns:xlink="http://www.w3.org/1999/xlink" x="0px" y="0px"
	 viewBox="0 0 595.3 841.9" enable-background="new 0 0 595.3 841.9" xml:space="preserve">
<path fill="#1D1D1B" d="M51.4,396.9H57c6.7,0,8.8,4.6,8.8,8.8c0,6-3.5,9.6-10.8,9.6h-3.6C51.4,415.3,51.4,396.9,51.4,396.9z
	 M56,437.8v-1.3h-4.6v-20.1h0.2l15.5,21.5h9.7v-1.3h-3l-14.5-20.1c8.8-0.5,13.4-4.6,13.4-10.6c0-5.3-3.6-10.2-13.9-10.2H41.1v1.3
	h3.7v39.5h-3.7v1.3L56,437.8L56,437.8z"/>
<path fill="#1D1D1B" d="M99.6,401.6L99.6,401.6l5.9,17.9h-12L99.6,401.6z M93.6,437.8v-1.3h-5.9l5.3-15.6h12.9l5,15.6h-4.5v1.3h13.5
	v-1.3h-2.4l-13.4-41.4h-3.9L86,436.4h-3.5v1.3L93.6,437.8L93.6,437.8z"/>
<path fill="#1D1D1B" d="M141.2,436.4h9c4,0,5.2-0.7,8.8-15.6h1.3v17h-29.5v-1.3h3.7V397h-3.7v-1.3h16.4v1.3h-6.1v39.4H141.2z"/>
<path fill="#1D1D1B" d="M184.9,396.9h6.3c6.3,0,9,4,9,9.7c0,7.3-2.9,9.3-9.5,9.3H185v-19H184.9z M190.5,437.8v-1.3h-5.6v-19.2h7.3
	c10,0,14.9-4.3,14.9-10.7s-5.2-11-14.9-11h-17.5v1.3h3.7v39.5h-3.7v1.3h15.8V437.8z"/>
<path fill="#1D1D1B" d="M228.7,416.5v19.9h4v1.3h-14.3v-1.3h3.7v-39.5h-3.7v-1.3h14.3v1.3h-4v18.3h16.2v-18.3h-4v-1.3h14.3v1.3h-3.7
	v39.5h3.7v1.3h-14.3v-1.3h4v-19.9H228.7z"/>
<path fill="#1D1D1B" d="M302.7,436.4h9c4,0,5.2-0.7,8.8-15.6h1.3v17h-29.5v-1.3h3.7V397h-3.7v-1.3h16.4v1.3h-6.1v39.4H302.7z"/>
<path fill="#1D1D1B" d="M348.7,401.6h0.1l5.8,17.9h-12L348.7,401.6z M342.7,437.8v-1.3h-5.9l5.3-15.6H355l5,15.6h-4.5v1.3H369v-1.3
	h-2.4l-13.4-41.4h-3.9l-14.2,41.4h-3.5v1.3H342.7z"/>
<path fill="#1D1D1B" d="M394,395.6v1.3h-4.4v30.7c0,7.4,4.2,9.8,8.1,9.8c5.8,0,9.9-3.9,9.9-10.3v-30.3H402v-1.3h10.9v1.3h-3.7v30.3
	c0,7.1-4.7,11.5-11.8,11.5c-9.9,0-14.4-4.1-14.4-12.6v-29.3h-3.7v-1.3H394V395.6z"/>
<path fill="#1D1D1B" d="M435.2,396.9h5.6c6.7,0,8.8,4.6,8.8,8.8c0,6-3.5,9.6-10.8,9.6h-3.6V396.9z M439.9,437.8v-1.3h-4.6v-20.1h0.2
	l15.5,21.5h9.7v-1.3h-3l-14.5-20.1c8.8-0.5,13.4-4.6,13.4-10.6c0-5.3-3.6-10.2-13.9-10.2H425v1.3h3.7v39.5H425v1.3L439.9,437.8
	L439.9,437.8z"/>
<path fill="#1D1D1B" d="M469.9,437.8v-1.3h3.7V397h-3.7v-1.3h31v13.5h-1.3c-3.3-11.4-4.3-12.2-7.3-12.2h-12.1v18.3h4.8
	c3.1,0,4.5-1.9,5.7-8.4h1.3V425h-1.3c-1.2-6.5-2.7-8.4-5.7-8.4h-4.8v19.9h10.7c4.3,0,5.6-1.6,9.2-14.3h1.3v15.6L469.9,437.8
	L469.9,437.8z"/>
<path fill="#1D1D1B" d="M520.6,398.1L520.6,398.1l-0.1,38.3h5.1v1.3h-10.9v-1.3h4v-39.5h-4v-1.3h11.7l17.9,30.5h0.1v-29.2h-4.9v-1.3
	h10.6v1.3h-4v40.9H544L520.6,398.1z"/>
</svg>
