<?xml version="1.0" encoding="utf-8"?>
<!-- Generator: Adobe Illustrator 17.1.0, SVG Export Plug-In . SVG Version: 6.00 Build 0)  -->
<!DOCTYPE svg PUBLIC "-//W3C//DTD SVG 1.1//EN" "http://www.w3.org/Graphics/SVG/1.1/DTD/svg11.dtd">
<svg version="1.1" id="Calque_1" xmlns="http://www.w3.org/2000/svg" xmlns:xlink="http://www.w3.org/1999/xlink" x="0px" y="0px"
	 viewBox="0 0 595.3 841.9" enable-background="new 0 0 595.3 841.9" xml:space="preserve">
<g>
	<path fill="#1D1D1B" d="M513.2,408.2h-4.5c-0.2,0-0.4-0.2-0.4-0.4v-1.9c0-0.2,0.2-0.4,0.4-0.4h22c11.3,0,17.6,5.8,17.6,13.2v1.5
		c0,8.7-5.8,13.5-16.6,13.5h-23.3c-0.2,0-0.4-0.2-0.4-0.4v-1.9c0-0.2,0.2-0.4,0.4-0.4h4.8V408.2L513.2,408.2z M522.9,431h6.8
		c6.5,0,9-5,9-12.2c0-6.8-3-10.6-9-10.6h-6.8V431L522.9,431z"/>
	<path fill="#1D1D1B" d="M265.7,431.1c0.2,0,0.4-0.2,0.4-0.4v-22.1c0-0.2-0.2-0.4-0.4-0.4h-4.5c-0.2,0-0.4-0.2-0.4-0.4v-1.9
		c0-0.2,0.2-0.4,0.4-0.4h20.5c0.2,0,0.4,0.2,0.4,0.4v1.9c0,0.2-0.2,0.4-0.4,0.4h-4.8c-0.2,0-0.4,0.2-0.4,0.4v22
		c0,0.2,0.2,0.4,0.4,0.4h6.2c7.6,0,12.9-3.8,14.3-5.1c0,0,0.5-0.5,0.9-0.5c0.4,0,0.6,0.2,0.6,0.7v7.3c0,0.2-0.2,0.4-0.4,0.4H261
		c-0.2,0-0.4-0.2-0.4-0.4v-1.9c0-0.2,0.2-0.4,0.4-0.4H265.7L265.7,431.1z"/>
	<path fill="#1D1D1B" d="M356.1,433.7c-0.2,0-0.4-0.2-0.4-0.4v-1.2c0-0.4,0.1-0.5,0.3-0.7l22.2-23.3h-6.7c-8.7,0-11.8,3.8-13.1,5.1
		c0,0-0.5,0.5-0.9,0.5c-0.4,0-0.6-0.2-0.6-0.7v-7.2c0-0.2,0.2-0.4,0.4-0.4h34.5c0.2,0,0.4,0.2,0.4,0.4v0.5c0,0.2-0.1,0.4-0.2,0.6
		l-22.8,24h8.3c10.2,0,13.4-3.9,14.6-5.1c0,0,0.5-0.5,0.9-0.5c0.4,0,0.6,0.2,0.6,0.7c0,0.1,0,7.3,0,7.3c0,0.2-0.2,0.4-0.4,0.4
		L356.1,433.7L356.1,433.7z"/>
	<path fill="#1D1D1B" d="M470,433.3c0,0.2-0.2,0.4-0.4,0.4h-14.3c-0.2,0-0.4-0.2-0.4-0.4v-1.9c0-0.2,0.2-0.4,0.4-0.4h4.9v-23.1h-4.6
		c-0.2,0-0.4-0.2-0.4-0.4v-1.9c0-0.2,0.2-0.4,0.4-0.4h22.3c12,0,17.1,2.7,17.1,7.5c0,5.4-4.4,7.4-7.9,8l6.3,8.3
		c1,1.3,2.9,1.8,3.8,1.8l1.7,0.1c0.2,0,0.4,0.2,0.4,0.4v1.9c0,0.2-0.2,0.4-0.4,0.4h-13.1c-0.4,0-0.7-0.1-0.9-0.4l-8.3-11.5H470
		V433.3L470,433.3z M476.1,419.1c7,0,8.9-1.3,8.9-5.9c0-5.1-3.6-5.4-8.6-5.4H470v11.3H476.1L476.1,419.1z"/>
	<path fill="#1D1D1B" d="M56.3,433.3c0,0.2-0.2,0.4-0.4,0.4H41.5c-0.2,0-0.4-0.2-0.4-0.4v-1.9c0-0.2,0.2-0.4,0.4-0.4h4.9v-23.1h-4.6
		c-0.2,0-0.4-0.2-0.4-0.4v-1.9c0-0.2,0.2-0.4,0.4-0.4h22.3c12,0,17.1,2.7,17.1,7.5c0,5.4-4.4,7.4-7.9,8l6.3,8.3
		c1,1.3,2.9,1.8,3.8,1.8l1.7,0.1c0.2,0,0.4,0.2,0.4,0.4v1.9c0,0.2-0.2,0.4-0.4,0.4H72c-0.4,0-0.7-0.1-0.9-0.4l-8.3-11.5h-6.6
		L56.3,433.3L56.3,433.3z M62.3,419.1c7,0,8.9-1.3,8.9-5.9c0-5.1-3.6-5.4-8.6-5.4h-6.4v11.3H62.3L62.3,419.1z"/>
	<path fill="#1D1D1B" d="M179.3,408.2H175c-0.2,0-0.4-0.2-0.4-0.4v-1.9c0-0.2,0.2-0.4,0.4-0.4h12.6c0.2,0,0.4,0.2,0.4,0.4v1.9
		c0,0.2-0.2,0.4-0.4,0.4h-4.9v23.2v1.8c0,0.2-0.2,0.4-0.4,0.4H180c-0.4,0-0.7-0.1-0.9-0.3l-27-20.3v18h4.3c0.2,0,0.4,0.2,0.4,0.4
		v1.9c0,0.2-0.2,0.4-0.4,0.4h-12.6c-0.2,0-0.4-0.2-0.4-0.4v-1.9c0-0.2,0.2-0.4,0.4-0.4h4.9v-20.5l-5.3-4.1c-0.5-0.4-0.5-0.9,0-0.9
		h14.7l21.1,15.7L179.3,408.2L179.3,408.2z"/>
	<path fill="#1D1D1B" d="M413.2,423.3h13l-6.3-10.8L413.2,423.3L413.2,423.3z M427.8,426.1h-16.2l-3.1,5h4.5c0.2,0,0.4,0.2,0.4,0.4
		v1.9c0,0.2-0.2,0.4-0.4,0.4h-12.8c-0.2,0-0.4-0.2-0.4-0.4v-1.9c0-0.2,0.2-0.4,0.4-0.4h4.6l13.3-21.9l-1.9-3.1
		c-0.2-0.3-0.1-0.6,0.2-0.6h10.8c0.4,0,0.6,0.2,0.8,0.4l9.8,17c4.8,8.3,6.9,7.9,7.8,8l1.7,0.1c0.2,0,0.4,0.2,0.4,0.4v2
		c0,0.2-0.2,0.4-0.4,0.4h-14.5c-0.3,0-0.4-0.1-0.6-0.3L427.8,426.1L427.8,426.1z"/>
	<path fill="#1D1D1B" d="M311.6,408.2h-4.5c-0.2,0-0.4-0.2-0.4-0.4v-1.9c0-0.2,0.2-0.4,0.4-0.4h36.4c0.2,0,0.4,0.2,0.4,0.4v6.9
		c0,0.5-0.2,0.7-0.6,0.7c-0.4,0-1.3-0.9-1.6-1.2c-1.8-1.8-6.4-4.1-13-4.1h-7.1v8.7h3.9c3.4,0,6.5-1.7,7.1-2.3
		c0.1-0.1,0.3-0.2,0.4-0.2c0.2,0,0.3,0.1,0.3,0.3v7.3c0,0.2-0.1,0.3-0.3,0.3c-0.1,0-0.4-0.2-0.4-0.2c-0.6-0.6-3.7-2.3-7.1-2.3h-3.9
		v11.3h7.1c6.6,0,11.9-2.4,13.9-4.3c0.3-0.3,1.3-1.2,1.6-1.2c0.4,0,0.6,0.2,0.6,0.7v7.1c0,0.2-0.2,0.4-0.4,0.4h-37.7
		c-0.2,0-0.4-0.2-0.4-0.4v-1.9c0-0.2,0.2-0.4,0.4-0.4h4.8L311.6,408.2L311.6,408.2z"/>
	<path fill="#1D1D1B" d="M99.2,408.2h-4.5c-0.2,0-0.4-0.2-0.4-0.4v-1.9c0-0.2,0.2-0.4,0.4-0.4h36.4c0.2,0,0.4,0.2,0.4,0.4v6.9
		c0,0.5-0.2,0.7-0.6,0.7c-0.4,0-1.3-0.9-1.6-1.2c-1.8-1.8-6.4-4.1-13-4.1h-7.1v8.7h3.9c3.4,0,6.5-1.7,7.1-2.3
		c0.1-0.1,0.3-0.2,0.4-0.2c0.2,0,0.3,0.1,0.3,0.3v7.3c0,0.2-0.1,0.3-0.3,0.3c-0.1,0-0.4-0.2-0.4-0.2c-0.6-0.6-3.7-2.3-7.1-2.3h-3.9
		v11.3h7.1c6.6,0,11.9-2.4,13.9-4.3c0.3-0.3,1.3-1.2,1.6-1.2c0.4,0,0.6,0.2,0.6,0.7v7.1c0,0.2-0.2,0.4-0.4,0.4H94.3
		c-0.2,0-0.4-0.2-0.4-0.4v-1.9c0-0.2,0.2-0.4,0.4-0.4h4.8L99.2,408.2L99.2,408.2z"/>
	<path fill="#1D1D1B" d="M231.1,395v5.2c0,0.5-0.2,0.7-0.6,0.7H205c-0.6,0-1-0.1-1-0.7c0-0.3,0.2-0.6,0.7-0.7l25.8-5.1
		C230.8,394.4,231.1,394.6,231.1,395L231.1,395z"/>
	<path fill="#1D1D1B" d="M201.8,408.2h-4.5c-0.2,0-0.4-0.2-0.4-0.4v-1.9c0-0.2,0.2-0.4,0.4-0.4h36.4c0.2,0,0.4,0.2,0.4,0.4v6.9
		c0,0.5-0.2,0.7-0.6,0.7c-0.4,0-1.3-0.9-1.6-1.2c-1.8-1.8-6.4-4.1-13-4.1h-7.1v8.7h3.9c3.4,0,6.5-1.7,7.1-2.3
		c0.1-0.1,0.3-0.2,0.4-0.2c0.2,0,0.3,0.1,0.3,0.3v7.3c0,0.2-0.1,0.3-0.3,0.3c-0.1,0-0.4-0.2-0.4-0.2c-0.6-0.6-3.7-2.3-7.1-2.3h-3.9
		v11.3h7.1c6.6,0,11.9-2.4,13.9-4.3c0.3-0.3,1.3-1.2,1.6-1.2c0.4,0,0.6,0.2,0.6,0.7v7.1c0,0.2-0.2,0.4-0.4,0.4H197
		c-0.2,0-0.4-0.2-0.4-0.4v-1.9c0-0.2,0.2-0.4,0.4-0.4h4.8V408.2L201.8,408.2z"/>
</g>
</svg>
