<?xml version="1.0" encoding="utf-8"?>
<!-- Generator: Adobe Illustrator 17.1.0, SVG Export Plug-In . SVG Version: 6.00 Build 0)  -->
<!DOCTYPE svg PUBLIC "-//W3C//DTD SVG 1.1//EN" "http://www.w3.org/Graphics/SVG/1.1/DTD/svg11.dtd">
<svg version="1.1" id="Calque_1" xmlns="http://www.w3.org/2000/svg" xmlns:xlink="http://www.w3.org/1999/xlink" x="0px" y="0px"
	 viewBox="0 0 595.3 841.9" enable-background="new 0 0 595.3 841.9" xml:space="preserve">
<g>
	<g>
		<g>
			<path id="SVGID_1_" fill="#1D1D1B" d="M41.2,375.3"/>
		</g>
		<g>
			<path id="SVGID_2_" fill="none" stroke="#1D1D1B" stroke-width="5.000000e-02" d="M41.2,375.3"/>
		</g>
	</g>
	<g>
		<path fill="#1D1D1B" stroke="#1D1D1B" stroke-width="5.000000e-02" d="M197.5,464.3c-0.6,3-3.3,9.1-11.8,9.1
			c-8.4,0-13.1-5.1-13.1-12.4c0-7,4.3-12.4,13.1-12.4c8,0,11.1,5,11.6,8.3H194c-1-4-4.2-5.6-8.3-5.6c-6.7,0-9.8,4.2-9.8,9.6
			c0,5.8,3.5,9.6,9.8,9.6c4.9,0,7.6-2.6,8.5-6.3L197.5,464.3L197.5,464.3z"/>
		<path fill="#1D1D1B" stroke="#1D1D1B" stroke-width="5.000000e-02" d="M204,456.5c0.5-4.9,3.1-7.9,11.1-7.9
			c7.8,0,10.7,2.4,10.7,6.9v12.2c0,1.9,0.5,2.6,1.8,2.6c0.6,0,1.2,0,1.7-0.1v2.2c-0.7,0.1-1.7,0.4-2.8,0.4c-3.4,0-3.5-2.3-3.6-4.1
			h-0.1c-1,1.5-3.3,4.7-10.9,4.7c-4,0-9.1-1.7-9.1-7c0-6.3,6.5-7,11.6-7.3c7.3-0.4,8.2-0.8,8.2-3.1c0-3.4-2.2-4.6-7.7-4.6
			c-5.2,0-7.8,1.4-8,5.1L204,456.5L204,456.5z M222.8,460.1c-1.5,0.9-3.7,1.1-10.4,1.7c-3.9,0.4-6.1,1.5-6.1,4.3
			c0,3.6,3.1,4.7,6.7,4.7c4.5,0,9.7-2.4,9.7-7.2v-3.5H222.8z"/>
		<path fill="#1D1D1B" stroke="#1D1D1B" stroke-width="5.000000e-02" d="M251.9,456.2c-0.9-3.8-3.2-4.8-8-4.8c-3.5,0-6.7,0.8-6.7,4
			c0,2.4,1.6,2.9,8.6,3.9c7.1,0.9,10.1,2.2,10.1,6.7c0,4.6-3.8,7.4-11.1,7.4c-7.4,0-11.8-2.4-11.8-8h3c0.6,3.9,2.8,5.2,8.7,5.2
			c4.6,0,7.8-0.9,7.8-4.4c0-2.3-1.7-3.4-8.9-4.1c-7.3-0.7-9.8-2.4-9.8-6.5c0-4,3.3-6.9,10-6.9c7.6,0,10.7,2.7,11.1,7.6h-3V456.2z"/>
		<path fill="#1D1D1B" stroke="#1D1D1B" stroke-width="5.000000e-02" d="M262.5,440.4h3.3v13.5h0.1c1-2.5,4.5-5.3,9.6-5.3
			c7.8,0,10.1,4,10.1,9.6v14.4h-3.3v-15c0-4.6-2.8-6.2-7-6.2c-6.5,0-9.5,3.3-9.5,8.6v12.6h-3.3L262.5,440.4L262.5,440.4z"/>
		<path fill="#1D1D1B" stroke="#1D1D1B" stroke-width="5.000000e-02" d="M330.1,457.9c0-4.3-2.2-6.5-6.9-6.5c-5.1,0-7.9,3-7.9,7.5
			v13.8H312v-15.8c0-3-2.1-5.5-6.6-5.5c-4.8,0-8.2,2.7-8.2,8.1v13.1h-3.3v-23.3h3.3v4.3h0.1c1.4-2.5,3.9-5,9.2-5
			c5.2,0,7.7,2.8,8.3,5.1c1.1-2.3,4.5-5.1,9.1-5.1c6.5,0,9.6,3.3,9.6,8.1v15.9h-3.3v-14.7H330.1z"/>
		<path fill="#1D1D1B" stroke="#1D1D1B" stroke-width="5.000000e-02" d="M365.9,465.2c-1.3,4.1-4.8,8.2-12.5,8.2
			c-9.5,0-12.7-6.7-12.7-12.4c0-6.5,4-12.4,12.7-12.4c6,0,13.1,2.6,13.1,13.2H344c0,4.8,3.4,8.8,9.4,8.8c5.6,0,8.1-1.8,9.2-5.4
			L365.9,465.2L365.9,465.2z M363.2,459.3c-0.9-5.7-5.2-7.9-9.6-7.9c-4.3,0-8.8,2.2-9.6,7.9H363.2z"/>
		<path fill="#1D1D1B" stroke="#1D1D1B" stroke-width="5.000000e-02" d="M373.5,449.3h3.3v5.3h0.1c1.2-2.8,3.4-6.1,8.9-6.1
			c0.9,0,1.5,0.1,2,0.2v3.4c-1-0.2-2-0.3-3-0.3c-3.6,0-7.9,2.2-7.9,8.8v11.9h-3.3v-23.2H373.5z"/>
		<path fill="#1D1D1B" stroke="#1D1D1B" stroke-width="5.000000e-02" d="M417.5,465.2c-1.3,4.1-4.8,8.2-12.5,8.2
			c-9.5,0-12.7-6.7-12.7-12.4c0-6.5,4-12.4,12.7-12.4c6,0,13.1,2.6,13.1,13.2h-22.5c0,4.8,3.5,8.8,9.4,8.8c5.6,0,8.1-1.8,9.2-5.4
			L417.5,465.2L417.5,465.2z M414.8,459.3c-0.9-5.7-5.2-7.9-9.6-7.9c-4.3,0-8.8,2.2-9.6,7.9H414.8z"/>
	</g>
	<g>
		<g>
			<path id="SVGID_3_" fill="#1D1D1B" d="M422.5,472.6"/>
		</g>
		<g>
			<path id="SVGID_4_" fill="none" stroke="#1D1D1B" stroke-width="5.000000e-02" d="M422.5,472.6"/>
		</g>
	</g>
</g>
<path fill="#1D1D1B" stroke="#1D1D1B" stroke-width="5.000000e-02" d="M79.1,391.4h13.6c4.2-0.1,6.7-0.2,7.6-0.4
	c1.1-0.2,1.9-0.7,2.5-1.5c0.6-0.8,0.9-1.7,0.9-2.8c0-1-0.3-2-0.8-2.8c-0.5-0.8-1.3-1.3-2.2-1.6c-1.5-0.5-4.1-0.7-8-0.7H79.1V391.4
	L79.1,391.4L79.1,391.4z M42.5,373.7h50.2h7.6c6.9,0,12.6,0.8,17,2.3c2.3,0.8,4.4,2.1,6.2,3.8c1.9,1.9,2.9,3.9,2.9,5.9
	c0,2.7-1.6,4.9-4.9,6.7c-2.9,1.6-7.2,2.7-13.1,3.4c2.5,0.6,4.5,1.3,5.9,2c1.4,0.7,2.8,1.8,4.2,3.2c1.1,1.1,2,2.2,2.8,3.4
	c0.8,1.2,1.6,2.9,2.7,5.2l10,6.1h-29.4c-1-2.5-2.2-5.1-3.6-7.7c-1.4-2.7-2.4-4.6-3.2-5.8c-0.8-1.1-1.7-1.8-2.8-2.2
	c-1.1-0.3-3.1-0.5-5.9-0.5h-10v6.4l15.2,9.8H42.5l15.2-9.8v-22.4L42.5,373.7L42.5,373.7L42.5,373.7z"/>
<polygon fill="#1D1D1B" stroke="#1D1D1B" stroke-width="5.000000e-02" points="215.8,373.7 215.8,392 200.2,380.7 171,380.7 
	171,389.9 187.1,389.9 198.5,385 198.5,403.9 187.1,398.3 171,398.3 171,407.4 200.2,407.4 217,395.5 217,415.9 134.4,415.9 
	149.6,406 149.6,383.6 134.4,373.7 215.8,373.7 "/>
<path fill="#1D1D1B" stroke="#1D1D1B" stroke-width="5.000000e-02" d="M256.5,394h15.8c2.6,0,4.6-0.2,6-0.6c1-0.3,1.9-0.9,2.5-1.9
	c0.6-0.9,0.9-2.1,0.9-3.5c0-2.6-0.9-4.3-2.8-5.2c-1.3-0.7-3.4-1-6.3-1h-16V394H256.5L256.5,394z M219.9,373.7h54.7
	c7.9,0,14.5,1.2,19.9,3.6c6.6,2.9,9.9,6.8,9.9,11.5c0,4.8-3.6,8.4-10.9,11c-2.3,0.8-4.6,1.3-6.8,1.7c-2.3,0.3-5.3,0.4-9,0.4h-21.2v4
	l15.2,9.8h-51.8l15.2-9.8v-22.5L219.9,373.7L219.9,373.7L219.9,373.7z"/>
<polygon fill="#1D1D1B" stroke="#1D1D1B" stroke-width="5.000000e-02" points="385.3,373.7 385.3,392 369.8,380.7 340.5,380.7 
	340.5,389.9 356.6,389.9 368,385 368,403.9 356.6,398.3 340.5,398.3 340.5,407.4 369.8,407.4 386.5,395.5 386.5,415.9 303.9,415.9 
	319.1,406 319.1,383.6 303.9,373.7 385.3,373.7 "/>
<path fill="#1D1D1B" stroke="#1D1D1B" stroke-width="5.000000e-02" d="M429.6,386l-7.3,11.5h15.1L429.6,386L429.6,386L429.6,386z
	 M458.7,373.7l-9.9,7.7l17.3,24.6l15.6,9.8h-52.2l14.4-8.6l-1.9-2.9h-23.8l-1.9,2.9l12.5,8.6h-38.7l12.2-9.8l17.1-24.6l-9.7-7.7
	H458.7L458.7,373.7L458.7,373.7z"/>
<polygon fill="#1D1D1B" stroke="#1D1D1B" stroke-width="5.000000e-02" points="547.9,373.7 549.3,394.1 533.4,381.2 523.7,381.2 
	523.7,406 538.9,415.9 487.2,415.9 502.4,406 502.4,381.2 492.7,381.2 476.8,394.1 478.2,373.7 547.9,373.7 "/>
</svg>
