<?xml version="1.0" encoding="utf-8"?>
<!-- Generator: Adobe Illustrator 17.1.0, SVG Export Plug-In . SVG Version: 6.00 Build 0)  -->
<!DOCTYPE svg PUBLIC "-//W3C//DTD SVG 1.1//EN" "http://www.w3.org/Graphics/SVG/1.1/DTD/svg11.dtd">
<svg version="1.1" id="Calque_1" xmlns="http://www.w3.org/2000/svg" xmlns:xlink="http://www.w3.org/1999/xlink" x="0px" y="0px"
	 viewBox="0 0 595.3 841.9" enable-background="new 0 0 595.3 841.9" xml:space="preserve">
<g>
	<path fill="#1D1D1B" d="M92.8,398.5c0.5,23.3-25.9,20.5-27.9,20.2c-0.9-0.1-1.4-1.1-1.4-1.1v-36.2c0-0.2,0.7-0.9,1.9-1.3
		C66.6,379.7,92.3,375.1,92.8,398.5 M253.8,380.1c-1.7,0.6-2.9,1.5-3.3,2.5c-0.1,0.1-0.3,1.3-0.3,2.4v31.6c0,0,0,0.2,0.5,0.4
		c0.4,0.2,1,0.4,1.7,0.5c6.8,1.2,25.7,1.8,26-18.1C278.6,383.3,262.2,377.1,253.8,380.1 M423.2,402.7c0.7-1.3,1-0.9,1.3-0.4
		c0.4,0.9,10.4,23.8,11.9,27.1c0.1,0.1,0.1,0.2,0,0.4c-0.2,0.1-0.6,0.1-0.9,0.1H412c0,0-0.3,0-0.5-0.2c-0.1-0.1-0.2-0.2-0.1-0.5
		C412.4,426.1,422.9,403.3,423.2,402.7 M44.9,459.1c0,4.7-3.4,6.6-5,7.2c-0.9,0.3-1.7,0.5-2.4,0.7c-0.7,0.2-1.4,0.5-1.9,0.7
		c-1.1,0.5-1.9,1.2-1.9,2.5c0,1.5,1,2.4,2.5,2.4h36.2c1.5,0,2.5-0.9,2.5-2.4c0-1.2-0.9-2-1.9-2.5c-0.5-0.2-1.2-0.5-1.9-0.7
		c-0.7-0.2-1.5-0.5-2.4-0.7c-1.6-0.5-4.7-2.3-5-6.5v-32.3c0-0.1,0.1-0.4,0.1-0.4c0.5-0.5,8.2-0.8,9.2,0.4
		c5.5,7.2,14.7,19.1,32.9,43.8c0.4,0.6,1.2,1.4,2.4,1.4h22.8c1.1,0,2.7-0.2,2.6-2c-0.1-1.1-0.9-1.6-1.9-2c-1-0.4-2.4-0.8-4.5-1.6
		c-5.8-2.1-9.4-6.6-12.5-10.8c0,0-20.7-28.8-22.3-31c-0.2-0.2-0.2-0.3,0.1-0.4c0.3-0.2,0.8-0.5,1.4-0.7c0.6-0.3,1.3-0.6,2.1-1
		c1.6-0.7,3.5-1.7,5.4-2.9c6.8-3.9,11.7-10.1,12-19.8c0.8-22-20-29.5-29.4-29.5H36.2c-1.5,0-2.5,0.9-2.5,2.4c0,1.2,0.9,2,1.9,2.5
		c0.5,0.2,1.2,0.5,1.9,0.7c0.7,0.2,1.5,0.5,2.4,0.7c1.7,0.5,5,2.4,5,7.2V459.1z M226.3,377.2c-0.9-0.3-1.7-0.5-2.4-0.7
		c-0.7-0.2-1.4-0.5-1.9-0.7c-1.1-0.5-1.9-1.2-1.9-2.5c0-1.5,1-2.4,2.5-2.4h46.9c9,0,28.9,5.5,28.9,28.1c0,28.3-30.9,29.9-47.9,27.3
		c-0.1,0-0.2,0-0.2,0c0,0.1-0.1,0.2-0.1,0.4v32.7c0.1,4.5,3.4,6.3,5,6.8c0.9,0.3,1.7,0.5,2.4,0.7c0.7,0.2,1.4,0.5,1.9,0.7
		c1.1,0.5,1.9,1.2,1.9,2.5c0,1.5-1,2.4-2.5,2.4h-36.2c-1.4,0-2.6-0.9-2.6-2.4c0-1.3,0.9-2,2-2.5c0.5-0.2,1.2-0.5,1.9-0.7
		c0.7-0.2,1.5-0.5,2.4-0.7c1.6-0.5,4.8-2.3,5.1-6.7v-75.7C231.3,379.6,227.9,377.7,226.3,377.2 M469.7,460.1
		c-0.7-1.6-38.2-84.9-39.8-88.1c-0.8-1.5-4.8-1.7-5.6,0.2c-1.1,2.6-33.5,76.9-38.4,88c0,0.1-2.2,5.4-4.9,6.5
		c-1.7,0.7-3.2,1.1-4.2,1.5c-1,0.4-2,1-2,2.3c0,1.6,1.3,2.1,2.5,2.1h27.3c1.1,0,2.5-0.1,2.5-1.9c0-1-0.6-1.6-1.5-2.1
		c-0.9-0.4-2.3-0.8-4.3-1.3c-0.9-0.2-2.2-0.6-3.1-1.2c-0.9-0.6-1.3-1.2-0.9-2.2v-0.3c0-0.2,7.8-19.7,8.9-21.6
		c0.2-0.3,0.3-0.6,0.4-0.9c0.1-0.2,0.2-0.4,0.3-0.5c0.1-0.1,0.4-0.3,1.3-0.3h31.3c0.5,0,0.9,0.2,1.2,0.6c0.4,0.4,0.6,0.9,0.9,1.4
		c0.4,0.8,2.7,6.1,5,11.3c1.1,2.6,2.2,5.1,3,7l1,2.3c0.1,0.3,0.3,0.5,0.3,0.6c-0.1,1.2-0.6,1.9-1.4,2.4c-0.4,0.2-0.9,0.4-1.4,0.6
		c-0.5,0.2-1,0.3-1.5,0.4c-1,0.3-1.8,0.5-2.6,0.7c-0.8,0.2-1.4,0.4-1.9,0.6c-1.1,0.5-1.7,1.2-1.7,2.4c0,1.6,1.2,2,2.4,1.9h35.5
		c1.3,0,2.6-0.5,2.6-2.1c0-1.3-1-1.8-2-2.3c-1-0.4-2.5-0.8-4.2-1.5c-1.3-0.5-2.3-1.7-3.1-3.1C470.7,462.3,470.2,460.9,469.7,460.1
		 M295,470.2c0-1.2,0.9-2,1.9-2.5c0.5-0.3,1.2-0.5,1.9-0.7c0.7-0.2,1.5-0.5,2.4-0.8c1.7-0.5,5.4-2.6,5.4-7.3v-74.6
		c0-4.7-3.7-6.6-5.4-7.2c-0.9-0.3-1.7-0.5-2.4-0.7c-0.7-0.2-1.4-0.5-1.9-0.7c-1.1-0.5-1.9-1.2-1.9-2.5c0-1.5,1-2.4,2.5-2.4h37
		c1.5,0,2.5,0.9,2.5,2.4c0,1.3-1,2-2.1,2.5c-1.1,0.5-2.7,0.9-4.5,1.5c-1.6,0.5-5.1,2.5-5.3,6.9v77.1c0,1,1.3,1.9,2.5,1.9
		c0.1,0,23.2,3.5,36.1-4.3c5.3-3.2,7-5.4,10.6-13.1c0.8-1.8,2.1-2.4,3.2-2.1c1,0.3,1.8,1.4,1.4,2.4c-1,2.7-6.1,19.9-8.1,25
		c-0.5,1.2-1.2,1.4-2.5,1.5h-71C296,472.6,295,471.7,295,470.2 M147.4,459.1c0,4.7-3.4,6.6-5,7.2c-0.9,0.3-1.7,0.5-2.4,0.7
		c-0.7,0.2-1.4,0.5-1.9,0.7c-1.1,0.5-1.9,1.2-1.9,2.5c0,1.5,1,2.4,2.5,2.4h73.4c1.3-0.1,2-0.3,2.5-1.5c2-5.1,7.2-21.7,7.9-24.6
		c0.7-2.6-3.1-3.8-4.5-0.6c-3.8,8.6-5.4,12-10.9,14.4c-9.7,3.5-38.9,2.9-39,2.9c-1.2,0-2-0.2-2-1.3v-38.5c0-0.5,0.1-0.6,0.1-0.6
		c0.1,0,0.2,0,0.3,0h23.6c3.8,0,8.3,1.1,9.8,10.1c0.1,0.4,0.1,0.8,0.2,1.2c0.1,0.4,0.2,0.8,0.3,1.2c0.2,0.7,0.7,1.6,1.7,1.6
		c1.8,0,2.9-1.5,2.9-3.1v-33.9c0-1-1.6-1.8-2.4-1.8c-1,0-1.6,0.7-1.9,1.5c-0.1,0.4-0.3,0.8-0.4,1.3c-0.1,0.5-0.2,1.1-0.4,1.7
		c-2.3,8.9-5.9,11.4-10.1,11.4h-22.3c-0.3,0-0.6,0-0.9,0c-0.2,0-0.3,0-0.5-0.2c0-0.1-0.1-0.3-0.1-0.7v-31.7c0-1.2,0-1.3,1.4-1.3
		h27.1c4.2,0,7.2,1.2,8.6,2.1c1.9,1.3,3.2,2.7,4.3,4.3c1.1,1.6,2,3.4,3.1,5.1c0.3,0.5,2.9,1.6,3.2-0.5c0,0,0-0.2,0-0.4v-0.5
		l-0.2-1.8l-0.6-5.4c-0.4-4-0.9-8.2-0.9-9.1c0-1.7-1.2-2.4-2.3-2.7c-0.6-0.1-1.2-0.2-1.7-0.2s-1,0-1.4,0h-69.8
		c-1.5,0-2.6,1.1-2.6,2.5c0,1.1,1.1,1.8,2.2,2.3c1.1,0.5,2.8,0.9,4.6,1.4c2.8,0.7,6.6,2.4,6.6,6.5L147.4,459.1z M486.5,470.2
		c0-1.2,1-1.8,2-2.2c1-0.4,2.5-0.9,4.3-1.6c0.4-0.2,1-0.4,1.6-0.7c0.6-0.3,1.2-0.7,1.7-1.3c1.1-1.1,2.1-3.1,2.1-6.8v-26.3
		c0-0.3-0.1-1.3-0.5-2c-4.3-8.1-27.8-47.5-27.8-47.5c-2-3-3.9-4.5-6-5.1c-2.2-0.6-4-0.9-5.2-1.3c-1.3-0.4-2.4-1-2.4-2.5
		c0-1.3,1.3-2,2.4-2H494c0.6,0,1.4,0,2.1,0.4c0.8,0.4,1.4,1,1.4,2.2c0,1.1-0.6,1.7-1.5,2.1c-0.4,0.1-0.9,0.3-1.4,0.4
		c-0.5,0.1-1.1,0.3-1.8,0.4c-1.5,0.4-3.8,1.6-2.2,4.6c0,0,19,33.9,19.8,35c0.3,0.4,0.4,0.4,0.8,0c1.6-1.6,21.1-34.6,21.1-34.7
		c1.3-2.5,0.1-3.9-2.1-4.7c-0.7-0.2-1.3-0.4-1.8-0.6c-0.5-0.2-1-0.4-1.4-0.6c-0.8-0.5-1.4-1.1-1.4-2.1c0-1.2,0.6-1.9,1.5-2.2
		c0.4-0.1,0.8-0.2,1.1-0.2s0.7,0,1,0h27.4c1,0,2.3,0.8,2.3,2c0,1.2-0.9,1.9-2,2.3c-0.5,0.2-1.2,0.5-2,0.7c-0.8,0.2-1.7,0.5-2.7,0.8
		c-1.8,0.5-4.6,2.3-6.7,5.3c-0.9,1.5-23.7,38.8-28.3,47.3c-0.4,0.8-0.5,1.5-0.5,1.9v26.3c0,3.8,1,5.8,2.1,6.9c0.5,0.6,1.1,1,1.7,1.2
		c0.6,0.3,1.2,0.5,1.6,0.6c1.8,0.7,3.2,1.2,4.3,1.7c1,0.4,2,1,2,2.2c0,1.5-1.2,2.4-2.6,2.3H489C487.6,472.6,486.5,471.7,486.5,470.2
		"/>
</g>
</svg>
