<?xml version="1.0" encoding="utf-8"?>
<!-- Generator: Adobe Illustrator 18.0.0, SVG Export Plug-In . SVG Version: 6.00 Build 0)  -->
<!DOCTYPE svg PUBLIC "-//W3C//DTD SVG 1.1//EN" "http://www.w3.org/Graphics/SVG/1.1/DTD/svg11.dtd">
<svg version="1.1" id="Calque_1" xmlns="http://www.w3.org/2000/svg" xmlns:xlink="http://www.w3.org/1999/xlink" x="0px" y="0px"
	 viewBox="0 0 841.9 595.3" enable-background="new 0 0 841.9 595.3" xml:space="preserve">
<g>
	<path fill="#003552" d="M276.1,281.8c0.4,16.5-18.3,14.5-19.7,14.3c-0.6-0.1-1-0.8-1-0.8v-25.6c0-0.1,0.5-0.6,1.3-0.9
		C257.6,268.5,275.7,265.2,276.1,281.8 M389.9,268.8c-1.2,0.4-2.1,1.1-2.3,1.8c-0.1,0.1-0.2,0.9-0.2,1.7v22.3c0,0,0,0.1,0.4,0.3
		c0.3,0.1,0.7,0.3,1.2,0.4c4.8,0.8,18.2,1.3,18.4-12.8C407.5,271,395.9,266.6,389.9,268.8 M509.7,284.7c0.5-0.9,0.7-0.6,0.9-0.3
		c0.3,0.6,7.4,16.8,8.4,19.2c0.1,0.1,0.1,0.1,0,0.3c-0.1,0.1-0.4,0.1-0.6,0.1h-16.6c0,0-0.2,0-0.4-0.1c-0.1-0.1-0.1-0.1-0.1-0.4
		C502.1,301.3,509.5,285.2,509.7,284.7 M242.2,324.6c0,3.3-2.4,4.7-3.5,5.1c-0.6,0.2-1.2,0.4-1.7,0.5c-0.5,0.1-1,0.4-1.3,0.5
		c-0.8,0.4-1.3,0.8-1.3,1.8c0,1.1,0.7,1.7,1.8,1.7h25.6c1.1,0,1.8-0.6,1.8-1.7c0-0.8-0.6-1.4-1.3-1.8c-0.4-0.1-0.8-0.4-1.3-0.5
		c-0.5-0.1-1.1-0.4-1.7-0.5c-1.1-0.4-3.3-1.6-3.5-4.6v-22.8c0-0.1,0.1-0.3,0.1-0.3c0.4-0.4,5.8-0.6,6.5,0.3
		c3.9,5.1,10.4,13.5,23.3,31c0.3,0.4,0.8,1,1.7,1h16.1c0.8,0,1.9-0.1,1.8-1.4c-0.1-0.8-0.6-1.1-1.3-1.4c-0.7-0.3-1.7-0.6-3.2-1.1
		c-4.1-1.5-6.6-4.7-8.8-7.6c0,0-14.6-20.4-15.8-21.9c-0.1-0.1-0.1-0.2,0.1-0.3c0.2-0.1,0.6-0.4,1-0.5c0.4-0.2,0.9-0.4,1.5-0.7
		c1.1-0.5,2.5-1.2,3.8-2.1c4.8-2.8,8.3-7.1,8.5-14c0.6-15.6-14.1-20.9-20.8-20.9h-33.9c-1.1,0-1.8,0.6-1.8,1.7
		c0,0.8,0.6,1.4,1.3,1.8c0.4,0.1,0.8,0.4,1.3,0.5c0.5,0.1,1.1,0.4,1.7,0.5c1.2,0.4,3.5,1.7,3.5,5.1
		C242.2,271.9,242.2,324.6,242.2,324.6z M370.5,266.7c-0.6-0.2-1.2-0.4-1.7-0.5s-1-0.4-1.3-0.5c-0.8-0.4-1.3-0.8-1.3-1.8
		c0-1.1,0.7-1.7,1.8-1.7H401c6.4,0,20.4,3.9,20.4,19.9c0,20-21.8,21.1-33.9,19.3c-0.1,0-0.1,0-0.1,0c0,0.1-0.1,0.1-0.1,0.3v23.1
		c0.1,3.2,2.4,4.5,3.5,4.8c0.6,0.2,1.2,0.4,1.7,0.5s1,0.4,1.3,0.5c0.8,0.4,1.3,0.8,1.3,1.8c0,1.1-0.7,1.7-1.8,1.7H368
		c-1,0-1.8-0.6-1.8-1.7c0-0.9,0.6-1.4,1.4-1.8c0.4-0.1,0.8-0.4,1.3-0.5s1.1-0.4,1.7-0.5c1.1-0.4,3.4-1.6,3.6-4.7v-53.5
		C374,268.4,371.6,267.1,370.5,266.7 M542.6,325.3c-0.5-1.1-27-60-28.1-62.3c-0.6-1.1-3.4-1.2-4,0.1c-0.8,1.8-23.7,54.4-27.2,62.2
		c0,0.1-1.6,3.8-3.5,4.6c-1.2,0.5-2.3,0.8-3,1.1c-0.7,0.3-1.4,0.7-1.4,1.6c0,1.1,0.9,1.5,1.8,1.5h19.3c0.8,0,1.8-0.1,1.8-1.3
		c0-0.7-0.4-1.1-1.1-1.5c-0.6-0.3-1.6-0.6-3-0.9c-0.6-0.1-1.6-0.4-2.2-0.8c-0.6-0.4-0.9-0.8-0.6-1.6v-0.2c0-0.1,5.5-13.9,6.3-15.3
		c0.1-0.2,0.2-0.4,0.3-0.6c0.1-0.1,0.1-0.3,0.2-0.4c0.1-0.1,0.3-0.2,0.9-0.2h22.1c0.4,0,0.6,0.1,0.8,0.4c0.3,0.3,0.4,0.6,0.6,1
		c0.3,0.6,1.9,4.3,3.5,8c0.8,1.8,1.6,3.6,2.1,4.9l0.7,1.6c0.1,0.2,0.2,0.4,0.2,0.4c-0.1,0.8-0.4,1.3-1,1.7c-0.3,0.1-0.6,0.3-1,0.4
		c-0.4,0.1-0.7,0.2-1.1,0.3c-0.7,0.2-1.3,0.4-1.8,0.5c-0.6,0.1-1,0.3-1.3,0.4c-0.8,0.4-1.2,0.8-1.2,1.7c0,1.1,0.8,1.4,1.7,1.3h25.1
		c0.9,0,1.8-0.4,1.8-1.5c0-0.9-0.7-1.3-1.4-1.6c-0.7-0.3-1.8-0.6-3-1.1c-0.9-0.4-1.6-1.2-2.2-2.2
		C543.3,326.9,542.9,325.9,542.6,325.3 M419.1,332.5c0-0.8,0.6-1.4,1.3-1.8c0.4-0.2,0.8-0.4,1.3-0.5c0.5-0.1,1.1-0.4,1.7-0.6
		c1.2-0.4,3.8-1.8,3.8-5.2v-52.7c0-3.3-2.6-4.7-3.8-5.1c-0.6-0.2-1.2-0.4-1.7-0.5c-0.5-0.1-1-0.4-1.3-0.5c-0.8-0.4-1.3-0.8-1.3-1.8
		c0-1.1,0.7-1.7,1.8-1.7H447c1.1,0,1.8,0.6,1.8,1.7c0,0.9-0.7,1.4-1.5,1.8c-0.8,0.4-1.9,0.6-3.2,1.1c-1.1,0.4-3.6,1.8-3.7,4.9v54.5
		c0,0.7,0.9,1.3,1.8,1.3c0.1,0,16.4,2.5,25.5-3c3.7-2.3,4.9-3.8,7.5-9.3c0.6-1.3,1.5-1.7,2.3-1.5c0.7,0.2,1.3,1,1,1.7
		c-0.7,1.9-4.3,14.1-5.7,17.7c-0.4,0.8-0.8,1-1.8,1.1h-50.2C419.8,334.2,419.1,333.5,419.1,332.5 M314.7,324.6
		c0,3.3-2.4,4.7-3.5,5.1c-0.6,0.2-1.2,0.4-1.7,0.5c-0.5,0.1-1,0.4-1.3,0.5c-0.8,0.4-1.3,0.8-1.3,1.8c0,1.1,0.7,1.7,1.8,1.7h51.9
		c0.9-0.1,1.4-0.2,1.8-1.1c1.4-3.6,5.1-15.3,5.6-17.4c0.5-1.8-2.2-2.7-3.2-0.4c-2.7,6.1-3.8,8.5-7.7,10.2
		c-6.9,2.5-27.5,2.1-27.6,2.1c-0.8,0-1.4-0.1-1.4-0.9v-27.2c0-0.4,0.1-0.4,0.1-0.4c0.1,0,0.1,0,0.2,0h16.7c2.7,0,5.9,0.8,6.9,7.1
		c0.1,0.3,0.1,0.6,0.1,0.8s0.1,0.6,0.2,0.8c0.1,0.5,0.5,1.1,1.2,1.1c1.3,0,2.1-1.1,2.1-2.2v-24c0-0.7-1.1-1.3-1.7-1.3
		c-0.7,0-1.1,0.5-1.3,1.1c-0.1,0.3-0.2,0.6-0.3,0.9c-0.1,0.4-0.1,0.8-0.3,1.2c-1.6,6.3-4.2,8.1-7.1,8.1h-15.8c-0.2,0-0.4,0-0.6,0
		c-0.1,0-0.2,0-0.4-0.1c0-0.1-0.1-0.2-0.1-0.5v-22.4c0-0.8,0-0.9,1-0.9H348c3,0,5.1,0.8,6.1,1.5c1.3,0.9,2.3,1.9,3,3
		c0.8,1.1,1.4,2.4,2.2,3.6c0.2,0.4,2.1,1.1,2.3-0.4c0,0,0-0.1,0-0.3v-0.4l-0.1-1.3l-0.4-3.8c-0.3-2.8-0.6-5.8-0.6-6.4
		c0-1.2-0.8-1.7-1.6-1.9c-0.4-0.1-0.8-0.1-1.2-0.1c-0.4,0-0.7,0-1,0h-49.4c-1.1,0-1.8,0.8-1.8,1.8c0,0.8,0.8,1.3,1.6,1.6
		c0.8,0.4,2,0.6,3.3,1c2,0.5,4.7,1.7,4.7,4.6L314.7,324.6z M554.5,332.5c0-0.8,0.7-1.3,1.4-1.6c0.7-0.3,1.8-0.6,3-1.1
		c0.3-0.1,0.7-0.3,1.1-0.5c0.4-0.2,0.8-0.5,1.2-0.9c0.8-0.8,1.5-2.2,1.5-4.8V305c0-0.2-0.1-0.9-0.4-1.4c-3-5.7-19.7-33.6-19.7-33.6
		c-1.4-2.1-2.8-3.2-4.2-3.6c-1.6-0.4-2.8-0.6-3.7-0.9c-0.9-0.3-1.7-0.7-1.7-1.8c0-0.9,0.9-1.4,1.7-1.4h25c0.4,0,1,0,1.5,0.3
		c0.6,0.3,1,0.7,1,1.6c0,0.8-0.4,1.2-1.1,1.5c-0.3,0.1-0.6,0.2-1,0.3c-0.4,0.1-0.8,0.2-1.3,0.3c-1.1,0.3-2.7,1.1-1.6,3.3
		c0,0,13.4,24,14,24.7c0.2,0.3,0.3,0.3,0.6,0c1.1-1.1,14.9-24.5,14.9-24.5c0.9-1.8,0.1-2.8-1.5-3.3c-0.5-0.1-0.9-0.3-1.3-0.4
		s-0.7-0.3-1-0.4c-0.6-0.4-1-0.8-1-1.5c0-0.8,0.4-1.3,1.1-1.6c0.3-0.1,0.6-0.1,0.8-0.1s0.5,0,0.7,0H604c0.7,0,1.6,0.6,1.6,1.4
		c0,0.8-0.6,1.3-1.4,1.6c-0.4,0.1-0.8,0.4-1.4,0.5c-0.6,0.1-1.2,0.4-1.9,0.6c-1.3,0.4-3.3,1.6-4.7,3.7c-0.6,1.1-16.8,27.4-20,33.4
		c-0.3,0.6-0.4,1.1-0.4,1.3v18.6c0,2.7,0.7,4.1,1.5,4.9c0.4,0.4,0.8,0.7,1.2,0.8c0.4,0.2,0.8,0.4,1.1,0.4c1.3,0.5,2.3,0.8,3,1.2
		c0.7,0.3,1.4,0.7,1.4,1.6c0,1.1-0.8,1.7-1.8,1.6h-26C555.3,334.2,554.5,333.5,554.5,332.5"/>
</g>
</svg>
