<?xml version="1.0" encoding="utf-8"?>
<!-- Generator: Adobe Illustrator 17.1.0, SVG Export Plug-In . SVG Version: 6.00 Build 0)  -->
<!DOCTYPE svg PUBLIC "-//W3C//DTD SVG 1.1//EN" "http://www.w3.org/Graphics/SVG/1.1/DTD/svg11.dtd">
<svg version="1.1" id="Calque_1" xmlns="http://www.w3.org/2000/svg" xmlns:xlink="http://www.w3.org/1999/xlink" x="0px" y="0px"
	 viewBox="0 0 595.3 841.9" enable-background="new 0 0 595.3 841.9" xml:space="preserve">
<g>
	<path fill="#1D1D1B" d="M230.6,565.6h11.3c2.3,0,3.3,0.4,3.3,2.5v0.8c0,1.7-0.7,2.5-2.7,2.5h-12L230.6,565.6L230.6,565.6z
		 M223.4,583.4h7.3v-6.1H242c2.3,0,3,0.8,3,3.3v2.8h7.3v-4c0-3.9-1.8-4.8-4-5.2V574c3.3-0.8,4.1-2.6,4.1-5.8v-1.5c0-4.2-1.5-7-7.1-7
		h-21.9L223.4,583.4L223.4,583.4z"/>
	<polygon fill="#1D1D1B" points="260.9,583.4 268.1,583.4 268.1,559.7 260.9,559.7 	"/>
	<path fill="#1D1D1B" d="M274.4,583.4h8.1l2.1-4.2h14.7l2.3,4.2h8.1l-13-23.7h-9.4L274.4,583.4L274.4,583.4z M291.9,565.2l4.7,8.9
		h-9.3L291.9,565.2L291.9,565.2z"/>
	<polygon fill="#1D1D1B" points="315.5,583.4 322.7,583.4 322.7,566.2 322.8,566.2 336.4,583.4 347.7,583.4 347.7,559.7 
		340.4,559.7 340.4,576.9 340.3,576.9 326.7,559.7 315.5,559.7 	"/>
	<polygon fill="#1D1D1B" points="356.2,583.4 363.5,583.4 363.5,559.7 356.2,559.7 	"/>
	<path fill="#1D1D1B" d="M339.6,432.2h60.9c12.3,0,17.9,2.1,17.9,13.2v4.2c0,9-3.9,13.2-14.4,13.2h-64.4V432.2L339.6,432.2z
		 M300.6,526.6h38.9V494h61.2c12.1,0,16,4.3,16,17.5v15.1h38.9v-21.3c0-20.7-9.6-25.7-21.2-27.8v-0.3c17.9-4.2,21.8-14.1,21.8-30.9
		v-8c0-22.6-8.1-37.3-38.1-37.3H300.6V526.6L300.6,526.6z"/>
	<path fill="#1D1D1B" d="M247.3,432.2v30.5h-64.4c-10.5,0-14.4-4.2-14.4-13.2v-4.2c0-11.1,5.6-13.2,17.9-13.2h60.9V432.2z
		 M286.2,526.6V401H168.7c-30,0-38.1,14.7-38.1,37.3v8c0,16.8,3.9,26.7,21.8,30.9v0.3c-11.6,2.1-21.2,7.1-21.2,27.8v21.3h38.9v-15.1
		c0-13.2,3.9-17.5,16-17.5h61.2v32.6H286.2L286.2,526.6z"/>
	<path fill="#1D1D1B" d="M339.6,354.5V324H404c10.5,0,14.4,4.2,14.4,13.2v4.2c0,11.1-5.6,13.2-17.9,13.2h-60.9V354.5z M300.6,260.1
		v125.6h117.5c30,0,38.1-14.7,38.1-37.3v-8c0-16.8-3.9-26.7-21.8-30.9v-0.3c11.6-2.1,21.2-7.1,21.2-27.8v-21.3h-38.9v15.1
		c0,13.2-3.9,17.5-16,17.5h-61.2v-32.6L300.6,260.1L300.6,260.1z"/>
	<path fill="#1D1D1B" d="M247.3,354.5h-60.9c-12.3,0-17.9-2.1-17.9-13.2v-4.2c0-9,3.9-13.2,14.4-13.2h64.4L247.3,354.5L247.3,354.5z
		 M286.2,260.1h-38.9v32.6H186c-12.1,0-16-4.3-16-17.5v-15.1h-38.9v21.3c0,20.7,9.6,25.7,21.2,27.8v0.3
		c-17.9,4.2-21.8,14.1-21.8,30.9v8c0,22.6,8.1,37.3,38.1,37.3h117.5V260.1H286.2z"/>
</g>
</svg>
