<?xml version="1.0" encoding="utf-8"?>
<!-- Generator: Adobe Illustrator 17.1.0, SVG Export Plug-In . SVG Version: 6.00 Build 0)  -->
<!DOCTYPE svg PUBLIC "-//W3C//DTD SVG 1.1//EN" "http://www.w3.org/Graphics/SVG/1.1/DTD/svg11.dtd">
<svg version="1.1" id="Calque_1" xmlns="http://www.w3.org/2000/svg" xmlns:xlink="http://www.w3.org/1999/xlink" x="0px" y="0px"
	 viewBox="0 0 595.3 841.9" enable-background="new 0 0 595.3 841.9" xml:space="preserve">
<g>
	<path fill="#1D1D1B" d="M202,449.8h13v-50.4h-13V449.8z M291.4,398.1c-5.8,0-10,2.2-12.4,6.5V383h-13v66.9h13v-33.4
		c0-5.6,2.3-8.3,6.9-8.3c3.7,0,5.6,2.3,5.6,7v34.7h13v-37.4C304.4,402.9,300.1,398.1,291.4,398.1 M240.9,407.5
		c3.9,0,5.8,3.4,5.8,10.1h12.4c0-6.1-1.6-10.8-4.7-14.3c-3.1-3.5-7.6-5.2-13.5-5.2c-6.5,0-11.5,1.8-14.8,5.5
		c-3.8,4.2-5.7,11.2-5.7,21c0,5,0.4,9.3,1.3,12.9l0,0c0.8,3.3,2,6,3.5,7.9c3,3.8,7.9,5.7,14.6,5.7c10.5,0,16.7-4.6,18.7-13.6h-0.1
		h0.1c0.4-2.1,0.7-4.4,0.7-6.9h-12.4c0,2.8-0.3,5.1-0.8,7c-1,3.2-2.8,4.8-5.5,4.8c-2.8,0-4.7-1.4-5.7-4.1c-0.1-0.2-0.2-0.5-0.2-0.7
		l0,0c-0.7-2.6-1.1-6.8-1.1-12.8c0-6.3,0.4-10.6,1.3-13C235.8,408.9,237.9,407.5,240.9,407.5 M182.5,406.2v-6.7h-12.4v50.4h13v-30.3
		c0-3.1,1-5.5,3.1-7.1c1.7-1.3,3.9-2,6.5-2h4.1v-12.2c-1-0.1-1.8-0.2-2.4-0.2C189.5,398.1,185.6,400.8,182.5,406.2 M202,393.3h13
		v-11.1h-13V393.3z M507.9,434.5c0,1.1-0.2,2.1-0.5,2.9l0,0l0,0c-0.4,1.2-1.2,2.2-2.3,3.1c-1.5,1.2-3.3,1.8-5.3,1.8
		c-2.7,0-4.3-1.6-4.8-4.8c-0.1-0.7-0.1-1.4-0.1-2.2c0-4.4,2.4-7.1,7.3-8.2c2-0.4,3.9-1.3,5.6-2.5L507.9,434.5L507.9,434.5z
		 M520.3,413.6c0-5.1-1.1-8.8-3.4-11.1c-2.8-2.9-7.8-4.3-15-4.3c-11.9,0-17.8,5.2-17.8,15.5v1.2h11.7v-1.4c0-4.4,2-6.6,6-6.6
		c4,0,6,2.1,6,6.2c0,3-1.7,5-5.2,5.9l-7.4,2c-4.6,1.2-7.9,3-9.8,5.3c-2,2.3-3,5.8-3,10.4c0,0.3,0,0.5,0,0.8l0,0
		c0.1,3.5,1,6.5,2.7,8.9c2.2,3.1,5.4,4.7,9.6,4.7c3.3,0,5.9-0.4,7.7-1.3c2.1-1,3.9-2.7,5.3-5.2c0.6,2.6,1.1,4.3,1.6,5.2h12.4
		c-1.1-2.4-1.6-5.6-1.6-9.7v-26.5H520.3z M528.1,449.8h13v-66.9h-13V449.8z M460.8,434.3l-7.5-34.8h-13.6l10.7,38.1l3.5,12.3
		c-0.4,4.7-2.7,7.1-7,7.1c-1.1,0-2.3-0.1-3.4-0.3v9.6h5.3c6.1,0,10.3-1.2,12.6-3.5c2.3-2.3,4.6-7.8,6.9-16.4l2.3-9l9.9-38.1h-13
		L460.8,434.3z M381.3,406.2v-6.7h-12.4v50.4h13v-30.3c0-3.1,1-5.5,3.1-7.1c1.7-1.3,3.9-2,6.5-2h4.1v-12.2c-1-0.1-1.8-0.2-2.4-0.2
		C388.3,398.1,384.4,400.8,381.3,406.2 M424.3,437.5L424.3,437.5c-0.1,0.3-0.2,0.5-0.3,0.8c-1,2.7-2.8,4.1-5.4,4.1
		c-2.9,0-4.8-1.6-5.8-4.8v-0.1c-0.8-2.4-1.1-6.7-1.1-12.7c0-6.1,0.4-10.3,1.1-12.7c0.9-3.3,2.9-5,5.8-5c2.6,0,4.4,1.4,5.4,4.1
		c1,2.7,1.6,7.3,1.6,13.6C425.6,430.4,425.1,434.7,424.3,437.5 M418.6,398.1c-7.2,0.1-12.4,2.3-15.5,6.8c-3,4.2-4.4,10.7-4.4,19.7
		c0,5.1,0.4,9.4,1.3,12.9l0,0c0.7,2.9,1.6,5.2,2.9,7c3,4.5,8.3,6.7,15.8,6.6c7.2-0.1,12.4-2.3,15.6-6.8c1.3-1.8,2.3-4.1,3-6.8l0,0
		c0.9-3.5,1.4-7.8,1.4-12.9c0-9.2-1.4-15.9-4.1-19.9C431.4,400.3,426.1,398,418.6,398.1"/>
	<path fill="#1D1D1B" d="M126.3,404c1.3,0.6,3.6,5.4,4.7,8.2C128.6,410.8,126.3,404,126.3,404 M128.5,421.3c0.1,1.7,0.3,3.1,0.5,4.2
		C127.3,424.3,128.5,421.3,128.5,421.3 M123.8,430.6c0,0,1,2.7,0.5,5.6c0-0.1,0-0.2,0-0.2c-0.9,0.5-1.6,1-2.3,1.5
		c0.4-1.7,0.8-3.6,0.8-3.6s-0.7,1.4-1.3,2.9c0-1-0.1-2.1-0.4-3.4C121.6,432.5,122.5,431.6,123.8,430.6 M121.7,445.2
		c-0.7,0.1-1.3,0.2-1.9,0.3c0.8-1.7,1.9-4.7,1.9-4.7s-1,1.5-1.9,2.9c0.5-1.2,0.8-2.6,1-4.3c0.7-0.6,1.5-1.1,2.5-1.6
		C123.3,437.7,124.1,442.1,121.7,445.2 M116.3,452.4c0.2-0.3,0.3-0.5,0.3-0.5c-0.7-0.1-1.4-0.2-2-0.2c1.4-1.3,3.5-3.3,3.5-3.3
		s-3.2,1.9-4.6,2.9c0.8-1,1.6-2.2,2.3-3.8c1.2-0.6,2.9-1.1,5-1.3C120.8,446.2,119.7,450.5,116.3,452.4 M109,457.8
		c-0.6-0.3-1.3-0.6-1.8-0.9c1.6-0.8,4.7-2.8,4.7-2.8s-1.5,0.5-3,1c0.9-0.7,1.8-1.6,2.8-2.6c1-0.1,2.1-0.1,3.4,0.1
		C115,452.6,112.8,456.8,109,457.8 M99.8,460.8c-0.9-0.5-2.4-1.3-1.2-1.4c1.7-0.1,5.7-0.9,5.7-0.9s-4.1-0.2-5.8-0.1
		c-1.1,0.1,0-0.8,0.9-1.5c1.8-0.7,4.6-0.8,8.3,1.3C107.8,458.2,104,461.7,99.8,460.8 M97.6,456.1c1.3-1.1,4-4.1,4-4.1
		s-3.4,2.2-4.7,3.3c-0.8,0.7-0.5-0.6-0.2-1.6c2.2-3.7,7.5-4,7.5-4c-1.2,4.2-3.2,6-5,6.8C98.2,456.7,96.8,456.8,97.6,456.1
		 M80.5,426.2V408c0,0,5-2.1,5-4.4l10.1-3.2l10.1,3.2c0,2.2,5,4.4,5,4.4v18.2c0,14.6-15.1,21.4-15.1,21.4S80.5,440.8,80.5,426.2
		 M94.2,455.3c-1.3-1.1-4.7-3.3-4.7-3.3s2.7,3,4,4.1c0.9,0.7-0.6,0.6-1.7,0.4c-1.8-0.8-3.8-2.6-5-6.8c0,0,5.3,0.3,7.5,4
		C94.7,454.7,95,456,94.2,455.3 M92.5,459.4c1.2,0.1-0.3,0.9-1.2,1.4c-0.3,0.1-0.6,0.1-0.9,0.1c-1.5-0.2-3-0.6-4.5-1
		c-1.5-0.8-2.5-1.6-2.5-1.6c3.8-2.1,6.5-2,8.3-1.3c0.9,0.6,2,1.5,0.9,1.5c-1.7-0.1-5.8,0.1-5.8,0.1S90.8,459.3,92.5,459.4
		 M82.1,457.8c-3.8-0.9-5.9-5.1-5.9-5.1c1.3-0.2,2.4-0.2,3.4-0.1c0.9,1.1,1.9,1.9,2.8,2.6c-1.5-0.5-3-1-3-1s3.1,2,4.7,2.8
		C83.4,457.1,82.8,457.4,82.1,457.8 M74.4,452.1c-0.1-0.1-0.2-0.1-0.3-0.2c-0.3-0.2-0.5-0.4-0.8-0.6c-2.2-2-3-5-3-5
		c2.1,0.2,3.8,0.6,5,1.3c0.7,1.5,1.5,2.8,2.3,3.8c-1.5-1.1-4.6-2.9-4.6-2.9s2.1,2.1,3.5,3.3c-0.6,0-1.3,0.1-2,0.2
		c0,0,0.1,0.2,0.2,0.4C74.6,452.2,74.5,452.1,74.4,452.1 M69.3,445c-0.2-0.3-0.4-0.6-0.6-0.9c0-0.1-0.1-0.1-0.1-0.2
		c-1.4-2.9-0.8-6.2-0.8-6.2c1,0.5,1.8,1.1,2.5,1.6c0.2,1.7,0.6,3.1,1,4.3c-0.9-1.4-1.9-2.9-1.9-2.9s1.1,3,1.9,4.7
		C70.7,445.3,70.1,445.2,69.3,445L69.3,445 M66.9,436.1c-0.1-0.3-0.1-0.7-0.2-1c-0.2-2.4,0.6-4.4,0.6-4.4c1.2,0.9,2.1,1.9,2.8,2.8
		c-0.3,1.2-0.4,2.3-0.4,3.4c-0.6-1.5-1.3-2.9-1.3-2.9s0.4,1.9,0.8,3.6C68.6,437,67.8,436.5,66.9,436.1
		C66.9,436,66.9,436.1,66.9,436.1 M79.7,446.3c-0.4-1-0.8-1.9-0.8-1.9s0.1,0.7,0.2,1.6c-0.6-0.3-1.3-0.6-1.9-0.8
		c0-1.2,0.2-2.5,0.7-4c0,0,2.6,2,3.6,4.9c0,0.6,0,1.2,0,1.7C81,447.2,80.3,446.7,79.7,446.3 M71.6,431.8c0,0,2.4,2.5,3.2,5.8
		c-0.4,0.7-0.7,1.4-0.9,2.1c-0.2-0.2-0.5-0.3-0.7-0.5c-0.4-1.8-0.9-3.6-0.9-3.6s0.1,1.5,0.2,3.1c-0.8-0.5-1.5-0.8-1.9-1
		C70.4,436.1,70.7,434.2,71.6,431.8 M73.5,432.8c-0.5-0.8-0.9-1.4-1.3-1.9c-0.1-0.9-0.2-1.5-0.2-1.5s-0.1,0.5-0.1,1.2
		c-0.4-0.5-0.7-0.8-0.7-0.8c-0.4,1-0.7,1.9-0.9,2.8c-0.2-0.2-0.3-0.5-0.5-0.7c0.1-1.8,0.7-3.9,2.2-6.4c0,0,1.9,2.8,2.2,6.3
		C73.9,432.1,73.7,432.4,73.5,432.8 M75.2,437c-0.1-0.2-0.1-0.5-0.2-0.7c0.3-1.3,0.5-2.4,0.5-2.4s-0.3,0.7-0.8,1.6
		c-0.3-0.8-0.6-1.5-0.9-2.1c0.7-0.9,1.6-1.8,2.8-2.8c0,0,0.6,1.7,0.6,3.8C76.4,435.3,75.7,436.2,75.2,437 M75.8,441.5
		c-0.5-0.5-1-1-1.5-1.4c0.5-1.2,1.3-2.5,2.6-3.9c0,0,0.8,1.6,1.2,3.6c-0.4-0.3-0.6-0.5-0.6-0.5c-0.4,1.2-0.6,2.3-0.8,3.2
		c-0.2-0.2-0.3-0.4-0.4-0.6c0.1-1.3,0.1-2.3,0.1-2.3S76.1,440.4,75.8,441.5 M74.4,444.3c-0.1,0-0.3,0-0.3,0c0.2,0.9,0.5,1.7,0.8,2.4
		c-0.5-0.3-1.1-0.5-1.8-0.8c-0.9-1.5-1.7-3.6-1.8-6.5c0,0,3.2,1.3,5.3,4c-0.1,0.6-0.1,1.1,0,1.6c-0.6-0.2-1.1-0.4-1.6-0.5
		c-0.8-1-1.5-1.9-1.5-1.9S73.8,443.3,74.4,444.3 M81.6,450.8c-1.5-1.2-3.1-2.4-3.1-2.4s1,1.2,2.1,2.5c-1.3,0.1-2.2,0.3-2.2,0.3
		c0.2,0.2,0.3,0.4,0.5,0.6h-0.1c-1.2-1.3-2.3-3.2-3.1-6c0,0,3.4,0.6,6.1,2.8c0.1,0.9,0.3,1.7,0.6,2.4
		C82,450.8,81.8,450.8,81.6,450.8 M87,452.4c0.6,1.1,1.2,1.9,1.9,2.6c-2-0.7-5-1.5-5-1.5s2.8,1.5,4.8,2.5c-1,0-2.1,0.1-3.3,0.5
		c-1.6-0.8-3.3-2.1-5.1-4.5C80.3,451.9,83.7,451.3,87,452.4 M86.6,451.6c-0.3-0.1-0.6-0.3-0.9-0.3c-0.8-1.2-1.6-2.3-1.6-2.3
		s0.4,1,0.8,2.1c-0.7-0.1-1.4-0.2-2.1-0.3c-0.4-1.3-0.5-2.8-0.3-4.8c0,0,1.9,0.9,3.5,2.6c-0.4,0-0.6-0.1-0.6-0.1
		C85.8,449.7,86.2,450.7,86.6,451.6 M74.6,399.6h7.7c0.4,0.4,1.8,1.8,3.1,3.1l-1,0.3v0.3c-1.2-1.1-2.3-2.3-2.6-2.6h-6.7
		c-0.5,0.8-3.9,5.9-4.5,6.9c0.9,1.3,2.1,3.5,2.9,6.4c0.5,1.8,0.7,3.7,0.7,5.6c0,2.1-0.3,4.2-0.9,6.2c-0.3-0.6-0.5-1.1-0.8-1.5
		c0.4-1.7,0.6-3.3,0.6-4.7c0-2-0.3-3.8-0.7-5.3c-0.9-3.2-2.3-5.5-3.2-6.7C70.2,406.3,73.9,400.6,74.6,399.6 M119.9,429.8
		c0,0-0.3,0.3-0.7,0.8c-0.1-0.7-0.1-1.2-0.1-1.2s-0.1,0.6-0.2,1.5c-0.4,0.5-0.8,1.1-1.3,1.9c-0.2-0.4-0.5-0.7-0.8-1.1
		c0.3-3.4,2.2-6.3,2.2-6.3c1.5,2.5,2.1,4.6,2.2,6.4c-0.2,0.2-0.3,0.5-0.5,0.7C120.5,431.7,120.3,430.8,119.9,429.8 M118.7,438.8
		c0.1-1.6,0.2-3.1,0.2-3.1s-0.5,1.8-0.9,3.6c-0.2,0.1-0.4,0.3-0.7,0.5c-0.2-0.7-0.5-1.3-0.9-2.1c0.8-3.3,3.2-5.8,3.2-5.8
		c0.9,2.4,1.2,4.3,1.1,5.9C120.3,437.9,119.6,438.3,118.7,438.8 M113.2,441.1c0.5,1.6,0.7,2.9,0.7,4c-0.6,0.2-1.2,0.5-1.9,0.8
		c0.1-0.9,0.2-1.6,0.2-1.6s-0.3,0.8-0.8,1.9c-0.7,0.4-1.3,0.9-2,1.4c0-0.5,0.1-1.1,0-1.7C110.6,443.1,113.2,441.1,113.2,441.1
		 M114.2,436.2c1.3,1.4,2.1,2.7,2.6,3.9c-0.5,0.4-1,0.9-1.5,1.4c-0.3-1-0.5-1.9-0.5-1.9s0,1.1,0.1,2.3c-0.2,0.2-0.3,0.4-0.4,0.6
		c-0.1-1-0.4-2.1-0.8-3.2c0,0-0.2,0.2-0.6,0.5C113.4,437.8,114.2,436.2,114.2,436.2 M116.1,436.3c-0.1,0.2-0.1,0.5-0.2,0.7
		c-0.5-0.8-1.2-1.7-2-2.6c0-2.1,0.6-3.8,0.6-3.8c1.2,0.9,2.1,1.9,2.8,2.8c-0.3,0.6-0.7,1.3-0.9,2.1c-0.4-0.9-0.8-1.6-0.8-1.6
		S115.8,435,116.1,436.3 M105,448.6c1.6-1.7,3.5-2.6,3.5-2.6c0.2,2,0,3.6-0.3,4.8c-0.7,0-1.4,0.1-2.1,0.3c0.5-1.1,0.8-2.1,0.8-2.1
		s-0.8,1.1-1.6,2.3c-0.3,0.1-0.6,0.2-0.9,0.3c0.4-0.9,0.8-1.9,1.2-3.1C105.6,448.5,105.4,448.5,105,448.6 M102.2,455
		c0.7-0.7,1.3-1.5,1.9-2.6c3.3-1.1,6.7-0.4,6.7-0.4c-1.8,2.3-3.5,3.7-5.1,4.5c-1.2-0.3-2.3-0.5-3.3-0.5c2-0.9,4.8-2.5,4.8-2.5
		S104.2,454.3,102.2,455 M110.5,450.9c1.1-1.3,2.1-2.5,2.1-2.5s-1.6,1.2-3.1,2.4c-0.2,0-0.5,0-0.7,0c0.2-0.7,0.4-1.5,0.6-2.4
		c2.7-2.2,6.1-2.8,6.1-2.8c-0.8,2.8-1.9,4.7-3.1,6h-0.1c0.2-0.2,0.3-0.4,0.5-0.6C112.8,451.1,111.9,451,110.5,450.9 M116.8,444.3
		c0.5-1,0.9-1.7,0.9-1.7s-0.7,0.8-1.5,1.9c-0.4,0.1-0.9,0.2-1.6,0.5c0-0.5,0-1,0-1.6c2.1-2.7,5.3-4,5.3-4c-0.2,3-0.9,5-1.8,6.5
		c-0.7,0.2-1.3,0.5-1.8,0.8c0.3-0.7,0.6-1.5,0.8-2.4C117,444.2,116.9,444.3,116.8,444.3 M109,399.6h7.7c0.7,1,4.4,6.7,5.2,8
		c-0.9,1.2-2.3,3.5-3.2,6.7c-0.4,1.5-0.7,3.3-0.7,5.3c0,1.4,0.2,2.9,0.6,4.5c-0.2,0.4-0.5,0.9-0.8,1.5c-0.5-2-0.9-4-0.9-6
		c0-1.9,0.2-3.8,0.7-5.6c0.8-2.9,2-5.1,2.9-6.4c-0.7-1-4.5-6.8-4.5-6.9h-6.7c-0.3,0.3-1.4,1.4-2.6,2.6V403l-1-0.3
		C107.1,401.5,108.6,400,109,399.6 M131.7,454.6c-0.3-0.4-0.4-1-0.5-1.6C131.5,453.6,131.7,454.1,131.7,454.6 M133.5,449.8
		c0,0.9-0.9,1-1.2,1c-0.1-0.3-0.2-0.6-0.3-0.8C132.6,450.9,133.5,449.8,133.5,449.8 M59.6,454.6c0-0.5,0.2-1,0.5-1.6
		C60,453.6,59.9,454.2,59.6,454.6 M59.1,450.9c-0.4,0-1.2-0.1-1.2-1c0,0,0.9,1,1.6,0.2C59.3,450.3,59.2,450.6,59.1,450.9
		 M60.4,412.2c1.1-2.8,3.4-7.6,4.7-8.2C65,404,62.7,410.8,60.4,412.2 M62.3,425.5c0.2-1.1,0.4-2.5,0.5-4.2
		C62.8,421.3,64,424.3,62.3,425.5 M58,389.9c0.7-0.4,1.6-1.1,2.7-2.3C60.7,387.6,60.1,390.2,58,389.9 M133.3,389.9
		c-2.1,0.3-2.7-2.3-2.7-2.3C131.7,388.8,132.5,389.5,133.3,389.9 M134.5,408.5c-3.3-6.8-8-11.8-8-11.8c1.3,0.3,3,3.2,7.2,8.7
		c4.2,5.6,7.2,6.1,7.2,6.1c-2.9-1-7.5-7.4-7.5-7.4c0.7,0.7,1.9,1.1,2.5,1.2c-2-0.8-5.3-5.6-5.3-5.6c0.6,0.6,2.4,2.3,2.4,2.3
		c-1.1-1.6-5-5.8-5-5.8c1,0.3,1.9,1.3,1.9,1.3c1,2,3.6,3.3,3.6,3.3c3.1,3.4,5.1,2.4,5.1,2.4c-1.4,0.2-2.6-1.3-2.6-1.3
		c2.4,1.5,3.2,0.6,3.2,0.6c-1.6,0.4-3.2-1.3-3.2-1.3c4.5,2.7,5.1-1,5.1-1c-0.9,0.3-2.4-0.4-2.4-0.4c0.6,0,0.7-0.5,0.7-0.5
		c-1.4,0.1-3.9-1.8-3.9-1.8c0.9,0.7,2.5,0.2,2.5,0.2c-2.4,0.2-5.1-3.3-5.1-3.3c0.4,0.2,1.5,0.4,1.9,0.5c-1.8-0.3-6.2-5-6.2-5
		c1.6,0.9,9.1,5.9,10.1,6.1c1,0.2,1-0.6,1-0.6c-1,0.9-3.8-1.3-3.8-1.3c1.3,0.2,2.1-0.2,2.1-0.2c-2.1,0.2-4-1.1-4-1.1
		c2.4,0.8,3,0.1,3,0.1c-1.5,0.5-4.8-1.3-4.8-1.3c0.6,0.1,2,0.1,2,0.1c-3.2-0.3-6.4-3.5-6.4-3.5c0.8,0.3,1.3,0.2,1.3,0.2
		c1.4,2.1,3.3,1.8,4.2,1.5c2,1,2.9-0.5,2.9-0.5c-1.2,0.3-1.2-0.5-1.2-0.5c3.1,0.5,2.5-2,2.5-2c-0.2,0.6-1.4,1-1.4,1
		c1.2-0.9,0.5-1.8,0.5-1.8c-0.5,1.8-4.6-0.2-4.6-0.2c2.3,0.2,2.6-0.7,2.6-0.7c-0.7,0.7-2.6,0.3-5.4-0.7c-2.8-1-4.2-0.9-4.2-0.9
		c0.2-0.5,2.1,0,2.1,0c6.7,1.6,7-0.3,7-0.3c-1,1.7-9-0.6-9-0.6c4-0.2,4.6-2.7,4.6-2.7c1.2-1.6,0.6-2.8,0.6-2.8
		c0,1.2-1.2,1.3-1.2,1.3c1.4-2.8-1.3-2.8-1.3-2.8c1.7,2-4.4,4-5.3,4.3s-2.1,1.3-2.1,1.3s0.1-0.6,3.1-2.3c3-1.7,2.1-3.4,2.1-3.4
		c0.4,2.2-3.4,3.5-3.4,3.5c1.6-1.4,0.8-2.8,0.8-2.8c0.2,1-0.6,1.7-0.6,1.7c0.6-0.9-0.7-2.1-0.7-2.1c0.5,1.4-0.6,2.2-1.4,2.8
		c-0.9,0.6-1.7,1.5-1.7,1.5c0.2-0.6-0.6-1.1-0.6-1.1c0.6,1.1-1.7,2.7-1.7,2.7c0.6-2.8-1-3.2-1-3.2c0.8,0.8,0.6,1.7-0.8,5
		s-1.5,6-0.6,8.4c1,2.4,2.7,0.8,2.8-0.2c0.1-1,0.6-0.9,0.6-0.9c2.1,0.8,0.6,3.3-0.2,3.8c-0.8,0.5-1.7,1.7-2.1,2.4
		c-0.3,0.5-0.4,0.9-0.6,1.2h-6.1l-4,4l-8.7-2.8l-0.3,0.1l-8.4,2.7l-4-4h-6.1c-0.2-0.3-0.3-0.7-0.6-1.2c-0.4-0.7-1.3-2-2.1-2.4
		c-0.8-0.5-2.2-3-0.2-3.8c0,0,0.6-0.1,0.6,0.9c0.1,1,1.8,2.7,2.8,0.2c1-2.4,0.9-5.1-0.6-8.4c-1.4-3.3-1.6-4.3-0.8-5
		c0,0-1.6,0.3-1,3.2c0,0-2.3-1.6-1.7-2.7c0,0-0.8,0.6-0.6,1.1c0,0-0.9-0.9-1.7-1.5c-0.9-0.6-1.9-1.3-1.4-2.8c0,0-1.3,1.2-0.7,2.1
		c0,0-0.7-0.7-0.6-1.7c0,0-0.8,1.4,0.8,2.8c0,0-3.8-1.3-3.4-3.5c0,0-1,1.7,2.1,3.4c3,1.7,3.1,2.3,3.1,2.3s-1.3-1-2.1-1.3
		c-0.9-0.3-7-2.4-5.3-4.3c0,0-2.7-0.1-1.3,2.8c0,0-1.2-0.2-1.2-1.3c0,0-0.6,1.3,0.6,2.8c0,0,0.6,2.5,4.6,2.7c0,0-7.9,2.2-9,0.6
		c0,0,0.2,1.9,7,0.3c0,0,1.8-0.5,2.1,0c0,0-1.4-0.1-4.2,0.9c-2.8,1-4.7,1.4-5.4,0.7c0,0,0.3,0.9,2.6,0.7c0,0-4.1,2-4.6,0.2
		c0,0-0.7,0.9,0.5,1.8c0,0-1.2-0.4-1.4-1c0,0-0.6,2.5,2.5,2c0,0,0,0.9-1.2,0.5c0,0,0.9,1.5,2.9,0.5c0.9,0.3,2.8,0.5,4.2-1.5
		c0,0,0.6,0.1,1.3-0.2c0,0-3.2,3.2-6.4,3.5c0,0,1.3,0,2-0.1c0,0-3.3,1.7-4.8,1.3c0,0,0.6,0.7,3-0.1c0,0-1.9,1.3-4,1.1
		c0,0,0.9,0.4,2.1,0.2c0,0-2.8,2.1-3.8,1.3c0,0-0.1,0.8,1,0.6c1-0.2,8.6-5.2,10.1-6.1c0,0-4.4,4.7-6.2,5c0.4-0.1,1.5-0.2,1.9-0.5
		c0,0-2.7,3.5-5.1,3.3c0,0,1.5,0.5,2.5-0.2c0,0-2.5,1.9-3.9,1.8c0,0,0.2,0.5,0.7,0.5c0,0-1.5,0.7-2.4,0.4c0,0,0.6,3.7,5.1,1
		c0,0-1.7,1.7-3.2,1.3c0,0,0.9,0.9,3.2-0.6c0,0-1.2,1.5-2.6,1.3c0,0,2,0.9,5.1-2.4c0,0,2.7-1.3,3.6-3.3c0,0,0.9-1,1.9-1.3
		c0,0-3.9,4.3-5,5.8c0,0,1.7-1.7,2.4-2.3c0,0-3.3,4.8-5.3,5.6c0.6-0.2,1.8-0.5,2.5-1.2c0,0-4.6,6.4-7.5,7.4c0,0,3-0.5,7.2-6.1
		s5.9-8.4,7.2-8.7c0,0-4.8,5-8,11.8c-2.9,6.1-6,8.1-6.6,8.4c0.4-0.2,1.7-0.9,2.5-1.5c0,0-3.5,3.2-1.7,3.5c0,0-1.5,3.2,2.2,0.9
		c0,0,1.5,0.6,2.9-1.4c0,0,0.6,0.6,1.7-2c0,0,1.5-0.7,2.3-3.2c0.1-0.2,0.2-0.5,0.3-0.8c0.3-0.1,0.6-0.2,0.9-0.5
		c0,0-5.6,11.1-8.6,13.8c0.7-0.6,2.3-2.1,3.8-4.7c0,0-3.1,6.2-6.3,6.6c0,0,3.6,0.5,9.5-10.9c0,0,2.5-5.8,3.3-6
		c0,0-5.2,13.3-8.2,14.7c0,0,1-0.2,2-1.3c0,0-0.7,1.6-1.5,2.6s-2.7,5-2.7,6.4c0,1.4-0.5,2.9-1.1,3c0,0,2.1,0,2.1-1.9
		c0,0,0.3,2.5-2,3c0,0,3.1,0.5,4-2.2c0,0,1.1-0.3,1.3-1.4c0,0,2.5-1.9,2.9-4.1c0,0,1.5,0.4,2.4-3.6c0.6-0.2,1.4-1,2.4-3.8
		c1.6-4.7,2.4-6.9,2.6-7.1c0,0-6,21.3-10.2,24.9c0,0,1.6-0.6,4-6.1c0,0-2.4,6.9-5.8,8.6c0,0,3.4-0.9,6.5-9.5
		c2.6-7.2,6-18.8,7.3-23.1c0,0.1,0.1,0.2,0.1,0.2c-0.9,3.5-2.7,10.9-3.2,11.2c0,0,0.6-0.2,0.8-0.9c0,0-4.8,19.6-8.9,23.2
		c0,0,1-0.6,1.6-1.4c-0.6,0.8-3,4.5-3,5.3c0,0,0.7-1.3,1.3-2c0,0-3.3,5.3,0.4,6.2c0,0-1.3-0.7-1.1-1.9c0,0,0.5,1.4,1.9,1.1
		c-0.2,0.4-0.3,0.8-0.3,1.1c-0.1,0.7-1.1,4.2,1.8,4.9c0,0-0.8-0.6-0.9-1.7c0.4,0.8,1.7,2.6,3.4,2.7c0,0-1.6-0.9-1.6-2.4
		c0,0,1.1-0.7,0.7-1.4c0,0,0.4-1.7,0.4-2.5c0,0,1.5-1.5,1.9-1.5c0,0-1.1,0.9-1.1,1.5c0,0-0.6,2.3,1.8,2.9c0,0-1.2-1.2-0.3-2.3
		c0,0,1,0.3,1.4-0.4c0,0,2-3.3,2.6-4.7c2.4,5.7,7.6,9.4,13.3,11.7c1.5,1.2,5.5,3.7,9.6,2.5c1.2,0.2,2.3,0.3,3.4,0.3
		c1.1,0.1,2.5-0.1,4.1-0.3c4.3,1.3,8.5-1.5,9.8-2.6c5.2-2.1,10.4-5.7,13.1-11.4c0.5,0.4,0.8,0.8,0.8,0.8c0.2,1.6,2,3.7,2,3.7
		c0.4,0.7,1.4,0.4,1.4,0.4c0.9,1.1-0.3,2.3-0.3,2.3c2.4-0.6,1.8-2.9,1.8-2.9c0-0.6-1.1-1.5-1.1-1.5c0.4,0,1.9,1.5,1.9,1.5
		c0,0.8,0.4,2.5,0.4,2.5c-0.4,0.7,0.7,1.4,0.7,1.4c0,1.5-1.6,2.4-1.6,2.4c1.7-0.1,2.9-1.9,3.4-2.7c-0.1,1.1-0.9,1.7-0.9,1.7
		c2.9-0.6,1.9-4.1,1.8-4.9c0-0.2-0.2-0.6-0.3-1.1c1.4,0.3,1.9-1.1,1.9-1.1c0.2,1.2-1.1,1.9-1.1,1.9c3.7-0.9,0.4-6.2,0.4-6.2
		c0.6,0.6,1.3,2,1.3,2c0.1-0.8-2.4-4.5-3-5.3c0.6,0.8,1.6,1.4,1.6,1.4c-4.1-3.6-8.9-23.2-8.9-23.2c0.2,0.6,0.8,0.9,0.8,0.9
		c-0.5-0.3-2.3-7.7-3.2-11.2c0-0.1,0.1-0.2,0.1-0.2c1.4,4.3,4.8,15.9,7.3,23.1c3.1,8.6,6.5,9.5,6.5,9.5c-3.4-1.7-5.8-8.6-5.8-8.6
		c2.5,5.6,4,6.1,4,6.1c-3.7-3.6-9.8-24.9-9.8-24.9c0.2,0.2,1,2.4,2.6,7.1c0.9,2.8,1.8,3.6,2.4,3.8c0.9,4,2.4,3.6,2.4,3.6
		c0.5,2.2,2.9,4.1,2.9,4.1c0.2,1.1,1.3,1.4,1.3,1.4c0.9,2.7,4,2.2,4,2.2c-2.3-0.5-2-3-2-3c0.1,1.9,2.1,1.9,2.1,1.9
		c-0.6-0.1-1.1-1.6-1.1-3c0-1.4-1.9-5.4-2.7-6.4c-0.8-1-1.5-2.6-1.5-2.6c0.9,1,2,1.3,2,1.3c-3.1-1.4-8.2-14.7-8.2-14.7
		c0.9,0.2,3.3,6,3.3,6c5.9,11.3,9.5,10.9,9.5,10.9c-3.2-0.4-6.3-6.6-6.3-6.6c1.5,2.6,3.1,4.1,3.8,4.7c-2.9-2.6-8.6-13.8-8.6-13.8
		c0.4,0.3,0.7,0.4,0.9,0.5c0.1,0.3,0.2,0.5,0.3,0.8c0.8,2.4,2.3,3.2,2.3,3.2c1,2.7,1.7,2,1.7,2c1.4,2,2.9,1.4,2.9,1.4
		c3.7,2.2,2.2-0.9,2.2-0.9c1.7-0.2-1.7-3.5-1.7-3.5c0.8,0.6,2.1,1.3,2.5,1.5C140.6,416.5,137.4,414.6,134.5,408.5 M110,408.5
		c-1.3-0.6-4.4-2.2-5-4.3c-0.8-0.3-9-2.9-9.4-3v45.5c1-0.5,4-2.1,7.1-5c4.8-4.5,7.3-9.8,7.3-15.6V408.5z M135.9,405.4
		c0.3,0.1,0.5,0.1,0.5,0.1C136.2,405.5,136.1,405.4,135.9,405.4 M55.4,405.4c-0.2,0.1-0.4,0.1-0.5,0.1
		C54.9,405.5,55.1,405.4,55.4,405.4 M138.7,425.6c0.3,0.2,0.5,0.3,0.5,0.3C139,425.9,138.8,425.7,138.7,425.6 M84,390.6
		c-0.5,0.3-0.9,0.8-0.9,1.5c0,0.6,0.3,1.1,0.8,1.4c-0.1,0.6-0.3,1.3-0.7,2H85l4.4,4.4l6-1.7l6.1,1.7l4.4-4.4h1.8
		c-0.3-0.7-0.5-1.3-0.6-2c0.5-0.3,0.9-0.8,0.9-1.5c0-0.7-0.4-1.2-1-1.5c0.2-1.4,0.7-2.3,0.7-2.3l6-14.5c0,0-5.3,2-5.2,6.6
		c-0.4-0.7-1.2-1.3-2.3-1.8c0,0,1.8,1.6-0.3,4.2c-1.8,2.3,0.3,3.4,0.9,3.6l-0.7,0.7c-5,3.8-8.3-0.6-9-1.8c0.7,0,3.1-0.4,2.2-3.1
		c-1-3.2,1.4-4,1.4-4c-1.3,0.1-2.2,0.4-2.9,0.9c1.8-4.2-2.3-7.9-2.3-7.9s-4.3,3.7-2.3,8c-0.7-0.5-1.6-0.9-3.1-1.1c0,0,2.3,0.9,1.4,4
		c-0.9,3,2,3.1,2.3,3.3c-0.6,1-3.9,5.4-8.9,1.6l-0.7-0.7c0.6-0.3,2.7-1.4,0.9-3.6c-2.1-2.6-0.3-4.2-0.3-4.2
		c-1.2,0.5-1.9,1.1-2.3,1.8c0.1-4.6-5.2-6.6-5.2-6.6l5.9,14.5C83.3,388.3,83.8,389.2,84,390.6 M52.6,425.6c-0.2,0.1-0.3,0.3-0.4,0.3
		C52.2,426,52.3,425.8,52.6,425.6 M332.3,440.6c-2.9,0-5.2-0.9-7-2.8c-1.6-1.7-2.4-3.7-2.4-6c0-4,2.3-7.8,6.9-11.3l11.3,15.9
		C338.8,439.2,335.9,440.6,332.3,440.6 M329.3,392.6c1.1-1,2.5-1.5,4.1-1.5c4,0,5.9,1.9,5.9,5.6c0,2.5-1.4,4.9-4.2,7.3l-2.4,2.1
		l-1.6-2.2c-2.3-3.2-3.4-5.6-3.4-7.3C327.7,394.9,328.2,393.6,329.3,392.6 M362.9,417.7h-11.7c0,3.5-0.8,6.9-2.4,10.1l-10.1-13.6
		c7.8-5.4,11.7-11.2,11.7-17.3c0-4.1-1.4-7.4-4.1-9.9c-3-2.7-7.2-4-12.7-4c-5.1,0-9.2,1.3-12.4,3.8c-3.2,2.5-4.8,5.9-4.8,10.3
		c0,3.6,1.5,7.7,4.5,12.1l2.4,3.5c-9,5.6-13.6,12-13.6,19.3c0,4.9,1.3,9.1,4,12.5c3.5,4.6,9.1,6.8,16.7,6.8c7.2,0,12.6-2.2,16.2-6.5
		l3.8,5.1h14.4l-8.9-12.4C360.6,430.9,362.9,424.4,362.9,417.7"/>
</g>
</svg>
