<?xml version="1.0" encoding="utf-8"?>
<!-- Generator: Adobe Illustrator 18.0.0, SVG Export Plug-In . SVG Version: 6.00 Build 0)  -->
<!DOCTYPE svg PUBLIC "-//W3C//DTD SVG 1.1//EN" "http://www.w3.org/Graphics/SVG/1.1/DTD/svg11.dtd">
<svg version="1.1" id="Calque_1" xmlns="http://www.w3.org/2000/svg" xmlns:xlink="http://www.w3.org/1999/xlink" x="0px" y="0px"
	 viewBox="0 0 841.9 595.3" enable-background="new 0 0 841.9 595.3" xml:space="preserve">
<g>
	<path fill="#003552" d="M353.3,318h9.2v-35.6h-9.2V318z M416.5,281.5c-4.1,0-7.1,1.6-8.8,4.6v-15.3h-9.2v47.3h9.2v-23.6
		c0-4,1.6-5.9,4.9-5.9c2.6,0,4,1.6,4,4.9v24.5h9.2v-26.4C425.7,284.9,422.7,281.5,416.5,281.5 M380.8,288.1c2.8,0,4.1,2.4,4.1,7.1
		h8.8c0-4.3-1.1-7.6-3.3-10.1c-2.2-2.5-5.4-3.7-9.5-3.7c-4.6,0-8.1,1.3-10.5,3.9c-2.7,3-4,7.9-4,14.8c0,3.5,0.3,6.6,0.9,9.1l0,0
		c0.6,2.3,1.4,4.2,2.5,5.6c2.1,2.7,5.6,4,10.3,4c7.4,0,11.8-3.3,13.2-9.6h-0.1h0.1c0.3-1.5,0.5-3.1,0.5-4.9H385c0,2-0.2,3.6-0.6,4.9
		c-0.7,2.3-2,3.4-3.9,3.4c-2,0-3.3-1-4-2.9c-0.1-0.1-0.1-0.4-0.1-0.5l0,0c-0.5-1.8-0.8-4.8-0.8-9.1c0-4.5,0.3-7.5,0.9-9.2
		C377.2,289.1,378.7,288.1,380.8,288.1 M339.5,287.2v-4.7h-8.8v35.6h9.2v-21.4c0-2.2,0.7-3.9,2.2-5c1.2-0.9,2.8-1.4,4.6-1.4h2.9
		v-8.6c-0.7-0.1-1.3-0.1-1.7-0.1C344.5,281.5,341.7,283.4,339.5,287.2 M353.3,278.1h9.2v-7.8h-9.2V278.1z M569.6,307.2
		c0,0.8-0.1,1.5-0.4,2.1l0,0l0,0c-0.3,0.8-0.8,1.6-1.6,2.2c-1.1,0.8-2.3,1.3-3.7,1.3c-1.9,0-3-1.1-3.4-3.4c-0.1-0.5-0.1-1-0.1-1.6
		c0-3.1,1.7-5,5.2-5.8c1.4-0.3,2.8-0.9,4-1.8L569.6,307.2L569.6,307.2z M578.4,292.4c0-3.6-0.8-6.2-2.4-7.8c-2-2.1-5.5-3-10.6-3
		c-8.4,0-12.6,3.7-12.6,11v0.8h8.3v-1c0-3.1,1.4-4.7,4.2-4.7c2.8,0,4.2,1.5,4.2,4.4c0,2.1-1.2,3.5-3.7,4.2l-5.2,1.4
		c-3.3,0.8-5.6,2.1-6.9,3.7c-1.4,1.6-2.1,4.1-2.1,7.4c0,0.2,0,0.4,0,0.6l0,0c0.1,2.5,0.7,4.6,1.9,6.3c1.6,2.2,3.8,3.3,6.8,3.3
		c2.3,0,4.2-0.3,5.4-0.9c1.5-0.7,2.8-1.9,3.7-3.7c0.4,1.8,0.8,3,1.1,3.7h8.8c-0.8-1.7-1.1-4-1.1-6.9v-18.7H578.4z M583.9,318h9.2
		v-47.3h-9.2V318z M536.3,307.1l-5.3-24.6h-9.6l7.6,26.9l2.5,8.7c-0.3,3.3-1.9,5-4.9,5c-0.8,0-1.6-0.1-2.4-0.2v6.8h3.7
		c4.3,0,7.3-0.8,8.9-2.5c1.6-1.6,3.3-5.5,4.9-11.6l1.6-6.4l7-26.9H541L536.3,307.1z M480.1,287.2v-4.7h-8.8v35.6h9.2v-21.4
		c0-2.2,0.7-3.9,2.2-5c1.2-0.9,2.8-1.4,4.6-1.4h2.9v-8.6c-0.7-0.1-1.3-0.1-1.7-0.1C485,281.5,482.3,283.4,480.1,287.2 M510.5,309.3
		L510.5,309.3c-0.1,0.2-0.1,0.4-0.2,0.6c-0.7,1.9-2,2.9-3.8,2.9c-2.1,0-3.4-1.1-4.1-3.4v-0.1c-0.6-1.7-0.8-4.7-0.8-9
		c0-4.3,0.3-7.3,0.8-9c0.6-2.3,2.1-3.5,4.1-3.5c1.8,0,3.1,1,3.8,2.9c0.7,1.9,1.1,5.2,1.1,9.6C511.4,304.3,511.1,307.4,510.5,309.3
		 M506.5,281.5c-5.1,0.1-8.8,1.6-11,4.8c-2.1,3-3.1,7.6-3.1,13.9c0,3.6,0.3,6.6,0.9,9.1l0,0c0.5,2.1,1.1,3.7,2.1,4.9
		c2.1,3.2,5.9,4.7,11.2,4.7c5.1-0.1,8.8-1.6,11-4.8c0.9-1.3,1.6-2.9,2.1-4.8l0,0c0.6-2.5,1-5.5,1-9.1c0-6.5-1-11.2-2.9-14.1
		C515.5,283,511.8,281.4,506.5,281.5"/>
	<path fill="#003552" d="M299.8,285.7c0.9,0.4,2.5,3.8,3.3,5.8C301.4,290.5,299.8,285.7,299.8,285.7 M301.3,297.9
		c0.1,1.2,0.2,2.2,0.4,3C300.5,300,301.3,297.9,301.3,297.9 M298,304.5c0,0,0.7,1.9,0.4,4c0-0.1,0-0.1,0-0.1
		c-0.6,0.4-1.1,0.7-1.6,1.1c0.3-1.2,0.6-2.5,0.6-2.5s-0.5,1-0.9,2.1c0-0.7-0.1-1.5-0.3-2.4C296.5,305.8,297.1,305.2,298,304.5
		 M296.5,314.8c-0.5,0.1-0.9,0.1-1.3,0.2c0.6-1.2,1.3-3.3,1.3-3.3s-0.7,1.1-1.3,2.1c0.4-0.8,0.6-1.8,0.7-3c0.5-0.4,1.1-0.8,1.8-1.1
		C297.7,309.5,298.2,312.6,296.5,314.8 M292.7,319.9c0.1-0.2,0.2-0.4,0.2-0.4c-0.5-0.1-1-0.1-1.4-0.1c1-0.9,2.5-2.3,2.5-2.3
		s-2.3,1.3-3.3,2.1c0.6-0.7,1.1-1.6,1.6-2.7c0.8-0.4,2.1-0.8,3.5-0.9C295.9,315.5,295.1,318.5,292.7,319.9 M287.6,323.7
		c-0.4-0.2-0.9-0.4-1.3-0.6c1.1-0.6,3.3-2,3.3-2s-1.1,0.4-2.1,0.7c0.6-0.5,1.3-1.1,2-1.8c0.7-0.1,1.5-0.1,2.4,0.1
		C291.8,320,290.2,323,287.6,323.7 M281.1,325.8c-0.6-0.4-1.7-0.9-0.8-1c1.2-0.1,4-0.6,4-0.6s-2.9-0.1-4.1-0.1
		c-0.8,0.1,0-0.6,0.6-1.1c1.3-0.5,3.3-0.6,5.9,0.9C286.7,324,284,326.5,281.1,325.8 M279.5,322.5c0.9-0.8,2.8-2.9,2.8-2.9
		s-2.4,1.6-3.3,2.3c-0.6,0.5-0.4-0.4-0.1-1.1c1.6-2.6,5.3-2.8,5.3-2.8c-0.8,3-2.3,4.2-3.5,4.8C279.9,322.9,278.9,323,279.5,322.5
		 M267.4,301.4v-12.9c0,0,3.5-1.5,3.5-3.1l7.1-2.3l7.1,2.3c0,1.6,3.5,3.1,3.5,3.1v12.9c0,10.3-10.7,15.1-10.7,15.1
		S267.4,311.7,267.4,301.4 M277.1,321.9c-0.9-0.8-3.3-2.3-3.3-2.3s1.9,2.1,2.8,2.9c0.6,0.5-0.4,0.4-1.2,0.3
		c-1.3-0.6-2.7-1.8-3.5-4.8c0,0,3.7,0.2,5.3,2.8C277.4,321.5,277.7,322.4,277.1,321.9 M275.9,324.8c0.8,0.1-0.2,0.6-0.8,1
		c-0.2,0.1-0.4,0.1-0.6,0.1c-1.1-0.1-2.1-0.4-3.2-0.7c-1.1-0.6-1.8-1.1-1.8-1.1c2.7-1.5,4.6-1.4,5.9-0.9c0.6,0.4,1.4,1.1,0.6,1.1
		c-1.2-0.1-4.1,0.1-4.1,0.1S274.7,324.8,275.9,324.8 M268.5,323.7c-2.7-0.6-4.2-3.6-4.2-3.6c0.9-0.1,1.7-0.1,2.4-0.1
		c0.6,0.8,1.3,1.3,2,1.8c-1.1-0.4-2.1-0.7-2.1-0.7s2.2,1.4,3.3,2C269.5,323.2,269,323.4,268.5,323.7 M263.1,319.7
		c-0.1-0.1-0.1-0.1-0.2-0.1c-0.2-0.1-0.4-0.3-0.6-0.4c-1.6-1.4-2.1-3.5-2.1-3.5c1.5,0.1,2.7,0.4,3.5,0.9c0.5,1.1,1.1,2,1.6,2.7
		c-1.1-0.8-3.3-2.1-3.3-2.1s1.5,1.5,2.5,2.3C264.2,319.5,263.7,319.5,263.1,319.7c0.1-0.1,0.1,0.1,0.2,0.2
		C263.2,319.7,263.2,319.7,263.1,319.7 M259.5,314.6c-0.1-0.2-0.3-0.4-0.4-0.6c0-0.1-0.1-0.1-0.1-0.1c-1-2.1-0.6-4.4-0.6-4.4
		c0.7,0.4,1.3,0.8,1.8,1.1c0.1,1.2,0.4,2.2,0.7,3c-0.6-1-1.3-2.1-1.3-2.1s0.8,2.1,1.3,3.3C260.5,314.9,260.1,314.8,259.5,314.6
		L259.5,314.6 M257.8,308.4c-0.1-0.2-0.1-0.5-0.1-0.7c-0.1-1.7,0.4-3.1,0.4-3.1c0.8,0.6,1.5,1.3,2,2c-0.2,0.8-0.3,1.6-0.3,2.4
		c-0.4-1.1-0.9-2.1-0.9-2.1s0.3,1.3,0.6,2.5C259,309,258.4,308.6,257.8,308.4C257.8,308.3,257.8,308.4,257.8,308.4 M266.8,315.6
		c-0.3-0.7-0.6-1.3-0.6-1.3s0.1,0.5,0.1,1.1c-0.4-0.2-0.9-0.4-1.3-0.6c0-0.8,0.1-1.8,0.5-2.8c0,0,1.8,1.4,2.5,3.5c0,0.4,0,0.8,0,1.2
		C267.8,316.2,267.3,315.8,266.8,315.6 M261.1,305.3c0,0,1.7,1.8,2.3,4.1c-0.3,0.5-0.5,1-0.6,1.5c-0.1-0.1-0.4-0.2-0.5-0.4
		c-0.3-1.3-0.6-2.5-0.6-2.5s0.1,1.1,0.1,2.2c-0.6-0.4-1.1-0.6-1.3-0.7C260.3,308.4,260.5,307,261.1,305.3 M262.5,306
		c-0.4-0.6-0.6-1-0.9-1.3c-0.1-0.6-0.1-1.1-0.1-1.1s-0.1,0.4-0.1,0.8c-0.3-0.4-0.5-0.6-0.5-0.6c-0.3,0.7-0.5,1.3-0.6,2
		c-0.1-0.1-0.2-0.4-0.4-0.5c0.1-1.3,0.5-2.8,1.6-4.5c0,0,1.3,2,1.6,4.5C262.7,305.5,262.6,305.7,262.5,306 M263.7,309
		c-0.1-0.1-0.1-0.4-0.1-0.5c0.2-0.9,0.4-1.7,0.4-1.7s-0.2,0.5-0.6,1.1c-0.2-0.6-0.4-1.1-0.6-1.5c0.5-0.6,1.1-1.3,2-2
		c0,0,0.4,1.2,0.4,2.7C264.5,307.8,264,308.4,263.7,309 M264.1,312.2c-0.4-0.4-0.7-0.7-1.1-1c0.4-0.8,0.9-1.8,1.8-2.8
		c0,0,0.6,1.1,0.8,2.5c-0.3-0.2-0.4-0.4-0.4-0.4c-0.3,0.8-0.4,1.6-0.6,2.3c-0.1-0.1-0.2-0.3-0.3-0.4c0.1-0.9,0.1-1.6,0.1-1.6
		S264.3,311.4,264.1,312.2 M263.1,314.2c-0.1,0-0.2,0-0.2,0c0.1,0.6,0.4,1.2,0.6,1.7c-0.4-0.2-0.8-0.4-1.3-0.6
		c-0.6-1.1-1.2-2.5-1.3-4.6c0,0,2.3,0.9,3.7,2.8c-0.1,0.4-0.1,0.8,0,1.1c-0.4-0.1-0.8-0.3-1.1-0.4c-0.6-0.7-1.1-1.3-1.1-1.3
		S262.7,313.4,263.1,314.2 M268.2,318.7c-1.1-0.8-2.2-1.7-2.2-1.7s0.7,0.8,1.5,1.8c-0.9,0.1-1.6,0.2-1.6,0.2
		c0.1,0.1,0.2,0.3,0.4,0.4h-0.1c-0.8-0.9-1.6-2.3-2.2-4.2c0,0,2.4,0.4,4.3,2c0.1,0.6,0.2,1.2,0.4,1.7
		C268.5,318.7,268.3,318.7,268.2,318.7 M272,319.9c0.4,0.8,0.8,1.3,1.3,1.8c-1.4-0.5-3.5-1.1-3.5-1.1s2,1.1,3.4,1.8
		c-0.7,0-1.5,0.1-2.3,0.4c-1.1-0.6-2.3-1.5-3.6-3.2C267.3,319.5,269.7,319.1,272,319.9 M271.7,319.3c-0.2-0.1-0.4-0.2-0.6-0.2
		c-0.6-0.8-1.1-1.6-1.1-1.6s0.3,0.7,0.6,1.5c-0.5-0.1-1-0.1-1.5-0.2c-0.3-0.9-0.4-2-0.2-3.4c0,0,1.3,0.6,2.5,1.8
		c-0.3,0-0.4-0.1-0.4-0.1C271.2,318,271.4,318.7,271.7,319.3 M263.2,282.5h5.4c0.3,0.3,1.3,1.3,2.2,2.2l-0.7,0.2v0.2
		c-0.8-0.8-1.6-1.6-1.8-1.8h-4.7c-0.4,0.6-2.8,4.2-3.2,4.9c0.6,0.9,1.5,2.5,2.1,4.5c0.4,1.3,0.5,2.6,0.5,4c0,1.5-0.2,3-0.6,4.4
		c-0.2-0.4-0.4-0.8-0.6-1.1c0.3-1.2,0.4-2.3,0.4-3.3c0-1.4-0.2-2.7-0.5-3.7c-0.6-2.3-1.6-3.9-2.3-4.7
		C260.1,287.3,262.7,283.3,263.2,282.5 M295.3,303.9c0,0-0.2,0.2-0.5,0.6c-0.1-0.5-0.1-0.8-0.1-0.8s-0.1,0.4-0.1,1.1
		c-0.3,0.4-0.6,0.8-0.9,1.3c-0.1-0.3-0.4-0.5-0.6-0.8c0.2-2.4,1.6-4.5,1.6-4.5c1.1,1.8,1.5,3.3,1.6,4.5c-0.1,0.1-0.2,0.4-0.4,0.5
		C295.7,305.2,295.5,304.6,295.3,303.9 M294.4,310.3c0.1-1.1,0.1-2.2,0.1-2.2s-0.4,1.3-0.6,2.5c-0.1,0.1-0.3,0.2-0.5,0.4
		c-0.1-0.5-0.4-0.9-0.6-1.5c0.6-2.3,2.3-4.1,2.3-4.1c0.6,1.7,0.8,3,0.8,4.2C295.5,309.6,295.1,309.9,294.4,310.3 M290.5,311.9
		c0.4,1.1,0.5,2.1,0.5,2.8c-0.4,0.1-0.8,0.4-1.3,0.6c0.1-0.6,0.1-1.1,0.1-1.1s-0.2,0.6-0.6,1.3c-0.5,0.3-0.9,0.6-1.4,1
		c0-0.4,0.1-0.8,0-1.2C288.7,313.3,290.5,311.9,290.5,311.9 M291.2,308.4c0.9,1,1.5,1.9,1.8,2.8c-0.4,0.3-0.7,0.6-1.1,1
		c-0.2-0.7-0.4-1.3-0.4-1.3s0,0.8,0.1,1.6c-0.1,0.1-0.2,0.3-0.3,0.4c-0.1-0.7-0.3-1.5-0.6-2.3c0,0-0.1,0.1-0.4,0.4
		C290.7,309.6,291.2,308.4,291.2,308.4 M292.6,308.5c-0.1,0.1-0.1,0.4-0.1,0.5c-0.4-0.6-0.8-1.2-1.4-1.8c0-1.5,0.4-2.7,0.4-2.7
		c0.8,0.6,1.5,1.3,2,2c-0.2,0.4-0.5,0.9-0.6,1.5c-0.3-0.6-0.6-1.1-0.6-1.1S292.4,307.6,292.6,308.5 M284.7,317.2
		c1.1-1.2,2.5-1.8,2.5-1.8c0.1,1.4,0,2.5-0.2,3.4c-0.5,0-1,0.1-1.5,0.2c0.4-0.8,0.6-1.5,0.6-1.5s-0.6,0.8-1.1,1.6
		c-0.2,0.1-0.4,0.1-0.6,0.2c0.3-0.6,0.6-1.3,0.8-2.2C285.2,317.1,285,317.1,284.7,317.2 M282.7,321.7c0.5-0.5,0.9-1.1,1.3-1.8
		c2.3-0.8,4.7-0.3,4.7-0.3c-1.3,1.6-2.5,2.6-3.6,3.2c-0.8-0.2-1.6-0.4-2.3-0.4c1.4-0.6,3.4-1.8,3.4-1.8S284.2,321.2,282.7,321.7
		 M288.6,318.8c0.8-0.9,1.5-1.8,1.5-1.8s-1.1,0.8-2.2,1.7c-0.1,0-0.4,0-0.5,0c0.1-0.5,0.3-1.1,0.4-1.7c1.9-1.6,4.3-2,4.3-2
		c-0.6,2-1.3,3.3-2.2,4.2h-0.1c0.1-0.1,0.2-0.3,0.4-0.4C290.2,319,289.6,318.9,288.6,318.8 M293.1,314.2c0.4-0.7,0.6-1.2,0.6-1.2
		s-0.5,0.6-1.1,1.3c-0.3,0.1-0.6,0.1-1.1,0.4c0-0.4,0-0.7,0-1.1c1.5-1.9,3.7-2.8,3.7-2.8c-0.1,2.1-0.6,3.5-1.3,4.6
		c-0.5,0.1-0.9,0.4-1.3,0.6c0.2-0.5,0.4-1.1,0.6-1.7C293.2,314.1,293.1,314.2,293.1,314.2 M287.6,282.5h5.4c0.5,0.7,3.1,4.7,3.7,5.7
		c-0.6,0.8-1.6,2.5-2.3,4.7c-0.3,1.1-0.5,2.3-0.5,3.7c0,1,0.1,2.1,0.4,3.2c-0.1,0.3-0.4,0.6-0.6,1.1c-0.4-1.4-0.6-2.8-0.6-4.2
		c0-1.3,0.1-2.7,0.5-4c0.6-2.1,1.4-3.6,2.1-4.5c-0.5-0.7-3.2-4.8-3.2-4.9h-4.7c-0.2,0.2-1,1-1.8,1.8v-0.2l-0.7-0.2
		C286.2,283.9,287.3,282.8,287.6,282.5 M303.6,321.4c-0.2-0.3-0.3-0.7-0.4-1.1C303.5,320.7,303.6,321.1,303.6,321.4 M304.9,318
		c0,0.6-0.6,0.7-0.8,0.7c-0.1-0.2-0.1-0.4-0.2-0.6C304.2,318.8,304.9,318,304.9,318 M252.6,321.4c0-0.4,0.1-0.7,0.4-1.1
		C252.9,320.7,252.8,321.1,252.6,321.4 M252.3,318.8c-0.3,0-0.8-0.1-0.8-0.7c0,0,0.6,0.7,1.1,0.1
		C252.4,318.4,252.3,318.6,252.3,318.8 M253.2,291.5c0.8-2,2.4-5.4,3.3-5.8C256.4,285.7,254.8,290.5,253.2,291.5 M254.5,300.9
		c0.1-0.8,0.3-1.8,0.4-3C254.9,297.9,255.7,300,254.5,300.9 M251.5,275.7c0.5-0.3,1.1-0.8,1.9-1.6
		C253.4,274.1,253,275.9,251.5,275.7 M304.7,275.7c-1.5,0.2-1.9-1.6-1.9-1.6C303.6,274.9,304.2,275.4,304.7,275.7 M305.6,288.8
		c-2.3-4.8-5.7-8.3-5.7-8.3c0.9,0.2,2.1,2.3,5.1,6.2c3,4,5.1,4.3,5.1,4.3c-2.1-0.7-5.3-5.2-5.3-5.2c0.5,0.5,1.3,0.8,1.8,0.8
		c-1.4-0.6-3.7-4-3.7-4c0.4,0.4,1.7,1.6,1.7,1.6c-0.8-1.1-3.5-4.1-3.5-4.1c0.7,0.2,1.3,0.9,1.3,0.9c0.7,1.4,2.5,2.3,2.5,2.3
		c2.2,2.4,3.6,1.7,3.6,1.7c-1,0.1-1.8-0.9-1.8-0.9c1.7,1.1,2.3,0.4,2.3,0.4c-1.1,0.3-2.3-0.9-2.3-0.9c3.2,1.9,3.6-0.7,3.6-0.7
		c-0.6,0.2-1.7-0.3-1.7-0.3c0.4,0,0.5-0.4,0.5-0.4c-1,0.1-2.8-1.3-2.8-1.3c0.6,0.5,1.8,0.1,1.8,0.1c-1.7,0.1-3.6-2.3-3.6-2.3
		c0.3,0.1,1.1,0.3,1.3,0.4c-1.3-0.2-4.4-3.5-4.4-3.5c1.1,0.6,6.4,4.2,7.1,4.3s0.7-0.4,0.7-0.4c-0.7,0.6-2.7-0.9-2.7-0.9
		c0.9,0.1,1.5-0.1,1.5-0.1c-1.5,0.1-2.8-0.8-2.8-0.8c1.7,0.6,2.1,0.1,2.1,0.1c-1.1,0.4-3.4-0.9-3.4-0.9c0.4,0.1,1.4,0.1,1.4,0.1
		c-2.3-0.2-4.5-2.5-4.5-2.5c0.6,0.2,0.9,0.1,0.9,0.1c1,1.5,2.3,1.3,3,1.1c1.4,0.7,2.1-0.4,2.1-0.4c-0.8,0.2-0.8-0.4-0.8-0.4
		c2.2,0.4,1.8-1.4,1.8-1.4c-0.1,0.4-1,0.7-1,0.7c0.8-0.6,0.4-1.3,0.4-1.3c-0.4,1.3-3.3-0.1-3.3-0.1c1.6,0.1,1.8-0.5,1.8-0.5
		c-0.5,0.5-1.8,0.2-3.8-0.5c-2-0.7-3-0.6-3-0.6c0.1-0.4,1.5,0,1.5,0c4.7,1.1,4.9-0.2,4.9-0.2c-0.7,1.2-6.4-0.4-6.4-0.4
		c2.8-0.1,3.3-1.9,3.3-1.9c0.8-1.1,0.4-2,0.4-2c0,0.8-0.8,0.9-0.8,0.9c1-2-0.9-2-0.9-2c1.2,1.4-3.1,2.8-3.7,3
		c-0.6,0.2-1.5,0.9-1.5,0.9s0.1-0.4,2.2-1.6c2.1-1.2,1.5-2.4,1.5-2.4c0.3,1.6-2.4,2.5-2.4,2.5c1.1-1,0.6-2,0.6-2
		c0.1,0.7-0.4,1.2-0.4,1.2c0.4-0.6-0.5-1.5-0.5-1.5c0.4,1-0.4,1.6-1,2c-0.6,0.4-1.2,1.1-1.2,1.1c0.1-0.4-0.4-0.8-0.4-0.8
		c0.4,0.8-1.2,1.9-1.2,1.9c0.4-2-0.7-2.3-0.7-2.3c0.6,0.6,0.4,1.2-0.6,3.5c-1,2.3-1.1,4.2-0.4,5.9c0.7,1.7,1.9,0.6,2-0.1
		s0.4-0.6,0.4-0.6c1.5,0.6,0.4,2.3-0.1,2.7c-0.6,0.4-1.2,1.2-1.5,1.7c-0.2,0.4-0.3,0.6-0.4,0.8h-4.3l-2.8,2.8l-6.2-2l-0.2,0.1
		l-5.9,1.9l-2.8-2.8h-4.3c-0.1-0.2-0.2-0.5-0.4-0.8c-0.3-0.5-0.9-1.4-1.5-1.7c-0.6-0.4-1.6-2.1-0.1-2.7c0,0,0.4-0.1,0.4,0.6
		c0.1,0.7,1.3,1.9,2,0.1c0.7-1.7,0.6-3.6-0.4-5.9c-1-2.3-1.1-3-0.6-3.5c0,0-1.1,0.2-0.7,2.3c0,0-1.6-1.1-1.2-1.9
		c0,0-0.6,0.4-0.4,0.8c0,0-0.6-0.6-1.2-1.1c-0.6-0.4-1.3-0.9-1-2c0,0-0.9,0.8-0.5,1.5c0,0-0.5-0.5-0.4-1.2c0,0-0.6,1,0.6,2
		c0,0-2.7-0.9-2.4-2.5c0,0-0.7,1.2,1.5,2.4c2.1,1.2,2.2,1.6,2.2,1.6s-0.9-0.7-1.5-0.9c-0.6-0.2-4.9-1.7-3.7-3c0,0-1.9-0.1-0.9,2
		c0,0-0.8-0.1-0.8-0.9c0,0-0.4,0.9,0.4,2c0,0,0.4,1.8,3.3,1.9c0,0-5.6,1.6-6.4,0.4c0,0,0.1,1.3,4.9,0.2c0,0,1.3-0.4,1.5,0
		c0,0-1-0.1-3,0.6c-2,0.7-3.3,1-3.8,0.5c0,0,0.2,0.6,1.8,0.5c0,0-2.9,1.4-3.3,0.1c0,0-0.5,0.6,0.4,1.3c0,0-0.8-0.3-1-0.7
		c0,0-0.4,1.8,1.8,1.4c0,0,0,0.6-0.8,0.4c0,0,0.6,1.1,2.1,0.4c0.6,0.2,2,0.4,3-1.1c0,0,0.4,0.1,0.9-0.1c0,0-2.3,2.3-4.5,2.5
		c0,0,0.9,0,1.4-0.1c0,0-2.3,1.2-3.4,0.9c0,0,0.4,0.5,2.1-0.1c0,0-1.3,0.9-2.8,0.8c0,0,0.6,0.3,1.5,0.1c0,0-2,1.5-2.7,0.9
		c0,0-0.1,0.6,0.7,0.4c0.7-0.1,6.1-3.7,7.1-4.3c0,0-3.1,3.3-4.4,3.5c0.3-0.1,1.1-0.1,1.3-0.4c0,0-1.9,2.5-3.6,2.3
		c0,0,1.1,0.4,1.8-0.1c0,0-1.8,1.3-2.8,1.3c0,0,0.1,0.4,0.5,0.4c0,0-1.1,0.5-1.7,0.3c0,0,0.4,2.6,3.6,0.7c0,0-1.2,1.2-2.3,0.9
		c0,0,0.6,0.6,2.3-0.4c0,0-0.8,1.1-1.8,0.9c0,0,1.4,0.6,3.6-1.7c0,0,1.9-0.9,2.5-2.3c0,0,0.6-0.7,1.3-0.9c0,0-2.8,3-3.5,4.1
		c0,0,1.2-1.2,1.7-1.6c0,0-2.3,3.4-3.7,4c0.4-0.1,1.3-0.4,1.8-0.8c0,0-3.3,4.5-5.3,5.2c0,0,2.1-0.4,5.1-4.3c3-4,4.2-5.9,5.1-6.2
		c0,0-3.4,3.5-5.7,8.3c-2.1,4.3-4.2,5.7-4.7,5.9c0.3-0.1,1.2-0.6,1.8-1.1c0,0-2.5,2.3-1.2,2.5c0,0-1.1,2.3,1.6,0.6
		c0,0,1.1,0.4,2.1-1c0,0,0.4,0.4,1.2-1.4c0,0,1.1-0.5,1.6-2.3c0.1-0.1,0.1-0.4,0.2-0.6c0.2-0.1,0.4-0.1,0.6-0.4c0,0-4,7.8-6.1,9.8
		c0.5-0.4,1.6-1.5,2.7-3.3c0,0-2.2,4.4-4.5,4.7c0,0,2.5,0.4,6.7-7.7c0,0,1.8-4.1,2.3-4.2c0,0-3.7,9.4-5.8,10.4c0,0,0.7-0.1,1.4-0.9
		c0,0-0.5,1.1-1.1,1.8c-0.6,0.7-1.9,3.5-1.9,4.5c0,1-0.4,2.1-0.8,2.1c0,0,1.5,0,1.5-1.3c0,0,0.2,1.8-1.4,2.1c0,0,2.2,0.4,2.8-1.6
		c0,0,0.8-0.2,0.9-1c0,0,1.8-1.3,2.1-2.9c0,0,1.1,0.3,1.7-2.5c0.4-0.1,1-0.7,1.7-2.7c1.1-3.3,1.7-4.9,1.8-5c0,0-4.2,15.1-7.2,17.6
		c0,0,1.1-0.4,2.8-4.3c0,0-1.7,4.9-4.1,6.1c0,0,2.4-0.6,4.6-6.7c1.8-5.1,4.2-13.3,5.2-16.3c0,0.1,0.1,0.1,0.1,0.1
		c-0.6,2.5-1.9,7.7-2.3,7.9c0,0,0.4-0.1,0.6-0.6c0,0-3.4,13.9-6.3,16.4c0,0,0.7-0.4,1.1-1c-0.4,0.6-2.1,3.2-2.1,3.7
		c0,0,0.5-0.9,0.9-1.4c0,0-2.3,3.7,0.3,4.4c0,0-0.9-0.5-0.8-1.3c0,0,0.4,1,1.3,0.8c-0.1,0.3-0.2,0.6-0.2,0.8c-0.1,0.5-0.8,3,1.3,3.5
		c0,0-0.6-0.4-0.6-1.2c0.3,0.6,1.2,1.8,2.4,1.9c0,0-1.1-0.6-1.1-1.7c0,0,0.8-0.5,0.5-1c0,0,0.3-1.2,0.3-1.8c0,0,1.1-1.1,1.3-1.1
		c0,0-0.8,0.6-0.8,1.1c0,0-0.4,1.6,1.3,2.1c0,0-0.8-0.8-0.2-1.6c0,0,0.7,0.2,1-0.3c0,0,1.4-2.3,1.8-3.3c1.7,4,5.4,6.6,9.4,8.3
		c1.1,0.8,3.9,2.6,6.8,1.8c0.8,0.1,1.6,0.2,2.4,0.2c0.8,0.1,1.8-0.1,2.9-0.2c3,0.9,6-1.1,6.9-1.8c3.7-1.5,7.4-4,9.3-8.1
		c0.4,0.3,0.6,0.6,0.6,0.6c0.1,1.1,1.4,2.6,1.4,2.6c0.3,0.5,1,0.3,1,0.3c0.6,0.8-0.2,1.6-0.2,1.6c1.7-0.4,1.3-2.1,1.3-2.1
		c0-0.4-0.8-1.1-0.8-1.1c0.3,0,1.3,1.1,1.3,1.1c0,0.6,0.3,1.8,0.3,1.8c-0.3,0.5,0.5,1,0.5,1c0,1.1-1.1,1.7-1.1,1.7
		c1.2-0.1,2.1-1.3,2.4-1.9c-0.1,0.8-0.6,1.2-0.6,1.2c2.1-0.4,1.3-2.9,1.3-3.5c0-0.1-0.1-0.4-0.2-0.8c1,0.2,1.3-0.8,1.3-0.8
		c0.1,0.8-0.8,1.3-0.8,1.3c2.6-0.6,0.3-4.4,0.3-4.4c0.4,0.4,0.9,1.4,0.9,1.4c0.1-0.6-1.7-3.2-2.1-3.7c0.4,0.6,1.1,1,1.1,1
		c-2.9-2.5-6.3-16.4-6.3-16.4c0.1,0.4,0.6,0.6,0.6,0.6c-0.4-0.2-1.6-5.4-2.3-7.9c0-0.1,0.1-0.1,0.1-0.1c1,3,3.4,11.2,5.2,16.3
		c2.2,6.1,4.6,6.7,4.6,6.7c-2.4-1.2-4.1-6.1-4.1-6.1c1.8,4,2.8,4.3,2.8,4.3c-2.6-2.5-6.9-17.6-6.9-17.6c0.1,0.1,0.7,1.7,1.8,5
		c0.6,2,1.3,2.5,1.7,2.7c0.6,2.8,1.7,2.5,1.7,2.5c0.4,1.6,2.1,2.9,2.1,2.9c0.1,0.8,0.9,1,0.9,1c0.6,1.9,2.8,1.6,2.8,1.6
		c-1.6-0.4-1.4-2.1-1.4-2.1c0.1,1.3,1.5,1.3,1.5,1.3c-0.4-0.1-0.8-1.1-0.8-2.1c0-1-1.3-3.8-1.9-4.5c-0.6-0.7-1.1-1.8-1.1-1.8
		c0.6,0.7,1.4,0.9,1.4,0.9c-2.2-1-5.8-10.4-5.8-10.4c0.6,0.1,2.3,4.2,2.3,4.2c4.2,8,6.7,7.7,6.7,7.7c-2.3-0.3-4.5-4.7-4.5-4.7
		c1.1,1.8,2.2,2.9,2.7,3.3c-2.1-1.8-6.1-9.8-6.1-9.8c0.3,0.2,0.5,0.3,0.6,0.4c0.1,0.2,0.1,0.4,0.2,0.6c0.6,1.7,1.6,2.3,1.6,2.3
		c0.7,1.9,1.2,1.4,1.2,1.4c1,1.4,2.1,1,2.1,1c2.6,1.6,1.6-0.6,1.6-0.6c1.2-0.1-1.2-2.5-1.2-2.5c0.6,0.4,1.5,0.9,1.8,1.1
		C309.9,294.5,307.6,293.2,305.6,288.8 M288.3,288.8c-0.9-0.4-3.1-1.6-3.5-3c-0.6-0.2-6.4-2.1-6.6-2.1v32.2c0.7-0.4,2.8-1.5,5-3.5
		c3.4-3.2,5.2-6.9,5.2-11V288.8z M306.6,286.6c0.2,0.1,0.4,0.1,0.4,0.1C306.8,286.7,306.7,286.6,306.6,286.6 M249.7,286.6
		c-0.1,0.1-0.3,0.1-0.4,0.1C249.3,286.7,249.4,286.6,249.7,286.6 M308.6,300.9c0.2,0.1,0.4,0.2,0.4,0.2
		C308.8,301.1,308.6,301,308.6,300.9 M269.9,276.2c-0.4,0.2-0.6,0.6-0.6,1.1c0,0.4,0.2,0.8,0.6,1c-0.1,0.4-0.2,0.9-0.5,1.4h1.3
		l3.1,3.1l4.2-1.2l4.3,1.2l3.1-3.1h1.3c-0.2-0.5-0.4-0.9-0.4-1.4c0.4-0.2,0.6-0.6,0.6-1.1s-0.3-0.8-0.7-1.1c0.1-1,0.5-1.6,0.5-1.6
		l4.2-10.3c0,0-3.7,1.4-3.7,4.7c-0.3-0.5-0.8-0.9-1.6-1.3c0,0,1.3,1.1-0.2,3c-1.3,1.6,0.2,2.4,0.6,2.5l-0.5,0.5
		c-3.5,2.7-5.9-0.4-6.4-1.3c0.5,0,2.2-0.3,1.6-2.2c-0.7-2.3,1-2.8,1-2.8c-0.9,0.1-1.6,0.3-2.1,0.6c1.3-3-1.6-5.6-1.6-5.6
		s-3,2.6-1.6,5.7c-0.5-0.4-1.1-0.6-2.2-0.8c0,0,1.6,0.6,1,2.8c-0.6,2.1,1.4,2.2,1.6,2.3c-0.4,0.7-2.8,3.8-6.3,1.1l-0.5-0.5
		c0.4-0.2,1.9-1,0.6-2.5c-1.5-1.8-0.2-3-0.2-3c-0.8,0.4-1.3,0.8-1.6,1.3c0.1-3.3-3.7-4.7-3.7-4.7l4.2,10.3
		C269.4,274.6,269.7,275.2,269.9,276.2 M247.7,300.9c-0.1,0.1-0.2,0.2-0.3,0.2C247.4,301.2,247.5,301.1,247.7,300.9 M445.4,311.5
		c-2.1,0-3.7-0.6-4.9-2c-1.1-1.2-1.7-2.6-1.7-4.2c0-2.8,1.6-5.5,4.9-8l8,11.2C450,310.5,448,311.5,445.4,311.5 M443.3,277.6
		c0.8-0.7,1.8-1.1,2.9-1.1c2.8,0,4.2,1.3,4.2,4c0,1.8-1,3.5-3,5.2l-1.7,1.5l-1.1-1.6c-1.6-2.3-2.4-4-2.4-5.2
		S442.5,278.3,443.3,277.6 M467.1,295.3h-8.3c0,2.5-0.6,4.9-1.7,7.1l-7.1-9.6c5.5-3.8,8.3-7.9,8.3-12.2c0-2.9-1-5.2-2.9-7
		c-2.1-1.9-5.1-2.8-9-2.8c-3.6,0-6.5,0.9-8.8,2.7c-2.3,1.8-3.4,4.2-3.4,7.3c0,2.5,1.1,5.4,3.2,8.6l1.7,2.5c-6.4,4-9.6,8.5-9.6,13.6
		c0,3.5,0.9,6.4,2.8,8.8c2.5,3.3,6.4,4.8,11.8,4.8c5.1,0,8.9-1.6,11.5-4.6l2.7,3.6h10.2l-6.3-8.8
		C465.5,304.7,467.1,300.1,467.1,295.3"/>
</g>
</svg>
