<?xml version="1.0" encoding="utf-8"?>
<!-- Generator: Adobe Illustrator 17.1.0, SVG Export Plug-In . SVG Version: 6.00 Build 0)  -->
<!DOCTYPE svg PUBLIC "-//W3C//DTD SVG 1.1//EN" "http://www.w3.org/Graphics/SVG/1.1/DTD/svg11.dtd">
<svg version="1.1" id="Calque_1" xmlns="http://www.w3.org/2000/svg" xmlns:xlink="http://www.w3.org/1999/xlink" x="0px" y="0px"
	 viewBox="0 0 595.3 841.9" enable-background="new 0 0 595.3 841.9" xml:space="preserve">
<g>
	<g>
		<path fill="#1D1D1B" d="M196.3,488.3c-4.4,0-7.9-3.2-7.9-7.7c0-4.6,3.5-7.7,8-7.7c2.8,0,5,0.8,7,2.9l-0.9,1
			c-1.7-1.7-3.6-2.5-6-2.5c-3.8,0-6.8,2.4-6.8,6.3c0,3.7,3,6.3,6.7,6.3c2.4,0,4.4-1,6.2-2.6l0.9,1
			C201.4,487.2,199.1,488.3,196.3,488.3"/>
		<path fill="#1D1D1B" d="M219.1,474.3c-3.5,0-6.6,2.6-6.6,6.3c0,3.7,2.9,6.4,6.6,6.4c3.6,0,6.6-2.6,6.6-6.3
			C225.6,477,222.7,474.3,219.1,474.3 M219.1,488.3c-4.4,0-8-3.2-8-7.7c0-4.4,3.6-7.6,7.9-7.6c4.4,0,8,3.2,8,7.7
			C227,485.1,223.4,488.3,219.1,488.3"/>
		<path fill="#1D1D1B" d="M244.6,474.6h-7.2v5.7h6.5c1.3,0,2-0.1,2.5-0.4c0.8-0.5,1.1-1.5,1.1-2.4
			C247.6,475.6,246.6,474.6,244.6,474.6 M247.3,481c-0.7,0.6-2.1,0.7-3.3,0.7h-6.5v6.3h-1.4v-14.7h8.5c1.1,0,2,0.1,2.9,0.9
			c0.9,0.8,1.4,2.1,1.4,3.3C248.9,478.9,248.4,480.2,247.3,481"/>
	</g>
	<polygon fill="#1D1D1B" points="257.9,488 257.9,473.3 270,473.3 270,474.7 259.2,474.7 259.2,479.7 265.1,479.7 265.1,481.1 
		259.2,481.1 259.2,486.6 270.5,486.6 270.5,488 	"/>
	<polygon fill="#1D1D1B" points="291.2,488 280.8,475.4 280.8,488 279.5,488 279.5,473.3 280.8,473.3 291.2,485.8 291.2,473.3 
		292.5,473.3 292.5,488 	"/>
	<polygon fill="#1D1D1B" points="314.9,488 314.9,481 304.7,481 304.7,488 303.3,488 303.3,473.3 304.7,473.3 304.7,479.7 
		314.9,479.7 314.9,473.3 316.2,473.3 316.2,488 	"/>
	<path fill="#1D1D1B" d="M332.7,475l-3.1,6.4h6.2L332.7,475z M339,488l-2.6-5.2h-7.5l-2.6,5.2h-1.5l7.2-14.7h1.4l7.1,14.7H339z"/>
	<g>
		<path fill="#1D1D1B" d="M357.4,488c-0.8,0.2-1.7,0.3-2.5,0.3c-4.5,0-8.1-3.1-8.1-7.7c0-4.5,3.7-7.7,8.3-7.7c2.7,0,4.7,1,6.1,2.7
			l-0.9,1c-1.3-1.4-2.9-2.3-5.2-2.3c-4,0-6.9,2.9-6.9,6.3c0,3.9,3.1,6.3,6.9,6.3c0.7,0,1.3-0.1,2-0.2c1.2-0.3,3.2-1.2,3.2-2.7v-2.6
			H355v-1.3h6.6v3.9C361.6,486.3,359.3,487.6,357.4,488"/>
	</g>
	<polygon fill="#1D1D1B" points="371,488 371,473.3 383.2,473.3 383.2,474.7 372.4,474.7 372.4,479.7 378.3,479.7 378.3,481.1 
		372.4,481.1 372.4,486.6 383.6,486.6 383.6,488 	"/>
	<polygon fill="#1D1D1B" points="404.4,488 394,475.4 394,488 392.7,488 392.7,473.3 394,473.3 404.4,485.8 404.4,473.3 
		405.7,473.3 405.7,488 	"/>
	<g>
		<path fill="#1D1D1B" d="M52,390.6c0,0,0-2.2,0-3.4c0-0.5,0.2-1.8,0.4-2.4c0.1-0.6,0.9-1.4,1.9-2.2c0.4-0.3,1.5-1,1.8-0.8
			c0.3,0.2,0.8,1.6,0.8,2.5c0,0.7,0.3,3.2,0.4,3.4c0.2,1.1,0.8,1.3,1.3,1.2c0.4-0.1,7.1-4,7.9-4.3c0.8-0.4,5.3-2.5,6.5-2.8
			c1.2-0.3,3-0.3,3.5,0.4c0.4,0.7,0.8,1.2-0.1,2.9c-0.8,1.3-3.6,3.5-4.6,3.8c-0.9,0.4-2.5,1.3-3.3,1.6c-0.7,0.2-5.1,2.2-6.7,3
			c-1.6,0.8-4,3.3-4,4.7c-0.1,1.4-0.2,5.7-0.2,7.1c0,1.4,0.2,4.9,0,6c-0.2,1.1-1.1,2.4-2,3c-0.9,0.6-1.8,0.8-2.5,0.6
			c-0.7-0.2-1-0.9-1-2.4c0-1.5,0-8.1-0.1-10C52,400.6,52,392.7,52,390.6"/>
		<path fill="#1D1D1B" d="M115.6,408.7c-3.1,0.8-8.3,1.8-12-0.8c-1.5-1.1-4.4-3.7-2.5-7.6c1.6-3.2,3-3.7,3.7-4.2
			c0,0,2.5-1.5,3.7-1.8c1.1-0.3,7.1-3.3,10.8,2.5C122.6,402,122.3,406.9,115.6,408.7 M127.1,400.5c-1.1-2.2-5.7-10.2-7.6-11.6
			c-1.8-1.3-4.5-2-7-1.5c-2,0.4-9.1,2.5-13.1,6.6c-2.9,3-5.7,7.1-5.7,10.5c0,3.1,3.6,7.2,6.8,8.3c3.2,1.2,9.4,1.5,12.9,0.8
			c2.6-0.5,11.1-2.8,12.9-5.2C127.9,406.4,128.2,402.7,127.1,400.5"/>
		<path fill="#1D1D1B" d="M166.5,378.8c0,0-3.1-0.5-6.2,0.3c-3.1,0.8-5.8,3-6.3,4.1c-0.5,1.1-1.1,2.7-0.5,5.2c0.7,3,1.9,4.8,5.1,6.7
			c3.2,1.9,8,4.8,9.1,5.5c1.1,0.7,4,3.4,1.3,5.7c-1.7,1.5-6.7,3.1-8.2,3.2c-2.4,0.1-4.1-0.1-4.5,1.1c-0.3,1-0.2,3.1,3.2,3.3
			c4.2,0.2,10.9-1.2,13.9-4.2c1.9-2,3.8-4.7,2.4-7.7c-2.2-4.6-8.9-8-11.7-9.4c-2.8-1.4-5.7-3.7-4.8-6.8c0.5-1.8,1.7-3.5,4.5-3.9
			c2.1-0.3,4.9,0.7,4.9-1.5C168.8,379.6,167.8,379,166.5,378.8"/>
		<path fill="#1D1D1B" d="M210.1,393.4c0,0,0.1-1.3,1.3-2.6c1.2-1.2,2.9-1.9,5.4-1.8c3.4,0.2,6.1,0.8,7.7,3.3c0.7,1,1.2,2.6,0,2.6
			c-1.2,0-6.1,0.3-8.8,0C212.9,394.7,210.4,395.1,210.1,393.4 M228.1,408.9c-1.5,0.4-2.8,0.7-6.6,0.6c-6.3-0.1-8.7-3.9-9.9-6.4
			c-1-2-1.6-3.2-1.2-3.5c0.4-0.3,1.4-0.1,2.8-0.2c1.5-0.2,14.3-1,15.5-1.5c1.2-0.6,2.5-1.4,2-4.4c-0.5-3-4.7-5.9-6.7-7.1
			c-3.3-2-9.4-1.3-11.2-0.7c-2.8,1-6.4,3.3-8.3,7.4c-2.2,4.6,1.7,12.1,1.7,12.1c1.6,2.8,5.1,6.2,8.8,7.1s7.7,0.8,12.6,0.1
			C232.6,411.8,230.2,408.2,228.1,408.9"/>
		<path fill="#1D1D1B" d="M262.4,411.7c-0.9-2.5-0.8-3.4-1.9-7.2c-1.1-3.8-2.7-15-2.9-16.7c-0.4-3.1-0.9-7.8,0.1-9.7
			c0.5-1,2.3-1.4,2.9,1.5c1,4.7,1.5,8.5,1.8,11.2c0.2,2.6,1.1,5.7,1.8,6.8c0.7,1.2,2.1,4.6,4.1,0.8c0.6-1.1,5.2-7.8,6.2-9.2
			s7.4-9.4,10.4-4.1c3,5.3,4.9,13.3,8.3,12.5c3.4-0.8,14.1-7.7,16.2-8.2c2.1-0.5,4.2,0.3,6.4,5.3c2.2,5,6.9,16.5,7.3,17.3
			c0.3,0.7-1.8,3.5-3.7,0.7c-2.1-3-7.7-18.5-8.9-18.8c-1.8-0.3-5.3,2.5-8.5,4.6c-3.2,2.1-7.5,7.1-10.8,4.5
			c-3.2-2.6-7.5-9.7-9.2-11.2c-1.6-1.5-4-0.5-5.5,2.4c-1.5,2.9-7,14.9-8.1,16.6C266.4,414,263.6,415,262.4,411.7"/>
		<path fill="#1D1D1B" d="M345.3,388.4c-0.4-0.6-2.8-0.9-2.5,1c0.2,1.5,2.1,7,2.5,8.1c0.4,1.1,3.4,9.5,4.5,11.3
			c1.9,2.8,6.7,4.9,10.1,4.1s6.9-4.6,7.9-7.1c1-2.5,1.6-7,1.6-9.6s-1-7.7-1.7-9.2c-0.6-1.5-1.7-3.6-3-3c-1.8,0.7-1.4,2.5-0.8,5.1
			c0.6,2.6,2,16-3,18c-3.5,1.4-6.9,0.3-8.3-3.2C351.2,400.2,347,391.3,345.3,388.4"/>
		<path fill="#1D1D1B" d="M397.5,396.4c0-3.1,1-7.2,2.6-3.6c1.6,3.7,2.7,7,3.1,7c0.4,0,2.9-2.8,5.7-5.8c2.8-3.1,8.7-6.8,12-1.8
			c3.3,5,12.3,15.1,14.1,16.4c1.5,1.1,1.7,3.1,0.7,3.5c-1.9,0.8-4.8,0.1-6.8-2.2c-2-2.2-5.9-6.9-8.2-9c-1.8-1.5-3.4-4.1-6-3.5
			c-2.5,0.6-6.2,4.3-8.1,7c-1.2,1.8-3.3,6.5-3.9,7.7c-0.6,1.2-2.1,2.3-2.9,1c-0.8-1.3-1.7-8.3-2.4-14.6"/>
		<path fill="#1D1D1B" d="M480.6,403.2c-1.8,3.3-7.3,4.9-9.6,5.1c-2.3,0.2-3.1,0-5.4-2.2c-0.8-0.7-3.5-5.4-1.7-8.9
			c0.7-1.3,2.6-3.3,3.8-4.3c1.3-1,3.2-1.5,4.9-1.8c3-0.5,6.4-0.5,7.7,1.5C481.7,394.6,482.4,399.9,480.6,403.2 M488.8,406.7
			c-1-4.2-2.1-11.4-2.4-15c-0.7-8.5-1.2-18.5-1.4-22.2c-0.5-7.4-1.5-14.3-3.1-16.6c-0.7-0.9-3.6-0.9-3.4,2.6
			c0.1,2.5,1,12.4,1.4,17.6c0.3,4,0.3,10.7,0.3,10.7c-0.4,2.5-3.9,2.1-4.5,2.1c-0.9,0-8.1,0.6-11.4,2.9c-6.1,4.3-6.8,10.6-5.9,15.6
			c0.8,4.3,4.9,8.1,9.8,8.6c5,0.5,10.8-3.1,11.9-3.7l1.5-0.8c0,0,0.9,1.5,2.4,3.6c1.5,2.1,3.4,2,4.7,1
			C490.1,412.2,489.5,409.4,488.8,406.7"/>
		<path fill="#1D1D1B" d="M519.3,393.1c0,0,0-0.7,1.3-2c1.3-1.3,3.1-2.8,5.8-2.6c3.6,0.2,6.4,0.9,8.1,3.5c0.7,1.1,1.3,2.8,0,2.8
			c-1.3,0-6.4,0.3-9.2,0C522.3,394.5,519.6,394.9,519.3,393.1 M540.8,409.7c-2.8,0.3-4.7,0.4-9.6-0.2c-5.3-0.7-9-3.8-10.2-6.3
			c-1-2-1.4-3.7-1-3.9c0.5-0.2,1.4-0.1,2.8-0.2c1.5-0.2,14.3-1,15.5-1.5c1.2-0.6,2.5-1.4,2-4.4c-0.5-3-3.9-5.9-6.7-7.1
			c-3.5-1.5-9.4-1.3-11.2-0.7c-2.8,1-6.4,3.3-8.3,7.4c-2,4.3,0.3,9.7,1.7,12.1c1.7,2.9,6,5.9,8.8,7.1c3.3,1.4,9.1,1.9,14.9,0.7
			C543.8,411.8,541.6,409.6,540.8,409.7"/>
	</g>
</g>
</svg>
