<?xml version="1.0" encoding="utf-8"?>
<!-- Generator: Adobe Illustrator 17.1.0, SVG Export Plug-In . SVG Version: 6.00 Build 0)  -->
<!DOCTYPE svg PUBLIC "-//W3C//DTD SVG 1.1//EN" "http://www.w3.org/Graphics/SVG/1.1/DTD/svg11.dtd">
<svg version="1.1" id="Calque_1" xmlns="http://www.w3.org/2000/svg" xmlns:xlink="http://www.w3.org/1999/xlink" x="0px" y="0px"
	 viewBox="0 0 595.3 841.9" enable-background="new 0 0 595.3 841.9" xml:space="preserve">
<g>
	<path d="M477.3,427.8c4.2-0.4,6.7-2.1,6.7-4.9c0-2.7-3.1-4.8-9.1-4.8h-16.5v0.3c0.8,0,1,0.2,1,0.7v14.6c0,0.5-0.1,0.7-1,0.7v0.3
		h6.8v-0.3c-0.8,0-1-0.2-1-0.7v-6.1h7.1l6.3,6c0.3,0.3,0.4,0.4,0.4,0.6c0,0.1-0.1,0.2-0.5,0.2v0.3h7.6v-0.3c-0.7,0-1-0.2-1.5-0.7
		L477.3,427.8z M464.3,425v-4.2h10.4c2.5,0,4.5,0.6,4.5,2.1c0,1.5-2,2.1-4.5,2.1H464.3z"/>
	<path d="M54.6,423.2c0-1.4,2.3-2.5,7.6-2.5c5.6,0,8.8,1.6,8.8,1.9c0,0.1,0,0.2-0.1,0.3l0.6,0.2l2.6-3.4l-0.6-0.1
		c-0.1,0.1-0.2,0.2-0.6,0.2s-4.6-1.7-10.5-1.7c-6.6,0-12.7,1.6-12.7,5.4c0,7.6,19.9,2,19.9,6.5c0,1.2-2.1,2.4-8.3,2.4
		c-4.4,0-8.8-1-8.8-2.3c0-0.2,0.1-0.3,0.1-0.4l-0.5-0.2l-2.8,3.9l0.4,0.1c0.2-0.1,0.3-0.2,0.5-0.2c0.8,0,3.2,1.8,11.5,1.8
		c8.8,0,13.2-2.3,13.2-5.3C74.7,421.4,54.6,426.9,54.6,423.2z"/>
	<path d="M117.5,429.1c0.1,0.1,0.1,0.3,0.1,0.4c0,1-4.1,2.8-8.8,2.8c-5.9,0-10.7-1.6-10.7-5.8c0-4.2,4.9-5.8,10.3-5.8
		c4.3,0,8.4,1.5,8.4,2c0,0.1,0,0.2,0,0.4l0.5,0.2l3.4-3.6l-0.5-0.1c-0.2,0.3-0.4,0.3-0.8,0.3c-0.7,0-4.8-1.8-10.8-1.8
		c-8.4,0-15.4,3.2-15.4,8.5c0,6,7.6,8.5,15.2,8.5c8.6,0,11.3-2.7,12.3-2.7c0.1,0,0.3,0,0.4,0.1l0.3-0.1l-3.5-3.4L117.5,429.1z"/>
	<path d="M159.6,418.5c0.9,0,1,0.2,1,0.7v5.5h-15.4v-5.5c0-0.5,0.2-0.7,1-0.7v-0.3h-6.9v0.3c0.9,0,1,0.2,1,0.7v14.6
		c0,0.5-0.1,0.7-1,0.7v0.3h6.9v-0.3c-0.8,0-1-0.2-1-0.7v-6.3h15.4v6.3c0,0.5-0.1,0.7-1,0.7v0.3h6.9v-0.3c-0.8,0-1-0.2-1-0.7v-14.6
		c0-0.5,0.2-0.7,1-0.7v-0.3h-6.9V418.5z"/>
	<path d="M206,418.5c0.8,0,1,0.2,1,0.7v9.4c0,2.7-1.6,3.7-7.7,3.7c-6.2,0-7.7-1-7.7-3.7v-9.4c0-0.5,0.2-0.7,1-0.7v-0.3h-6.8v0.3
		c0.8,0,1,0.2,1,0.7v10c0,4.4,4.7,5.8,12.6,5.8s12.6-1.5,12.6-5.8v-10c0-0.5,0.1-0.7,1-0.7v-0.3h-7V418.5z"/>
	<path d="M253.3,418.5c0.6,0,0.9,0.1,0.9,0.3c0,0.2-0.2,0.4-0.4,0.6l-7.6,9.4l-6.9-8.8c-0.5-0.7-0.8-0.9-0.8-1.1
		c0-0.3,0.4-0.4,0.9-0.4v-0.3h-7.6v0.3c0.7,0,0.9,0.2,0.9,0.7v14.6c0,0.5-0.1,0.7-0.9,0.7v0.3h6.1v-0.3c-0.9,0-1-0.2-1-0.7l0.1-10.4
		l8.7,11.4h0.5l8.9-11.2v10.2c0,0.5-0.1,0.7-0.8,0.7v0.3h6.6v-0.3c-0.8,0-0.9-0.2-0.9-0.7v-14.6c0-0.5,0.1-0.7,0.9-0.7v-0.3h-7.6
		L253.3,418.5L253.3,418.5z"/>
	<path d="M347.2,429.1c0.1,0.1,0.1,0.3,0.1,0.4c0,1-4.1,2.8-8.8,2.8c-5.9,0-10.7-1.6-10.7-5.8c0-4.2,4.9-5.8,10.3-5.8
		c4.3,0,8.4,1.5,8.4,2c0,0.1,0,0.2,0,0.4l0.5,0.2l3.4-3.6l-0.5-0.1c-0.2,0.3-0.4,0.3-0.8,0.3c-0.7,0-4.8-1.8-10.8-1.8
		c-8.4,0-15.4,3.2-15.4,8.5c0,6,7.6,8.5,15.2,8.5c8.6,0,11.3-2.7,12.3-2.7c0.1,0,0.3,0,0.4,0.1l0.3-0.1l-3.5-3.4L347.2,429.1z"/>
	<path d="M389.4,418.5c0.9,0,1,0.2,1,0.7v5.5H375v-5.5c0-0.5,0.2-0.7,1-0.7v-0.3h-6.9v0.3c0.9,0,1,0.2,1,0.7v14.6
		c0,0.5-0.1,0.7-1,0.7v0.3h6.9v-0.3c-0.8,0-1-0.2-1-0.7v-6.3h15.4v6.3c0,0.5-0.1,0.7-1,0.7v0.3h6.8v-0.3c-0.8,0-1-0.2-1-0.7v-14.6
		c0-0.5,0.2-0.7,1-0.7v-0.3h-6.8V418.5z"/>
	<path d="M437.7,432.1H421v-4.5h10.8c0.8,0,1.2,0.2,1.2,0.5h0.5v-3.8H433c0,0.4-0.3,0.6-1.2,0.6H421v-4.1h16.5
		c0.8,0,1.2,0.2,1.2,0.6h0.5v-3.8h-0.5c0,0.3-0.3,0.5-1.2,0.5h-22.2v0.3c0.8,0,0.9,0.2,0.9,0.7v14.6c0,0.5-0.1,0.7-0.9,0.7v0.3h22.5
		c0.8,0,1.2,0.2,1.2,0.5h0.5v-3.7H439C438.9,431.9,438.6,432.1,437.7,432.1z"/>
	<path d="M305.2,433.6l-9.9-14.2c-0.2-0.2-0.3-0.4-0.3-0.6c0-0.2,0.2-0.3,0.7-0.3v-0.3h-7.5v0.3c0.4,0,0.7,0.2,0.7,0.4
		c0,0.2-0.2,0.5-0.4,0.7l-9.3,14c-0.5,0.7-0.7,0.8-1.3,0.9v0.3h6.1v-0.3c-0.3,0-0.5-0.1-0.5-0.3c0-0.3,0.5-0.7,2.5-3.7h11.7
		c2.3,3.3,2.6,3.6,2.6,3.8c0,0.1-0.2,0.2-0.6,0.2v0.3h6.8v-0.3C305.9,434.5,305.7,434.3,305.2,433.6z M287.7,427.8l4-6l4.1,6H287.7z
		"/>
	<rect x="526.1" y="384.2" width="19" height="50.6"/>
</g>
</svg>
