<?xml version="1.0" encoding="utf-8"?>
<!-- Generator: Adobe Illustrator 17.1.0, SVG Export Plug-In . SVG Version: 6.00 Build 0)  -->
<!DOCTYPE svg PUBLIC "-//W3C//DTD SVG 1.1//EN" "http://www.w3.org/Graphics/SVG/1.1/DTD/svg11.dtd">
<svg version="1.1" id="Calque_1" xmlns="http://www.w3.org/2000/svg" xmlns:xlink="http://www.w3.org/1999/xlink" x="0px" y="0px"
	 viewBox="0 0 595.3 841.9" enable-background="new 0 0 595.3 841.9" xml:space="preserve">
<g>
	<path fill="#1D1D1B" d="M97,528.6l-1.5-3.7h-6.2l-0.9,2.2c-0.2,0.6-0.3,1.2-0.3,1.8c0,0.6,0.2,1.1,0.6,1.5c0.4,0.4,0.9,0.7,1.5,0.7
		v0.7h-6V531c1.3-0.2,2.4-1.4,3.3-3.5L92,516c-0.2-0.4-0.5-0.7-0.7-0.8c-0.3-0.1-0.6-0.2-1.1-0.3v-0.6l3.1-1.1h1.2l6,15.4
		c0.3,0.9,0.7,1.5,1,1.8c0.3,0.3,0.9,0.5,1.6,0.7v0.7h-7.7V531c0.7-0.1,1.2-0.2,1.5-0.3c0.3-0.1,0.5-0.4,0.5-0.8
		C97.3,529.6,97.2,529.1,97,528.6z M85.6,531h2.5c-0.5-0.4-0.8-1-0.8-1.6c0-0.2,0-0.3,0-0.4c-0.2,0.4-0.5,0.8-0.7,1.1
		C86.4,530.4,86,530.7,85.6,531z M89.6,524h5.5l-2.8-7L89.6,524z M98.1,528.1l-4.6-11.8c-0.2-0.6-0.5-1-0.7-1.3
		c-0.2-0.2-0.6-0.4-1-0.4c-0.3,0-0.5,0-0.6,0.1c0.4,0.2,0.7,0.4,0.9,0.7c0.2,0.3,0.4,0.7,0.6,1.2l4.6,11.8c0.3,0.7,0.4,1.2,0.4,1.6
		c0,0.3,0,0.4-0.1,0.5c-0.1,0.1-0.3,0.3-0.6,0.5h0.3c0.4,0,0.7-0.1,0.9-0.3c0.2-0.2,0.3-0.5,0.3-0.8
		C98.6,529.5,98.4,528.9,98.1,528.1z"/>
	<path fill="#1D1D1B" d="M120,527.3l5.7-13.9h5.6v0.7c-0.9,0-1.5,0.1-1.8,0.3c-0.4,0.2-0.6,0.5-0.6,0.9c-0.1,0.4-0.1,1.2-0.1,2.2
		v11.3c0,0.6,0.1,1,0.2,1.3c0.2,0.3,0.4,0.5,0.7,0.6c0.3,0.1,0.9,0.2,1.6,0.2v0.7h-8.4V531c0.8,0,1.4-0.1,1.8-0.3
		c0.4-0.2,0.6-0.5,0.7-0.8c0.1-0.3,0.1-0.9,0.1-1.7v-12.6l-6.5,16h-0.8l-6.4-15.5v10.7c0,1.2,0.2,2.1,0.7,2.8
		c0.5,0.7,1.2,1.1,2.3,1.4v0.7h-6.6V531c0.9-0.1,1.6-0.5,2.1-1.1c0.5-0.6,0.8-1.5,0.8-2.6v-12.1c-0.4-0.4-0.8-0.7-1.3-0.9
		s-1-0.3-1.6-0.2v-0.7h5.9L120,527.3z M109.8,531h2.7c-0.3-0.2-0.6-0.4-0.8-0.7s-0.3-0.6-0.4-1c-0.1,0.4-0.3,0.7-0.6,0.9
		C110.5,530.6,110.2,530.8,109.8,531z M110.8,514.1h-0.5c0.5,0.2,1,0.5,1.3,0.9c0.3,0.4,0.6,0.9,0.9,1.7l6,14.3
		c0.2-0.3,0.3-0.6,0.3-0.9c0-0.2-0.1-0.6-0.3-1l-5.2-12.6c-0.3-0.8-0.7-1.4-1-1.8C112,514.3,111.4,514.1,110.8,514.1z M126.8,528.8
		v-12.6c0-1,0.1-1.7,0.2-2.1c-0.3,0-0.6,0.1-0.7,0.3c-0.1,0.2-0.2,0.4-0.3,0.7c0,0.3-0.1,0.8-0.1,1.4V529c0,0.6-0.1,1-0.2,1.3
		c-0.1,0.2-0.4,0.5-0.8,0.7h0.5c0.6,0,1-0.2,1.1-0.5C126.7,530.2,126.8,529.6,126.8,528.8z"/>
	<path fill="#1D1D1B" d="M138.2,525.2h0.9c0.5,1.4,1.1,2.5,1.7,3.5c0.7,0.9,1.4,1.6,2.2,2.1c0.8,0.5,1.6,0.7,2.5,0.7
		c1.1,0,2-0.3,2.8-1c0.8-0.7,1.2-1.5,1.2-2.6c0-1-0.3-1.8-0.8-2.3c-0.5-0.6-1.1-0.9-1.8-1.2c-0.7-0.2-1.6-0.4-2.8-0.6
		c-1.2-0.2-2-0.4-2.5-0.5c-0.8-0.3-1.4-0.6-1.9-1.1c-0.5-0.5-0.9-1-1.2-1.6c-0.3-0.6-0.4-1.3-0.4-2c0-0.7,0.1-1.4,0.4-2
		c0.2-0.6,0.6-1.2,1-1.7c0.4-0.5,1-0.9,1.6-1.2c0.6-0.3,1.3-0.4,2.1-0.4c0.6,0,1.3,0.1,2.1,0.2c0.8,0.2,1.4,0.2,1.8,0.2
		c0.5,0,0.9-0.1,1.3-0.3h1l0.6,5.4h-1c-0.8-1.6-1.7-2.8-2.7-3.7c-0.9-0.8-2-1.3-3.3-1.3c-0.6,0-1.2,0.1-1.7,0.4
		c-0.5,0.3-1,0.7-1.3,1.2c-0.3,0.5-0.5,1.1-0.5,1.7c0,0.9,0.3,1.5,0.9,2s1.5,0.8,2.6,1c1.2,0.2,2.2,0.4,3.1,0.6
		c0.9,0.2,1.6,0.4,2.2,0.6c1,0.5,1.8,1.2,2.3,2c0.5,0.9,0.8,1.8,0.8,2.9c0,1-0.3,2-0.8,2.9c-0.5,0.9-1.2,1.6-2.1,2.2
		c-0.9,0.5-1.9,0.8-3,0.8c-0.6,0-1.1,0-1.4-0.1c-0.3-0.1-0.9-0.3-1.7-0.6c-0.8-0.3-1.4-0.4-1.8-0.4c-0.7,0-1.2,0.3-1.7,0.8h-0.7
		L138.2,525.2L138.2,525.2z M138.6,516.8c-0.1,0.7-0.2,1.2-0.2,1.6c0,0.5,0.1,0.9,0.2,1.4c0.2,0.5,0.4,0.9,0.7,1.3
		c0.3,0.4,0.6,0.8,1,1c0.5,0.3,1.1,0.6,1.7,0.7c0.6,0.1,1.5,0.3,2.7,0.5c1.2,0.2,2,0.4,2.5,0.6c0.8,0.3,1.5,0.8,1.9,1.4
		c0.5,0.6,0.7,1.4,0.7,2.2c0,0.6-0.2,1.3-0.5,2c0.7-0.7,1.1-1.6,1.1-2.6c0-1-0.3-1.8-0.8-2.4c-0.5-0.6-1.2-1-2-1.3s-1.8-0.5-3.2-0.8
		c-1.3-0.2-2-0.4-2.1-0.4c-1.2-0.3-2.2-0.9-2.8-1.7c-0.6-0.8-1-1.7-1-2.7c0-0.2,0-0.3,0-0.5C138.6,517.1,138.6,516.9,138.6,516.8z
		 M138.6,527.6v3.5c0.3-0.3,0.5-0.5,0.7-0.6c0.2-0.1,0.5-0.1,1-0.1c-0.3-0.3-0.5-0.6-0.6-0.8c-0.1-0.2-0.3-0.4-0.5-0.7
		C139,528.5,138.9,528.1,138.6,527.6z M148.5,516.7l-0.4-2.5c-0.3,0.1-0.6,0.1-0.9,0.1c-0.3,0-0.7,0-1-0.1c0.3,0.2,0.6,0.5,0.9,0.8
		c0.3,0.3,0.5,0.6,0.8,1S148.4,516.6,148.5,516.7z"/>
	<path fill="#1D1D1B" d="M158.3,513.4h16.5l0.9,4.3h-0.9c-0.7-1.1-1.4-1.9-2.1-2.5c-0.7-0.5-1.4-0.8-2.1-0.9
		c-0.6-0.1-1.5-0.2-2.5-0.2v14.8c0,0.6,0.1,1,0.3,1.3c0.2,0.3,0.5,0.5,0.9,0.6s1,0.2,1.7,0.2v0.7h-9.1V531c0.8,0,1.3-0.1,1.7-0.2
		s0.7-0.3,0.9-0.6c0.2-0.3,0.3-0.8,0.3-1.5v-14.6c-0.9,0-1.8,0.1-2.4,0.3c-0.7,0.2-1.3,0.4-1.7,0.7c-0.5,0.3-0.9,0.6-1.2,1
		c-0.3,0.3-0.8,0.9-1.4,1.6h-0.8L158.3,513.4z M160.7,514.1h-2.1l-0.5,2.2c0.4-0.6,0.8-1,1.2-1.3C159.6,514.7,160,514.4,160.7,514.1
		z M166.1,528.5v-12.8c0-0.5-0.1-0.9-0.2-1.1c-0.1-0.3-0.3-0.4-0.7-0.4V529c0,0.5-0.1,1-0.2,1.3c-0.1,0.3-0.4,0.6-0.7,0.8h0.3
		c0.6,0,1-0.2,1.2-0.6C166,530.1,166.1,529.4,166.1,528.5z M174.3,516.2l-0.6-2.1h-2.4c0.7,0.2,1.2,0.5,1.7,0.8
		C173.3,515.3,173.8,515.7,174.3,516.2z"/>
	<path fill="#1D1D1B" d="M187.2,522.7v5.7c0,0.6,0,1.1,0.1,1.5c0.1,0.3,0.3,0.6,0.5,0.8c0.2,0.2,0.6,0.3,1,0.3
		c0.5,0,1.1,0.1,1.9,0.1c1,0,1.8-0.1,2.6-0.4c0.8-0.3,1.5-0.7,2.1-1.3c0.7-0.6,1.4-1.3,2.2-2.3h1l-1.6,4.7h-16V531
		c0.8,0,1.4-0.1,1.8-0.2c0.4-0.1,0.7-0.3,0.9-0.6c0.2-0.3,0.3-0.7,0.3-1.2v-12.9c0-0.6-0.1-1-0.2-1.3c-0.2-0.3-0.4-0.5-0.8-0.6
		c-0.4-0.1-1-0.2-1.8-0.2v-0.7h15.4l1.6,4.2h-0.9c-0.5-0.6-1.1-1.2-1.8-1.7c-0.7-0.5-1.5-0.9-2.4-1.2c-0.9-0.3-1.8-0.5-2.8-0.5
		c-0.8,0-1.4,0.1-1.8,0.3c-0.4,0.2-0.7,0.4-0.8,0.7s-0.2,0.7-0.2,1.2v5.7h2.6c2.3,0,3.4-1,3.5-3.1h0.9v6.9h-0.8
		c-0.1-1.1-0.4-1.8-0.9-2.3c-0.5-0.5-1.2-0.7-2.2-0.7h-3.4V522.7z M184.4,516.3v12.6c0,0.6-0.1,1.1-0.2,1.4
		c-0.1,0.3-0.4,0.5-0.7,0.7c0.7,0,1.2-0.2,1.4-0.6c0.2-0.4,0.3-1,0.3-1.8V516c0-0.7-0.1-1.2-0.4-1.5c-0.3-0.2-0.7-0.4-1.3-0.4
		c0.3,0.2,0.5,0.4,0.7,0.7C184.3,515.2,184.4,515.7,184.4,516.3z M193.1,523.5V521c-0.3,0.6-1,1-1.8,1.3c0.5,0.1,0.9,0.3,1.1,0.5
		C192.7,522.9,192.9,523.2,193.1,523.5z M195.2,514.1h-2.4c0.7,0.2,1.2,0.5,1.7,0.8c0.5,0.3,1,0.7,1.6,1.1L195.2,514.1z M195.8,531
		l0.9-2.3c-0.5,0.6-1,1-1.4,1.2c-0.4,0.3-1,0.6-1.8,1L195.8,531L195.8,531z"/>
	<path fill="#1D1D1B" d="M213.1,531.8h-9V531c0.8,0,1.5-0.1,1.9-0.2c0.4-0.1,0.7-0.3,0.8-0.6c0.2-0.3,0.2-0.8,0.2-1.4v-12.2
		c0-0.7-0.1-1.2-0.2-1.5c-0.1-0.3-0.4-0.6-0.8-0.7c-0.4-0.1-1.1-0.2-1.9-0.2v-0.7h10.3c1.3,0,2.4,0.2,3.4,0.7s1.7,1,2.2,1.8
		c0.5,0.7,0.7,1.5,0.7,2.4c0,0.6-0.1,1.1-0.3,1.7c-0.2,0.5-0.6,1-1,1.5c-0.4,0.4-0.9,0.8-1.5,1.1c-0.6,0.3-1.3,0.5-2.1,0.7
		c0.6,0.6,1.3,1.4,2.2,2.5l1.3,1.5c0.1,0.1,0.2,0.2,0.3,0.3s0.2,0.3,0.4,0.5c0.4,0.5,0.8,0.9,1.1,1.2c0.3,0.3,0.6,0.6,0.9,0.9
		c0.3,0.3,0.6,0.5,0.8,0.6c0.3,0.2,0.6,0.3,0.9,0.4v0.7H221c-0.6,0-1.1-0.1-1.6-0.4c-0.5-0.2-1-0.6-1.4-1c-0.5-0.5-1-1-1.6-1.8
		l-1.8-2.3c-0.8-1.1-1.5-1.8-1.9-2.3c-0.4-0.4-0.8-0.6-1.1-0.6h-1.4v5.5c0,0.5,0.1,1,0.2,1.3c0.1,0.3,0.4,0.5,0.9,0.7
		c0.2,0.1,0.6,0.1,0.9,0.2c0.4,0,0.6,0.1,0.8,0.1v0.4H213.1z M207.4,516.5v12.8c0,0.8-0.3,1.4-0.9,1.7c1.1,0,1.7-0.5,1.7-1.3v-13.1
		c0-0.7,0-1.2-0.1-1.5s-0.2-0.6-0.5-0.8c-0.3-0.2-0.7-0.2-1.2-0.2c0.5,0.2,0.7,0.5,0.9,0.8C207.3,515.2,207.4,515.8,207.4,516.5z
		 M210.2,516.8v5.9h2.1c0.7,0,1.4-0.1,2.1-0.3s1.2-0.5,1.6-0.9c0.7-0.7,1.1-1.7,1.1-3.1c0-1.6-0.6-2.8-1.7-3.6
		c-0.4-0.3-0.8-0.4-1.2-0.5s-1-0.1-1.6-0.1c-0.7,0-1.2,0.1-1.5,0.3c-0.3,0.2-0.6,0.4-0.7,0.8C210.2,515.6,210.2,516.1,210.2,516.8z
		 M213.6,523.3h-1.1c0.3,0.2,0.7,0.6,1.1,1.1c0.4,0.5,0.9,1.1,1.6,1.9c0.6,0.8,1.3,1.6,1.9,2.4c0.6,0.7,1.1,1.3,1.6,1.7
		s0.9,0.6,1.3,0.8c0.4,0.1,0.8,0.2,1.2,0.2c-0.5-0.3-1.1-0.6-1.6-1.1s-1-1-1.6-1.7c-0.6-0.7-1.2-1.4-1.8-2.2
		c-0.6-0.8-1.2-1.5-1.9-2.2c-0.1-0.1-0.2-0.3-0.3-0.4C214,523.6,213.8,523.5,213.6,523.3z M214.7,522.6c1.2-0.1,2.1-0.6,2.7-1.3
		s0.9-1.7,0.9-2.9c0-1.2-0.3-2.1-0.8-2.9c-0.6-0.7-1.3-1.1-2.4-1.3c0.8,0.4,1.4,0.9,1.8,1.6c0.4,0.7,0.6,1.6,0.6,2.7
		c0,1.2-0.2,2.1-0.7,2.7C216.3,521.7,215.6,522.2,214.7,522.6z"/>
	<path fill="#1D1D1B" d="M239.7,531.8h-10.3V531c0.7,0,1.3-0.1,1.6-0.2c0.4-0.1,0.6-0.3,0.8-0.6c0.2-0.3,0.2-0.7,0.2-1.3v-13.1
		c0-0.6-0.2-1.1-0.6-1.3c-0.4-0.2-1.1-0.4-2-0.4v-0.7h10.8c1.4,0,2.7,0.2,3.9,0.7s2.2,1.1,3,1.9c0.8,0.8,1.5,1.8,2,3
		c0.5,1.1,0.7,2.4,0.7,3.7s-0.2,2.5-0.7,3.6c-0.5,1.1-1.2,2.1-2,2.9c-0.9,0.8-1.9,1.4-3.2,1.9C242.5,531.5,241.2,531.8,239.7,531.8z
		 M233.3,529v-12c0-1-0.1-1.8-0.3-2.2c-0.2-0.4-0.7-0.6-1.5-0.6c0.4,0.2,0.6,0.4,0.7,0.7c0.1,0.3,0.2,0.7,0.2,1.3v12.5
		c0,0.5,0,1-0.1,1.3s-0.2,0.5-0.3,0.7c-0.1,0.2-0.3,0.3-0.5,0.4c0.7,0,1.1-0.2,1.4-0.5C233.2,530.3,233.3,529.7,233.3,529z
		 M235.3,517.9v10.5c0,0.8,0.1,1.3,0.2,1.6c0.1,0.3,0.4,0.6,0.7,0.8c0.4,0.2,1,0.3,1.9,0.3s1.8-0.1,2.5-0.3c0.7-0.2,1.5-0.5,2.1-1
		c0.8-0.6,1.4-1.2,1.9-1.9c0.5-0.7,0.8-1.4,1-2.3c0.2-0.8,0.3-1.8,0.3-2.8c0-3.1-0.9-5.4-2.7-7c-0.7-0.6-1.5-1.1-2.4-1.3
		c-0.9-0.3-1.9-0.4-3.1-0.4c-0.8,0-1.4,0.1-1.7,0.4c-0.3,0.2-0.5,0.6-0.6,1C235.4,515.9,235.3,516.7,235.3,517.9z M241.4,531
		c1.1-0.1,2.1-0.5,3-1.1c0.9-0.6,1.6-1.6,2.1-2.8c0.5-1.2,0.8-2.6,0.8-4.3c0-1.2-0.1-2.3-0.4-3.3c-0.2-1-0.6-1.9-1.1-2.6
		s-1.1-1.3-1.7-1.8c-0.4-0.3-0.8-0.5-1.2-0.6s-0.9-0.3-1.4-0.3c3.3,1.3,5,4.2,5,8.7c0,1.3-0.2,2.5-0.5,3.6c-0.4,1-0.9,1.9-1.6,2.7
		C243.5,530,242.5,530.6,241.4,531z"/>
	<path fill="#1D1D1B" d="M268,528.6l-1.5-3.7h-6.2l-0.9,2.2c-0.2,0.6-0.3,1.2-0.3,1.8c0,0.6,0.2,1.1,0.6,1.5
		c0.4,0.4,0.9,0.7,1.5,0.7v0.7h-6V531c1.3-0.2,2.4-1.4,3.3-3.5L263,516c-0.2-0.4-0.5-0.7-0.7-0.8c-0.3-0.1-0.6-0.2-1.1-0.3v-0.6
		l3.1-1.1h1.2l6,15.4c0.3,0.9,0.7,1.5,1,1.8s0.9,0.5,1.6,0.7v0.7h-7.7V531c0.7-0.1,1.2-0.2,1.5-0.3s0.5-0.4,0.5-0.8
		C268.4,529.6,268.3,529.1,268,528.6z M256.7,531h2.5c-0.5-0.4-0.8-1-0.8-1.6c0-0.2,0-0.3,0-0.4c-0.2,0.4-0.5,0.8-0.7,1.1
		C257.4,530.4,257.1,530.7,256.7,531z M260.7,524h5.5l-2.8-7L260.7,524z M269.2,528.1l-4.6-11.8c-0.2-0.6-0.5-1-0.7-1.3
		c-0.2-0.2-0.6-0.4-1-0.4c-0.3,0-0.5,0-0.6,0.1c0.4,0.2,0.7,0.4,0.9,0.7c0.2,0.3,0.4,0.7,0.6,1.2l4.6,11.8c0.3,0.7,0.4,1.2,0.4,1.6
		c0,0.3,0,0.4-0.1,0.5s-0.3,0.3-0.6,0.5h0.3c0.4,0,0.7-0.1,0.9-0.3c0.2-0.2,0.3-0.5,0.3-0.8C269.7,529.5,269.5,528.9,269.2,528.1z"
		/>
	<path fill="#1D1D1B" d="M291.1,527.3l5.7-13.9h5.6v0.7c-0.9,0-1.5,0.1-1.8,0.3c-0.4,0.2-0.6,0.5-0.6,0.9c-0.1,0.4-0.1,1.2-0.1,2.2
		v11.3c0,0.6,0.1,1,0.2,1.3c0.2,0.3,0.4,0.5,0.7,0.6c0.3,0.1,0.9,0.2,1.6,0.2v0.7H294V531c0.8,0,1.4-0.1,1.8-0.3
		c0.4-0.2,0.6-0.5,0.7-0.8c0.1-0.3,0.1-0.9,0.1-1.7v-12.6l-6.5,16h-0.8l-6.4-15.5v10.7c0,1.2,0.2,2.1,0.7,2.8
		c0.5,0.7,1.2,1.1,2.3,1.4v0.7h-6.6V531c0.9-0.1,1.6-0.5,2.1-1.1c0.5-0.6,0.8-1.5,0.8-2.6v-12.1c-0.4-0.4-0.8-0.7-1.3-0.9
		c-0.5-0.2-1-0.3-1.6-0.2v-0.7h5.9L291.1,527.3z M280.8,531h2.7c-0.3-0.2-0.6-0.4-0.8-0.7c-0.2-0.3-0.3-0.6-0.4-1
		c-0.1,0.4-0.3,0.7-0.6,0.9C281.6,530.6,281.2,530.8,280.8,531z M281.8,514.1h-0.5c0.5,0.2,1,0.5,1.3,0.9c0.3,0.4,0.6,0.9,0.9,1.7
		l6,14.3c0.2-0.3,0.3-0.6,0.3-0.9c0-0.2-0.1-0.6-0.3-1l-5.2-12.6c-0.3-0.8-0.7-1.4-1-1.8C283,514.3,282.5,514.1,281.8,514.1z
		 M297.8,528.8v-12.6c0-1,0.1-1.7,0.2-2.1c-0.3,0-0.6,0.1-0.7,0.3s-0.2,0.4-0.3,0.7c0,0.3-0.1,0.8-0.1,1.4V529c0,0.6-0.1,1-0.2,1.3
		c-0.1,0.2-0.4,0.5-0.8,0.7h0.5c0.6,0,1-0.2,1.1-0.5C297.8,530.2,297.8,529.6,297.8,528.8z"/>
	<path fill="#1D1D1B" d="M335.6,513.2h1.1v5.8h-0.8c-0.4-0.8-0.8-1.6-1.3-2.2c-0.5-0.6-1-1.2-1.5-1.6c-0.5-0.4-1.1-0.8-1.7-1
		c-0.6-0.2-1.2-0.3-1.9-0.3c-0.9,0-1.7,0.2-2.5,0.6c-0.7,0.4-1.4,1-1.9,1.7c-0.5,0.8-0.9,1.7-1.2,2.7c-0.3,1.1-0.4,2.2-0.4,3.4
		c0,1.7,0.3,3.2,0.9,4.6c0.6,1.3,1.4,2.4,2.4,3.1c1,0.7,2.2,1.1,3.5,1.1c0.8,0,1.6-0.1,2.3-0.4c0.7-0.3,1.5-0.7,2.2-1.2
		c0.7-0.5,1.3-1.2,1.9-2l0.8,0.4c-1,1.4-2.2,2.5-3.5,3.2c-1.4,0.7-2.9,1.1-4.7,1.1c-1.4,0-2.7-0.2-3.8-0.7c-1.2-0.5-2.2-1.2-3-2
		c-0.9-0.9-1.5-1.9-2-3c-0.5-1.2-0.7-2.4-0.7-3.7c0-1.4,0.2-2.7,0.7-3.9c0.5-1.2,1.2-2.2,2-3.1c0.9-0.9,1.9-1.5,3-2
		c1.2-0.5,2.4-0.7,3.7-0.7c0.5,0,0.9,0,1.4,0.1c0.4,0.1,0.9,0.2,1.5,0.3c0.6,0.2,1,0.3,1.2,0.3s0.4,0.1,0.7,0.1
		C334.6,513.9,335.1,513.6,335.6,513.2z M326.5,513.7c-1.3,0.5-2.4,1.1-3.3,1.8c-0.5,0.4-0.9,0.9-1.3,1.4c-0.4,0.5-0.7,1.1-1,1.7
		c-0.3,0.6-0.5,1.2-0.6,1.9c-0.1,0.7-0.2,1.3-0.2,2c0,1.6,0.3,3,1,4.3c0.6,1.3,1.6,2.4,2.9,3.3c1.3,0.9,2.8,1.4,4.6,1.6
		c-1.2-0.3-2.2-0.8-3.2-1.3c-0.9-0.6-1.8-1.3-2.4-2.1c-0.7-0.8-1.2-1.7-1.5-2.7c-0.3-1-0.5-2-0.5-3c0-0.9,0.1-1.8,0.4-2.7
		c0.3-1,0.7-1.8,1.2-2.5c0.6-0.8,1.2-1.5,1.8-2C324.9,514.8,325.6,514.3,326.5,513.7z M335.1,516.4l-0.1-2.2
		c-0.4,0.2-0.8,0.3-1.3,0.3c-0.2,0-0.4,0-0.6-0.1c0.4,0.3,0.8,0.7,1.1,1C334.5,515.7,334.8,516.1,335.1,516.4z"/>
	<path fill="#1D1D1B" d="M343.3,522.5c0-0.8,0.1-1.5,0.2-2.2c0.1-0.7,0.4-1.4,0.7-2c0.3-0.6,0.6-1.2,1.1-1.8c0.4-0.6,0.9-1,1.4-1.5
		c0.6-0.5,1.2-0.8,1.8-1.1c0.7-0.3,1.4-0.5,2.1-0.6c0.8-0.1,1.6-0.2,2.4-0.2c1.5,0,2.8,0.2,4,0.7s2.2,1.2,3.1,2.1
		c0.8,0.9,1.5,1.9,1.9,3c0.5,1.1,0.7,2.3,0.7,3.6c0,1.4-0.2,2.6-0.7,3.8c-0.5,1.2-1.2,2.2-2.1,3.1c-0.9,0.9-2,1.6-3.2,2
		c-1.2,0.5-2.6,0.7-4,0.7c-1.3,0-2.6-0.2-3.7-0.7c-1.2-0.5-2.2-1.1-3-2c-0.8-0.9-1.5-1.9-1.9-3.1
		C343.5,525.2,343.3,523.9,343.3,522.5z M348.1,514.5c-1.4,0.9-2.5,2-3.3,3.4c-0.7,1.4-1.1,2.9-1.1,4.7c0,1.4,0.2,2.7,0.7,3.9
		s1.2,2.2,2.1,3c0.9,0.8,2.1,1.5,3.5,2c-1.7-0.9-3.1-2.1-4.1-3.6s-1.5-3.4-1.5-5.6c0-1.1,0.1-2.1,0.4-3c0.3-0.9,0.7-1.7,1.2-2.5
		C346.6,516,347.3,515.3,348.1,514.5z M346.9,521.1c0,1.5,0.2,2.9,0.5,4.2c0.3,1.3,0.8,2.4,1.3,3.3c0.6,0.9,1.3,1.6,2.1,2.1
		c0.8,0.5,1.7,0.7,2.6,0.7c0.8,0,1.5-0.2,2.2-0.5c0.7-0.3,1.3-0.8,1.8-1.5c0.5-0.7,0.9-1.5,1.2-2.5c0.3-1,0.4-2.1,0.4-3.4
		c0-1.4-0.2-2.7-0.5-3.9c-0.3-1.2-0.8-2.2-1.4-3.1c-0.6-0.8-1.3-1.5-2.1-2c-0.8-0.5-1.7-0.7-2.6-0.7c-0.8,0-1.5,0.2-2.2,0.5
		c-0.7,0.4-1.3,0.8-1.8,1.5c-0.5,0.6-0.9,1.4-1.1,2.3C347,519,346.9,520,346.9,521.1z M354.9,514c1,0.5,1.8,1.2,2.5,2.2
		c0.7,0.9,1.2,2,1.6,3.3c0.3,1.3,0.5,2.7,0.5,4.2c0,1.4-0.2,2.7-0.6,3.8c-0.4,1.1-1,2-1.7,2.8c0.7-0.5,1.3-1.1,1.8-1.8
		c0.5-0.7,0.8-1.5,1-2.3c0.2-0.9,0.3-1.8,0.3-2.9c0-1.6-0.2-3-0.6-4.3c-0.4-1.3-1.1-2.4-1.9-3.2C357,514.7,356,514.2,354.9,514z"/>
	<path fill="#1D1D1B" d="M371.6,526.2v-9.9c0-0.6-0.1-1.1-0.3-1.4c-0.2-0.3-0.5-0.5-0.8-0.5c-0.4-0.1-1-0.1-1.8-0.2v-0.7h8.8v0.7
		c-0.7,0-1.2,0.1-1.6,0.2c-0.3,0.1-0.6,0.3-0.8,0.5c-0.2,0.3-0.3,0.7-0.3,1.3v10.3c0,1,0.2,1.8,0.6,2.5c0.4,0.7,1,1.2,1.8,1.6
		c0.8,0.4,1.7,0.5,2.8,0.5c1.1,0,2.1-0.2,2.9-0.6c0.8-0.4,1.5-1,1.9-1.8c0.5-0.8,0.7-1.8,0.7-3v-6c0-1.4-0.1-2.4-0.3-3.2
		c-0.2-0.8-0.5-1.3-1-1.7c-0.5-0.4-1.1-0.6-2-0.6v-0.7h6.7v0.7c-0.8,0.1-1.3,0.4-1.7,0.8c-0.4,0.4-0.6,1-0.8,1.7
		c-0.1,0.7-0.2,1.6-0.2,2.6v6.7c0,0.9-0.2,1.8-0.5,2.5c-0.3,0.8-0.8,1.4-1.5,2c-0.6,0.5-1.4,1-2.3,1.2c-0.9,0.3-2,0.4-3.1,0.4
		c-2.8,0-4.9-0.8-6.2-2.4c-0.4-0.5-0.7-1-0.9-1.6C371.6,527.6,371.6,526.9,371.6,526.2z M372.8,526.2v-10.4c0-1.3-0.6-1.9-1.8-1.7
		c0.7,0.3,1,0.9,1,1.9v10.4c0,1.5,0.4,2.6,1.3,3.5c0.9,0.8,2.2,1.4,3.9,1.8c-0.7-0.3-1.2-0.6-1.7-0.8c-0.5-0.3-0.9-0.6-1.3-1
		c-0.4-0.4-0.7-0.9-1-1.5C373,527.7,372.8,527,372.8,526.2z M386.8,514.1h-2.7c0.8,0.4,1.3,1,1.5,2.1c0.1-0.5,0.2-0.9,0.4-1.2
		C386.2,514.6,386.4,514.3,386.8,514.1z"/>
	<path fill="#1D1D1B" d="M395.3,513.4h16.5l0.9,4.3h-0.9c-0.7-1.1-1.4-1.9-2.1-2.5c-0.7-0.5-1.4-0.8-2.1-0.9
		c-0.6-0.1-1.5-0.2-2.5-0.2v14.8c0,0.6,0.1,1,0.3,1.3c0.2,0.3,0.5,0.5,0.9,0.6s1,0.2,1.7,0.2v0.7h-9V531c0.8,0,1.3-0.1,1.7-0.2
		c0.4-0.1,0.7-0.3,0.9-0.6c0.2-0.3,0.3-0.8,0.3-1.5v-14.6c-0.9,0-1.8,0.1-2.4,0.3c-0.7,0.2-1.3,0.4-1.7,0.7c-0.5,0.3-0.9,0.6-1.2,1
		c-0.3,0.3-0.8,0.9-1.4,1.6h-0.8L395.3,513.4z M397.7,514.1h-2.1l-0.5,2.2c0.4-0.6,0.8-1,1.2-1.3
		C396.6,514.7,397.1,514.4,397.7,514.1z M403.2,528.5v-12.8c0-0.5-0.1-0.9-0.2-1.1c-0.1-0.3-0.3-0.4-0.7-0.4V529
		c0,0.5-0.1,1-0.2,1.3s-0.4,0.6-0.7,0.8h0.3c0.6,0,1-0.2,1.2-0.6C403.1,530.1,403.2,529.4,403.2,528.5z M411.3,516.2l-0.6-2.1h-2.4
		c0.7,0.2,1.2,0.5,1.7,0.8C410.4,515.3,410.8,515.7,411.3,516.2z"/>
	<path fill="#1D1D1B" d="M421.1,526.2v-9.9c0-0.6-0.1-1.1-0.3-1.4c-0.2-0.3-0.5-0.5-0.8-0.5c-0.4-0.1-1-0.1-1.8-0.2v-0.7h8.8v0.7
		c-0.7,0-1.2,0.1-1.6,0.2c-0.3,0.1-0.6,0.3-0.8,0.5c-0.2,0.3-0.3,0.7-0.3,1.3v10.3c0,1,0.2,1.8,0.6,2.5c0.4,0.7,1,1.2,1.8,1.6
		c0.8,0.4,1.7,0.5,2.8,0.5s2.1-0.2,2.9-0.6c0.8-0.4,1.5-1,1.9-1.8c0.5-0.8,0.7-1.8,0.7-3v-6c0-1.4-0.1-2.4-0.3-3.2
		c-0.2-0.8-0.5-1.3-1-1.7c-0.5-0.4-1.1-0.6-2-0.6v-0.7h6.7v0.7c-0.8,0.1-1.3,0.4-1.7,0.8c-0.4,0.4-0.6,1-0.8,1.7
		c-0.1,0.7-0.2,1.6-0.2,2.6v6.7c0,0.9-0.2,1.8-0.5,2.5c-0.3,0.8-0.8,1.4-1.5,2c-0.7,0.5-1.4,1-2.4,1.2c-0.9,0.3-2,0.4-3.1,0.4
		c-2.8,0-4.9-0.8-6.2-2.4c-0.4-0.5-0.7-1-0.9-1.6C421.2,527.6,421.1,526.9,421.1,526.2z M422.4,526.2v-10.4c0-1.3-0.6-1.9-1.8-1.7
		c0.7,0.3,1,0.9,1,1.9v10.4c0,1.5,0.4,2.6,1.3,3.5c0.9,0.8,2.2,1.4,3.9,1.8c-0.7-0.3-1.2-0.6-1.7-0.8c-0.5-0.3-0.9-0.6-1.3-1
		c-0.4-0.4-0.7-0.9-1-1.5C422.5,527.7,422.4,527,422.4,526.2z M436.3,514.1h-2.7c0.8,0.4,1.3,1,1.5,2.1c0.1-0.5,0.2-0.9,0.4-1.2
		C435.7,514.6,436,514.3,436.3,514.1z"/>
	<path fill="#1D1D1B" d="M453.2,531.8h-9V531c0.8,0,1.5-0.1,1.9-0.2c0.4-0.1,0.7-0.3,0.8-0.6c0.2-0.3,0.2-0.8,0.2-1.4v-12.2
		c0-0.7-0.1-1.2-0.2-1.5c-0.1-0.3-0.4-0.6-0.8-0.7c-0.4-0.1-1.1-0.2-1.9-0.2v-0.7h10.3c1.3,0,2.4,0.2,3.4,0.7s1.7,1,2.2,1.8
		c0.5,0.7,0.7,1.5,0.7,2.4c0,0.6-0.1,1.1-0.3,1.7c-0.2,0.5-0.5,1-1,1.5c-0.4,0.4-0.9,0.8-1.5,1.1c-0.6,0.3-1.3,0.5-2.1,0.7
		c0.6,0.6,1.3,1.4,2.2,2.5l1.3,1.5c0.1,0.1,0.2,0.2,0.3,0.3c0.1,0.1,0.2,0.3,0.4,0.5c0.4,0.5,0.8,0.9,1.1,1.2
		c0.3,0.3,0.6,0.6,0.9,0.9c0.3,0.3,0.6,0.5,0.8,0.6c0.3,0.2,0.6,0.3,0.9,0.4v0.7h-2.4c-0.6,0-1.1-0.1-1.6-0.4c-0.5-0.2-1-0.6-1.4-1
		c-0.5-0.5-1-1-1.6-1.8l-1.8-2.3c-0.8-1.1-1.5-1.8-1.9-2.3c-0.4-0.4-0.8-0.6-1.1-0.6h-1.4v5.5c0,0.5,0.1,1,0.2,1.3s0.4,0.5,0.9,0.7
		c0.3,0.1,0.6,0.1,0.9,0.2c0.4,0,0.6,0.1,0.8,0.1v0.4H453.2z M447.5,516.5v12.8c0,0.8-0.3,1.4-0.9,1.7c1.1,0,1.7-0.5,1.7-1.3v-13.1
		c0-0.7,0-1.2-0.1-1.5s-0.2-0.6-0.5-0.8c-0.3-0.2-0.7-0.2-1.2-0.2c0.5,0.2,0.7,0.5,0.9,0.8C447.4,515.2,447.5,515.8,447.5,516.5z
		 M450.3,516.8v5.9h2.1c0.7,0,1.4-0.1,2.1-0.3s1.2-0.5,1.6-0.9c0.7-0.7,1.1-1.7,1.1-3.1c0-1.6-0.5-2.8-1.7-3.6
		c-0.4-0.3-0.8-0.4-1.2-0.5c-0.4-0.1-1-0.1-1.6-0.1c-0.7,0-1.2,0.1-1.5,0.3c-0.3,0.2-0.6,0.4-0.7,0.8
		C450.4,515.6,450.3,516.1,450.3,516.8z M453.7,523.3h-1.1c0.3,0.2,0.7,0.6,1.1,1.1s0.9,1.1,1.6,1.9c0.6,0.8,1.3,1.6,1.9,2.4
		c0.6,0.7,1.1,1.3,1.6,1.7c0.5,0.4,0.9,0.6,1.3,0.8c0.4,0.1,0.8,0.2,1.2,0.2c-0.5-0.3-1.1-0.6-1.6-1.1c-0.5-0.5-1-1-1.6-1.7
		c-0.6-0.7-1.2-1.4-1.8-2.2c-0.6-0.8-1.2-1.5-1.9-2.2c-0.1-0.1-0.2-0.3-0.3-0.4C454.1,523.6,453.9,523.5,453.7,523.3z M454.8,522.6
		c1.2-0.1,2.1-0.6,2.7-1.3c0.6-0.7,0.9-1.7,0.9-2.9c0-1.2-0.3-2.1-0.8-2.9c-0.6-0.7-1.3-1.1-2.4-1.3c0.8,0.4,1.4,0.9,1.7,1.6
		c0.4,0.7,0.6,1.6,0.6,2.7c0,1.2-0.2,2.1-0.7,2.7C456.4,521.7,455.8,522.2,454.8,522.6z"/>
	<path fill="#1D1D1B" d="M474.9,522.7v5.7c0,0.6,0,1.1,0.1,1.5c0.1,0.3,0.3,0.6,0.5,0.8s0.6,0.3,1,0.3c0.5,0,1.1,0.1,1.9,0.1
		c1,0,1.8-0.1,2.6-0.4c0.8-0.3,1.5-0.7,2.1-1.3c0.7-0.6,1.4-1.3,2.2-2.3h1l-1.6,4.7h-16V531c0.8,0,1.4-0.1,1.8-0.2
		c0.4-0.1,0.7-0.3,0.9-0.6s0.3-0.7,0.3-1.2v-12.9c0-0.6-0.1-1-0.2-1.3c-0.2-0.3-0.4-0.5-0.8-0.6c-0.4-0.1-1-0.2-1.8-0.2v-0.7h15.4
		l1.6,4.2H485c-0.5-0.6-1.1-1.2-1.8-1.7c-0.7-0.5-1.5-0.9-2.4-1.2c-0.9-0.3-1.8-0.5-2.8-0.5c-0.8,0-1.4,0.1-1.8,0.3
		c-0.4,0.2-0.7,0.4-0.8,0.7c-0.1,0.3-0.2,0.7-0.2,1.2v5.7h2.6c2.3,0,3.4-1,3.5-3.1h0.9v6.9h-0.8c-0.1-1.1-0.4-1.8-0.9-2.3
		c-0.5-0.5-1.2-0.7-2.2-0.7h-3.4V522.7z M472.1,516.3v12.6c0,0.6-0.1,1.1-0.2,1.4c-0.1,0.3-0.4,0.5-0.7,0.7c0.7,0,1.2-0.2,1.4-0.6
		c0.2-0.4,0.3-1,0.3-1.8V516c0-0.7-0.1-1.2-0.4-1.5c-0.3-0.2-0.7-0.4-1.3-0.4c0.3,0.2,0.5,0.4,0.7,0.7
		C472,515.2,472.1,515.7,472.1,516.3z M480.8,523.5V521c-0.3,0.6-1,1-1.8,1.3c0.5,0.1,0.9,0.3,1.1,0.5
		C480.4,522.9,480.6,523.2,480.8,523.5z M482.9,514.1h-2.4c0.6,0.2,1.2,0.5,1.7,0.8c0.5,0.3,1,0.7,1.6,1.1L482.9,514.1z M483.5,531
		l0.9-2.3c-0.5,0.6-1,1-1.4,1.2c-0.4,0.3-1,0.6-1.8,1L483.5,531L483.5,531z"/>
</g>
<g>
	<path fill="#1D1D1B" d="M467.5,482.6c2.2-0.2,4.2-1,5.9-2.3c1.7-1.3,3.1-3.1,4.1-5.5c1-2.4,1.5-5.2,1.5-8.5c0-2.4-0.2-4.5-0.7-6.5
		c-0.5-1.9-1.2-3.7-2.1-5.1c-0.9-1.5-2.1-2.6-3.4-3.5c-0.8-0.5-1.6-0.9-2.5-1.2c-0.9-0.3-1.8-0.5-2.8-0.7c6.6,2.6,9.8,8.3,9.8,17.2
		c0,2.7-0.3,5-1.1,7.1c-0.7,2.1-1.8,3.8-3.2,5.3C471.5,480.5,469.7,481.7,467.5,482.6z M455.5,456.6v20.7c0,1.5,0.1,2.6,0.3,3.3
		c0.2,0.7,0.7,1.2,1.5,1.5c0.8,0.3,2,0.5,3.8,0.5c1.9,0,3.5-0.2,5-0.6c1.5-0.4,2.9-1.1,4.2-2c1.6-1.1,2.8-2.3,3.7-3.6
		c0.9-1.3,1.5-2.8,1.9-4.5c0.4-1.7,0.6-3.5,0.6-5.6c0-6.1-1.8-10.7-5.4-13.7c-1.4-1.2-3-2.1-4.7-2.6c-1.7-0.5-3.8-0.8-6.1-0.8
		c-1.6,0-2.7,0.2-3.4,0.7c-0.6,0.5-1,1.1-1.2,2C455.5,452.8,455.5,454.4,455.5,456.6z M451.5,478.6v-23.7c0-2-0.2-3.5-0.6-4.3
		c-0.4-0.8-1.4-1.3-2.9-1.3c0.7,0.4,1.2,0.8,1.4,1.4c0.2,0.5,0.4,1.4,0.4,2.5V478c0,1.1-0.1,1.9-0.2,2.5c-0.1,0.6-0.3,1.1-0.5,1.4
		s-0.6,0.6-1.1,0.8c1.3,0,2.2-0.3,2.7-0.9C451.3,481.1,451.5,480,451.5,478.6z M464.1,484h-20.4v-1.4c1.4-0.1,2.5-0.2,3.2-0.4
		c0.7-0.2,1.2-0.6,1.5-1.2c0.3-0.6,0.5-1.4,0.5-2.6v-25.8c0-1.3-0.4-2.1-1.2-2.6c-0.8-0.4-2.2-0.7-4-0.8v-1.4H465
		c2.8,0,5.3,0.5,7.6,1.4s4.3,2.2,6,3.9c1.7,1.6,3,3.6,3.9,5.9c0.9,2.3,1.4,4.7,1.4,7.3c0,2.5-0.5,4.9-1.4,7.1
		c-0.9,2.2-2.3,4.1-4,5.7s-3.8,2.9-6.3,3.7C469.7,483.6,467,484,464.1,484z M421.1,448.9c1.9,1,3.6,2.4,4.9,4.3
		c1.4,1.8,2.4,4,3.1,6.5c0.7,2.5,1,5.3,1,8.3c0,2.9-0.4,5.3-1.2,7.4c-0.8,2.1-1.9,3.9-3.3,5.5c1.4-1.1,2.6-2.3,3.5-3.6
		c0.9-1.4,1.6-2.9,2-4.6c0.4-1.7,0.6-3.6,0.6-5.8c0-3.1-0.4-5.9-1.3-8.5c-0.8-2.6-2.1-4.7-3.7-6.4
		C425.2,450.5,423.3,449.4,421.1,448.9z M407.7,450c-2.8,1.7-5,4-6.5,6.7c-1.5,2.7-2.2,5.8-2.2,9.2c0,2.8,0.5,5.4,1.4,7.8
		c1,2.3,2.4,4.3,4.2,6c1.9,1.7,4.2,2.9,6.9,3.9c-3.4-1.7-6-4.1-8-7.1s-3-6.7-3-11c0-2.2,0.3-4.1,0.8-5.9c0.5-1.8,1.3-3.4,2.4-4.9
		C404.8,453,406.1,451.5,407.7,450z M405.3,463.1c0,3,0.3,5.7,0.9,8.2c0.6,2.5,1.5,4.7,2.6,6.5s2.5,3.2,4.1,4.1s3.3,1.4,5.1,1.4
		c1.5,0,3-0.3,4.4-1c1.4-0.7,2.6-1.7,3.6-3c1-1.3,1.8-2.9,2.4-4.9c0.6-1.9,0.9-4.2,0.9-6.8c0-2.8-0.3-5.4-1-7.8
		c-0.7-2.4-1.6-4.4-2.7-6.1c-1.2-1.7-2.5-3-4.1-3.9c-1.6-0.9-3.3-1.4-5.1-1.4c-1.6,0-3,0.3-4.4,1c-1.4,0.7-2.5,1.7-3.5,3
		c-1,1.3-1.7,2.8-2.3,4.6C405.5,458.9,405.3,460.9,405.3,463.1z M398.2,465.8c0-1.5,0.1-3,0.4-4.4c0.3-1.4,0.7-2.7,1.3-4
		c0.6-1.3,1.3-2.4,2.1-3.5c0.9-1.1,1.8-2.1,2.8-2.9c1.1-0.9,2.3-1.7,3.6-2.2c1.3-0.6,2.7-1,4.2-1.3c1.5-0.3,3.1-0.4,4.8-0.4
		c2.9,0,5.5,0.5,7.9,1.5c2.4,1,4.4,2.3,6.1,4.1c1.7,1.7,3,3.7,3.9,6c0.9,2.2,1.3,4.6,1.3,7.1c0,2.7-0.5,5.2-1.5,7.5
		c-1,2.3-2.4,4.3-4.2,6.1c-1.8,1.7-3.9,3.1-6.3,4s-5,1.4-7.9,1.4c-2.6,0-5.1-0.5-7.4-1.4c-2.3-0.9-4.3-2.3-5.9-3.9
		c-1.6-1.7-2.9-3.7-3.8-6C398.6,471,398.2,468.5,398.2,465.8z M364.3,454.6c-0.3,1.3-0.4,2.4-0.4,3.2c0,0.9,0.2,1.8,0.5,2.7
		c0.3,0.9,0.8,1.8,1.4,2.6c0.6,0.8,1.3,1.5,2,2c1,0.7,2.1,1.2,3.3,1.5s3,0.6,5.3,1c2.3,0.4,4,0.8,4.9,1.1c1.6,0.6,2.9,1.5,3.8,2.8
		c0.9,1.2,1.4,2.7,1.4,4.3c0,1.2-0.4,2.5-1.1,3.9c1.4-1.5,2.1-3.2,2.1-5.1c0-2-0.5-3.6-1.6-4.7c-1-1.2-2.3-2-3.9-2.6
		c-1.5-0.6-3.6-1.1-6.3-1.5l-4.1-0.7c-2.4-0.6-4.3-1.7-5.5-3.3c-1.3-1.6-1.9-3.4-1.9-5.4c0-0.4,0-0.7,0-1
		C364.3,455,364.3,454.8,364.3,454.6z M364.3,475.8v6.9c0.5-0.6,0.9-1.1,1.4-1.3c0.4-0.2,1.1-0.3,2-0.2l-1.2-1.5
		c-0.2-0.3-0.5-0.8-0.9-1.4C365.1,477.6,364.7,476.8,364.3,475.8z M383.7,454.4l-0.9-4.9c-0.6,0.2-1.1,0.3-1.7,0.3
		c-0.6,0-1.3-0.1-2-0.3c0.7,0.4,1.3,0.9,1.8,1.5c0.5,0.5,1.1,1.2,1.6,2C383.1,453.7,383.5,454.2,383.7,454.4z M363.5,471h1.7
		c0.9,2.7,2.1,5,3.4,6.8c1.3,1.8,2.8,3.2,4.3,4.1c1.6,0.9,3.2,1.3,4.9,1.3c2.1,0,4-0.7,5.5-2c1.5-1.3,2.3-3,2.3-5.1
		c0-2-0.5-3.5-1.5-4.5c-1-1.1-2.2-1.9-3.6-2.3c-1.4-0.4-3.3-0.9-5.5-1.2c-2.3-0.4-3.9-0.7-4.9-1.1c-1.5-0.5-2.8-1.2-3.8-2.1
		s-1.8-2-2.4-3.2c-0.5-1.3-0.8-2.6-0.8-4.1c0-1.4,0.2-2.7,0.7-4c0.5-1.3,1.2-2.4,2-3.4c0.9-1,1.9-1.7,3.2-2.3
		c1.3-0.6,2.7-0.8,4.2-0.8c1.1,0,2.5,0.2,4.1,0.5c1.6,0.3,2.8,0.5,3.5,0.5c0.9,0,1.8-0.2,2.6-0.6h2l1.1,10.6h-1.8
		c-1.7-3.1-3.4-5.5-5.3-7.2c-1.8-1.7-4-2.5-6.5-2.5c-1.2,0-2.4,0.3-3.4,0.9c-1.1,0.6-1.9,1.4-2.6,2.4c-0.6,1-0.9,2.1-0.9,3.3
		c0,1.7,0.6,3,1.7,3.9c1.2,0.9,2.9,1.6,5.2,2.1c2.3,0.5,4.3,0.9,6.1,1.2c1.8,0.3,3.3,0.7,4.3,1.3c2,1,3.5,2.3,4.5,4
		c1.1,1.7,1.6,3.6,1.6,5.8c0,2.1-0.5,4-1.5,5.8s-2.4,3.2-4.2,4.3c-1.8,1.1-3.8,1.6-6,1.6c-1.2,0-2.2-0.1-2.8-0.3
		c-0.6-0.2-1.7-0.6-3.3-1.1c-1.5-0.5-2.7-0.8-3.5-0.8c-1.4,0-2.5,0.5-3.3,1.6h-1.5V471H363.5z M325.2,483.7c-2.6-0.3-4.7-1.3-6.4-3
		c-1.6-1.6-2.4-3.7-2.4-6.1c0-1,0.1-1.8,0.3-2.3c0.2-0.6,0.6-1.5,1.2-2.6c-0.9,1-1.7,1.9-2.2,2.9c-0.5,0.9-0.8,2.1-0.8,3.4
		c0,1.5,0.4,2.9,1.2,4.1c0.8,1.2,1.8,2.2,3.1,2.9c1.3,0.7,2.5,1,3.9,1C323.6,483.8,324.4,483.8,325.2,483.7z M334,477.7
		c-0.4-0.5-1-1.5-1.8-2.7c-0.9-1.3-1.6-2.4-2.3-3.3c-0.7-0.9-1.5-2-2.5-3.2c-1-1.2-2-2.4-3-3.5c-1.7,1.4-2.9,2.7-3.6,3.9
		c-0.7,1.1-1.1,2.4-1.1,3.7c0,1.4,0.4,2.7,1.1,4c0.8,1.3,1.7,2.3,3,3.1c1.2,0.8,2.5,1.2,3.9,1.2C329.9,480.9,332.1,479.8,334,477.7z
		 M346.7,482.1c-0.9,0.4-1.8,0.6-2.6,0.6c-1.3,0-2.5-0.4-3.5-1.1c-1-0.8-1.9-1.6-2.6-2.6s-2.1-2.9-4.1-5.9c-1.5-2.2-2.9-4.1-4.2-5.6
		c-1.3-1.6-2.8-3.3-4.4-5.2c-1.7-1.9-2.8-3.3-3.4-4.3c-0.6-1-0.9-1.9-0.9-2.8c0-0.4,0.2-1,0.6-1.9c-1,1.3-1.6,2.5-1.6,3.5
		c0,0.8,0.3,1.7,0.9,2.6c0.6,0.9,1.8,2.4,3.4,4.3c1.7,1.9,3.1,3.6,4.4,5.2c1.3,1.5,2.6,3.4,4,5.4c1,1.6,1.9,2.9,2.7,4
		c0.8,1.1,1.5,2.1,2.2,2.9c0.7,0.8,1.5,1.5,2.3,1.9c0.8,0.5,1.7,0.7,2.6,0.7C344,483.8,345.4,483.3,346.7,482.1z M328.1,459.9
		c2.1-1.5,3.1-2.8,3.1-4c0-0.6-0.3-1.3-0.8-2.2c-0.5-0.9-1.2-1.6-2-2.3c-0.8-0.6-1.5-1-2.2-1c-0.8,0-1.5,0.3-2.1,1
		c-0.6,0.6-0.9,1.3-0.9,1.9c0,0.5,0.1,1,0.4,1.4c0.3,0.5,0.7,1,1.2,1.7c0.6,0.6,1.1,1.2,1.6,1.7
		C326.9,458.7,327.5,459.3,328.1,459.9z M331.9,456.5c0.7-0.8,1.1-1.7,1.1-2.5c0-0.7-0.3-1.5-0.8-2.2c-0.5-0.7-1.2-1.4-1.9-1.8
		c-0.8-0.5-1.5-0.7-2.2-0.7c-0.4,0-1.1,0.2-2,0.5c1.1,0.1,2,0.5,3,1.2c0.9,0.7,1.6,1.6,2.2,2.5c0.5,0.9,0.8,1.6,0.8,2.1
		c0,0.2,0,0.3,0,0.3v0.2L331.9,456.5z M346.2,462.1h-5.3c1.2,0.6,1.8,1.6,1.8,2.9c0,0.1,0,0.2-0.1,0.4c0,0.1-0.1,0.3-0.1,0.4
		C343.5,464.2,344.7,463,346.2,462.1z M323.1,484.7c-1.7,0-3.3-0.4-4.6-1.2c-1.4-0.8-2.4-1.9-3.2-3.3c-0.8-1.4-1.2-2.8-1.2-4.3
		c0-1.1,0.2-2.1,0.6-3.1c0.4-1,0.9-1.9,1.6-2.7c0.7-0.8,1.6-1.8,2.7-2.8c1.5-1.4,2.9-2.6,4.4-3.6c-2.8-3.1-4.2-5.5-4.2-7.2
		c0-0.8,0.3-1.8,1-2.9c0.7-1.1,1.6-2.1,2.7-3.2c1.1-1,2.3-1.9,3.5-2.5c1.2-0.6,2.4-1,3.4-1c0.9,0,1.8,0.2,2.5,0.6
		c0.8,0.4,1.4,0.9,2,1.6c0.5,0.6,1,1.3,1.3,2.1c0.3,0.7,0.5,1.4,0.5,2c0,0.9-0.3,1.8-0.9,2.6c-0.6,0.8-1.3,1.6-2,2.2
		c-0.8,0.6-2,1.6-3.9,3c2,2.2,3.7,4.3,5.1,6.3c1.4,1.9,2.7,3.7,3.7,5.3c1.3-1.6,2.2-3.1,2.9-4.4c0.6-1.3,1-2.3,1-3.1
		c0-0.8-0.4-1.5-1.1-2.1c-0.7-0.6-1.6-0.9-2.8-0.9v-1.4h12.4v1.4c-1.3,0.2-2.5,0.7-3.6,1.7s-2.2,2.2-3.3,3.7
		c-1.1,1.5-2.6,3.7-4.4,6.4l1.6,2.4c1.1,1.7,2,2.8,2.6,3.4c0.6,0.6,1.3,0.8,2.1,0.8c1.3,0,2.6-1,3.7-3.1l1.3,0.6
		c-0.6,1.5-1.3,2.8-2.1,3.8s-1.7,1.7-2.6,2.2c-0.9,0.5-1.9,0.7-3,0.7c-1.3,0-2.7-0.5-4-1.6c-1.3-1-2.5-2.5-3.5-4.2
		c-1.8,1.8-3.8,3.3-5.9,4.3C326.9,484.2,324.9,484.7,323.1,484.7z M514.1,477.7l-2.9-7.3h-12.1l-1.7,4.4c-0.4,1.1-0.7,2.3-0.7,3.5
		c0,1.1,0.4,2.2,1.1,3c0.7,0.9,1.8,1.3,3.1,1.4v1.4H489v-1.4c2.7-0.4,4.8-2.7,6.4-6.9l8.9-22.8c-0.5-0.8-0.9-1.3-1.5-1.6
		c-0.5-0.3-1.3-0.5-2.3-0.6v-1.3l6.2-2.1h2.4l11.9,30.3c0.7,1.7,1.4,2.9,2.1,3.5c0.7,0.6,1.7,1.1,3.1,1.4v1.4h-15.3v-1.4
		c1.3-0.1,2.3-0.3,3-0.6c0.7-0.3,1-0.8,1-1.6C514.9,479.7,514.6,478.8,514.1,477.7z M499.7,468.7h10.9l-5.5-13.8L499.7,468.7z
		 M516.5,476.8l-9.2-23.2c-0.4-1.2-0.9-2-1.4-2.5c-0.5-0.5-1.1-0.7-2-0.7c-0.5,0-0.9,0-1.2,0.1c0.8,0.3,1.4,0.8,1.9,1.4
		c0.4,0.6,0.8,1.4,1.2,2.3l9.1,23.2c0.6,1.4,0.8,2.4,0.8,3.2c0,0.5-0.1,0.9-0.3,1.1s-0.6,0.5-1.1,1h0.6c0.8,0,1.4-0.2,1.8-0.6
		c0.4-0.4,0.7-0.9,0.7-1.5C517.4,479.6,517.1,478.4,516.5,476.8z M491.7,482.6h4.9c-1.1-0.8-1.6-1.9-1.6-3.2c0-0.4,0-0.6,0.1-0.8
		c-0.5,0.9-0.9,1.6-1.4,2.2C493.2,481.4,492.6,482,491.7,482.6z"/>
</g>
<g>
	<path fill="#1D1D1B" d="M51.2,471h1.7c0.9,2.7,2.1,5,3.4,6.8c1.3,1.8,2.8,3.2,4.3,4.1c1.6,0.9,3.2,1.3,4.9,1.3c2.1,0,4-0.7,5.5-2
		c1.5-1.3,2.3-3,2.3-5.1c0-1.9-0.5-3.5-1.5-4.5c-1-1.1-2.2-1.8-3.6-2.3c-1.4-0.4-3.2-0.8-5.5-1.2c-2.3-0.4-3.9-0.7-4.9-1.1
		c-1.5-0.5-2.8-1.2-3.8-2.1s-1.8-2-2.4-3.2c-0.5-1.3-0.8-2.6-0.8-4c0-1.4,0.2-2.7,0.7-3.9c0.5-1.3,1.2-2.4,2-3.4
		c0.9-1,1.9-1.7,3.2-2.3c1.3-0.6,2.7-0.8,4.2-0.8c1.1,0,2.5,0.2,4.1,0.5c1.6,0.3,2.8,0.5,3.5,0.5c0.9,0,1.8-0.2,2.6-0.6H73l1.1,10.5
		h-1.8c-1.7-3.1-3.4-5.5-5.3-7.2c-1.8-1.6-4-2.5-6.5-2.5c-1.2,0-2.4,0.3-3.4,0.9c-1.1,0.6-1.9,1.4-2.5,2.4c-0.6,1-1,2.1-1,3.3
		c0,1.7,0.6,3,1.7,3.9c1.2,0.9,2.9,1.6,5.2,2.1c2.3,0.5,4.3,0.9,6.1,1.2c1.8,0.3,3.2,0.7,4.3,1.3c1.9,1,3.5,2.3,4.5,4
		c1.1,1.7,1.6,3.6,1.6,5.7c0,2.1-0.5,4-1.5,5.7c-1,1.8-2.4,3.2-4.2,4.3c-1.8,1.1-3.8,1.6-6,1.6c-1.2,0-2.2-0.1-2.8-0.3
		c-0.6-0.2-1.7-0.6-3.3-1.1c-1.5-0.5-2.7-0.8-3.5-0.8c-1.4,0-2.5,0.5-3.3,1.6h-1.5V471H51.2z M52,454.7c-0.3,1.3-0.4,2.4-0.4,3.2
		c0,0.9,0.2,1.8,0.5,2.7c0.3,0.9,0.8,1.8,1.4,2.6c0.6,0.8,1.3,1.5,2,2c1,0.7,2.1,1.2,3.3,1.5c1.2,0.3,3,0.6,5.3,1
		c2.3,0.4,3.9,0.8,4.8,1.1c1.6,0.6,2.9,1.5,3.8,2.7c0.9,1.2,1.4,2.7,1.4,4.3c0,1.2-0.4,2.5-1.1,3.9c1.4-1.5,2.1-3.2,2.1-5.1
		c0-2-0.5-3.6-1.5-4.8c-1-1.1-2.3-2-3.8-2.6c-1.5-0.6-3.6-1.1-6.3-1.5c-2.6-0.5-4-0.7-4.1-0.7c-2.4-0.6-4.3-1.7-5.5-3.3
		c-1.3-1.6-1.9-3.3-1.9-5.4c0-0.4,0-0.7,0-0.9C52,455.1,52,454.9,52,454.7z M52,475.8v6.8c0.5-0.6,1-1.1,1.4-1.3
		c0.4-0.2,1.1-0.3,1.9-0.2c-0.6-0.7-1-1.2-1.2-1.5c-0.2-0.3-0.6-0.8-0.9-1.4C52.8,477.7,52.5,476.8,52,475.8z M71.4,454.5l-0.8-4.9
		c-0.6,0.2-1.1,0.3-1.7,0.3c-0.6,0-1.3-0.1-2-0.3c0.7,0.4,1.3,0.9,1.8,1.5c0.5,0.5,1.1,1.2,1.6,2C70.8,453.8,71.2,454.3,71.4,454.5z
		"/>
	<path fill="#1D1D1B" d="M117.8,447.4h2.1v11.3h-1.6c-0.8-1.7-1.7-3.1-2.6-4.4c-0.9-1.3-1.9-2.3-3-3.2c-1-0.8-2.1-1.5-3.3-1.9
		c-1.1-0.4-2.4-0.6-3.7-0.6c-1.8,0-3.4,0.4-4.8,1.2c-1.4,0.8-2.7,1.9-3.7,3.4c-1,1.5-1.8,3.3-2.4,5.4c-0.6,2.1-0.9,4.4-0.9,6.8
		c0,3.4,0.6,6.4,1.7,9s2.7,4.7,4.7,6.1c2,1.5,4.3,2.2,6.9,2.2c1.6,0,3.1-0.3,4.6-0.8c1.5-0.5,2.9-1.3,4.2-2.4c1.3-1.1,2.6-2.4,3.8-4
		l1.5,0.8c-1.9,2.8-4.2,4.9-6.9,6.3c-2.7,1.4-5.8,2.1-9.3,2.1c-2.7,0-5.3-0.5-7.6-1.4c-2.3-1-4.3-2.3-6-4c-1.7-1.7-3-3.7-3.9-6
		c-0.9-2.3-1.3-4.7-1.3-7.2c0-2.7,0.5-5.3,1.5-7.6c1-2.4,2.3-4.4,4-6.1c1.7-1.7,3.7-3,6-3.9c2.3-0.9,4.7-1.4,7.2-1.4
		c1,0,1.8,0.1,2.7,0.2c0.8,0.1,1.8,0.4,3,0.7c1.1,0.3,1.9,0.5,2.3,0.6c0.4,0.1,0.9,0.1,1.4,0.1C115.8,448.9,116.9,448.4,117.8,447.4
		z M99.9,448.5c-2.6,1-4.8,2.2-6.5,3.6c-1,0.8-1.8,1.7-2.6,2.8c-0.8,1-1.4,2.1-1.9,3.3c-0.5,1.2-0.9,2.4-1.2,3.8
		c-0.3,1.3-0.4,2.6-0.4,3.9c0,3.1,0.6,5.9,1.9,8.5c1.3,2.6,3.2,4.8,5.7,6.5s5.5,2.8,9,3.2c-2.3-0.6-4.3-1.5-6.2-2.6
		c-1.9-1.2-3.5-2.6-4.8-4.2s-2.3-3.4-2.9-5.3c-0.7-1.9-1-3.9-1-6c0-1.7,0.3-3.5,0.8-5.4c0.6-1.9,1.4-3.5,2.4-5c1.2-1.7,2.3-3,3.5-4
		C96.8,450.6,98.2,449.6,99.9,448.5z M116.8,453.9l-0.2-4.4c-0.8,0.4-1.6,0.5-2.5,0.5c-0.4,0-0.8,0-1.2-0.1c0.9,0.7,1.6,1.3,2.2,1.9
		C115.7,452.5,116.2,453.2,116.8,453.9z"/>
	<path fill="#1D1D1B" d="M129.2,465.8c0-1.5,0.1-3,0.4-4.4c0.3-1.4,0.7-2.7,1.3-3.9c0.6-1.2,1.3-2.4,2.1-3.5
		c0.9-1.1,1.8-2.1,2.8-2.9c1.1-0.9,2.3-1.6,3.6-2.2c1.3-0.6,2.7-1,4.2-1.3c1.5-0.3,3.1-0.4,4.8-0.4c2.9,0,5.5,0.5,7.9,1.5
		c2.4,1,4.4,2.3,6.1,4s2.9,3.7,3.8,6c0.9,2.2,1.3,4.6,1.3,7.1c0,2.7-0.5,5.2-1.5,7.5c-1,2.3-2.4,4.3-4.2,6s-3.9,3.1-6.3,4
		c-2.4,0.9-5,1.4-7.8,1.4c-2.6,0-5.1-0.5-7.4-1.4c-2.3-0.9-4.3-2.2-5.9-3.9c-1.6-1.7-2.9-3.7-3.8-6
		C129.6,471.1,129.2,468.6,129.2,465.8z M138.7,450.1c-2.8,1.7-5,4-6.5,6.7c-1.5,2.7-2.2,5.8-2.2,9.2c0,2.8,0.5,5.4,1.4,7.7
		c1,2.3,2.4,4.3,4.2,6c1.9,1.7,4.2,2.9,6.9,3.9c-3.3-1.7-6-4.1-8-7c-2-3-3-6.7-3-11c0-2.2,0.3-4.1,0.8-5.9c0.5-1.7,1.3-3.4,2.4-4.9
		C135.8,453.1,137.1,451.6,138.7,450.1z M136.3,463.1c0,3,0.3,5.7,0.9,8.2c0.6,2.5,1.5,4.6,2.6,6.4c1.1,1.8,2.5,3.2,4.1,4.1
		c1.6,1,3.2,1.4,5.1,1.4c1.5,0,3-0.3,4.4-1c1.4-0.7,2.6-1.6,3.6-3c1-1.3,1.8-2.9,2.4-4.9c0.6-1.9,0.9-4.2,0.9-6.7
		c0-2.8-0.3-5.4-1-7.8c-0.7-2.4-1.6-4.4-2.7-6.1c-1.2-1.7-2.5-3-4.1-3.9c-1.6-0.9-3.3-1.4-5.1-1.4c-1.6,0-3,0.3-4.4,1
		c-1.4,0.7-2.5,1.7-3.5,2.9c-1,1.3-1.7,2.8-2.3,4.6C136.5,459,136.3,460.9,136.3,463.1z M152,449c1.9,1,3.6,2.4,4.9,4.2
		c1.4,1.8,2.4,4,3.1,6.5c0.7,2.5,1,5.3,1,8.3c0,2.9-0.4,5.3-1.2,7.4s-1.9,3.9-3.3,5.5c1.4-1.1,2.6-2.3,3.5-3.6
		c0.9-1.3,1.6-2.9,2-4.6s0.6-3.6,0.6-5.8c0-3.1-0.4-5.9-1.3-8.4c-0.8-2.6-2.1-4.7-3.7-6.4C156.1,450.6,154.2,449.5,152,449z"/>
	<path fill="#1D1D1B" d="M177,447.9h32.6l1.8,8.5h-1.8c-1.3-2.2-2.7-3.8-4.1-4.8c-1.4-1-2.8-1.6-4.1-1.8c-1.3-0.2-2.9-0.3-5-0.4
		v29.1c0,1.1,0.2,2,0.5,2.6c0.4,0.6,0.9,1,1.8,1.2c0.8,0.2,2,0.4,3.4,0.4v1.4h-18v-1.4c1.5,0,2.6-0.1,3.4-0.3
		c0.8-0.2,1.4-0.6,1.8-1.2c0.4-0.6,0.6-1.6,0.6-2.9v-28.8c-1.8,0-3.5,0.2-4.8,0.6c-1.4,0.3-2.5,0.8-3.4,1.4
		c-0.9,0.6-1.7,1.2-2.3,1.9c-0.6,0.7-1.5,1.7-2.7,3.2h-1.6L177,447.9z M181.7,449.3h-4.2l-1,4.4c0.9-1.1,1.6-2,2.3-2.5
		C179.5,450.6,180.5,450,181.7,449.3z M192.5,477.5v-25.2c0-1-0.1-1.7-0.3-2.2c-0.2-0.5-0.7-0.8-1.3-0.8v29.1c0,1.1-0.1,1.9-0.4,2.5
		c-0.3,0.6-0.7,1.2-1.4,1.7h0.6c1.2,0,2-0.4,2.4-1.2C192.3,480.7,192.5,479.4,192.5,477.5z M208.5,453.4l-1.2-4.1h-4.8
		c1.3,0.4,2.4,0.9,3.3,1.6C206.6,451.6,207.6,452.4,208.5,453.4z"/>
	<path fill="#1D1D1B" d="M250.6,447.4h2.1v11.3h-1.6c-0.8-1.7-1.7-3.1-2.6-4.4c-0.9-1.3-1.9-2.3-3-3.2c-1-0.8-2.1-1.5-3.3-1.9
		c-1.1-0.4-2.4-0.6-3.7-0.6c-1.8,0-3.4,0.4-4.8,1.2c-1.5,0.8-2.7,1.9-3.7,3.4c-1,1.5-1.8,3.3-2.4,5.4c-0.6,2.1-0.9,4.4-0.9,6.8
		c0,3.4,0.6,6.4,1.7,9s2.7,4.7,4.7,6.1c2,1.5,4.3,2.2,6.9,2.2c1.6,0,3.1-0.3,4.6-0.8s2.9-1.3,4.2-2.4c1.3-1.1,2.6-2.4,3.8-4l1.5,0.8
		c-1.9,2.8-4.2,4.9-6.9,6.3c-2.7,1.4-5.8,2.1-9.3,2.1c-2.7,0-5.3-0.5-7.6-1.4c-2.3-1-4.3-2.3-6-4c-1.7-1.7-3-3.7-3.9-6
		c-0.9-2.3-1.3-4.7-1.3-7.2c0-2.7,0.5-5.3,1.5-7.6c1-2.4,2.3-4.4,4-6.1c1.7-1.7,3.7-3,6-3.9s4.7-1.4,7.2-1.4c1,0,1.8,0.1,2.7,0.2
		c0.8,0.1,1.8,0.4,3,0.7c1.1,0.3,1.9,0.5,2.3,0.6c0.4,0.1,0.9,0.1,1.4,0.1C248.6,448.9,249.8,448.4,250.6,447.4z M232.7,448.5
		c-2.6,1-4.8,2.2-6.5,3.6c-1,0.8-1.8,1.7-2.6,2.8c-0.8,1-1.4,2.1-1.9,3.3c-0.5,1.2-0.9,2.4-1.2,3.8c-0.3,1.3-0.4,2.6-0.4,3.9
		c0,3.1,0.6,5.9,1.9,8.5s3.2,4.8,5.7,6.5c2.5,1.7,5.5,2.8,9,3.2c-2.3-0.6-4.3-1.5-6.2-2.6c-1.9-1.2-3.5-2.6-4.8-4.2
		c-1.3-1.6-2.3-3.4-2.9-5.3c-0.7-1.9-1-3.9-1-6c0-1.7,0.3-3.5,0.8-5.4c0.6-1.9,1.4-3.5,2.4-5c1.2-1.7,2.3-3,3.5-4
		C229.7,450.6,231.1,449.6,232.7,448.5z M249.6,453.9l-0.2-4.4c-0.8,0.4-1.6,0.5-2.5,0.5c-0.4,0-0.8,0-1.2-0.1
		c0.9,0.7,1.6,1.3,2.2,1.9C248.5,452.5,249.1,453.2,249.6,453.9z"/>
	<path fill="#1D1D1B" d="M285.9,484.1v-1.4c1.7-0.1,2.9-0.3,3.6-0.5c0.7-0.3,1.2-0.7,1.4-1.4c0.2-0.7,0.3-1.7,0.3-3.2v-11.2H273V477
		c0,1.3,0,2.2,0.1,2.9c0.1,0.6,0.3,1.1,0.6,1.5c0.3,0.4,0.8,0.7,1.5,0.8c0.7,0.2,1.7,0.3,3,0.4v1.4h-17.1v-1.4
		c1.2,0,2.2-0.1,2.8-0.2c0.7-0.1,1.2-0.4,1.6-0.7c0.4-0.4,0.7-0.9,0.8-1.5c0.1-0.6,0.2-1.6,0.2-2.7v-24c0-1.6-0.4-2.7-1.1-3.2
		c-0.8-0.5-2.2-0.8-4.3-0.9V448h17.1v1.4c-1.7,0-2.9,0.2-3.6,0.5c-0.7,0.3-1.2,0.9-1.4,1.6c-0.2,0.8-0.3,2-0.3,3.6v9.4h18.2v-10.8
		c0-1.3-0.1-2.2-0.4-2.8c-0.3-0.6-0.8-1-1.5-1.2c-0.7-0.2-1.8-0.4-3.4-0.5v-1.4h17.1v1.4c-1.7,0.1-2.9,0.2-3.6,0.5
		c-0.7,0.3-1.2,0.8-1.4,1.5c-0.2,0.8-0.3,2-0.3,3.8v22.3c0,1.4,0.1,2.5,0.3,3.2c0.2,0.7,0.7,1.2,1.4,1.6c0.7,0.3,1.9,0.5,3.6,0.4
		v1.4h-17V484.1z M267.5,453.6v24.5c0,1.5-0.2,2.5-0.5,3.1c-0.3,0.6-0.8,1.1-1.3,1.4h0.7c1,0,1.7-0.4,2.1-1.2
		c0.4-0.8,0.6-1.9,0.6-3.5v-23c0-1.6-0.1-2.8-0.2-3.6c-0.1-0.7-0.4-1.3-0.9-1.7c-0.5-0.4-1.3-0.5-2.4-0.4c0.6,0.3,1.1,0.8,1.4,1.4
		C267.4,451.3,267.5,452.3,267.5,453.6z M292.1,453.3v25.4c0,1.3-0.1,2.1-0.4,2.6c-0.3,0.5-0.8,1-1.4,1.3h0.8c0.9,0,1.6-0.3,2-0.8
		c0.4-0.5,0.6-1.4,0.6-2.5v-25.4c0-1.6-0.2-2.7-0.5-3.5c-0.3-0.8-1.1-1.1-2.3-1.1h-0.7c0.7,0.3,1.2,0.8,1.5,1.4
		C292,451.3,292.1,452.1,292.1,453.3z"/>
</g>
<g>
	<path d="M341.4,382.5c1.4,0,3.1,0.9,3.5,2.2l1.8,6.2h-15.4l-0.9-0.6c-0.2-0.7-0.8-1-1.5-1h-78.8c-0.7,0-1.3,0.3-1.4,1l-0.9,0.7
		h-15.4c0.2-0.9,0.4-1.7,0.6-2.6s0.4-1.8,0.7-2.7c0.6-1.7,1.7-3.2,3.9-3.2H341.4z M235.2,386.2c-0.4,1.1-0.5,2.3-0.7,3.2h12.7
		c0.4-1,1.7-1.6,2.8-1.6h78.8c1.1,0,2.4,0.6,2.9,1.6h12.8l-1.2-4.1c-0.1-0.4-0.9-1-1.9-1H237.5C236.2,384.2,235.6,385,235.2,386.2z
		 M343,338.8h3.1V317H343V338.8z M349.7,321.7c0.7,0,1.3,0.6,1.3,1.3v9.9c0,0.7-0.6,1.3-1.3,1.3h-2v4.7c0,0.9-0.8,1.7-1.7,1.7h-3
		c-0.9,0-1.7-0.8-1.7-1.7V317c0-0.9,0.8-1.7,1.7-1.7h3c0.9,0,1.7,0.8,1.7,1.7v4.7H349.7z M349.4,332.4v-9.1h-1.6v9.1H349.4z
		 M276.7,333.6c-2.9,5.1-8.7,4.4-9.2,1.2c-0.1-0.6,0.5-0.6,0.7-0.1c2.1,3.6,7.7-1.1,8.7-4.9c-7.5,3.9-13.6,5.6-25,6
		c-2.4,0.1-6.2,0.6-7.8,2.9c-1,1.5-0.2,4,1.3,4.5c1.5,0.5,3.8-0.2,3.7-2.2c0-0.6,0.4-1.1,0.7-0.4c0.8,2.3-1.2,4.2-3.7,4.2
		c-5.2,0-7.2-8.9,1.5-10.2c-7-3.6-0.5-10.9,5-7c0.5,0.4,0.2,0.9-0.5,0.6c-6-2.4-8.3,5,1.5,5.8c5.1,0.4,16.1-2.3,24.1-7.1
		c8-4.9,18.3-7.9,27.3-5.1c1.2,0.4,4.6,0.9,5.2-1.6c0.6-2.5-4.1-3.8-5.2-0.5c0,0.1-0.5,0.3-0.5-0.4c0.1-4.1,6.6-3.6,7.5-0.1
		c0.9,3.4-2.3,4.4-2.2,4.4c4,2,7.1,6.3,10.5,8.9c7,5.3,11.3-3.2,5.2-4.7c3.9-1,7.5,5.3,2.1,8.1c-5.4,2.9-10.2-2.4-10.2-2.4
		s-0.5,7.1-8.2,6.4c-7.7-0.7-7.2-9.3-3.3-9.9c-3.5,4.2,1.4,9.3,5.9,7.3c4.6-2,3.2-7.6-3-11.3c-6.2-3.7-14.2-3.3-15,1.4
		c-0.8,4.8,6.4,5,6.5-0.5c0-0.4,0.5-1,0.6-0.4c1.7,5.7-4.6,8.2-8.1,5.1c-3.5-3.1-0.7-7.7,1-8.3c-3.2-0.2-15.5,3.4-15.2,9.1
		c0.2,3.7,6.2,4.2,6.2-1.3c0-0.5,0.6-0.7,0.7-0.2C287.8,338.4,277,339.3,276.7,333.6z M307.2,373.7c0.5,3.5,6.5,4.3,5.1-1.6
		c-1.4-5.8,2.5-11.4,6.9-16c4.4-4.6,0.8-9.1-2.4-8.7c-3.2,0.4-3.5,2.9-2.9,4.3c0.2,0.5-0.5,0.7-0.7,0.3c-3.6-7.4,9.8-9.5,10-0.7
		c0,0,7.4-7.4,9.7-18.7c2.4-11.4-6-15.5-8.5-12.1c0.1,0,2.3,1.7,0.3,3.1c-1.9,1.4-6-1.8-1-5c5-3.2,13.8,2.5,11.3,15.2
		c-2.5,12.7-12.1,20.7-17.5,27.3c-5.4,6.7-3,11.9,0.7,11.7c2.7-0.2,4.2-4.7-0.1-5.6c-0.5-0.1-0.4-0.8,0.1-0.7c5.8,0.1,5.5,7.8,0,8.2
		c4.3,1.1,10.8-2.3,10.8-8.4c0-8-6.2-6.8-6.2-4.1c0,2.7,3.4,1.9,3.4,0.7c0,0,0.3,0.2,0.3,0.7c0,1.9-5.2,2.8-5-1.7s10.1-5.3,9.4,5.7
		c5-1.4,6.9,3.3,4.7,6c-2.1,2.7-5.3,1.3-4.8,1.3c4.7-0.1,5.9-6,1.8-6.1c-1.8,0-3.1,2.8-5.6,4.9c-3.1,2.5-9.6,4.1-12.9-0.3
		c0.8,4.8-7.4,6.2-7.8,0.2C306.4,373.3,307.1,373.2,307.2,373.7z M245.3,368.4c0,1.1-0.2,1.7-0.4,2.1c-0.1,0.2-0.2,0.3-0.3,0.4
		c-0.4,0.1-0.5,0.1-0.5,0.1c-0.3-0.1-0.4-0.3-0.5-0.4c-0.2-0.3-0.4-1-0.4-2.1V362c-0.8-0.1-1.4-0.8-1.4-1.7v-5.1H241
		c-3.8,0-4.2-0.5-4.2-4.2v-24.1h-4.7c-0.9,0-1.7-0.8-1.7-1.7v-1.5c0-0.9,0.8-1.7,1.7-1.7h4.7v-6.4c0-2.6,0.2-3.4,2-3.6v-1.6
		c0-1,0.7-1.6,1.4-1.6h0.7c0-1.1,0.8-1.8,1.7-1.8h0.4c0.9,0,1.7,0.9,1.7,1.8h76.5l0.4-0.4V305l-1.8-1.8V300h4.1v-2h1.7v1.9h4.1v3.2
		l-1.8,1.8v3.4l1.8,1.8v3.2h-4.1v0.7h4c0.6,0,1.1,0,1.4,0c0.3,0,0.5-0.1,0.6-0.2c0.1-0.1,0.1-0.2,0.2-0.6c0-0.3,0-1.1,0-1.8v-3.6
		c0-2.5,0.2-2.7,4.2-2.7c4.1,0,4.2,0.2,4.2,2.7v68.1v1.4c0,0.5,0,1-0.1,1.5c-0.2,1-0.7,1.9-2,2c-0.4,0.1-1,0-1.8,0h-37.4V380
		c0-5.1,0.3-11.3,3.4-15.7c0.6-0.9,1.3-1.6,1.9-2.4c2.4-2.8,4.8-6.1,4.9-19.2h-45.7c-0.8,0-1.4,0-2,0c-0.5,0-1,0.1-1.4,0.2
		c-0.8,0.2-1.5,0.8-2.5,2c-0.6,0.9-1.4,2-2.5,3.5c-4.3,6-4.9,6.8-8.6,6.8l-0.1,5.1c0,0.8-0.6,1.5-1.3,1.6v6.5H245.3z M324.1,313.2
		H320v-3.6h-75.2v2.3h4.6c3.1,0,3.2,0.6,3.2,3.7c0,1.2,1.1,8.6,7.8,8.6c2,0,5.3-0.9,8.6-2.1c3.3-1.1,6.5-2.3,8.6-3
		c7.5-2.6,16.5-5.3,26.1-5.3h20.5v-0.6H324.1z M241,311.9v-2.3h-0.7c-0.3,0-0.5,0.3-0.5,0.9v1.4H241z M337.5,379.2
		c0.3,0,0.5,0,0.6,0c0.3-0.1,0.5-0.2,0.6-1c0.1-0.6,0.1-1.4,0.1-2.4v-68.6c0-0.3-1.2-0.3-2.6-0.3s-2.6,0-2.6,0.3v4.5
		c0,3.5-0.6,3.9-3.9,3.9h-26.2c-6.6,0-12.5,1.2-18.3,2.9c-5.8,1.7-11.3,3.7-17.4,5.7c-2.9,1-5.5,1.7-7.6,1.7
		c-8.4,0-9.5-9.1-9.5-10.3c0-0.1,0-0.6,0-1.1c0-0.2,0-0.5,0-0.6c-0.1-0.3-0.4-0.3-0.7-0.3h-0.8h-8.9c-0.6,0-1.1,0-1.4,0
		c-0.3,0-0.5,0.1-0.5,0.1c-0.1,0.1-0.1,0.2-0.1,0.5s0,0.8,0,1.4v6.4h4.8c0.9,0,1.7,0.8,1.7,1.7v1.5c0,0.9-0.8,1.7-1.7,1.7h-4.8V351
		c0,0.7,0,1.3,0,1.6c0,0.4,0.1,0.6,0.2,0.7c0.1,0.1,0.3,0.2,0.7,0.2s0.9,0,1.6,0h5.3c1.6,0,2.4,0,3.3-0.7c1-0.8,2.1-2.3,4.3-5.4
		c0.4-0.6,0.8-1.2,1.3-1.9c0.4-0.7,0.9-1.4,1.4-2c1-1.2,2.3-2.3,4-2.5c0.8-0.1,1.7-0.1,3.1-0.1h47.4v0.8c0,14.1-2.6,17.8-5.3,21
		c-0.7,0.9-1.4,1.6-1.9,2.4c-0.5,0.8-1,1.7-1.4,2.8c-0.9,2.3-1.5,5.6-1.5,11h35.8C336.9,379.2,337.2,379.2,337.5,379.2z
		 M232.1,325.2h11.2v-1.5h-11.2V325.2z M244.9,355.2h-1.6v5.1h1.5L244.9,355.2z M242.7,308.5v3.3h0.5v-3.3
		C243.1,308.3,242.7,308.3,242.7,308.5z M328.4,310.6l-1-1h-4.9l-1,1v1.2h6.9V310.6z M323.2,307.6l3.4-0.6v-0.8l-3.4,0.6V307.6z
		 M323.2,306.1l3.4-0.6v-0.8l-3.4,0.6V306.1z M323.2,304.5l1.7-0.3h-1.7V304.5z M322.4,303.5h5l0.9-1v-1.2h-6.9v1.2L322.4,303.5z
		 M326.6,308.7v-0.9l-3.4,0.6v0.3H326.6z"/>
</g>
<path d="M533,447.5h1.7c0.8,0,1.4-0.1,1.6-0.4c0.3-0.2,0.4-0.6,0.4-1c0-0.3-0.1-0.5-0.2-0.7s-0.3-0.4-0.6-0.5
	c-0.2-0.1-0.7-0.1-1.4-0.1H533V447.5z M531.6,452.3v-8.6h2.9c1,0,1.7,0.1,2.2,0.2c0.5,0.2,0.8,0.4,1.1,0.8c0.3,0.4,0.4,0.8,0.4,1.3
	c0,0.6-0.2,1.2-0.7,1.6c-0.4,0.5-1,0.7-1.8,0.8c0.3,0.1,0.5,0.3,0.7,0.5c0.3,0.3,0.8,0.9,1.3,1.7l1,1.7H537l-0.8-1.4
	c-0.6-1.1-1.1-1.7-1.4-2c-0.3-0.2-0.6-0.3-1.1-0.3H533v3.7L531.6,452.3L531.6,452.3z M535.1,441.2c-1.1,0-2.2,0.3-3.3,0.9
	c-1.1,0.6-1.9,1.4-2.5,2.5c-0.6,1.1-0.9,2.2-0.9,3.3c0,1.1,0.3,2.3,0.9,3.3c0.6,1.1,1.4,1.9,2.5,2.5c1.1,0.6,2.2,0.9,3.3,0.9
	c1.1,0,2.3-0.3,3.3-0.9c1.1-0.6,1.9-1.4,2.5-2.5s0.9-2.2,0.9-3.3c0-1.2-0.3-2.3-0.9-3.3c-0.6-1.1-1.4-1.9-2.5-2.5
	C537.3,441.5,536.3,441.2,535.1,441.2z M535.1,439.9c1.3,0,2.6,0.3,3.9,1c1.3,0.7,2.3,1.7,3,3c0.7,1.3,1.1,2.6,1.1,4
	c0,1.4-0.4,2.7-1.1,4c-0.7,1.3-1.7,2.3-3,3c-1.3,0.7-2.6,1.1-4,1.1c-1.4,0-2.7-0.4-4-1.1c-1.3-0.7-2.2-1.7-3-3
	c-0.7-1.3-1.1-2.6-1.1-4c0-1.4,0.4-2.7,1.1-4c0.7-1.3,1.7-2.3,3-3C532.5,440.3,533.8,439.9,535.1,439.9z"/>
</svg>
