<?xml version="1.0" encoding="utf-8"?>
<!-- Generator: Adobe Illustrator 18.0.0, SVG Export Plug-In . SVG Version: 6.00 Build 0)  -->
<!DOCTYPE svg PUBLIC "-//W3C//DTD SVG 1.1//EN" "http://www.w3.org/Graphics/SVG/1.1/DTD/svg11.dtd">
<svg version="1.1" id="Calque_1" xmlns="http://www.w3.org/2000/svg" xmlns:xlink="http://www.w3.org/1999/xlink" x="0px" y="0px"
	 viewBox="0 0 841.9 595.3" enable-background="new 0 0 841.9 595.3" xml:space="preserve">
<g>
	<path fill="#003552" d="M279.1,373.8l-1.1-2.6h-4.4l-0.6,1.6c-0.1,0.4-0.2,0.8-0.2,1.3s0.1,0.8,0.4,1.1s0.6,0.5,1.1,0.5v0.5H270
		v-0.6c0.9-0.1,1.7-1,2.3-2.5l3.2-8.1c-0.1-0.3-0.4-0.5-0.5-0.6c-0.2-0.1-0.4-0.1-0.8-0.2v-0.4l2.2-0.8h0.8l4.2,10.9
		c0.2,0.6,0.5,1.1,0.7,1.3c0.2,0.2,0.6,0.4,1.1,0.5v0.5h-5.4v-0.6c0.5-0.1,0.8-0.1,1.1-0.2c0.2-0.1,0.4-0.3,0.4-0.6
		C279.3,374.5,279.2,374.1,279.1,373.8z M271,375.5h1.8c-0.4-0.3-0.6-0.7-0.6-1.1c0-0.1,0-0.2,0-0.3c-0.1,0.3-0.4,0.6-0.5,0.8
		C271.6,375,271.3,375.2,271,375.5z M273.8,370.5h3.9l-2-4.9L273.8,370.5z M279.8,373.4l-3.3-8.3c-0.1-0.4-0.4-0.7-0.5-0.9
		c-0.1-0.1-0.4-0.3-0.7-0.3c-0.2,0-0.4,0-0.4,0.1c0.3,0.1,0.5,0.3,0.6,0.5c0.1,0.2,0.3,0.5,0.4,0.8l3.3,8.3c0.2,0.5,0.3,0.8,0.3,1.1
		c0,0.2,0,0.3-0.1,0.4c-0.1,0.1-0.2,0.2-0.4,0.4h0.2c0.3,0,0.5-0.1,0.6-0.2c0.1-0.1,0.2-0.4,0.2-0.6
		C280.2,374.4,280.1,374,279.8,373.4z"/>
	<path fill="#003552" d="M295.3,372.8l4-9.8h4v0.5c-0.6,0-1.1,0.1-1.3,0.2c-0.3,0.1-0.4,0.4-0.4,0.6c-0.1,0.3-0.1,0.8-0.1,1.6v8
		c0,0.4,0.1,0.7,0.1,0.9c0.1,0.2,0.3,0.4,0.5,0.4c0.2,0.1,0.6,0.1,1.1,0.1v0.5h-5.9v-0.4c0.6,0,1-0.1,1.3-0.2
		c0.3-0.1,0.4-0.4,0.5-0.6c0.1-0.2,0.1-0.6,0.1-1.2v-8.9l-4.6,11.3h-0.6l-4.5-11v7.6c0,0.8,0.1,1.5,0.5,2c0.4,0.5,0.8,0.8,1.6,1v0.5
		H287v-0.5c0.6-0.1,1.1-0.4,1.5-0.8s0.6-1.1,0.6-1.8v-8.6c-0.3-0.3-0.6-0.5-0.9-0.6c-0.4-0.1-0.7-0.2-1.1-0.1V363h4.2L295.3,372.8z
		 M288.1,375.5h1.9c-0.2-0.1-0.4-0.3-0.6-0.5c-0.1-0.2-0.2-0.4-0.3-0.7c-0.1,0.3-0.2,0.5-0.4,0.6
		C288.6,375.2,288.4,375.3,288.1,375.5z M288.8,363.5h-0.4c0.4,0.1,0.7,0.4,0.9,0.6c0.2,0.3,0.4,0.6,0.6,1.2l4.2,10.1
		c0.1-0.2,0.2-0.4,0.2-0.6c0-0.1-0.1-0.4-0.2-0.7l-3.7-8.9c-0.2-0.6-0.5-1-0.7-1.3C289.7,363.6,289.3,363.5,288.8,363.5z
		 M300.1,373.9V365c0-0.7,0.1-1.2,0.1-1.5c-0.2,0-0.4,0.1-0.5,0.2c-0.1,0.1-0.1,0.3-0.2,0.5c0,0.2-0.1,0.6-0.1,1v8.8
		c0,0.4-0.1,0.7-0.1,0.9c-0.1,0.1-0.3,0.4-0.6,0.5h0.4c0.4,0,0.7-0.1,0.8-0.4C300.1,374.9,300.1,374.5,300.1,373.9z"/>
	<path fill="#003552" d="M308.2,371.4h0.6c0.4,1,0.8,1.8,1.2,2.5c0.5,0.6,1,1.1,1.6,1.5c0.6,0.4,1.1,0.5,1.8,0.5
		c0.8,0,1.4-0.2,2-0.7c0.6-0.5,0.8-1.1,0.8-1.8c0-0.7-0.2-1.3-0.6-1.6c-0.4-0.4-0.8-0.6-1.3-0.8c-0.5-0.1-1.1-0.3-2-0.4
		c-0.8-0.1-1.4-0.3-1.8-0.4c-0.6-0.2-1-0.4-1.3-0.8c-0.4-0.4-0.6-0.7-0.8-1.1s-0.3-0.9-0.3-1.4s0.1-1,0.3-1.4
		c0.1-0.4,0.4-0.8,0.7-1.2c0.3-0.4,0.7-0.6,1.1-0.8c0.4-0.2,0.9-0.3,1.5-0.3c0.4,0,0.9,0.1,1.5,0.1c0.6,0.1,1,0.1,1.3,0.1
		c0.4,0,0.6-0.1,0.9-0.2h0.7l0.4,3.8h-0.7c-0.6-1.1-1.2-2-1.9-2.6c-0.6-0.6-1.4-0.9-2.3-0.9c-0.4,0-0.8,0.1-1.2,0.3
		c-0.4,0.2-0.7,0.5-0.9,0.8c-0.2,0.4-0.4,0.8-0.4,1.2c0,0.6,0.2,1.1,0.6,1.4c0.4,0.4,1.1,0.6,1.8,0.7c0.8,0.1,1.6,0.3,2.2,0.4
		c0.6,0.1,1.1,0.3,1.6,0.4c0.7,0.4,1.3,0.8,1.6,1.4c0.4,0.6,0.6,1.3,0.6,2.1c0,0.7-0.2,1.4-0.6,2.1s-0.8,1.1-1.5,1.6
		c-0.6,0.4-1.3,0.6-2.1,0.6c-0.4,0-0.8,0-1-0.1c-0.2-0.1-0.6-0.2-1.2-0.4c-0.6-0.2-1-0.3-1.3-0.3c-0.5,0-0.8,0.2-1.2,0.6h-0.5V371.4
		L308.2,371.4z M308.5,365.4c-0.1,0.5-0.1,0.8-0.1,1.1c0,0.4,0.1,0.6,0.1,1c0.1,0.4,0.3,0.6,0.5,0.9c0.2,0.3,0.4,0.6,0.7,0.7
		c0.4,0.2,0.8,0.4,1.2,0.5c0.4,0.1,1.1,0.2,1.9,0.4c0.8,0.1,1.4,0.3,1.8,0.4c0.6,0.2,1.1,0.6,1.3,1c0.4,0.4,0.5,1,0.5,1.6
		c0,0.4-0.1,0.9-0.4,1.4c0.5-0.5,0.8-1.1,0.8-1.8c0-0.7-0.2-1.3-0.6-1.7c-0.4-0.4-0.8-0.7-1.4-0.9c-0.6-0.2-1.3-0.4-2.3-0.6
		c-0.9-0.1-1.4-0.3-1.5-0.3c-0.8-0.2-1.6-0.6-2-1.2c-0.4-0.6-0.7-1.2-0.7-1.9c0-0.1,0-0.2,0-0.4
		C308.5,365.6,308.5,365.5,308.5,365.4z M308.5,373v2.5c0.2-0.2,0.4-0.4,0.5-0.4s0.4-0.1,0.7-0.1c-0.2-0.2-0.4-0.4-0.4-0.6
		c-0.1-0.1-0.2-0.3-0.4-0.5C308.8,373.7,308.7,373.4,308.5,373z M315.5,365.3l-0.3-1.8c-0.2,0.1-0.4,0.1-0.6,0.1
		c-0.2,0-0.5,0-0.7-0.1c0.2,0.1,0.4,0.4,0.6,0.6c0.2,0.2,0.4,0.4,0.6,0.7C315.3,365.1,315.4,365.3,315.5,365.3z"/>
	<path fill="#003552" d="M322.4,363h11.7l0.6,3h-0.6c-0.5-0.8-1-1.3-1.5-1.8c-0.5-0.4-1-0.6-1.5-0.6c-0.4-0.1-1.1-0.1-1.8-0.1V374
		c0,0.4,0.1,0.7,0.2,0.9s0.4,0.4,0.6,0.4s0.7,0.1,1.2,0.1v0.5H325v-0.5c0.6,0,0.9-0.1,1.2-0.1c0.3-0.1,0.5-0.2,0.6-0.4
		c0.1-0.2,0.2-0.6,0.2-1.1v-10.3c-0.6,0-1.3,0.1-1.7,0.2c-0.5,0.1-0.9,0.3-1.2,0.5c-0.4,0.2-0.6,0.4-0.8,0.7c-0.2,0.2-0.6,0.6-1,1.1
		h-0.6L322.4,363z M324.1,363.5h-1.5l-0.4,1.6c0.3-0.4,0.6-0.7,0.8-0.9C323.3,363.9,323.6,363.7,324.1,363.5z M327.9,373.7v-9.1
		c0-0.4-0.1-0.6-0.1-0.8c-0.1-0.2-0.2-0.3-0.5-0.3V374c0,0.4-0.1,0.7-0.1,0.9c-0.1,0.2-0.3,0.4-0.5,0.6h0.2c0.4,0,0.7-0.1,0.8-0.4
		C327.9,374.8,327.9,374.3,327.9,373.7z M333.7,365l-0.4-1.5h-1.7c0.5,0.1,0.8,0.4,1.2,0.6C333,364.4,333.4,364.6,333.7,365z"/>
	<path fill="#003552" d="M342.8,369.6v4c0,0.4,0,0.8,0.1,1.1c0.1,0.2,0.2,0.4,0.4,0.6s0.4,0.2,0.7,0.2c0.4,0,0.8,0.1,1.3,0.1
		c0.7,0,1.3-0.1,1.8-0.3c0.6-0.2,1.1-0.5,1.5-0.9c0.5-0.4,1-0.9,1.6-1.6h0.7l-1.1,3.3h-11.3v-0.6c0.6,0,1-0.1,1.3-0.1
		c0.3-0.1,0.5-0.2,0.6-0.4c0.1-0.2,0.2-0.5,0.2-0.8v-9.1c0-0.4-0.1-0.7-0.1-0.9c-0.1-0.2-0.3-0.4-0.6-0.4c-0.3-0.1-0.7-0.1-1.3-0.1
		v-0.5h10.9l1.1,3H350c-0.4-0.4-0.8-0.8-1.3-1.2c-0.5-0.4-1.1-0.6-1.7-0.8c-0.6-0.2-1.3-0.4-2-0.4c-0.6,0-1,0.1-1.3,0.2
		c-0.3,0.1-0.5,0.3-0.6,0.5c-0.1,0.2-0.1,0.5-0.1,0.8v4h1.8c1.6,0,2.4-0.7,2.5-2.2h0.6v4.9h-0.6c-0.1-0.8-0.3-1.3-0.6-1.6
		c-0.4-0.4-0.8-0.5-1.6-0.5L342.8,369.6L342.8,369.6L342.8,369.6z M340.9,365.1v8.9c0,0.4-0.1,0.8-0.1,1c-0.1,0.2-0.3,0.4-0.5,0.5
		c0.5,0,0.8-0.1,1-0.4c0.1-0.3,0.2-0.7,0.2-1.3v-8.9c0-0.5-0.1-0.8-0.3-1.1c-0.2-0.1-0.5-0.3-0.9-0.3c0.2,0.1,0.4,0.3,0.5,0.5
		C340.8,364.3,340.9,364.6,340.9,365.1z M347,370.1v-1.8c-0.2,0.4-0.7,0.7-1.3,0.9c0.4,0.1,0.6,0.2,0.8,0.4
		C346.7,369.7,346.9,369.9,347,370.1z M348.5,363.5h-1.7c0.5,0.1,0.8,0.4,1.2,0.6c0.4,0.2,0.7,0.5,1.1,0.8L348.5,363.5z
		 M348.9,375.5l0.6-1.6c-0.4,0.4-0.7,0.7-1,0.8c-0.3,0.2-0.7,0.4-1.3,0.7L348.9,375.5L348.9,375.5z"/>
	<path fill="#003552" d="M361.2,376h-6.4v-0.6c0.6,0,1.1-0.1,1.3-0.1c0.3-0.1,0.5-0.2,0.6-0.4c0.1-0.2,0.1-0.6,0.1-1v-8.6
		c0-0.5-0.1-0.8-0.1-1.1c-0.1-0.2-0.3-0.4-0.6-0.5c-0.3-0.1-0.8-0.1-1.3-0.1v-0.5h7.3c0.9,0,1.7,0.1,2.4,0.5s1.2,0.7,1.6,1.3
		c0.4,0.5,0.5,1.1,0.5,1.7c0,0.4-0.1,0.8-0.2,1.2c-0.1,0.4-0.4,0.7-0.7,1.1c-0.3,0.3-0.6,0.6-1.1,0.8c-0.4,0.2-0.9,0.4-1.5,0.5
		c0.4,0.4,0.9,1,1.6,1.8l0.9,1.1c0.1,0.1,0.1,0.1,0.2,0.2s0.1,0.2,0.3,0.4c0.3,0.4,0.6,0.6,0.8,0.8c0.2,0.2,0.4,0.4,0.6,0.6
		c0.2,0.2,0.4,0.4,0.6,0.4c0.2,0.1,0.4,0.2,0.6,0.3v0.5h-1.9c-0.4,0-0.8-0.1-1.1-0.3c-0.4-0.1-0.7-0.4-1-0.7
		c-0.4-0.4-0.7-0.7-1.1-1.3l-1.3-1.6c-0.6-0.8-1.1-1.3-1.3-1.6c-0.3-0.3-0.6-0.4-0.8-0.4h-1v3.9c0,0.4,0.1,0.7,0.1,0.9
		c0.1,0.2,0.3,0.4,0.6,0.5c0.1,0.1,0.4,0.1,0.6,0.1c0.3,0,0.4,0.1,0.6,0.1L361.2,376L361.2,376L361.2,376z M357.1,365.2v9.1
		c0,0.6-0.2,1-0.6,1.2c0.8,0,1.2-0.4,1.2-0.9v-9.3c0-0.5,0-0.8-0.1-1.1c-0.1-0.2-0.1-0.4-0.4-0.6s-0.5-0.1-0.8-0.1
		c0.4,0.1,0.5,0.4,0.6,0.6C357.1,364.3,357.1,364.7,357.1,365.2z M359.1,365.4v4.2h1.5c0.5,0,1-0.1,1.5-0.2c0.5-0.1,0.8-0.4,1.1-0.6
		c0.5-0.5,0.8-1.2,0.8-2.2c0-1.1-0.4-2-1.2-2.5c-0.3-0.2-0.6-0.3-0.8-0.4c-0.3-0.1-0.7-0.1-1.1-0.1c-0.5,0-0.8,0.1-1.1,0.2
		c-0.2,0.1-0.4,0.3-0.5,0.6C359.1,364.6,359.1,364.9,359.1,365.4z M361.5,370h-0.8c0.2,0.1,0.5,0.4,0.8,0.8s0.6,0.8,1.1,1.3
		c0.4,0.6,0.9,1.1,1.3,1.7c0.4,0.5,0.8,0.9,1.1,1.2c0.4,0.3,0.6,0.4,0.9,0.6c0.3,0.1,0.6,0.1,0.8,0.1c-0.4-0.2-0.8-0.4-1.1-0.8
		c-0.4-0.4-0.7-0.7-1.1-1.2c-0.4-0.5-0.8-1-1.3-1.6s-0.8-1.1-1.3-1.6c-0.1-0.1-0.1-0.2-0.2-0.3C361.8,370.2,361.7,370.1,361.5,370z
		 M362.3,369.5c0.8-0.1,1.5-0.4,1.9-0.9s0.6-1.2,0.6-2.1s-0.2-1.5-0.6-2.1c-0.4-0.5-0.9-0.8-1.7-0.9c0.6,0.3,1,0.6,1.3,1.1
		c0.3,0.5,0.4,1.1,0.4,1.9c0,0.8-0.1,1.5-0.5,1.9C363.4,368.9,362.9,369.2,362.3,369.5z"/>
	<path fill="#003552" d="M380,376h-7.3v-0.6c0.5,0,0.9-0.1,1.1-0.1c0.3-0.1,0.4-0.2,0.6-0.4c0.1-0.2,0.1-0.5,0.1-0.9v-9.3
		c0-0.4-0.1-0.8-0.4-0.9c-0.3-0.1-0.8-0.3-1.4-0.3V363h7.6c1,0,1.9,0.1,2.8,0.5c0.8,0.4,1.6,0.8,2.1,1.3c0.6,0.6,1.1,1.3,1.4,2.1
		c0.4,0.8,0.5,1.7,0.5,2.6s-0.1,1.8-0.5,2.5c-0.4,0.8-0.8,1.5-1.4,2.1c-0.6,0.6-1.3,1-2.3,1.3C382,375.8,381,376,380,376z
		 M375.4,374v-8.5c0-0.7-0.1-1.3-0.2-1.6c-0.1-0.3-0.5-0.4-1.1-0.4c0.3,0.1,0.4,0.3,0.5,0.5c0.1,0.2,0.1,0.5,0.1,0.9v8.8
		c0,0.4,0,0.7-0.1,0.9c-0.1,0.2-0.1,0.4-0.2,0.5s-0.2,0.2-0.4,0.3c0.5,0,0.8-0.1,1-0.4C375.4,375,375.4,374.5,375.4,374z
		 M376.9,366.2v7.4c0,0.6,0.1,0.9,0.1,1.1c0.1,0.2,0.3,0.4,0.5,0.6c0.3,0.1,0.7,0.2,1.3,0.2s1.3-0.1,1.8-0.2s1.1-0.4,1.5-0.7
		c0.6-0.4,1-0.8,1.3-1.3c0.4-0.5,0.6-1,0.7-1.6c0.1-0.6,0.2-1.3,0.2-2c0-2.2-0.6-3.8-1.9-4.9c-0.5-0.4-1.1-0.8-1.7-0.9
		c-0.6-0.2-1.3-0.3-2.2-0.3c-0.6,0-1,0.1-1.2,0.3c-0.2,0.1-0.4,0.4-0.4,0.7C376.9,364.8,376.9,365.3,376.9,366.2z M381.2,375.5
		c0.8-0.1,1.5-0.4,2.1-0.8s1.1-1.1,1.5-2c0.4-0.8,0.6-1.8,0.6-3c0-0.8-0.1-1.6-0.3-2.3c-0.1-0.7-0.4-1.3-0.8-1.8
		c-0.4-0.5-0.8-0.9-1.2-1.3c-0.3-0.2-0.6-0.4-0.8-0.4c-0.3-0.1-0.6-0.2-1-0.2c2.3,0.9,3.5,3,3.5,6.2c0,0.9-0.1,1.8-0.4,2.5
		c-0.3,0.7-0.6,1.3-1.1,1.9C382.7,374.7,382,375.2,381.2,375.5z"/>
	<path fill="#003552" d="M400,373.8l-1.1-2.6h-4.4l-0.6,1.6c-0.1,0.4-0.2,0.8-0.2,1.3s0.1,0.8,0.4,1.1c0.3,0.3,0.6,0.5,1.1,0.5v0.5
		h-4.2v-0.6c0.9-0.1,1.7-1,2.3-2.5l3.2-8.1c-0.1-0.3-0.4-0.5-0.5-0.6c-0.2-0.1-0.4-0.1-0.8-0.2v-0.4l2.2-0.8h0.8l4.2,10.9
		c0.2,0.6,0.5,1.1,0.7,1.3c0.2,0.2,0.6,0.4,1.1,0.5v0.5h-5.4v-0.6c0.5-0.1,0.8-0.1,1.1-0.2c0.2-0.1,0.4-0.3,0.4-0.6
		C400.3,374.5,400.2,374.1,400,373.8z M392,375.5h1.8c-0.4-0.3-0.6-0.7-0.6-1.1c0-0.1,0-0.2,0-0.3c-0.1,0.3-0.4,0.6-0.5,0.8
		C392.5,375,392.3,375.2,392,375.5z M394.8,370.5h3.9l-2-4.9L394.8,370.5z M400.8,373.4l-3.3-8.3c-0.1-0.4-0.4-0.7-0.5-0.9
		c-0.1-0.1-0.4-0.3-0.7-0.3c-0.2,0-0.4,0-0.4,0.1c0.3,0.1,0.5,0.3,0.6,0.5c0.1,0.2,0.3,0.5,0.4,0.8l3.3,8.3c0.2,0.5,0.3,0.8,0.3,1.1
		c0,0.2,0,0.3-0.1,0.4c-0.1,0.1-0.2,0.2-0.4,0.4h0.2c0.3,0,0.5-0.1,0.6-0.2c0.1-0.1,0.2-0.4,0.2-0.6
		C401.2,374.4,401,374,400.8,373.4z"/>
	<path fill="#003552" d="M416.3,372.8l4-9.8h4v0.5c-0.6,0-1.1,0.1-1.3,0.2c-0.3,0.1-0.4,0.4-0.4,0.6c-0.1,0.3-0.1,0.8-0.1,1.6v8
		c0,0.4,0.1,0.7,0.1,0.9c0.1,0.2,0.3,0.4,0.5,0.4c0.2,0.1,0.6,0.1,1.1,0.1v0.5h-5.9v-0.4c0.6,0,1-0.1,1.3-0.2
		c0.3-0.1,0.4-0.4,0.5-0.6c0.1-0.2,0.1-0.6,0.1-1.2v-8.9l-4.6,11.3H415l-4.5-11v7.6c0,0.8,0.1,1.5,0.5,2c0.4,0.5,0.8,0.8,1.6,1v0.5
		H408v-0.5c0.6-0.1,1.1-0.4,1.5-0.8c0.4-0.4,0.6-1.1,0.6-1.8v-8.6c-0.3-0.3-0.6-0.5-0.9-0.6c-0.4-0.1-0.7-0.2-1.1-0.1V363h4.2
		L416.3,372.8z M409,375.5h1.9c-0.2-0.1-0.4-0.3-0.6-0.5c-0.1-0.2-0.2-0.4-0.3-0.7c-0.1,0.3-0.2,0.5-0.4,0.6
		C409.6,375.2,409.3,375.3,409,375.5z M409.7,363.5h-0.4c0.4,0.1,0.7,0.4,0.9,0.6c0.2,0.3,0.4,0.6,0.6,1.2l4.2,10.1
		c0.1-0.2,0.2-0.4,0.2-0.6c0-0.1-0.1-0.4-0.2-0.7l-3.7-8.9c-0.2-0.6-0.5-1-0.7-1.3C410.6,363.6,410.2,363.5,409.7,363.5z
		 M421.1,373.9V365c0-0.7,0.1-1.2,0.1-1.5c-0.2,0-0.4,0.1-0.5,0.2c-0.1,0.1-0.1,0.3-0.2,0.5c0,0.2-0.1,0.6-0.1,1v8.8
		c0,0.4-0.1,0.7-0.1,0.9c-0.1,0.1-0.3,0.4-0.6,0.5h0.4c0.4,0,0.7-0.1,0.8-0.4C421.1,374.9,421.1,374.5,421.1,373.9z"/>
	<path fill="#003552" d="M447.8,362.9h0.8v4.1H448c-0.3-0.6-0.6-1.1-0.9-1.6c-0.4-0.4-0.7-0.8-1.1-1.1c-0.4-0.3-0.8-0.6-1.2-0.7
		c-0.4-0.1-0.8-0.2-1.3-0.2c-0.6,0-1.2,0.1-1.8,0.4c-0.5,0.3-1,0.7-1.3,1.2c-0.4,0.6-0.6,1.2-0.8,1.9c-0.2,0.8-0.3,1.6-0.3,2.4
		c0,1.2,0.2,2.3,0.6,3.3c0.4,0.9,1,1.7,1.7,2.2c0.7,0.5,1.6,0.8,2.5,0.8c0.6,0,1.1-0.1,1.6-0.3c0.5-0.2,1.1-0.5,1.6-0.8
		c0.5-0.4,0.9-0.8,1.3-1.4l0.6,0.3c-0.7,1-1.6,1.8-2.5,2.3c-1,0.5-2.1,0.8-3.3,0.8c-1,0-1.9-0.1-2.7-0.5c-0.8-0.4-1.6-0.8-2.1-1.4
		c-0.6-0.6-1.1-1.3-1.4-2.1c-0.4-0.8-0.5-1.7-0.5-2.6c0-1,0.1-1.9,0.5-2.8c0.4-0.8,0.8-1.6,1.4-2.2c0.6-0.6,1.3-1.1,2.1-1.4
		c0.8-0.4,1.7-0.5,2.6-0.5c0.4,0,0.6,0,1,0.1c0.3,0.1,0.6,0.1,1.1,0.2c0.4,0.1,0.7,0.2,0.8,0.2s0.3,0.1,0.5,0.1
		C447.1,363.4,447.4,363.1,447.8,362.9z M441.3,363.2c-0.9,0.4-1.7,0.8-2.3,1.3c-0.4,0.3-0.6,0.6-0.9,1c-0.3,0.4-0.5,0.8-0.7,1.2
		c-0.2,0.4-0.4,0.8-0.4,1.3c-0.1,0.5-0.1,0.9-0.1,1.4c0,1.1,0.2,2.1,0.7,3c0.4,0.9,1.1,1.7,2.1,2.3c0.9,0.6,2,1,3.3,1.1
		c-0.8-0.2-1.6-0.6-2.3-0.9c-0.6-0.4-1.3-0.9-1.7-1.5c-0.5-0.6-0.8-1.2-1.1-1.9s-0.4-1.4-0.4-2.1c0-0.6,0.1-1.3,0.3-1.9
		c0.2-0.7,0.5-1.3,0.8-1.8c0.4-0.6,0.8-1.1,1.3-1.4C440.2,364,440.7,363.6,441.3,363.2z M447.4,365.1l-0.1-1.6
		c-0.3,0.1-0.6,0.2-0.9,0.2c-0.1,0-0.3,0-0.4-0.1c0.3,0.2,0.6,0.5,0.8,0.7C447,364.6,447.2,364.9,447.4,365.1z"/>
	<path fill="#003552" d="M453.2,369.4c0-0.6,0.1-1.1,0.1-1.6s0.3-1,0.5-1.4c0.2-0.4,0.4-0.8,0.8-1.3c0.3-0.4,0.6-0.7,1-1.1
		c0.4-0.4,0.8-0.6,1.3-0.8c0.5-0.2,1-0.4,1.5-0.4c0.6-0.1,1.1-0.1,1.7-0.1c1.1,0,2,0.1,2.8,0.5c0.8,0.4,1.6,0.8,2.2,1.5
		c0.6,0.6,1.1,1.3,1.3,2.1c0.4,0.8,0.5,1.6,0.5,2.5c0,1-0.1,1.8-0.5,2.7s-0.8,1.6-1.5,2.2c-0.6,0.6-1.4,1.1-2.3,1.4
		c-0.8,0.4-1.8,0.5-2.8,0.5c-0.9,0-1.8-0.1-2.6-0.5c-0.8-0.4-1.6-0.8-2.1-1.4s-1.1-1.3-1.3-2.2C453.4,371.4,453.2,370.4,453.2,369.4
		z M456.6,363.8c-1,0.6-1.8,1.4-2.3,2.4c-0.5,1-0.8,2.1-0.8,3.3c0,1,0.1,1.9,0.5,2.8c0.4,0.8,0.8,1.6,1.5,2.1s1.5,1.1,2.5,1.4
		c-1.2-0.6-2.2-1.5-2.9-2.5c-0.7-1.1-1.1-2.4-1.1-4c0-0.8,0.1-1.5,0.3-2.1c0.2-0.6,0.5-1.2,0.8-1.8
		C455.6,364.8,456.1,364.4,456.6,363.8z M455.8,368.5c0,1.1,0.1,2.1,0.4,3c0.2,0.9,0.6,1.7,0.9,2.3c0.4,0.6,0.9,1.1,1.5,1.5
		c0.6,0.4,1.2,0.5,1.8,0.5c0.6,0,1.1-0.1,1.6-0.4c0.5-0.2,0.9-0.6,1.3-1.1c0.4-0.5,0.6-1.1,0.8-1.8c0.2-0.7,0.3-1.5,0.3-2.4
		c0-1-0.1-1.9-0.4-2.8c-0.2-0.8-0.6-1.6-1-2.2c-0.4-0.6-0.9-1.1-1.5-1.4c-0.6-0.4-1.2-0.5-1.8-0.5c-0.6,0-1.1,0.1-1.6,0.4
		c-0.5,0.3-0.9,0.6-1.3,1.1c-0.4,0.4-0.6,1-0.8,1.6C455.8,367,455.8,367.7,455.8,368.5z M461.4,363.4c0.7,0.4,1.3,0.8,1.8,1.6
		c0.5,0.6,0.8,1.4,1.1,2.3c0.2,0.9,0.4,1.9,0.4,3c0,1-0.1,1.9-0.4,2.7c-0.3,0.8-0.7,1.4-1.2,2c0.5-0.4,0.9-0.8,1.3-1.3
		c0.4-0.5,0.6-1.1,0.7-1.6c0.1-0.6,0.2-1.3,0.2-2.1c0-1.1-0.1-2.1-0.4-3c-0.3-0.9-0.8-1.7-1.3-2.3
		C462.9,363.9,462.2,363.6,461.4,363.4z"/>
	<path fill="#003552" d="M473.2,372.1v-7c0-0.4-0.1-0.8-0.2-1c-0.1-0.2-0.4-0.4-0.6-0.4c-0.3-0.1-0.7-0.1-1.3-0.1v-0.5h6.2v0.5
		c-0.5,0-0.8,0.1-1.1,0.1c-0.2,0.1-0.4,0.2-0.6,0.4c-0.1,0.2-0.2,0.5-0.2,0.9v7.3c0,0.7,0.1,1.3,0.4,1.8c0.3,0.5,0.7,0.8,1.3,1.1
		c0.6,0.3,1.2,0.4,2,0.4s1.5-0.1,2.1-0.4c0.6-0.3,1.1-0.7,1.3-1.3c0.4-0.6,0.5-1.3,0.5-2.1v-4.2c0-1-0.1-1.7-0.2-2.3
		c-0.1-0.6-0.4-0.9-0.7-1.2c-0.4-0.3-0.8-0.4-1.4-0.4v-0.5h4.7v0.5c-0.6,0.1-0.9,0.3-1.2,0.6c-0.3,0.3-0.4,0.7-0.6,1.2
		c-0.1,0.5-0.1,1.1-0.1,1.8v4.7c0,0.6-0.1,1.3-0.4,1.8c-0.2,0.6-0.6,1-1.1,1.4c-0.4,0.4-1,0.7-1.6,0.8c-0.6,0.2-1.4,0.3-2.2,0.3
		c-2,0-3.5-0.6-4.4-1.7c-0.3-0.4-0.5-0.7-0.6-1.1C473.2,373,473.2,372.6,473.2,372.1z M474.1,372.1v-7.4c0-0.9-0.4-1.3-1.3-1.2
		c0.5,0.2,0.7,0.6,0.7,1.3v7.4c0,1.1,0.3,1.8,0.9,2.5c0.6,0.6,1.6,1,2.8,1.3c-0.5-0.2-0.8-0.4-1.2-0.6c-0.4-0.2-0.6-0.4-0.9-0.7
		c-0.3-0.3-0.5-0.6-0.7-1.1C474.2,373.1,474.1,372.6,474.1,372.1z M484,363.5h-1.9c0.6,0.3,0.9,0.7,1.1,1.5c0.1-0.4,0.1-0.6,0.3-0.8
		C483.6,363.9,483.7,363.6,484,363.5z"/>
	<path fill="#003552" d="M490,363h11.7l0.6,3h-0.6c-0.5-0.8-1-1.3-1.5-1.8c-0.5-0.4-1-0.6-1.5-0.6c-0.4-0.1-1.1-0.1-1.8-0.1V374
		c0,0.4,0.1,0.7,0.2,0.9s0.4,0.4,0.6,0.4c0.3,0.1,0.7,0.1,1.2,0.1v0.5h-6.4v-0.5c0.6,0,0.9-0.1,1.2-0.1c0.3-0.1,0.5-0.2,0.6-0.4
		c0.1-0.2,0.2-0.6,0.2-1.1v-10.3c-0.6,0-1.3,0.1-1.7,0.2c-0.5,0.1-0.9,0.3-1.2,0.5c-0.4,0.2-0.6,0.4-0.8,0.7c-0.2,0.2-0.6,0.6-1,1.1
		h-0.6L490,363z M491.7,363.5h-1.5l-0.4,1.6c0.3-0.4,0.6-0.7,0.8-0.9C490.9,363.9,491.3,363.7,491.7,363.5z M495.6,373.7v-9.1
		c0-0.4-0.1-0.6-0.1-0.8c-0.1-0.2-0.2-0.3-0.5-0.3V374c0,0.4-0.1,0.7-0.1,0.9c-0.1,0.2-0.3,0.4-0.5,0.6h0.2c0.4,0,0.7-0.1,0.8-0.4
		C495.5,374.8,495.6,374.3,495.6,373.7z M501.3,365l-0.4-1.5h-1.7c0.5,0.1,0.8,0.4,1.2,0.6C500.7,364.4,500.9,364.6,501.3,365z"/>
	<path fill="#003552" d="M508.2,372.1v-7c0-0.4-0.1-0.8-0.2-1c-0.1-0.2-0.4-0.4-0.6-0.4c-0.3-0.1-0.7-0.1-1.3-0.1v-0.5h6.2v0.5
		c-0.5,0-0.8,0.1-1.1,0.1c-0.2,0.1-0.4,0.2-0.6,0.4c-0.1,0.2-0.2,0.5-0.2,0.9v7.3c0,0.7,0.1,1.3,0.4,1.8c0.3,0.5,0.7,0.8,1.3,1.1
		c0.6,0.3,1.2,0.4,2,0.4s1.5-0.1,2.1-0.4c0.6-0.3,1.1-0.7,1.3-1.3c0.4-0.6,0.5-1.3,0.5-2.1v-4.2c0-1-0.1-1.7-0.2-2.3
		s-0.4-0.9-0.7-1.2c-0.4-0.3-0.8-0.4-1.4-0.4v-0.5h4.7v0.5c-0.6,0.1-0.9,0.3-1.2,0.6c-0.3,0.3-0.4,0.7-0.6,1.2
		c-0.1,0.5-0.1,1.1-0.1,1.8v4.7c0,0.6-0.1,1.3-0.4,1.8c-0.2,0.6-0.6,1-1.1,1.4c-0.5,0.4-1,0.7-1.7,0.8c-0.6,0.2-1.4,0.3-2.2,0.3
		c-2,0-3.5-0.6-4.4-1.7c-0.3-0.4-0.5-0.7-0.6-1.1C508.3,373,508.2,372.6,508.2,372.1z M509.2,372.1v-7.4c0-0.9-0.4-1.3-1.3-1.2
		c0.5,0.2,0.7,0.6,0.7,1.3v7.4c0,1.1,0.3,1.8,0.9,2.5c0.6,0.6,1.6,1,2.8,1.3c-0.5-0.2-0.8-0.4-1.2-0.6c-0.4-0.2-0.6-0.4-0.9-0.7
		c-0.3-0.3-0.5-0.6-0.7-1.1C509.2,373.1,509.2,372.6,509.2,372.1z M519,363.5h-1.9c0.6,0.3,0.9,0.7,1.1,1.5c0.1-0.4,0.1-0.6,0.3-0.8
		C518.6,363.9,518.8,363.6,519,363.5z"/>
	<path fill="#003552" d="M530.9,376h-6.4v-0.6c0.6,0,1.1-0.1,1.3-0.1c0.3-0.1,0.5-0.2,0.6-0.4c0.1-0.2,0.1-0.6,0.1-1v-8.6
		c0-0.5-0.1-0.8-0.1-1.1c-0.1-0.2-0.3-0.4-0.6-0.5c-0.3-0.1-0.8-0.1-1.3-0.1v-0.5h7.3c0.9,0,1.7,0.1,2.4,0.5
		c0.7,0.4,1.2,0.7,1.6,1.3c0.4,0.5,0.5,1.1,0.5,1.7c0,0.4-0.1,0.8-0.2,1.2c-0.1,0.4-0.4,0.7-0.7,1.1c-0.3,0.3-0.6,0.6-1.1,0.8
		c-0.4,0.2-0.9,0.4-1.5,0.5c0.4,0.4,0.9,1,1.6,1.8l0.9,1.1c0.1,0.1,0.1,0.1,0.2,0.2c0.1,0.1,0.1,0.2,0.3,0.4
		c0.3,0.4,0.6,0.6,0.8,0.8c0.2,0.2,0.4,0.4,0.6,0.6c0.2,0.2,0.4,0.4,0.6,0.4c0.2,0.1,0.4,0.2,0.6,0.3v0.5h-1.7
		c-0.4,0-0.8-0.1-1.1-0.3c-0.4-0.1-0.7-0.4-1-0.7c-0.4-0.4-0.7-0.7-1.1-1.3l-1.3-1.6c-0.6-0.8-1.1-1.3-1.3-1.6
		c-0.3-0.3-0.6-0.4-0.8-0.4h-1v3.9c0,0.4,0.1,0.7,0.1,0.9c0.1,0.2,0.3,0.4,0.6,0.5c0.2,0.1,0.4,0.1,0.6,0.1c0.3,0,0.4,0.1,0.6,0.1
		v0.3L530.9,376L530.9,376z M526.9,365.2v9.1c0,0.6-0.2,1-0.6,1.2c0.8,0,1.2-0.4,1.2-0.9v-9.3c0-0.5,0-0.8-0.1-1.1
		c-0.1-0.2-0.1-0.4-0.4-0.6s-0.5-0.1-0.8-0.1c0.4,0.1,0.5,0.4,0.6,0.6C526.8,364.3,526.9,364.7,526.9,365.2z M528.9,365.4v4.2h1.5
		c0.5,0,1-0.1,1.5-0.2c0.5-0.1,0.8-0.4,1.1-0.6c0.5-0.5,0.8-1.2,0.8-2.2c0-1.1-0.4-2-1.2-2.5c-0.3-0.2-0.6-0.3-0.8-0.4
		c-0.3-0.1-0.7-0.1-1.1-0.1c-0.5,0-0.8,0.1-1.1,0.2s-0.4,0.3-0.5,0.6C528.9,364.6,528.9,364.9,528.9,365.4z M531.3,370h-0.8
		c0.2,0.1,0.5,0.4,0.8,0.8c0.3,0.4,0.6,0.8,1.1,1.3c0.4,0.6,0.9,1.1,1.3,1.7c0.4,0.5,0.8,0.9,1.1,1.2c0.4,0.3,0.6,0.4,0.9,0.6
		c0.3,0.1,0.6,0.1,0.8,0.1c-0.4-0.2-0.8-0.4-1.1-0.8c-0.4-0.4-0.7-0.7-1.1-1.2c-0.4-0.5-0.8-1-1.3-1.6c-0.4-0.6-0.8-1.1-1.3-1.6
		c-0.1-0.1-0.1-0.2-0.2-0.3C531.6,370.2,531.4,370.1,531.3,370z M532.1,369.5c0.8-0.1,1.5-0.4,1.9-0.9s0.6-1.2,0.6-2.1
		s-0.2-1.5-0.6-2.1c-0.4-0.5-0.9-0.8-1.7-0.9c0.6,0.3,1,0.6,1.2,1.1c0.3,0.5,0.4,1.1,0.4,1.9c0,0.8-0.1,1.5-0.5,1.9
		C533.2,368.9,532.8,369.2,532.1,369.5z"/>
	<path fill="#003552" d="M546.3,369.6v4c0,0.4,0,0.8,0.1,1.1c0.1,0.2,0.2,0.4,0.4,0.6s0.4,0.2,0.7,0.2c0.4,0,0.8,0.1,1.3,0.1
		c0.7,0,1.3-0.1,1.8-0.3c0.6-0.2,1.1-0.5,1.5-0.9c0.5-0.4,1-0.9,1.6-1.6h0.7l-1.1,3.3h-11.3v-0.6c0.6,0,1-0.1,1.3-0.1
		c0.3-0.1,0.5-0.2,0.6-0.4c0.1-0.2,0.2-0.5,0.2-0.8v-9.1c0-0.4-0.1-0.7-0.1-0.9c-0.1-0.2-0.3-0.4-0.6-0.4c-0.3-0.1-0.7-0.1-1.3-0.1
		v-0.5h10.9l1.1,3h-0.6c-0.4-0.4-0.8-0.8-1.3-1.2c-0.5-0.4-1.1-0.6-1.7-0.8c-0.6-0.2-1.3-0.4-2-0.4c-0.6,0-1,0.1-1.3,0.2
		c-0.3,0.1-0.5,0.3-0.6,0.5c-0.1,0.2-0.1,0.5-0.1,0.8v4h1.8c1.6,0,2.4-0.7,2.5-2.2h0.6v4.9h-0.6c-0.1-0.8-0.3-1.3-0.6-1.6
		c-0.4-0.4-0.8-0.5-1.6-0.5L546.3,369.6L546.3,369.6L546.3,369.6z M544.3,365.1v8.9c0,0.4-0.1,0.8-0.1,1c-0.1,0.2-0.3,0.4-0.5,0.5
		c0.5,0,0.8-0.1,1-0.4c0.1-0.3,0.2-0.7,0.2-1.3v-8.9c0-0.5-0.1-0.8-0.3-1.1c-0.2-0.1-0.5-0.3-0.9-0.3c0.2,0.1,0.4,0.3,0.5,0.5
		C544.2,364.3,544.3,364.6,544.3,365.1z M550.4,370.1v-1.8c-0.2,0.4-0.7,0.7-1.3,0.9c0.4,0.1,0.6,0.2,0.8,0.4
		C550.2,369.7,550.3,369.9,550.4,370.1z M551.9,363.5h-1.7c0.4,0.1,0.8,0.4,1.2,0.6c0.4,0.2,0.7,0.5,1.1,0.8L551.9,363.5z
		 M552.4,375.5l0.6-1.6c-0.4,0.4-0.7,0.7-1,0.8c-0.3,0.2-0.7,0.4-1.3,0.7L552.4,375.5L552.4,375.5z"/>
</g>
<g>
	<path fill="#003552" d="M541,341.2c1.6-0.1,3-0.7,4.2-1.6c1.2-0.9,2.2-2.2,2.9-3.9c0.7-1.7,1.1-3.7,1.1-6c0-1.7-0.1-3.2-0.5-4.6
		c-0.4-1.3-0.8-2.6-1.5-3.6c-0.6-1.1-1.5-1.8-2.4-2.5c-0.6-0.4-1.1-0.6-1.8-0.8s-1.3-0.4-2-0.5c4.7,1.8,6.9,5.9,6.9,12.2
		c0,1.9-0.2,3.5-0.8,5c-0.5,1.5-1.3,2.7-2.3,3.7C543.9,339.7,542.6,340.6,541,341.2z M532.6,322.8v14.6c0,1.1,0.1,1.8,0.2,2.3
		s0.5,0.8,1.1,1.1c0.6,0.2,1.4,0.4,2.7,0.4c1.3,0,2.5-0.1,3.5-0.4c1.1-0.3,2.1-0.8,3-1.4c1.1-0.8,2-1.6,2.6-2.5
		c0.6-0.9,1.1-2,1.3-3.2c0.3-1.2,0.4-2.5,0.4-4c0-4.3-1.3-7.6-3.8-9.7c-1-0.8-2.1-1.5-3.3-1.8s-2.7-0.6-4.3-0.6
		c-1.1,0-1.9,0.1-2.4,0.5c-0.4,0.4-0.7,0.8-0.8,1.4S532.6,321.3,532.6,322.8z M529.7,338.4v-16.8c0-1.4-0.1-2.5-0.4-3
		c-0.3-0.6-1-0.9-2.1-0.9c0.5,0.3,0.8,0.6,1,1c0.1,0.4,0.3,1,0.3,1.8V338c0,0.8-0.1,1.3-0.1,1.8c-0.1,0.4-0.2,0.8-0.4,1
		c-0.1,0.2-0.4,0.4-0.8,0.6c0.9,0,1.6-0.2,1.9-0.6C529.6,340.2,529.7,339.4,529.7,338.4z M538.6,342.2h-14.4v-1
		c1-0.1,1.8-0.1,2.3-0.3c0.5-0.1,0.8-0.4,1.1-0.8c0.2-0.4,0.4-1,0.4-1.8V320c0-0.9-0.3-1.5-0.8-1.8c-0.6-0.3-1.6-0.5-2.8-0.6v-1
		h15.1c2,0,3.7,0.4,5.4,1c1.6,0.6,3,1.6,4.2,2.8c1.2,1.1,2.1,2.5,2.8,4.2s1,3.3,1,5.2c0,1.8-0.4,3.5-1,5c-0.6,1.6-1.6,2.9-2.8,4
		s-2.7,2.1-4.5,2.6C542.6,341.9,540.7,342.2,538.6,342.2z M508.2,317.4c1.3,0.7,2.5,1.7,3.5,3c1,1.3,1.7,2.8,2.2,4.6
		c0.5,1.8,0.7,3.7,0.7,5.9c0,2.1-0.3,3.7-0.8,5.2c-0.6,1.5-1.3,2.8-2.3,3.9c1-0.8,1.8-1.6,2.5-2.5c0.6-1,1.1-2.1,1.4-3.3
		s0.4-2.5,0.4-4.1c0-2.2-0.3-4.2-0.9-6c-0.6-1.8-1.5-3.3-2.6-4.5C511.1,318.5,509.8,317.8,508.2,317.4z M498.8,318.2
		c-2,1.2-3.5,2.8-4.6,4.7c-1.1,1.9-1.6,4.1-1.6,6.5c0,2,0.4,3.8,1,5.5c0.7,1.6,1.7,3,3,4.2c1.3,1.2,3,2.1,4.9,2.8
		c-2.4-1.2-4.2-2.9-5.7-5s-2.1-4.7-2.1-7.8c0-1.6,0.2-2.9,0.6-4.2c0.4-1.3,0.9-2.4,1.7-3.5C496.7,320.3,497.6,319.2,498.8,318.2z
		 M497.1,327.4c0,2.1,0.2,4,0.6,5.8c0.4,1.8,1.1,3.3,1.8,4.6c0.8,1.3,1.8,2.3,2.9,2.9s2.3,1,3.6,1c1.1,0,2.1-0.2,3.1-0.7
		c1-0.5,1.8-1.2,2.5-2.1s1.3-2.1,1.7-3.5c0.4-1.3,0.6-3,0.6-4.8c0-2-0.2-3.8-0.7-5.5c-0.5-1.7-1.1-3.1-1.9-4.3
		c-0.8-1.2-1.8-2.1-2.9-2.8s-2.3-1-3.6-1c-1.1,0-2.1,0.2-3.1,0.7c-1,0.5-1.8,1.2-2.5,2.1s-1.2,2-1.6,3.3
		C497.2,324.5,497.1,325.9,497.1,327.4z M492,329.4c0-1.1,0.1-2.1,0.3-3.1c0.2-1,0.5-1.9,0.9-2.8c0.4-0.9,0.9-1.7,1.5-2.5
		c0.6-0.8,1.3-1.5,2-2.1c0.8-0.6,1.6-1.2,2.5-1.6c0.9-0.4,1.9-0.7,3-0.9c1.1-0.2,2.2-0.3,3.4-0.3c2.1,0,3.9,0.4,5.6,1.1
		s3.1,1.6,4.3,2.9c1.2,1.2,2.1,2.6,2.8,4.2c0.6,1.6,0.9,3.3,0.9,5c0,1.9-0.4,3.7-1.1,5.3c-0.7,1.6-1.7,3-3,4.3
		c-1.3,1.2-2.8,2.2-4.5,2.8c-1.7,0.6-3.5,1-5.6,1c-1.8,0-3.6-0.4-5.2-1s-3-1.6-4.2-2.8c-1.1-1.2-2.1-2.6-2.7-4.2
		C492.3,333,492,331.3,492,329.4z M468.1,321.4c-0.2,0.9-0.3,1.7-0.3,2.3c0,0.6,0.1,1.3,0.4,1.9c0.2,0.6,0.6,1.3,1,1.8
		c0.4,0.6,0.9,1.1,1.4,1.4c0.7,0.5,1.5,0.8,2.3,1.1c0.8,0.2,2.1,0.4,3.7,0.7c1.6,0.3,2.8,0.6,3.5,0.8c1.1,0.4,2.1,1.1,2.7,2
		c0.6,0.8,1,1.9,1,3c0,0.8-0.3,1.8-0.8,2.8c1-1.1,1.5-2.3,1.5-3.6c0-1.4-0.4-2.5-1.1-3.3c-0.7-0.8-1.6-1.4-2.8-1.8
		c-1.1-0.4-2.5-0.8-4.5-1.1l-2.9-0.5c-1.7-0.4-3-1.2-3.9-2.3c-0.9-1.1-1.3-2.4-1.3-3.8c0-0.3,0-0.5,0-0.7
		C468.1,321.7,468.1,321.6,468.1,321.4z M468.1,336.4v4.9c0.4-0.4,0.6-0.8,1-0.9c0.3-0.1,0.8-0.2,1.4-0.1l-0.8-1.1
		c-0.1-0.2-0.4-0.6-0.6-1C468.6,337.7,468.4,337.1,468.1,336.4z M481.8,321.3l-0.6-3.5c-0.4,0.1-0.8,0.2-1.2,0.2
		c-0.4,0-0.9-0.1-1.4-0.2c0.5,0.3,0.9,0.6,1.3,1.1c0.4,0.4,0.8,0.8,1.1,1.4C481.4,320.8,481.6,321.1,481.8,321.3z M467.5,333h1.2
		c0.6,1.9,1.5,3.5,2.4,4.8c0.9,1.3,2,2.3,3,2.9c1.1,0.6,2.3,0.9,3.5,0.9c1.5,0,2.8-0.5,3.9-1.4c1.1-0.9,1.6-2.1,1.6-3.6
		c0-1.4-0.4-2.5-1.1-3.2c-0.7-0.8-1.6-1.3-2.5-1.6c-1-0.3-2.3-0.6-3.9-0.8c-1.6-0.3-2.8-0.5-3.5-0.8c-1.1-0.4-2-0.8-2.7-1.5
		c-0.7-0.6-1.3-1.4-1.7-2.3c-0.4-0.9-0.6-1.8-0.6-2.9c0-1,0.1-1.9,0.5-2.8c0.4-0.9,0.8-1.7,1.4-2.4c0.6-0.7,1.3-1.2,2.3-1.6
		s1.9-0.6,3-0.6c0.8,0,1.8,0.1,2.9,0.4c1.1,0.2,2,0.4,2.5,0.4c0.6,0,1.3-0.1,1.8-0.4h1.4l0.8,7.5h-1.3c-1.2-2.2-2.4-3.9-3.7-5.1
		c-1.3-1.2-2.8-1.8-4.6-1.8c-0.8,0-1.7,0.2-2.4,0.6c-0.8,0.4-1.3,1-1.8,1.7c-0.4,0.7-0.6,1.5-0.6,2.3c0,1.2,0.4,2.1,1.2,2.8
		c0.8,0.6,2.1,1.1,3.7,1.5c1.6,0.4,3,0.6,4.3,0.8c1.3,0.2,2.3,0.5,3,0.9c1.4,0.7,2.5,1.6,3.2,2.8c0.8,1.2,1.1,2.5,1.1,4.1
		c0,1.5-0.4,2.8-1.1,4.1c-0.7,1.3-1.7,2.3-3,3c-1.3,0.8-2.7,1.1-4.2,1.1c-0.8,0-1.6-0.1-2-0.2c-0.4-0.1-1.2-0.4-2.3-0.8
		c-1.1-0.4-1.9-0.6-2.5-0.6c-1,0-1.8,0.4-2.3,1.1h-1.1V333H467.5z M440.4,342c-1.8-0.2-3.3-0.9-4.5-2.1c-1.1-1.1-1.7-2.6-1.7-4.3
		c0-0.7,0.1-1.3,0.2-1.6c0.1-0.4,0.4-1.1,0.8-1.8c-0.6,0.7-1.2,1.3-1.6,2.1c-0.4,0.6-0.6,1.5-0.6,2.4c0,1.1,0.3,2.1,0.8,2.9
		s1.3,1.6,2.2,2.1s1.8,0.7,2.8,0.7C439.3,342.1,439.9,342.1,440.4,342z M446.6,337.8c-0.3-0.4-0.7-1.1-1.3-1.9
		c-0.6-0.9-1.1-1.7-1.6-2.3c-0.5-0.6-1.1-1.4-1.8-2.3c-0.7-0.8-1.4-1.7-2.1-2.5c-1.2,1-2.1,1.9-2.5,2.8c-0.5,0.8-0.8,1.7-0.8,2.6
		c0,1,0.3,1.9,0.8,2.8c0.6,0.9,1.2,1.6,2.1,2.2c0.8,0.6,1.8,0.8,2.8,0.8C443.7,340,445.3,339.3,446.6,337.8z M455.6,340.9
		c-0.6,0.3-1.3,0.4-1.8,0.4c-0.9,0-1.8-0.3-2.5-0.8c-0.7-0.6-1.3-1.1-1.8-1.8c-0.5-0.7-1.5-2.1-2.9-4.2c-1.1-1.6-2.1-2.9-3-4
		c-0.9-1.1-2-2.3-3.1-3.7c-1.2-1.3-2-2.3-2.4-3c-0.4-0.7-0.6-1.3-0.6-2c0-0.3,0.1-0.7,0.4-1.3c-0.7,0.9-1.1,1.8-1.1,2.5
		c0,0.6,0.2,1.2,0.6,1.8c0.4,0.6,1.3,1.7,2.4,3c1.2,1.3,2.2,2.5,3.1,3.7c0.9,1.1,1.8,2.4,2.8,3.8c0.7,1.1,1.3,2.1,1.9,2.8
		c0.6,0.8,1.1,1.5,1.6,2.1s1.1,1.1,1.6,1.3c0.6,0.4,1.2,0.5,1.8,0.5C453.7,342.1,454.7,341.7,455.6,340.9z M442.5,325.2
		c1.5-1.1,2.2-2,2.2-2.8c0-0.4-0.2-0.9-0.6-1.6c-0.4-0.6-0.8-1.1-1.4-1.6c-0.6-0.4-1.1-0.7-1.6-0.7c-0.6,0-1.1,0.2-1.5,0.7
		c-0.4,0.4-0.6,0.9-0.6,1.3c0,0.4,0.1,0.7,0.3,1c0.2,0.4,0.5,0.7,0.8,1.2c0.4,0.4,0.8,0.8,1.1,1.2
		C441.6,324.3,442.1,324.8,442.5,325.2z M445.2,322.8c0.5-0.6,0.8-1.2,0.8-1.8c0-0.5-0.2-1.1-0.6-1.6c-0.4-0.5-0.8-1-1.3-1.3
		c-0.6-0.4-1.1-0.5-1.6-0.5c-0.3,0-0.8,0.1-1.4,0.4c0.8,0.1,1.4,0.4,2.1,0.8c0.6,0.5,1.1,1.1,1.6,1.8c0.4,0.6,0.6,1.1,0.6,1.5
		c0,0.1,0,0.2,0,0.2v0.1L445.2,322.8z M455.3,326.7h-3.7c0.8,0.4,1.3,1.1,1.3,2.1c0,0.1,0,0.1-0.1,0.3c0,0.1-0.1,0.2-0.1,0.3
		C453.4,328.2,454.2,327.4,455.3,326.7z M438.9,342.7c-1.2,0-2.3-0.3-3.3-0.8c-1-0.6-1.7-1.3-2.3-2.3c-0.6-1-0.8-2-0.8-3
		c0-0.8,0.1-1.5,0.4-2.2c0.3-0.7,0.6-1.3,1.1-1.9c0.5-0.6,1.1-1.3,1.9-2c1.1-1,2.1-1.8,3.1-2.5c-2-2.2-3-3.9-3-5.1
		c0-0.6,0.2-1.3,0.7-2.1c0.5-0.8,1.1-1.5,1.9-2.3c0.8-0.7,1.6-1.3,2.5-1.8c0.8-0.4,1.7-0.7,2.4-0.7c0.6,0,1.3,0.1,1.8,0.4
		c0.6,0.3,1,0.6,1.4,1.1c0.4,0.4,0.7,0.9,0.9,1.5c0.2,0.5,0.4,1,0.4,1.4c0,0.6-0.2,1.3-0.6,1.8c-0.4,0.6-0.9,1.1-1.4,1.6
		c-0.6,0.4-1.4,1.1-2.8,2.1c1.4,1.6,2.6,3,3.6,4.5c1,1.3,1.9,2.6,2.6,3.7c0.9-1.1,1.6-2.2,2.1-3.1c0.4-0.9,0.7-1.6,0.7-2.2
		c0-0.6-0.3-1.1-0.8-1.5s-1.1-0.6-2-0.6v-1h8.8v1c-0.9,0.1-1.8,0.5-2.5,1.2s-1.6,1.6-2.3,2.6s-1.8,2.6-3.1,4.5l1.1,1.7
		c0.8,1.2,1.4,2,1.8,2.4c0.4,0.4,0.9,0.6,1.5,0.6c0.9,0,1.8-0.7,2.6-2.2l0.9,0.4c-0.4,1.1-0.9,2-1.5,2.7c-0.6,0.7-1.2,1.2-1.8,1.6
		c-0.6,0.4-1.3,0.5-2.1,0.5c-0.9,0-1.9-0.4-2.8-1.1c-0.9-0.7-1.8-1.8-2.5-3c-1.3,1.3-2.7,2.3-4.2,3
		C441.6,342.4,440.2,342.7,438.9,342.7z M574,337.8l-2.1-5.2h-8.6l-1.2,3.1c-0.3,0.8-0.5,1.6-0.5,2.5c0,0.8,0.3,1.6,0.8,2.1
		c0.5,0.6,1.3,0.9,2.2,1v1h-8.4v-1c1.9-0.3,3.4-1.9,4.5-4.9l6.3-16.1c-0.4-0.6-0.6-0.9-1.1-1.1c-0.4-0.2-0.9-0.4-1.6-0.4v-0.9
		l4.4-1.5h1.7l8.4,21.4c0.5,1.2,1,2.1,1.5,2.5c0.5,0.4,1.2,0.8,2.2,1v1h-10.8v-1c0.9-0.1,1.6-0.2,2.1-0.4c0.5-0.2,0.7-0.6,0.7-1.1
		C574.6,339.2,574.3,338.5,574,337.8z M563.8,331.4h7.7l-3.9-9.8L563.8,331.4z M575.7,337.1l-6.5-16.4c-0.3-0.8-0.6-1.4-1-1.8
		c-0.4-0.4-0.8-0.5-1.4-0.5c-0.4,0-0.6,0-0.8,0.1c0.6,0.2,1,0.6,1.3,1c0.3,0.4,0.6,1,0.8,1.6l6.4,16.4c0.4,1,0.6,1.7,0.6,2.3
		c0,0.4-0.1,0.6-0.2,0.8s-0.4,0.4-0.8,0.7h0.4c0.6,0,1-0.1,1.3-0.4c0.3-0.3,0.5-0.6,0.5-1.1C576.3,339.1,576.1,338.3,575.7,337.1z
		 M558.2,341.2h3.5c-0.8-0.6-1.1-1.3-1.1-2.3c0-0.3,0-0.4,0.1-0.6c-0.4,0.6-0.6,1.1-1,1.6C559.2,340.4,558.8,340.8,558.2,341.2z"/>
</g>
<g>
	<path fill="#003552" d="M246.7,333h1.2c0.6,1.9,1.5,3.5,2.4,4.8c0.9,1.3,2,2.3,3,2.9c1.1,0.6,2.3,0.9,3.5,0.9
		c1.5,0,2.8-0.5,3.9-1.4c1.1-0.9,1.6-2.1,1.6-3.6c0-1.3-0.4-2.5-1.1-3.2c-0.7-0.8-1.6-1.3-2.5-1.6c-1-0.3-2.3-0.6-3.9-0.8
		c-1.6-0.3-2.8-0.5-3.5-0.8c-1.1-0.4-2-0.8-2.7-1.5c-0.7-0.6-1.3-1.4-1.7-2.3c-0.4-0.9-0.6-1.8-0.6-2.8s0.1-1.9,0.5-2.8
		c0.4-0.9,0.8-1.7,1.4-2.4c0.6-0.7,1.3-1.2,2.3-1.6c0.9-0.4,1.9-0.6,3-0.6c0.8,0,1.8,0.1,2.9,0.4c1.1,0.2,2,0.4,2.5,0.4
		c0.6,0,1.3-0.1,1.8-0.4h1.3l0.8,7.4h-1.3c-1.2-2.2-2.4-3.9-3.7-5.1c-1.3-1.1-2.8-1.8-4.6-1.8c-0.8,0-1.7,0.2-2.4,0.6
		c-0.8,0.4-1.3,1-1.8,1.7s-0.7,1.5-0.7,2.3c0,1.2,0.4,2.1,1.2,2.8c0.8,0.6,2.1,1.1,3.7,1.5c1.6,0.4,3,0.6,4.3,0.8
		c1.3,0.2,2.3,0.5,3,0.9c1.3,0.7,2.5,1.6,3.2,2.8c0.8,1.2,1.1,2.5,1.1,4c0,1.5-0.4,2.8-1.1,4c-0.7,1.3-1.7,2.3-3,3
		c-1.3,0.8-2.7,1.1-4.2,1.1c-0.8,0-1.6-0.1-2-0.2c-0.4-0.1-1.2-0.4-2.3-0.8c-1.1-0.4-1.9-0.6-2.5-0.6c-1,0-1.8,0.4-2.3,1.1h-1.1V333
		H246.7z M247.3,321.5c-0.2,0.9-0.3,1.7-0.3,2.3c0,0.6,0.1,1.3,0.4,1.9c0.2,0.6,0.6,1.3,1,1.8c0.4,0.6,0.9,1.1,1.4,1.4
		c0.7,0.5,1.5,0.8,2.3,1.1s2.1,0.4,3.7,0.7c1.6,0.3,2.8,0.6,3.4,0.8c1.1,0.4,2.1,1.1,2.7,1.9c0.6,0.8,1,1.9,1,3
		c0,0.8-0.3,1.8-0.8,2.8c1-1.1,1.5-2.3,1.5-3.6c0-1.4-0.4-2.5-1.1-3.4c-0.7-0.8-1.6-1.4-2.7-1.8c-1.1-0.4-2.5-0.8-4.5-1.1
		c-1.8-0.4-2.8-0.5-2.9-0.5c-1.7-0.4-3-1.2-3.9-2.3c-0.9-1.1-1.3-2.3-1.3-3.8c0-0.3,0-0.5,0-0.6
		C247.3,321.8,247.3,321.6,247.3,321.5z M247.3,336.4v4.8c0.4-0.4,0.7-0.8,1-0.9c0.3-0.1,0.8-0.2,1.3-0.1c-0.4-0.5-0.7-0.8-0.8-1.1
		c-0.1-0.2-0.4-0.6-0.6-1C247.8,337.8,247.6,337.1,247.3,336.4z M261,321.4l-0.6-3.5c-0.4,0.1-0.8,0.2-1.2,0.2
		c-0.4,0-0.9-0.1-1.4-0.2c0.5,0.3,0.9,0.6,1.3,1.1c0.4,0.4,0.8,0.8,1.1,1.4C260.5,320.9,260.8,321.2,261,321.4z"/>
	<path fill="#003552" d="M293.8,316.3h1.5v8h-1.1c-0.6-1.2-1.2-2.2-1.8-3.1c-0.6-0.9-1.3-1.6-2.1-2.3c-0.7-0.6-1.5-1.1-2.3-1.3
		c-0.8-0.3-1.7-0.4-2.6-0.4c-1.3,0-2.4,0.3-3.4,0.8c-1,0.6-1.9,1.3-2.6,2.4c-0.7,1.1-1.3,2.3-1.7,3.8c-0.4,1.5-0.6,3.1-0.6,4.8
		c0,2.4,0.4,4.5,1.2,6.4s1.9,3.3,3.3,4.3c1.4,1.1,3,1.6,4.9,1.6c1.1,0,2.2-0.2,3.3-0.6c1.1-0.4,2.1-0.9,3-1.7
		c0.9-0.8,1.8-1.7,2.7-2.8l1.1,0.6c-1.3,2-3,3.5-4.9,4.5c-1.9,1-4.1,1.5-6.6,1.5c-1.9,0-3.7-0.4-5.4-1c-1.6-0.7-3-1.6-4.2-2.8
		c-1.2-1.2-2.1-2.6-2.8-4.2c-0.6-1.6-0.9-3.3-0.9-5.1c0-1.9,0.4-3.7,1.1-5.4c0.7-1.7,1.6-3.1,2.8-4.3c1.2-1.2,2.6-2.1,4.2-2.8
		c1.6-0.6,3.3-1,5.1-1c0.7,0,1.3,0.1,1.9,0.1c0.6,0.1,1.3,0.3,2.1,0.5c0.8,0.2,1.3,0.4,1.6,0.4s0.6,0.1,1,0.1
		C292.4,317.4,293.1,317,293.8,316.3z M281.1,317.1c-1.8,0.7-3.4,1.6-4.6,2.5c-0.7,0.6-1.3,1.2-1.8,2c-0.6,0.7-1,1.5-1.3,2.3
		c-0.4,0.8-0.6,1.7-0.8,2.7c-0.2,0.9-0.3,1.8-0.3,2.8c0,2.2,0.4,4.2,1.3,6s2.3,3.4,4,4.6c1.8,1.2,3.9,2,6.4,2.3
		c-1.6-0.4-3-1.1-4.4-1.8c-1.3-0.8-2.5-1.8-3.4-3c-0.9-1.1-1.6-2.4-2.1-3.7c-0.5-1.3-0.7-2.8-0.7-4.2c0-1.2,0.2-2.5,0.6-3.8
		c0.4-1.3,1-2.5,1.7-3.5c0.8-1.2,1.6-2.1,2.5-2.8C278.9,318.6,279.9,317.9,281.1,317.1z M293.1,320.9l-0.1-3.1
		c-0.6,0.3-1.1,0.4-1.8,0.4c-0.3,0-0.6,0-0.8-0.1c0.6,0.5,1.1,0.9,1.6,1.3C292.3,319.9,292.6,320.4,293.1,320.9z"/>
	<path fill="#003552" d="M301.8,329.4c0-1.1,0.1-2.1,0.3-3.1c0.2-1,0.5-1.9,0.9-2.8c0.4-0.8,0.9-1.7,1.5-2.5c0.6-0.8,1.3-1.5,2-2.1
		c0.8-0.6,1.6-1.1,2.5-1.6c0.9-0.4,1.9-0.7,3-0.9c1.1-0.2,2.2-0.3,3.4-0.3c2.1,0,3.9,0.4,5.6,1.1s3.1,1.6,4.3,2.8s2.1,2.6,2.7,4.2
		c0.6,1.6,0.9,3.3,0.9,5c0,1.9-0.4,3.7-1.1,5.3c-0.7,1.6-1.7,3-3,4.2c-1.3,1.2-2.8,2.2-4.5,2.8s-3.5,1-5.5,1c-1.8,0-3.6-0.4-5.2-1
		s-3-1.6-4.2-2.8c-1.1-1.2-2.1-2.6-2.7-4.2C302.1,333.1,301.8,331.3,301.8,329.4z M308.6,318.3c-2,1.2-3.5,2.8-4.6,4.7
		c-1.1,1.9-1.6,4.1-1.6,6.5c0,2,0.4,3.8,1,5.4c0.7,1.6,1.7,3,3,4.2c1.3,1.2,3,2.1,4.9,2.8c-2.3-1.2-4.2-2.9-5.7-4.9
		c-1.4-2.1-2.1-4.7-2.1-7.8c0-1.6,0.2-2.9,0.6-4.2c0.4-1.2,0.9-2.4,1.7-3.5C306.5,320.4,307.4,319.3,308.6,318.3z M306.9,327.4
		c0,2.1,0.2,4,0.6,5.8c0.4,1.8,1.1,3.3,1.8,4.5c0.8,1.3,1.8,2.3,2.9,2.9c1.1,0.7,2.3,1,3.6,1c1.1,0,2.1-0.2,3.1-0.7
		c1-0.5,1.8-1.1,2.5-2.1c0.7-0.9,1.3-2.1,1.7-3.5c0.4-1.3,0.6-3,0.6-4.7c0-2-0.2-3.8-0.7-5.5c-0.5-1.7-1.1-3.1-1.9-4.3
		c-0.8-1.2-1.8-2.1-2.9-2.8s-2.3-1-3.6-1c-1.1,0-2.1,0.2-3.1,0.7c-1,0.5-1.8,1.2-2.5,2.1c-0.7,0.9-1.2,2-1.6,3.3
		C307,324.5,306.9,325.9,306.9,327.4z M318,317.5c1.3,0.7,2.5,1.7,3.5,3c1,1.3,1.7,2.8,2.2,4.6c0.5,1.8,0.7,3.7,0.7,5.9
		c0,2.1-0.3,3.7-0.8,5.2c-0.6,1.5-1.3,2.8-2.3,3.9c1-0.8,1.8-1.6,2.5-2.5s1.1-2.1,1.4-3.3c0.3-1.2,0.4-2.5,0.4-4.1
		c0-2.2-0.3-4.2-0.9-5.9c-0.6-1.8-1.5-3.3-2.6-4.5C320.9,318.6,319.5,317.8,318,317.5z"/>
	<path fill="#003552" d="M335.6,316.7h23.1l1.3,6h-1.3c-0.9-1.6-1.9-2.7-2.9-3.4c-1-0.7-2-1.1-2.9-1.3s-2.1-0.2-3.5-0.3v20.6
		c0,0.8,0.1,1.4,0.4,1.8c0.3,0.4,0.6,0.7,1.3,0.8c0.6,0.1,1.4,0.3,2.4,0.3v1h-12.7v-1c1.1,0,1.8-0.1,2.4-0.2s1-0.4,1.3-0.8
		c0.3-0.4,0.4-1.1,0.4-2.1v-20.4c-1.3,0-2.5,0.1-3.4,0.4c-1,0.2-1.8,0.6-2.4,1c-0.6,0.4-1.2,0.8-1.6,1.3c-0.4,0.5-1.1,1.2-1.9,2.3
		h-1.1L335.6,316.7z M339,317.7h-3l-0.7,3.1c0.6-0.8,1.1-1.4,1.6-1.8C337.4,318.6,338.1,318.2,339,317.7z M346.6,337.6v-17.8
		c0-0.7-0.1-1.2-0.2-1.6c-0.1-0.4-0.5-0.6-0.9-0.6v20.6c0,0.8-0.1,1.3-0.3,1.8c-0.2,0.4-0.5,0.8-1,1.2h0.4c0.8,0,1.4-0.3,1.7-0.8
		C346.5,339.9,346.6,339,346.6,337.6z M357.9,320.6l-0.8-2.9h-3.4c0.9,0.3,1.7,0.6,2.3,1.1C356.6,319.3,357.3,319.9,357.9,320.6z"/>
	<path fill="#003552" d="M387.7,316.3h1.5v8H388c-0.6-1.2-1.2-2.2-1.8-3.1c-0.6-0.9-1.3-1.6-2.1-2.3c-0.7-0.6-1.5-1.1-2.3-1.3
		c-0.8-0.3-1.7-0.4-2.6-0.4c-1.3,0-2.4,0.3-3.4,0.8c-1.1,0.6-1.9,1.3-2.6,2.4c-0.7,1.1-1.3,2.3-1.7,3.8c-0.4,1.5-0.6,3.1-0.6,4.8
		c0,2.4,0.4,4.5,1.2,6.4s1.9,3.3,3.3,4.3c1.4,1.1,3,1.6,4.9,1.6c1.1,0,2.2-0.2,3.3-0.6c1.1-0.4,2.1-0.9,3-1.7
		c0.9-0.8,1.8-1.7,2.7-2.8l1.1,0.6c-1.3,2-3,3.5-4.9,4.5c-1.9,1-4.1,1.5-6.6,1.5c-1.9,0-3.7-0.4-5.4-1c-1.6-0.7-3-1.6-4.2-2.8
		c-1.2-1.2-2.1-2.6-2.8-4.2s-0.9-3.3-0.9-5.1c0-1.9,0.4-3.7,1.1-5.4c0.7-1.7,1.6-3.1,2.8-4.3c1.2-1.2,2.6-2.1,4.2-2.8
		c1.6-0.6,3.3-1,5.1-1c0.7,0,1.3,0.1,1.9,0.1c0.6,0.1,1.3,0.3,2.1,0.5c0.8,0.2,1.3,0.4,1.6,0.4c0.3,0.1,0.6,0.1,1,0.1
		C386.3,317.4,387.1,317,387.7,316.3z M375,317.1c-1.8,0.7-3.4,1.6-4.6,2.5c-0.7,0.6-1.3,1.2-1.8,2c-0.6,0.7-1,1.5-1.3,2.3
		c-0.4,0.8-0.6,1.7-0.8,2.7c-0.2,0.9-0.3,1.8-0.3,2.8c0,2.2,0.4,4.2,1.3,6c0.9,1.8,2.3,3.4,4,4.6c1.8,1.2,3.9,2,6.4,2.3
		c-1.6-0.4-3-1.1-4.4-1.8c-1.3-0.8-2.5-1.8-3.4-3c-0.9-1.1-1.6-2.4-2.1-3.7c-0.5-1.3-0.7-2.8-0.7-4.2c0-1.2,0.2-2.5,0.6-3.8
		c0.4-1.3,1-2.5,1.7-3.5c0.8-1.2,1.6-2.1,2.5-2.8S373.9,317.9,375,317.1z M387,320.9l-0.1-3.1c-0.6,0.3-1.1,0.4-1.8,0.4
		c-0.3,0-0.6,0-0.8-0.1c0.6,0.5,1.1,0.9,1.6,1.3C386.2,319.9,386.6,320.4,387,320.9z"/>
	<path fill="#003552" d="M412.6,342.3v-1c1.2-0.1,2.1-0.2,2.5-0.4c0.5-0.2,0.8-0.5,1-1c0.1-0.5,0.2-1.2,0.2-2.3v-7.9h-12.9v7.5
		c0,0.9,0,1.6,0.1,2.1c0.1,0.4,0.2,0.8,0.4,1.1c0.2,0.3,0.6,0.5,1.1,0.6c0.5,0.1,1.2,0.2,2.1,0.3v1h-12.1v-1c0.8,0,1.6-0.1,2-0.1
		c0.5-0.1,0.8-0.3,1.1-0.5c0.3-0.3,0.5-0.6,0.6-1.1c0.1-0.4,0.1-1.1,0.1-1.9v-17c0-1.1-0.3-1.9-0.8-2.3c-0.6-0.4-1.6-0.6-3-0.6v-1
		h12.1v1c-1.2,0-2.1,0.1-2.5,0.4c-0.5,0.2-0.8,0.6-1,1.1c-0.1,0.6-0.2,1.4-0.2,2.5v6.6h12.9v-7.6c0-0.9-0.1-1.6-0.3-2
		c-0.2-0.4-0.6-0.7-1.1-0.8c-0.5-0.1-1.3-0.3-2.4-0.4v-1h12.1v1c-1.2,0.1-2.1,0.1-2.5,0.4c-0.5,0.2-0.8,0.6-1,1.1
		c-0.1,0.6-0.2,1.4-0.2,2.7v15.8c0,1,0.1,1.8,0.2,2.3c0.1,0.5,0.5,0.8,1,1.1c0.5,0.2,1.3,0.4,2.5,0.3v1h-12L412.6,342.3L412.6,342.3
		z M399.6,320.7V338c0,1.1-0.1,1.8-0.4,2.2c-0.2,0.4-0.6,0.8-0.9,1h0.5c0.7,0,1.2-0.3,1.5-0.8c0.3-0.6,0.4-1.3,0.4-2.5v-16.3
		c0-1.1-0.1-2-0.1-2.5c-0.1-0.5-0.3-0.9-0.6-1.2c-0.4-0.3-0.9-0.4-1.7-0.3c0.4,0.2,0.8,0.6,1,1C399.6,319.1,399.6,319.8,399.6,320.7
		z M417,320.5v18c0,0.9-0.1,1.5-0.3,1.8c-0.2,0.4-0.6,0.7-1,0.9h0.6c0.6,0,1.1-0.2,1.4-0.6c0.3-0.4,0.4-1,0.4-1.8v-18
		c0-1.1-0.1-1.9-0.4-2.5c-0.2-0.6-0.8-0.8-1.6-0.8h-0.5c0.5,0.2,0.8,0.6,1.1,1C417,319.1,417,319.7,417,320.5z"/>
</g>
<g>
	<path fill="#003552" d="M451.9,270.5c1,0,2.2,0.6,2.5,1.6l1.3,4.4h-10.9l-0.6-0.4c-0.1-0.5-0.6-0.7-1.1-0.7h-55.7
		c-0.5,0-0.9,0.2-1,0.7l-0.6,0.5h-10.9c0.1-0.6,0.3-1.2,0.4-1.8c0.1-0.6,0.3-1.3,0.5-1.9c0.4-1.2,1.2-2.3,2.8-2.3H451.9z
		 M376.8,273.1c-0.3,0.8-0.4,1.6-0.5,2.3h9c0.3-0.7,1.2-1.1,2-1.1H443c0.8,0,1.7,0.4,2.1,1.1h9.1l-0.8-2.9c-0.1-0.3-0.6-0.7-1.3-0.7
		h-73.5C377.5,271.7,377.1,272.2,376.8,273.1z M453,239.6h2.2v-15.4H453V239.6z M457.7,227.5c0.5,0,0.9,0.4,0.9,0.9v7
		c0,0.5-0.4,0.9-0.9,0.9h-1.4v3.3c0,0.6-0.6,1.2-1.2,1.2H453c-0.6,0-1.2-0.6-1.2-1.2v-15.5c0-0.6,0.6-1.2,1.2-1.2h2.1
		c0.6,0,1.2,0.6,1.2,1.2v3.3H457.7z M457.5,235v-6.4h-1.1v6.4H457.5z M406.1,235.9c-2.1,3.6-6.2,3.1-6.5,0.8
		c-0.1-0.4,0.4-0.4,0.5-0.1c1.5,2.5,5.4-0.8,6.2-3.5c-5.3,2.8-9.6,4-17.7,4.2c-1.7,0.1-4.4,0.4-5.5,2.1c-0.7,1.1-0.1,2.8,0.9,3.2
		c1.1,0.4,2.7-0.1,2.6-1.6c0-0.4,0.3-0.8,0.5-0.3c0.6,1.6-0.8,3-2.6,3c-3.7,0-5.1-6.3,1.1-7.2c-4.9-2.5-0.4-7.7,3.5-4.9
		c0.4,0.3,0.1,0.6-0.4,0.4c-4.2-1.7-5.9,3.5,1.1,4.1c3.6,0.3,11.4-1.6,17-5c5.7-3.5,12.9-5.6,19.3-3.6c0.8,0.3,3.3,0.6,3.7-1.1
		c0.4-1.8-2.9-2.7-3.7-0.4c0,0.1-0.4,0.2-0.4-0.3c0.1-2.9,4.7-2.5,5.3-0.1c0.6,2.4-1.6,3.1-1.6,3.1c2.8,1.4,5,4.5,7.4,6.3
		c4.9,3.7,8-2.3,3.7-3.3c2.8-0.7,5.3,3.7,1.5,5.7c-3.8,2.1-7.2-1.7-7.2-1.7s-0.4,5-5.8,4.5c-5.4-0.5-5.1-6.6-2.3-7
		c-2.5,3,1,6.6,4.2,5.2c3.3-1.4,2.3-5.4-2.1-8c-4.4-2.6-10-2.3-10.6,1c-0.6,3.4,4.5,3.5,4.6-0.4c0-0.3,0.4-0.7,0.4-0.3
		c1.2,4-3.3,5.8-5.7,3.6c-2.5-2.2-0.5-5.4,0.7-5.9c-2.3-0.1-11,2.4-10.7,6.4c0.1,2.6,4.4,3,4.4-0.9c0-0.4,0.4-0.5,0.5-0.1
		C414,239.3,406.3,239.9,406.1,235.9z M427.7,264.2c0.4,2.5,4.6,3,3.6-1.1c-1-4.1,1.8-8.1,4.9-11.3s0.6-6.4-1.7-6.2
		c-2.3,0.3-2.5,2.1-2.1,3c0.1,0.4-0.4,0.5-0.5,0.2c-2.5-5.2,6.9-6.7,7.1-0.5c0,0,5.2-5.2,6.9-13.2c1.7-8.1-4.2-11-6-8.6
		c0.1,0,1.6,1.2,0.2,2.2c-1.3,1-4.2-1.3-0.7-3.5c3.5-2.3,9.8,1.8,8,10.7s-8.6,14.6-12.4,19.3c-3.8,4.7-2.1,8.4,0.5,8.3
		c1.9-0.1,3-3.3-0.1-4c-0.4-0.1-0.3-0.6,0.1-0.5c4.1,0.1,3.9,5.5,0,5.8c3,0.8,7.6-1.6,7.6-5.9c0-5.7-4.4-4.8-4.4-2.9
		c0,1.9,2.4,1.3,2.4,0.5c0,0,0.2,0.1,0.2,0.5c0,1.3-3.7,2-3.5-1.2c0.1-3.2,7.1-3.7,6.6,4c3.5-1,4.9,2.3,3.3,4.2
		c-1.5,1.9-3.7,0.9-3.4,0.9c3.3-0.1,4.2-4.2,1.3-4.3c-1.3,0-2.2,2-4,3.5c-2.2,1.8-6.8,2.9-9.1-0.2c0.6,3.4-5.2,4.4-5.5,0.1
		C427.1,263.9,427.6,263.9,427.7,264.2z M383.9,260.5c0,0.8-0.1,1.2-0.3,1.5c-0.1,0.1-0.1,0.2-0.2,0.3c-0.3,0.1-0.4,0.1-0.4,0.1
		c-0.2-0.1-0.3-0.2-0.4-0.3c-0.1-0.2-0.3-0.7-0.3-1.5V256c-0.6-0.1-1-0.6-1-1.2v-3.6h-0.6c-2.7,0-3-0.4-3-3v-17h-3.3
		c-0.6,0-1.2-0.6-1.2-1.2v-1.1c0-0.6,0.6-1.2,1.2-1.2h3.3v-4.5c0-1.8,0.1-2.4,1.4-2.5v-1.1c0-0.7,0.5-1.1,1-1.1h0.5
		c0-0.8,0.6-1.3,1.2-1.3h0.3c0.6,0,1.2,0.6,1.2,1.3h54.1l0.3-0.3v-2.4l-1.3-1.3v-2.3h2.9v-1.4h1.2v1.3h2.9v2.3l-1.3,1.3v2.4l1.3,1.3
		v2.3h-2.9v0.5h2.8c0.4,0,0.8,0,1,0c0.2,0,0.4-0.1,0.4-0.1s0.1-0.1,0.1-0.4c0-0.2,0-0.8,0-1.3v-2.5c0-1.8,0.1-1.9,3-1.9
		c2.9,0,3,0.1,3,1.9v48.2v1c0,0.4,0,0.7-0.1,1.1c-0.1,0.7-0.5,1.3-1.4,1.4c-0.3,0.1-0.7,0-1.3,0h-26.4v-0.6c0-3.6,0.2-8,2.4-11.1
		c0.4-0.6,0.9-1.1,1.3-1.7c1.7-2,3.4-4.3,3.5-13.6h-32.3c-0.6,0-1,0-1.4,0c-0.4,0-0.7,0.1-1,0.1c-0.6,0.1-1.1,0.6-1.8,1.4
		c-0.4,0.6-1,1.4-1.8,2.5c-3,4.2-3.5,4.8-6.1,4.8l-0.1,3.6c0,0.6-0.4,1.1-0.9,1.1v4.6H383.9z M439.6,221.5h-2.9v-2.5h-53.2v1.6h3.3
		c2.2,0,2.3,0.4,2.3,2.6c0,0.8,0.8,6.1,5.5,6.1c1.4,0,3.7-0.6,6.1-1.5c2.3-0.8,4.6-1.6,6.1-2.1c5.3-1.8,11.7-3.7,18.5-3.7h14.5
		L439.6,221.5L439.6,221.5z M380.9,220.5v-1.6h-0.5c-0.2,0-0.4,0.2-0.4,0.6v1H380.9z M449.1,268.1c0.2,0,0.4,0,0.4,0
		c0.2-0.1,0.4-0.1,0.4-0.7c0.1-0.4,0.1-1,0.1-1.7v-48.5c0-0.2-0.8-0.2-1.8-0.2c-1,0-1.8,0-1.8,0.2v3.2c0,2.5-0.4,2.8-2.8,2.8h-18.5
		c-4.7,0-8.8,0.8-12.9,2.1c-4.1,1.2-8,2.6-12.3,4c-2.1,0.7-3.9,1.2-5.4,1.2c-5.9,0-6.7-6.4-6.7-7.3c0-0.1,0-0.4,0-0.8
		c0-0.1,0-0.4,0-0.4c-0.1-0.2-0.3-0.2-0.5-0.2h-0.6h-6.3c-0.4,0-0.8,0-1,0c-0.2,0-0.4,0.1-0.4,0.1c-0.1,0.1-0.1,0.1-0.1,0.4
		s0,0.6,0,1v4.5h3.4c0.6,0,1.2,0.6,1.2,1.2v1.1c0,0.6-0.6,1.2-1.2,1.2H379v17c0,0.5,0,0.9,0,1.1c0,0.3,0.1,0.4,0.1,0.5
		s0.2,0.1,0.5,0.1c0.3,0,0.6,0,1.1,0h3.7c1.1,0,1.7,0,2.3-0.5c0.7-0.6,1.5-1.6,3-3.8c0.3-0.4,0.6-0.8,0.9-1.3c0.3-0.5,0.6-1,1-1.4
		c0.7-0.8,1.6-1.6,2.8-1.8c0.6-0.1,1.2-0.1,2.2-0.1h33.5v0.6c0,10-1.8,12.6-3.7,14.8c-0.5,0.6-1,1.1-1.3,1.7c-0.4,0.6-0.7,1.2-1,2
		c-0.6,1.6-1.1,4-1.1,7.8h25.3C448.7,268.1,448.9,268.1,449.1,268.1z M374.6,229.9h7.9v-1.1h-7.9V229.9z M383.6,251.2h-1.1v3.6h1.1
		L383.6,251.2z M382.1,218.1v2.3h0.4v-2.3C382.4,218,382.1,218,382.1,218.1z M442.7,219.6l-0.7-0.7h-3.5l-0.7,0.7v0.8h4.9V219.6z
		 M439,217.5l2.4-0.4v-0.6l-2.4,0.4V217.5z M439,216.4l2.4-0.4v-0.6l-2.4,0.4V216.4z M439,215.3l1.2-0.2H439V215.3z M438.4,214.6
		h3.5l0.6-0.7V213h-4.9v0.8L438.4,214.6z M441.4,218.3v-0.6l-2.4,0.4v0.2H441.4z"/>
</g>
<path fill="#003552" d="M587.4,316.4h1.2c0.6,0,1-0.1,1.1-0.3c0.2-0.1,0.3-0.4,0.3-0.7c0-0.2-0.1-0.4-0.1-0.5s-0.2-0.3-0.4-0.4
	c-0.1-0.1-0.5-0.1-1-0.1h-1.1V316.4z M586.4,319.8v-6.1h2.1c0.7,0,1.2,0.1,1.6,0.1c0.4,0.1,0.6,0.3,0.8,0.6c0.2,0.3,0.3,0.6,0.3,0.9
	c0,0.4-0.1,0.8-0.5,1.1c-0.3,0.4-0.7,0.5-1.3,0.6c0.2,0.1,0.4,0.2,0.5,0.4c0.2,0.2,0.6,0.6,0.9,1.2l0.7,1.2h-1.2l-0.6-1
	c-0.4-0.8-0.8-1.2-1-1.4c-0.2-0.1-0.4-0.2-0.8-0.2h-0.5v2.6L586.4,319.8L586.4,319.8z M588.8,312c-0.8,0-1.6,0.2-2.3,0.6
	c-0.8,0.4-1.3,1-1.8,1.8c-0.4,0.8-0.6,1.6-0.6,2.3c0,0.8,0.2,1.6,0.6,2.3c0.4,0.8,1,1.3,1.8,1.8c0.8,0.4,1.6,0.6,2.3,0.6
	s1.6-0.2,2.3-0.6c0.8-0.4,1.3-1,1.8-1.8c0.4-0.8,0.6-1.6,0.6-2.3c0-0.8-0.2-1.6-0.6-2.3c-0.4-0.8-1-1.3-1.8-1.8
	C590.4,312.2,589.7,312,588.8,312z M588.8,311c0.9,0,1.8,0.2,2.8,0.7s1.6,1.2,2.1,2.1c0.5,0.9,0.8,1.8,0.8,2.8s-0.3,1.9-0.8,2.8
	s-1.2,1.6-2.1,2.1c-0.9,0.5-1.8,0.8-2.8,0.8s-1.9-0.3-2.8-0.8c-0.9-0.5-1.6-1.2-2.1-2.1c-0.5-0.9-0.8-1.8-0.8-2.8s0.3-1.9,0.8-2.8
	c0.5-0.9,1.2-1.6,2.1-2.1C587,311.3,587.9,311,588.8,311z"/>
</svg>
