<?xml version="1.0" encoding="utf-8"?>
<!-- Generator: Adobe Illustrator 17.1.0, SVG Export Plug-In . SVG Version: 6.00 Build 0)  -->
<!DOCTYPE svg PUBLIC "-//W3C//DTD SVG 1.1//EN" "http://www.w3.org/Graphics/SVG/1.1/DTD/svg11.dtd">
<svg version="1.1" id="Calque_1" xmlns="http://www.w3.org/2000/svg" xmlns:xlink="http://www.w3.org/1999/xlink" x="0px" y="0px"
	 viewBox="0 0 595.3 841.9" enable-background="new 0 0 595.3 841.9" xml:space="preserve">
<g>
	<g>
		<path fill="#1D1D1B" d="M85.8,398c-3.1-2.3-7.4-3.8-12.6-5.2c-4.5-1.2-7.4-2.3-9-3.3c-1.6-1.1-1.9-1.9-2-3.4c0-2.7,2-5.1,8-5.2
			c5,0,8.5,1.4,11.7,4.4l0.5,0.5l6.8-6.2l-0.7-0.6c-4.8-4.2-10.4-6.7-17.8-6.7c-5,0-9.5,1.3-12.8,3.7s-5.4,6-5.4,10.4
			s1.5,7.6,4.4,9.8c2.9,2.2,7.1,3.6,12.7,5.1c4.4,1.2,7.3,2.2,9,3.4c1.7,1.2,2.3,2.2,2.3,3.8c0,2.1-0.7,3.5-2.3,4.6
			c-1.6,1-4.2,1.6-7.8,1.6c-4.7,0-9.8-2.1-13.2-5.4l-0.5-0.5l-6.8,6l0.6,0.6c4.6,4.9,11.4,8,19.3,8c6.9,0,11.9-1.5,15.3-4.2
			s5-6.6,5-11.1C90.7,403.6,88.9,400.3,85.8,398z"/>
		<polygon fill="#1D1D1B" points="192.9,373.1 183.4,373.1 183.4,422.6 184.2,422.6 219.2,422.6 219.2,413.9 192.9,413.9 		"/>
		<path fill="#1D1D1B" d="M339.8,408.9c-2.6,3.7-5.6,5.6-10.9,5.6c-8.7,0-13.3-6.2-13.4-16.7c0.1-10.5,4.7-16.7,13.4-16.7
			c5.2,0,7.6,1.6,10.3,5.4l0.4,0.6l8.4-4.7l-0.4-0.7c-3.7-6.1-9.8-9.4-18.6-9.3c-7,0-12.8,2.6-16.9,7.2c-4,4.5-6.2,10.9-6.2,18.3
			s2.2,13.8,6.2,18.3c4,4.5,9.8,7.2,16.9,7.2l0,0c8.2,0,14.9-3.4,18.8-9.5l0.4-0.7l-7.9-4.8L339.8,408.9z"/>
		<polygon fill="#1D1D1B" points="371.3,381.7 386.7,381.7 386.7,422.6 396.2,422.6 396.2,381.7 411.5,381.7 411.5,373.1 
			371.3,373.1 		"/>
		<path fill="#1D1D1B" d="M536.7,378.9c-4.8-4-11.5-5.8-18.7-5.8h-15.2v49.5H518c7,0,13.6-1.8,18.5-5.8c4.9-4,8-10.3,8-18.9
			C544.5,389.2,541.5,382.9,536.7,378.9z M518,414h-5.7v-32.4h5.7c12.2,0.1,16.7,6.4,16.8,16.2C534.8,407.6,530.2,413.9,518,414z"/>
		<polygon fill="#1D1D1B" points="154.5,414 128.5,414 128.5,400.5 147.6,400.5 147.6,391.9 128.5,391.9 128.5,381.6 154.5,381.6 
			154.5,373.1 119,373.1 119,422.6 154.5,422.6 		"/>
		<polygon fill="#1D1D1B" points="281.9,414 255.8,414 255.8,400.5 274.9,400.5 274.9,391.9 255.8,391.9 255.8,381.6 281.9,381.6 
			281.9,373.1 246.3,373.1 246.3,422.6 281.9,422.6 		"/>
		<polygon fill="#1D1D1B" points="474,414 447.9,414 447.9,400.5 467,400.5 467,391.9 447.9,391.9 447.9,381.6 474,381.6 474,373.1 
			438.4,373.1 438.4,422.6 474,422.6 		"/>
	</g>
	<g>
		<path fill="#1D1D1B" d="M187,452.9v9h11.2v2.7H187v12.6h-3.6v-27.1h18.7v2.7L187,452.9L187,452.9z"/>
		<path fill="#1D1D1B" d="M303.1,477.2v-18.3V456c-0.3,1-1.2,3.1-1.9,4.5l-8.5,17.4l-8.4-17.4c-0.7-1.4-1.6-3.4-1.9-4.5v2.9v18.3
			H279v-27.1h4l7.5,16.2c0.8,1.6,1.9,4.1,2.3,5.3c0.4-1.2,1.6-3.7,2.3-5.3l7.6-16.2h3.9v27.1L303.1,477.2L303.1,477.2z"/>
		<path fill="#1D1D1B" d="M359.7,477.2v-18.3V456c-0.3,1-1.2,3.1-1.9,4.5l-8.5,17.4l-8.4-17.4c-0.7-1.4-1.6-3.4-1.9-4.5v2.9v18.3
			h-3.4v-27.1h4l7.5,16.2c0.8,1.6,1.9,4.1,2.3,5.3c0.4-1.2,1.6-3.7,2.3-5.3l7.6-16.2h3.9v27.1L359.7,477.2L359.7,477.2z"/>
		<polygon fill="#1D1D1B" points="411.5,474.4 395.8,474.4 395.8,464.1 407.5,464.1 407.5,461.4 395.8,461.4 395.8,452.9 
			411.5,452.9 411.5,450.1 392.2,450.1 392.2,477.2 411.5,477.2 		"/>
		<polygon fill="#1D1D1B" points="250.2,474.4 234.4,474.4 234.4,464.1 246.2,464.1 246.2,461.4 234.4,461.4 234.4,452.9 
			250.2,452.9 250.2,450.1 230.9,450.1 230.9,477.2 250.2,477.2 		"/>
	</g>
</g>
</svg>
