<?xml version="1.0" encoding="utf-8"?>
<!-- Generator: Adobe Illustrator 18.0.0, SVG Export Plug-In . SVG Version: 6.00 Build 0)  -->
<!DOCTYPE svg PUBLIC "-//W3C//DTD SVG 1.1//EN" "http://www.w3.org/Graphics/SVG/1.1/DTD/svg11.dtd">
<svg version="1.1" id="Calque_1" xmlns="http://www.w3.org/2000/svg" xmlns:xlink="http://www.w3.org/1999/xlink" x="0px" y="0px"
	 viewBox="0 0 841.9 595.3" enable-background="new 0 0 841.9 595.3" xml:space="preserve">
<g>
	<g>
		<path fill="#003552" d="M273.9,281.3c-2.1-1.6-5.1-2.6-8.8-3.6c-3.2-0.8-5.1-1.6-6.2-2.3c-1.1-0.8-1.3-1.3-1.3-2.3
			c0-1.8,1.4-3.5,5.6-3.6c3.5,0,5.9,1,8.1,3l0.4,0.4l4.7-4.3l-0.4-0.4c-3.3-2.9-7.2-4.7-12.3-4.7c-3.5,0-6.6,0.9-8.9,2.6
			c-2.3,1.7-3.7,4.2-3.7,7.2c0,3.1,1,5.2,3,6.8c2.1,1.6,4.9,2.5,8.8,3.5c3,0.8,5.1,1.6,6.3,2.3c1.2,0.8,1.6,1.5,1.6,2.6
			c0,1.5-0.5,2.5-1.6,3.2c-1.1,0.7-2.9,1.1-5.4,1.1c-3.3,0-6.8-1.5-9.1-3.7l-0.4-0.4l-4.7,4.2l0.4,0.4c3.2,3.4,7.9,5.5,13.4,5.5
			c4.7,0,8.3-1.1,10.6-2.9c2.3-1.9,3.5-4.6,3.5-7.7C277.3,285.2,276.1,282.9,273.9,281.3z"/>
		<polygon fill="#003552" points="348.2,264 341.6,264 341.6,298.4 342.1,298.4 366.5,298.4 366.5,292.4 348.2,292.4 		"/>
		<path fill="#003552" d="M450.1,288.9c-1.8,2.6-3.9,3.9-7.6,3.9c-6,0-9.2-4.3-9.3-11.6c0.1-7.3,3.3-11.6,9.3-11.6
			c3.6,0,5.2,1.1,7.1,3.7l0.3,0.4l5.8-3.3l-0.3-0.5c-2.6-4.2-6.8-6.5-12.9-6.5c-4.9,0-8.9,1.8-11.7,4.9c-2.8,3.2-4.3,7.6-4.3,12.7
			s1.6,9.5,4.3,12.7c2.8,3.2,6.9,5,11.7,4.9l0,0c5.7,0,10.3-2.4,13-6.6l0.3-0.5l-5.4-3.3L450.1,288.9z"/>
		<polygon fill="#003552" points="472,270 482.6,270 482.6,298.3 489.2,298.3 489.2,270 499.8,270 499.8,264 472,264 		"/>
		<path fill="#003552" d="M586.6,268c-3.4-2.8-7.9-4-12.9-4h-10.5v34.4h10.5c4.9,0,9.5-1.3,12.9-4c3.4-2.8,5.5-7.1,5.5-13.2
			C592.1,275.2,590,270.8,586.6,268z M573.7,292.4h-4v-22.5h4c8.4,0.1,11.6,4.5,11.7,11.2C585.3,288,582.1,292.3,573.7,292.4z"/>
		<polygon fill="#003552" points="321.6,292.4 303.5,292.4 303.5,283 316.8,283 316.8,277 303.5,277 303.5,270 321.6,270 321.6,264 
			297,264 297,298.4 321.6,298.4 		"/>
		<polygon fill="#003552" points="409.9,292.4 391.8,292.4 391.8,283 405.1,283 405.1,277 391.8,277 391.8,270 409.9,270 409.9,264 
			385.3,264 385.3,298.4 409.9,298.4 		"/>
		<polygon fill="#003552" points="543.2,292.4 525.1,292.4 525.1,283 538.4,283 538.4,277 525.1,277 525.1,270 543.2,270 543.2,264 
			518.5,264 518.5,298.4 543.2,298.4 		"/>
	</g>
	<g>
		<g>
			<path fill="#003552" d="M355.1,336.2v-8.8h-11v8.8h-2.5v-18.7h2.5v8h11v-8h2.5v18.7H355.1z"/>
			<path fill="#003552" d="M383.5,336.5c-5.5,0-9.1-4-9.1-9.6c0-5.7,3.7-9.7,9.2-9.7c5.5,0,9.2,4,9.2,9.6
				C392.7,332.5,389,336.5,383.5,336.5z M383.4,319c-3.8,0-6.6,3-6.6,7.8s2.9,7.8,6.8,7.8c3.8,0,6.6-3,6.6-7.8
				C390.2,322.1,387.3,319,383.4,319z"/>
			<path fill="#003552" d="M426.2,336.2v-12.7v-2c-0.2,0.7-0.8,2.1-1.3,3.1l-5.9,12.1l-5.8-12.1c-0.5-1-1.1-2.4-1.3-3.1v2v12.7h-2.4
				v-18.7h2.8l5.2,11.2c0.6,1.1,1.3,2.9,1.6,3.7c0.3-0.8,1.1-2.5,1.6-3.7l5.3-11.2h2.7v18.7H426.2z"/>
			<path fill="#003552" d="M464.7,336.2v-12.7v-2c-0.2,0.7-0.8,2.1-1.3,3.1l-5.9,12.1l-5.8-12.1c-0.5-1-1.1-2.4-1.3-3.1v2v12.7H448
				v-18.7h2.8l5.2,11.2c0.6,1.1,1.3,2.9,1.6,3.7c0.3-0.8,1.1-2.5,1.6-3.7l5.3-11.2h2.7v18.7H464.7z"/>
		</g>
		<polygon fill="#003552" points="499.8,334.3 488.9,334.3 488.9,327.2 497.1,327.2 497.1,325.3 488.9,325.3 488.9,319.3 
			499.8,319.3 499.8,317.4 486.5,317.4 486.5,336.2 499.8,336.2 		"/>
	</g>
</g>
</svg>
