<?xml version="1.0" encoding="utf-8"?>
<!-- Generator: Adobe Illustrator 17.1.0, SVG Export Plug-In . SVG Version: 6.00 Build 0)  -->
<!DOCTYPE svg PUBLIC "-//W3C//DTD SVG 1.1//EN" "http://www.w3.org/Graphics/SVG/1.1/DTD/svg11.dtd">
<svg version="1.1" id="Calque_1" xmlns="http://www.w3.org/2000/svg" xmlns:xlink="http://www.w3.org/1999/xlink" x="0px" y="0px"
	 viewBox="0 0 595.3 841.9" enable-background="new 0 0 595.3 841.9" xml:space="preserve">
<g>
	<g>
		<path fill="#1D1D1B" d="M89.7,397.9c-3-2.3-7.2-3.7-12.4-5.1c-4.5-1.2-7.2-2.2-8.8-3.2c-1.5-1.1-1.9-1.9-1.9-3.3
			c0-2.6,2-5,7.9-5.1c5,0,8.4,1.4,11.5,4.3l0.5,0.5l6.6-6.1l-0.6-0.6c-4.7-4.1-10.2-6.6-17.4-6.6c-4.9,0-9.3,1.3-12.6,3.7
			c-3.2,2.4-5.3,5.9-5.3,10.2c0,4.4,1.4,7.4,4.3,9.6c2.9,2.2,7,3.5,12.5,5c4.3,1.2,7.2,2.2,8.9,3.3c1.7,1.1,2.2,2.1,2.2,3.7
			c0,2.1-0.7,3.5-2.3,4.5c-1.6,1-4.1,1.6-7.6,1.6c-4.7,0-9.6-2.1-12.9-5.3l-0.5-0.5l-6.7,5.9l0.6,0.6c4.5,4.8,11.2,7.8,19,7.8
			c6.7,0,11.7-1.5,15-4.1c3.3-2.7,4.9-6.5,4.9-10.9C94.5,403.3,92.8,400.1,89.7,397.9z"/>
		<polygon fill="#1D1D1B" points="194.8,373.4 185.5,373.4 185.5,422 186.2,422 220.6,422 220.6,413.5 194.8,413.5 		"/>
		<path fill="#1D1D1B" d="M338.9,408.6c-2.6,3.7-5.5,5.5-10.7,5.5c-8.5,0-13-6.1-13.1-16.4c0.1-10.3,4.6-16.4,13.1-16.4
			c5.1,0,7.4,1.6,10.1,5.3l0.4,0.6l8.2-4.6l-0.4-0.7c-3.7-5.9-9.6-9.2-18.3-9.2c-6.9,0-12.6,2.6-16.5,7c-3.9,4.5-6.1,10.7-6.1,18
			s2.2,13.5,6.1,18s9.7,7.1,16.5,7l0,0c8,0,14.6-3.4,18.4-9.4l0.4-0.7l-7.7-4.7L338.9,408.6z"/>
		<polygon fill="#1D1D1B" points="369.8,381.8 384.8,381.8 384.8,421.9 394.2,421.9 394.2,381.8 409.2,381.8 409.2,373.4 
			369.8,373.4 		"/>
		<path fill="#1D1D1B" d="M532,379.1c-4.8-4-11.2-5.7-18.3-5.7h-14.9V422h14.9c6.9,0,13.4-1.8,18.2-5.7c4.8-4,7.8-10.1,7.8-18.6
			C539.7,389.2,536.8,383,532,379.1z M513.7,413.5h-5.6v-31.8h5.6c11.9,0.1,16.4,6.3,16.5,15.9C530.1,407.3,525.6,413.4,513.7,413.5
			z"/>
		<polygon fill="#1D1D1B" points="157.2,413.5 131.6,413.5 131.6,400.3 150.4,400.3 150.4,391.8 131.6,391.8 131.6,381.8 
			157.2,381.8 157.2,373.4 122.3,373.4 122.3,422 157.2,422 		"/>
		<polygon fill="#1D1D1B" points="282,413.5 256.5,413.5 256.5,400.3 275.2,400.3 275.2,391.8 256.5,391.8 256.5,381.8 282,381.8 
			282,373.4 247.2,373.4 247.2,422 282,422 		"/>
		<polygon fill="#1D1D1B" points="470.5,413.5 444.9,413.5 444.9,400.3 463.7,400.3 463.7,391.8 444.9,391.8 444.9,381.8 
			470.5,381.8 470.5,373.4 435.6,373.4 435.6,422 470.5,422 		"/>
	</g>
	<g>
		<g>
			<path fill="#1D1D1B" d="M204.5,475.5V463H189v12.5h-3.5V449h3.5v11.3h15.6V449h3.5v26.5H204.5z"/>
			<path fill="#1D1D1B" d="M244.7,475.9c-7.8,0-12.9-5.6-12.9-13.6c0-8,5.2-13.7,13-13.7c7.8,0,13,5.6,13,13.6
				C257.7,470.2,252.4,475.9,244.7,475.9z M244.6,451.2c-5.4,0-9.4,4.3-9.4,11c0,6.7,4.1,11,9.6,11c5.4,0,9.4-4.3,9.4-11
				C254.2,455.6,250.1,451.2,244.6,451.2z"/>
			<path fill="#1D1D1B" d="M305.1,475.5v-18v-2.8c-0.3,1-1.2,3-1.9,4.4l-8.4,17.1l-8.2-17.1c-0.7-1.4-1.5-3.4-1.8-4.4v2.8v18h-3.4
				V449h3.9l7.4,15.9c0.8,1.6,1.9,4.1,2.2,5.2c0.4-1.1,1.5-3.6,2.2-5.2l7.5-15.9h3.8v26.5H305.1z"/>
			<path fill="#1D1D1B" d="M359.6,475.5v-18v-2.8c-0.3,1-1.2,3-1.9,4.4l-8.4,17.1l-8.2-17.1c-0.7-1.4-1.5-3.4-1.8-4.4v2.8v18h-3.4
				V449h3.9l7.4,15.9c0.8,1.6,1.9,4.1,2.2,5.2c0.4-1.1,1.5-3.6,2.2-5.2l7.5-15.9h3.8v26.5H359.6z"/>
		</g>
		<polygon fill="#1D1D1B" points="409.2,472.8 393.8,472.8 393.8,462.7 405.3,462.7 405.3,460 393.8,460 393.8,451.6 409.2,451.6 
			409.2,448.9 390.3,448.9 390.3,475.5 409.2,475.5 		"/>
	</g>
</g>
</svg>
