<?xml version="1.0" encoding="utf-8"?>
<!-- Generator: Adobe Illustrator 17.1.0, SVG Export Plug-In . SVG Version: 6.00 Build 0)  -->
<!DOCTYPE svg PUBLIC "-//W3C//DTD SVG 1.1//EN" "http://www.w3.org/Graphics/SVG/1.1/DTD/svg11.dtd">
<svg version="1.1" id="Calque_1" xmlns="http://www.w3.org/2000/svg" xmlns:xlink="http://www.w3.org/1999/xlink" x="0px" y="0px"
	 viewBox="0 0 595.3 841.9" enable-background="new 0 0 595.3 841.9" xml:space="preserve">
<g>
	<path fill="#1D1D1B" d="M368.8,468.7c-12.9,7.2-29.2,12.2-45.3,12.2c-36.4,0-62.2-18.8-62.2-50.9c0-28.8,21.1-50.9,60.4-50.9
		c29.3,0,56.1,16.1,53.5,50.7c-17.9-0.4-35.8-0.6-53.5-0.6h-37.2c-2.4,23.2,13.7,43,45.6,43c17.9,0,31.9-8.9,39-14.3L368.8,468.7z
		 M354.6,421.5c-0.5-18-6.8-36-32.9-36c-24.8,0-35.6,18.6-37.2,36H354.6z"/>
	<path fill="#1D1D1B" d="M511.2,354.3V381h26.6v7.8h-26.6v51.6c0,12.5-3.1,33.3,18.8,33.3c4,0,5.4-0.7,7.8-1.4v4.9
		c-6.7,2.5-9.7,3.7-17.3,3.7c-20,0-33-7.2-31.7-32.3v-59.8h-16.3V381h16.3v-20.3L511.2,354.3z"/>
	<path fill="#1D1D1B" d="M74,405.8c0-14.9,21.3-18.3,34.7-18.3c16.9,0,38.5,9.4,47.1,17.5l-0.3-11.7c-13.6-8.9-29.3-14-46.6-14.3
		c-8.5-0.2-21.8,0.9-32.6,5.1c-10.9,4.2-22.9,11.5-22.9,24.5c0,37.8,87.4,20,87.4,43.2c0,11-17.8,18.9-38.8,18.9
		c-19.7,0-38.5-8.1-47.1-16.2l0.3,11.4c12,8.9,31.6,14.6,47.8,14.6c31.1,0,60.4-10.2,60.4-32.4C163.6,415,74,430.1,74,405.8z"/>
</g>
</svg>
