<?xml version="1.0" encoding="utf-8"?>
<!-- Generator: Adobe Illustrator 17.1.0, SVG Export Plug-In . SVG Version: 6.00 Build 0)  -->
<!DOCTYPE svg PUBLIC "-//W3C//DTD SVG 1.1//EN" "http://www.w3.org/Graphics/SVG/1.1/DTD/svg11.dtd">
<svg version="1.1" id="Calque_1" xmlns="http://www.w3.org/2000/svg" xmlns:xlink="http://www.w3.org/1999/xlink" x="0px" y="0px"
	 viewBox="0 0 595.3 841.9" enable-background="new 0 0 595.3 841.9" xml:space="preserve">
<g>
	<g>
		<defs>
			<rect id="SVGID_1_" x="53" y="386" width="487.6" height="68"/>
		</defs>
		<clipPath id="SVGID_2_">
			<use xlink:href="#SVGID_1_"  overflow="visible"/>
		</clipPath>
		<path clip-path="url(#SVGID_2_)" fill="#1D1D1B" d="M52,454h487.6v-68H52V454z M223.8,430.2c-0.7,4.4-4.4,7.2-4.4,7.2
			c-2.8,1.9-6.4,2.9-6.4,2.9c-6.6,1.7-13.1,0.7-13.1,0.7c-3.3-0.3-6.7-1.6-6.7-1.6c-5.3-2.2-7.1-5-7.1-5c-2.3-3-2.3-6.4-2.3-6.4
			h11.1c0.2,1.6,1.4,2.9,1.4,2.9c2.4,2.9,8,2.7,8,2.7c5.8,0.2,7.6-2.2,7.6-2.2c1.7-2.1,0.4-4.5,0.4-4.5c-1.1-2.4-8-3.7-12.2-4.8
			c-8.1-2-11.4-4.9-11.4-4.9c-3.7-3.1-4.1-8.7-2.8-11.5c1-2.8,3.5-4.4,3.5-4.4c6.2-4.4,15.4-3.9,15.4-3.9c16.8,0.5,18,8.6,18.1,10
			h-11.1c0,0-0.7-1.4-2.2-2c-2.5-1.1-5-1.2-5-1.2c-3.8-0.4-6.1,1.3-6.1,1.3c-2.8,2.2-0.8,4.5-0.8,4.5c1.2,1.2,2.6,1.6,2.6,1.6
			c2.9,1,6.8,1.7,6.8,1.7c6.9,1.6,8.8,2.6,8.8,2.6c5.5,2.4,7.2,5.6,7.2,5.6C225.2,425.6,223.8,430.2,223.8,430.2 M256,440.6h-12.7
			v-32.9H230v-7.9h39.4v7.9H256V440.6z M285.8,440.6H268V431h17.7L285.8,440.6L285.8,440.6z M337.4,440.6h-39.7v-40.8h39.6v7.9
			h-26.8v8.5h26.8v7.9h-26.8v8.6h26.9V440.6z M405.1,440.6h-12v-31.7H393l-10.1,31.7h-11.2l-10.4-31.7H361v31.7h-11.6v-40.8h18.7
			l9,30.3h0.1l9.3-30.3H405v40.8H405.1z M429.8,440.6h-12.7v-40.8h12.7V440.6z M474.5,440.6h-32.7v-40.8h12.8V432h19.9L474.5,440.6
			L474.5,440.6z M523.6,440.6H484v-40.8h39.6v7.9h-26.8v8.5h26.8v7.9h-26.8v8.6h26.9v7.9H523.6z"/>
	</g>
</g>
</svg>
