<?xml version="1.0" encoding="utf-8"?>
<!-- Generator: Adobe Illustrator 17.1.0, SVG Export Plug-In . SVG Version: 6.00 Build 0)  -->
<!DOCTYPE svg PUBLIC "-//W3C//DTD SVG 1.1//EN" "http://www.w3.org/Graphics/SVG/1.1/DTD/svg11.dtd">
<svg version="1.1" id="Calque_1" xmlns="http://www.w3.org/2000/svg" xmlns:xlink="http://www.w3.org/1999/xlink" x="0px" y="0px"
	 viewBox="0 0 595.3 841.9" enable-background="new 0 0 595.3 841.9" xml:space="preserve">
<g>
	<path fill="#1D1D1B" stroke="#1D1D1B" stroke-width="1.1084" stroke-miterlimit="3.8637" d="M146.7,361.2c0,0,2.5-2.5,3.1-3.6
		c0,0,2,2.6,3.5,3.7l1.7-2.9c0,0-3.1-2.9-3.5-3.8c0,0,2-4.4,2.6-9.2l-1.3-1.9c0,0-0.7,0.1-1.1,0.1h-4.3c0,0-0.8,0-1-0.2v3.4
		c0,0,0.4-0.1,1.1-0.1h3.3c0,0-0.6,3.9-1,4.8c0,0-1.4-3.2-1.5-4.4l-2.3,1.5c0,0,1.3,4.8,2.2,6c0,0-2,2.9-3.2,3.8L146.7,361.2
		L146.7,361.2z"/>
	<path fill="#1D1D1B" d="M142.6,361.5c-0.9,0.3-4.3,0.2-4.3,0.2l-0.8-3.3c0.4,0.1,3.3,0.2,3.3,0.2c1,0,1.1-2.6,1.1-2.6
		c0.7-5.8,0.4-10.2,0.4-10.2h-1.7v11.9c-0.2,0-1.3,0-1.3,0h-4c-0.3,0-1.5,0-1.5,0c0-0.1,0.1-1.5,0.1-1.5v-5.6l-1.1,2.7
		c-0.3-0.3-1.6-3.6-1.6-3.6V365c0,0.9,0.1,1.7,0.1,1.7h-3.5c0.2-0.7,0.2-1.7,0.2-1.7v-13.1c-0.6,3-2.9,6.8-2.9,6.8l-1.8-3.2
		c3.4-4.9,4.3-10.4,4.3-10.4h-2c-0.4,0-1.3,0.2-1.3,0.2v-3.7c0.4,0,1.1,0.1,1.1,0.1h2.3V337c0-0.4-0.2-1.2-0.2-1.2h3.8
		c-0.1,0.2-0.3,1.3-0.3,1.3v4.6h1.2c0.3,0,0.8-0.1,0.8-0.1v3.4c-0.1,0-0.9-0.1-0.9-0.1h-1c0.4,1.7,2.8,5,2.8,5V346
		c0-0.2-0.1-1.1-0.1-1.1c0.2,0,1,0.1,1,0.1h3l2.1-4.5h-4.8c-1.2,0-2.1,0.1-2.1,0.1v-3.4c0.2,0.1,1.7,0.2,1.7,0.2h17.8
		c0.5,0,1.7-0.1,1.7-0.1v3.5c-0.2-0.1-1.7-0.1-1.7-0.1h-9l-1.1,2.4h1.9c0.3,0,1.3-0.1,1.3-0.1s-0.4,11.6-0.8,14
		C144.8,356.9,144.5,360.9,142.6,361.5L142.6,361.5z M138,347.7h-1.6v7h1.6V347.7L138,347.7z"/>
	<path fill="none" stroke="#1D1D1B" stroke-width="1.1084" stroke-miterlimit="3.8637" d="M142.6,361.5c-0.9,0.3-4.3,0.2-4.3,0.2
		l-0.8-3.3c0.4,0.1,3.3,0.2,3.3,0.2c1,0,1.1-2.6,1.1-2.6c0.7-5.8,0.4-10.2,0.4-10.2h-1.7v11.9c-0.2,0-1.3,0-1.3,0h-4
		c-0.3,0-1.5,0-1.5,0c0-0.1,0.1-1.5,0.1-1.5v-5.6l-1.1,2.7c-0.3-0.3-1.6-3.6-1.6-3.6V365c0,0.9,0.1,1.7,0.1,1.7h-3.5
		c0.2-0.7,0.2-1.7,0.2-1.7v-13.1c-0.6,3-2.9,6.8-2.9,6.8l-1.8-3.2c3.4-4.9,4.3-10.4,4.3-10.4h-2c-0.4,0-1.3,0.2-1.3,0.2v-3.7
		c0.4,0,1.1,0.1,1.1,0.1h2.3V337c0-0.4-0.2-1.2-0.2-1.2h3.8c-0.1,0.2-0.3,1.3-0.3,1.3v4.6h1.2c0.3,0,0.8-0.1,0.8-0.1v3.4
		c-0.1,0-0.9-0.1-0.9-0.1h-1c0.4,1.7,2.8,5,2.8,5V346c0-0.2-0.1-1.1-0.1-1.1c0.2,0,1,0.1,1,0.1h3l2.1-4.5h-4.8
		c-1.2,0-2.1,0.1-2.1,0.1v-3.4c0.2,0.1,1.7,0.2,1.7,0.2h17.8c0.5,0,1.7-0.1,1.7-0.1v3.5c-0.2-0.1-1.7-0.1-1.7-0.1h-9l-1.1,2.4h1.9
		c0.3,0,1.3-0.1,1.3-0.1s-0.4,11.6-0.8,14C144.8,356.9,144.5,360.9,142.6,361.5L142.6,361.5z M138,347.7h-1.6v7h1.6V347.7L138,347.7
		z"/>
	<path fill="#1D1D1B" stroke="#1D1D1B" stroke-width="1.1084" stroke-miterlimit="3.8637" d="M132.4,365.7v-3.6c0,0,1,0.2,1.4,0.2
		H153c0,0,1.3-0.1,1.6-0.1v3.5c0,0-0.9-0.2-1.5-0.2h-19.2C133.8,365.5,132.8,365.6,132.4,365.7L132.4,365.7z"/>
	<path fill="#1D1D1B" d="M183.1,352.1c-0.3,0-1.3,0-1.3,0H171c-0.6,0-1.5,0-1.5,0c0.1-0.3,0.2-1.8,0.2-1.8v-3.4H165
		c0,14-3.8,19.7-3.8,19.7l-2.7-3.1c3.6-5,2.9-23.1,2.9-23.1c0-0.4-0.1-1.9-0.1-1.9c0.2,0.1,2.2,0.1,2.2,0.1h9.8v-1.3
		c0-0.3-0.1-1.2-0.1-1.2h3.9c-0.1,0.3-0.1,1.1-0.1,1.1v1.4h10.6c0.6,0,1.6-0.1,1.6-0.1v3.4c-0.2,0-1.3,0-1.3,0h-4.7v2.2h4.8
		c0.3,0,1.2-0.1,1.2-0.1v3.2c-0.2,0-1.1,0-1.1,0h-5c0,0,0,3.5,0,4C183,351.3,183.1,352.1,183.1,352.1L183.1,352.1z M169.7,341.6H165
		v2.3h4.7V341.6L169.7,341.6z M179.6,341.6h-6.5v2.3h6.5V341.6L179.6,341.6z M179.6,346.9h-6.5v2.3h6.5V346.9L179.6,346.9z"/>
	<path fill="none" stroke="#1D1D1B" stroke-width="1.1084" stroke-miterlimit="3.8637" d="M183.1,352.1c-0.3,0-1.3,0-1.3,0H171
		c-0.6,0-1.5,0-1.5,0c0.1-0.3,0.2-1.8,0.2-1.8v-3.4H165c0,14-3.8,19.7-3.8,19.7l-2.7-3.1c3.6-5,2.9-23.1,2.9-23.1
		c0-0.4-0.1-1.9-0.1-1.9c0.2,0.1,2.2,0.1,2.2,0.1h9.8v-1.3c0-0.3-0.1-1.2-0.1-1.2h3.9c-0.1,0.3-0.1,1.1-0.1,1.1v1.4h10.6
		c0.6,0,1.6-0.1,1.6-0.1v3.4c-0.2,0-1.3,0-1.3,0h-4.7v2.2h4.8c0.3,0,1.2-0.1,1.2-0.1v3.2c-0.2,0-1.1,0-1.1,0h-5c0,0,0,3.5,0,4
		C183,351.3,183.1,352.1,183.1,352.1L183.1,352.1z M169.7,341.6H165v2.3h4.7V341.6L169.7,341.6z M179.6,341.6h-6.5v2.3h6.5V341.6
		L179.6,341.6z M179.6,346.9h-6.5v2.3h6.5V346.9L179.6,346.9z"/>
	<path fill="#1D1D1B" d="M167.7,354h15.1c0.3,0,1.2-0.1,1.2-0.1l1.8,1.9c-0.2,0.2-1.9,2.2-2.3,2.7c-0.4,0.5-3.8,3-3.8,3
		c3.5,1.5,9.9,1.6,9.9,1.6l-1.4,3.7c-8.2-1-11.9-3.2-11.9-3.2c-3.2,2-11.2,3.2-11.2,3.2l-1.3-3.4c5.2,0,9.4-1.8,9.4-1.8
		c-1.9-1-4.5-4.7-4.5-4.7l-2.4,0.1v-3.2C166.2,353.9,167.7,354,167.7,354L167.7,354z M176.3,360.1c0.9-0.2,4.1-3.2,4.1-3.2h-8
		C173.2,358.1,176.3,360.1,176.3,360.1L176.3,360.1z"/>
	<path fill="none" stroke="#1D1D1B" stroke-width="1.1084" stroke-miterlimit="3.8637" d="M167.7,354h15.1c0.3,0,1.2-0.1,1.2-0.1
		l1.8,1.9c-0.2,0.2-1.9,2.2-2.3,2.7c-0.4,0.5-3.8,3-3.8,3c3.5,1.5,9.9,1.6,9.9,1.6l-1.4,3.7c-8.2-1-11.9-3.2-11.9-3.2
		c-3.2,2-11.2,3.2-11.2,3.2l-1.3-3.4c5.2,0,9.4-1.8,9.4-1.8c-1.9-1-4.5-4.7-4.5-4.7l-2.4,0.1v-3.2C166.2,353.9,167.7,354,167.7,354
		L167.7,354z M176.3,360.1c0.9-0.2,4.1-3.2,4.1-3.2h-8C173.2,358.1,176.3,360.1,176.3,360.1L176.3,360.1z"/>
	<path fill="#1D1D1B" d="M202.6,337.2v2.1h4.2c0.7,0,1.5-0.1,1.5-0.1v3.3c-0.2,0-1.3-0.1-1.3-0.1h-4.4v2.1h4.7v0.9
		c3.3-3.9,4.2-9.3,4.2-9.3l3.7,0.6c-0.1,0.9-1,3.6-1,3.6h8c0.7,0,1.8-0.1,1.8-0.1v3.6c-0.2,0-1.8-0.1-1.8-0.1h-9.5
		c-0.2,0.5-2,3.1-2,3.1h8.4c1,0,1.7-0.1,1.7-0.1l2,2.5c-2.8,1.9-8.8,9.4-9.2,10.1c-0.4,0.8-1.5,2.3-0.4,3c1,0.7,3.9,0.4,5.5,0.3
		c1.6,0,1.9-1.5,1.9-1.5c0.4-1.3,0.2-3.8,0.2-3.8l3.5,1.3c-0.4,6-2.2,6.5-2.2,6.5c-1.6,1.1-6.1,0.9-6.1,0.9c-4.4,0-5.5-0.7-5.5-0.7
		c-3.2-1.7-0.6-6.6,0.5-8.3c1-1.7,6.4-7.1,6.4-7.1h-6.1c-0.4,0-1.3,0.2-1.3,0.2v-2.5l-0.9,1l-1.7-1.6v8.5c0,0.5,0,1,0,1
		c-0.2,0-1.3,0-1.3,0h-3.2v2.2h3.5c0.6,0,1.6-0.1,1.6-0.1v3.4c-0.1,0-1.4-0.1-1.4-0.1h-3.8v3.5c0,0.7,0.2,1.5,0.2,1.5h-3.7
		c0.1-0.3,0.2-1.5,0.2-1.5V362c0,0-3.8,0-4.1,0c-0.6,0-1.6,0.1-1.6,0.1v-3.5c0.1,0.1,1.5,0.2,1.5,0.2h4.2v-2.3h-3.6
		c-0.5,0-1.2,0-1.2,0c0-0.2,0.1-1.1,0.1-1.1v-9.5c0-0.3-0.1-1.4-0.1-1.4c0.3,0,0.6,0,1.4,0.1h3.4v-2.2c0,0-3.9,0-4.4,0H195
		c-0.5,0-1.3,0.1-1.3,0.1V339c0.1,0.1,1.5,0.2,1.5,0.2h4.3v-2c0-0.4-0.1-1.1-0.1-1.1h3.7C202.8,336.2,202.6,337.2,202.6,337.2
		L202.6,337.2z M204.1,347.2h-6.2v1.9h6.2V347.2L204.1,347.2z M204.1,351.7h-6.2v1.9h6.2V351.7L204.1,351.7z"/>
	<path fill="none" stroke="#1D1D1B" stroke-width="1.1084" stroke-miterlimit="3.8637" d="M202.6,337.2v2.1h4.2
		c0.7,0,1.5-0.1,1.5-0.1v3.3c-0.2,0-1.3-0.1-1.3-0.1h-4.4v2.1h4.7v0.9c3.3-3.9,4.2-9.3,4.2-9.3l3.7,0.6c-0.1,0.9-1,3.6-1,3.6h8
		c0.7,0,1.8-0.1,1.8-0.1v3.6c-0.2,0-1.8-0.1-1.8-0.1h-9.5c-0.2,0.5-2,3.1-2,3.1h8.4c1,0,1.7-0.1,1.7-0.1l2,2.5
		c-2.8,1.9-8.8,9.4-9.2,10.1c-0.4,0.8-1.5,2.3-0.4,3c1,0.7,3.9,0.4,5.5,0.3c1.6,0,1.9-1.5,1.9-1.5c0.4-1.3,0.2-3.8,0.2-3.8l3.5,1.3
		c-0.4,6-2.2,6.5-2.2,6.5c-1.6,1.1-6.1,0.9-6.1,0.9c-4.4,0-5.5-0.7-5.5-0.7c-3.2-1.7-0.6-6.6,0.5-8.3c1-1.7,6.4-7.1,6.4-7.1h-6.1
		c-0.4,0-1.3,0.2-1.3,0.2v-2.5l-0.9,1l-1.7-1.6v8.5c0,0.5,0,1,0,1c-0.2,0-1.3,0-1.3,0h-3.2v2.2h3.5c0.6,0,1.6-0.1,1.6-0.1v3.4
		c-0.1,0-1.4-0.1-1.4-0.1h-3.8v3.5c0,0.7,0.2,1.5,0.2,1.5h-3.7c0.1-0.3,0.2-1.5,0.2-1.5V362c0,0-3.8,0-4.1,0c-0.6,0-1.6,0.1-1.6,0.1
		v-3.5c0.1,0.1,1.5,0.2,1.5,0.2h4.2v-2.3h-3.6c-0.5,0-1.2,0-1.2,0c0-0.2,0.1-1.1,0.1-1.1v-9.5c0-0.3-0.1-1.4-0.1-1.4
		c0.3,0,0.6,0,1.4,0.1h3.4v-2.2c0,0-3.9,0-4.4,0H195c-0.5,0-1.3,0.1-1.3,0.1V339c0.1,0.1,1.5,0.2,1.5,0.2h4.3v-2
		c0-0.4-0.1-1.1-0.1-1.1h3.7C202.8,336.2,202.6,337.2,202.6,337.2L202.6,337.2z M204.1,347.2h-6.2v1.9h6.2V347.2L204.1,347.2z
		 M204.1,351.7h-6.2v1.9h6.2V351.7L204.1,351.7z"/>
	<path fill="#1D1D1B" stroke="#1D1D1B" stroke-width="1.1084" stroke-miterlimit="3.8637" d="M228.9,342.9l2.8,0.3
		c0,0,0.2,6.6-1,9.8l-2.8-1.4C227.9,351.7,229,347.7,228.9,342.9L228.9,342.9z"/>
	<path fill="#1D1D1B" d="M240.7,337.2c0,0,1.2,0,1.6,0h11.2c0,0,1,0,1.3-0.1c0,0,0,0.6,0,1c0,0.4,0,0.1,0,0.1v5.6c0,0,0,0.5,0,1
		c0,0-0.8,0-1.2,0h-11.4c0,0-1.2,0.1-1.4,0.1c0,0,0-1.1,0-1.5v-4.6C240.8,338.7,240.8,337.7,240.7,337.2L240.7,337.2z M251.4,339.9
		h-7.3v2.2h7.3V339.9L251.4,339.9z"/>
	<path fill="none" stroke="#1D1D1B" stroke-width="1.1084" stroke-miterlimit="3.8637" d="M240.7,337.2c0,0,1.2,0,1.6,0h11.2
		c0,0,1,0,1.3-0.1c0,0,0,0.6,0,1c0,0.4,0,0.1,0,0.1v5.6c0,0,0,0.5,0,1c0,0-0.8,0-1.2,0h-11.4c0,0-1.2,0.1-1.4,0.1c0,0,0-1.1,0-1.5
		v-4.6C240.8,338.7,240.8,337.7,240.7,337.2L240.7,337.2z M251.4,339.9h-7.3v2.2h7.3V339.9L251.4,339.9z"/>
	<path fill="#1D1D1B" d="M232.4,336.6h3.7c0,0-0.2,1-0.2,1.5v6.4c0,0,1.8-2.1,1.9-2.9l2,2.3l-1.4,1.8c0,0,0.8,0.1,1.4,0.1h5.8
		c0,0,1.2,0,1.4,0c0,0,0,0.8,0,1.3v5.4h1.4V347c0,0,0-1.1,0-1.3c0,0,1.1,0,1.6,0h6.4c0,0,1,0,1.4,0c0,0,0,0.7,0,1.1v4.9
		c0,0,0,0.7,0.1,1.1c0,0-0.7,0-1.2,0h-0.1c-0.5,0-6.9,0-6.9,0v1.8h6.8c0,0,1.7,0,1.9-0.1v3.1c0,0-0.8,0-1.9,0h-5.2
		c0,0,1.7,2.7,8.1,5l-1.8,3.3c0,0-6.5-3.5-7.9-6.4v6.6c0,0,0,0.8,0.2,1H246c0,0,0.3-0.7,0.3-1.2v-6.2c0,0-2.5,4-8.1,6.5l-1.8-2.7
		c0,0,5.8-2.2,8.1-5.7h-5.3c0,0-0.8,0.2-0.9,0.2l1.1,0.9l-1.7,3.2c0,0-2.9-2.7-3.1-3.8c0,0-1.1,5-4.2,8.3l-2.5-2.8
		c0,0,4-3.5,4.5-11.6c0,0,0.5-11.5,0.3-13.6C232.5,338.3,232.5,336.7,232.4,336.6L232.4,336.6z M235.7,348.3c0,0.5-0.4,5.9-0.4,5.9
		c0.1,0.6,2.4,3.4,2.4,3.4v-3.1c0.2,0,1.9,0.1,1.9,0.1h6.3v-1.7h-6.6c-0.4,0-1.2,0.1-1.2,0.1c0-0.2,0-1.1,0-1.1v-4.7
		c0-0.4-0.1-1.1-0.1-1.1C237.7,346.4,235.7,348.3,235.7,348.3L235.7,348.3z M244.2,348.2H241v2.2h3.1L244.2,348.2L244.2,348.2z
		 M254.7,348.2h-3.6v2.2h3.6V348.2L254.7,348.2z"/>
	<path fill="none" stroke="#1D1D1B" stroke-width="1.1084" stroke-miterlimit="3.8637" d="M232.4,336.6h3.7c0,0-0.2,1-0.2,1.5v6.4
		c0,0,1.8-2.1,1.9-2.9l2,2.3l-1.4,1.8c0,0,0.8,0.1,1.4,0.1h5.8c0,0,1.2,0,1.4,0c0,0,0,0.8,0,1.3v5.4h1.4V347c0,0,0-1.1,0-1.3
		c0,0,1.1,0,1.6,0h6.4c0,0,1,0,1.4,0c0,0,0,0.7,0,1.1v4.9c0,0,0,0.7,0.1,1.1c0,0-0.7,0-1.2,0h-0.1c-0.5,0-6.9,0-6.9,0v1.8h6.8
		c0,0,1.7,0,1.9-0.1v3.1c0,0-0.8,0-1.9,0h-5.2c0,0,1.7,2.7,8.1,5l-1.8,3.3c0,0-6.5-3.5-7.9-6.4v6.6c0,0,0,0.8,0.2,1H246
		c0,0,0.3-0.7,0.3-1.2v-6.2c0,0-2.5,4-8.1,6.5l-1.8-2.7c0,0,5.8-2.2,8.1-5.7h-5.3c0,0-0.8,0.2-0.9,0.2l1.1,0.9l-1.7,3.2
		c0,0-2.9-2.7-3.1-3.8c0,0-1.1,5-4.2,8.3l-2.5-2.8c0,0,4-3.5,4.5-11.6c0,0,0.5-11.5,0.3-13.6C232.5,338.3,232.5,336.7,232.4,336.6
		L232.4,336.6z M235.7,348.3c0,0.5-0.4,5.9-0.4,5.9c0.1,0.6,2.4,3.4,2.4,3.4v-3.1c0.2,0,1.9,0.1,1.9,0.1h6.3v-1.7h-6.6
		c-0.4,0-1.2,0.1-1.2,0.1c0-0.2,0-1.1,0-1.1v-4.7c0-0.4-0.1-1.1-0.1-1.1C237.7,346.4,235.7,348.3,235.7,348.3L235.7,348.3z
		 M244.2,348.2H241v2.2h3.1L244.2,348.2L244.2,348.2z M254.7,348.2h-3.6v2.2h3.6V348.2L254.7,348.2z"/>
	<path fill="#1D1D1B" stroke="#1D1D1B" stroke-width="1.1084" stroke-miterlimit="3.8637" d="M282.7,337.3H278c0,0,0,1.1,0,1.5
		c0,0-0.3,16.6-0.3,17.3c0,0.7-0.1,6.9,4.9,9c0,0,13.8,4.4,17.9-9.8c0,0,0.8-2.2,0.9-2.4l-4.1-2.7c0,0-0.7,6.1-3.8,9.2
		c-3.1,3-8.8,3-10.3,0.9c-1.5-2-1.1-5.9-1.1-9.6s0.3-11.1,0.4-11.5C282.6,338.7,282.7,337.3,282.7,337.3L282.7,337.3z"/>
	<path fill="#1D1D1B" stroke="#1D1D1B" stroke-width="1.1084" stroke-miterlimit="3.8637" d="M304.7,341.9v3.9h5.3
		c0,0-2.6,8.3-6.4,13.4l3.9,2.4c0,0,5.4-11,6.7-15.9c0,0,5.7-0.5,6.5-0.8V341c0,0-1.7,0.6-5.4,1l1.3-5.2l-4.4-0.5c0,0,0,1-0.1,1.3
		l-0.9,4.7l-4.4-0.1C306.5,342.1,305,342,304.7,341.9L304.7,341.9z"/>
	<path fill="#1D1D1B" stroke="#1D1D1B" stroke-width="1.1084" stroke-miterlimit="3.8637" d="M322.2,343.8l2-3.3
		c0,0,5.9,2.1,9.5,4.6l-1.8,3.4C331.9,348.5,326.9,345.3,322.2,343.8L322.2,343.8z"/>
	<path fill="#1D1D1B" d="M322.8,347.7h4c0,0-0.4,1.2-0.4,1.7c0,0.5,0,5.6,0.2,6.6c0,0,4.8,2.1,7,4.6l-1.9,3.8c0,0-2.2-2.5-5.2-4.3
		c0,0,0.4,4.2-3.3,5.6c-3.7,1.4-8.2,0.2-9.8-1.7c-1.6-1.9-2-6.2,1.5-8.3c0,0,2.6-1.8,7.7-0.7C322.6,355,322.3,348.9,322.8,347.7
		L322.8,347.7z M316.4,359.4c-1.3,2.3,0.8,3.5,4,3.1c3-0.3,2.2-3.9,2.2-3.9C321.2,358.3,317.7,357.1,316.4,359.4L316.4,359.4z"/>
	<path fill="none" stroke="#1D1D1B" stroke-width="1.1084" stroke-miterlimit="3.8637" d="M322.8,347.7h4c0,0-0.4,1.2-0.4,1.7
		c0,0.5,0,5.6,0.2,6.6c0,0,4.8,2.1,7,4.6l-1.9,3.8c0,0-2.2-2.5-5.2-4.3c0,0,0.4,4.2-3.3,5.6c-3.7,1.4-8.2,0.2-9.8-1.7
		c-1.6-1.9-2-6.2,1.5-8.3c0,0,2.6-1.8,7.7-0.7C322.6,355,322.3,348.9,322.8,347.7L322.8,347.7z M316.4,359.4c-1.3,2.3,0.8,3.5,4,3.1
		c3-0.3,2.2-3.9,2.2-3.9C321.2,358.3,317.7,357.1,316.4,359.4L316.4,359.4z"/>
	<path fill="#1D1D1B" stroke="#1D1D1B" stroke-width="1.1084" stroke-miterlimit="3.8637" d="M338.1,342.9c0,0,4.5,0.5,12.4-0.5
		c0,0-2-4.8-2.1-5.3l4.2-0.6c0,0,1.4,4.8,2,5.5c0,0,5.9-1.1,8.2-2l0.5,4.1c0,0-6.3,1.4-7.4,1.5c0,0,3,6,6,9.7l-3.9,1.8
		c0,0-2.1-2.5-8.5-2.2c0,0-6.8-0.1-6.6,4.1s12.5,3.7,17.4,0.8l0.5,4.4c0,0-7.3,2.7-14.8,1.6c0,0-8.7-1-7.2-8.7c0,0,2.4-8.6,16.8-4.8
		c0,0-3.3-5.1-3.7-6.3c0,0-9.6,1.1-12.3,0.9h-1.3L338.1,342.9"/>
	<path fill="#1D1D1B" stroke="#1D1D1B" stroke-width="1.1084" stroke-miterlimit="3.8637" d="M368.6,339.5h4.5c0,0-0.1,1.2-0.1,1.8
		c0,0-0.6,10.2,1.4,15.8c0,0,2.4,7.6,5.1-5.3l3.3,3.1c0,0-2.1,9.2-6.4,9.3C372.2,364.3,368.4,359.2,368.6,339.5L368.6,339.5z"/>
	<path fill="#1D1D1B" stroke="#1D1D1B" stroke-width="1.1084" stroke-miterlimit="3.8637" d="M381.9,342.7l3.6-1.8
		c0,0,5.9,7.4,7,18.4l-3.6,1.5C388.8,360.8,388.6,350.7,381.9,342.7L381.9,342.7z"/>
	<path fill="#1D1D1B" stroke="#1D1D1B" stroke-width="1.1084" stroke-miterlimit="3.8637" d="M273.7,335.6h-3.4
		c-3.8,5.2-5.8,10.5-5.8,15.4c0,4.8,1.9,10.1,5.8,15.4h3.4c-3-4.9-4.4-9.8-4.4-15.4C269.3,345.5,270.8,340.5,273.7,335.6
		L273.7,335.6z"/>
	<path fill="#1D1D1B" stroke="#1D1D1B" stroke-width="1.1084" stroke-miterlimit="3.8637" d="M394.9,335.6c3,4.9,4.4,9.8,4.4,15.4
		c0,5.5-1.5,10.5-4.4,15.4h3.4c3.8-5.2,5.7-10.5,5.7-15.4c0-4.8-1.9-10.1-5.7-15.4H394.9L394.9,335.6z"/>
	<path fill="#1D1D1B" d="M45,414.5c1,20,14.8,31.7,38.8,31.7c24.4,0,37.9-11.5,37.9-30.9c0-9.7-3.8-16.8-11.5-21.1
		c-5.9-3.3-13.2-5.1-22.1-7.3c-15.6-3.9-22.8-3.9-22.8-12.8c0-7.2,5.6-11.4,15.9-11.4c11.7,0,18.1,4.8,18.7,14h18.6
		c-0.7-18.9-13.5-29.9-35.6-29.9c-23.7,0-36.3,10.2-36.3,28.4c0,9.8,3.5,17.2,10.2,21.4c6.2,3.9,13.2,5.2,20.8,6.9
		c17.3,3.9,25.2,5.6,25.2,14.3c0,7.9-5.6,11.9-17,11.9c-13,0-20-4.7-21.5-15.2H45L45,414.5z"/>
	<path fill="#1D1D1B" d="M185.2,374h-18.6v41.1c0,9.2-5.6,14.7-14.3,14.7c-8,0-10.7-4.3-10.7-13.8v-42H123v47.4c0,16,7.6,24,22.9,24
		c8.8,0,15.9-3.4,21.1-10.1v8.3h18.2V374L185.2,374z"/>
	<path fill="#1D1D1B" d="M187.1,471.5h18.1v-36.6c4.6,7.2,11.7,11,20.6,11c16.2,0,28.6-14.5,28.6-37.5c0-22.3-11.9-36.8-28.8-36.8
		c-9,0-15.3,3.7-20.7,11.8V374h-17.7v97.5H187.1z M235.8,409.2c0,13-5.9,20.6-15.1,20.6c-9.8,0-15.6-7.3-15.6-20.6
		c0-14.3,5.4-21.6,15.2-21.6C230.3,387.6,235.8,395.1,235.8,409.2L235.8,409.2z"/>
	<path fill="#1D1D1B" d="M274.8,401.5c0.8-9.4,5.6-14.4,13.6-14.4c8.6,0,13.5,5,13.8,14.4H274.8L274.8,401.5z M302,422.5
		c-2.4,5.4-6.4,7.7-12.7,7.7c-9,0-13.9-5.6-14.4-16.5h46.5c0.1-1.7,0.1-3.3,0.1-4.8c0-24-12.2-37.3-33.4-37.3
		c-20,0-32.5,14-32.5,36.8c0,23.5,13,37.6,32.8,37.6c16.5,0,28.4-8.9,32.2-23.5L302,422.5L302,422.5z"/>
	<path fill="#1D1D1B" d="M323.2,443.6h18.6v-36.8c0-10.5,5.2-15.7,15.3-15.7h6.2v-18.9c-0.9-0.1-1.8-0.1-2.8-0.1
		c-8.9,0-15.2,4.3-20,13.9v-12h-17.3L323.2,443.6L323.2,443.6z"/>
	<path fill="#1D1D1B" d="M379.5,408.3c0-13,5.9-20.6,15.1-20.6c9.8,0,15.6,7.3,15.6,20.6c0,14.3-5.4,21.6-15.2,21.6
		C385,430,379.5,422.5,379.5,408.3L379.5,408.3z M428.2,349.4h-18.1v33.3c-4.6-7.2-11.8-11-20.7-11c-16.2,0-28.6,14.5-28.6,37.5
		c0,22.3,11.9,36.8,28.8,36.8c9,0,15.5-3.7,20.8-11.8v9.4h17.7v-94.2H428.2z"/>
	<path fill="#1D1D1B" d="M430,443.6h18.6v-36.8c0-10.5,5.2-15.7,15.3-15.7h6.2v-18.9c-0.9-0.1-1.8-0.1-2.8-0.1
		c-8.9,0-15.2,4.3-20,13.9v-12H430V443.6L430,443.6z"/>
	<path fill="#1D1D1B" d="M482.2,471.5c3.3,0.4,5.9,0.5,7.9,0.5c13.4,0,18.3-4.2,22.4-16l28.6-82h-19.5l-14.3,50.2L492.5,374h-20.4
		l25,70.4c0.3,0.7,0.4,1.4,0.4,2c0,6.9-3.7,10.4-11,10.4c-1,0-2.6,0-4.3-0.3V471.5L482.2,471.5z"/>
	<polygon fill="#1D1D1B" points="531.2,425.1 549.2,425.1 549.2,443 531.2,443 	"/>
</g>
</svg>
