<?xml version="1.0" encoding="utf-8"?>
<!-- Generator: Adobe Illustrator 18.0.0, SVG Export Plug-In . SVG Version: 6.00 Build 0)  -->
<!DOCTYPE svg PUBLIC "-//W3C//DTD SVG 1.1//EN" "http://www.w3.org/Graphics/SVG/1.1/DTD/svg11.dtd">
<svg version="1.1" id="Calque_1" xmlns="http://www.w3.org/2000/svg" xmlns:xlink="http://www.w3.org/1999/xlink" x="0px" y="0px"
	 viewBox="0 0 841.9 595.3" enable-background="new 0 0 841.9 595.3" xml:space="preserve">
<g>
	<path fill="#003552" d="M314.2,255.4c0,0,1.8-1.8,2.2-2.5c0,0,1.4,1.8,2.5,2.6l1.2-2.1c0,0-2.2-2.1-2.5-2.7c0,0,1.4-3.1,1.8-6.5
		l-0.9-1.3c0,0-0.5,0.1-0.8,0.1h-3c0,0-0.6,0-0.7-0.1v2.4c0,0,0.3-0.1,0.8-0.1h2.3c0,0-0.4,2.8-0.7,3.4c0,0-1-2.3-1.1-3.1l-1.6,1.1
		c0,0,0.9,3.4,1.6,4.2c0,0-1.4,2.1-2.3,2.7L314.2,255.4L314.2,255.4z"/>
	<path fill="#003552" d="M311.3,255.6c-0.6,0.2-3,0.1-3,0.1l-0.6-2.3c0.3,0.1,2.3,0.1,2.3,0.1c0.7,0,0.8-1.8,0.8-1.8
		c0.5-4.1,0.3-7.2,0.3-7.2h-1.2v8.4c-0.1,0-0.9,0-0.9,0h-2.8c-0.2,0-1.1,0-1.1,0c0-0.1,0.1-1.1,0.1-1.1v-4l-0.8,1.9
		c-0.2-0.2-1.1-2.5-1.1-2.5v10.8c0,0.6,0.1,1.2,0.1,1.2h-2.5c0.1-0.5,0.1-1.2,0.1-1.2v-9.3c-0.4,2.1-2.1,4.8-2.1,4.8l-1.3-2.3
		c2.4-3.5,3-7.4,3-7.4h-1.4c-0.3,0-0.9,0.1-0.9,0.1v-2.6c0.3,0,0.8,0.1,0.8,0.1h1.6v-3.3c0-0.3-0.1-0.8-0.1-0.8h2.7
		c-0.1,0.1-0.2,0.9-0.2,0.9v3.3h0.8c0.2,0,0.6-0.1,0.6-0.1v2.4c-0.1,0-0.6-0.1-0.6-0.1h-0.7c0.3,1.2,2,3.5,2,3.5v-2.8
		c0-0.1-0.1-0.8-0.1-0.8c0.1,0,0.7,0.1,0.7,0.1h2.1l1.5-3.2H306c-0.8,0-1.5,0.1-1.5,0.1v-2.4c0.1,0.1,1.2,0.1,1.2,0.1h12.6
		c0.4,0,1.2-0.1,1.2-0.1v2.5c-0.1-0.1-1.2-0.1-1.2-0.1H312l-0.8,1.7h1.3c0.2,0,0.9-0.1,0.9-0.1s-0.3,8.2-0.6,9.9
		C312.9,252.4,312.7,255.2,311.3,255.6L311.3,255.6z M308.1,245.8h-1.1v4.9h1.1V245.8L308.1,245.8z"/>
	<path fill="#003552" d="M311.3,255.6c-0.6,0.2-3,0.1-3,0.1l-0.6-2.3c0.3,0.1,2.3,0.1,2.3,0.1c0.7,0,0.8-1.8,0.8-1.8
		c0.5-4.1,0.3-7.2,0.3-7.2h-1.2v8.4c-0.1,0-0.9,0-0.9,0h-2.8c-0.2,0-1.1,0-1.1,0c0-0.1,0.1-1.1,0.1-1.1v-4l-0.8,1.9
		c-0.2-0.2-1.1-2.5-1.1-2.5v10.8c0,0.6,0.1,1.2,0.1,1.2h-2.5c0.1-0.5,0.1-1.2,0.1-1.2v-9.3c-0.4,2.1-2.1,4.8-2.1,4.8l-1.3-2.3
		c2.4-3.5,3-7.4,3-7.4h-1.4c-0.3,0-0.9,0.1-0.9,0.1v-2.6c0.3,0,0.8,0.1,0.8,0.1h1.6v-3.3c0-0.3-0.1-0.8-0.1-0.8h2.7
		c-0.1,0.1-0.2,0.9-0.2,0.9v3.3h0.8c0.2,0,0.6-0.1,0.6-0.1v2.4c-0.1,0-0.6-0.1-0.6-0.1h-0.7c0.3,1.2,2,3.5,2,3.5v-2.8
		c0-0.1-0.1-0.8-0.1-0.8c0.1,0,0.7,0.1,0.7,0.1h2.1l1.5-3.2H306c-0.8,0-1.5,0.1-1.5,0.1v-2.4c0.1,0.1,1.2,0.1,1.2,0.1h12.6
		c0.4,0,1.2-0.1,1.2-0.1v2.5c-0.1-0.1-1.2-0.1-1.2-0.1H312l-0.8,1.7h1.3c0.2,0,0.9-0.1,0.9-0.1s-0.3,8.2-0.6,9.9
		C312.9,252.4,312.7,255.2,311.3,255.6L311.3,255.6z M308.1,245.8h-1.1v4.9h1.1V245.8L308.1,245.8z"/>
	<path fill="#003552" d="M304.1,258.6V256c0,0,0.7,0.1,1,0.1h13.6c0,0,0.9-0.1,1.1-0.1v2.5c0,0-0.6-0.1-1.1-0.1h-13.6
		C305.1,258.4,304.4,258.5,304.1,258.6L304.1,258.6z"/>
	<path fill="#003552" d="M340,249c-0.2,0-0.9,0-0.9,0h-7.6c-0.4,0-1.1,0-1.1,0c0.1-0.2,0.1-1.3,0.1-1.3v-2.4h-3.3
		c0,9.9-2.7,13.9-2.7,13.9l-1.9-2.2c2.5-3.5,2.1-16.3,2.1-16.3c0-0.3-0.1-1.3-0.1-1.3c0.1,0.1,1.6,0.1,1.6,0.1h6.9v-0.9
		c0-0.2-0.1-0.8-0.1-0.8h2.8c-0.1,0.2-0.1,0.8-0.1,0.8v1h7.5c0.4,0,1.1-0.1,1.1-0.1v2.4c-0.1,0-0.9,0-0.9,0H340v1.6h3.4
		c0.2,0,0.8-0.1,0.8-0.1v2.3c-0.1,0-0.8,0-0.8,0H340c0,0,0,2.5,0,2.8C339.9,248.4,340,249,340,249L340,249z M330.5,241.5h-3.3v1.6
		h3.3V241.5L330.5,241.5z M337.5,241.5h-4.6v1.6h4.6V241.5L337.5,241.5z M337.5,245.3h-4.6v1.6h4.6V245.3L337.5,245.3z"/>
	<path fill="#003552" d="M340,249c-0.2,0-0.9,0-0.9,0h-7.6c-0.4,0-1.1,0-1.1,0c0.1-0.2,0.1-1.3,0.1-1.3v-2.4h-3.3
		c0,9.9-2.7,13.9-2.7,13.9l-1.9-2.2c2.5-3.5,2.1-16.3,2.1-16.3c0-0.3-0.1-1.3-0.1-1.3c0.1,0.1,1.6,0.1,1.6,0.1h6.9v-0.9
		c0-0.2-0.1-0.8-0.1-0.8h2.8c-0.1,0.2-0.1,0.8-0.1,0.8v1h7.5c0.4,0,1.1-0.1,1.1-0.1v2.4c-0.1,0-0.9,0-0.9,0H340v1.6h3.4
		c0.2,0,0.8-0.1,0.8-0.1v2.3c-0.1,0-0.8,0-0.8,0H340c0,0,0,2.5,0,2.8C339.9,248.4,340,249,340,249L340,249z M330.5,241.5h-3.3v1.6
		h3.3V241.5L330.5,241.5z M337.5,241.5h-4.6v1.6h4.6V241.5L337.5,241.5z M337.5,245.3h-4.6v1.6h4.6V245.3L337.5,245.3z"/>
	<path fill="#003552" d="M329.1,250.3h10.7c0.2,0,0.8-0.1,0.8-0.1l1.3,1.3c-0.1,0.1-1.3,1.6-1.6,1.9c-0.3,0.4-2.7,2.1-2.7,2.1
		c2.5,1.1,7,1.1,7,1.1l-1,2.6c-5.8-0.7-8.4-2.3-8.4-2.3c-2.3,1.4-7.9,2.3-7.9,2.3l-0.9-2.4c3.7,0,6.6-1.3,6.6-1.3
		c-1.3-0.7-3.2-3.3-3.2-3.3l-1.7,0.1v-2.3C328,250.2,329.1,250.3,329.1,250.3L329.1,250.3z M335.1,254.6c0.6-0.1,2.9-2.3,2.9-2.3
		h-5.7C333,253.2,335.1,254.6,335.1,254.6L335.1,254.6z"/>
	<path fill="#003552" d="M329.1,250.3h10.7c0.2,0,0.8-0.1,0.8-0.1l1.3,1.3c-0.1,0.1-1.3,1.6-1.6,1.9c-0.3,0.4-2.7,2.1-2.7,2.1
		c2.5,1.1,7,1.1,7,1.1l-1,2.6c-5.8-0.7-8.4-2.3-8.4-2.3c-2.3,1.4-7.9,2.3-7.9,2.3l-0.9-2.4c3.7,0,6.6-1.3,6.6-1.3
		c-1.3-0.7-3.2-3.3-3.2-3.3l-1.7,0.1v-2.3C328,250.2,329.1,250.3,329.1,250.3L329.1,250.3z M335.1,254.6c0.6-0.1,2.9-2.3,2.9-2.3
		h-5.7C333,253.2,335.1,254.6,335.1,254.6L335.1,254.6z"/>
	<path fill="#003552" d="M353.7,238.4v1.5h3c0.5,0,1.1-0.1,1.1-0.1v2.3c-0.1,0-0.9-0.1-0.9-0.1h-3.1v1.5h3.3v0.6
		c2.3-2.8,3-6.6,3-6.6l2.6,0.4c-0.1,0.6-0.7,2.5-0.7,2.5h5.7c0.5,0,1.3-0.1,1.3-0.1v2.5c-0.1,0-1.3-0.1-1.3-0.1h-6.7
		c-0.1,0.4-1.4,2.2-1.4,2.2h5.9c0.7,0,1.2-0.1,1.2-0.1l1.4,1.8c-2,1.3-6.2,6.6-6.5,7.1c-0.3,0.6-1.1,1.6-0.3,2.1
		c0.7,0.5,2.8,0.3,3.9,0.2c1.1,0,1.3-1.1,1.3-1.1c0.3-0.9,0.1-2.7,0.1-2.7l2.5,0.9c-0.3,4.2-1.6,4.6-1.6,4.6
		c-1.1,0.8-4.3,0.6-4.3,0.6c-3.1,0-3.9-0.5-3.9-0.5c-2.3-1.2-0.4-4.7,0.4-5.9c0.7-1.2,4.5-5,4.5-5h-4.3c-0.3,0-0.9,0.1-0.9,0.1v-1.8
		l-0.6,0.7l-1.2-1.1v6c0,0.4,0,0.7,0,0.7c-0.1,0-0.9,0-0.9,0H354v1.6h2.5c0.4,0,1.1-0.1,1.1-0.1v2.4c-0.1,0-1-0.1-1-0.1h-2.7v2.5
		c0,0.5,0.1,1.1,0.1,1.1h-2.6c0.1-0.2,0.1-1.1,0.1-1.1V256c0,0-2.7,0-2.9,0c-0.4,0-1.1,0.1-1.1,0.1v-2.5c0.1,0.1,1.1,0.1,1.1,0.1h3
		v-1.6H349c-0.4,0-0.8,0-0.8,0c0-0.1,0.1-0.8,0.1-0.8v-6.7c0-0.2-0.1-1-0.1-1c0.2,0,0.4,0,1,0.1h2.4v-1.6c0,0-2.8,0-3.1,0h-0.1
		c-0.4,0-0.9,0.1-0.9,0.1v-2.5c0.1,0.1,1.1,0.1,1.1,0.1h3v-1.4c0-0.3-0.1-0.8-0.1-0.8h2.6C353.9,237.7,353.7,238.4,353.7,238.4
		L353.7,238.4z M354.8,245.5h-4.4v1.3h4.4V245.5L354.8,245.5z M354.8,248.7h-4.4v1.3h4.4V248.7L354.8,248.7z"/>
	<path fill="#003552" d="M353.7,238.4v1.5h3c0.5,0,1.1-0.1,1.1-0.1v2.3c-0.1,0-0.9-0.1-0.9-0.1h-3.1v1.5h3.3v0.6
		c2.3-2.8,3-6.6,3-6.6l2.6,0.4c-0.1,0.6-0.7,2.5-0.7,2.5h5.7c0.5,0,1.3-0.1,1.3-0.1v2.5c-0.1,0-1.3-0.1-1.3-0.1h-6.7
		c-0.1,0.4-1.4,2.2-1.4,2.2h5.9c0.7,0,1.2-0.1,1.2-0.1l1.4,1.8c-2,1.3-6.2,6.6-6.5,7.1c-0.3,0.6-1.1,1.6-0.3,2.1
		c0.7,0.5,2.8,0.3,3.9,0.2c1.1,0,1.3-1.1,1.3-1.1c0.3-0.9,0.1-2.7,0.1-2.7l2.5,0.9c-0.3,4.2-1.6,4.6-1.6,4.6
		c-1.1,0.8-4.3,0.6-4.3,0.6c-3.1,0-3.9-0.5-3.9-0.5c-2.3-1.2-0.4-4.7,0.4-5.9c0.7-1.2,4.5-5,4.5-5h-4.3c-0.3,0-0.9,0.1-0.9,0.1v-1.8
		l-0.6,0.7l-1.2-1.1v6c0,0.4,0,0.7,0,0.7c-0.1,0-0.9,0-0.9,0H354v1.6h2.5c0.4,0,1.1-0.1,1.1-0.1v2.4c-0.1,0-1-0.1-1-0.1h-2.7v2.5
		c0,0.5,0.1,1.1,0.1,1.1h-2.6c0.1-0.2,0.1-1.1,0.1-1.1V256c0,0-2.7,0-2.9,0c-0.4,0-1.1,0.1-1.1,0.1v-2.5c0.1,0.1,1.1,0.1,1.1,0.1h3
		v-1.6H349c-0.4,0-0.8,0-0.8,0c0-0.1,0.1-0.8,0.1-0.8v-6.7c0-0.2-0.1-1-0.1-1c0.2,0,0.4,0,1,0.1h2.4v-1.6c0,0-2.8,0-3.1,0h-0.1
		c-0.4,0-0.9,0.1-0.9,0.1v-2.5c0.1,0.1,1.1,0.1,1.1,0.1h3v-1.4c0-0.3-0.1-0.8-0.1-0.8h2.6C353.9,237.7,353.7,238.4,353.7,238.4
		L353.7,238.4z M354.8,245.5h-4.4v1.3h4.4V245.5L354.8,245.5z M354.8,248.7h-4.4v1.3h4.4V248.7L354.8,248.7z"/>
	<path fill="#003552" d="M372.3,242.5l2,0.2c0,0,0.1,4.7-0.7,6.9l-2-1C371.6,248.7,372.4,245.8,372.3,242.5L372.3,242.5z"/>
	<path fill="#003552" d="M380.7,238.4c0,0,0.8,0,1.1,0h7.9c0,0,0.7,0,0.9-0.1c0,0,0,0.4,0,0.7s0,0.1,0,0.1v4c0,0,0,0.4,0,0.7
		c0,0-0.6,0-0.8,0h-8.1c0,0-0.8,0.1-1,0.1c0,0,0-0.8,0-1.1v-3.3C380.7,239.5,380.7,238.8,380.7,238.4L380.7,238.4z M388.2,240.3
		h-5.2v1.6h5.2V240.3L388.2,240.3z"/>
	<path fill="#003552" d="M380.7,238.4c0,0,0.8,0,1.1,0h7.9c0,0,0.7,0,0.9-0.1c0,0,0,0.4,0,0.7s0,0.1,0,0.1v4c0,0,0,0.4,0,0.7
		c0,0-0.6,0-0.8,0h-8.1c0,0-0.8,0.1-1,0.1c0,0,0-0.8,0-1.1v-3.3C380.7,239.5,380.7,238.8,380.7,238.4L380.7,238.4z M388.2,240.3
		h-5.2v1.6h5.2V240.3L388.2,240.3z"/>
	<path fill="#003552" d="M374.8,238h2.6c0,0-0.1,0.7-0.1,1.1v4.5c0,0,1.3-1.5,1.3-2.1l1.4,1.6l-1,1.3c0,0,0.6,0.1,1,0.1h4.1
		c0,0,0.8,0,1,0c0,0,0,0.6,0,0.9v3.8h1v-3.9c0,0,0-0.8,0-0.9c0,0,0.8,0,1.1,0h4.5c0,0,0.7,0,1,0c0,0,0,0.5,0,0.8v3.5
		c0,0,0,0.5,0.1,0.8c0,0-0.5,0-0.8,0h-0.1c-0.4,0-4.9,0-4.9,0v1.3h4.8c0,0,1.2,0,1.3-0.1v2.2c0,0-0.6,0-1.3,0h-3.7
		c0,0,1.2,1.9,5.7,3.5l-1.3,2.3c0,0-4.6-2.5-5.6-4.5v4.7c0,0,0,0.6,0.1,0.7h-2.8c0,0,0.2-0.5,0.2-0.8v-4.4c0,0-1.8,2.8-5.7,4.6
		l-1.3-1.9c0,0,4.1-1.6,5.7-4h-3.7c0,0-0.6,0.1-0.6,0.1l0.8,0.6l-1.2,2.3c0,0-2.1-1.9-2.2-2.7c0,0-0.8,3.5-3,5.9l-1.8-2
		c0,0,2.8-2.5,3.2-8.2c0,0,0.4-8.1,0.2-9.6C374.9,239.2,374.9,238.1,374.8,238L374.8,238z M377.1,246.3c0,0.4-0.3,4.2-0.3,4.2
		c0.1,0.4,1.7,2.4,1.7,2.4v-2.2c0.1,0,1.3,0.1,1.3,0.1h4.5v-1.2h-4.7c-0.3,0-0.8,0.1-0.8,0.1c0-0.1,0-0.8,0-0.8v-3.3
		c0-0.3-0.1-0.8-0.1-0.8C378.6,244.9,377.1,246.3,377.1,246.3L377.1,246.3z M383.2,246.2h-2.3v1.6h2.2L383.2,246.2L383.2,246.2z
		 M390.6,246.2H388v1.6h2.5V246.2L390.6,246.2z"/>
	<path fill="#003552" d="M374.8,238h2.6c0,0-0.1,0.7-0.1,1.1v4.5c0,0,1.3-1.5,1.3-2.1l1.4,1.6l-1,1.3c0,0,0.6,0.1,1,0.1h4.1
		c0,0,0.8,0,1,0c0,0,0,0.6,0,0.9v3.8h1v-3.9c0,0,0-0.8,0-0.9c0,0,0.8,0,1.1,0h4.5c0,0,0.7,0,1,0c0,0,0,0.5,0,0.8v3.5
		c0,0,0,0.5,0.1,0.8c0,0-0.5,0-0.8,0h-0.1c-0.4,0-4.9,0-4.9,0v1.3h4.8c0,0,1.2,0,1.3-0.1v2.2c0,0-0.6,0-1.3,0h-3.7
		c0,0,1.2,1.9,5.7,3.5l-1.3,2.3c0,0-4.6-2.5-5.6-4.5v4.7c0,0,0,0.6,0.1,0.7h-2.8c0,0,0.2-0.5,0.2-0.8v-4.4c0,0-1.8,2.8-5.7,4.6
		l-1.3-1.9c0,0,4.1-1.6,5.7-4h-3.7c0,0-0.6,0.1-0.6,0.1l0.8,0.6l-1.2,2.3c0,0-2.1-1.9-2.2-2.7c0,0-0.8,3.5-3,5.9l-1.8-2
		c0,0,2.8-2.5,3.2-8.2c0,0,0.4-8.1,0.2-9.6C374.9,239.2,374.9,238.1,374.8,238L374.8,238z M377.1,246.3c0,0.4-0.3,4.2-0.3,4.2
		c0.1,0.4,1.7,2.4,1.7,2.4v-2.2c0.1,0,1.3,0.1,1.3,0.1h4.5v-1.2h-4.7c-0.3,0-0.8,0.1-0.8,0.1c0-0.1,0-0.8,0-0.8v-3.3
		c0-0.3-0.1-0.8-0.1-0.8C378.6,244.9,377.1,246.3,377.1,246.3L377.1,246.3z M383.2,246.2h-2.3v1.6h2.2L383.2,246.2L383.2,246.2z
		 M390.6,246.2H388v1.6h2.5V246.2L390.6,246.2z"/>
	<path fill="#003552" d="M410.4,238.5h-3.3c0,0,0,0.8,0,1.1c0,0-0.2,11.7-0.2,12.2c0,0.5-0.1,4.9,3.5,6.4c0,0,9.8,3.1,12.7-6.9
		c0,0,0.6-1.6,0.6-1.7l-2.9-1.9c0,0-0.5,4.3-2.7,6.5c-2.2,2.1-6.2,2.1-7.3,0.6c-1.1-1.4-0.8-4.2-0.8-6.8c0-2.6,0.2-7.8,0.3-8.1
		C410.3,239.5,410.4,238.5,410.4,238.5L410.4,238.5z"/>
	<path fill="#003552" d="M425.9,241.7v2.8h3.7c0,0-1.8,5.9-4.5,9.5l2.8,1.7c0,0,3.8-7.8,4.7-11.2c0,0,4-0.4,4.6-0.6v-2.8
		c0,0-1.2,0.4-3.8,0.7l0.9-3.7l-3.1-0.4c0,0,0,0.7-0.1,0.9l-0.6,3.3l-3.1-0.1C427.2,241.9,426.1,241.8,425.9,241.7L425.9,241.7z"/>
	<path fill="#003552" d="M438.3,243.1l1.4-2.3c0,0,4.2,1.5,6.7,3.3l-1.3,2.4C445.2,246.4,441.6,244.2,438.3,243.1L438.3,243.1z"/>
	<path fill="#003552" d="M438.7,245.8h2.8c0,0-0.3,0.8-0.3,1.2c0,0.4,0,4,0.1,4.7c0,0,3.4,1.5,4.9,3.3l-1.3,2.7c0,0-1.6-1.8-3.7-3
		c0,0,0.3,3-2.3,4c-2.6,1-5.8,0.1-6.9-1.2c-1.1-1.3-1.4-4.4,1.1-5.9c0,0,1.8-1.3,5.4-0.5C438.6,251,438.4,246.7,438.7,245.8
		L438.7,245.8z M434.2,254.1c-0.9,1.6,0.6,2.5,2.8,2.2c2.1-0.2,1.6-2.8,1.6-2.8C437.6,253.3,435.1,252.5,434.2,254.1L434.2,254.1z"
		/>
	<path fill="#003552" d="M438.7,245.8h2.8c0,0-0.3,0.8-0.3,1.2c0,0.4,0,4,0.1,4.7c0,0,3.4,1.5,4.9,3.3l-1.3,2.7c0,0-1.6-1.8-3.7-3
		c0,0,0.3,3-2.3,4c-2.6,1-5.8,0.1-6.9-1.2c-1.1-1.3-1.4-4.4,1.1-5.9c0,0,1.8-1.3,5.4-0.5C438.6,251,438.4,246.7,438.7,245.8
		L438.7,245.8z M434.2,254.1c-0.9,1.6,0.6,2.5,2.8,2.2c2.1-0.2,1.6-2.8,1.6-2.8C437.6,253.3,435.1,252.5,434.2,254.1L434.2,254.1z"
		/>
	<path fill="#003552" d="M449.5,242.5c0,0,3.2,0.4,8.8-0.4c0,0-1.4-3.4-1.5-3.7l3-0.4c0,0,1,3.4,1.4,3.9c0,0,4.2-0.8,5.8-1.4
		l0.4,2.9c0,0-4.5,1-5.2,1.1c0,0,2.1,4.2,4.2,6.9l-2.8,1.3c0,0-1.5-1.8-6-1.6c0,0-4.8-0.1-4.7,2.9c0.1,3,8.8,2.6,12.3,0.6l0.4,3.1
		c0,0-5.2,1.9-10.5,1.1c0,0-6.2-0.7-5.1-6.2c0,0,1.7-6.1,11.9-3.4c0,0-2.3-3.6-2.6-4.5c0,0-6.8,0.8-8.7,0.6h-0.9L449.5,242.5"/>
	<path fill="#003552" d="M471.1,240h3.2c0,0-0.1,0.8-0.1,1.3c0,0-0.4,7.2,1,11.2c0,0,1.7,5.4,3.6-3.7l2.3,2.2c0,0-1.5,6.5-4.5,6.6
		C473.7,257.6,471,254,471.1,240L471.1,240z"/>
	<path fill="#003552" d="M480.5,242.3l2.5-1.3c0,0,4.2,5.2,4.9,13l-2.5,1.1C485.4,255.1,485.3,248,480.5,242.3L480.5,242.3z"/>
	<path fill="#003552" d="M404,237.3h-2.4c-2.7,3.7-4.1,7.4-4.1,10.9c0,3.4,1.3,7.1,4.1,10.9h2.4c-2.1-3.5-3.1-6.9-3.1-10.9
		C400.9,244.3,402,240.8,404,237.3L404,237.3z"/>
	<path fill="#003552" d="M489.7,237.3c2.1,3.5,3.1,6.9,3.1,10.9c0,3.9-1.1,7.4-3.1,10.9h2.4c2.7-3.7,4-7.4,4-10.9
		c0-3.4-1.3-7.1-4-10.9H489.7L489.7,237.3z"/>
	<path fill="#003552" d="M242.3,293.1c0.7,14.1,10.5,22.4,27.4,22.4c17.3,0,26.8-8.1,26.8-21.8c0-6.9-2.7-11.9-8.1-14.9
		c-4.2-2.3-9.3-3.6-15.6-5.2c-11-2.8-16.1-2.8-16.1-9.1c0-5.1,4-8.1,11.2-8.1c8.3,0,12.8,3.4,13.2,9.9h13.2
		c-0.5-13.4-9.5-21.1-25.2-21.1c-16.8,0-25.7,7.2-25.7,20.1c0,6.9,2.5,12.2,7.2,15.1c4.4,2.8,9.3,3.7,14.7,4.9
		c12.2,2.8,17.8,4,17.8,10.1c0,5.6-4,8.4-12,8.4c-9.2,0-14.1-3.3-15.2-10.7H242.3L242.3,293.1z"/>
	<path fill="#003552" d="M341.4,264.4h-13.2v29.1c0,6.5-4,10.4-10.1,10.4c-5.7,0-7.6-3-7.6-9.8v-29.7h-13.2V298
		c0,11.3,5.4,17,16.2,17c6.2,0,11.2-2.4,14.9-7.1v5.9h12.9V264.4L341.4,264.4z"/>
	<path fill="#003552" d="M342.8,333.4h12.8v-25.9c3.3,5.1,8.3,7.8,14.6,7.8c11.5,0,20.2-10.3,20.2-26.5c0-15.8-8.4-26-20.4-26
		c-6.4,0-10.8,2.6-14.6,8.3v-6.6h-12.5L342.8,333.4L342.8,333.4z M377.2,289.3c0,9.2-4.2,14.6-10.7,14.6c-6.9,0-11-5.2-11-14.6
		c0-10.1,3.8-15.3,10.7-15.3C373.3,274.1,377.2,279.4,377.2,289.3L377.2,289.3z"/>
	<path fill="#003552" d="M404.8,283.9c0.6-6.6,4-10.2,9.6-10.2c6.1,0,9.5,3.5,9.8,10.2H404.8L404.8,283.9z M424,298.7
		c-1.7,3.8-4.5,5.4-9,5.4c-6.4,0-9.8-4-10.2-11.7h32.9c0.1-1.2,0.1-2.3,0.1-3.4c0-17-8.6-26.4-23.6-26.4c-14.1,0-23,9.9-23,26
		c0,16.6,9.2,26.6,23.2,26.6c11.7,0,20.1-6.3,22.8-16.6L424,298.7L424,298.7z"/>
	<path fill="#003552" d="M439,313.7h13.2v-26c0-7.4,3.7-11.1,10.8-11.1h4.4v-13.4c-0.6-0.1-1.3-0.1-2-0.1c-6.3,0-10.7,3-14.1,9.8
		v-8.5H439L439,313.7L439,313.7z"/>
	<path fill="#003552" d="M478.8,288.7c0-9.2,4.2-14.6,10.7-14.6c6.9,0,11,5.2,11,14.6c0,10.1-3.8,15.3-10.7,15.3
		C482.7,304,478.8,298.7,478.8,288.7L478.8,288.7z M513.3,247h-12.8v23.5c-3.3-5.1-8.3-7.8-14.6-7.8c-11.5,0-20.2,10.3-20.2,26.5
		c0,15.8,8.4,26,20.4,26c6.4,0,11-2.6,14.7-8.3v6.6h12.5L513.3,247L513.3,247L513.3,247z"/>
	<path fill="#003552" d="M514.5,313.7h13.2v-26c0-7.4,3.7-11.1,10.8-11.1h4.4v-13.4c-0.6-0.1-1.3-0.1-2-0.1c-6.3,0-10.7,3-14.1,9.8
		v-8.5h-12.2V313.7L514.5,313.7z"/>
	<path fill="#003552" d="M551.4,333.4c2.3,0.3,4.2,0.4,5.6,0.4c9.5,0,12.9-3,15.8-11.3l20.2-58h-13.8l-10.1,35.5l-10.5-35.5h-14.4
		l17.7,49.8c0.2,0.5,0.3,1,0.3,1.4c0,4.9-2.6,7.4-7.8,7.4c-0.7,0-1.8,0-3-0.2V333.4L551.4,333.4z"/>
	<polygon fill="#003552" points="586.1,300.6 598.8,300.6 598.8,313.2 586.1,313.2 	"/>
</g>
<g>
	<g>
		<path fill="#003552" d="M175.7,86.3c-2.1-1.6-5.1-2.6-8.8-3.6c-3.2-0.8-5.1-1.6-6.2-2.3c-1.1-0.8-1.3-1.3-1.3-2.3
			c0-1.8,1.4-3.5,5.6-3.6c3.5,0,5.9,1,8.1,3l0.4,0.4l4.7-4.3l-0.4-0.4c-3.3-2.9-7.2-4.7-12.3-4.7c-3.5,0-6.6,0.9-8.9,2.6
			c-2.3,1.7-3.7,4.2-3.7,7.2c0,3.1,1,5.2,3,6.8c2.1,1.6,4.9,2.5,8.8,3.5c3,0.8,5.1,1.6,6.3,2.3c1.2,0.8,1.6,1.5,1.6,2.6
			c0,1.5-0.5,2.5-1.6,3.2c-1.1,0.7-2.9,1.1-5.4,1.1c-3.3,0-6.8-1.5-9.1-3.7l-0.4-0.4l-4.7,4.2l0.4,0.4c3.2,3.4,7.9,5.5,13.4,5.5
			c4.7,0,8.3-1.1,10.6-2.9c2.3-1.9,3.5-4.6,3.5-7.7C179.1,90.1,177.9,87.8,175.7,86.3z"/>
		<polygon fill="#003552" points="250,69 243.4,69 243.4,103.3 243.9,103.3 268.3,103.3 268.3,97.3 250,97.3 		"/>
		<path fill="#003552" d="M351.9,93.9c-1.8,2.6-3.9,3.9-7.6,3.9c-6,0-9.2-4.3-9.3-11.6c0.1-7.3,3.3-11.6,9.3-11.6
			c3.6,0,5.2,1.1,7.1,3.7l0.3,0.4l5.8-3.3l-0.3-0.5c-2.6-4.2-6.8-6.5-12.9-6.5c-4.9,0-8.9,1.8-11.7,4.9c-2.8,3.2-4.3,7.6-4.3,12.7
			s1.6,9.5,4.3,12.7c2.8,3.2,6.9,5,11.7,4.9l0,0c5.7,0,10.3-2.4,13-6.6l0.3-0.5l-5.4-3.3L351.9,93.9z"/>
		<polygon fill="#003552" points="373.7,74.9 384.4,74.9 384.4,103.3 391,103.3 391,74.9 401.6,74.9 401.6,69 373.7,69 		"/>
		<path fill="#003552" d="M488.4,73c-3.4-2.8-7.9-4-12.9-4H465v34.4h10.5c4.9,0,9.5-1.3,12.9-4c3.4-2.8,5.5-7.1,5.5-13.2
			C493.9,80.1,491.8,75.8,488.4,73z M475.5,97.3h-4V74.8h4c8.4,0.1,11.6,4.5,11.7,11.2C487.1,92.9,483.9,97.2,475.5,97.3z"/>
		<polygon fill="#003552" points="223.4,97.3 205.3,97.3 205.3,88 218.6,88 218.6,82 205.3,82 205.3,74.9 223.4,74.9 223.4,69 
			198.7,69 198.7,103.3 223.4,103.3 		"/>
		<polygon fill="#003552" points="311.7,97.3 293.6,97.3 293.6,88 306.9,88 306.9,82 293.6,82 293.6,74.9 311.7,74.9 311.7,69 
			287.1,69 287.1,103.3 311.7,103.3 		"/>
		<polygon fill="#003552" points="444.9,97.3 426.8,97.3 426.8,88 440.1,88 440.1,82 426.8,82 426.8,74.9 444.9,74.9 444.9,69 
			420.3,69 420.3,103.3 444.9,103.3 		"/>
	</g>
	<g>
		<g>
			<path fill="#003552" d="M256.9,141.2v-8.8h-11v8.8h-2.5v-18.7h2.5v8h11v-8h2.5v18.7H256.9z"/>
			<path fill="#003552" d="M285.3,141.4c-5.5,0-9.1-4-9.1-9.6c0-5.7,3.7-9.7,9.2-9.7c5.5,0,9.2,4,9.2,9.6
				C294.5,137.4,290.7,141.4,285.3,141.4z M285.2,124c-3.8,0-6.6,3-6.6,7.8c0,4.7,2.9,7.8,6.8,7.8c3.8,0,6.6-3,6.6-7.8
				C292,127.1,289.1,124,285.2,124z"/>
			<path fill="#003552" d="M328,141.2v-12.7v-2c-0.2,0.7-0.8,2.1-1.3,3.1l-5.9,12.1l-5.8-12.1c-0.5-1-1.1-2.4-1.3-3.1v2v12.7h-2.4
				v-18.7h2.8l5.2,11.2c0.6,1.1,1.3,2.9,1.6,3.7c0.3-0.8,1.1-2.5,1.6-3.7l5.3-11.2h2.7v18.7H328z"/>
			<path fill="#003552" d="M366.5,141.2v-12.7v-2c-0.2,0.7-0.8,2.1-1.3,3.1l-5.9,12.1l-5.8-12.1c-0.5-1-1.1-2.4-1.3-3.1v2v12.7h-2.4
				v-18.7h2.8l5.2,11.2c0.6,1.1,1.3,2.9,1.6,3.7c0.3-0.8,1.1-2.5,1.6-3.7l5.3-11.2h2.7v18.7H366.5z"/>
		</g>
		<polygon fill="#003552" points="401.6,139.2 390.7,139.2 390.7,132.1 398.8,132.1 398.8,130.2 390.7,130.2 390.7,124.3 
			401.6,124.3 401.6,122.4 388.2,122.4 388.2,141.2 401.6,141.2 		"/>
	</g>
</g>
</svg>
