<?xml version="1.0" encoding="utf-8"?>
<!-- Generator: Adobe Illustrator 18.0.0, SVG Export Plug-In . SVG Version: 6.00 Build 0)  -->
<!DOCTYPE svg PUBLIC "-//W3C//DTD SVG 1.1//EN" "http://www.w3.org/Graphics/SVG/1.1/DTD/svg11.dtd">
<svg version="1.1" id="Calque_1" xmlns="http://www.w3.org/2000/svg" xmlns:xlink="http://www.w3.org/1999/xlink" x="0px" y="0px"
	 viewBox="0 0 841.9 595.3" enable-background="new 0 0 841.9 595.3" xml:space="preserve">
<polygon fill="#003552" points="253.9,278.7 253.9,281 260.1,281 260.1,296.5 262.7,296.5 262.7,281 268.8,281 268.8,278.7 "/>
<g>
	<g>
		<g>
			<defs>
				<rect id="SVGID_1_" x="253.9" y="278.4" width="329.4" height="18.3"/>
			</defs>
			<clipPath id="SVGID_2_">
				<use xlink:href="#SVGID_1_"  overflow="visible"/>
			</clipPath>
			<path clip-path="url(#SVGID_2_)" fill="#003552" d="M287.8,294.4c4,0,6.9-2.9,6.9-6.8c0-4-3-6.8-6.9-6.8c-4,0-6.9,2.9-6.9,6.8
				C280.9,291.5,283.8,294.4,287.8,294.4 M287.8,278.4c5.9,0,9.6,4.2,9.6,9.2c0,4.8-3.6,9.1-9.7,9.1c-5.9,0-9.5-4.3-9.5-9.1
				C278.2,282.7,282,278.4,287.8,278.4"/>
		</g>
	</g>
</g>
<polygon fill="#003552" points="326.1,296.5 323.5,296.5 323.5,282.6 323.5,282.6 318,289.5 317.5,289.5 312.1,282.6 312,282.6 
	312,296.5 309.5,296.5 309.5,278.7 311.9,278.7 317.7,286 323.7,278.7 326.1,278.7 "/>
<polygon fill="#003552" points="357.2,296.5 354.7,296.5 354.7,282.6 354.6,282.6 349.1,289.5 348.7,289.5 343.2,282.6 343.1,282.6 
	343.1,296.5 340.6,296.5 340.6,278.7 343,278.7 348.9,286 354.9,278.7 357.2,278.7 "/>
<polygon fill="#003552" points="381,278.7 384.1,278.7 377.5,287.1 377.5,296.5 375,296.5 375,287.1 368.4,278.7 371.4,278.7 
	376.2,284.9 "/>
<polygon fill="#003552" points="453.5,296.5 451,296.5 451,288.8 440.9,288.8 440.9,296.5 438.4,296.5 438.4,278.7 440.9,278.7 
	440.9,286.5 451,286.5 451,278.7 453.5,278.7 "/>
<rect x="464.1" y="278.7" fill="#003552" width="2.5" height="17.8"/>
<polygon fill="#003552" points="479.8,294.2 487.9,294.2 487.9,296.5 477.2,296.5 477.2,278.7 479.8,278.7 "/>
<polygon fill="#003552" points="504.7,281 497.8,281 497.8,285.9 504.7,285.9 504.7,288.3 497.8,288.3 497.8,296.5 495.2,296.5 
	495.2,278.7 504.7,278.7 "/>
<rect x="513.7" y="278.7" fill="#003552" width="2.5" height="17.8"/>
<g>
	<g>
		<g>
			<defs>
				<rect id="SVGID_3_" x="253.9" y="278.4" width="329.4" height="18.3"/>
			</defs>
			<clipPath id="SVGID_4_">
				<use xlink:href="#SVGID_3_"  overflow="visible"/>
			</clipPath>
			<path clip-path="url(#SVGID_4_)" fill="#003552" d="M540.7,295.3c-2.4,1.1-4.3,1.5-6.8,1.5c-5.4,0-9.5-3.8-9.5-9.1
				c0-5.2,4.1-9.3,9.5-9.3c2.1,0,3.5,0.4,6.4,1.5v2.6c-2.1-1.1-4.2-1.8-6.4-1.8c-3.9,0-6.9,3-6.9,6.9c0,4,3,6.8,7.2,6.8
				c1.4,0,2.6-0.3,3.9-0.7v-3.7h-3.5v-2.3h6V295.3z"/>
		</g>
	</g>
</g>
<polygon fill="#003552" points="560.6,281 553,281 553,286.4 560.3,286.4 560.3,288.7 553,288.7 553,294.2 560.8,294.2 560.8,296.5 
	550.4,296.5 550.4,278.7 560.6,278.7 "/>
<g>
	<g>
		<g>
			<defs>
				<rect id="SVGID_5_" x="253.9" y="278.4" width="329.4" height="18.3"/>
			</defs>
			<clipPath id="SVGID_6_">
				<use xlink:href="#SVGID_5_"  overflow="visible"/>
			</clipPath>
			<path clip-path="url(#SVGID_6_)" fill="#003552" d="M572.2,286.5h1.6c2.8,0,3.5-1.4,3.5-2.9c0-1.7-1-2.7-3.5-2.7h-1.6V286.5z
				 M574.1,278.7c3.6,0,5.9,1.9,5.9,5c0,2.1-1.1,3.6-3,4.4c1.6,1.1,2.6,2.7,4,4.9c0.8,1.2,1.2,1.8,2.4,3.5h-3l-2.3-3.7
				c-2.3-3.7-3.4-4.1-4.7-4.1h-1.1v7.8h-2.5v-17.8L574.1,278.7L574.1,278.7z"/>
		</g>
	</g>
</g>
<rect x="410.2" y="283.1" opacity="0.5" fill="#003552" width="13.7" height="9"/>
<rect x="396.4" y="283.2" fill="#FFFFFF" width="13.7" height="8.9"/>
<rect x="396.4" y="278.7" fill="#003552" width="27.4" height="4.5"/>
<rect x="396.4" y="292.1" fill="#003552" width="27.4" height="4.5"/>
</svg>
