<?xml version="1.0" encoding="utf-8"?>
<!-- Generator: Adobe Illustrator 17.1.0, SVG Export Plug-In . SVG Version: 6.00 Build 0)  -->
<!DOCTYPE svg PUBLIC "-//W3C//DTD SVG 1.1//EN" "http://www.w3.org/Graphics/SVG/1.1/DTD/svg11.dtd">
<svg version="1.1" id="Calque_1" xmlns="http://www.w3.org/2000/svg" xmlns:xlink="http://www.w3.org/1999/xlink" x="0px" y="0px"
	 viewBox="0 0 595.3 841.9" enable-background="new 0 0 595.3 841.9" xml:space="preserve">
<polygon fill="#1D1D1B" points="61.4,394.2 61.4,397.4 70.2,397.4 70.2,419.4 73.8,419.4 73.8,397.4 82.5,397.4 82.5,394.2 "/>
<g>
	<g>
		<defs>
			<rect id="SVGID_1_" x="61.4" y="393.8" width="465.9" height="25.9"/>
		</defs>
		<clipPath id="SVGID_2_">
			<use xlink:href="#SVGID_1_"  overflow="visible"/>
		</clipPath>
		<path clip-path="url(#SVGID_2_)" fill="#1D1D1B" d="M109.4,416.4c5.7,0,9.8-4.1,9.8-9.6c0-5.6-4.2-9.6-9.8-9.6s-9.8,4.1-9.8,9.6
			C99.6,412.3,103.7,416.4,109.4,416.4 M109.4,393.8c8.3,0,13.6,5.9,13.6,13c0,6.8-5.1,12.9-13.7,12.9c-8.3,0-13.5-6.1-13.5-12.9
			C95.8,399.8,101.2,393.8,109.4,393.8"/>
	</g>
</g>
<polygon fill="#1D1D1B" points="163.5,419.4 159.9,419.4 159.9,399.7 159.8,399.7 152,409.5 151.4,409.5 143.7,399.7 143.6,399.7 
	143.6,419.4 140,419.4 140,394.2 143.4,394.2 151.7,404.5 160.1,394.2 163.5,394.2 "/>
<polygon fill="#1D1D1B" points="207.5,419.4 203.9,419.4 203.9,399.7 203.8,399.7 196.1,409.5 195.5,409.5 187.7,399.7 187.6,399.7 
	187.6,419.4 184,419.4 184,394.2 187.4,394.2 195.8,404.5 204.2,394.2 207.5,394.2 "/>
<polygon fill="#1D1D1B" points="241.2,394.2 245.6,394.2 236.2,406.1 236.2,419.4 232.6,419.4 232.6,406 223.3,394.2 227.6,394.2 
	234.4,402.9 "/>
<polygon fill="#1D1D1B" points="343.7,419.4 340.1,419.4 340.1,408.4 325.9,408.4 325.9,419.4 322.3,419.4 322.3,394.2 325.9,394.2 
	325.9,405.2 340.1,405.2 340.1,394.2 343.7,394.2 "/>
<rect x="358.7" y="394.2" fill="#1D1D1B" width="3.6" height="25.2"/>
<polygon fill="#1D1D1B" points="380.9,416.1 392.3,416.1 392.3,419.4 377.2,419.4 377.2,394.2 380.9,394.2 "/>
<polygon fill="#1D1D1B" points="416.1,397.4 406.3,397.4 406.3,404.4 416.1,404.4 416.1,407.7 406.3,407.7 406.3,419.4 402.7,419.4 
	402.7,394.2 416.1,394.2 "/>
<rect x="428.8" y="394.2" fill="#1D1D1B" width="3.6" height="25.2"/>
<g>
	<g>
		<defs>
			<rect id="SVGID_3_" x="61.4" y="393.8" width="465.9" height="25.9"/>
		</defs>
		<clipPath id="SVGID_4_">
			<use xlink:href="#SVGID_3_"  overflow="visible"/>
		</clipPath>
		<path clip-path="url(#SVGID_4_)" fill="#1D1D1B" d="M467,417.7c-3.4,1.5-6.1,2.1-9.6,2.1c-7.7,0-13.4-5.4-13.4-12.8
			s5.8-13.1,13.5-13.1c3,0,5,0.5,9,2.1v3.7c-3-1.6-6-2.5-9.1-2.5c-5.5,0-9.7,4.2-9.7,9.7c0,5.6,4.2,9.6,10.2,9.6c2,0,3.7-0.4,5.5-1
			v-5.2h-4.9V407h8.5V417.7z"/>
	</g>
</g>
<polygon fill="#1D1D1B" points="495.1,397.4 484.4,397.4 484.4,405 494.7,405 494.7,408.3 484.4,408.3 484.4,416.1 495.4,416.1 
	495.4,419.4 480.8,419.4 480.8,394.2 495.1,394.2 "/>
<g>
	<g>
		<defs>
			<rect id="SVGID_5_" x="61.4" y="393.8" width="465.9" height="25.9"/>
		</defs>
		<clipPath id="SVGID_6_">
			<use xlink:href="#SVGID_5_"  overflow="visible"/>
		</clipPath>
		<path clip-path="url(#SVGID_6_)" fill="#1D1D1B" d="M511.5,405.2h2.3c3.9,0,5-2,5-4.1c0-2.4-1.4-3.8-5-3.8h-2.3V405.2z
			 M514.2,394.2c5.1,0,8.3,2.7,8.3,7.1c0,2.9-1.5,5.1-4.2,6.2c2.3,1.5,3.7,3.8,5.6,7c1.1,1.7,1.7,2.6,3.4,5H523l-3.3-5.2
			c-3.3-5.2-4.8-5.8-6.7-5.8h-1.5v11h-3.6v-25.2h6.3V394.2z"/>
	</g>
</g>
<rect x="282.4" y="400.4" fill="#9C9B9B" width="19.4" height="12.7"/>
<rect x="263" y="400.5" fill="#FFFFFF" width="19.4" height="12.6"/>
<rect x="263" y="394.2" fill="#1D1D1B" width="38.8" height="6.3"/>
<rect x="263" y="413.1" fill="#1D1D1B" width="38.8" height="6.3"/>
</svg>
