<?xml version="1.0" encoding="utf-8"?>
<!-- Generator: Adobe Illustrator 17.1.0, SVG Export Plug-In . SVG Version: 6.00 Build 0)  -->
<!DOCTYPE svg PUBLIC "-//W3C//DTD SVG 1.1//EN" "http://www.w3.org/Graphics/SVG/1.1/DTD/svg11.dtd">
<svg version="1.1" id="Calque_1" xmlns="http://www.w3.org/2000/svg" xmlns:xlink="http://www.w3.org/1999/xlink" x="0px" y="0px"
	 viewBox="0 0 595.3 841.9" enable-background="new 0 0 595.3 841.9" xml:space="preserve">
<g>
	<path d="M50.8,410.7c7.1,11.8-7,41.1-7.3,55.2c-0.1,2.5,0.4,4.3,1.8,4.3c3.9,0,20.9-19.4,30.3-57.2c0.2-1,1-1.8,2.4-1.8H89
		c1.3,0,1.6,0.8,1.4,1.6c-11,38.2-37,64.7-51.4,64.7c-18,0,4.2-46-0.8-59.7c-0.4-1-0.1-1.9,0.8-2.5l8.5-5.3
		C48.7,409.3,49.9,409.2,50.8,410.7"/>
	<path d="M178.6,411.3h9.2c1.2,0,1.7,0.7,1.3,1.7l-2.9,6.8c5.7-5.5,13.7-10.1,20.7-10.1c10.3,0,12.5,9,7.9,21.4
		c-3.5,9.3-7.7,15.6-10.8,28c-1.2,4.6-0.8,8-0.2,10c0.5,1.7,0.4,2.8-1.4,3.7l-7.7,4.3c-1,0.5-2.1,0.2-2.6-0.6
		c-1.9-3.6-3.4-9.4-1.2-17.7c2.8-10.6,7-20.2,10.8-29.6c3.3-8.2,1.1-10.9-2.2-10.9c-7.2,0-17.3,11.1-22,22.3l-14.4,33.8
		c-0.4,1-1,1.5-2.4,1.5h-9.5c-1.3,0-1.6-0.9-1.2-1.7l26.1-61.4C176.6,411.6,177.3,411.3,178.6,411.3"/>
	<path d="M460.2,427.6c0.8-5,1-12.7-4.3-12.7c-9.9,0-22.2,23.9-24.5,40.6c-1,7.8,1.2,12.8,6.2,12.8c4.9,0,10.8-3.8,15.9-10.1
		c0.4-0.5,1.2-0.6,1.8,0l1.9,1.8c0.6,0.6,0.7,1.3,0,2.1c-6.5,7.8-16.4,15.4-25.6,15.4c-11.5,0-16.4-8.2-14.5-21.8
		c2.8-20.6,19.5-45.9,40.5-45.9c9.2,0,12.1,8,12.1,13c0,1.7-0.6,2.3-1.9,3l-6.2,3.1C460.8,429.2,460.1,428.7,460.2,427.6"/>
	<path d="M489.3,438.3l29.7-26c1-0.8,1.8-1.1,3.1-1.1h5.7c0.8,0,1.2,0.9,0.5,1.4l-21.1,17.9c-0.3,12.2,2.4,30.7,6.7,38.9
		c0.6,1.2,0.5,2.4-0.6,3.1l-7.4,4.5c-1,0.6-2,0.4-2.5-0.4c-5.9-8.1-7.9-25.2-8.1-36.1l-11,9.3L474,474.4c-0.5,1.1-1.1,1.5-2.5,1.5
		h-9.4c-1.2,0-1.7-0.8-1.3-1.7l48.2-113.3c0.5-1.2,1.4-1.8,2.6-2l10.1-1.6c1.1-0.2,1.9,0.5,1.3,1.7L489.3,438.3z"/>
	<path d="M217.4,496.9c-1.8-0.1-3.5-0.1-5.1-0.1c-3.6,0-26.3-0.4-26,6.5c0.2,4.7,10.8,3.3,13.2,2.8
		C205.7,504.8,211.5,501.8,217.4,496.9 M376.6,338.6c-0.9-7.7-3.9-21.6-21.9-21.6c-21.7,0-43.7,27.2-69.7,88.5
		c-17.4,41.1-35.6,69.4-52.5,86.5c47.6,4.1,130.3,18.9,200.3,18.9c49.5,0,93.8-9.2,127.1-45.8c0.9-1,1.6-1.6,2.2-2
		c1.1-0.7,2.3,0,2.3,1.7c0,1.2-0.6,2.3-1.3,3c-33.9,38.4-79.2,52.9-130.3,52.9c-72.9,0-159.7-19.2-206.2-23.2
		c-9.5,8.3-18.5,13-26.5,14.3c-6.6,1.1-20.2,1.7-20.6-8.3c-0.4-13.1,24.9-12.6,32.6-12.6c3.3,0,7,0.1,11,0.4
		c13.7-15,28.1-42.3,47.5-88c25.7-60.6,56.4-91.8,84-91.8c21.1,0,28.9,14,31.1,21.7c0.4,1.4,0,2.5-1.1,3.2l-5.6,3.5
		C377.9,340.5,376.7,339.9,376.6,338.6"/>
	<path d="M130.1,415.5c-11.8,0-24.8,25.6-27.1,40.5c-1.1,6.9-0.5,11.7,3.6,11.7c8,0,24.9-22.9,28.1-39.1
		C136.3,420.1,134.8,415.5,130.1,415.5 M145.1,411.3h9.4c1.2,0,1.7,0.8,1.2,1.7c-3.1,6.8-14.8,32.9-17.1,41.3
		c-2.2,8.1-1.2,13-0.4,15.5c0.5,1.3,0.2,2.2-0.8,2.7l-8.8,4.8c-0.9,0.5-2.1,0.2-2.5-0.7c-2-4.1-2.8-9.6-2.1-15.6
		c-7.6,9.5-16.7,16.5-24.4,16.5c-10.1,0-12.3-10.2-11-20.2c3.1-23,25-47.5,41.6-47.5c5.9,0,9,3.3,10.2,8.2l2.2-5.2
		C143.2,411.5,143.9,411.3,145.1,411.3"/>
	<path d="M390.8,415.5c-11.9,0-24.8,25.6-27.2,40.5c-1.1,6.9-0.5,11.7,3.6,11.7c8,0,24.9-22.9,28.1-39.1
		C397,420.1,395.5,415.5,390.8,415.5 M405.8,411.3h9.4c1.2,0,1.7,0.8,1.3,1.7c-3.1,6.8-14.9,32.9-17.1,41.3
		c-2.2,8.1-1.2,13-0.4,15.5c0.5,1.3,0.2,2.2-0.8,2.7l-8.8,4.8c-0.9,0.5-2.1,0.2-2.5-0.7c-1.9-4.1-2.7-9.6-2.1-15.6
		c-7.6,9.5-16.6,16.5-24.4,16.5c-10.1,0-12.4-10.2-11-20.2c3.1-23,25-47.5,41.5-47.5c5.9,0,9.1,3.3,10.2,8.2l2.2-5.2
		C403.9,411.5,404.7,411.3,405.8,411.3"/>
	<path d="M323.5,415.5c-11.8,0-24.8,25.6-27.1,40.5c-1.1,6.9-0.5,11.7,3.6,11.7c8,0,24.9-22.9,28.1-39.1
		C329.7,420.1,328.2,415.5,323.5,415.5 M338.5,411.3h9.4c1.2,0,1.6,0.8,1.2,1.7c-3.1,6.8-14.8,32.9-17.1,41.3
		c-2.1,8.1-1.2,13-0.4,15.5c0.4,1.3,0.2,2.2-0.7,2.7l-8.8,4.8c-0.9,0.5-2.1,0.2-2.5-0.7c-2-4.1-2.8-9.6-2.1-15.6
		c-7.6,9.5-16.6,16.5-24.4,16.5c-10.1,0-12.3-10.2-11-20.2c3.1-23,25-47.5,41.6-47.5c5.9,0,9.1,3.3,10.2,8.2l2.2-5.2
		C336.6,411.5,337.3,411.3,338.5,411.3"/>
</g>
</svg>
