<?xml version="1.0" encoding="utf-8"?>
<!-- Generator: Adobe Illustrator 17.1.0, SVG Export Plug-In . SVG Version: 6.00 Build 0)  -->
<!DOCTYPE svg PUBLIC "-//W3C//DTD SVG 1.1//EN" "http://www.w3.org/Graphics/SVG/1.1/DTD/svg11.dtd">
<svg version="1.1" id="Calque_1" xmlns="http://www.w3.org/2000/svg" xmlns:xlink="http://www.w3.org/1999/xlink" x="0px" y="0px"
	 viewBox="0 0 595.3 841.9" enable-background="new 0 0 595.3 841.9" xml:space="preserve">
<g>
	<path d="M278,348.5h29.8l37.5,79.4l38.5-79.4h26.7c0,0,1.3-0.1,1.3,1.3c0,1.4-1.1,1.6-1.1,1.6s-3.5,1.2-4.5,1.9
		c-1,0.7-4.5,1.9-4.5,4.6c0,2.7,0,120.6,0,120.6s0.6,2.6,2.5,3.4c1.9,0.9,3.8,1.5,3.8,1.5s1.3,0.9,1.3,2c0,1.1-0.4,1.7-1.3,1.7
		c-0.9,0-32.3,0-32.3,0s-1.1,0-1.1-1.4c0-1.4,1-1.7,1-1.7l3.7-2c0,0,3.5-1,3.5-3.7c0-2.7,0-117.7,0-117.7l-0.8,0.1l-43.2,90.8
		c0,0-1.5,1.5-2.5-0.8c-0.9-2.3-41.9-87-41.9-87h-1.1v114.3c0,0,0.2,1.5,1.9,2.5c1.7,0.9,5.9,1.8,5.9,1.8s5.9,1.5,6.4,1.9
		c0.6,0.4,0.7,0.7,0.8,1.4c0.1,0.8-0.1,1.4-0.6,1.5c-0.5,0.1-34.8,0-34.8,0s-0.8,0-0.8-1s0.9-1.6,0.9-1.6l3.2-1c0,0,4.9-1.1,6.4-1.6
		c1-0.3,2.7-0.6,4.1-1.8c1.2-1,1.1-1.6,1.1-1.6V360.4c0,0-0.2-4.1-3-5.4c-2.8-1.3-6.9-2.5-6.9-2.5s-2.3-0.7-2.2-2.4
		C275.7,348.3,278,348.5,278,348.5L278,348.5z"/>
	<path d="M246.1,444.6c0.6,2.9,0.6,26.1,0.8,34.9c0.1,1.6,0.9,1.5,2.1,1.7c3.1-0.5,2.8-5,4.8-4.5c1.4-0.1,1.6,1.8,1.3,2.9
		c-0.8,2.5-1.7,3.9-3.5,5.6c-2.9,2.9-8.4,3.6-13,2.8c-3.3-0.3-4.9-3-7.4-4.7c-4.3,2.9-7.7,5.1-17,4.3c-6.7-0.6-12.1-4.1-13.6-10.4
		c-1-4.2-1.5-8.4,0.2-13.3c2.4-6.9,6.7-11.4,13.6-13c7.2-1.7,14.6-3,14.5-9.3c0-2.3-1.2-4.4-3.3-5.2c-2.4-1-3.8-1-6.3-0.6
		c-4.6,0.8-5.6,3.6-9.1,7.8c-1.1,0.8-3.4,0-3-1.6c1.7-5.5,7.3-10,13-10.8c7.7-1.1,14.5,0.2,17.5,2.2
		C243.1,436,245.2,440,246.1,444.6L246.1,444.6z M228.1,480.6c-1.6,2-6.9,3.1-9.3,0.8c-3.6-4.7-2.3-18.5-0.1-22.3
		c3-5,7.4-7.4,11.6-8.7C230.3,450.4,232.2,477.6,228.1,480.6L228.1,480.6z"/>
	<path d="M183.3,436.2c1.7,0.8,0.7,0.5,1,0.7c1.8-2.2,2.6-3.4,5.6-4.8c3.8-1.8,12.5-1.5,12.9,7.9c0.4,10.2-11.7,10.3-14.3,7.4
		c0,0-1.4-3.1-3-2.8c-1.4,0.2-1.8,1-2.1,3.1c0.1,3.9,0,33.4,0,33.5c1.3,2.7,4.1,1.4,5.3,4.5c0,1.7-0.3,2.2-3.2,2.2h-22.8
		c-1-0.4-2.4-1.6-1.7-2.8c0.7-1.2,2.3-1.4,2.9-1.9c1.7-1.5,2.3-0.6,2.3-6.4c0,0,0.3-34.5-0.2-36.9c-0.8-2.5-1.2-3.9-4-4.2
		c-1.2-0.8-2.3-1.2-1.9-2.3c0.1-1.4,0.8-1.2,1.5-1.9c0.1,0,19.4-0.1,19.4-0.1S183,434.5,183.3,436.2L183.3,436.2z"/>
	<path d="M32.9,351.6v-3h37.5v3l-5.3,1.7c0,0-2.5,0.6-1.7,2.5c0.8,1.9,29.9,96.1,29.9,96.1h0.6l28.2-93.6c0,0-0.4-4.5-4.5-5.7
		c-4.2-1.1-5.7-0.9-5.7-0.9v-3h30.1v3c0,0-7.2,0.8-8.5,1.3c-1.3,0.6-4.7,2.1-6.3,6.6c-1.5,4.6-39,128.1-39,128.1h-3.6L42.8,358.8
		c0,0-1.5-4.2-4.4-5.7C35.6,351.6,32.9,351.6,32.9,351.6L32.9,351.6z"/>
	<path d="M414.6,459.3c0-15.5,11.8-28.1,26.4-28.1c14.6,0,26.4,12.6,26.4,28.1c0,15.5-11.8,28.1-26.4,28.1
		C426.5,487.5,414.6,474.9,414.6,459.3L414.6,459.3z M430.5,460.5c0-16.4,3.8-23.8,10.3-23.8c6.5,0,10.3,7.7,10.3,23.5
		c0,16.6-3.8,23.7-10.3,23.7C434.3,483.9,430.5,476.5,430.5,460.5L430.5,460.5z"/>
	<path d="M478,476.7v-35.3c0,0,0.1-2.5-2.3-4.1c-2.4-1.6-3-2-3-2s-0.9-0.8-0.7-1.9c0.3-1.1,1.3-2.1,2.4-2.2c1-0.1,18.4,0,18.4,0
		l2.5,3.8l0.8,0.2c0,0,4.7-4.3,14.7-4.3c10,0,16.3,5.2,16.3,13.4c0,8.2,0,36.9,0,36.9s0.5,1.2,2.5,2c2,0.8,3.1,1.1,3.1,2.3
		c0,1.1-0.9,2-3.2,2c-2.4,0-20.9,0-20.9,0s-4.3,0-4.2-1.8c0.1-1.8,2.4-2.3,2.4-2.3s2.3-1.1,2.3-2.3v-36.8c0,0-0.3-7-6.3-7
		c-6.1,0-7.7,6.9-7.7,6.9v35.7c0,0,0.2,1.7,1.8,2.7c1.6,1,3.1,1.1,3.1,2.8s-1.5,1.8-2.7,1.8s-22.6,0-22.6,0s-2.4-0.2-2.4-1.9
		c0-1.8,2.5-2.3,2.5-2.3s2.3-0.7,2.8-2.2C477.9,479.4,478,476.7,478,476.7L478,476.7z"/>
	<path d="M549.6,487.5c-9.9,0.3-10.5-10.9-10.5-10.9l0-78.8c0,0-3.3-0.1-5-0.3c-2.2-0.3-3.6-1.2-3.5-2.4c0.2-1.1,1.7-2.1,1.7-2.1
		s3.7-2,5.7-3.8c3.1-2.8,6.3-8,8.8-13.7c2.7-6.1,4.6-21.1,4.9-24.1c0.3-3,1.6-2.9,1.6-2.9s1.3-0.8,2.2,2.6c0.2,0.7,0.6,3,0.7,6.1
		v34.6c1.4,0,7.2,0.2,7.2,0.2s3.1,0.1,3.2,2.2c0,1.3-0.4,2.1-2.7,2.3c-2.3,0.2-7.7,0.6-7.7,0.6v77.2c0,0-0.1,2.7,2.4,2.8
		c2.5,0,2.9-2.5,2.9-2.5s0.2-3.4,0.7-4.6c0.6-1.2,3.2-2.5,4-0.3c0.8,2.3-0.7,8.5-4.3,12.3C558.6,485.3,556.8,487.3,549.6,487.5
		L549.6,487.5z"/>
	<path d="M142.8,456.4c0,0-0.5-7.1-0.9-10.2c-0.6-4-3.2-10.6-7.4-10.4c-4.2,0.2-6.1,4.7-7,9.1c-0.7,3-0.8,11.6-0.8,11.6L142.8,456.4
		L142.8,456.4z M126.5,461.1h32.8c0,0,0.6-30.5-25-29.9c-25.6,0.6-24.8,30.1-24.8,30.1s1,24.5,25.6,26.3c15,1.1,21.8-16.9,21.8-16.9
		h-4.4c0,0-5.7,12.1-15.7,12.1C126.7,482.9,126,466.8,126.5,461.1L126.5,461.1z"/>
</g>
</svg>
