<?xml version="1.0" encoding="utf-8"?>
<!-- Generator: Adobe Illustrator 17.1.0, SVG Export Plug-In . SVG Version: 6.00 Build 0)  -->
<!DOCTYPE svg PUBLIC "-//W3C//DTD SVG 1.1//EN" "http://www.w3.org/Graphics/SVG/1.1/DTD/svg11.dtd">
<svg version="1.1" id="Calque_1" xmlns="http://www.w3.org/2000/svg" xmlns:xlink="http://www.w3.org/1999/xlink" x="0px" y="0px"
	 viewBox="0 0 595.3 841.9" enable-background="new 0 0 595.3 841.9" xml:space="preserve">
<polygon points="113.6,339.1 89.7,408.1 89.4,408.1 57.5,339.1 32,339.1 77.8,430.2 100.5,430.2 138.3,339.1 "/>
<rect x="209.3" y="339.1" width="23.8" height="91.1"/>
<polygon points="325,339.1 325,430.2 403.7,430.2 403.7,413.7 348.7,413.7 348.7,339.1 "/>
<path d="M509,358h0.3l15.4,39.3h-30.4L509,358z M495.7,339.1l-39.9,91.1h25.1l7.1-17.1h43.4l6.7,17.1h25.9l-40.8-91.1H495.7z"/>
<g>
	<path d="M148.5,477.8c-1.3-1.6-3.3-2.5-5.3-2.5c-4.5,0-7,4.1-7,8.2c0,4,2.7,8,7,8c2,0,4-1,5.3-2.5v5.5c-1.7,0.8-3.5,1.4-5.4,1.4
		c-6.7,0-11.7-5.8-11.7-12.4c0-6.8,4.8-12.8,11.8-12.8c1.9,0,3.7,0.5,5.3,1.4V477.8z"/>
</g>
<polygon points="184.2,471.4 184.2,495.3 197.1,495.3 197.1,491.2 188.9,491.2 188.9,471.4 "/>
<polygon points="281.1,471.4 281.1,475.5 286.8,475.5 286.8,495.3 291.4,495.3 291.4,475.5 297.1,475.5 297.1,471.4 "/>
<polygon points="345.5,471.4 345.5,480.8 336.8,480.8 336.8,471.4 332.2,471.4 332.2,495.3 336.8,495.3 336.8,484.6 345.5,484.6 
	345.5,495.3 350.1,495.3 350.1,471.4 "/>
<polygon points="388.4,471.4 388.4,495.3 400.8,495.3 400.8,491.2 393,491.2 393,484.8 400.5,484.8 400.5,480.7 393,480.7 
	393,475.5 400.8,475.5 400.8,471.4 "/>
<g>
	<path d="M451.7,476.7c-0.9-1.2-2-2-3.6-2c-1.5,0-2.9,1.1-2.9,2.7c0,4,9.5,2.3,9.5,10.4c0,4.8-3,8.2-7.9,8.2c-3.3,0-5.7-1.9-7.3-4.7
		l3-2.9c0.6,1.8,2.3,3.5,4.3,3.5c1.9,0,3.1-1.6,3.1-3.5c0-2.5-2.3-3.2-4.2-3.9c-3.1-1.3-5.3-2.8-5.3-6.5c0-4,2.9-7.2,7-7.2
		c2.1,0,5.1,1,6.5,2.7L451.7,476.7z"/>
	<path d="M245.9,483.4c0,0.1,0,0.2,0,0.2c0,3.6-2.5,7.2-6.1,7.8c-0.4,0.1-0.7,0.1-1.1,0.1c-0.4,0-0.8-0.1-1.1-0.1
		c-3.6-0.6-6.1-4.2-6.1-7.8c0-0.1,0-0.2,0-0.2c0-0.1,0-0.2,0-0.2c0-3.6,2.5-7.2,6.1-7.8c0.4-0.1,0.7-0.1,1.1-0.1
		c0.4,0,0.8,0.1,1.1,0.1c3.6,0.6,6.1,4.2,6.1,7.8C245.9,483.2,245.9,483.3,245.9,483.4 M238.7,495.9c7,0,11.8-5.8,11.8-12.6
		c0-6.7-4.8-12.5-11.8-12.5c-7,0-11.8,5.9-11.8,12.5C226.9,490.2,231.7,495.9,238.7,495.9"/>
</g>
</svg>
