<?xml version="1.0" encoding="utf-8"?>
<!-- Generator: Adobe Illustrator 18.0.0, SVG Export Plug-In . SVG Version: 6.00 Build 0)  -->
<!DOCTYPE svg PUBLIC "-//W3C//DTD SVG 1.1//EN" "http://www.w3.org/Graphics/SVG/1.1/DTD/svg11.dtd">
<svg version="1.1" id="Calque_1" xmlns="http://www.w3.org/2000/svg" xmlns:xlink="http://www.w3.org/1999/xlink" x="0px" y="0px"
	 viewBox="0 0 841.9 595.3" enable-background="new 0 0 841.9 595.3" xml:space="preserve">
<polygon fill="#003552" points="290.8,239.8 273.9,288.6 273.7,288.6 251.1,239.8 233.1,239.8 265.5,304.2 281.5,304.2 308.3,239.8 
	"/>
<rect x="358.5" y="239.8" fill="#003552" width="16.8" height="64.4"/>
<polygon fill="#003552" points="440.3,239.8 440.3,304.2 495.9,304.2 495.9,292.5 457,292.5 457,239.8 "/>
<path fill="#003552" d="M570.4,253.1h0.2l10.9,27.8H560L570.4,253.1z M561,239.8l-28.2,64.4h17.7l5-12.1h30.7l4.7,12.1h18.3
	l-28.8-64.4H561z"/>
<g>
	<path fill="#003552" d="M315.5,337.8c-0.9-1.1-2.3-1.8-3.7-1.8c-3.2,0-4.9,2.9-4.9,5.8c0,2.8,1.9,5.7,4.9,5.7
		c1.4,0,2.8-0.7,3.7-1.8v3.9c-1.2,0.6-2.5,1-3.8,1c-4.7,0-8.3-4.1-8.3-8.8c0-4.8,3.4-9.1,8.3-9.1c1.3,0,2.6,0.4,3.7,1L315.5,337.8
		L315.5,337.8z"/>
</g>
<polygon fill="#003552" points="340.7,333.3 340.7,350.2 349.8,350.2 349.8,347.3 344.1,347.3 344.1,333.3 "/>
<polygon fill="#003552" points="409.2,333.3 409.2,336.2 413.3,336.2 413.3,350.2 416.5,350.2 416.5,336.2 420.6,336.2 420.6,333.3 
	"/>
<polygon fill="#003552" points="454.8,333.3 454.8,340 448.6,340 448.6,333.3 445.4,333.3 445.4,350.2 448.6,350.2 448.6,342.6 
	454.8,342.6 454.8,350.2 458,350.2 458,333.3 "/>
<polygon fill="#003552" points="485.1,333.3 485.1,350.2 493.9,350.2 493.9,347.3 488.4,347.3 488.4,342.8 493.7,342.8 493.7,339.9 
	488.4,339.9 488.4,336.2 493.9,336.2 493.9,333.3 "/>
<g>
	<path fill="#003552" d="M529.9,337.1c-0.6-0.8-1.4-1.4-2.5-1.4c-1.1,0-2.1,0.8-2.1,1.9c0,2.8,6.7,1.6,6.7,7.4
		c0,3.4-2.1,5.8-5.6,5.8c-2.3,0-4-1.3-5.2-3.3l2.1-2.1c0.4,1.3,1.6,2.5,3,2.5c1.3,0,2.2-1.1,2.2-2.5c0-1.8-1.6-2.3-3-2.8
		c-2.2-0.9-3.7-2-3.7-4.6c0-2.8,2.1-5.1,4.9-5.1c1.5,0,3.6,0.7,4.6,1.9L529.9,337.1z"/>
	<path fill="#003552" d="M384.4,341.8c0,0.1,0,0.1,0,0.1c0,2.5-1.8,5.1-4.3,5.5c-0.3,0.1-0.5,0.1-0.8,0.1c-0.3,0-0.6-0.1-0.8-0.1
		c-2.5-0.4-4.3-3-4.3-5.5c0-0.1,0-0.1,0-0.1c0-0.1,0-0.1,0-0.1c0-2.5,1.8-5.1,4.3-5.5c0.3-0.1,0.5-0.1,0.8-0.1s0.6,0.1,0.8,0.1
		c2.5,0.4,4.3,3,4.3,5.5C384.4,341.7,384.4,341.7,384.4,341.8 M379.3,350.6c4.9,0,8.3-4.1,8.3-8.9c0-4.7-3.4-8.8-8.3-8.8
		c-4.9,0-8.3,4.2-8.3,8.8C370.9,346.6,374.3,350.6,379.3,350.6"/>
</g>
</svg>
