<?xml version="1.0" encoding="utf-8"?>
<!-- Generator: Adobe Illustrator 17.1.0, SVG Export Plug-In . SVG Version: 6.00 Build 0)  -->
<!DOCTYPE svg PUBLIC "-//W3C//DTD SVG 1.1//EN" "http://www.w3.org/Graphics/SVG/1.1/DTD/svg11.dtd">
<svg version="1.1" id="Calque_1" xmlns="http://www.w3.org/2000/svg" xmlns:xlink="http://www.w3.org/1999/xlink" x="0px" y="0px"
	 viewBox="0 0 595.3 841.9" enable-background="new 0 0 595.3 841.9" xml:space="preserve">
<polygon points="48.1,429.7 64.3,429.7 75.1,387.2 85.9,429.7 101.8,429.7 118.8,364 103.7,364 93.7,404.6 83.2,364 66.7,364 
	56.3,404.1 46.3,364 31.3,364 "/>
<polygon fill="none" stroke="#000000" stroke-width="0.307" stroke-miterlimit="3.864" points="48.1,429.7 64.3,429.7 75.1,387.2 
	85.9,429.7 101.8,429.7 118.8,364 103.7,364 93.7,404.6 83.2,364 66.7,364 56.3,404.1 46.3,364 31.3,364 "/>
<g>
	<path d="M139.8,396.8c0-12.7,6.2-20.4,17-20.4s17,7.7,17,20.4c0,12.7-6.2,20.7-17,20.7S139.8,409.4,139.8,396.8 M122.8,396.8
		c0,22.4,15.4,34.8,34,34.8s33.9-12.9,34-34.8c0-22.4-15.4-34.7-34-34.7S122.8,374.3,122.8,396.8"/>
	<path fill="none" stroke="#000000" stroke-width="0.307" stroke-miterlimit="3.864" d="M139.8,396.8c0-12.7,6.2-20.4,17-20.4
		s17,7.7,17,20.4c0,12.7-6.2,20.7-17,20.7S139.8,409.4,139.8,396.8z M122.8,396.8c0,22.4,15.4,34.8,34,34.8s33.9-12.9,34-34.8
		c0-22.4-15.4-34.7-34-34.7S122.8,374.3,122.8,396.8z"/>
	<path d="M216.3,396.8c0-12.7,6.2-20.4,16.9-20.4c10.8,0,17,7.7,17,20.4c0,12.7-6.2,20.7-17,20.7
		C222.5,417.5,216.3,409.4,216.3,396.8 M199.3,396.8c0,22.4,15.4,34.8,34,34.8c18.6,0,33.9-12.9,34-34.8c0-22.4-15.4-34.7-34-34.7
		C214.7,362,199.3,374.3,199.3,396.8"/>
	<path fill="none" stroke="#000000" stroke-width="0.307" stroke-miterlimit="3.864" d="M216.3,396.8c0-12.7,6.2-20.4,16.9-20.4
		c10.8,0,17,7.7,17,20.4c0,12.7-6.2,20.7-17,20.7C222.5,417.5,216.3,409.4,216.3,396.8z M199.3,396.8c0,22.4,15.4,34.8,34,34.8
		c18.6,0,33.9-12.9,34-34.8c0-22.4-15.4-34.7-34-34.7C214.7,362,199.3,374.3,199.3,396.8z"/>
	<polygon points="275.8,429.7 321.8,429.7 321.8,416.5 291.8,416.5 291.8,364 275.8,364 	"/>
	<polygon fill="none" stroke="#000000" stroke-width="0.307" stroke-miterlimit="3.864" points="275.8,429.7 321.8,429.7 
		321.8,416.5 291.8,416.5 291.8,364 275.8,364 	"/>
	<path d="M362.9,375.8c5.3,0,9,3,9,7.1c0,4.7-3.6,7.7-9.4,7.7h-15.9v-14.8H362.9L362.9,375.8z M330.4,429.7h16.1v-27.2h10.7
		l16.3,27.2h17.6l-17.3-29.3c12-2.6,15-11.6,15-17.8c0-11.4-9.7-18.7-24.8-18.7h-33.6L330.4,429.7L330.4,429.7z"/>
	<path fill="none" stroke="#000000" stroke-width="0.307" stroke-miterlimit="3.864" d="M362.9,375.8c5.3,0,9,3,9,7.1
		c0,4.7-3.6,7.7-9.4,7.7h-15.9v-14.8H362.9L362.9,375.8z M330.4,429.7h16.1v-27.2h10.7l16.3,27.2h17.6l-17.3-29.3
		c12-2.6,15-11.6,15-17.8c0-11.4-9.7-18.7-24.8-18.7h-33.6L330.4,429.7L330.4,429.7z"/>
	<rect x="399.6" y="364" width="16" height="65.7"/>
	<rect x="399.6" y="364" fill="none" stroke="#000000" stroke-width="0.307" stroke-miterlimit="3.864" width="16" height="65.7"/>
	<path d="M475.8,406.4c-1.8,3.2-6.5,11.2-16,11.2c-10.7,0-16.8-7.7-16.8-20.9c0-13.3,5.9-21.1,15.9-21.1c7.7,0,12.3,4.5,15.7,12.2
		l13.1-7.7c-2.5-5.2-7.8-18-29.9-18c-18.8,0-31.7,14.1-31.7,34.6c0,21.3,13,34.7,33.8,34.7c19.1,0,25.9-11.4,28.7-16.1L475.8,406.4z
		"/>
	<path fill="none" stroke="#000000" stroke-width="0.307" stroke-miterlimit="3.864" d="M475.8,406.4c-1.8,3.2-6.5,11.2-16,11.2
		c-10.7,0-16.8-7.7-16.8-20.9c0-13.3,5.9-21.1,15.9-21.1c7.7,0,12.3,4.5,15.7,12.2l13.1-7.7c-2.5-5.2-7.8-18-29.9-18
		c-18.8,0-31.7,14.1-31.7,34.6c0,21.3,13,34.7,33.8,34.7c19.1,0,25.9-11.4,28.7-16.1L475.8,406.4z"/>
	<polygon points="497.1,429.7 513.1,429.7 513.1,402 541.7,402 541.7,429.7 557.8,429.7 557.8,364 541.8,364 541.8,389.6 
		513.3,389.6 513.3,364 497.1,364 	"/>
	<polygon fill="none" stroke="#000000" stroke-width="0.307" stroke-miterlimit="3.864" points="497.1,429.7 513.1,429.7 513.1,402 
		541.7,402 541.7,429.7 557.8,429.7 557.8,364 541.8,364 541.8,389.6 513.3,389.6 513.3,364 497.1,364 	"/>
	<path d="M370.9,445.1c0-1.3-0.5-2.4-1.4-3.1c-0.9-0.8-2.1-1.1-3.6-1.1c-1.5,0-2.8,0.4-3.8,1.3c-1,0.8-1.5,1.9-1.5,3.1
		c0,1,0.3,2,1,2.8c0.7,0.8,2.1,1.8,4.3,2.9c1.6-0.5,2.9-1.2,3.7-2.1C370.5,447.8,370.9,446.6,370.9,445.1 M375.8,463.4l-12-9.7
		c-0.5,0.2-1,0.5-1.6,0.8c-0.5,0.3-1,0.8-1.6,1.4c-0.5,0.5-0.9,1.2-1.2,2c-0.3,0.8-0.5,1.6-0.5,2.6c0,2,0.7,3.7,2.1,4.9
		c1.4,1.2,3.5,1.9,6.1,1.9c1.6,0,3.1-0.3,4.6-0.9C373.4,465.6,374.7,464.7,375.8,463.4 M383.3,451v2c0,1.3-0.2,2.8-0.6,4.5
		c-0.4,1.7-1.1,3.3-2.1,4.8l9.5,7.7h-6.2l-5.7-4.7c-1.9,2-3.9,3.4-5.9,4.2c-2,0.8-4.1,1.2-6.2,1.2c-3.5,0-6.4-0.8-8.7-2.5
		c-2.3-1.7-3.4-3.9-3.4-6.7c0-1.3,0.2-2.4,0.7-3.3c0.4-0.9,0.9-1.7,1.5-2.4c0.6-0.7,1.3-1.3,2.2-1.8c0.9-0.6,1.7-1.1,2.6-1.5
		c-1.8-1-3.2-2-4-3c-0.8-1-1.2-2.3-1.2-3.8c0-0.9,0.2-1.8,0.7-2.7c0.5-0.8,1.1-1.6,2-2.3c0.8-0.7,1.9-1.2,3.3-1.6
		c1.4-0.4,2.8-0.6,4.5-0.6c2.9,0,5.2,0.6,7,1.8c1.8,1.2,2.7,2.7,2.7,4.6c0,0.6-0.1,1.3-0.3,2.1c-0.2,0.8-0.5,1.5-1,2.1
		c-0.5,0.7-1.3,1.3-2.3,2c-1,0.6-2.3,1.2-3.8,1.6l9.3,7.6c0.2-0.6,0.4-1.2,0.5-1.8c0.1-0.7,0.2-1.4,0.2-2.1c0-0.8,0-1.6,0-2.6V451
		L383.3,451L383.3,451z"/>
	<path fill="none" stroke="#263678" stroke-width="0.282" stroke-miterlimit="3.864" d="M370.9,445.1c0-1.3-0.5-2.4-1.4-3.1
		c-0.9-0.8-2.1-1.1-3.6-1.1c-1.5,0-2.8,0.4-3.8,1.3c-1,0.8-1.5,1.9-1.5,3.1c0,1,0.3,2,1,2.8c0.7,0.8,2.1,1.8,4.3,2.9
		c1.6-0.5,2.9-1.2,3.7-2.1C370.5,447.8,370.9,446.6,370.9,445.1z M375.8,463.4l-12-9.7c-0.5,0.2-1,0.5-1.6,0.8
		c-0.5,0.3-1,0.8-1.6,1.4c-0.5,0.5-0.9,1.2-1.2,2c-0.3,0.8-0.5,1.6-0.5,2.6c0,2,0.7,3.7,2.1,4.9c1.4,1.2,3.5,1.9,6.1,1.9
		c1.6,0,3.1-0.3,4.6-0.9C373.4,465.6,374.7,464.7,375.8,463.4z M383.3,451v2c0,1.3-0.2,2.8-0.6,4.5c-0.4,1.7-1.1,3.3-2.1,4.8
		l9.5,7.7h-6.2l-5.7-4.7c-1.9,2-3.9,3.4-5.9,4.2c-2,0.8-4.1,1.2-6.2,1.2c-3.5,0-6.4-0.8-8.7-2.5c-2.3-1.7-3.4-3.9-3.4-6.7
		c0-1.3,0.2-2.4,0.7-3.3c0.4-0.9,0.9-1.7,1.5-2.4c0.6-0.7,1.3-1.3,2.2-1.8c0.9-0.6,1.7-1.1,2.6-1.5c-1.8-1-3.2-2-4-3
		c-0.8-1-1.2-2.3-1.2-3.8c0-0.9,0.2-1.8,0.7-2.7c0.5-0.8,1.1-1.6,2-2.3c0.8-0.7,1.9-1.2,3.3-1.6c1.4-0.4,2.8-0.6,4.5-0.6
		c2.9,0,5.2,0.6,7,1.8c1.8,1.2,2.7,2.7,2.7,4.6c0,0.6-0.1,1.3-0.3,2.1c-0.2,0.8-0.5,1.5-1,2.1c-0.5,0.7-1.3,1.3-2.3,2
		c-1,0.6-2.3,1.2-3.8,1.6l9.3,7.6c0.2-0.6,0.4-1.2,0.5-1.8c0.1-0.7,0.2-1.4,0.2-2.1c0-0.8,0-1.6,0-2.6V451L383.3,451L383.3,451z"/>
	<path d="M411.5,470h14.7c5.5,0,8.1,0,11.1-1.6c4-2.2,4.3-5.5,4.3-7c0-6.1-5.5-7.5-6.9-7.8c2.8-0.7,5.7-3,5.7-6.8
		c0-4.9-4.5-7.2-8.3-7.8c-1.5-0.2-2.9-0.2-5-0.2h-15.5V470z M427.8,442.5c2,0,7.2,0.1,7.2,4.6c0,0.9-0.3,1.9-1,2.8
		c-1.7,2.1-4.4,2.1-10.1,2.1h-7.8v-9.5L427.8,442.5L427.8,442.5z M425.4,455.5c4.6,0,5.8,0.1,7.3,0.6c0.4,0.2,3.6,1.4,3.6,5
		c0,2.4-1.2,4.4-4.4,5c-1.1,0.2-2,0.2-4.6,0.3h-11.1v-10.9L425.4,455.5L425.4,455.5z"/>
	<path fill="none" stroke="#263678" stroke-width="0.282" stroke-miterlimit="3.864" d="M411.5,470h14.7c5.5,0,8.1,0,11.1-1.6
		c4-2.2,4.3-5.5,4.3-7c0-6.1-5.5-7.5-6.9-7.8c2.8-0.7,5.7-3,5.7-6.8c0-4.9-4.5-7.2-8.3-7.8c-1.5-0.2-2.9-0.2-5-0.2h-15.5V470z
		 M427.8,442.5c2,0,7.2,0.1,7.2,4.6c0,0.9-0.3,1.9-1,2.8c-1.7,2.1-4.4,2.1-10.1,2.1h-7.8v-9.5L427.8,442.5L427.8,442.5z
		 M425.4,455.5c4.6,0,5.8,0.1,7.3,0.6c0.4,0.2,3.6,1.4,3.6,5c0,2.4-1.2,4.4-4.4,5c-1.1,0.2-2,0.2-4.6,0.3h-11.1v-10.9L425.4,455.5
		L425.4,455.5z"/>
	<path d="M464.9,456.8l10.2,13.3h6l-10.5-13.5c1.8-0.3,8.9-1.3,8.9-8.6c0-2.9-1.2-5.5-3.9-7.2c-2.9-1.9-6-1.9-11.2-1.9h-13.9V470
		h4.9v-13.3L464.9,456.8L464.9,456.8z M455.2,442.3h9.7c2.9,0,5.3,0,7.3,1.3c2.1,1.5,2.2,3.6,2.2,4.4c0,2.3-1.2,4.3-4.7,5
		c-1.5,0.3-3,0.3-4.6,0.3h-9.9L455.2,442.3L455.2,442.3z"/>
	<path fill="none" stroke="#263678" stroke-width="0.282" stroke-miterlimit="3.864" d="M464.9,456.8l10.2,13.3h6l-10.5-13.5
		c1.8-0.3,8.9-1.3,8.9-8.6c0-2.9-1.2-5.5-3.9-7.2c-2.9-1.9-6-1.9-11.2-1.9h-13.9V470h4.9v-13.3L464.9,456.8L464.9,456.8z
		 M455.2,442.3h9.7c2.9,0,5.3,0,7.3,1.3c2.1,1.5,2.2,3.6,2.2,4.4c0,2.3-1.2,4.3-4.7,5c-1.5,0.3-3,0.3-4.6,0.3h-9.9L455.2,442.3
		L455.2,442.3z"/>
	<path d="M523.3,454.1c0-10.2-8.3-16.1-18.9-16.1c-9.3,0-18.9,4.8-18.9,16.4c0,9.7,7.3,16.4,18.8,16.4
		C516.7,470.8,523.3,463.5,523.3,454.1 M517.9,454.2c0.1,6.4-3.3,13.4-13.4,13.4c-9.7,0-13.6-6.5-13.6-13.1c0-7,4-13.1,13.5-13.1
		C513.1,441.4,517.8,446.6,517.9,454.2"/>
	<path fill="none" stroke="#263678" stroke-width="0.282" stroke-miterlimit="3.864" d="M523.3,454.1c0-10.2-8.3-16.1-18.9-16.1
		c-9.3,0-18.9,4.8-18.9,16.4c0,9.7,7.3,16.4,18.8,16.4C516.7,470.8,523.3,463.5,523.3,454.1z M517.9,454.2
		c0.1,6.4-3.3,13.4-13.4,13.4c-9.7,0-13.6-6.5-13.6-13.1c0-7,4-13.1,13.5-13.1C513.1,441.4,517.8,446.6,517.9,454.2z"/>
	<path d="M547.4,456.2c3.7,0.6,7.1,1.6,7.1,5.2c0,4.1-4,6.2-9.4,6.2c-2.8,0-5.6-0.5-7.7-2.1c-2.8-2.1-3-4.8-3-6l-5.4,0.6
		c0.9,10.3,12.5,10.7,15.9,10.7c2.3,0,6.6-0.2,10.2-2.2c3.3-1.9,4.8-4.6,4.8-7.6c0-2.1-0.8-5.8-6.5-7.8c-1.5-0.5-3-0.8-5.9-1.4
		l-4.2-0.9c-3.2-0.6-7.4-1.4-7.4-4.9c0-3.4,4-4.9,8.5-4.9c2.4,0,4.8,0.4,6.7,1.5c2.8,1.7,3,4.2,3,5.2l5-0.3
		c-0.4-1.9-1.1-5.1-4.8-7.3c-3.4-2.1-7.4-2.3-10.1-2.3c-2.6,0-6.7,0.3-10.1,2.7c-1.4,1-3.5,3-3.5,6.1c0,6.5,8,8,13.4,8.9
		L547.4,456.2z"/>
	<path fill="none" stroke="#263678" stroke-width="0.282" stroke-miterlimit="3.864" d="M547.4,456.2c3.7,0.6,7.1,1.6,7.1,5.2
		c0,4.1-4,6.2-9.4,6.2c-2.8,0-5.6-0.5-7.7-2.1c-2.8-2.1-3-4.8-3-6l-5.4,0.6c0.9,10.3,12.5,10.7,15.9,10.7c2.3,0,6.6-0.2,10.2-2.2
		c3.3-1.9,4.8-4.6,4.8-7.6c0-2.1-0.8-5.8-6.5-7.8c-1.5-0.5-3-0.8-5.9-1.4l-4.2-0.9c-3.2-0.6-7.4-1.4-7.4-4.9c0-3.4,4-4.9,8.5-4.9
		c2.4,0,4.8,0.4,6.7,1.5c2.8,1.7,3,4.2,3,5.2l5-0.3c-0.4-1.9-1.1-5.1-4.8-7.3c-3.4-2.1-7.4-2.3-10.1-2.3c-2.6,0-6.7,0.3-10.1,2.7
		c-1.4,1-3.5,3-3.5,6.1c0,6.5,8,8,13.4,8.9L547.4,456.2z"/>
	<rect x="562.4" y="465" width="5.3" height="5"/>
	<rect x="562.4" y="465" fill="none" stroke="#263678" stroke-width="0.282" stroke-miterlimit="3.864" width="5.3" height="5"/>
	<path d="M221.8,456.8L232,470h6l-10.5-13.5c1.8-0.3,8.9-1.3,8.9-8.6c0-2.9-1.2-5.5-3.9-7.2c-2.9-1.9-6-1.9-11.2-1.9h-13.9V470h4.9
		v-13.3L221.8,456.8L221.8,456.8z M212.1,442.3h9.7c2.9,0,5.3,0,7.3,1.3c2.1,1.5,2.2,3.6,2.2,4.4c0,2.3-1.2,4.3-4.7,5
		c-1.5,0.3-3,0.3-4.6,0.3h-9.9L212.1,442.3L212.1,442.3z"/>
	<path fill="none" stroke="#263678" stroke-width="0.282" stroke-miterlimit="3.864" d="M221.8,456.8L232,470h6l-10.5-13.5
		c1.8-0.3,8.9-1.3,8.9-8.6c0-2.9-1.2-5.5-3.9-7.2c-2.9-1.9-6-1.9-11.2-1.9h-13.9V470h4.9v-13.3L221.8,456.8L221.8,456.8z
		 M212.1,442.3h9.7c2.9,0,5.3,0,7.3,1.3c2.1,1.5,2.2,3.6,2.2,4.4c0,2.3-1.2,4.3-4.7,5c-1.5,0.3-3,0.3-4.6,0.3h-9.9L212.1,442.3
		L212.1,442.3z"/>
	<rect x="244.3" y="438.8" width="5.1" height="31.2"/>
	
		<rect x="244.3" y="438.8" fill="none" stroke="#263678" stroke-width="0.282" stroke-miterlimit="3.864" width="5.1" height="31.2"/>
	<path d="M288,458.2c-1.2,6.6-6.9,9.2-12.4,9.2c-8.7,0-13.4-5.4-13.4-13.2c0-3.2,0.7-6.5,3.1-8.9c2.4-2.6,6.3-3.9,10.3-3.9
		c4.7,0,8,1.8,9.8,3.6c1.4,1.3,1.8,2.3,2.2,3.5l5-0.9c-0.9-2.1-4.1-9.6-17.1-9.6c-12.9,0-19,7.6-19,16.4c0,8.7,6,16.4,18.3,16.4
		c10.9,0,16.9-6.2,18.5-12.1L288,458.2z"/>
	<path fill="none" stroke="#263678" stroke-width="0.282" stroke-miterlimit="3.864" d="M288,458.2c-1.2,6.6-6.9,9.2-12.4,9.2
		c-8.7,0-13.4-5.4-13.4-13.2c0-3.2,0.7-6.5,3.1-8.9c2.4-2.6,6.3-3.9,10.3-3.9c4.7,0,8,1.8,9.8,3.6c1.4,1.3,1.8,2.3,2.2,3.5l5-0.9
		c-0.9-2.1-4.1-9.6-17.1-9.6c-12.9,0-19,7.6-19,16.4c0,8.7,6,16.4,18.3,16.4c10.9,0,16.9-6.2,18.5-12.1L288,458.2z"/>
	<polygon points="324.7,470 329.7,470 329.7,438.8 324.7,438.8 324.7,452.1 304.3,452.1 304.3,438.8 299.3,438.8 299.3,470 
		304.3,470 304.3,455.8 324.7,455.8 	"/>
	<polygon fill="none" stroke="#263678" stroke-width="0.282" stroke-miterlimit="3.864" points="324.7,470 329.7,470 329.7,438.8 
		324.7,438.8 324.7,452.1 304.3,452.1 304.3,438.8 299.3,438.8 299.3,470 304.3,470 304.3,455.8 324.7,455.8 	"/>
	<path d="M57.1,438.8V460c0,3.4,0,5.2-2.3,6.1c-1,0.5-2.4,0.6-3.5,0.6c-1.9,0-3.3-0.4-4.4-0.9v4.5c0.9,0.1,2.4,0.4,5,0.4
		c2.1,0,5.5-0.2,8.1-2.6c2.2-2,2.2-4.1,2.2-6.5v-23H57.1z"/>
	<path fill="none" stroke="#263678" stroke-width="0.282" stroke-miterlimit="3.864" d="M57.1,438.8V460c0,3.4,0,5.2-2.3,6.1
		c-1,0.5-2.4,0.6-3.5,0.6c-1.9,0-3.3-0.4-4.4-0.9v4.5c0.9,0.1,2.4,0.4,5,0.4c2.1,0,5.5-0.2,8.1-2.6c2.2-2,2.2-4.1,2.2-6.5v-23H57.1z
		"/>
	<path d="M108,454.1c0-10.2-8.3-16.1-18.9-16.1c-9.3,0-18.9,4.8-18.9,16.4c0,9.7,7.3,16.4,18.8,16.4
		C101.4,470.8,108,463.5,108,454.1 M102.6,454.2c0.1,6.4-3.3,13.4-13.4,13.4c-9.7,0-13.6-6.5-13.6-13.1c0-7,4-13.1,13.5-13.1
		C97.8,441.4,102.6,446.6,102.6,454.2"/>
	<path fill="none" stroke="#263678" stroke-width="0.282" stroke-miterlimit="3.864" d="M108,454.1c0-10.2-8.3-16.1-18.9-16.1
		c-9.3,0-18.9,4.8-18.9,16.4c0,9.7,7.3,16.4,18.8,16.4C101.4,470.8,108,463.5,108,454.1z M102.6,454.2c0.1,6.4-3.3,13.4-13.4,13.4
		c-9.7,0-13.6-6.5-13.6-13.1c0-7,4-13.1,13.5-13.1C97.8,441.4,102.6,446.6,102.6,454.2z"/>
	<polygon points="141.4,470 146.5,470 146.5,438.8 141.4,438.8 141.4,452.1 121,452.1 121,438.8 116,438.8 116,470 121,470 
		121,455.8 141.4,455.8 	"/>
	<polygon fill="none" stroke="#263678" stroke-width="0.282" stroke-miterlimit="3.864" points="141.4,470 146.5,470 146.5,438.8 
		141.4,438.8 141.4,452.1 121,452.1 121,438.8 116,438.8 116,470 121,470 121,455.8 141.4,455.8 	"/>
	<polygon points="181.8,438.8 182,463.9 161.6,438.8 156.9,438.8 156.9,470 161.6,470 161.2,444.7 181.8,470 186.3,470 186.3,438.8 
			"/>
	<polygon fill="none" stroke="#263678" stroke-width="0.282" stroke-miterlimit="3.864" points="181.8,438.8 182,463.9 161.6,438.8 
		156.9,438.8 156.9,470 161.6,470 161.2,444.7 181.8,470 186.3,470 186.3,438.8 	"/>
</g>
</svg>
