<?xml version="1.0" encoding="utf-8"?>
<!-- Generator: Adobe Illustrator 17.1.0, SVG Export Plug-In . SVG Version: 6.00 Build 0)  -->
<!DOCTYPE svg PUBLIC "-//W3C//DTD SVG 1.1//EN" "http://www.w3.org/Graphics/SVG/1.1/DTD/svg11.dtd">
<svg version="1.1" id="Calque_1" xmlns="http://www.w3.org/2000/svg" xmlns:xlink="http://www.w3.org/1999/xlink" x="0px" y="0px"
	 viewBox="0 0 595.3 841.9" enable-background="new 0 0 595.3 841.9" xml:space="preserve">
<g>
	<path d="M531.7,414.8c-0.2,0-0.3,0.2-0.5,0.4c-1.3,0.8-2.8,1.6-4.2,2c-2.1,0.7-4.2,1.1-6.6,1.3c-5.9,0.4-11.2,3.9-13.6,9.4
		c-1.3,3-1.8,5.9-1.8,9.4c-0.2,2.4,0.2,4.6,0.4,6.6c0.3,2.9,1.1,5.3,2.9,7.9c0.6,0.7,1.1,1.3,1.9,1.9c0.7,0.5,1.5,0.9,2.6,1.1
		c0.9,0.2,1.9,0.3,2.9,0.2c2.6-0.2,4.6-1.1,6.8-2.6c2.4-1.7,3.9-3.3,5.2-5.3c1.4-2,2.4-4.1,3.1-6.3c0.6-1.8,0.9-3.6,1.1-5.3
		L531.7,414.8L531.7,414.8z M507.6,459.5c-3.5,0-6.6-0.6-9.7-1.8c-4-1.5-6.8-3.9-9-7.7c-2.8-5-3.7-9.6-2.7-15.3
		c0.9-4.8,2.9-8.1,6.8-11.2c4-3.3,8.1-5.5,13-6.8c2.6-0.7,5.5-1.3,8.8-1.5c2-0.3,4.1-0.5,6.3-0.7c1.1-0.2,2.2-0.4,3.1-0.6
		c3.1-0.7,5-2.2,6.6-4.9c0.6-1.5,0.9-2.7,0.9-4.1v-12.9c0-0.9-0.2-1.8-0.2-2.9c-1.1-4.4-4.9-7.6-9.4-7.8c-2.7-0.4-5.1-0.3-7.7,0.4
		l-0.2,0c-2.8,0.4-5.5,1.3-8.1,2.6c-1.3,0.6-2.4,1.1-3.7,2c-0.7,0.5-1.3,0.9-1.8,1.6c-0.2,0.4-0.2,0.9-0.2,1.5
		c0.2,0.4,0.5,0.7,0.9,0.9c0.7,0.4,1.5,0.7,2.4,0.9l0.8,0.4c0.2,0.2,0.4,0.2,0.5,0.3c0.2,0,0.2,0.2,0.4,0.2l0.2,0
		c1.8,1.3,2.9,2.8,3.5,4.8c0.7,2,0.9,3.9,0.4,6.1c-0.4,2.8-1.7,4.6-4.1,6.2c-2.6,1.7-4.8,2-8.1,1.3c-2.9-0.7-4.8-2.2-6.4-5.1
		c-0.7-1.5-1.1-2.9-1.1-4.6c-0.2-2,0.2-4.2,0.9-6.4c0.7-2,1.6-3.7,2.8-5.2c1.5-2.2,3.3-4,5.9-5.7c3-2.2,6.4-3.9,10.3-5
		c4.4-1.5,8.5-2,12.7-2c0.4,0,0.7,0,1.1,0c3.7,0,7.3,0.5,10.8,1.5c4.6,1.1,8.3,3.3,11.4,6.6c3.7,4.2,5,8.1,4.6,13.4v48.1
		c0.2,3.3,2.9,5.2,5.5,5.2c2.4,0,4.2-1.3,5-3.5c1.1-3.1,1.5-6.4,1.4-10.1v-12.5h4v14.5c0,2.6-0.4,5.1-1.1,8.2
		c-0.6,2.9-1.9,5.2-4.1,7.2c-2.7,2-5.2,2.8-8.3,2.8c-0.9,0.2-1.8,0.2-2.7,0.2c-2,0-3.9-0.2-5.9-0.7c-2.6-0.9-4.7-2.2-6.6-3.9
		c-2.2-2.2-3.7-4.8-4.6-7.7c-1.1,2.2-2.6,4.2-4.4,6.4c-5.5,4.6-12.3,7.2-19.5,7.2h-0.5C508.4,459.5,508,459.5,507.6,459.5"/>
	<path d="M352.4,380.8c-4.8,0-9.2,2.4-11.6,6.6c-0.4,1.1-0.9,2.2-1.1,3.5c-0.7,2.6-1.1,4.6-1.3,6.4c-0.4,4.8-0.4,9.6,0.4,14.4
		c0.2,1.7,0.4,2.9,0.9,4.2c2.4,6.8,8.3,9.2,12.9,9.2c6.3,0,11.4-3.9,13.2-9.9c0.6-2.5,0.9-5,1.1-7.5c0.2-4.4,0-8.8-0.7-13.3
		c-0.2-1.5-0.6-2.9-1.1-4.4C363.4,384.4,358.3,380.8,352.4,380.8 M356.6,460.8c-1.1,0-2.4,0-3.6,0.2c-1.8,0-3.5,0-5.4,0.2
		c-2.7,0.2-5.1,0.6-7.4,1.1c-1.1,0.3-2.2,0.6-3.1,0.9c-2.4,0.9-4,2-5.7,3.5c-1.9,2.2-2.9,4.4-3.2,7.1c-0.9,3.5,0.2,7,2.8,9.6
		c6.6,5.2,15.1,8.1,23.6,8.1c8.8,0,17.5-3,24.4-8.6c2.2-2.2,3-4.6,2.8-8.1c0-3.7-1.1-6.3-3.8-8.7c-1.1-1.1-2.3-1.8-3.9-2.6
		c-2.4-1.1-5-1.7-7.3-2C363.2,461,359.9,460.8,356.6,460.8 M353.1,496.3L353.1,496.3c-2.6,0-5.2-0.2-7.8-0.6
		c-5.7-0.7-11-2.2-16.2-4.6c-3.9-1.7-7-3.7-9.8-6.3c-2.2-1.8-3.6-3.9-4.6-6.8c-0.4-1.1-0.5-2.4-0.5-3.7c0.6-3.1,1.7-4.9,4-6.4
		c1.9-1.7,4.1-3.1,6.8-4.4c1.6-0.9,3.5-1.6,5.3-2.4c-0.6-0.2-1.3-0.4-1.8-0.7c-1.1-0.4-2.4-1.1-3.3-1.7c-2.2-1.1-4-2.8-5.7-5
		c-3-3.9-4.2-7.7-3.9-12.7c0-3.5,1.1-6.3,3.5-9.4c2.9-3.5,7.1-5.7,11.6-6.3c-4.3-2.9-7-6.3-9-11.2c-2.2-5.5-2.4-10.3-0.6-15.8
		c1.1-4.2,3-7.7,5.9-10.8c4-4.6,8.6-7.5,14.5-9.2c5-1.5,9.2-2,13.8-1.6c4.8,0.2,9.4,1.3,13.6,3.1c0-1.6,0-3.1,0-4.7
		c0.2-1.1,0.4-2.8,1.1-4.4c0.5-1.7,1.3-3.1,2.2-4.2c1.3-2,3.1-3.3,5.5-4c1.8-0.7,3.8-0.9,5.9-0.4c2,0.4,3.3,1.3,4.4,3
		c1.5,2.4,1.7,4.4,0.7,6.9c-0.6,1.9-1.7,3.3-3.7,4.3c-2.8,1.4-4.6,1.3-7.3-0.4c-2-1.3-3-2.8-3.2-5c-0.3,0.4-0.4,0.9-0.5,1.3
		c-0.7,1.8-0.9,3.6-0.7,5.3c0,2,0.6,3.7,1.5,5.7c2.5,1.7,4.4,3.7,6,6.4c3,5.1,4.1,10.1,3.5,16.1c-0.6,6.1-2.8,10.5-7.4,14.4
		c-3.3,3-6.8,5.1-11,6.6c-5.9,2-11.8,3.1-17.8,3.1c-3.1,0-6.3-0.2-9.8-0.8c-0.7-0.2-1.5-0.3-2.4-0.3c-2.4,0.2-4.4,0.4-6.5,0.9
		c-1.1,0.4-2.4,0.7-3.3,1.3c-2.2,1.3-3.1,2.6-3.3,4.9c-0.7,2.8,0.8,5.5,3.3,6.4c1.8,0.7,3.7,1.1,5.2,1.3c4,0.4,7.9,0.4,11.4-0.2
		c1.3-0.2,2.6-0.2,3.9-0.4c1.5-0.2,2.9-0.4,4.2-0.5c5.7-0.6,11-0.5,16.7,0.4c4.6,0.6,8.5,2,12.5,4.6c3.3,2.2,5.7,5,7.4,8.6
		c1.6,3.1,2.4,6.1,2.5,9.7c0.5,5.1-0.4,9.2-2.7,13.4c-2.7,5-6.3,8.5-11.2,11.2c-4.4,2.4-8.5,3.9-13,4.8
		C359.7,495.9,356.6,496.3,353.1,496.3"/>
	<path d="M485.4,458.4h-45v-4h0.5c1.5,0,2.9,0,4.2-0.2c1.5-0.2,2.8-0.4,4-0.6c2.4-0.7,3.9-2.7,3.8-5.3v-53.8
		c-0.3-6.1-5.3-10.7-11.4-10.7c-2,0-3.9,0.4-5.7,1.5c-1.8,1.3-3.1,2.6-4.1,4.2c-1.8,2.6-3.1,5.6-4,8.8c-2.4,8.9-4,18.2-4.6,28.5
		v21.3c-0.2,2.6,1.5,5,4.1,5.5c0.9,0.3,1.5,0.4,2.2,0.4c1.3,0.2,2.4,0.3,3.5,0.3h1.8v4h-43.7v-4h5.7c1.5,0,2.9-0.2,4.2-0.4
		c0.9-0.2,1.5-0.5,2.2-0.9c1.6-1.3,2.4-2.7,2.4-4.9v-55.7c0-1.8-0.6-3.1-1.7-4.6c-2-1.8-4.2-2.6-7.2-2.6c-0.5,0-0.9,0-1.4,0
		c-0.4,0-0.9,0-1.3,0h-3.3v-4l2.9,0c2.4-0.2,4.8-0.2,7.2-0.4c3.9-0.3,7.9-0.7,11.8-1.3l10.6-1.1v21.2c0.7-2.8,1.7-5.5,2.9-8.3
		c1.5-3.7,3.7-6.4,6.8-8.8c2.9-2.2,6.1-3.5,9.7-4c1.6-0.4,3.3-0.5,5-0.5c5.9,0,11.6,2.2,16,6.1c2,1.8,3.7,3.8,5.3,6.6
		c1.8,3.3,2.7,6.4,2.8,10.3v46.8c0.3,2.8,1.3,4.4,3.8,5.9c0.6,0.2,1.5,0.4,2.2,0.4c0.7,0.2,1.5,0.2,2.2,0.2c0.7,0,1.5,0,2.2,0.2h3.1
		L485.4,458.4L485.4,458.4z"/>
	<path d="M229.6,458.4h-88.8l1.2-2.2c0.4-0.7,41.4-74.8,62.1-112.4h-28.3c-8.1,0.5-15.3,5.3-19,12.5c-3.9,6.6-5.8,13.5-5.9,21.5
		l0,0.5h-3.1v-39.5h82.4l-1.1,2.2c0,0-41.1,74.3-62.1,112.3h30.8c10.5,0,19.9-6.1,24.1-15.5c2.9-6,4.3-12.1,4.6-18.7l0-0.5h3.1
		L229.6,458.4L229.6,458.4z"/>
	<path d="M121.6,458.4H32.8l1.2-2.2c0.4-0.7,41.4-74.8,62.1-112.4H67.9c-8.1,0.5-15.4,5.3-19,12.5c-3.9,6.6-5.8,13.5-6,21.5l0,0.5
		h-3.1v-39.5h82.5L121,341c0.1,0-41,74.3-61.9,112.3h30.7c10.5,0,20-6.1,24.2-15.5c2.8-6,4.3-12.1,4.6-18.7l0-0.5h3.1L121.6,458.4
		L121.6,458.4z"/>
	<path d="M259.4,413.2h30.8c0-3.3,0-7-0.2-10.3c-0.3-3.8-0.9-7.3-1.8-11.2c-1.5-7-7.5-10.1-12.7-10.1c-5.5,0-10.1,3.1-12.1,8.3
		c-2,4.8-3.1,9.4-3.5,14.1C259.6,407.3,259.4,410.5,259.4,413.2 M275.8,459.7c-8.3,0-16.2-2.7-23-7.5c-8.1-6.1-13.3-15.3-14.3-25.3
		c-1.1-10.3,1.1-20.9,6.4-29.8c3.3-5.7,7.4-10.3,12.9-14c6.6-4.9,13.1-6.8,21.3-6.2c8.8,0.5,16.7,5,21.5,12.1
		c5.9,9,8.3,17.8,7.9,28.3l0,0.4h-48.9v7.1c0,1.7,0,3.5,0,5.2c0.3,4.9,1.2,9.7,2.7,14c1.1,3.6,2.9,5.9,6.1,8.1
		c3.7,2.2,7.1,2.9,11.6,2.4c1.7,0,3.3-0.4,5.6-0.9c4.1-1.3,7-3,9.8-5.7c5.1-5.2,8.2-11.9,8.4-19.1l0-0.5h4.4l0,0.6
		c-0.2,7.9-3.3,15.4-8.6,21.3c-2,2-3.9,3.5-5.7,4.6c-4.7,2.9-9.3,4.4-14.5,4.9C278.2,459.5,277,459.7,275.8,459.7"/>
</g>
</svg>
